0
SECTION
2
HEADER
9
$ACADVER
1
AC1006
9
$INSBASE
10
0.0
20
0.0
30
0.0
9
$EXTMIN
10
0.0
20
0.0
9
$EXTMAX
10
0.0
20
0.0
0
ENDSEC
0
SECTION
2
TABLES
0
TABLE
2
LTYPE
70
1
0
LTYPE
2
CONTINUOUS
70
64
3
Solid line
72
65
73
0
40
0.0
0
ENDTAB
0
TABLE
2
LAYER
70
1
0
LAYER
2
PYDXF
70
64
62
7
6
continuous
0
ENDTAB
0
TABLE
2
STYLE
70
1
0
STYLE
2
STANDARD
70
0
40
0
41
40
50
50
71
0
42
1
3
ARIAL.TTF
4

0
ENDTAB
0
TABLE
2
VIEW
70
0
0
ENDTAB
0
ENDSEC
0
SECTION
2
BLOCKS
0
BLOCK
8
0
2
C1H
70
0
10
0
20
0
30
0
3
C1H
0
POLYLINE
8
0
66
1
10
0.0
20
0.0
30
0.0
0
VERTEX
8
0
10
-25.0
20
23345.0
0
VERTEX
8
0
10
-25.0
20
23270.0
0
VERTEX
8
0
10
275.0
20
23270.0
0
VERTEX
8
0
10
275.0
20
23345.0
0
VERTEX
8
0
10
-25.0
20
23345.0
0
SEQEND
0
POLYLINE
8
0
66
1
10
0.0
20
0.0
30
0.0
0
VERTEX
8
0
10
200.0
20
23270.0
0
VERTEX
8
0
10
200.0
20
22945.0
0
VERTEX
8
0
10
275.0
20
22945.0
0
VERTEX
8
0
10
275.0
20
23270.0
0
VERTEX
8
0
10
200.0
20
23270.0
0
SEQEND
0
POLYLINE
8
0
66
1
10
0.0
20
0.0
30
0.0
0
VERTEX
8
0
10
50.0
20
23270.0
0
VERTEX
8
0
10
50.000000000000014
20
22945.0
0
VERTEX
8
0
10
-24.999999999999986
20
22945.0
0
VERTEX
8
0
10
-25.0
20
23270.0
0
VERTEX
8
0
10
50.0
20
23270.0
0
SEQEND
0
POLYLINE
8
0
66
1
10
0.0
20
0.0
30
0.0
0
VERTEX
8
0
10
200.0
20
22945.0
0
VERTEX
8
0
10
130.00000000000003
20
22695.0
0
VERTEX
8
0
10
134.84168810941995
20
22695.0
0
VERTEX
8
0
10
275.0
20
22945.0
0
VERTEX
8
0
10
200.0
20
22945.0
0
SEQEND
0
POLYLINE
8
0
66
1
10
0.0
20
0.0
30
0.0
0
VERTEX
8
0
10
50.000000000000014
20
22945.0
0
VERTEX
8
0
10
120.00000000000003
20
22695.0
0
VERTEX
8
0
10
115.15831189058011
20
22695.0
0
VERTEX
8
0
10
-24.999999999999986
20
22945.0
0
VERTEX
8
0
10
50.000000000000014
20
22945.0
0
SEQEND
0
POLYLINE
8
0
66
1
10
0.0
20
0.0
30
0.0
0
VERTEX
8
0
10
-25.0
20
25600.0
0
VERTEX
8
0
10
-25.0
20
25525.0
0
VERTEX
8
0
10
275.0
20
25525.0
0
VERTEX
8
0
10
275.0
20
25600.0
0
VERTEX
8
0
10
-25.0
20
25600.0
0
SEQEND
0
POLYLINE
8
0
66
1
10
0.0
20
0.0
30
0.0
0
VERTEX
8
0
10
200.0
20
25525.0
0
VERTEX
8
0
10
200.0
20
25200.0
0
VERTEX
8
0
10
275.0
20
25200.0
0
VERTEX
8
0
10
275.0
20
25525.0
0
VERTEX
8
0
10
200.0
20
25525.0
0
SEQEND
0
POLYLINE
8
0
66
1
10
0.0
20
0.0
30
0.0
0
VERTEX
8
0
10
50.0
20
25525.0
0
VERTEX
8
0
10
50.000000000000014
20
25200.0
0
VERTEX
8
0
10
-24.999999999999986
20
25200.0
0
VERTEX
8
0
10
-25.0
20
25525.0
0
VERTEX
8
0
10
50.0
20
25525.0
0
SEQEND
0
POLYLINE
8
0
66
1
10
0.0
20
0.0
30
0.0
0
VERTEX
8
0
10
200.0
20
25200.0
0
VERTEX
8
0
10
130.00000000000003
20
24950.0
0
VERTEX
8
0
10
134.84168810941995
20
24950.0
0
VERTEX
8
0
10
275.0
20
25200.0
0
VERTEX
8
0
10
200.0
20
25200.0
0
SEQEND
0
POLYLINE
8
0
66
1
10
0.0
20
0.0
30
0.0
0
VERTEX
8
0
10
50.000000000000014
20
25200.0
0
VERTEX
8
0
10
120.00000000000003
20
24950.0
0
VERTEX
8
0
10
115.15831189058011
20
24950.0
0
VERTEX
8
0
10
-24.999999999999986
20
25200.0
0
VERTEX
8
0
10
50.000000000000014
20
25200.0
0
SEQEND
0
POLYLINE
8
0
66
1
10
0.0
20
0.0
30
0.0
0
VERTEX
8
0
10
4825.0
20
47850.0
0
VERTEX
8
0
10
4750.0
20
47850.0
0
VERTEX
8
0
10
4750.0
20
47550.0
0
VERTEX
8
0
10
4825.0
20
47550.0
0
VERTEX
8
0
10
4825.0
20
47850.0
0
SEQEND
0
POLYLINE
8
0
66
1
10
0.0
20
0.0
30
0.0
0
VERTEX
8
0
10
4750.0
20
47625.0
0
VERTEX
8
0
10
4425.0
20
47625.0
0
VERTEX
8
0
10
4425.0
20
47550.0
0
VERTEX
8
0
10
4750.0
20
47550.0
0
VERTEX
8
0
10
4750.0
20
47625.0
0
SEQEND
0
POLYLINE
8
0
66
1
10
0.0
20
0.0
30
0.0
0
VERTEX
8
0
10
4750.0
20
47775.0
0
VERTEX
8
0
10
4425.0
20
47775.0
0
VERTEX
8
0
10
4425.0
20
47850.0
0
VERTEX
8
0
10
4750.0
20
47850.0
0
VERTEX
8
0
10
4750.0
20
47775.0
0
SEQEND
0
POLYLINE
8
0
66
1
10
0.0
20
0.0
30
0.0
0
VERTEX
8
0
10
4425.0
20
47625.0
0
VERTEX
8
0
10
4175.0
20
47695.0
0
VERTEX
8
0
10
4175.0
20
47690.158311890584
0
VERTEX
8
0
10
4425.0
20
47550.0
0
VERTEX
8
0
10
4425.0
20
47625.0
0
SEQEND
0
POLYLINE
8
0
66
1
10
0.0
20
0.0
30
0.0
0
VERTEX
8
0
10
4425.0
20
47775.0
0
VERTEX
8
0
10
4175.0
20
47705.0
0
VERTEX
8
0
10
4175.0
20
47709.841688109416
0
VERTEX
8
0
10
4425.0
20
47850.0
0
VERTEX
8
0
10
4425.0
20
47775.0
0
SEQEND
0
POLYLINE
8
0
66
1
10
0.0
20
0.0
30
0.0
0
VERTEX
8
0
10
5175.0
20
25600.0
0
VERTEX
8
0
10
5175.0
20
25525.0
0
VERTEX
8
0
10
5475.0
20
25525.0
0
VERTEX
8
0
10
5475.0
20
25600.0
0
VERTEX
8
0
10
5175.0
20
25600.0
0
SEQEND
0
POLYLINE
8
0
66
1
10
0.0
20
0.0
30
0.0
0
VERTEX
8
0
10
5400.0
20
25525.0
0
VERTEX
8
0
10
5400.0
20
25200.0
0
VERTEX
8
0
10
5475.0
20
25200.0
0
VERTEX
8
0
10
5475.0
20
25525.0
0
VERTEX
8
0
10
5400.0
20
25525.0
0
SEQEND
0
POLYLINE
8
0
66
1
10
0.0
20
0.0
30
0.0
0
VERTEX
8
0
10
5250.0
20
25525.0
0
VERTEX
8
0
10
5250.0
20
25200.0
0
VERTEX
8
0
10
5175.0
20
25200.0
0
VERTEX
8
0
10
5175.0
20
25525.0
0
VERTEX
8
0
10
5250.0
20
25525.0
0
SEQEND
0
POLYLINE
8
0
66
1
10
0.0
20
0.0
30
0.0
0
VERTEX
8
0
10
5400.0
20
25200.0
0
VERTEX
8
0
10
5330.0
20
24950.0
0
VERTEX
8
0
10
5334.84168810942
20
24950.0
0
VERTEX
8
0
10
5475.0
20
25200.0
0
VERTEX
8
0
10
5400.0
20
25200.0
0
SEQEND
0
POLYLINE
8
0
66
1
10
0.0
20
0.0
30
0.0
0
VERTEX
8
0
10
5250.0
20
25200.0
0
VERTEX
8
0
10
5320.0
20
24950.0
0
VERTEX
8
0
10
5315.15831189058
20
24950.0
0
VERTEX
8
0
10
5175.0
20
25200.0
0
VERTEX
8
0
10
5250.0
20
25200.0
0
SEQEND
0
POLYLINE
8
0
66
1
10
0.0
20
0.0
30
0.0
0
VERTEX
8
0
10
5175.0
20
23350.0
0
VERTEX
8
0
10
5175.0
20
23275.0
0
VERTEX
8
0
10
5475.0
20
23275.0
0
VERTEX
8
0
10
5475.0
20
23350.0
0
VERTEX
8
0
10
5175.0
20
23350.0
0
SEQEND
0
POLYLINE
8
0
66
1
10
0.0
20
0.0
30
0.0
0
VERTEX
8
0
10
5400.0
20
23275.0
0
VERTEX
8
0
10
5400.0
20
22950.0
0
VERTEX
8
0
10
5475.0
20
22950.0
0
VERTEX
8
0
10
5475.0
20
23275.0
0
VERTEX
8
0
10
5400.0
20
23275.0
0
SEQEND
0
POLYLINE
8
0
66
1
10
0.0
20
0.0
30
0.0
0
VERTEX
8
0
10
5250.0
20
23275.0
0
VERTEX
8
0
10
5250.0
20
22950.0
0
VERTEX
8
0
10
5175.0
20
22950.0
0
VERTEX
8
0
10
5175.0
20
23275.0
0
VERTEX
8
0
10
5250.0
20
23275.0
0
SEQEND
0
POLYLINE
8
0
66
1
10
0.0
20
0.0
30
0.0
0
VERTEX
8
0
10
5400.0
20
22950.0
0
VERTEX
8
0
10
5330.0
20
22700.0
0
VERTEX
8
0
10
5334.84168810942
20
22700.0
0
VERTEX
8
0
10
5475.0
20
22950.0
0
VERTEX
8
0
10
5400.0
20
22950.0
0
SEQEND
0
POLYLINE
8
0
66
1
10
0.0
20
0.0
30
0.0
0
VERTEX
8
0
10
5250.0
20
22950.0
0
VERTEX
8
0
10
5320.0
20
22700.0
0
VERTEX
8
0
10
5315.15831189058
20
22700.0
0
VERTEX
8
0
10
5175.0
20
22950.0
0
VERTEX
8
0
10
5250.0
20
22950.0
0
SEQEND
0
POLYLINE
8
0
66
1
10
0.0
20
0.0
30
0.0
0
VERTEX
8
0
10
4825.0
20
950.0
0
VERTEX
8
0
10
4750.0
20
950.0
0
VERTEX
8
0
10
4750.0
20
650.0
0
VERTEX
8
0
10
4825.0
20
650.0
0
VERTEX
8
0
10
4825.0
20
950.0
0
SEQEND
0
POLYLINE
8
0
66
1
10
0.0
20
0.0
30
0.0
0
VERTEX
8
0
10
4750.0
20
725.0
0
VERTEX
8
0
10
4425.0
20
725.0
0
VERTEX
8
0
10
4425.0
20
650.0
0
VERTEX
8
0
10
4750.0
20
650.0
0
VERTEX
8
0
10
4750.0
20
725.0
0
SEQEND
0
POLYLINE
8
0
66
1
10
0.0
20
0.0
30
0.0
0
VERTEX
8
0
10
4750.0
20
875.0
0
VERTEX
8
0
10
4425.0
20
875.0
0
VERTEX
8
0
10
4425.0
20
950.0
0
VERTEX
8
0
10
4750.0
20
950.0
0
VERTEX
8
0
10
4750.0
20
875.0
0
SEQEND
0
POLYLINE
8
0
66
1
10
0.0
20
0.0
30
0.0
0
VERTEX
8
0
10
4425.0
20
725.0
0
VERTEX
8
0
10
4175.0
20
795.0
0
VERTEX
8
0
10
4175.0
20
790.1583118905806
0
VERTEX
8
0
10
4425.0
20
650.0
0
VERTEX
8
0
10
4425.0
20
725.0
0
SEQEND
0
POLYLINE
8
0
66
1
10
0.0
20
0.0
30
0.0
0
VERTEX
8
0
10
4425.0
20
875.0
0
VERTEX
8
0
10
4175.0
20
805.0
0
VERTEX
8
0
10
4175.0
20
809.8416881094194
0
VERTEX
8
0
10
4425.0
20
950.0
0
VERTEX
8
0
10
4425.0
20
875.0
0
SEQEND
0
POLYLINE
8
0
66
1
10
0.0
20
0.0
30
0.0
0
VERTEX
8
0
10
625.0
20
650.0
0
VERTEX
8
0
10
700.0
20
650.0
0
VERTEX
8
0
10
700.0
20
950.0
0
VERTEX
8
0
10
625.0
20
950.0
0
VERTEX
8
0
10
625.0
20
650.0
0
SEQEND
0
POLYLINE
8
0
66
1
10
0.0
20
0.0
30
0.0
0
VERTEX
8
0
10
700.0
20
875.0
0
VERTEX
8
0
10
1025.0
20
875.0
0
VERTEX
8
0
10
1025.0
20
950.0
0
VERTEX
8
0
10
700.0
20
950.0
0
VERTEX
8
0
10
700.0
20
875.0
0
SEQEND
0
POLYLINE
8
0
66
1
10
0.0
20
0.0
30
0.0
0
VERTEX
8
0
10
700.0
20
725.0
0
VERTEX
8
0
10
1025.0
20
725.0
0
VERTEX
8
0
10
1025.0
20
650.0
0
VERTEX
8
0
10
700.0
20
650.0
0
VERTEX
8
0
10
700.0
20
725.0
0
SEQEND
0
POLYLINE
8
0
66
1
10
0.0
20
0.0
30
0.0
0
VERTEX
8
0
10
1025.0
20
875.0
0
VERTEX
8
0
10
1275.0
20
805.0
0
VERTEX
8
0
10
1275.0
20
809.8416881094194
0
VERTEX
8
0
10
1025.0
20
950.0
0
VERTEX
8
0
10
1025.0
20
875.0
0
SEQEND
0
POLYLINE
8
0
66
1
10
0.0
20
0.0
30
0.0
0
VERTEX
8
0
10
1025.0
20
725.0
0
VERTEX
8
0
10
1275.0
20
795.0
0
VERTEX
8
0
10
1275.0
20
790.1583118905806
0
VERTEX
8
0
10
1025.0
20
650.0
0
VERTEX
8
0
10
1025.0
20
725.0
0
SEQEND
0
POLYLINE
8
0
66
1
10
0.0
20
0.0
30
0.0
0
VERTEX
8
0
10
-25.0
20
23345.0
0
VERTEX
8
0
10
-25.0
20
23270.0
0
VERTEX
8
0
10
275.0
20
23270.0
0
VERTEX
8
0
10
275.0
20
23345.0
0
VERTEX
8
0
10
-25.0
20
23345.0
0
SEQEND
0
POLYLINE
8
0
66
1
10
0.0
20
0.0
30
0.0
0
VERTEX
8
0
10
200.0
20
23270.0
0
VERTEX
8
0
10
200.0
20
22945.0
0
VERTEX
8
0
10
275.0
20
22945.0
0
VERTEX
8
0
10
275.0
20
23270.0
0
VERTEX
8
0
10
200.0
20
23270.0
0
SEQEND
0
POLYLINE
8
0
66
1
10
0.0
20
0.0
30
0.0
0
VERTEX
8
0
10
50.0
20
23270.0
0
VERTEX
8
0
10
50.000000000000014
20
22945.0
0
VERTEX
8
0
10
-24.999999999999986
20
22945.0
0
VERTEX
8
0
10
-25.0
20
23270.0
0
VERTEX
8
0
10
50.0
20
23270.0
0
SEQEND
0
POLYLINE
8
0
66
1
10
0.0
20
0.0
30
0.0
0
VERTEX
8
0
10
200.0
20
22945.0
0
VERTEX
8
0
10
130.00000000000003
20
22695.0
0
VERTEX
8
0
10
134.84168810941995
20
22695.0
0
VERTEX
8
0
10
275.0
20
22945.0
0
VERTEX
8
0
10
200.0
20
22945.0
0
SEQEND
0
POLYLINE
8
0
66
1
10
0.0
20
0.0
30
0.0
0
VERTEX
8
0
10
50.000000000000014
20
22945.0
0
VERTEX
8
0
10
120.00000000000003
20
22695.0
0
VERTEX
8
0
10
115.15831189058011
20
22695.0
0
VERTEX
8
0
10
-24.999999999999986
20
22945.0
0
VERTEX
8
0
10
50.000000000000014
20
22945.0
0
SEQEND
0
POLYLINE
8
0
66
1
10
0.0
20
0.0
30
0.0
0
VERTEX
8
0
10
-25.0
20
25600.0
0
VERTEX
8
0
10
-25.0
20
25525.0
0
VERTEX
8
0
10
275.0
20
25525.0
0
VERTEX
8
0
10
275.0
20
25600.0
0
VERTEX
8
0
10
-25.0
20
25600.0
0
SEQEND
0
POLYLINE
8
0
66
1
10
0.0
20
0.0
30
0.0
0
VERTEX
8
0
10
200.0
20
25525.0
0
VERTEX
8
0
10
200.0
20
25200.0
0
VERTEX
8
0
10
275.0
20
25200.0
0
VERTEX
8
0
10
275.0
20
25525.0
0
VERTEX
8
0
10
200.0
20
25525.0
0
SEQEND
0
POLYLINE
8
0
66
1
10
0.0
20
0.0
30
0.0
0
VERTEX
8
0
10
50.0
20
25525.0
0
VERTEX
8
0
10
50.000000000000014
20
25200.0
0
VERTEX
8
0
10
-24.999999999999986
20
25200.0
0
VERTEX
8
0
10
-25.0
20
25525.0
0
VERTEX
8
0
10
50.0
20
25525.0
0
SEQEND
0
POLYLINE
8
0
66
1
10
0.0
20
0.0
30
0.0
0
VERTEX
8
0
10
200.0
20
25200.0
0
VERTEX
8
0
10
130.00000000000003
20
24950.0
0
VERTEX
8
0
10
134.84168810941995
20
24950.0
0
VERTEX
8
0
10
275.0
20
25200.0
0
VERTEX
8
0
10
200.0
20
25200.0
0
SEQEND
0
POLYLINE
8
0
66
1
10
0.0
20
0.0
30
0.0
0
VERTEX
8
0
10
50.000000000000014
20
25200.0
0
VERTEX
8
0
10
120.00000000000003
20
24950.0
0
VERTEX
8
0
10
115.15831189058011
20
24950.0
0
VERTEX
8
0
10
-24.999999999999986
20
25200.0
0
VERTEX
8
0
10
50.000000000000014
20
25200.0
0
SEQEND
0
POLYLINE
8
0
66
1
10
0.0
20
0.0
30
0.0
0
VERTEX
8
0
10
4825.0
20
47850.0
0
VERTEX
8
0
10
4750.0
20
47850.0
0
VERTEX
8
0
10
4750.0
20
47550.0
0
VERTEX
8
0
10
4825.0
20
47550.0
0
VERTEX
8
0
10
4825.0
20
47850.0
0
SEQEND
0
POLYLINE
8
0
66
1
10
0.0
20
0.0
30
0.0
0
VERTEX
8
0
10
4750.0
20
47625.0
0
VERTEX
8
0
10
4425.0
20
47625.0
0
VERTEX
8
0
10
4425.0
20
47550.0
0
VERTEX
8
0
10
4750.0
20
47550.0
0
VERTEX
8
0
10
4750.0
20
47625.0
0
SEQEND
0
POLYLINE
8
0
66
1
10
0.0
20
0.0
30
0.0
0
VERTEX
8
0
10
4750.0
20
47775.0
0
VERTEX
8
0
10
4425.0
20
47775.0
0
VERTEX
8
0
10
4425.0
20
47850.0
0
VERTEX
8
0
10
4750.0
20
47850.0
0
VERTEX
8
0
10
4750.0
20
47775.0
0
SEQEND
0
POLYLINE
8
0
66
1
10
0.0
20
0.0
30
0.0
0
VERTEX
8
0
10
4425.0
20
47625.0
0
VERTEX
8
0
10
4175.0
20
47695.0
0
VERTEX
8
0
10
4175.0
20
47690.158311890584
0
VERTEX
8
0
10
4425.0
20
47550.0
0
VERTEX
8
0
10
4425.0
20
47625.0
0
SEQEND
0
POLYLINE
8
0
66
1
10
0.0
20
0.0
30
0.0
0
VERTEX
8
0
10
4425.0
20
47775.0
0
VERTEX
8
0
10
4175.0
20
47705.0
0
VERTEX
8
0
10
4175.0
20
47709.841688109416
0
VERTEX
8
0
10
4425.0
20
47850.0
0
VERTEX
8
0
10
4425.0
20
47775.0
0
SEQEND
0
POLYLINE
8
0
66
1
10
0.0
20
0.0
30
0.0
0
VERTEX
8
0
10
5175.0
20
25600.0
0
VERTEX
8
0
10
5175.0
20
25525.0
0
VERTEX
8
0
10
5475.0
20
25525.0
0
VERTEX
8
0
10
5475.0
20
25600.0
0
VERTEX
8
0
10
5175.0
20
25600.0
0
SEQEND
0
POLYLINE
8
0
66
1
10
0.0
20
0.0
30
0.0
0
VERTEX
8
0
10
5400.0
20
25525.0
0
VERTEX
8
0
10
5400.0
20
25200.0
0
VERTEX
8
0
10
5475.0
20
25200.0
0
VERTEX
8
0
10
5475.0
20
25525.0
0
VERTEX
8
0
10
5400.0
20
25525.0
0
SEQEND
0
POLYLINE
8
0
66
1
10
0.0
20
0.0
30
0.0
0
VERTEX
8
0
10
5250.0
20
25525.0
0
VERTEX
8
0
10
5250.0
20
25200.0
0
VERTEX
8
0
10
5175.0
20
25200.0
0
VERTEX
8
0
10
5175.0
20
25525.0
0
VERTEX
8
0
10
5250.0
20
25525.0
0
SEQEND
0
POLYLINE
8
0
66
1
10
0.0
20
0.0
30
0.0
0
VERTEX
8
0
10
5400.0
20
25200.0
0
VERTEX
8
0
10
5330.0
20
24950.0
0
VERTEX
8
0
10
5334.84168810942
20
24950.0
0
VERTEX
8
0
10
5475.0
20
25200.0
0
VERTEX
8
0
10
5400.0
20
25200.0
0
SEQEND
0
POLYLINE
8
0
66
1
10
0.0
20
0.0
30
0.0
0
VERTEX
8
0
10
5250.0
20
25200.0
0
VERTEX
8
0
10
5320.0
20
24950.0
0
VERTEX
8
0
10
5315.15831189058
20
24950.0
0
VERTEX
8
0
10
5175.0
20
25200.0
0
VERTEX
8
0
10
5250.0
20
25200.0
0
SEQEND
0
POLYLINE
8
0
66
1
10
0.0
20
0.0
30
0.0
0
VERTEX
8
0
10
5175.0
20
23350.0
0
VERTEX
8
0
10
5175.0
20
23275.0
0
VERTEX
8
0
10
5475.0
20
23275.0
0
VERTEX
8
0
10
5475.0
20
23350.0
0
VERTEX
8
0
10
5175.0
20
23350.0
0
SEQEND
0
POLYLINE
8
0
66
1
10
0.0
20
0.0
30
0.0
0
VERTEX
8
0
10
5400.0
20
23275.0
0
VERTEX
8
0
10
5400.0
20
22950.0
0
VERTEX
8
0
10
5475.0
20
22950.0
0
VERTEX
8
0
10
5475.0
20
23275.0
0
VERTEX
8
0
10
5400.0
20
23275.0
0
SEQEND
0
POLYLINE
8
0
66
1
10
0.0
20
0.0
30
0.0
0
VERTEX
8
0
10
5250.0
20
23275.0
0
VERTEX
8
0
10
5250.0
20
22950.0
0
VERTEX
8
0
10
5175.0
20
22950.0
0
VERTEX
8
0
10
5175.0
20
23275.0
0
VERTEX
8
0
10
5250.0
20
23275.0
0
SEQEND
0
POLYLINE
8
0
66
1
10
0.0
20
0.0
30
0.0
0
VERTEX
8
0
10
5400.0
20
22950.0
0
VERTEX
8
0
10
5330.0
20
22700.0
0
VERTEX
8
0
10
5334.84168810942
20
22700.0
0
VERTEX
8
0
10
5475.0
20
22950.0
0
VERTEX
8
0
10
5400.0
20
22950.0
0
SEQEND
0
POLYLINE
8
0
66
1
10
0.0
20
0.0
30
0.0
0
VERTEX
8
0
10
5250.0
20
22950.0
0
VERTEX
8
0
10
5320.0
20
22700.0
0
VERTEX
8
0
10
5315.15831189058
20
22700.0
0
VERTEX
8
0
10
5175.0
20
22950.0
0
VERTEX
8
0
10
5250.0
20
22950.0
0
SEQEND
0
POLYLINE
8
0
66
1
10
0.0
20
0.0
30
0.0
0
VERTEX
8
0
10
4825.0
20
950.0
0
VERTEX
8
0
10
4750.0
20
950.0
0
VERTEX
8
0
10
4750.0
20
650.0
0
VERTEX
8
0
10
4825.0
20
650.0
0
VERTEX
8
0
10
4825.0
20
950.0
0
SEQEND
0
POLYLINE
8
0
66
1
10
0.0
20
0.0
30
0.0
0
VERTEX
8
0
10
4750.0
20
725.0
0
VERTEX
8
0
10
4425.0
20
725.0
0
VERTEX
8
0
10
4425.0
20
650.0
0
VERTEX
8
0
10
4750.0
20
650.0
0
VERTEX
8
0
10
4750.0
20
725.0
0
SEQEND
0
POLYLINE
8
0
66
1
10
0.0
20
0.0
30
0.0
0
VERTEX
8
0
10
4750.0
20
875.0
0
VERTEX
8
0
10
4425.0
20
875.0
0
VERTEX
8
0
10
4425.0
20
950.0
0
VERTEX
8
0
10
4750.0
20
950.0
0
VERTEX
8
0
10
4750.0
20
875.0
0
SEQEND
0
POLYLINE
8
0
66
1
10
0.0
20
0.0
30
0.0
0
VERTEX
8
0
10
4425.0
20
725.0
0
VERTEX
8
0
10
4175.0
20
795.0
0
VERTEX
8
0
10
4175.0
20
790.1583118905806
0
VERTEX
8
0
10
4425.0
20
650.0
0
VERTEX
8
0
10
4425.0
20
725.0
0
SEQEND
0
POLYLINE
8
0
66
1
10
0.0
20
0.0
30
0.0
0
VERTEX
8
0
10
4425.0
20
875.0
0
VERTEX
8
0
10
4175.0
20
805.0
0
VERTEX
8
0
10
4175.0
20
809.8416881094194
0
VERTEX
8
0
10
4425.0
20
950.0
0
VERTEX
8
0
10
4425.0
20
875.0
0
SEQEND
0
POLYLINE
8
0
66
1
10
0.0
20
0.0
30
0.0
0
VERTEX
8
0
10
625.0
20
650.0
0
VERTEX
8
0
10
700.0
20
650.0
0
VERTEX
8
0
10
700.0
20
950.0
0
VERTEX
8
0
10
625.0
20
950.0
0
VERTEX
8
0
10
625.0
20
650.0
0
SEQEND
0
POLYLINE
8
0
66
1
10
0.0
20
0.0
30
0.0
0
VERTEX
8
0
10
700.0
20
875.0
0
VERTEX
8
0
10
1025.0
20
875.0
0
VERTEX
8
0
10
1025.0
20
950.0
0
VERTEX
8
0
10
700.0
20
950.0
0
VERTEX
8
0
10
700.0
20
875.0
0
SEQEND
0
POLYLINE
8
0
66
1
10
0.0
20
0.0
30
0.0
0
VERTEX
8
0
10
700.0
20
725.0
0
VERTEX
8
0
10
1025.0
20
725.0
0
VERTEX
8
0
10
1025.0
20
650.0
0
VERTEX
8
0
10
700.0
20
650.0
0
VERTEX
8
0
10
700.0
20
725.0
0
SEQEND
0
POLYLINE
8
0
66
1
10
0.0
20
0.0
30
0.0
0
VERTEX
8
0
10
1025.0
20
875.0
0
VERTEX
8
0
10
1275.0
20
805.0
0
VERTEX
8
0
10
1275.0
20
809.8416881094194
0
VERTEX
8
0
10
1025.0
20
950.0
0
VERTEX
8
0
10
1025.0
20
875.0
0
SEQEND
0
POLYLINE
8
0
66
1
10
0.0
20
0.0
30
0.0
0
VERTEX
8
0
10
1025.0
20
725.0
0
VERTEX
8
0
10
1275.0
20
795.0
0
VERTEX
8
0
10
1275.0
20
790.1583118905806
0
VERTEX
8
0
10
1025.0
20
650.0
0
VERTEX
8
0
10
1025.0
20
725.0
0
SEQEND
0
POLYLINE
8
0
66
1
10
0.0
20
0.0
30
0.0
0
VERTEX
8
0
10
160.0
20
52640.0
0
VERTEX
8
0
10
159.99999999999997
20
52560.0
0
VERTEX
8
0
10
239.99999999999997
20
52560.0
0
VERTEX
8
0
10
240.0
20
52640.0
0
VERTEX
8
0
10
160.0
20
52640.0
0
SEQEND
0
POLYLINE
8
0
66
1
10
0.0
20
0.0
30
0.0
0
VERTEX
8
0
10
5210.0
20
52640.0
0
VERTEX
8
0
10
5210.0
20
52560.0
0
VERTEX
8
0
10
5290.0
20
52560.0
0
VERTEX
8
0
10
5290.0
20
52640.0
0
VERTEX
8
0
10
5210.0
20
52640.0
0
SEQEND
0
POLYLINE
8
0
66
1
10
0.0
20
0.0
30
0.0
0
VERTEX
8
0
10
160.0
20
740.0
0
VERTEX
8
0
10
159.99999999999997
20
660.0
0
VERTEX
8
0
10
239.99999999999997
20
660.0
0
VERTEX
8
0
10
240.0
20
740.0
0
VERTEX
8
0
10
160.0
20
740.0
0
SEQEND
0
POLYLINE
8
0
66
1
10
0.0
20
0.0
30
0.0
0
VERTEX
8
0
10
5210.0
20
740.0
0
VERTEX
8
0
10
5210.0
20
660.0
0
VERTEX
8
0
10
5290.0
20
660.0
0
VERTEX
8
0
10
5290.0
20
740.0
0
VERTEX
8
0
10
5210.0
20
740.0
0
SEQEND
0
POLYLINE
8
0
66
1
10
0.0
20
0.0
30
0.0
0
VERTEX
8
0
10
-50.0
20
52850.0
0
VERTEX
8
0
10
-50.000000000000085
20
52350.0
0
VERTEX
8
0
10
449.9999999999999
20
52350.0
0
VERTEX
8
0
10
450.0
20
52850.0
0
VERTEX
8
0
10
-50.0
20
52850.0
0
SEQEND
0
POLYLINE
8
0
66
1
10
0.0
20
0.0
30
0.0
0
VERTEX
8
0
10
5000.0
20
52850.0
0
VERTEX
8
0
10
5000.0
20
52350.0
0
VERTEX
8
0
10
5500.0
20
52350.0
0
VERTEX
8
0
10
5500.0
20
52850.0
0
VERTEX
8
0
10
5000.0
20
52850.0
0
SEQEND
0
POLYLINE
8
0
66
1
10
0.0
20
0.0
30
0.0
0
VERTEX
8
0
10
5550.0
20
-100.00000000000017
0
VERTEX
8
0
10
5550.0
20
299.99999999999983
0
VERTEX
8
0
10
-100.0
20
300.00000000000017
0
VERTEX
8
0
10
-100.0
20
-99.99999999999983
0
VERTEX
8
0
10
5550.0
20
-100.00000000000017
0
SEQEND
0
POLYLINE
8
0
66
1
10
0.0
20
0.0
30
0.0
0
VERTEX
8
0
10
2225.0
20
300.00000000000006
0
VERTEX
8
0
10
2225.0
20
500.00000000000006
0
VERTEX
8
0
10
-100.0
20
500.00000000000017
0
VERTEX
8
0
10
-100.0
20
300.00000000000017
0
VERTEX
8
0
10
2225.0
20
300.00000000000006
0
SEQEND
0
POLYLINE
8
0
66
1
10
0.0
20
0.0
30
0.0
0
VERTEX
8
0
10
3225.0
20
299.99999999999994
0
VERTEX
8
0
10
3225.0
20
499.99999999999994
0
VERTEX
8
0
10
5550.0
20
499.99999999999983
0
VERTEX
8
0
10
5550.0
20
299.99999999999983
0
VERTEX
8
0
10
3225.0
20
299.99999999999994
0
SEQEND
0
POLYLINE
8
0
66
1
10
0.0
20
0.0
30
0.0
0
VERTEX
8
0
10
2975.0
20
500.0
0
VERTEX
8
0
10
2975.0
20
1000.0
0
VERTEX
8
0
10
2475.0
20
1000.0
0
VERTEX
8
0
10
2475.0
20
500.0
0
VERTEX
8
0
10
2975.0
20
500.0
0
SEQEND
0
POLYLINE
8
0
66
1
10
0.0
20
0.0
30
0.0
0
VERTEX
8
0
10
2725.0
20
1000.0
0
VERTEX
8
0
10
2725.0
20
1500.0
0
VERTEX
8
0
10
2717.5
20
1500.0
0
VERTEX
8
0
10
2475.0
20
1000.0
0
VERTEX
8
0
10
2725.0
20
1000.0
0
SEQEND
0
POLYLINE
8
0
66
1
10
0.0
20
0.0
30
0.0
0
VERTEX
8
0
10
2725.0
20
1000.0
0
VERTEX
8
0
10
2725.0
20
1500.0
0
VERTEX
8
0
10
2732.5
20
1500.0
0
VERTEX
8
0
10
2975.0
20
1000.0
0
VERTEX
8
0
10
2725.0
20
1000.0
0
SEQEND
0
POLYLINE
8
0
66
1
10
0.0
20
0.0
30
0.0
0
VERTEX
8
0
10
2225.0
20
500.00000000000006
0
VERTEX
8
0
10
2225.0
20
1000.0
0
VERTEX
8
0
10
-100.0
20
1000.0000000000002
0
VERTEX
8
0
10
-100.0
20
500.00000000000017
0
VERTEX
8
0
10
2225.0
20
500.00000000000006
0
SEQEND
0
POLYLINE
8
0
66
1
10
0.0
20
0.0
30
0.0
0
VERTEX
8
0
10
3225.0
20
499.99999999999994
0
VERTEX
8
0
10
3225.0
20
1000.0
0
VERTEX
8
0
10
5550.0
20
999.9999999999998
0
VERTEX
8
0
10
5550.0
20
499.99999999999983
0
VERTEX
8
0
10
3225.0
20
499.99999999999994
0
SEQEND
0
POLYLINE
8
0
66
1
10
0.0
20
0.0
30
0.0
0
VERTEX
8
0
10
2225.0
20
1000.0
0
VERTEX
8
0
10
2710.0
20
1500.0
0
VERTEX
8
0
10
2460.0
20
1500.0
0
VERTEX
8
0
10
-100.0
20
1000.0000000000002
0
VERTEX
8
0
10
2225.0
20
1000.0
0
SEQEND
0
POLYLINE
8
0
66
1
10
0.0
20
0.0
30
0.0
0
VERTEX
8
0
10
3225.0
20
1000.0
0
VERTEX
8
0
10
2740.0
20
1500.0
0
VERTEX
8
0
10
2990.0
20
1500.0
0
VERTEX
8
0
10
5550.0
20
999.9999999999998
0
VERTEX
8
0
10
3225.0
20
1000.0
0
SEQEND
0
POLYLINE
8
0
66
1
10
0.0
20
0.0
30
0.0
0
VERTEX
8
0
10
2732.5
20
1500.0
0
VERTEX
8
0
10
2732.5
20
2500.0
0
VERTEX
8
0
10
2717.5
20
2500.0
0
VERTEX
8
0
10
2717.5
20
1500.0
0
VERTEX
8
0
10
2732.5
20
1500.0
0
SEQEND
0
POLYLINE
8
0
66
1
10
0.0
20
0.0
30
0.0
0
VERTEX
8
0
10
2710.0
20
1500.0
0
VERTEX
8
0
10
2710.0
20
2500.0
0
VERTEX
8
0
10
2460.0
20
2500.0
0
VERTEX
8
0
10
2460.0
20
1500.0
0
VERTEX
8
0
10
2710.0
20
1500.0
0
SEQEND
0
POLYLINE
8
0
66
1
10
0.0
20
0.0
30
0.0
0
VERTEX
8
0
10
2740.0
20
1500.0
0
VERTEX
8
0
10
2740.0
20
2500.0
0
VERTEX
8
0
10
2990.0
20
2500.0
0
VERTEX
8
0
10
2990.0
20
1500.0
0
VERTEX
8
0
10
2740.0
20
1500.0
0
SEQEND
0
POLYLINE
8
0
66
1
10
0.0
20
0.0
30
0.0
0
VERTEX
8
0
10
2732.5
20
2500.0
0
VERTEX
8
0
10
2732.5
20
2750.0
0
VERTEX
8
0
10
2717.5
20
2750.0
0
VERTEX
8
0
10
2717.5
20
2500.0
0
VERTEX
8
0
10
2732.5
20
2500.0
0
SEQEND
0
POLYLINE
8
0
66
1
10
0.0
20
0.0
30
0.0
0
VERTEX
8
0
10
2710.0
20
2500.0
0
VERTEX
8
0
10
2710.0
20
2750.0
0
VERTEX
8
0
10
2460.0
20
2750.0
0
VERTEX
8
0
10
2460.0
20
2500.0
0
VERTEX
8
0
10
2710.0
20
2500.0
0
SEQEND
0
POLYLINE
8
0
66
1
10
0.0
20
0.0
30
0.0
0
VERTEX
8
0
10
2740.0
20
2500.0
0
VERTEX
8
0
10
2740.0
20
2750.0
0
VERTEX
8
0
10
2990.0
20
2750.0
0
VERTEX
8
0
10
2990.0
20
2500.0
0
VERTEX
8
0
10
2740.0
20
2500.0
0
SEQEND
0
POLYLINE
8
0
66
1
10
0.0
20
0.0
30
0.0
0
VERTEX
8
0
10
2732.5
20
2750.0
0
VERTEX
8
0
10
2732.5
20
2894.3375672974066
0
VERTEX
8
0
10
2717.5
20
2894.3375672974066
0
VERTEX
8
0
10
2717.5
20
2750.0
0
VERTEX
8
0
10
2732.5
20
2750.0
0
SEQEND
0
POLYLINE
8
0
66
1
10
0.0
20
0.0
30
0.0
0
VERTEX
8
0
10
2732.5
20
2894.3375672974066
0
VERTEX
8
0
10
2732.5
20
2907.3279483541733
0
VERTEX
8
0
10
2717.5
20
2907.3279483541733
0
VERTEX
8
0
10
2717.5
20
2894.3375672974066
0
VERTEX
8
0
10
2732.5
20
2894.3375672974066
0
SEQEND
0
POLYLINE
8
0
66
1
10
0.0
20
0.0
30
0.0
0
VERTEX
8
0
10
2725.0
20
2907.3279483541733
0
VERTEX
8
0
10
2725.0
20
2920.31832941094
0
VERTEX
8
0
10
2725.0
20
2920.31832941094
0
VERTEX
8
0
10
2717.5
20
2907.3279483541733
0
VERTEX
8
0
10
2725.0
20
2907.3279483541733
0
SEQEND
0
POLYLINE
8
0
66
1
10
0.0
20
0.0
30
0.0
0
VERTEX
8
0
10
2725.0
20
2907.3279483541733
0
VERTEX
8
0
10
2725.0
20
2920.31832941094
0
VERTEX
8
0
10
2725.0
20
2920.31832941094
0
VERTEX
8
0
10
2732.5
20
2907.3279483541733
0
VERTEX
8
0
10
2725.0
20
2907.3279483541733
0
SEQEND
0
POLYLINE
8
0
66
1
10
0.0
20
0.0
30
0.0
0
VERTEX
8
0
10
2710.0
20
2750.0
0
VERTEX
8
0
10
2710.0
20
2894.3375672974066
0
VERTEX
8
0
10
2710.0
20
2894.3375672974066
0
VERTEX
8
0
10
2460.0
20
2750.0
0
VERTEX
8
0
10
2710.0
20
2750.0
0
SEQEND
0
POLYLINE
8
0
66
1
10
0.0
20
0.0
30
0.0
0
VERTEX
8
0
10
2740.0
20
2750.0
0
VERTEX
8
0
10
2740.0
20
2894.3375672974066
0
VERTEX
8
0
10
2740.0
20
2894.3375672974066
0
VERTEX
8
0
10
2990.0
20
2750.0
0
VERTEX
8
0
10
2740.0
20
2750.0
0
SEQEND
0
POLYLINE
8
0
66
1
10
0.0
20
0.0
30
0.0
0
VERTEX
8
0
10
2725.0
20
2920.31832941094
0
VERTEX
8
0
10
2713.75
20
2926.813519939323
0
VERTEX
8
0
10
2706.25
20
2913.8231388825566
0
VERTEX
8
0
10
2717.5
20
2907.3279483541733
0
VERTEX
8
0
10
2725.0
20
2920.31832941094
0
SEQEND
0
POLYLINE
8
0
66
1
10
0.0
20
0.0
30
0.0
0
VERTEX
8
0
10
2713.75
20
2926.813519939323
0
VERTEX
8
0
10
2588.75
20
2998.9823035880263
0
VERTEX
8
0
10
2581.25
20
2985.9919225312597
0
VERTEX
8
0
10
2706.25
20
2913.8231388825566
0
VERTEX
8
0
10
2713.75
20
2926.813519939323
0
SEQEND
0
POLYLINE
8
0
66
1
10
0.0
20
0.0
30
0.0
0
VERTEX
8
0
10
2702.5
20
2907.3279483541733
0
VERTEX
8
0
10
2577.5
20
2979.4967320028763
0
VERTEX
8
0
10
2452.5
20
2762.9903810567666
0
VERTEX
8
0
10
2702.5
20
2907.3279483541733
0
VERTEX
8
0
10
2702.5
20
2907.3279483541733
0
SEQEND
0
POLYLINE
8
0
66
1
10
0.0
20
0.0
30
0.0
0
VERTEX
8
0
10
2717.5
20
2933.3087104677065
0
VERTEX
8
0
10
2592.5
20
3005.4774941164096
0
VERTEX
8
0
10
2717.5
20
3221.9838450625193
0
VERTEX
8
0
10
2717.5
20
2933.3087104677065
0
VERTEX
8
0
10
2717.5
20
2933.3087104677065
0
SEQEND
0
POLYLINE
8
0
66
1
10
0.0
20
0.0
30
0.0
0
VERTEX
8
0
10
2588.75
20
2998.9823035880263
0
VERTEX
8
0
10
2078.9423788646686
20
3293.3198708854325
0
VERTEX
8
0
10
2071.4423788646686
20
3280.329489828666
0
VERTEX
8
0
10
2581.25
20
2985.9919225312597
0
VERTEX
8
0
10
2588.75
20
2998.9823035880263
0
SEQEND
0
POLYLINE
8
0
66
1
10
0.0
20
0.0
30
0.0
0
VERTEX
8
0
10
2577.5
20
2979.4967320028763
0
VERTEX
8
0
10
2067.6923788646686
20
3273.8342993002825
0
VERTEX
8
0
10
1942.6923788646686
20
3057.327948354173
0
VERTEX
8
0
10
2452.5
20
2762.9903810567666
0
VERTEX
8
0
10
2577.5
20
2979.4967320028763
0
SEQEND
0
POLYLINE
8
0
66
1
10
0.0
20
0.0
30
0.0
0
VERTEX
8
0
10
2592.5
20
3005.4774941164096
0
VERTEX
8
0
10
2082.6923788646686
20
3299.815061413816
0
VERTEX
8
0
10
2207.6923788646686
20
3516.3214123599255
0
VERTEX
8
0
10
2717.5
20
3221.9838450625193
0
VERTEX
8
0
10
2592.5
20
3005.4774941164096
0
SEQEND
0
POLYLINE
8
0
66
1
10
0.0
20
0.0
30
0.0
0
VERTEX
8
0
10
2067.6923788646686
20
3273.8342993002825
0
VERTEX
8
0
10
1919.02468454834
20
3359.6676326336155
0
VERTEX
8
0
10
1794.02468454834
20
3143.161281687506
0
VERTEX
8
0
10
1942.6923788646686
20
3057.327948354173
0
VERTEX
8
0
10
2067.6923788646686
20
3273.8342993002825
0
SEQEND
0
POLYLINE
8
0
66
1
10
0.0
20
0.0
30
0.0
0
VERTEX
8
0
10
2082.6923788646686
20
3299.815061413816
0
VERTEX
8
0
10
1934.02468454834
20
3385.648394747149
0
VERTEX
8
0
10
2059.02468454834
20
3602.1547456932585
0
VERTEX
8
0
10
2207.6923788646686
20
3516.3214123599255
0
VERTEX
8
0
10
2082.6923788646686
20
3299.815061413816
0
SEQEND
0
POLYLINE
8
0
66
1
10
0.0
20
0.0
30
0.0
0
VERTEX
8
0
10
2059.02468454834
20
3602.1547456932585
0
VERTEX
8
0
10
1910.3569902320114
20
3687.988079026592
0
VERTEX
8
0
10
1645.3569902320114
20
3228.9946150208393
0
VERTEX
8
0
10
1794.02468454834
20
3143.161281687506
0
VERTEX
8
0
10
2059.02468454834
20
3602.1547456932585
0
SEQEND
0
POLYLINE
8
0
66
1
10
0.0
20
0.0
30
0.0
0
VERTEX
8
0
10
2732.5
20
2907.3279483541733
0
VERTEX
8
0
10
2743.75
20
2913.8231388825566
0
VERTEX
8
0
10
2736.25
20
2926.813519939323
0
VERTEX
8
0
10
2725.0
20
2920.31832941094
0
VERTEX
8
0
10
2732.5
20
2907.3279483541733
0
SEQEND
0
POLYLINE
8
0
66
1
10
0.0
20
0.0
30
0.0
0
VERTEX
8
0
10
2743.75
20
2913.8231388825566
0
VERTEX
8
0
10
2868.75
20
2985.9919225312597
0
VERTEX
8
0
10
2861.25
20
2998.9823035880263
0
VERTEX
8
0
10
2736.25
20
2926.813519939323
0
VERTEX
8
0
10
2743.75
20
2913.8231388825566
0
SEQEND
0
POLYLINE
8
0
66
1
10
0.0
20
0.0
30
0.0
0
VERTEX
8
0
10
2732.5
20
2933.3087104677065
0
VERTEX
8
0
10
2857.5
20
3005.4774941164096
0
VERTEX
8
0
10
2732.5
20
3221.9838450625193
0
VERTEX
8
0
10
2732.5
20
2933.3087104677065
0
VERTEX
8
0
10
2732.5
20
2933.3087104677065
0
SEQEND
0
POLYLINE
8
0
66
1
10
0.0
20
0.0
30
0.0
0
VERTEX
8
0
10
2747.5
20
2907.3279483541733
0
VERTEX
8
0
10
2872.5
20
2979.4967320028763
0
VERTEX
8
0
10
2997.5
20
2762.9903810567666
0
VERTEX
8
0
10
2747.5
20
2907.3279483541733
0
VERTEX
8
0
10
2747.5
20
2907.3279483541733
0
SEQEND
0
POLYLINE
8
0
66
1
10
0.0
20
0.0
30
0.0
0
VERTEX
8
0
10
2868.75
20
2985.9919225312597
0
VERTEX
8
0
10
3378.5576211353314
20
3280.329489828666
0
VERTEX
8
0
10
3371.0576211353314
20
3293.3198708854325
0
VERTEX
8
0
10
2861.25
20
2998.9823035880263
0
VERTEX
8
0
10
2868.75
20
2985.9919225312597
0
SEQEND
0
POLYLINE
8
0
66
1
10
0.0
20
0.0
30
0.0
0
VERTEX
8
0
10
2857.5
20
3005.4774941164096
0
VERTEX
8
0
10
3367.3076211353314
20
3299.815061413816
0
VERTEX
8
0
10
3242.3076211353314
20
3516.3214123599255
0
VERTEX
8
0
10
2732.5
20
3221.9838450625193
0
VERTEX
8
0
10
2857.5
20
3005.4774941164096
0
SEQEND
0
POLYLINE
8
0
66
1
10
0.0
20
0.0
30
0.0
0
VERTEX
8
0
10
2872.5
20
2979.4967320028763
0
VERTEX
8
0
10
3382.3076211353314
20
3273.8342993002825
0
VERTEX
8
0
10
3507.3076211353314
20
3057.327948354173
0
VERTEX
8
0
10
2997.5
20
2762.9903810567666
0
VERTEX
8
0
10
2872.5
20
2979.4967320028763
0
SEQEND
0
POLYLINE
8
0
66
1
10
0.0
20
0.0
30
0.0
0
VERTEX
8
0
10
3507.3076211353314
20
3057.327948354173
0
VERTEX
8
0
10
3651.6451884327375
20
3140.661281687506
0
VERTEX
8
0
10
3386.6451884327375
20
3599.6547456932585
0
VERTEX
8
0
10
3242.3076211353314
20
3516.3214123599255
0
VERTEX
8
0
10
3507.3076211353314
20
3057.327948354173
0
SEQEND
0
POLYLINE
8
0
66
1
10
0.0
20
0.0
30
0.0
0
VERTEX
8
0
10
2460.0
20
2750.0
0
VERTEX
8
0
10
2331.25
20
2675.6661528418354
0
VERTEX
8
0
10
2460.0
20
2452.6646113673423
0
VERTEX
8
0
10
2460.0
20
2750.0
0
VERTEX
8
0
10
2460.0
20
2750.0
0
SEQEND
0
POLYLINE
8
0
66
1
10
0.0
20
0.0
30
0.0
0
VERTEX
8
0
10
2452.5
20
2762.9903810567666
0
VERTEX
8
0
10
2323.75
20
2688.656533898602
0
VERTEX
8
0
10
2195.0
20
2911.658075373095
0
VERTEX
8
0
10
2452.5
20
2762.9903810567666
0
VERTEX
8
0
10
2452.5
20
2762.9903810567666
0
SEQEND
0
POLYLINE
8
0
66
1
10
0.0
20
0.0
30
0.0
0
VERTEX
8
0
10
2331.25
20
2675.6661528418354
0
VERTEX
8
0
10
2071.442378864668
20
2525.6661528418354
0
VERTEX
8
0
10
2200.192378864668
20
2302.6646113673423
0
VERTEX
8
0
10
2460.0
20
2452.6646113673423
0
VERTEX
8
0
10
2331.25
20
2675.6661528418354
0
SEQEND
0
POLYLINE
8
0
66
1
10
0.0
20
0.0
30
0.0
0
VERTEX
8
0
10
2323.75
20
2688.656533898602
0
VERTEX
8
0
10
2063.942378864668
20
2538.656533898602
0
VERTEX
8
0
10
1935.1923788646682
20
2761.658075373095
0
VERTEX
8
0
10
2195.0
20
2911.658075373095
0
VERTEX
8
0
10
2323.75
20
2688.656533898602
0
SEQEND
0
POLYLINE
8
0
66
1
10
0.0
20
0.0
30
0.0
0
VERTEX
8
0
10
1935.1923788646682
20
2761.658075373095
0
VERTEX
8
0
10
1712.1908373901751
20
2632.908075373095
0
VERTEX
8
0
10
1977.1908373901751
20
2173.9146113673423
0
VERTEX
8
0
10
2200.192378864668
20
2302.6646113673423
0
VERTEX
8
0
10
1935.1923788646682
20
2761.658075373095
0
SEQEND
0
POLYLINE
8
0
66
1
10
0.0
20
0.0
30
0.0
0
VERTEX
8
0
10
2997.5
20
2762.9903810567666
0
VERTEX
8
0
10
3126.25
20
2688.656533898602
0
VERTEX
8
0
10
3255.0
20
2911.658075373095
0
VERTEX
8
0
10
2997.5
20
2762.9903810567666
0
VERTEX
8
0
10
2997.5
20
2762.9903810567666
0
SEQEND
0
POLYLINE
8
0
66
1
10
0.0
20
0.0
30
0.0
0
VERTEX
8
0
10
2990.0
20
2750.0
0
VERTEX
8
0
10
3118.75
20
2675.6661528418354
0
VERTEX
8
0
10
2990.0
20
2452.6646113673423
0
VERTEX
8
0
10
2990.0
20
2750.0
0
VERTEX
8
0
10
2990.0
20
2750.0
0
SEQEND
0
POLYLINE
8
0
66
1
10
0.0
20
0.0
30
0.0
0
VERTEX
8
0
10
3126.25
20
2688.656533898602
0
VERTEX
8
0
10
3386.0576211353314
20
2538.656533898602
0
VERTEX
8
0
10
3514.8076211353314
20
2761.658075373095
0
VERTEX
8
0
10
3255.0
20
2911.658075373095
0
VERTEX
8
0
10
3126.25
20
2688.656533898602
0
SEQEND
0
POLYLINE
8
0
66
1
10
0.0
20
0.0
30
0.0
0
VERTEX
8
0
10
3118.75
20
2675.6661528418354
0
VERTEX
8
0
10
3378.5576211353314
20
2525.6661528418354
0
VERTEX
8
0
10
3249.8076211353314
20
2302.6646113673423
0
VERTEX
8
0
10
2990.0
20
2452.6646113673423
0
VERTEX
8
0
10
3118.75
20
2675.6661528418354
0
SEQEND
0
POLYLINE
8
0
66
1
10
0.0
20
0.0
30
0.0
0
VERTEX
8
0
10
2717.5
20
3221.9838450625193
0
VERTEX
8
0
10
2717.5
20
3370.651539378848
0
VERTEX
8
0
10
2460.0
20
3370.651539378848
0
VERTEX
8
0
10
2717.5
20
3221.9838450625193
0
VERTEX
8
0
10
2717.5
20
3221.9838450625193
0
SEQEND
0
POLYLINE
8
0
66
1
10
0.0
20
0.0
30
0.0
0
VERTEX
8
0
10
2732.5
20
3221.9838450625193
0
VERTEX
8
0
10
2732.5
20
3370.651539378848
0
VERTEX
8
0
10
2990.0
20
3370.651539378848
0
VERTEX
8
0
10
2732.5
20
3221.9838450625193
0
VERTEX
8
0
10
2732.5
20
3221.9838450625193
0
SEQEND
0
POLYLINE
8
0
66
1
10
0.0
20
0.0
30
0.0
0
VERTEX
8
0
10
2717.5
20
3370.651539378848
0
VERTEX
8
0
10
2717.5
20
3870.651539378848
0
VERTEX
8
0
10
2460.0
20
3870.651539378848
0
VERTEX
8
0
10
2460.0
20
3370.651539378848
0
VERTEX
8
0
10
2717.5
20
3370.651539378848
0
SEQEND
0
POLYLINE
8
0
66
1
10
0.0
20
0.0
30
0.0
0
VERTEX
8
0
10
2732.5
20
3370.651539378848
0
VERTEX
8
0
10
2732.5
20
3870.651539378848
0
VERTEX
8
0
10
2990.0
20
3870.651539378848
0
VERTEX
8
0
10
2990.0
20
3370.651539378848
0
VERTEX
8
0
10
2732.5
20
3370.651539378848
0
SEQEND
0
POLYLINE
8
0
66
1
10
0.0
20
0.0
30
0.0
0
VERTEX
8
0
10
2717.5
20
3870.651539378848
0
VERTEX
8
0
10
2723.5
20
5870.651539378849
0
VERTEX
8
0
10
2720.5
20
5870.651539378849
0
VERTEX
8
0
10
2459.9999999999995
20
3870.651539378848
0
VERTEX
8
0
10
2717.5
20
3870.651539378848
0
SEQEND
0
POLYLINE
8
0
66
1
10
0.0
20
0.0
30
0.0
0
VERTEX
8
0
10
2732.5
20
3870.651539378848
0
VERTEX
8
0
10
2726.5
20
5870.651539378849
0
VERTEX
8
0
10
2729.5
20
5870.651539378849
0
VERTEX
8
0
10
2990.0
20
3870.651539378848
0
VERTEX
8
0
10
2732.5
20
3870.651539378848
0
SEQEND
0
POLYLINE
8
0
66
1
10
0.0
20
0.0
30
0.0
0
VERTEX
8
0
10
2723.5
20
5870.651539378849
0
VERTEX
8
0
10
2723.5
20
7980.651539378849
0
VERTEX
8
0
10
2720.5
20
7980.651539378849
0
VERTEX
8
0
10
2720.5
20
5870.651539378849
0
VERTEX
8
0
10
2723.5
20
5870.651539378849
0
SEQEND
0
POLYLINE
8
0
66
1
10
0.0
20
0.0
30
0.0
0
VERTEX
8
0
10
2726.5
20
5870.651539378849
0
VERTEX
8
0
10
2726.5
20
7980.651539378849
0
VERTEX
8
0
10
2729.5
20
7980.651539378849
0
VERTEX
8
0
10
2729.5
20
5870.651539378849
0
VERTEX
8
0
10
2726.5
20
5870.651539378849
0
SEQEND
0
POLYLINE
8
0
66
1
10
0.0
20
0.0
30
0.0
0
VERTEX
8
0
10
2645.5
20
7980.651539378849
0
VERTEX
8
0
10
2645.5
20
7905.651539378849
0
VERTEX
8
0
10
2720.5
20
7905.651539378849
0
VERTEX
8
0
10
2720.5
20
7980.651539378849
0
VERTEX
8
0
10
2645.5
20
7980.651539378849
0
SEQEND
0
POLYLINE
8
0
66
1
10
0.0
20
0.0
30
0.0
0
VERTEX
8
0
10
2720.5
20
7905.651539378849
0
VERTEX
8
0
10
2710.4519052838327
20
7943.151539378849
0
VERTEX
8
0
10
2683.0
20
7970.603444662682
0
VERTEX
8
0
10
2645.5
20
7980.651539378849
0
VERTEX
8
0
10
2645.5
20
7943.151539378849
0
VERTEX
8
0
10
2664.25
20
7938.127492020765
0
VERTEX
8
0
10
2677.9759526419166
20
7924.401539378849
0
VERTEX
8
0
10
2683.0
20
7905.651539378849
0
VERTEX
8
0
10
2720.5
20
7905.651539378849
0
SEQEND
0
POLYLINE
8
0
66
1
10
0.0
20
0.0
30
0.0
0
VERTEX
8
0
10
2683.0
20
7905.651539378849
0
VERTEX
8
0
10
2677.9759526419166
20
7924.401539378849
0
VERTEX
8
0
10
2664.25
20
7938.127492020765
0
VERTEX
8
0
10
2645.5
20
7943.151539378849
0
VERTEX
8
0
10
2645.5
20
7905.651539378849
0
VERTEX
8
0
10
2645.5
20
7905.651539378849
0
VERTEX
8
0
10
2645.5
20
7905.651539378849
0
VERTEX
8
0
10
2645.5
20
7905.651539378849
0
VERTEX
8
0
10
2683.0
20
7905.651539378849
0
SEQEND
0
POLYLINE
8
0
66
1
10
0.0
20
0.0
30
0.0
0
VERTEX
8
0
10
2729.5
20
7980.651539378849
0
VERTEX
8
0
10
2729.5
20
7905.651539378849
0
VERTEX
8
0
10
2804.5
20
7905.651539378849
0
VERTEX
8
0
10
2804.5
20
7980.651539378849
0
VERTEX
8
0
10
2729.5
20
7980.651539378849
0
SEQEND
0
POLYLINE
8
0
66
1
10
0.0
20
0.0
30
0.0
0
VERTEX
8
0
10
2729.5
20
7905.651539378849
0
VERTEX
8
0
10
2739.5480947161673
20
7943.151539378849
0
VERTEX
8
0
10
2767.0
20
7970.603444662682
0
VERTEX
8
0
10
2804.5
20
7980.651539378849
0
VERTEX
8
0
10
2804.5
20
7943.151539378849
0
VERTEX
8
0
10
2785.75
20
7938.127492020765
0
VERTEX
8
0
10
2772.0240473580834
20
7924.401539378849
0
VERTEX
8
0
10
2767.0
20
7905.651539378849
0
VERTEX
8
0
10
2729.5
20
7905.651539378849
0
SEQEND
0
POLYLINE
8
0
66
1
10
0.0
20
0.0
30
0.0
0
VERTEX
8
0
10
2767.0
20
7905.651539378849
0
VERTEX
8
0
10
2772.0240473580834
20
7924.401539378849
0
VERTEX
8
0
10
2785.75
20
7938.127492020765
0
VERTEX
8
0
10
2804.5
20
7943.151539378849
0
VERTEX
8
0
10
2804.5
20
7905.651539378849
0
VERTEX
8
0
10
2804.5
20
7905.651539378849
0
VERTEX
8
0
10
2804.5
20
7905.651539378849
0
VERTEX
8
0
10
2804.5
20
7905.651539378849
0
VERTEX
8
0
10
2767.0
20
7905.651539378849
0
SEQEND
0
POLYLINE
8
0
66
1
10
0.0
20
0.0
30
0.0
0
VERTEX
8
0
10
376.0
20
7980.651539378849
0
VERTEX
8
0
10
376.0
20
8055.651539378849
0
VERTEX
8
0
10
301.0
20
8055.651539378849
0
VERTEX
8
0
10
301.0
20
7980.651539378849
0
VERTEX
8
0
10
376.0
20
7980.651539378849
0
SEQEND
0
POLYLINE
8
0
66
1
10
0.0
20
0.0
30
0.0
0
VERTEX
8
0
10
301.0
20
8055.651539378849
0
VERTEX
8
0
10
311.0480947161671
20
8018.151539378849
0
VERTEX
8
0
10
338.49999999999994
20
7990.699634095015
0
VERTEX
8
0
10
376.0
20
7980.651539378849
0
VERTEX
8
0
10
376.0
20
8018.151539378849
0
VERTEX
8
0
10
357.25
20
8023.175586736932
0
VERTEX
8
0
10
343.5240473580835
20
8036.901539378849
0
VERTEX
8
0
10
338.5
20
8055.651539378849
0
VERTEX
8
0
10
301.0
20
8055.651539378849
0
SEQEND
0
POLYLINE
8
0
66
1
10
0.0
20
0.0
30
0.0
0
VERTEX
8
0
10
338.5
20
8055.651539378849
0
VERTEX
8
0
10
343.5240473580835
20
8036.901539378849
0
VERTEX
8
0
10
357.25
20
8023.175586736932
0
VERTEX
8
0
10
376.0
20
8018.151539378849
0
VERTEX
8
0
10
376.0
20
8055.651539378849
0
VERTEX
8
0
10
376.0
20
8055.651539378849
0
VERTEX
8
0
10
376.0
20
8055.651539378849
0
VERTEX
8
0
10
376.0
20
8055.651539378849
0
VERTEX
8
0
10
338.5
20
8055.651539378849
0
SEQEND
0
POLYLINE
8
0
66
1
10
0.0
20
0.0
30
0.0
0
VERTEX
8
0
10
5149.0
20
7980.651539378849
0
VERTEX
8
0
10
5149.0
20
8055.651539378849
0
VERTEX
8
0
10
5074.0
20
8055.651539378849
0
VERTEX
8
0
10
5074.0
20
7980.651539378849
0
VERTEX
8
0
10
5149.0
20
7980.651539378849
0
SEQEND
0
POLYLINE
8
0
66
1
10
0.0
20
0.0
30
0.0
0
VERTEX
8
0
10
5149.0
20
8055.651539378849
0
VERTEX
8
0
10
5138.951905283833
20
8018.151539378849
0
VERTEX
8
0
10
5111.5
20
7990.699634095015
0
VERTEX
8
0
10
5074.0
20
7980.651539378849
0
VERTEX
8
0
10
5074.0
20
8018.151539378849
0
VERTEX
8
0
10
5092.75
20
8023.175586736932
0
VERTEX
8
0
10
5106.475952641917
20
8036.901539378849
0
VERTEX
8
0
10
5111.5
20
8055.651539378849
0
VERTEX
8
0
10
5149.0
20
8055.651539378849
0
SEQEND
0
POLYLINE
8
0
66
1
10
0.0
20
0.0
30
0.0
0
VERTEX
8
0
10
5111.5
20
8055.651539378849
0
VERTEX
8
0
10
5106.475952641917
20
8036.901539378849
0
VERTEX
8
0
10
5092.75
20
8023.175586736932
0
VERTEX
8
0
10
5074.0
20
8018.151539378849
0
VERTEX
8
0
10
5074.0
20
8055.651539378849
0
VERTEX
8
0
10
5074.0
20
8055.651539378849
0
VERTEX
8
0
10
5074.0
20
8055.651539378849
0
VERTEX
8
0
10
5074.0
20
8055.651539378849
0
VERTEX
8
0
10
5111.5
20
8055.651539378849
0
SEQEND
0
POLYLINE
8
0
66
1
10
0.0
20
0.0
30
0.0
0
VERTEX
8
0
10
2723.5
20
7980.651539378849
0
VERTEX
8
0
10
2723.5000000000005
20
14080.651539378849
0
VERTEX
8
0
10
301.00000000000045
20
14080.651539378849
0
VERTEX
8
0
10
301.0
20
7980.651539378849
0
VERTEX
8
0
10
2723.5
20
7980.651539378849
0
SEQEND
0
POLYLINE
8
0
66
1
10
0.0
20
0.0
30
0.0
0
VERTEX
8
0
10
2726.5
20
7980.651539378849
0
VERTEX
8
0
10
2726.5000000000005
20
14080.651539378849
0
VERTEX
8
0
10
5149.0
20
14080.651539378849
0
VERTEX
8
0
10
5149.0
20
7980.651539378849
0
VERTEX
8
0
10
2726.5
20
7980.651539378849
0
SEQEND
0
POLYLINE
8
0
66
1
10
0.0
20
0.0
30
0.0
0
VERTEX
8
0
10
2720.5000000000005
20
14080.651539378849
0
VERTEX
8
0
10
2720.5000000000005
20
14155.651539378849
0
VERTEX
8
0
10
2645.5000000000005
20
14155.651539378849
0
VERTEX
8
0
10
2645.5000000000005
20
14080.651539378849
0
VERTEX
8
0
10
2720.5000000000005
20
14080.651539378849
0
SEQEND
0
POLYLINE
8
0
66
1
10
0.0
20
0.0
30
0.0
0
VERTEX
8
0
10
2720.5000000000005
20
14155.651539378849
0
VERTEX
8
0
10
2710.451905283833
20
14118.151539378849
0
VERTEX
8
0
10
2683.0000000000005
20
14090.699634095015
0
VERTEX
8
0
10
2645.5000000000005
20
14080.651539378849
0
VERTEX
8
0
10
2645.5000000000005
20
14118.151539378849
0
VERTEX
8
0
10
2664.2500000000005
20
14123.175586736932
0
VERTEX
8
0
10
2677.975952641917
20
14136.901539378849
0
VERTEX
8
0
10
2683.0000000000005
20
14155.651539378849
0
VERTEX
8
0
10
2720.5000000000005
20
14155.651539378849
0
SEQEND
0
POLYLINE
8
0
66
1
10
0.0
20
0.0
30
0.0
0
VERTEX
8
0
10
2683.0000000000005
20
14155.651539378849
0
VERTEX
8
0
10
2677.975952641917
20
14136.901539378849
0
VERTEX
8
0
10
2664.2500000000005
20
14123.175586736932
0
VERTEX
8
0
10
2645.5000000000005
20
14118.151539378849
0
VERTEX
8
0
10
2645.5000000000005
20
14155.651539378849
0
VERTEX
8
0
10
2645.5000000000005
20
14155.651539378849
0
VERTEX
8
0
10
2645.5000000000005
20
14155.651539378849
0
VERTEX
8
0
10
2645.5000000000005
20
14155.651539378849
0
VERTEX
8
0
10
2683.0000000000005
20
14155.651539378849
0
SEQEND
0
POLYLINE
8
0
66
1
10
0.0
20
0.0
30
0.0
0
VERTEX
8
0
10
2804.5000000000005
20
14080.651539378849
0
VERTEX
8
0
10
2804.5000000000005
20
14155.651539378849
0
VERTEX
8
0
10
2729.5000000000005
20
14155.651539378849
0
VERTEX
8
0
10
2729.5000000000005
20
14080.651539378849
0
VERTEX
8
0
10
2804.5000000000005
20
14080.651539378849
0
SEQEND
0
POLYLINE
8
0
66
1
10
0.0
20
0.0
30
0.0
0
VERTEX
8
0
10
2729.5000000000005
20
14155.651539378849
0
VERTEX
8
0
10
2739.5480947161677
20
14118.151539378849
0
VERTEX
8
0
10
2767.0000000000005
20
14090.699634095015
0
VERTEX
8
0
10
2804.5000000000005
20
14080.651539378849
0
VERTEX
8
0
10
2804.5000000000005
20
14118.151539378849
0
VERTEX
8
0
10
2785.7500000000005
20
14123.175586736932
0
VERTEX
8
0
10
2772.024047358084
20
14136.901539378849
0
VERTEX
8
0
10
2767.0000000000005
20
14155.651539378849
0
VERTEX
8
0
10
2729.5000000000005
20
14155.651539378849
0
SEQEND
0
POLYLINE
8
0
66
1
10
0.0
20
0.0
30
0.0
0
VERTEX
8
0
10
2767.0000000000005
20
14155.651539378849
0
VERTEX
8
0
10
2772.024047358084
20
14136.901539378849
0
VERTEX
8
0
10
2785.7500000000005
20
14123.175586736932
0
VERTEX
8
0
10
2804.5000000000005
20
14118.151539378849
0
VERTEX
8
0
10
2804.5000000000005
20
14155.651539378849
0
VERTEX
8
0
10
2804.5000000000005
20
14155.651539378849
0
VERTEX
8
0
10
2804.5000000000005
20
14155.651539378849
0
VERTEX
8
0
10
2804.5000000000005
20
14155.651539378849
0
VERTEX
8
0
10
2767.0000000000005
20
14155.651539378849
0
SEQEND
0
POLYLINE
8
0
66
1
10
0.0
20
0.0
30
0.0
0
VERTEX
8
0
10
301.00000000000045
20
14080.651539378849
0
VERTEX
8
0
10
301.00000000000045
20
14005.651539378849
0
VERTEX
8
0
10
376.00000000000045
20
14005.651539378849
0
VERTEX
8
0
10
376.00000000000045
20
14080.651539378849
0
VERTEX
8
0
10
301.00000000000045
20
14080.651539378849
0
SEQEND
0
POLYLINE
8
0
66
1
10
0.0
20
0.0
30
0.0
0
VERTEX
8
0
10
301.00000000000045
20
14005.651539378849
0
VERTEX
8
0
10
311.04809471616755
20
14043.151539378849
0
VERTEX
8
0
10
338.50000000000045
20
14070.603444662682
0
VERTEX
8
0
10
376.00000000000045
20
14080.651539378849
0
VERTEX
8
0
10
376.00000000000045
20
14043.151539378849
0
VERTEX
8
0
10
357.25000000000045
20
14038.127492020765
0
VERTEX
8
0
10
343.524047358084
20
14024.401539378849
0
VERTEX
8
0
10
338.50000000000045
20
14005.651539378849
0
VERTEX
8
0
10
301.00000000000045
20
14005.651539378849
0
SEQEND
0
POLYLINE
8
0
66
1
10
0.0
20
0.0
30
0.0
0
VERTEX
8
0
10
338.50000000000045
20
14005.651539378849
0
VERTEX
8
0
10
343.524047358084
20
14024.401539378849
0
VERTEX
8
0
10
357.25000000000045
20
14038.127492020765
0
VERTEX
8
0
10
376.00000000000045
20
14043.151539378849
0
VERTEX
8
0
10
376.00000000000045
20
14005.651539378849
0
VERTEX
8
0
10
376.00000000000045
20
14005.651539378849
0
VERTEX
8
0
10
376.00000000000045
20
14005.651539378849
0
VERTEX
8
0
10
376.00000000000045
20
14005.651539378849
0
VERTEX
8
0
10
338.50000000000045
20
14005.651539378849
0
SEQEND
0
POLYLINE
8
0
66
1
10
0.0
20
0.0
30
0.0
0
VERTEX
8
0
10
5074.0
20
14080.651539378849
0
VERTEX
8
0
10
5074.0
20
14005.651539378849
0
VERTEX
8
0
10
5149.0
20
14005.651539378849
0
VERTEX
8
0
10
5149.0
20
14080.651539378849
0
VERTEX
8
0
10
5074.0
20
14080.651539378849
0
SEQEND
0
POLYLINE
8
0
66
1
10
0.0
20
0.0
30
0.0
0
VERTEX
8
0
10
5149.0
20
14005.651539378849
0
VERTEX
8
0
10
5138.951905283833
20
14043.151539378849
0
VERTEX
8
0
10
5111.5
20
14070.603444662682
0
VERTEX
8
0
10
5074.0
20
14080.651539378849
0
VERTEX
8
0
10
5074.0
20
14043.151539378849
0
VERTEX
8
0
10
5092.75
20
14038.127492020765
0
VERTEX
8
0
10
5106.475952641917
20
14024.401539378849
0
VERTEX
8
0
10
5111.5
20
14005.651539378849
0
VERTEX
8
0
10
5149.0
20
14005.651539378849
0
SEQEND
0
POLYLINE
8
0
66
1
10
0.0
20
0.0
30
0.0
0
VERTEX
8
0
10
5111.5
20
14005.651539378849
0
VERTEX
8
0
10
5106.475952641917
20
14024.401539378849
0
VERTEX
8
0
10
5092.75
20
14038.127492020765
0
VERTEX
8
0
10
5074.0
20
14043.151539378849
0
VERTEX
8
0
10
5074.0
20
14005.651539378849
0
VERTEX
8
0
10
5074.0
20
14005.651539378849
0
VERTEX
8
0
10
5074.0
20
14005.651539378849
0
VERTEX
8
0
10
5074.0
20
14005.651539378849
0
VERTEX
8
0
10
5111.5
20
14005.651539378849
0
SEQEND
0
POLYLINE
8
0
66
1
10
0.0
20
0.0
30
0.0
0
VERTEX
8
0
10
2723.5000000000005
20
14080.651539378849
0
VERTEX
8
0
10
2723.5000000000005
20
14175.651539378849
0
VERTEX
8
0
10
2720.5000000000005
20
14175.651539378849
0
VERTEX
8
0
10
2720.5000000000005
20
14080.651539378849
0
VERTEX
8
0
10
2723.5000000000005
20
14080.651539378849
0
SEQEND
0
POLYLINE
8
0
66
1
10
0.0
20
0.0
30
0.0
0
VERTEX
8
0
10
2726.5000000000005
20
14080.651539378849
0
VERTEX
8
0
10
2726.5000000000005
20
14175.651539378849
0
VERTEX
8
0
10
2729.5000000000005
20
14175.651539378849
0
VERTEX
8
0
10
2729.5000000000005
20
14080.651539378849
0
VERTEX
8
0
10
2726.5000000000005
20
14080.651539378849
0
SEQEND
0
POLYLINE
8
0
66
1
10
0.0
20
0.0
30
0.0
0
VERTEX
8
0
10
2720.5000000000005
20
14175.651539378849
0
VERTEX
8
0
10
2731.8208533802153
20
14217.901539378849
0
VERTEX
8
0
10
2762.7500000000005
20
14248.830685998633
0
VERTEX
8
0
10
2805.0000000000005
20
14260.151539378849
0
VERTEX
8
0
10
2805.0000000000005
20
14257.151539378849
0
VERTEX
8
0
10
2764.2500000000005
20
14246.232609787281
0
VERTEX
8
0
10
2734.4189295915685
20
14216.401539378849
0
VERTEX
8
0
10
2723.5000000000005
20
14175.651539378849
0
VERTEX
8
0
10
2720.5000000000005
20
14175.651539378849
0
SEQEND
0
POLYLINE
8
0
66
1
10
0.0
20
0.0
30
0.0
0
VERTEX
8
0
10
2726.5000000000005
20
14175.651539378849
0
VERTEX
8
0
10
2737.017005802922
20
14214.901539378849
0
VERTEX
8
0
10
2765.7500000000005
20
14243.634533575927
0
VERTEX
8
0
10
2805.0000000000005
20
14254.151539378849
0
VERTEX
8
0
10
2805.0000000000005
20
14251.151539378849
0
VERTEX
8
0
10
2767.2500000000005
20
14241.036457364573
0
VERTEX
8
0
10
2739.6150820142752
20
14213.401539378849
0
VERTEX
8
0
10
2729.5000000000005
20
14175.651539378849
0
VERTEX
8
0
10
2726.5000000000005
20
14175.651539378849
0
SEQEND
0
POLYLINE
8
0
66
1
10
0.0
20
0.0
30
0.0
0
VERTEX
8
0
10
2805.0000000000005
20
14257.151539378849
0
VERTEX
8
0
10
4050.0000000000005
20
14257.151539378849
0
VERTEX
8
0
10
4050.0000000000005
20
14260.151539378849
0
VERTEX
8
0
10
2805.0000000000005
20
14260.151539378849
0
VERTEX
8
0
10
2805.0000000000005
20
14257.151539378849
0
SEQEND
0
POLYLINE
8
0
66
1
10
0.0
20
0.0
30
0.0
0
VERTEX
8
0
10
2805.0000000000005
20
14254.151539378849
0
VERTEX
8
0
10
4050.0000000000005
20
14254.151539378849
0
VERTEX
8
0
10
4050.0000000000005
20
14251.151539378849
0
VERTEX
8
0
10
2805.0000000000005
20
14251.151539378849
0
VERTEX
8
0
10
2805.0000000000005
20
14254.151539378849
0
SEQEND
0
POLYLINE
8
0
66
1
10
0.0
20
0.0
30
0.0
0
VERTEX
8
0
10
4050.0000000000005
20
14251.151539378849
0
VERTEX
8
0
10
4123.179146619786
20
14293.401539378849
0
VERTEX
8
0
10
4123.179146619786
20
14377.901539378849
0
VERTEX
8
0
10
4050.0000000000005
20
14420.151539378849
0
VERTEX
8
0
10
4050.0000000000005
20
14417.151539378849
0
VERTEX
8
0
10
4120.581070408432
20
14376.401539378849
0
VERTEX
8
0
10
4120.581070408432
20
14294.901539378849
0
VERTEX
8
0
10
4050.0000000000005
20
14254.151539378849
0
VERTEX
8
0
10
4050.0000000000005
20
14251.151539378849
0
SEQEND
0
POLYLINE
8
0
66
1
10
0.0
20
0.0
30
0.0
0
VERTEX
8
0
10
4050.0000000000005
20
14257.151539378849
0
VERTEX
8
0
10
4117.982994197079
20
14296.401539378849
0
VERTEX
8
0
10
4117.982994197079
20
14374.901539378849
0
VERTEX
8
0
10
4050.0000000000005
20
14414.151539378849
0
VERTEX
8
0
10
4050.0000000000005
20
14411.151539378849
0
VERTEX
8
0
10
4115.384917985725
20
14373.401539378849
0
VERTEX
8
0
10
4115.384917985725
20
14297.901539378849
0
VERTEX
8
0
10
4050.0000000000005
20
14260.151539378849
0
VERTEX
8
0
10
4050.0000000000005
20
14257.151539378849
0
SEQEND
0
POLYLINE
8
0
66
1
10
0.0
20
0.0
30
0.0
0
VERTEX
8
0
10
4050.0000000000005
20
14414.151539378849
0
VERTEX
8
0
10
1400.000000000001
20
14414.151539378849
0
VERTEX
8
0
10
1400.000000000001
20
14411.151539378849
0
VERTEX
8
0
10
4050.0000000000005
20
14411.151539378849
0
VERTEX
8
0
10
4050.0000000000005
20
14414.151539378849
0
SEQEND
0
POLYLINE
8
0
66
1
10
0.0
20
0.0
30
0.0
0
VERTEX
8
0
10
4050.0000000000005
20
14417.151539378849
0
VERTEX
8
0
10
1400.000000000001
20
14417.151539378849
0
VERTEX
8
0
10
1400.000000000001
20
14420.151539378849
0
VERTEX
8
0
10
4050.0000000000005
20
14420.151539378849
0
VERTEX
8
0
10
4050.0000000000005
20
14417.151539378849
0
SEQEND
0
POLYLINE
8
0
66
1
10
0.0
20
0.0
30
0.0
0
VERTEX
8
0
10
1400.000000000001
20
14411.151539378849
0
VERTEX
8
0
10
1326.8208533802158
20
14453.401539378849
0
VERTEX
8
0
10
1326.8208533802158
20
14537.901539378849
0
VERTEX
8
0
10
1400.000000000001
20
14580.151539378849
0
VERTEX
8
0
10
1400.000000000001
20
14577.151539378849
0
VERTEX
8
0
10
1329.4189295915692
20
14536.401539378849
0
VERTEX
8
0
10
1329.4189295915692
20
14454.901539378849
0
VERTEX
8
0
10
1400.000000000001
20
14414.151539378849
0
VERTEX
8
0
10
1400.000000000001
20
14411.151539378849
0
SEQEND
0
POLYLINE
8
0
66
1
10
0.0
20
0.0
30
0.0
0
VERTEX
8
0
10
1400.000000000001
20
14417.151539378849
0
VERTEX
8
0
10
1332.0170058029225
20
14456.401539378849
0
VERTEX
8
0
10
1332.0170058029225
20
14534.901539378849
0
VERTEX
8
0
10
1400.000000000001
20
14574.151539378849
0
VERTEX
8
0
10
1400.000000000001
20
14571.151539378849
0
VERTEX
8
0
10
1334.6150820142757
20
14533.401539378849
0
VERTEX
8
0
10
1334.6150820142757
20
14457.901539378849
0
VERTEX
8
0
10
1400.000000000001
20
14420.151539378849
0
VERTEX
8
0
10
1400.000000000001
20
14417.151539378849
0
SEQEND
0
POLYLINE
8
0
66
1
10
0.0
20
0.0
30
0.0
0
VERTEX
8
0
10
1400.000000000001
20
14577.151539378849
0
VERTEX
8
0
10
2645.000000000001
20
14577.151539378849
0
VERTEX
8
0
10
2645.000000000001
20
14580.151539378849
0
VERTEX
8
0
10
1400.000000000001
20
14580.151539378849
0
VERTEX
8
0
10
1400.000000000001
20
14577.151539378849
0
SEQEND
0
POLYLINE
8
0
66
1
10
0.0
20
0.0
30
0.0
0
VERTEX
8
0
10
1400.000000000001
20
14574.151539378849
0
VERTEX
8
0
10
2645.000000000001
20
14574.151539378849
0
VERTEX
8
0
10
2645.000000000001
20
14571.151539378849
0
VERTEX
8
0
10
1400.000000000001
20
14571.151539378849
0
VERTEX
8
0
10
1400.000000000001
20
14574.151539378849
0
SEQEND
0
POLYLINE
8
0
66
1
10
0.0
20
0.0
30
0.0
0
VERTEX
8
0
10
2645.000000000001
20
14571.151539378849
0
VERTEX
8
0
10
2687.250000000001
20
14582.472392759064
0
VERTEX
8
0
10
2718.179146619786
20
14613.401539378849
0
VERTEX
8
0
10
2729.500000000001
20
14655.651539378849
0
VERTEX
8
0
10
2726.500000000001
20
14655.651539378849
0
VERTEX
8
0
10
2715.581070408433
20
14614.901539378849
0
VERTEX
8
0
10
2685.750000000001
20
14585.070468970416
0
VERTEX
8
0
10
2645.000000000001
20
14574.151539378849
0
VERTEX
8
0
10
2645.000000000001
20
14571.151539378849
0
SEQEND
0
POLYLINE
8
0
66
1
10
0.0
20
0.0
30
0.0
0
VERTEX
8
0
10
2645.000000000001
20
14577.151539378849
0
VERTEX
8
0
10
2684.250000000001
20
14587.66854518177
0
VERTEX
8
0
10
2712.9829941970793
20
14616.401539378849
0
VERTEX
8
0
10
2723.500000000001
20
14655.651539378849
0
VERTEX
8
0
10
2720.500000000001
20
14655.651539378849
0
VERTEX
8
0
10
2710.384917985726
20
14617.901539378849
0
VERTEX
8
0
10
2682.750000000001
20
14590.266621393124
0
VERTEX
8
0
10
2645.000000000001
20
14580.151539378849
0
VERTEX
8
0
10
2645.000000000001
20
14577.151539378849
0
SEQEND
0
POLYLINE
8
0
66
1
10
0.0
20
0.0
30
0.0
0
VERTEX
8
0
10
2723.500000000001
20
14655.651539378849
0
VERTEX
8
0
10
2723.500000000001
20
14766.669302517299
0
VERTEX
8
0
10
2720.500000000001
20
14766.669302517299
0
VERTEX
8
0
10
2720.500000000001
20
14655.651539378849
0
VERTEX
8
0
10
2723.500000000001
20
14655.651539378849
0
SEQEND
0
POLYLINE
8
0
66
1
10
0.0
20
0.0
30
0.0
0
VERTEX
8
0
10
2726.500000000001
20
14655.651539378849
0
VERTEX
8
0
10
2726.500000000001
20
14766.669302517299
0
VERTEX
8
0
10
2729.500000000001
20
14766.669302517299
0
VERTEX
8
0
10
2729.500000000001
20
14655.651539378849
0
VERTEX
8
0
10
2726.500000000001
20
14655.651539378849
0
SEQEND
0
POLYLINE
8
0
66
1
10
0.0
20
0.0
30
0.0
0
VERTEX
8
0
10
2645.500000000001
20
14766.669302517299
0
VERTEX
8
0
10
2645.500000000001
20
14691.669302517299
0
VERTEX
8
0
10
2720.500000000001
20
14691.669302517299
0
VERTEX
8
0
10
2720.500000000001
20
14766.669302517299
0
VERTEX
8
0
10
2645.500000000001
20
14766.669302517299
0
SEQEND
0
POLYLINE
8
0
66
1
10
0.0
20
0.0
30
0.0
0
VERTEX
8
0
10
2720.500000000001
20
14691.669302517299
0
VERTEX
8
0
10
2710.4519052838336
20
14729.169302517299
0
VERTEX
8
0
10
2683.000000000001
20
14756.621207801132
0
VERTEX
8
0
10
2645.500000000001
20
14766.669302517299
0
VERTEX
8
0
10
2645.500000000001
20
14729.169302517299
0
VERTEX
8
0
10
2664.250000000001
20
14724.145255159216
0
VERTEX
8
0
10
2677.9759526419175
20
14710.419302517299
0
VERTEX
8
0
10
2683.000000000001
20
14691.669302517299
0
VERTEX
8
0
10
2720.500000000001
20
14691.669302517299
0
SEQEND
0
POLYLINE
8
0
66
1
10
0.0
20
0.0
30
0.0
0
VERTEX
8
0
10
2683.000000000001
20
14691.669302517299
0
VERTEX
8
0
10
2677.9759526419175
20
14710.419302517299
0
VERTEX
8
0
10
2664.250000000001
20
14724.145255159216
0
VERTEX
8
0
10
2645.500000000001
20
14729.169302517299
0
VERTEX
8
0
10
2645.500000000001
20
14691.669302517299
0
VERTEX
8
0
10
2645.500000000001
20
14691.669302517299
0
VERTEX
8
0
10
2645.500000000001
20
14691.669302517299
0
VERTEX
8
0
10
2645.500000000001
20
14691.669302517299
0
VERTEX
8
0
10
2683.000000000001
20
14691.669302517299
0
SEQEND
0
POLYLINE
8
0
66
1
10
0.0
20
0.0
30
0.0
0
VERTEX
8
0
10
2729.500000000001
20
14766.669302517299
0
VERTEX
8
0
10
2729.500000000001
20
14691.669302517299
0
VERTEX
8
0
10
2804.500000000001
20
14691.669302517299
0
VERTEX
8
0
10
2804.500000000001
20
14766.669302517299
0
VERTEX
8
0
10
2729.500000000001
20
14766.669302517299
0
SEQEND
0
POLYLINE
8
0
66
1
10
0.0
20
0.0
30
0.0
0
VERTEX
8
0
10
2729.500000000001
20
14691.669302517299
0
VERTEX
8
0
10
2739.548094716168
20
14729.169302517299
0
VERTEX
8
0
10
2767.000000000001
20
14756.621207801132
0
VERTEX
8
0
10
2804.500000000001
20
14766.669302517299
0
VERTEX
8
0
10
2804.500000000001
20
14729.169302517299
0
VERTEX
8
0
10
2785.750000000001
20
14724.145255159216
0
VERTEX
8
0
10
2772.0240473580843
20
14710.419302517299
0
VERTEX
8
0
10
2767.000000000001
20
14691.669302517299
0
VERTEX
8
0
10
2729.500000000001
20
14691.669302517299
0
SEQEND
0
POLYLINE
8
0
66
1
10
0.0
20
0.0
30
0.0
0
VERTEX
8
0
10
2767.000000000001
20
14691.669302517299
0
VERTEX
8
0
10
2772.0240473580843
20
14710.419302517299
0
VERTEX
8
0
10
2785.750000000001
20
14724.145255159216
0
VERTEX
8
0
10
2804.500000000001
20
14729.169302517299
0
VERTEX
8
0
10
2804.500000000001
20
14691.669302517299
0
VERTEX
8
0
10
2804.500000000001
20
14691.669302517299
0
VERTEX
8
0
10
2804.500000000001
20
14691.669302517299
0
VERTEX
8
0
10
2804.500000000001
20
14691.669302517299
0
VERTEX
8
0
10
2767.000000000001
20
14691.669302517299
0
SEQEND
0
POLYLINE
8
0
66
1
10
0.0
20
0.0
30
0.0
0
VERTEX
8
0
10
376.0000000000009
20
14766.669302517299
0
VERTEX
8
0
10
376.0000000000009
20
14841.669302517299
0
VERTEX
8
0
10
301.0000000000009
20
14841.669302517299
0
VERTEX
8
0
10
301.0000000000009
20
14766.669302517299
0
VERTEX
8
0
10
376.0000000000009
20
14766.669302517299
0
SEQEND
0
POLYLINE
8
0
66
1
10
0.0
20
0.0
30
0.0
0
VERTEX
8
0
10
301.0000000000009
20
14841.669302517299
0
VERTEX
8
0
10
311.048094716168
20
14804.169302517299
0
VERTEX
8
0
10
338.50000000000085
20
14776.717397233466
0
VERTEX
8
0
10
376.0000000000009
20
14766.669302517299
0
VERTEX
8
0
10
376.0000000000009
20
14804.169302517299
0
VERTEX
8
0
10
357.2500000000009
20
14809.193349875382
0
VERTEX
8
0
10
343.52404735808443
20
14822.919302517299
0
VERTEX
8
0
10
338.5000000000009
20
14841.669302517299
0
VERTEX
8
0
10
301.0000000000009
20
14841.669302517299
0
SEQEND
0
POLYLINE
8
0
66
1
10
0.0
20
0.0
30
0.0
0
VERTEX
8
0
10
338.5000000000009
20
14841.669302517299
0
VERTEX
8
0
10
343.52404735808443
20
14822.919302517299
0
VERTEX
8
0
10
357.2500000000009
20
14809.193349875382
0
VERTEX
8
0
10
376.0000000000009
20
14804.169302517299
0
VERTEX
8
0
10
376.0000000000009
20
14841.669302517299
0
VERTEX
8
0
10
376.0000000000009
20
14841.669302517299
0
VERTEX
8
0
10
376.0000000000009
20
14841.669302517299
0
VERTEX
8
0
10
376.0000000000009
20
14841.669302517299
0
VERTEX
8
0
10
338.5000000000009
20
14841.669302517299
0
SEQEND
0
POLYLINE
8
0
66
1
10
0.0
20
0.0
30
0.0
0
VERTEX
8
0
10
5149.000000000001
20
14766.669302517299
0
VERTEX
8
0
10
5149.000000000001
20
14841.669302517299
0
VERTEX
8
0
10
5074.000000000001
20
14841.669302517299
0
VERTEX
8
0
10
5074.000000000001
20
14766.669302517299
0
VERTEX
8
0
10
5149.000000000001
20
14766.669302517299
0
SEQEND
0
POLYLINE
8
0
66
1
10
0.0
20
0.0
30
0.0
0
VERTEX
8
0
10
5149.000000000001
20
14841.669302517299
0
VERTEX
8
0
10
5138.951905283834
20
14804.169302517299
0
VERTEX
8
0
10
5111.500000000001
20
14776.717397233466
0
VERTEX
8
0
10
5074.000000000001
20
14766.669302517299
0
VERTEX
8
0
10
5074.000000000001
20
14804.169302517299
0
VERTEX
8
0
10
5092.750000000001
20
14809.193349875382
0
VERTEX
8
0
10
5106.4759526419175
20
14822.919302517299
0
VERTEX
8
0
10
5111.500000000001
20
14841.669302517299
0
VERTEX
8
0
10
5149.000000000001
20
14841.669302517299
0
SEQEND
0
POLYLINE
8
0
66
1
10
0.0
20
0.0
30
0.0
0
VERTEX
8
0
10
5111.500000000001
20
14841.669302517299
0
VERTEX
8
0
10
5106.4759526419175
20
14822.919302517299
0
VERTEX
8
0
10
5092.750000000001
20
14809.193349875382
0
VERTEX
8
0
10
5074.000000000001
20
14804.169302517299
0
VERTEX
8
0
10
5074.000000000001
20
14841.669302517299
0
VERTEX
8
0
10
5074.000000000001
20
14841.669302517299
0
VERTEX
8
0
10
5074.000000000001
20
14841.669302517299
0
VERTEX
8
0
10
5074.000000000001
20
14841.669302517299
0
VERTEX
8
0
10
5111.500000000001
20
14841.669302517299
0
SEQEND
0
POLYLINE
8
0
66
1
10
0.0
20
0.0
30
0.0
0
VERTEX
8
0
10
2723.500000000001
20
14766.669302517299
0
VERTEX
8
0
10
2723.5000000000014
20
20866.669302517297
0
VERTEX
8
0
10
300.99999999999955
20
20866.669302517297
0
VERTEX
8
0
10
300.9999999999991
20
14766.669302517299
0
VERTEX
8
0
10
2723.500000000001
20
14766.669302517299
0
SEQEND
0
POLYLINE
8
0
66
1
10
0.0
20
0.0
30
0.0
0
VERTEX
8
0
10
2726.500000000001
20
14766.669302517299
0
VERTEX
8
0
10
2726.5000000000014
20
20866.669302517297
0
VERTEX
8
0
10
5149.000000000002
20
20866.669302517297
0
VERTEX
8
0
10
5149.000000000001
20
14766.669302517299
0
VERTEX
8
0
10
2726.500000000001
20
14766.669302517299
0
SEQEND
0
POLYLINE
8
0
66
1
10
0.0
20
0.0
30
0.0
0
VERTEX
8
0
10
2720.5000000000014
20
20866.669302517297
0
VERTEX
8
0
10
2720.5000000000014
20
20941.669302517297
0
VERTEX
8
0
10
2645.5000000000014
20
20941.669302517297
0
VERTEX
8
0
10
2645.5000000000014
20
20866.669302517297
0
VERTEX
8
0
10
2720.5000000000014
20
20866.669302517297
0
SEQEND
0
POLYLINE
8
0
66
1
10
0.0
20
0.0
30
0.0
0
VERTEX
8
0
10
2720.5000000000014
20
20941.669302517297
0
VERTEX
8
0
10
2710.451905283834
20
20904.169302517297
0
VERTEX
8
0
10
2683.0000000000014
20
20876.717397233464
0
VERTEX
8
0
10
2645.5000000000014
20
20866.669302517297
0
VERTEX
8
0
10
2645.5000000000014
20
20904.169302517297
0
VERTEX
8
0
10
2664.2500000000014
20
20909.193349875382
0
VERTEX
8
0
10
2677.975952641918
20
20922.919302517297
0
VERTEX
8
0
10
2683.0000000000014
20
20941.669302517297
0
VERTEX
8
0
10
2720.5000000000014
20
20941.669302517297
0
SEQEND
0
POLYLINE
8
0
66
1
10
0.0
20
0.0
30
0.0
0
VERTEX
8
0
10
2683.0000000000014
20
20941.669302517297
0
VERTEX
8
0
10
2677.975952641918
20
20922.919302517297
0
VERTEX
8
0
10
2664.2500000000014
20
20909.193349875382
0
VERTEX
8
0
10
2645.5000000000014
20
20904.169302517297
0
VERTEX
8
0
10
2645.5000000000014
20
20941.669302517297
0
VERTEX
8
0
10
2645.5000000000014
20
20941.669302517297
0
VERTEX
8
0
10
2645.5000000000014
20
20941.669302517297
0
VERTEX
8
0
10
2645.5000000000014
20
20941.669302517297
0
VERTEX
8
0
10
2683.0000000000014
20
20941.669302517297
0
SEQEND
0
POLYLINE
8
0
66
1
10
0.0
20
0.0
30
0.0
0
VERTEX
8
0
10
2804.5000000000014
20
20866.669302517297
0
VERTEX
8
0
10
2804.5000000000014
20
20941.669302517297
0
VERTEX
8
0
10
2729.5000000000014
20
20941.669302517297
0
VERTEX
8
0
10
2729.5000000000014
20
20866.669302517297
0
VERTEX
8
0
10
2804.5000000000014
20
20866.669302517297
0
SEQEND
0
POLYLINE
8
0
66
1
10
0.0
20
0.0
30
0.0
0
VERTEX
8
0
10
2729.5000000000014
20
20941.669302517297
0
VERTEX
8
0
10
2739.5480947161686
20
20904.169302517297
0
VERTEX
8
0
10
2767.0000000000014
20
20876.717397233464
0
VERTEX
8
0
10
2804.5000000000014
20
20866.669302517297
0
VERTEX
8
0
10
2804.5000000000014
20
20904.169302517297
0
VERTEX
8
0
10
2785.7500000000014
20
20909.193349875382
0
VERTEX
8
0
10
2772.0240473580848
20
20922.919302517297
0
VERTEX
8
0
10
2767.0000000000014
20
20941.669302517297
0
VERTEX
8
0
10
2729.5000000000014
20
20941.669302517297
0
SEQEND
0
POLYLINE
8
0
66
1
10
0.0
20
0.0
30
0.0
0
VERTEX
8
0
10
2767.0000000000014
20
20941.669302517297
0
VERTEX
8
0
10
2772.0240473580848
20
20922.919302517297
0
VERTEX
8
0
10
2785.7500000000014
20
20909.193349875382
0
VERTEX
8
0
10
2804.5000000000014
20
20904.169302517297
0
VERTEX
8
0
10
2804.5000000000014
20
20941.669302517297
0
VERTEX
8
0
10
2804.5000000000014
20
20941.669302517297
0
VERTEX
8
0
10
2804.5000000000014
20
20941.669302517297
0
VERTEX
8
0
10
2804.5000000000014
20
20941.669302517297
0
VERTEX
8
0
10
2767.0000000000014
20
20941.669302517297
0
SEQEND
0
POLYLINE
8
0
66
1
10
0.0
20
0.0
30
0.0
0
VERTEX
8
0
10
301.00000000000136
20
20866.669302517297
0
VERTEX
8
0
10
301.00000000000136
20
20791.669302517297
0
VERTEX
8
0
10
376.00000000000136
20
20791.669302517297
0
VERTEX
8
0
10
376.00000000000136
20
20866.669302517297
0
VERTEX
8
0
10
301.00000000000136
20
20866.669302517297
0
SEQEND
0
POLYLINE
8
0
66
1
10
0.0
20
0.0
30
0.0
0
VERTEX
8
0
10
301.00000000000136
20
20791.669302517297
0
VERTEX
8
0
10
311.04809471616846
20
20829.169302517297
0
VERTEX
8
0
10
338.50000000000136
20
20856.62120780113
0
VERTEX
8
0
10
376.00000000000136
20
20866.669302517297
0
VERTEX
8
0
10
376.00000000000136
20
20829.169302517297
0
VERTEX
8
0
10
357.25000000000136
20
20824.145255159212
0
VERTEX
8
0
10
343.5240473580849
20
20810.419302517297
0
VERTEX
8
0
10
338.50000000000136
20
20791.669302517297
0
VERTEX
8
0
10
301.00000000000136
20
20791.669302517297
0
SEQEND
0
POLYLINE
8
0
66
1
10
0.0
20
0.0
30
0.0
0
VERTEX
8
0
10
338.50000000000136
20
20791.669302517297
0
VERTEX
8
0
10
343.5240473580849
20
20810.419302517297
0
VERTEX
8
0
10
357.25000000000136
20
20824.145255159212
0
VERTEX
8
0
10
376.00000000000136
20
20829.169302517297
0
VERTEX
8
0
10
376.00000000000136
20
20791.669302517297
0
VERTEX
8
0
10
376.00000000000136
20
20791.669302517297
0
VERTEX
8
0
10
376.00000000000136
20
20791.669302517297
0
VERTEX
8
0
10
376.00000000000136
20
20791.669302517297
0
VERTEX
8
0
10
338.50000000000136
20
20791.669302517297
0
SEQEND
0
POLYLINE
8
0
66
1
10
0.0
20
0.0
30
0.0
0
VERTEX
8
0
10
5074.000000000002
20
20866.669302517297
0
VERTEX
8
0
10
5074.000000000002
20
20791.669302517297
0
VERTEX
8
0
10
5149.000000000002
20
20791.669302517297
0
VERTEX
8
0
10
5149.000000000002
20
20866.669302517297
0
VERTEX
8
0
10
5074.000000000002
20
20866.669302517297
0
SEQEND
0
POLYLINE
8
0
66
1
10
0.0
20
0.0
30
0.0
0
VERTEX
8
0
10
5149.000000000002
20
20791.669302517297
0
VERTEX
8
0
10
5138.951905283835
20
20829.169302517297
0
VERTEX
8
0
10
5111.500000000002
20
20856.62120780113
0
VERTEX
8
0
10
5074.000000000002
20
20866.669302517297
0
VERTEX
8
0
10
5074.000000000002
20
20829.169302517297
0
VERTEX
8
0
10
5092.750000000002
20
20824.145255159212
0
VERTEX
8
0
10
5106.475952641918
20
20810.419302517297
0
VERTEX
8
0
10
5111.500000000002
20
20791.669302517297
0
VERTEX
8
0
10
5149.000000000002
20
20791.669302517297
0
SEQEND
0
POLYLINE
8
0
66
1
10
0.0
20
0.0
30
0.0
0
VERTEX
8
0
10
5111.500000000002
20
20791.669302517297
0
VERTEX
8
0
10
5106.475952641918
20
20810.419302517297
0
VERTEX
8
0
10
5092.750000000002
20
20824.145255159212
0
VERTEX
8
0
10
5074.000000000002
20
20829.169302517297
0
VERTEX
8
0
10
5074.000000000002
20
20791.669302517297
0
VERTEX
8
0
10
5074.000000000002
20
20791.669302517297
0
VERTEX
8
0
10
5074.000000000002
20
20791.669302517297
0
VERTEX
8
0
10
5074.000000000002
20
20791.669302517297
0
VERTEX
8
0
10
5111.500000000002
20
20791.669302517297
0
SEQEND
0
POLYLINE
8
0
66
1
10
0.0
20
0.0
30
0.0
0
VERTEX
8
0
10
2723.5000000000014
20
20866.669302517297
0
VERTEX
8
0
10
2723.5000000000014
20
20961.669302517297
0
VERTEX
8
0
10
2720.5000000000014
20
20961.669302517297
0
VERTEX
8
0
10
2720.5000000000014
20
20866.669302517297
0
VERTEX
8
0
10
2723.5000000000014
20
20866.669302517297
0
SEQEND
0
POLYLINE
8
0
66
1
10
0.0
20
0.0
30
0.0
0
VERTEX
8
0
10
2726.5000000000014
20
20866.669302517297
0
VERTEX
8
0
10
2726.5000000000014
20
20961.669302517297
0
VERTEX
8
0
10
2729.5000000000014
20
20961.669302517297
0
VERTEX
8
0
10
2729.5000000000014
20
20866.669302517297
0
VERTEX
8
0
10
2726.5000000000014
20
20866.669302517297
0
SEQEND
0
POLYLINE
8
0
66
1
10
0.0
20
0.0
30
0.0
0
VERTEX
8
0
10
2720.5000000000014
20
20961.669302517297
0
VERTEX
8
0
10
2731.8208533802162
20
21003.919302517297
0
VERTEX
8
0
10
2762.7500000000014
20
21034.848449137084
0
VERTEX
8
0
10
2805.0000000000014
20
21046.169302517297
0
VERTEX
8
0
10
2805.0000000000014
20
21043.169302517297
0
VERTEX
8
0
10
2764.2500000000014
20
21032.25037292573
0
VERTEX
8
0
10
2734.4189295915694
20
21002.419302517297
0
VERTEX
8
0
10
2723.5000000000014
20
20961.669302517297
0
VERTEX
8
0
10
2720.5000000000014
20
20961.669302517297
0
SEQEND
0
POLYLINE
8
0
66
1
10
0.0
20
0.0
30
0.0
0
VERTEX
8
0
10
2726.5000000000014
20
20961.669302517297
0
VERTEX
8
0
10
2737.017005802923
20
21000.919302517297
0
VERTEX
8
0
10
2765.7500000000014
20
21029.652296714376
0
VERTEX
8
0
10
2805.0000000000014
20
21040.169302517297
0
VERTEX
8
0
10
2805.0000000000014
20
21037.169302517297
0
VERTEX
8
0
10
2767.2500000000014
20
21027.05422050302
0
VERTEX
8
0
10
2739.615082014276
20
20999.419302517297
0
VERTEX
8
0
10
2729.5000000000014
20
20961.669302517297
0
VERTEX
8
0
10
2726.5000000000014
20
20961.669302517297
0
SEQEND
0
POLYLINE
8
0
66
1
10
0.0
20
0.0
30
0.0
0
VERTEX
8
0
10
2805.0000000000014
20
21043.169302517297
0
VERTEX
8
0
10
4050.0000000000014
20
21043.169302517297
0
VERTEX
8
0
10
4050.0000000000014
20
21046.169302517297
0
VERTEX
8
0
10
2805.0000000000014
20
21046.169302517297
0
VERTEX
8
0
10
2805.0000000000014
20
21043.169302517297
0
SEQEND
0
POLYLINE
8
0
66
1
10
0.0
20
0.0
30
0.0
0
VERTEX
8
0
10
2805.0000000000014
20
21040.169302517297
0
VERTEX
8
0
10
4050.0000000000014
20
21040.169302517297
0
VERTEX
8
0
10
4050.0000000000014
20
21037.169302517297
0
VERTEX
8
0
10
2805.0000000000014
20
21037.169302517297
0
VERTEX
8
0
10
2805.0000000000014
20
21040.169302517297
0
SEQEND
0
POLYLINE
8
0
66
1
10
0.0
20
0.0
30
0.0
0
VERTEX
8
0
10
4050.0000000000014
20
21037.169302517297
0
VERTEX
8
0
10
4123.1791466197865
20
21079.419302517297
0
VERTEX
8
0
10
4123.1791466197865
20
21163.919302517297
0
VERTEX
8
0
10
4050.0000000000014
20
21206.169302517297
0
VERTEX
8
0
10
4050.0000000000014
20
21203.169302517297
0
VERTEX
8
0
10
4120.581070408433
20
21162.419302517297
0
VERTEX
8
0
10
4120.581070408433
20
21080.919302517297
0
VERTEX
8
0
10
4050.0000000000014
20
21040.169302517297
0
VERTEX
8
0
10
4050.0000000000014
20
21037.169302517297
0
SEQEND
0
POLYLINE
8
0
66
1
10
0.0
20
0.0
30
0.0
0
VERTEX
8
0
10
4050.0000000000014
20
21043.169302517297
0
VERTEX
8
0
10
4117.98299419708
20
21082.419302517297
0
VERTEX
8
0
10
4117.98299419708
20
21160.919302517297
0
VERTEX
8
0
10
4050.0000000000014
20
21200.169302517297
0
VERTEX
8
0
10
4050.0000000000014
20
21197.169302517297
0
VERTEX
8
0
10
4115.384917985726
20
21159.419302517297
0
VERTEX
8
0
10
4115.384917985726
20
21083.919302517297
0
VERTEX
8
0
10
4050.0000000000014
20
21046.169302517297
0
VERTEX
8
0
10
4050.0000000000014
20
21043.169302517297
0
SEQEND
0
POLYLINE
8
0
66
1
10
0.0
20
0.0
30
0.0
0
VERTEX
8
0
10
4050.0000000000014
20
21200.169302517297
0
VERTEX
8
0
10
1400.000000000001
20
21200.169302517297
0
VERTEX
8
0
10
1400.000000000001
20
21197.169302517297
0
VERTEX
8
0
10
4050.0000000000014
20
21197.169302517297
0
VERTEX
8
0
10
4050.0000000000014
20
21200.169302517297
0
SEQEND
0
POLYLINE
8
0
66
1
10
0.0
20
0.0
30
0.0
0
VERTEX
8
0
10
4050.0000000000014
20
21203.169302517297
0
VERTEX
8
0
10
1400.000000000001
20
21203.169302517297
0
VERTEX
8
0
10
1400.000000000001
20
21206.169302517297
0
VERTEX
8
0
10
4050.0000000000014
20
21206.169302517297
0
VERTEX
8
0
10
4050.0000000000014
20
21203.169302517297
0
SEQEND
0
POLYLINE
8
0
66
1
10
0.0
20
0.0
30
0.0
0
VERTEX
8
0
10
1400.000000000001
20
21197.169302517297
0
VERTEX
8
0
10
1326.8208533802158
20
21239.419302517297
0
VERTEX
8
0
10
1326.8208533802158
20
21323.919302517297
0
VERTEX
8
0
10
1400.000000000001
20
21366.169302517297
0
VERTEX
8
0
10
1400.000000000001
20
21363.169302517297
0
VERTEX
8
0
10
1329.4189295915692
20
21322.419302517297
0
VERTEX
8
0
10
1329.4189295915692
20
21240.919302517297
0
VERTEX
8
0
10
1400.000000000001
20
21200.169302517297
0
VERTEX
8
0
10
1400.000000000001
20
21197.169302517297
0
SEQEND
0
POLYLINE
8
0
66
1
10
0.0
20
0.0
30
0.0
0
VERTEX
8
0
10
1400.000000000001
20
21203.169302517297
0
VERTEX
8
0
10
1332.0170058029225
20
21242.419302517297
0
VERTEX
8
0
10
1332.0170058029225
20
21320.919302517297
0
VERTEX
8
0
10
1400.000000000001
20
21360.169302517297
0
VERTEX
8
0
10
1400.000000000001
20
21357.169302517297
0
VERTEX
8
0
10
1334.6150820142757
20
21319.419302517297
0
VERTEX
8
0
10
1334.6150820142757
20
21243.919302517297
0
VERTEX
8
0
10
1400.000000000001
20
21206.169302517297
0
VERTEX
8
0
10
1400.000000000001
20
21203.169302517297
0
SEQEND
0
POLYLINE
8
0
66
1
10
0.0
20
0.0
30
0.0
0
VERTEX
8
0
10
1400.000000000001
20
21363.169302517297
0
VERTEX
8
0
10
2645.000000000001
20
21363.169302517297
0
VERTEX
8
0
10
2645.000000000001
20
21366.169302517297
0
VERTEX
8
0
10
1400.000000000001
20
21366.169302517297
0
VERTEX
8
0
10
1400.000000000001
20
21363.169302517297
0
SEQEND
0
POLYLINE
8
0
66
1
10
0.0
20
0.0
30
0.0
0
VERTEX
8
0
10
1400.000000000001
20
21360.169302517297
0
VERTEX
8
0
10
2645.000000000001
20
21360.169302517297
0
VERTEX
8
0
10
2645.000000000001
20
21357.169302517297
0
VERTEX
8
0
10
1400.000000000001
20
21357.169302517297
0
VERTEX
8
0
10
1400.000000000001
20
21360.169302517297
0
SEQEND
0
POLYLINE
8
0
66
1
10
0.0
20
0.0
30
0.0
0
VERTEX
8
0
10
2645.000000000001
20
21357.169302517297
0
VERTEX
8
0
10
2687.250000000001
20
21368.49015589751
0
VERTEX
8
0
10
2718.179146619786
20
21399.419302517297
0
VERTEX
8
0
10
2729.500000000001
20
21441.669302517297
0
VERTEX
8
0
10
2726.500000000001
20
21441.669302517297
0
VERTEX
8
0
10
2715.581070408433
20
21400.919302517297
0
VERTEX
8
0
10
2685.750000000001
20
21371.088232108865
0
VERTEX
8
0
10
2645.000000000001
20
21360.169302517297
0
VERTEX
8
0
10
2645.000000000001
20
21357.169302517297
0
SEQEND
0
POLYLINE
8
0
66
1
10
0.0
20
0.0
30
0.0
0
VERTEX
8
0
10
2645.000000000001
20
21363.169302517297
0
VERTEX
8
0
10
2684.250000000001
20
21373.68630832022
0
VERTEX
8
0
10
2712.9829941970793
20
21402.419302517297
0
VERTEX
8
0
10
2723.500000000001
20
21441.669302517297
0
VERTEX
8
0
10
2720.500000000001
20
21441.669302517297
0
VERTEX
8
0
10
2710.384917985726
20
21403.919302517297
0
VERTEX
8
0
10
2682.750000000001
20
21376.284384531573
0
VERTEX
8
0
10
2645.000000000001
20
21366.169302517297
0
VERTEX
8
0
10
2645.000000000001
20
21363.169302517297
0
SEQEND
0
POLYLINE
8
0
66
1
10
0.0
20
0.0
30
0.0
0
VERTEX
8
0
10
2723.500000000001
20
21441.669302517297
0
VERTEX
8
0
10
2723.500000000001
20
21552.687065655748
0
VERTEX
8
0
10
2720.500000000001
20
21552.687065655748
0
VERTEX
8
0
10
2720.500000000001
20
21441.669302517297
0
VERTEX
8
0
10
2723.500000000001
20
21441.669302517297
0
SEQEND
0
POLYLINE
8
0
66
1
10
0.0
20
0.0
30
0.0
0
VERTEX
8
0
10
2726.500000000001
20
21441.669302517297
0
VERTEX
8
0
10
2726.500000000001
20
21552.687065655748
0
VERTEX
8
0
10
2729.500000000001
20
21552.687065655748
0
VERTEX
8
0
10
2729.500000000001
20
21441.669302517297
0
VERTEX
8
0
10
2726.500000000001
20
21441.669302517297
0
SEQEND
0
POLYLINE
8
0
66
1
10
0.0
20
0.0
30
0.0
0
VERTEX
8
0
10
2645.500000000001
20
21552.687065655748
0
VERTEX
8
0
10
2645.500000000001
20
21477.687065655748
0
VERTEX
8
0
10
2720.500000000001
20
21477.687065655748
0
VERTEX
8
0
10
2720.500000000001
20
21552.687065655748
0
VERTEX
8
0
10
2645.500000000001
20
21552.687065655748
0
SEQEND
0
POLYLINE
8
0
66
1
10
0.0
20
0.0
30
0.0
0
VERTEX
8
0
10
2720.500000000001
20
21477.687065655748
0
VERTEX
8
0
10
2710.4519052838336
20
21515.187065655748
0
VERTEX
8
0
10
2683.000000000001
20
21542.63897093958
0
VERTEX
8
0
10
2645.500000000001
20
21552.687065655748
0
VERTEX
8
0
10
2645.500000000001
20
21515.187065655748
0
VERTEX
8
0
10
2664.250000000001
20
21510.163018297662
0
VERTEX
8
0
10
2677.9759526419175
20
21496.437065655748
0
VERTEX
8
0
10
2683.000000000001
20
21477.687065655748
0
VERTEX
8
0
10
2720.500000000001
20
21477.687065655748
0
SEQEND
0
POLYLINE
8
0
66
1
10
0.0
20
0.0
30
0.0
0
VERTEX
8
0
10
2683.000000000001
20
21477.687065655748
0
VERTEX
8
0
10
2677.9759526419175
20
21496.437065655748
0
VERTEX
8
0
10
2664.250000000001
20
21510.163018297662
0
VERTEX
8
0
10
2645.500000000001
20
21515.187065655748
0
VERTEX
8
0
10
2645.500000000001
20
21477.687065655748
0
VERTEX
8
0
10
2645.500000000001
20
21477.687065655748
0
VERTEX
8
0
10
2645.500000000001
20
21477.687065655748
0
VERTEX
8
0
10
2645.500000000001
20
21477.687065655748
0
VERTEX
8
0
10
2683.000000000001
20
21477.687065655748
0
SEQEND
0
POLYLINE
8
0
66
1
10
0.0
20
0.0
30
0.0
0
VERTEX
8
0
10
2729.500000000001
20
21552.687065655748
0
VERTEX
8
0
10
2729.500000000001
20
21477.687065655748
0
VERTEX
8
0
10
2804.500000000001
20
21477.687065655748
0
VERTEX
8
0
10
2804.500000000001
20
21552.687065655748
0
VERTEX
8
0
10
2729.500000000001
20
21552.687065655748
0
SEQEND
0
POLYLINE
8
0
66
1
10
0.0
20
0.0
30
0.0
0
VERTEX
8
0
10
2729.500000000001
20
21477.687065655748
0
VERTEX
8
0
10
2739.548094716168
20
21515.187065655748
0
VERTEX
8
0
10
2767.000000000001
20
21542.63897093958
0
VERTEX
8
0
10
2804.500000000001
20
21552.687065655748
0
VERTEX
8
0
10
2804.500000000001
20
21515.187065655748
0
VERTEX
8
0
10
2785.750000000001
20
21510.163018297662
0
VERTEX
8
0
10
2772.0240473580843
20
21496.437065655748
0
VERTEX
8
0
10
2767.000000000001
20
21477.687065655748
0
VERTEX
8
0
10
2729.500000000001
20
21477.687065655748
0
SEQEND
0
POLYLINE
8
0
66
1
10
0.0
20
0.0
30
0.0
0
VERTEX
8
0
10
2767.000000000001
20
21477.687065655748
0
VERTEX
8
0
10
2772.0240473580843
20
21496.437065655748
0
VERTEX
8
0
10
2785.750000000001
20
21510.163018297662
0
VERTEX
8
0
10
2804.500000000001
20
21515.187065655748
0
VERTEX
8
0
10
2804.500000000001
20
21477.687065655748
0
VERTEX
8
0
10
2804.500000000001
20
21477.687065655748
0
VERTEX
8
0
10
2804.500000000001
20
21477.687065655748
0
VERTEX
8
0
10
2804.500000000001
20
21477.687065655748
0
VERTEX
8
0
10
2767.000000000001
20
21477.687065655748
0
SEQEND
0
POLYLINE
8
0
66
1
10
0.0
20
0.0
30
0.0
0
VERTEX
8
0
10
376.0000000000009
20
21552.687065655748
0
VERTEX
8
0
10
376.0000000000009
20
21627.687065655748
0
VERTEX
8
0
10
301.0000000000009
20
21627.687065655748
0
VERTEX
8
0
10
301.0000000000009
20
21552.687065655748
0
VERTEX
8
0
10
376.0000000000009
20
21552.687065655748
0
SEQEND
0
POLYLINE
8
0
66
1
10
0.0
20
0.0
30
0.0
0
VERTEX
8
0
10
301.0000000000009
20
21627.687065655748
0
VERTEX
8
0
10
311.048094716168
20
21590.187065655748
0
VERTEX
8
0
10
338.50000000000085
20
21562.735160371914
0
VERTEX
8
0
10
376.0000000000009
20
21552.687065655748
0
VERTEX
8
0
10
376.0000000000009
20
21590.187065655748
0
VERTEX
8
0
10
357.2500000000009
20
21595.211113013833
0
VERTEX
8
0
10
343.52404735808443
20
21608.937065655748
0
VERTEX
8
0
10
338.5000000000009
20
21627.687065655748
0
VERTEX
8
0
10
301.0000000000009
20
21627.687065655748
0
SEQEND
0
POLYLINE
8
0
66
1
10
0.0
20
0.0
30
0.0
0
VERTEX
8
0
10
338.5000000000009
20
21627.687065655748
0
VERTEX
8
0
10
343.52404735808443
20
21608.937065655748
0
VERTEX
8
0
10
357.2500000000009
20
21595.211113013833
0
VERTEX
8
0
10
376.0000000000009
20
21590.187065655748
0
VERTEX
8
0
10
376.0000000000009
20
21627.687065655748
0
VERTEX
8
0
10
376.0000000000009
20
21627.687065655748
0
VERTEX
8
0
10
376.0000000000009
20
21627.687065655748
0
VERTEX
8
0
10
376.0000000000009
20
21627.687065655748
0
VERTEX
8
0
10
338.5000000000009
20
21627.687065655748
0
SEQEND
0
POLYLINE
8
0
66
1
10
0.0
20
0.0
30
0.0
0
VERTEX
8
0
10
5149.000000000001
20
21552.687065655748
0
VERTEX
8
0
10
5149.000000000001
20
21627.687065655748
0
VERTEX
8
0
10
5074.000000000001
20
21627.687065655748
0
VERTEX
8
0
10
5074.000000000001
20
21552.687065655748
0
VERTEX
8
0
10
5149.000000000001
20
21552.687065655748
0
SEQEND
0
POLYLINE
8
0
66
1
10
0.0
20
0.0
30
0.0
0
VERTEX
8
0
10
5149.000000000001
20
21627.687065655748
0
VERTEX
8
0
10
5138.951905283834
20
21590.187065655748
0
VERTEX
8
0
10
5111.500000000001
20
21562.735160371914
0
VERTEX
8
0
10
5074.000000000001
20
21552.687065655748
0
VERTEX
8
0
10
5074.000000000001
20
21590.187065655748
0
VERTEX
8
0
10
5092.750000000001
20
21595.211113013833
0
VERTEX
8
0
10
5106.4759526419175
20
21608.937065655748
0
VERTEX
8
0
10
5111.500000000001
20
21627.687065655748
0
VERTEX
8
0
10
5149.000000000001
20
21627.687065655748
0
SEQEND
0
POLYLINE
8
0
66
1
10
0.0
20
0.0
30
0.0
0
VERTEX
8
0
10
5111.500000000001
20
21627.687065655748
0
VERTEX
8
0
10
5106.4759526419175
20
21608.937065655748
0
VERTEX
8
0
10
5092.750000000001
20
21595.211113013833
0
VERTEX
8
0
10
5074.000000000001
20
21590.187065655748
0
VERTEX
8
0
10
5074.000000000001
20
21627.687065655748
0
VERTEX
8
0
10
5074.000000000001
20
21627.687065655748
0
VERTEX
8
0
10
5074.000000000001
20
21627.687065655748
0
VERTEX
8
0
10
5074.000000000001
20
21627.687065655748
0
VERTEX
8
0
10
5111.500000000001
20
21627.687065655748
0
SEQEND
0
POLYLINE
8
0
66
1
10
0.0
20
0.0
30
0.0
0
VERTEX
8
0
10
2723.500000000001
20
21552.687065655748
0
VERTEX
8
0
10
2723.5000000000014
20
27652.687065655748
0
VERTEX
8
0
10
301.00000000000136
20
27652.687065655748
0
VERTEX
8
0
10
301.0000000000009
20
21552.687065655748
0
VERTEX
8
0
10
2723.500000000001
20
21552.687065655748
0
SEQEND
0
POLYLINE
8
0
66
1
10
0.0
20
0.0
30
0.0
0
VERTEX
8
0
10
2726.500000000001
20
21552.687065655748
0
VERTEX
8
0
10
2726.5000000000014
20
27652.687065655748
0
VERTEX
8
0
10
5149.000000000002
20
27652.687065655748
0
VERTEX
8
0
10
5149.000000000001
20
21552.687065655748
0
VERTEX
8
0
10
2726.500000000001
20
21552.687065655748
0
SEQEND
0
POLYLINE
8
0
66
1
10
0.0
20
0.0
30
0.0
0
VERTEX
8
0
10
2720.5000000000014
20
27652.687065655748
0
VERTEX
8
0
10
2720.5000000000014
20
27727.687065655748
0
VERTEX
8
0
10
2645.5000000000014
20
27727.687065655748
0
VERTEX
8
0
10
2645.5000000000014
20
27652.687065655748
0
VERTEX
8
0
10
2720.5000000000014
20
27652.687065655748
0
SEQEND
0
POLYLINE
8
0
66
1
10
0.0
20
0.0
30
0.0
0
VERTEX
8
0
10
2720.5000000000014
20
27727.687065655748
0
VERTEX
8
0
10
2710.451905283834
20
27690.187065655748
0
VERTEX
8
0
10
2683.0000000000014
20
27662.735160371914
0
VERTEX
8
0
10
2645.5000000000014
20
27652.687065655748
0
VERTEX
8
0
10
2645.5000000000014
20
27690.187065655748
0
VERTEX
8
0
10
2664.2500000000014
20
27695.211113013833
0
VERTEX
8
0
10
2677.975952641918
20
27708.937065655748
0
VERTEX
8
0
10
2683.0000000000014
20
27727.687065655748
0
VERTEX
8
0
10
2720.5000000000014
20
27727.687065655748
0
SEQEND
0
POLYLINE
8
0
66
1
10
0.0
20
0.0
30
0.0
0
VERTEX
8
0
10
2683.0000000000014
20
27727.687065655748
0
VERTEX
8
0
10
2677.975952641918
20
27708.937065655748
0
VERTEX
8
0
10
2664.2500000000014
20
27695.211113013833
0
VERTEX
8
0
10
2645.5000000000014
20
27690.187065655748
0
VERTEX
8
0
10
2645.5000000000014
20
27727.687065655748
0
VERTEX
8
0
10
2645.5000000000014
20
27727.687065655748
0
VERTEX
8
0
10
2645.5000000000014
20
27727.687065655748
0
VERTEX
8
0
10
2645.5000000000014
20
27727.687065655748
0
VERTEX
8
0
10
2683.0000000000014
20
27727.687065655748
0
SEQEND
0
POLYLINE
8
0
66
1
10
0.0
20
0.0
30
0.0
0
VERTEX
8
0
10
2804.5000000000014
20
27652.687065655748
0
VERTEX
8
0
10
2804.5000000000014
20
27727.687065655748
0
VERTEX
8
0
10
2729.5000000000014
20
27727.687065655748
0
VERTEX
8
0
10
2729.5000000000014
20
27652.687065655748
0
VERTEX
8
0
10
2804.5000000000014
20
27652.687065655748
0
SEQEND
0
POLYLINE
8
0
66
1
10
0.0
20
0.0
30
0.0
0
VERTEX
8
0
10
2729.5000000000014
20
27727.687065655748
0
VERTEX
8
0
10
2739.5480947161686
20
27690.187065655748
0
VERTEX
8
0
10
2767.0000000000014
20
27662.735160371914
0
VERTEX
8
0
10
2804.5000000000014
20
27652.687065655748
0
VERTEX
8
0
10
2804.5000000000014
20
27690.187065655748
0
VERTEX
8
0
10
2785.7500000000014
20
27695.211113013833
0
VERTEX
8
0
10
2772.0240473580848
20
27708.937065655748
0
VERTEX
8
0
10
2767.0000000000014
20
27727.687065655748
0
VERTEX
8
0
10
2729.5000000000014
20
27727.687065655748
0
SEQEND
0
POLYLINE
8
0
66
1
10
0.0
20
0.0
30
0.0
0
VERTEX
8
0
10
2767.0000000000014
20
27727.687065655748
0
VERTEX
8
0
10
2772.0240473580848
20
27708.937065655748
0
VERTEX
8
0
10
2785.7500000000014
20
27695.211113013833
0
VERTEX
8
0
10
2804.5000000000014
20
27690.187065655748
0
VERTEX
8
0
10
2804.5000000000014
20
27727.687065655748
0
VERTEX
8
0
10
2804.5000000000014
20
27727.687065655748
0
VERTEX
8
0
10
2804.5000000000014
20
27727.687065655748
0
VERTEX
8
0
10
2804.5000000000014
20
27727.687065655748
0
VERTEX
8
0
10
2767.0000000000014
20
27727.687065655748
0
SEQEND
0
POLYLINE
8
0
66
1
10
0.0
20
0.0
30
0.0
0
VERTEX
8
0
10
301.00000000000136
20
27652.687065655748
0
VERTEX
8
0
10
301.00000000000136
20
27577.687065655748
0
VERTEX
8
0
10
376.00000000000136
20
27577.687065655748
0
VERTEX
8
0
10
376.00000000000136
20
27652.687065655748
0
VERTEX
8
0
10
301.00000000000136
20
27652.687065655748
0
SEQEND
0
POLYLINE
8
0
66
1
10
0.0
20
0.0
30
0.0
0
VERTEX
8
0
10
301.00000000000136
20
27577.687065655748
0
VERTEX
8
0
10
311.04809471616846
20
27615.187065655748
0
VERTEX
8
0
10
338.50000000000136
20
27642.63897093958
0
VERTEX
8
0
10
376.00000000000136
20
27652.687065655748
0
VERTEX
8
0
10
376.00000000000136
20
27615.187065655748
0
VERTEX
8
0
10
357.25000000000136
20
27610.163018297662
0
VERTEX
8
0
10
343.5240473580849
20
27596.437065655748
0
VERTEX
8
0
10
338.50000000000136
20
27577.687065655748
0
VERTEX
8
0
10
301.00000000000136
20
27577.687065655748
0
SEQEND
0
POLYLINE
8
0
66
1
10
0.0
20
0.0
30
0.0
0
VERTEX
8
0
10
338.50000000000136
20
27577.687065655748
0
VERTEX
8
0
10
343.5240473580849
20
27596.437065655748
0
VERTEX
8
0
10
357.25000000000136
20
27610.163018297662
0
VERTEX
8
0
10
376.00000000000136
20
27615.187065655748
0
VERTEX
8
0
10
376.00000000000136
20
27577.687065655748
0
VERTEX
8
0
10
376.00000000000136
20
27577.687065655748
0
VERTEX
8
0
10
376.00000000000136
20
27577.687065655748
0
VERTEX
8
0
10
376.00000000000136
20
27577.687065655748
0
VERTEX
8
0
10
338.50000000000136
20
27577.687065655748
0
SEQEND
0
POLYLINE
8
0
66
1
10
0.0
20
0.0
30
0.0
0
VERTEX
8
0
10
5074.000000000002
20
27652.687065655748
0
VERTEX
8
0
10
5074.000000000002
20
27577.687065655748
0
VERTEX
8
0
10
5149.000000000002
20
27577.687065655748
0
VERTEX
8
0
10
5149.000000000002
20
27652.687065655748
0
VERTEX
8
0
10
5074.000000000002
20
27652.687065655748
0
SEQEND
0
POLYLINE
8
0
66
1
10
0.0
20
0.0
30
0.0
0
VERTEX
8
0
10
5149.000000000002
20
27577.687065655748
0
VERTEX
8
0
10
5138.951905283835
20
27615.187065655748
0
VERTEX
8
0
10
5111.500000000002
20
27642.63897093958
0
VERTEX
8
0
10
5074.000000000002
20
27652.687065655748
0
VERTEX
8
0
10
5074.000000000002
20
27615.187065655748
0
VERTEX
8
0
10
5092.750000000002
20
27610.163018297662
0
VERTEX
8
0
10
5106.475952641918
20
27596.437065655748
0
VERTEX
8
0
10
5111.500000000002
20
27577.687065655748
0
VERTEX
8
0
10
5149.000000000002
20
27577.687065655748
0
SEQEND
0
POLYLINE
8
0
66
1
10
0.0
20
0.0
30
0.0
0
VERTEX
8
0
10
5111.500000000002
20
27577.687065655748
0
VERTEX
8
0
10
5106.475952641918
20
27596.437065655748
0
VERTEX
8
0
10
5092.750000000002
20
27610.163018297662
0
VERTEX
8
0
10
5074.000000000002
20
27615.187065655748
0
VERTEX
8
0
10
5074.000000000002
20
27577.687065655748
0
VERTEX
8
0
10
5074.000000000002
20
27577.687065655748
0
VERTEX
8
0
10
5074.000000000002
20
27577.687065655748
0
VERTEX
8
0
10
5074.000000000002
20
27577.687065655748
0
VERTEX
8
0
10
5111.500000000002
20
27577.687065655748
0
SEQEND
0
POLYLINE
8
0
66
1
10
0.0
20
0.0
30
0.0
0
VERTEX
8
0
10
2723.5000000000014
20
27652.687065655748
0
VERTEX
8
0
10
2723.5000000000014
20
27747.687065655748
0
VERTEX
8
0
10
2720.5000000000014
20
27747.687065655748
0
VERTEX
8
0
10
2720.5000000000014
20
27652.687065655748
0
VERTEX
8
0
10
2723.5000000000014
20
27652.687065655748
0
SEQEND
0
POLYLINE
8
0
66
1
10
0.0
20
0.0
30
0.0
0
VERTEX
8
0
10
2726.5000000000014
20
27652.687065655748
0
VERTEX
8
0
10
2726.5000000000014
20
27747.687065655748
0
VERTEX
8
0
10
2729.5000000000014
20
27747.687065655748
0
VERTEX
8
0
10
2729.5000000000014
20
27652.687065655748
0
VERTEX
8
0
10
2726.5000000000014
20
27652.687065655748
0
SEQEND
0
POLYLINE
8
0
66
1
10
0.0
20
0.0
30
0.0
0
VERTEX
8
0
10
2720.5000000000014
20
27747.687065655748
0
VERTEX
8
0
10
2731.8208533802162
20
27789.937065655748
0
VERTEX
8
0
10
2762.7500000000014
20
27820.866212275534
0
VERTEX
8
0
10
2805.0000000000014
20
27832.187065655748
0
VERTEX
8
0
10
2805.0000000000014
20
27829.187065655748
0
VERTEX
8
0
10
2764.2500000000014
20
27818.26813606418
0
VERTEX
8
0
10
2734.4189295915694
20
27788.437065655748
0
VERTEX
8
0
10
2723.5000000000014
20
27747.687065655748
0
VERTEX
8
0
10
2720.5000000000014
20
27747.687065655748
0
SEQEND
0
POLYLINE
8
0
66
1
10
0.0
20
0.0
30
0.0
0
VERTEX
8
0
10
2726.5000000000014
20
27747.687065655748
0
VERTEX
8
0
10
2737.017005802923
20
27786.937065655748
0
VERTEX
8
0
10
2765.7500000000014
20
27815.670059852826
0
VERTEX
8
0
10
2805.0000000000014
20
27826.187065655748
0
VERTEX
8
0
10
2805.0000000000014
20
27823.187065655748
0
VERTEX
8
0
10
2767.2500000000014
20
27813.071983641472
0
VERTEX
8
0
10
2739.615082014276
20
27785.437065655748
0
VERTEX
8
0
10
2729.5000000000014
20
27747.687065655748
0
VERTEX
8
0
10
2726.5000000000014
20
27747.687065655748
0
SEQEND
0
POLYLINE
8
0
66
1
10
0.0
20
0.0
30
0.0
0
VERTEX
8
0
10
2805.0000000000014
20
27829.187065655748
0
VERTEX
8
0
10
4050.0000000000014
20
27829.187065655748
0
VERTEX
8
0
10
4050.0000000000014
20
27832.187065655748
0
VERTEX
8
0
10
2805.0000000000014
20
27832.187065655748
0
VERTEX
8
0
10
2805.0000000000014
20
27829.187065655748
0
SEQEND
0
POLYLINE
8
0
66
1
10
0.0
20
0.0
30
0.0
0
VERTEX
8
0
10
2805.0000000000014
20
27826.187065655748
0
VERTEX
8
0
10
4050.0000000000014
20
27826.187065655748
0
VERTEX
8
0
10
4050.0000000000014
20
27823.187065655748
0
VERTEX
8
0
10
2805.0000000000014
20
27823.187065655748
0
VERTEX
8
0
10
2805.0000000000014
20
27826.187065655748
0
SEQEND
0
POLYLINE
8
0
66
1
10
0.0
20
0.0
30
0.0
0
VERTEX
8
0
10
4050.0000000000014
20
27823.187065655748
0
VERTEX
8
0
10
4123.1791466197865
20
27865.437065655748
0
VERTEX
8
0
10
4123.1791466197865
20
27949.937065655748
0
VERTEX
8
0
10
4050.0000000000014
20
27992.187065655748
0
VERTEX
8
0
10
4050.0000000000014
20
27989.187065655748
0
VERTEX
8
0
10
4120.581070408433
20
27948.437065655748
0
VERTEX
8
0
10
4120.581070408433
20
27866.937065655748
0
VERTEX
8
0
10
4050.0000000000014
20
27826.187065655748
0
VERTEX
8
0
10
4050.0000000000014
20
27823.187065655748
0
SEQEND
0
POLYLINE
8
0
66
1
10
0.0
20
0.0
30
0.0
0
VERTEX
8
0
10
4050.0000000000014
20
27829.187065655748
0
VERTEX
8
0
10
4117.98299419708
20
27868.437065655748
0
VERTEX
8
0
10
4117.98299419708
20
27946.937065655748
0
VERTEX
8
0
10
4050.0000000000014
20
27986.187065655748
0
VERTEX
8
0
10
4050.0000000000014
20
27983.187065655748
0
VERTEX
8
0
10
4115.384917985726
20
27945.437065655748
0
VERTEX
8
0
10
4115.384917985726
20
27869.937065655748
0
VERTEX
8
0
10
4050.0000000000014
20
27832.187065655748
0
VERTEX
8
0
10
4050.0000000000014
20
27829.187065655748
0
SEQEND
0
POLYLINE
8
0
66
1
10
0.0
20
0.0
30
0.0
0
VERTEX
8
0
10
4050.0000000000014
20
27986.187065655748
0
VERTEX
8
0
10
1400.000000000001
20
27986.187065655748
0
VERTEX
8
0
10
1400.000000000001
20
27983.187065655748
0
VERTEX
8
0
10
4050.0000000000014
20
27983.187065655748
0
VERTEX
8
0
10
4050.0000000000014
20
27986.187065655748
0
SEQEND
0
POLYLINE
8
0
66
1
10
0.0
20
0.0
30
0.0
0
VERTEX
8
0
10
4050.0000000000014
20
27989.187065655748
0
VERTEX
8
0
10
1400.000000000001
20
27989.187065655748
0
VERTEX
8
0
10
1400.000000000001
20
27992.187065655748
0
VERTEX
8
0
10
4050.0000000000014
20
27992.187065655748
0
VERTEX
8
0
10
4050.0000000000014
20
27989.187065655748
0
SEQEND
0
POLYLINE
8
0
66
1
10
0.0
20
0.0
30
0.0
0
VERTEX
8
0
10
1400.000000000001
20
27983.187065655748
0
VERTEX
8
0
10
1326.8208533802158
20
28025.437065655748
0
VERTEX
8
0
10
1326.8208533802158
20
28109.937065655748
0
VERTEX
8
0
10
1400.000000000001
20
28152.187065655748
0
VERTEX
8
0
10
1400.000000000001
20
28149.187065655748
0
VERTEX
8
0
10
1329.4189295915692
20
28108.437065655748
0
VERTEX
8
0
10
1329.4189295915692
20
28026.937065655748
0
VERTEX
8
0
10
1400.000000000001
20
27986.187065655748
0
VERTEX
8
0
10
1400.000000000001
20
27983.187065655748
0
SEQEND
0
POLYLINE
8
0
66
1
10
0.0
20
0.0
30
0.0
0
VERTEX
8
0
10
1400.000000000001
20
27989.187065655748
0
VERTEX
8
0
10
1332.0170058029225
20
28028.437065655748
0
VERTEX
8
0
10
1332.0170058029225
20
28106.937065655748
0
VERTEX
8
0
10
1400.000000000001
20
28146.187065655748
0
VERTEX
8
0
10
1400.000000000001
20
28143.187065655748
0
VERTEX
8
0
10
1334.6150820142757
20
28105.437065655748
0
VERTEX
8
0
10
1334.6150820142757
20
28029.937065655748
0
VERTEX
8
0
10
1400.000000000001
20
27992.187065655748
0
VERTEX
8
0
10
1400.000000000001
20
27989.187065655748
0
SEQEND
0
POLYLINE
8
0
66
1
10
0.0
20
0.0
30
0.0
0
VERTEX
8
0
10
1400.000000000001
20
28149.187065655748
0
VERTEX
8
0
10
2645.000000000001
20
28149.187065655748
0
VERTEX
8
0
10
2645.000000000001
20
28152.187065655748
0
VERTEX
8
0
10
1400.000000000001
20
28152.187065655748
0
VERTEX
8
0
10
1400.000000000001
20
28149.187065655748
0
SEQEND
0
POLYLINE
8
0
66
1
10
0.0
20
0.0
30
0.0
0
VERTEX
8
0
10
1400.000000000001
20
28146.187065655748
0
VERTEX
8
0
10
2645.000000000001
20
28146.187065655748
0
VERTEX
8
0
10
2645.000000000001
20
28143.187065655748
0
VERTEX
8
0
10
1400.000000000001
20
28143.187065655748
0
VERTEX
8
0
10
1400.000000000001
20
28146.187065655748
0
SEQEND
0
POLYLINE
8
0
66
1
10
0.0
20
0.0
30
0.0
0
VERTEX
8
0
10
2645.000000000001
20
28143.187065655748
0
VERTEX
8
0
10
2687.250000000001
20
28154.50791903596
0
VERTEX
8
0
10
2718.179146619786
20
28185.437065655748
0
VERTEX
8
0
10
2729.500000000001
20
28227.687065655748
0
VERTEX
8
0
10
2726.500000000001
20
28227.687065655748
0
VERTEX
8
0
10
2715.581070408433
20
28186.937065655748
0
VERTEX
8
0
10
2685.750000000001
20
28157.105995247315
0
VERTEX
8
0
10
2645.000000000001
20
28146.187065655748
0
VERTEX
8
0
10
2645.000000000001
20
28143.187065655748
0
SEQEND
0
POLYLINE
8
0
66
1
10
0.0
20
0.0
30
0.0
0
VERTEX
8
0
10
2645.000000000001
20
28149.187065655748
0
VERTEX
8
0
10
2684.250000000001
20
28159.70407145867
0
VERTEX
8
0
10
2712.9829941970793
20
28188.437065655748
0
VERTEX
8
0
10
2723.500000000001
20
28227.687065655748
0
VERTEX
8
0
10
2720.500000000001
20
28227.687065655748
0
VERTEX
8
0
10
2710.384917985726
20
28189.937065655748
0
VERTEX
8
0
10
2682.750000000001
20
28162.302147670023
0
VERTEX
8
0
10
2645.000000000001
20
28152.187065655748
0
VERTEX
8
0
10
2645.000000000001
20
28149.187065655748
0
SEQEND
0
POLYLINE
8
0
66
1
10
0.0
20
0.0
30
0.0
0
VERTEX
8
0
10
2723.500000000001
20
28227.687065655748
0
VERTEX
8
0
10
2723.500000000001
20
28338.704828794198
0
VERTEX
8
0
10
2720.500000000001
20
28338.704828794198
0
VERTEX
8
0
10
2720.500000000001
20
28227.687065655748
0
VERTEX
8
0
10
2723.500000000001
20
28227.687065655748
0
SEQEND
0
POLYLINE
8
0
66
1
10
0.0
20
0.0
30
0.0
0
VERTEX
8
0
10
2726.500000000001
20
28227.687065655748
0
VERTEX
8
0
10
2726.500000000001
20
28338.704828794198
0
VERTEX
8
0
10
2729.500000000001
20
28338.704828794198
0
VERTEX
8
0
10
2729.500000000001
20
28227.687065655748
0
VERTEX
8
0
10
2726.500000000001
20
28227.687065655748
0
SEQEND
0
POLYLINE
8
0
66
1
10
0.0
20
0.0
30
0.0
0
VERTEX
8
0
10
2645.500000000001
20
28338.704828794198
0
VERTEX
8
0
10
2645.500000000001
20
28263.704828794198
0
VERTEX
8
0
10
2720.500000000001
20
28263.704828794198
0
VERTEX
8
0
10
2720.500000000001
20
28338.704828794198
0
VERTEX
8
0
10
2645.500000000001
20
28338.704828794198
0
SEQEND
0
POLYLINE
8
0
66
1
10
0.0
20
0.0
30
0.0
0
VERTEX
8
0
10
2720.500000000001
20
28263.704828794198
0
VERTEX
8
0
10
2710.4519052838336
20
28301.204828794198
0
VERTEX
8
0
10
2683.000000000001
20
28328.65673407803
0
VERTEX
8
0
10
2645.500000000001
20
28338.704828794198
0
VERTEX
8
0
10
2645.500000000001
20
28301.204828794198
0
VERTEX
8
0
10
2664.250000000001
20
28296.180781436113
0
VERTEX
8
0
10
2677.9759526419175
20
28282.454828794198
0
VERTEX
8
0
10
2683.000000000001
20
28263.704828794198
0
VERTEX
8
0
10
2720.500000000001
20
28263.704828794198
0
SEQEND
0
POLYLINE
8
0
66
1
10
0.0
20
0.0
30
0.0
0
VERTEX
8
0
10
2683.000000000001
20
28263.704828794198
0
VERTEX
8
0
10
2677.9759526419175
20
28282.454828794198
0
VERTEX
8
0
10
2664.250000000001
20
28296.180781436113
0
VERTEX
8
0
10
2645.500000000001
20
28301.204828794198
0
VERTEX
8
0
10
2645.500000000001
20
28263.704828794198
0
VERTEX
8
0
10
2645.500000000001
20
28263.704828794198
0
VERTEX
8
0
10
2645.500000000001
20
28263.704828794198
0
VERTEX
8
0
10
2645.500000000001
20
28263.704828794198
0
VERTEX
8
0
10
2683.000000000001
20
28263.704828794198
0
SEQEND
0
POLYLINE
8
0
66
1
10
0.0
20
0.0
30
0.0
0
VERTEX
8
0
10
2729.500000000001
20
28338.704828794198
0
VERTEX
8
0
10
2729.500000000001
20
28263.704828794198
0
VERTEX
8
0
10
2804.500000000001
20
28263.704828794198
0
VERTEX
8
0
10
2804.500000000001
20
28338.704828794198
0
VERTEX
8
0
10
2729.500000000001
20
28338.704828794198
0
SEQEND
0
POLYLINE
8
0
66
1
10
0.0
20
0.0
30
0.0
0
VERTEX
8
0
10
2729.500000000001
20
28263.704828794198
0
VERTEX
8
0
10
2739.548094716168
20
28301.204828794198
0
VERTEX
8
0
10
2767.000000000001
20
28328.65673407803
0
VERTEX
8
0
10
2804.500000000001
20
28338.704828794198
0
VERTEX
8
0
10
2804.500000000001
20
28301.204828794198
0
VERTEX
8
0
10
2785.750000000001
20
28296.180781436113
0
VERTEX
8
0
10
2772.0240473580843
20
28282.454828794198
0
VERTEX
8
0
10
2767.000000000001
20
28263.704828794198
0
VERTEX
8
0
10
2729.500000000001
20
28263.704828794198
0
SEQEND
0
POLYLINE
8
0
66
1
10
0.0
20
0.0
30
0.0
0
VERTEX
8
0
10
2767.000000000001
20
28263.704828794198
0
VERTEX
8
0
10
2772.0240473580843
20
28282.454828794198
0
VERTEX
8
0
10
2785.750000000001
20
28296.180781436113
0
VERTEX
8
0
10
2804.500000000001
20
28301.204828794198
0
VERTEX
8
0
10
2804.500000000001
20
28263.704828794198
0
VERTEX
8
0
10
2804.500000000001
20
28263.704828794198
0
VERTEX
8
0
10
2804.500000000001
20
28263.704828794198
0
VERTEX
8
0
10
2804.500000000001
20
28263.704828794198
0
VERTEX
8
0
10
2767.000000000001
20
28263.704828794198
0
SEQEND
0
POLYLINE
8
0
66
1
10
0.0
20
0.0
30
0.0
0
VERTEX
8
0
10
376.0000000000009
20
28338.704828794198
0
VERTEX
8
0
10
376.0000000000009
20
28413.704828794198
0
VERTEX
8
0
10
301.0000000000009
20
28413.704828794198
0
VERTEX
8
0
10
301.0000000000009
20
28338.704828794198
0
VERTEX
8
0
10
376.0000000000009
20
28338.704828794198
0
SEQEND
0
POLYLINE
8
0
66
1
10
0.0
20
0.0
30
0.0
0
VERTEX
8
0
10
301.0000000000009
20
28413.704828794198
0
VERTEX
8
0
10
311.048094716168
20
28376.204828794198
0
VERTEX
8
0
10
338.50000000000085
20
28348.752923510365
0
VERTEX
8
0
10
376.0000000000009
20
28338.704828794198
0
VERTEX
8
0
10
376.0000000000009
20
28376.204828794198
0
VERTEX
8
0
10
357.2500000000009
20
28381.228876152283
0
VERTEX
8
0
10
343.52404735808443
20
28394.954828794198
0
VERTEX
8
0
10
338.5000000000009
20
28413.704828794198
0
VERTEX
8
0
10
301.0000000000009
20
28413.704828794198
0
SEQEND
0
POLYLINE
8
0
66
1
10
0.0
20
0.0
30
0.0
0
VERTEX
8
0
10
338.5000000000009
20
28413.704828794198
0
VERTEX
8
0
10
343.52404735808443
20
28394.954828794198
0
VERTEX
8
0
10
357.2500000000009
20
28381.228876152283
0
VERTEX
8
0
10
376.0000000000009
20
28376.204828794198
0
VERTEX
8
0
10
376.0000000000009
20
28413.704828794198
0
VERTEX
8
0
10
376.0000000000009
20
28413.704828794198
0
VERTEX
8
0
10
376.0000000000009
20
28413.704828794198
0
VERTEX
8
0
10
376.0000000000009
20
28413.704828794198
0
VERTEX
8
0
10
338.5000000000009
20
28413.704828794198
0
SEQEND
0
POLYLINE
8
0
66
1
10
0.0
20
0.0
30
0.0
0
VERTEX
8
0
10
5149.000000000001
20
28338.704828794198
0
VERTEX
8
0
10
5149.000000000001
20
28413.704828794198
0
VERTEX
8
0
10
5074.000000000001
20
28413.704828794198
0
VERTEX
8
0
10
5074.000000000001
20
28338.704828794198
0
VERTEX
8
0
10
5149.000000000001
20
28338.704828794198
0
SEQEND
0
POLYLINE
8
0
66
1
10
0.0
20
0.0
30
0.0
0
VERTEX
8
0
10
5149.000000000001
20
28413.704828794198
0
VERTEX
8
0
10
5138.951905283834
20
28376.204828794198
0
VERTEX
8
0
10
5111.500000000001
20
28348.752923510365
0
VERTEX
8
0
10
5074.000000000001
20
28338.704828794198
0
VERTEX
8
0
10
5074.000000000001
20
28376.204828794198
0
VERTEX
8
0
10
5092.750000000001
20
28381.228876152283
0
VERTEX
8
0
10
5106.4759526419175
20
28394.954828794198
0
VERTEX
8
0
10
5111.500000000001
20
28413.704828794198
0
VERTEX
8
0
10
5149.000000000001
20
28413.704828794198
0
SEQEND
0
POLYLINE
8
0
66
1
10
0.0
20
0.0
30
0.0
0
VERTEX
8
0
10
5111.500000000001
20
28413.704828794198
0
VERTEX
8
0
10
5106.4759526419175
20
28394.954828794198
0
VERTEX
8
0
10
5092.750000000001
20
28381.228876152283
0
VERTEX
8
0
10
5074.000000000001
20
28376.204828794198
0
VERTEX
8
0
10
5074.000000000001
20
28413.704828794198
0
VERTEX
8
0
10
5074.000000000001
20
28413.704828794198
0
VERTEX
8
0
10
5074.000000000001
20
28413.704828794198
0
VERTEX
8
0
10
5074.000000000001
20
28413.704828794198
0
VERTEX
8
0
10
5111.500000000001
20
28413.704828794198
0
SEQEND
0
POLYLINE
8
0
66
1
10
0.0
20
0.0
30
0.0
0
VERTEX
8
0
10
2723.500000000001
20
28338.704828794198
0
VERTEX
8
0
10
2723.5000000000014
20
34438.704828794194
0
VERTEX
8
0
10
301.00000000000136
20
34438.704828794194
0
VERTEX
8
0
10
301.0000000000009
20
28338.704828794198
0
VERTEX
8
0
10
2723.500000000001
20
28338.704828794198
0
SEQEND
0
POLYLINE
8
0
66
1
10
0.0
20
0.0
30
0.0
0
VERTEX
8
0
10
2726.500000000001
20
28338.704828794198
0
VERTEX
8
0
10
2726.5000000000014
20
34438.704828794194
0
VERTEX
8
0
10
5149.000000000002
20
34438.704828794194
0
VERTEX
8
0
10
5149.000000000001
20
28338.704828794198
0
VERTEX
8
0
10
2726.500000000001
20
28338.704828794198
0
SEQEND
0
POLYLINE
8
0
66
1
10
0.0
20
0.0
30
0.0
0
VERTEX
8
0
10
2720.5000000000014
20
34438.704828794194
0
VERTEX
8
0
10
2720.5000000000014
20
34513.704828794194
0
VERTEX
8
0
10
2645.5000000000014
20
34513.704828794194
0
VERTEX
8
0
10
2645.5000000000014
20
34438.704828794194
0
VERTEX
8
0
10
2720.5000000000014
20
34438.704828794194
0
SEQEND
0
POLYLINE
8
0
66
1
10
0.0
20
0.0
30
0.0
0
VERTEX
8
0
10
2720.5000000000014
20
34513.704828794194
0
VERTEX
8
0
10
2710.451905283834
20
34476.204828794194
0
VERTEX
8
0
10
2683.0000000000014
20
34448.752923510365
0
VERTEX
8
0
10
2645.5000000000014
20
34438.704828794194
0
VERTEX
8
0
10
2645.5000000000014
20
34476.204828794194
0
VERTEX
8
0
10
2664.2500000000014
20
34481.22887615228
0
VERTEX
8
0
10
2677.975952641918
20
34494.954828794194
0
VERTEX
8
0
10
2683.0000000000014
20
34513.704828794194
0
VERTEX
8
0
10
2720.5000000000014
20
34513.704828794194
0
SEQEND
0
POLYLINE
8
0
66
1
10
0.0
20
0.0
30
0.0
0
VERTEX
8
0
10
2683.0000000000014
20
34513.704828794194
0
VERTEX
8
0
10
2677.975952641918
20
34494.954828794194
0
VERTEX
8
0
10
2664.2500000000014
20
34481.22887615228
0
VERTEX
8
0
10
2645.5000000000014
20
34476.204828794194
0
VERTEX
8
0
10
2645.5000000000014
20
34513.704828794194
0
VERTEX
8
0
10
2645.5000000000014
20
34513.704828794194
0
VERTEX
8
0
10
2645.5000000000014
20
34513.704828794194
0
VERTEX
8
0
10
2645.5000000000014
20
34513.704828794194
0
VERTEX
8
0
10
2683.0000000000014
20
34513.704828794194
0
SEQEND
0
POLYLINE
8
0
66
1
10
0.0
20
0.0
30
0.0
0
VERTEX
8
0
10
2804.5000000000014
20
34438.704828794194
0
VERTEX
8
0
10
2804.5000000000014
20
34513.704828794194
0
VERTEX
8
0
10
2729.5000000000014
20
34513.704828794194
0
VERTEX
8
0
10
2729.5000000000014
20
34438.704828794194
0
VERTEX
8
0
10
2804.5000000000014
20
34438.704828794194
0
SEQEND
0
POLYLINE
8
0
66
1
10
0.0
20
0.0
30
0.0
0
VERTEX
8
0
10
2729.5000000000014
20
34513.704828794194
0
VERTEX
8
0
10
2739.5480947161686
20
34476.204828794194
0
VERTEX
8
0
10
2767.0000000000014
20
34448.752923510365
0
VERTEX
8
0
10
2804.5000000000014
20
34438.704828794194
0
VERTEX
8
0
10
2804.5000000000014
20
34476.204828794194
0
VERTEX
8
0
10
2785.7500000000014
20
34481.22887615228
0
VERTEX
8
0
10
2772.0240473580848
20
34494.954828794194
0
VERTEX
8
0
10
2767.0000000000014
20
34513.704828794194
0
VERTEX
8
0
10
2729.5000000000014
20
34513.704828794194
0
SEQEND
0
POLYLINE
8
0
66
1
10
0.0
20
0.0
30
0.0
0
VERTEX
8
0
10
2767.0000000000014
20
34513.704828794194
0
VERTEX
8
0
10
2772.0240473580848
20
34494.954828794194
0
VERTEX
8
0
10
2785.7500000000014
20
34481.22887615228
0
VERTEX
8
0
10
2804.5000000000014
20
34476.204828794194
0
VERTEX
8
0
10
2804.5000000000014
20
34513.704828794194
0
VERTEX
8
0
10
2804.5000000000014
20
34513.704828794194
0
VERTEX
8
0
10
2804.5000000000014
20
34513.704828794194
0
VERTEX
8
0
10
2804.5000000000014
20
34513.704828794194
0
VERTEX
8
0
10
2767.0000000000014
20
34513.704828794194
0
SEQEND
0
POLYLINE
8
0
66
1
10
0.0
20
0.0
30
0.0
0
VERTEX
8
0
10
301.00000000000136
20
34438.704828794194
0
VERTEX
8
0
10
301.00000000000136
20
34363.704828794194
0
VERTEX
8
0
10
376.00000000000136
20
34363.704828794194
0
VERTEX
8
0
10
376.00000000000136
20
34438.704828794194
0
VERTEX
8
0
10
301.00000000000136
20
34438.704828794194
0
SEQEND
0
POLYLINE
8
0
66
1
10
0.0
20
0.0
30
0.0
0
VERTEX
8
0
10
301.00000000000136
20
34363.704828794194
0
VERTEX
8
0
10
311.04809471616846
20
34401.204828794194
0
VERTEX
8
0
10
338.50000000000136
20
34428.656734078024
0
VERTEX
8
0
10
376.00000000000136
20
34438.704828794194
0
VERTEX
8
0
10
376.00000000000136
20
34401.204828794194
0
VERTEX
8
0
10
357.25000000000136
20
34396.18078143611
0
VERTEX
8
0
10
343.5240473580849
20
34382.454828794194
0
VERTEX
8
0
10
338.50000000000136
20
34363.704828794194
0
VERTEX
8
0
10
301.00000000000136
20
34363.704828794194
0
SEQEND
0
POLYLINE
8
0
66
1
10
0.0
20
0.0
30
0.0
0
VERTEX
8
0
10
338.50000000000136
20
34363.704828794194
0
VERTEX
8
0
10
343.5240473580849
20
34382.454828794194
0
VERTEX
8
0
10
357.25000000000136
20
34396.18078143611
0
VERTEX
8
0
10
376.00000000000136
20
34401.204828794194
0
VERTEX
8
0
10
376.00000000000136
20
34363.704828794194
0
VERTEX
8
0
10
376.00000000000136
20
34363.704828794194
0
VERTEX
8
0
10
376.00000000000136
20
34363.704828794194
0
VERTEX
8
0
10
376.00000000000136
20
34363.704828794194
0
VERTEX
8
0
10
338.50000000000136
20
34363.704828794194
0
SEQEND
0
POLYLINE
8
0
66
1
10
0.0
20
0.0
30
0.0
0
VERTEX
8
0
10
5074.000000000002
20
34438.704828794194
0
VERTEX
8
0
10
5074.000000000002
20
34363.704828794194
0
VERTEX
8
0
10
5149.000000000002
20
34363.704828794194
0
VERTEX
8
0
10
5149.000000000002
20
34438.704828794194
0
VERTEX
8
0
10
5074.000000000002
20
34438.704828794194
0
SEQEND
0
POLYLINE
8
0
66
1
10
0.0
20
0.0
30
0.0
0
VERTEX
8
0
10
5149.000000000002
20
34363.704828794194
0
VERTEX
8
0
10
5138.951905283835
20
34401.204828794194
0
VERTEX
8
0
10
5111.500000000002
20
34428.656734078024
0
VERTEX
8
0
10
5074.000000000002
20
34438.704828794194
0
VERTEX
8
0
10
5074.000000000002
20
34401.204828794194
0
VERTEX
8
0
10
5092.750000000002
20
34396.18078143611
0
VERTEX
8
0
10
5106.475952641918
20
34382.454828794194
0
VERTEX
8
0
10
5111.500000000002
20
34363.704828794194
0
VERTEX
8
0
10
5149.000000000002
20
34363.704828794194
0
SEQEND
0
POLYLINE
8
0
66
1
10
0.0
20
0.0
30
0.0
0
VERTEX
8
0
10
5111.500000000002
20
34363.704828794194
0
VERTEX
8
0
10
5106.475952641918
20
34382.454828794194
0
VERTEX
8
0
10
5092.750000000002
20
34396.18078143611
0
VERTEX
8
0
10
5074.000000000002
20
34401.204828794194
0
VERTEX
8
0
10
5074.000000000002
20
34363.704828794194
0
VERTEX
8
0
10
5074.000000000002
20
34363.704828794194
0
VERTEX
8
0
10
5074.000000000002
20
34363.704828794194
0
VERTEX
8
0
10
5074.000000000002
20
34363.704828794194
0
VERTEX
8
0
10
5111.500000000002
20
34363.704828794194
0
SEQEND
0
POLYLINE
8
0
66
1
10
0.0
20
0.0
30
0.0
0
VERTEX
8
0
10
2723.5000000000014
20
34438.704828794194
0
VERTEX
8
0
10
2723.5000000000014
20
34533.704828794194
0
VERTEX
8
0
10
2720.5000000000014
20
34533.704828794194
0
VERTEX
8
0
10
2720.5000000000014
20
34438.704828794194
0
VERTEX
8
0
10
2723.5000000000014
20
34438.704828794194
0
SEQEND
0
POLYLINE
8
0
66
1
10
0.0
20
0.0
30
0.0
0
VERTEX
8
0
10
2726.5000000000014
20
34438.704828794194
0
VERTEX
8
0
10
2726.5000000000014
20
34533.704828794194
0
VERTEX
8
0
10
2729.5000000000014
20
34533.704828794194
0
VERTEX
8
0
10
2729.5000000000014
20
34438.704828794194
0
VERTEX
8
0
10
2726.5000000000014
20
34438.704828794194
0
SEQEND
0
POLYLINE
8
0
66
1
10
0.0
20
0.0
30
0.0
0
VERTEX
8
0
10
2720.5000000000014
20
34533.704828794194
0
VERTEX
8
0
10
2731.8208533802162
20
34575.954828794194
0
VERTEX
8
0
10
2762.7500000000014
20
34606.88397541398
0
VERTEX
8
0
10
2805.0000000000014
20
34618.204828794194
0
VERTEX
8
0
10
2805.0000000000014
20
34615.204828794194
0
VERTEX
8
0
10
2764.2500000000014
20
34604.28589920262
0
VERTEX
8
0
10
2734.4189295915694
20
34574.454828794194
0
VERTEX
8
0
10
2723.5000000000014
20
34533.704828794194
0
VERTEX
8
0
10
2720.5000000000014
20
34533.704828794194
0
SEQEND
0
POLYLINE
8
0
66
1
10
0.0
20
0.0
30
0.0
0
VERTEX
8
0
10
2726.5000000000014
20
34533.704828794194
0
VERTEX
8
0
10
2737.017005802923
20
34572.954828794194
0
VERTEX
8
0
10
2765.7500000000014
20
34601.687822991276
0
VERTEX
8
0
10
2805.0000000000014
20
34612.204828794194
0
VERTEX
8
0
10
2805.0000000000014
20
34609.204828794194
0
VERTEX
8
0
10
2767.2500000000014
20
34599.08974677992
0
VERTEX
8
0
10
2739.615082014276
20
34571.454828794194
0
VERTEX
8
0
10
2729.5000000000014
20
34533.704828794194
0
VERTEX
8
0
10
2726.5000000000014
20
34533.704828794194
0
SEQEND
0
POLYLINE
8
0
66
1
10
0.0
20
0.0
30
0.0
0
VERTEX
8
0
10
2805.0000000000014
20
34615.204828794194
0
VERTEX
8
0
10
4050.0000000000014
20
34615.204828794194
0
VERTEX
8
0
10
4050.0000000000014
20
34618.204828794194
0
VERTEX
8
0
10
2805.0000000000014
20
34618.204828794194
0
VERTEX
8
0
10
2805.0000000000014
20
34615.204828794194
0
SEQEND
0
POLYLINE
8
0
66
1
10
0.0
20
0.0
30
0.0
0
VERTEX
8
0
10
2805.0000000000014
20
34612.204828794194
0
VERTEX
8
0
10
4050.0000000000014
20
34612.204828794194
0
VERTEX
8
0
10
4050.0000000000014
20
34609.204828794194
0
VERTEX
8
0
10
2805.0000000000014
20
34609.204828794194
0
VERTEX
8
0
10
2805.0000000000014
20
34612.204828794194
0
SEQEND
0
POLYLINE
8
0
66
1
10
0.0
20
0.0
30
0.0
0
VERTEX
8
0
10
4050.0000000000014
20
34609.204828794194
0
VERTEX
8
0
10
4123.1791466197865
20
34651.454828794194
0
VERTEX
8
0
10
4123.1791466197865
20
34735.954828794194
0
VERTEX
8
0
10
4050.0000000000014
20
34778.204828794194
0
VERTEX
8
0
10
4050.0000000000014
20
34775.204828794194
0
VERTEX
8
0
10
4120.581070408433
20
34734.454828794194
0
VERTEX
8
0
10
4120.581070408433
20
34652.954828794194
0
VERTEX
8
0
10
4050.0000000000014
20
34612.204828794194
0
VERTEX
8
0
10
4050.0000000000014
20
34609.204828794194
0
SEQEND
0
POLYLINE
8
0
66
1
10
0.0
20
0.0
30
0.0
0
VERTEX
8
0
10
4050.0000000000014
20
34615.204828794194
0
VERTEX
8
0
10
4117.98299419708
20
34654.454828794194
0
VERTEX
8
0
10
4117.98299419708
20
34732.954828794194
0
VERTEX
8
0
10
4050.0000000000014
20
34772.204828794194
0
VERTEX
8
0
10
4050.0000000000014
20
34769.204828794194
0
VERTEX
8
0
10
4115.384917985726
20
34731.454828794194
0
VERTEX
8
0
10
4115.384917985726
20
34655.954828794194
0
VERTEX
8
0
10
4050.0000000000014
20
34618.204828794194
0
VERTEX
8
0
10
4050.0000000000014
20
34615.204828794194
0
SEQEND
0
POLYLINE
8
0
66
1
10
0.0
20
0.0
30
0.0
0
VERTEX
8
0
10
4050.0000000000014
20
34772.204828794194
0
VERTEX
8
0
10
1400.000000000001
20
34772.204828794194
0
VERTEX
8
0
10
1400.000000000001
20
34769.204828794194
0
VERTEX
8
0
10
4050.0000000000014
20
34769.204828794194
0
VERTEX
8
0
10
4050.0000000000014
20
34772.204828794194
0
SEQEND
0
POLYLINE
8
0
66
1
10
0.0
20
0.0
30
0.0
0
VERTEX
8
0
10
4050.0000000000014
20
34775.204828794194
0
VERTEX
8
0
10
1400.000000000001
20
34775.204828794194
0
VERTEX
8
0
10
1400.000000000001
20
34778.204828794194
0
VERTEX
8
0
10
4050.0000000000014
20
34778.204828794194
0
VERTEX
8
0
10
4050.0000000000014
20
34775.204828794194
0
SEQEND
0
POLYLINE
8
0
66
1
10
0.0
20
0.0
30
0.0
0
VERTEX
8
0
10
1400.000000000001
20
34769.204828794194
0
VERTEX
8
0
10
1326.8208533802158
20
34811.454828794194
0
VERTEX
8
0
10
1326.8208533802158
20
34895.954828794194
0
VERTEX
8
0
10
1400.000000000001
20
34938.204828794194
0
VERTEX
8
0
10
1400.000000000001
20
34935.204828794194
0
VERTEX
8
0
10
1329.4189295915692
20
34894.454828794194
0
VERTEX
8
0
10
1329.4189295915692
20
34812.954828794194
0
VERTEX
8
0
10
1400.000000000001
20
34772.204828794194
0
VERTEX
8
0
10
1400.000000000001
20
34769.204828794194
0
SEQEND
0
POLYLINE
8
0
66
1
10
0.0
20
0.0
30
0.0
0
VERTEX
8
0
10
1400.000000000001
20
34775.204828794194
0
VERTEX
8
0
10
1332.0170058029225
20
34814.454828794194
0
VERTEX
8
0
10
1332.0170058029225
20
34892.954828794194
0
VERTEX
8
0
10
1400.000000000001
20
34932.204828794194
0
VERTEX
8
0
10
1400.000000000001
20
34929.204828794194
0
VERTEX
8
0
10
1334.6150820142757
20
34891.454828794194
0
VERTEX
8
0
10
1334.6150820142757
20
34815.954828794194
0
VERTEX
8
0
10
1400.000000000001
20
34778.204828794194
0
VERTEX
8
0
10
1400.000000000001
20
34775.204828794194
0
SEQEND
0
POLYLINE
8
0
66
1
10
0.0
20
0.0
30
0.0
0
VERTEX
8
0
10
1400.000000000001
20
34935.204828794194
0
VERTEX
8
0
10
2645.000000000001
20
34935.204828794194
0
VERTEX
8
0
10
2645.000000000001
20
34938.204828794194
0
VERTEX
8
0
10
1400.000000000001
20
34938.204828794194
0
VERTEX
8
0
10
1400.000000000001
20
34935.204828794194
0
SEQEND
0
POLYLINE
8
0
66
1
10
0.0
20
0.0
30
0.0
0
VERTEX
8
0
10
1400.000000000001
20
34932.204828794194
0
VERTEX
8
0
10
2645.000000000001
20
34932.204828794194
0
VERTEX
8
0
10
2645.000000000001
20
34929.204828794194
0
VERTEX
8
0
10
1400.000000000001
20
34929.204828794194
0
VERTEX
8
0
10
1400.000000000001
20
34932.204828794194
0
SEQEND
0
POLYLINE
8
0
66
1
10
0.0
20
0.0
30
0.0
0
VERTEX
8
0
10
2645.000000000001
20
34929.204828794194
0
VERTEX
8
0
10
2687.250000000001
20
34940.52568217441
0
VERTEX
8
0
10
2718.179146619786
20
34971.454828794194
0
VERTEX
8
0
10
2729.500000000001
20
35013.704828794194
0
VERTEX
8
0
10
2726.500000000001
20
35013.704828794194
0
VERTEX
8
0
10
2715.581070408433
20
34972.954828794194
0
VERTEX
8
0
10
2685.750000000001
20
34943.123758385766
0
VERTEX
8
0
10
2645.000000000001
20
34932.204828794194
0
VERTEX
8
0
10
2645.000000000001
20
34929.204828794194
0
SEQEND
0
POLYLINE
8
0
66
1
10
0.0
20
0.0
30
0.0
0
VERTEX
8
0
10
2645.000000000001
20
34935.204828794194
0
VERTEX
8
0
10
2684.250000000001
20
34945.72183459711
0
VERTEX
8
0
10
2712.9829941970793
20
34974.454828794194
0
VERTEX
8
0
10
2723.500000000001
20
35013.704828794194
0
VERTEX
8
0
10
2720.500000000001
20
35013.704828794194
0
VERTEX
8
0
10
2710.384917985726
20
34975.954828794194
0
VERTEX
8
0
10
2682.750000000001
20
34948.31991080847
0
VERTEX
8
0
10
2645.000000000001
20
34938.204828794194
0
VERTEX
8
0
10
2645.000000000001
20
34935.204828794194
0
SEQEND
0
POLYLINE
8
0
66
1
10
0.0
20
0.0
30
0.0
0
VERTEX
8
0
10
2723.500000000001
20
35013.704828794194
0
VERTEX
8
0
10
2723.500000000001
20
35124.722591932645
0
VERTEX
8
0
10
2720.500000000001
20
35124.722591932645
0
VERTEX
8
0
10
2720.500000000001
20
35013.704828794194
0
VERTEX
8
0
10
2723.500000000001
20
35013.704828794194
0
SEQEND
0
POLYLINE
8
0
66
1
10
0.0
20
0.0
30
0.0
0
VERTEX
8
0
10
2726.500000000001
20
35013.704828794194
0
VERTEX
8
0
10
2726.500000000001
20
35124.722591932645
0
VERTEX
8
0
10
2729.500000000001
20
35124.722591932645
0
VERTEX
8
0
10
2729.500000000001
20
35013.704828794194
0
VERTEX
8
0
10
2726.500000000001
20
35013.704828794194
0
SEQEND
0
POLYLINE
8
0
66
1
10
0.0
20
0.0
30
0.0
0
VERTEX
8
0
10
2645.500000000001
20
35124.722591932645
0
VERTEX
8
0
10
2645.500000000001
20
35049.722591932645
0
VERTEX
8
0
10
2720.500000000001
20
35049.722591932645
0
VERTEX
8
0
10
2720.500000000001
20
35124.722591932645
0
VERTEX
8
0
10
2645.500000000001
20
35124.722591932645
0
SEQEND
0
POLYLINE
8
0
66
1
10
0.0
20
0.0
30
0.0
0
VERTEX
8
0
10
2720.500000000001
20
35049.722591932645
0
VERTEX
8
0
10
2710.4519052838336
20
35087.222591932645
0
VERTEX
8
0
10
2683.000000000001
20
35114.674497216474
0
VERTEX
8
0
10
2645.500000000001
20
35124.722591932645
0
VERTEX
8
0
10
2645.500000000001
20
35087.222591932645
0
VERTEX
8
0
10
2664.250000000001
20
35082.19854457456
0
VERTEX
8
0
10
2677.9759526419175
20
35068.472591932645
0
VERTEX
8
0
10
2683.000000000001
20
35049.722591932645
0
VERTEX
8
0
10
2720.500000000001
20
35049.722591932645
0
SEQEND
0
POLYLINE
8
0
66
1
10
0.0
20
0.0
30
0.0
0
VERTEX
8
0
10
2683.000000000001
20
35049.722591932645
0
VERTEX
8
0
10
2677.9759526419175
20
35068.472591932645
0
VERTEX
8
0
10
2664.250000000001
20
35082.19854457456
0
VERTEX
8
0
10
2645.500000000001
20
35087.222591932645
0
VERTEX
8
0
10
2645.500000000001
20
35049.722591932645
0
VERTEX
8
0
10
2645.500000000001
20
35049.722591932645
0
VERTEX
8
0
10
2645.500000000001
20
35049.722591932645
0
VERTEX
8
0
10
2645.500000000001
20
35049.722591932645
0
VERTEX
8
0
10
2683.000000000001
20
35049.722591932645
0
SEQEND
0
POLYLINE
8
0
66
1
10
0.0
20
0.0
30
0.0
0
VERTEX
8
0
10
2729.500000000001
20
35124.722591932645
0
VERTEX
8
0
10
2729.500000000001
20
35049.722591932645
0
VERTEX
8
0
10
2804.500000000001
20
35049.722591932645
0
VERTEX
8
0
10
2804.500000000001
20
35124.722591932645
0
VERTEX
8
0
10
2729.500000000001
20
35124.722591932645
0
SEQEND
0
POLYLINE
8
0
66
1
10
0.0
20
0.0
30
0.0
0
VERTEX
8
0
10
2729.500000000001
20
35049.722591932645
0
VERTEX
8
0
10
2739.548094716168
20
35087.222591932645
0
VERTEX
8
0
10
2767.000000000001
20
35114.674497216474
0
VERTEX
8
0
10
2804.500000000001
20
35124.722591932645
0
VERTEX
8
0
10
2804.500000000001
20
35087.222591932645
0
VERTEX
8
0
10
2785.750000000001
20
35082.19854457456
0
VERTEX
8
0
10
2772.0240473580843
20
35068.472591932645
0
VERTEX
8
0
10
2767.000000000001
20
35049.722591932645
0
VERTEX
8
0
10
2729.500000000001
20
35049.722591932645
0
SEQEND
0
POLYLINE
8
0
66
1
10
0.0
20
0.0
30
0.0
0
VERTEX
8
0
10
2767.000000000001
20
35049.722591932645
0
VERTEX
8
0
10
2772.0240473580843
20
35068.472591932645
0
VERTEX
8
0
10
2785.750000000001
20
35082.19854457456
0
VERTEX
8
0
10
2804.500000000001
20
35087.222591932645
0
VERTEX
8
0
10
2804.500000000001
20
35049.722591932645
0
VERTEX
8
0
10
2804.500000000001
20
35049.722591932645
0
VERTEX
8
0
10
2804.500000000001
20
35049.722591932645
0
VERTEX
8
0
10
2804.500000000001
20
35049.722591932645
0
VERTEX
8
0
10
2767.000000000001
20
35049.722591932645
0
SEQEND
0
POLYLINE
8
0
66
1
10
0.0
20
0.0
30
0.0
0
VERTEX
8
0
10
376.0000000000009
20
35124.722591932645
0
VERTEX
8
0
10
376.0000000000009
20
35199.722591932645
0
VERTEX
8
0
10
301.0000000000009
20
35199.722591932645
0
VERTEX
8
0
10
301.0000000000009
20
35124.722591932645
0
VERTEX
8
0
10
376.0000000000009
20
35124.722591932645
0
SEQEND
0
POLYLINE
8
0
66
1
10
0.0
20
0.0
30
0.0
0
VERTEX
8
0
10
301.0000000000009
20
35199.722591932645
0
VERTEX
8
0
10
311.048094716168
20
35162.222591932645
0
VERTEX
8
0
10
338.50000000000085
20
35134.770686648815
0
VERTEX
8
0
10
376.0000000000009
20
35124.722591932645
0
VERTEX
8
0
10
376.0000000000009
20
35162.222591932645
0
VERTEX
8
0
10
357.2500000000009
20
35167.24663929073
0
VERTEX
8
0
10
343.52404735808443
20
35180.972591932645
0
VERTEX
8
0
10
338.5000000000009
20
35199.722591932645
0
VERTEX
8
0
10
301.0000000000009
20
35199.722591932645
0
SEQEND
0
POLYLINE
8
0
66
1
10
0.0
20
0.0
30
0.0
0
VERTEX
8
0
10
338.5000000000009
20
35199.722591932645
0
VERTEX
8
0
10
343.52404735808443
20
35180.972591932645
0
VERTEX
8
0
10
357.2500000000009
20
35167.24663929073
0
VERTEX
8
0
10
376.0000000000009
20
35162.222591932645
0
VERTEX
8
0
10
376.0000000000009
20
35199.722591932645
0
VERTEX
8
0
10
376.0000000000009
20
35199.722591932645
0
VERTEX
8
0
10
376.0000000000009
20
35199.722591932645
0
VERTEX
8
0
10
376.0000000000009
20
35199.722591932645
0
VERTEX
8
0
10
338.5000000000009
20
35199.722591932645
0
SEQEND
0
POLYLINE
8
0
66
1
10
0.0
20
0.0
30
0.0
0
VERTEX
8
0
10
5149.000000000001
20
35124.722591932645
0
VERTEX
8
0
10
5149.000000000001
20
35199.722591932645
0
VERTEX
8
0
10
5074.000000000001
20
35199.722591932645
0
VERTEX
8
0
10
5074.000000000001
20
35124.722591932645
0
VERTEX
8
0
10
5149.000000000001
20
35124.722591932645
0
SEQEND
0
POLYLINE
8
0
66
1
10
0.0
20
0.0
30
0.0
0
VERTEX
8
0
10
5149.000000000001
20
35199.722591932645
0
VERTEX
8
0
10
5138.951905283834
20
35162.222591932645
0
VERTEX
8
0
10
5111.500000000001
20
35134.770686648815
0
VERTEX
8
0
10
5074.000000000001
20
35124.722591932645
0
VERTEX
8
0
10
5074.000000000001
20
35162.222591932645
0
VERTEX
8
0
10
5092.750000000001
20
35167.24663929073
0
VERTEX
8
0
10
5106.4759526419175
20
35180.972591932645
0
VERTEX
8
0
10
5111.500000000001
20
35199.722591932645
0
VERTEX
8
0
10
5149.000000000001
20
35199.722591932645
0
SEQEND
0
POLYLINE
8
0
66
1
10
0.0
20
0.0
30
0.0
0
VERTEX
8
0
10
5111.500000000001
20
35199.722591932645
0
VERTEX
8
0
10
5106.4759526419175
20
35180.972591932645
0
VERTEX
8
0
10
5092.750000000001
20
35167.24663929073
0
VERTEX
8
0
10
5074.000000000001
20
35162.222591932645
0
VERTEX
8
0
10
5074.000000000001
20
35199.722591932645
0
VERTEX
8
0
10
5074.000000000001
20
35199.722591932645
0
VERTEX
8
0
10
5074.000000000001
20
35199.722591932645
0
VERTEX
8
0
10
5074.000000000001
20
35199.722591932645
0
VERTEX
8
0
10
5111.500000000001
20
35199.722591932645
0
SEQEND
0
POLYLINE
8
0
66
1
10
0.0
20
0.0
30
0.0
0
VERTEX
8
0
10
2723.500000000001
20
35124.722591932645
0
VERTEX
8
0
10
2723.5000000000014
20
41224.722591932645
0
VERTEX
8
0
10
301.00000000000136
20
41224.722591932645
0
VERTEX
8
0
10
301.0000000000009
20
35124.722591932645
0
VERTEX
8
0
10
2723.500000000001
20
35124.722591932645
0
SEQEND
0
POLYLINE
8
0
66
1
10
0.0
20
0.0
30
0.0
0
VERTEX
8
0
10
2726.500000000001
20
35124.722591932645
0
VERTEX
8
0
10
2726.5000000000014
20
41224.722591932645
0
VERTEX
8
0
10
5149.000000000002
20
41224.722591932645
0
VERTEX
8
0
10
5149.000000000001
20
35124.722591932645
0
VERTEX
8
0
10
2726.500000000001
20
35124.722591932645
0
SEQEND
0
POLYLINE
8
0
66
1
10
0.0
20
0.0
30
0.0
0
VERTEX
8
0
10
2720.5000000000014
20
41224.722591932645
0
VERTEX
8
0
10
2720.5000000000014
20
41299.722591932645
0
VERTEX
8
0
10
2645.5000000000014
20
41299.722591932645
0
VERTEX
8
0
10
2645.5000000000014
20
41224.722591932645
0
VERTEX
8
0
10
2720.5000000000014
20
41224.722591932645
0
SEQEND
0
POLYLINE
8
0
66
1
10
0.0
20
0.0
30
0.0
0
VERTEX
8
0
10
2720.5000000000014
20
41299.722591932645
0
VERTEX
8
0
10
2710.451905283834
20
41262.222591932645
0
VERTEX
8
0
10
2683.0000000000014
20
41234.770686648815
0
VERTEX
8
0
10
2645.5000000000014
20
41224.722591932645
0
VERTEX
8
0
10
2645.5000000000014
20
41262.222591932645
0
VERTEX
8
0
10
2664.2500000000014
20
41267.24663929073
0
VERTEX
8
0
10
2677.975952641918
20
41280.972591932645
0
VERTEX
8
0
10
2683.0000000000014
20
41299.722591932645
0
VERTEX
8
0
10
2720.5000000000014
20
41299.722591932645
0
SEQEND
0
POLYLINE
8
0
66
1
10
0.0
20
0.0
30
0.0
0
VERTEX
8
0
10
2683.0000000000014
20
41299.722591932645
0
VERTEX
8
0
10
2677.975952641918
20
41280.972591932645
0
VERTEX
8
0
10
2664.2500000000014
20
41267.24663929073
0
VERTEX
8
0
10
2645.5000000000014
20
41262.222591932645
0
VERTEX
8
0
10
2645.5000000000014
20
41299.722591932645
0
VERTEX
8
0
10
2645.5000000000014
20
41299.722591932645
0
VERTEX
8
0
10
2645.5000000000014
20
41299.722591932645
0
VERTEX
8
0
10
2645.5000000000014
20
41299.722591932645
0
VERTEX
8
0
10
2683.0000000000014
20
41299.722591932645
0
SEQEND
0
POLYLINE
8
0
66
1
10
0.0
20
0.0
30
0.0
0
VERTEX
8
0
10
2804.5000000000014
20
41224.722591932645
0
VERTEX
8
0
10
2804.5000000000014
20
41299.722591932645
0
VERTEX
8
0
10
2729.5000000000014
20
41299.722591932645
0
VERTEX
8
0
10
2729.5000000000014
20
41224.722591932645
0
VERTEX
8
0
10
2804.5000000000014
20
41224.722591932645
0
SEQEND
0
POLYLINE
8
0
66
1
10
0.0
20
0.0
30
0.0
0
VERTEX
8
0
10
2729.5000000000014
20
41299.722591932645
0
VERTEX
8
0
10
2739.5480947161686
20
41262.222591932645
0
VERTEX
8
0
10
2767.0000000000014
20
41234.770686648815
0
VERTEX
8
0
10
2804.5000000000014
20
41224.722591932645
0
VERTEX
8
0
10
2804.5000000000014
20
41262.222591932645
0
VERTEX
8
0
10
2785.7500000000014
20
41267.24663929073
0
VERTEX
8
0
10
2772.0240473580848
20
41280.972591932645
0
VERTEX
8
0
10
2767.0000000000014
20
41299.722591932645
0
VERTEX
8
0
10
2729.5000000000014
20
41299.722591932645
0
SEQEND
0
POLYLINE
8
0
66
1
10
0.0
20
0.0
30
0.0
0
VERTEX
8
0
10
2767.0000000000014
20
41299.722591932645
0
VERTEX
8
0
10
2772.0240473580848
20
41280.972591932645
0
VERTEX
8
0
10
2785.7500000000014
20
41267.24663929073
0
VERTEX
8
0
10
2804.5000000000014
20
41262.222591932645
0
VERTEX
8
0
10
2804.5000000000014
20
41299.722591932645
0
VERTEX
8
0
10
2804.5000000000014
20
41299.722591932645
0
VERTEX
8
0
10
2804.5000000000014
20
41299.722591932645
0
VERTEX
8
0
10
2804.5000000000014
20
41299.722591932645
0
VERTEX
8
0
10
2767.0000000000014
20
41299.722591932645
0
SEQEND
0
POLYLINE
8
0
66
1
10
0.0
20
0.0
30
0.0
0
VERTEX
8
0
10
301.00000000000136
20
41224.722591932645
0
VERTEX
8
0
10
301.00000000000136
20
41149.722591932645
0
VERTEX
8
0
10
376.00000000000136
20
41149.722591932645
0
VERTEX
8
0
10
376.00000000000136
20
41224.722591932645
0
VERTEX
8
0
10
301.00000000000136
20
41224.722591932645
0
SEQEND
0
POLYLINE
8
0
66
1
10
0.0
20
0.0
30
0.0
0
VERTEX
8
0
10
301.00000000000136
20
41149.722591932645
0
VERTEX
8
0
10
311.04809471616846
20
41187.222591932645
0
VERTEX
8
0
10
338.50000000000136
20
41214.674497216474
0
VERTEX
8
0
10
376.00000000000136
20
41224.722591932645
0
VERTEX
8
0
10
376.00000000000136
20
41187.222591932645
0
VERTEX
8
0
10
357.25000000000136
20
41182.19854457456
0
VERTEX
8
0
10
343.5240473580849
20
41168.472591932645
0
VERTEX
8
0
10
338.50000000000136
20
41149.722591932645
0
VERTEX
8
0
10
301.00000000000136
20
41149.722591932645
0
SEQEND
0
POLYLINE
8
0
66
1
10
0.0
20
0.0
30
0.0
0
VERTEX
8
0
10
338.50000000000136
20
41149.722591932645
0
VERTEX
8
0
10
343.5240473580849
20
41168.472591932645
0
VERTEX
8
0
10
357.25000000000136
20
41182.19854457456
0
VERTEX
8
0
10
376.00000000000136
20
41187.222591932645
0
VERTEX
8
0
10
376.00000000000136
20
41149.722591932645
0
VERTEX
8
0
10
376.00000000000136
20
41149.722591932645
0
VERTEX
8
0
10
376.00000000000136
20
41149.722591932645
0
VERTEX
8
0
10
376.00000000000136
20
41149.722591932645
0
VERTEX
8
0
10
338.50000000000136
20
41149.722591932645
0
SEQEND
0
POLYLINE
8
0
66
1
10
0.0
20
0.0
30
0.0
0
VERTEX
8
0
10
5074.000000000002
20
41224.722591932645
0
VERTEX
8
0
10
5074.000000000002
20
41149.722591932645
0
VERTEX
8
0
10
5149.000000000002
20
41149.722591932645
0
VERTEX
8
0
10
5149.000000000002
20
41224.722591932645
0
VERTEX
8
0
10
5074.000000000002
20
41224.722591932645
0
SEQEND
0
POLYLINE
8
0
66
1
10
0.0
20
0.0
30
0.0
0
VERTEX
8
0
10
5149.000000000002
20
41149.722591932645
0
VERTEX
8
0
10
5138.951905283835
20
41187.222591932645
0
VERTEX
8
0
10
5111.500000000002
20
41214.674497216474
0
VERTEX
8
0
10
5074.000000000002
20
41224.722591932645
0
VERTEX
8
0
10
5074.000000000002
20
41187.222591932645
0
VERTEX
8
0
10
5092.750000000002
20
41182.19854457456
0
VERTEX
8
0
10
5106.475952641918
20
41168.472591932645
0
VERTEX
8
0
10
5111.500000000002
20
41149.722591932645
0
VERTEX
8
0
10
5149.000000000002
20
41149.722591932645
0
SEQEND
0
POLYLINE
8
0
66
1
10
0.0
20
0.0
30
0.0
0
VERTEX
8
0
10
5111.500000000002
20
41149.722591932645
0
VERTEX
8
0
10
5106.475952641918
20
41168.472591932645
0
VERTEX
8
0
10
5092.750000000002
20
41182.19854457456
0
VERTEX
8
0
10
5074.000000000002
20
41187.222591932645
0
VERTEX
8
0
10
5074.000000000002
20
41149.722591932645
0
VERTEX
8
0
10
5074.000000000002
20
41149.722591932645
0
VERTEX
8
0
10
5074.000000000002
20
41149.722591932645
0
VERTEX
8
0
10
5074.000000000002
20
41149.722591932645
0
VERTEX
8
0
10
5111.500000000002
20
41149.722591932645
0
SEQEND
0
POLYLINE
8
0
66
1
10
0.0
20
0.0
30
0.0
0
VERTEX
8
0
10
2723.5000000000014
20
41224.722591932645
0
VERTEX
8
0
10
2723.500000000002
20
47324.722591932645
0
VERTEX
8
0
10
2720.500000000002
20
47324.722591932645
0
VERTEX
8
0
10
2720.5000000000014
20
41224.722591932645
0
VERTEX
8
0
10
2723.5000000000014
20
41224.722591932645
0
SEQEND
0
POLYLINE
8
0
66
1
10
0.0
20
0.0
30
0.0
0
VERTEX
8
0
10
2726.5000000000014
20
41224.722591932645
0
VERTEX
8
0
10
2726.500000000002
20
47324.722591932645
0
VERTEX
8
0
10
2729.500000000002
20
47324.722591932645
0
VERTEX
8
0
10
2729.5000000000014
20
41224.722591932645
0
VERTEX
8
0
10
2726.5000000000014
20
41224.722591932645
0
SEQEND
0
POLYLINE
8
0
66
1
10
0.0
20
0.0
30
0.0
0
VERTEX
8
0
10
2723.500000000002
20
47324.722591932645
0
VERTEX
8
0
10
2723.500000000002
20
45960.455591932645
0
VERTEX
8
0
10
2720.500000000002
20
45960.455591932645
0
VERTEX
8
0
10
2720.500000000002
20
47324.722591932645
0
VERTEX
8
0
10
2723.500000000002
20
47324.722591932645
0
SEQEND
0
POLYLINE
8
0
66
1
10
0.0
20
0.0
30
0.0
0
VERTEX
8
0
10
2726.500000000002
20
47324.722591932645
0
VERTEX
8
0
10
2726.500000000002
20
45960.455591932645
0
VERTEX
8
0
10
2729.500000000002
20
45960.455591932645
0
VERTEX
8
0
10
2729.500000000002
20
47324.722591932645
0
VERTEX
8
0
10
2726.500000000002
20
47324.722591932645
0
SEQEND
0
POLYLINE
8
0
66
1
10
0.0
20
0.0
30
0.0
0
VERTEX
8
0
10
2723.500000000002
20
45960.455591932645
0
VERTEX
8
0
10
2721.289419162445
20
45968.705591932645
0
VERTEX
8
0
10
2715.250000000002
20
45974.74501109509
0
VERTEX
8
0
10
2707.000000000002
20
45976.955591932645
0
VERTEX
8
0
10
2707.000000000002
20
45975.455591932645
0
VERTEX
8
0
10
2714.500000000002
20
45973.44597298941
0
VERTEX
8
0
10
2719.9903810567685
20
45967.955591932645
0
VERTEX
8
0
10
2722.000000000002
20
45960.455591932645
0
VERTEX
8
0
10
2723.500000000002
20
45960.455591932645
0
SEQEND
0
POLYLINE
8
0
66
1
10
0.0
20
0.0
30
0.0
0
VERTEX
8
0
10
2722.000000000002
20
45960.455591932645
0
VERTEX
8
0
10
2719.9903810567685
20
45967.955591932645
0
VERTEX
8
0
10
2714.500000000002
20
45973.44597298941
0
VERTEX
8
0
10
2707.000000000002
20
45975.455591932645
0
VERTEX
8
0
10
2707.000000000002
20
45973.955591932645
0
VERTEX
8
0
10
2713.750000000002
20
45972.146934883735
0
VERTEX
8
0
10
2718.691342951092
20
45967.205591932645
0
VERTEX
8
0
10
2720.500000000002
20
45960.455591932645
0
VERTEX
8
0
10
2722.000000000002
20
45960.455591932645
0
SEQEND
0
POLYLINE
8
0
66
1
10
0.0
20
0.0
30
0.0
0
VERTEX
8
0
10
2707.000000000002
20
45976.955591932645
0
VERTEX
8
0
10
2673.500000000002
20
45976.955591932645
0
VERTEX
8
0
10
2673.500000000002
20
45973.955591932645
0
VERTEX
8
0
10
2707.000000000002
20
45973.955591932645
0
VERTEX
8
0
10
2707.000000000002
20
45976.955591932645
0
SEQEND
0
POLYLINE
8
0
66
1
10
0.0
20
0.0
30
0.0
0
VERTEX
8
0
10
2673.500000000002
20
45973.955591932645
0
VERTEX
8
0
10
2665.250000000002
20
45976.1661727702
0
VERTEX
8
0
10
2659.2105808375586
20
45982.205591932645
0
VERTEX
8
0
10
2657.000000000002
20
45990.455591932645
0
VERTEX
8
0
10
2658.500000000002
20
45990.455591932645
0
VERTEX
8
0
10
2660.509618943235
20
45982.955591932645
0
VERTEX
8
0
10
2666.000000000002
20
45977.46521087588
0
VERTEX
8
0
10
2673.500000000002
20
45975.455591932645
0
VERTEX
8
0
10
2673.500000000002
20
45973.955591932645
0
SEQEND
0
POLYLINE
8
0
66
1
10
0.0
20
0.0
30
0.0
0
VERTEX
8
0
10
2673.500000000002
20
45975.455591932645
0
VERTEX
8
0
10
2666.000000000002
20
45977.46521087588
0
VERTEX
8
0
10
2660.509618943235
20
45982.955591932645
0
VERTEX
8
0
10
2658.500000000002
20
45990.455591932645
0
VERTEX
8
0
10
2660.000000000002
20
45990.455591932645
0
VERTEX
8
0
10
2661.8086570489118
20
45983.705591932645
0
VERTEX
8
0
10
2666.750000000002
20
45978.764248981555
0
VERTEX
8
0
10
2673.500000000002
20
45976.955591932645
0
VERTEX
8
0
10
2673.500000000002
20
45975.455591932645
0
SEQEND
0
POLYLINE
8
0
66
1
10
0.0
20
0.0
30
0.0
0
VERTEX
8
0
10
2660.000000000002
20
45990.455591932645
0
VERTEX
8
0
10
2660.000000000002
20
46005.455591932645
0
VERTEX
8
0
10
2657.000000000002
20
46005.455591932645
0
VERTEX
8
0
10
2657.000000000002
20
45990.455591932645
0
VERTEX
8
0
10
2660.000000000002
20
45990.455591932645
0
SEQEND
0
POLYLINE
8
0
66
1
10
0.0
20
0.0
30
0.0
0
VERTEX
8
0
10
2657.000000000002
20
46005.455591932645
0
VERTEX
8
0
10
2659.2105808375586
20
46013.705591932645
0
VERTEX
8
0
10
2665.250000000002
20
46019.74501109509
0
VERTEX
8
0
10
2673.500000000002
20
46021.955591932645
0
VERTEX
8
0
10
2673.500000000002
20
46020.455591932645
0
VERTEX
8
0
10
2666.000000000002
20
46018.44597298941
0
VERTEX
8
0
10
2660.509618943235
20
46012.955591932645
0
VERTEX
8
0
10
2658.500000000002
20
46005.455591932645
0
VERTEX
8
0
10
2657.000000000002
20
46005.455591932645
0
SEQEND
0
POLYLINE
8
0
66
1
10
0.0
20
0.0
30
0.0
0
VERTEX
8
0
10
2658.500000000002
20
46005.455591932645
0
VERTEX
8
0
10
2660.509618943235
20
46012.955591932645
0
VERTEX
8
0
10
2666.000000000002
20
46018.44597298941
0
VERTEX
8
0
10
2673.500000000002
20
46020.455591932645
0
VERTEX
8
0
10
2673.500000000002
20
46018.955591932645
0
VERTEX
8
0
10
2666.750000000002
20
46017.146934883735
0
VERTEX
8
0
10
2661.8086570489118
20
46012.205591932645
0
VERTEX
8
0
10
2660.000000000002
20
46005.455591932645
0
VERTEX
8
0
10
2658.500000000002
20
46005.455591932645
0
SEQEND
0
POLYLINE
8
0
66
1
10
0.0
20
0.0
30
0.0
0
VERTEX
8
0
10
2673.500000000002
20
46018.955591932645
0
VERTEX
8
0
10
2725.000000000002
20
46018.955591932645
0
VERTEX
8
0
10
2725.000000000002
20
46021.955591932645
0
VERTEX
8
0
10
2673.500000000002
20
46021.955591932645
0
VERTEX
8
0
10
2673.500000000002
20
46018.955591932645
0
SEQEND
0
POLYLINE
8
0
66
1
10
0.0
20
0.0
30
0.0
0
VERTEX
8
0
10
2725.000000000002
20
46018.955591932645
0
VERTEX
8
0
10
2776.500000000002
20
46018.955591932645
0
VERTEX
8
0
10
2776.500000000002
20
46021.955591932645
0
VERTEX
8
0
10
2725.000000000002
20
46021.955591932645
0
VERTEX
8
0
10
2725.000000000002
20
46018.955591932645
0
SEQEND
0
POLYLINE
8
0
66
1
10
0.0
20
0.0
30
0.0
0
VERTEX
8
0
10
2726.500000000002
20
45960.455591932645
0
VERTEX
8
0
10
2728.7105808375586
20
45968.705591932645
0
VERTEX
8
0
10
2734.750000000002
20
45974.74501109509
0
VERTEX
8
0
10
2743.000000000002
20
45976.955591932645
0
VERTEX
8
0
10
2743.000000000002
20
45975.455591932645
0
VERTEX
8
0
10
2735.500000000002
20
45973.44597298941
0
VERTEX
8
0
10
2730.009618943235
20
45967.955591932645
0
VERTEX
8
0
10
2728.000000000002
20
45960.455591932645
0
VERTEX
8
0
10
2726.500000000002
20
45960.455591932645
0
SEQEND
0
POLYLINE
8
0
66
1
10
0.0
20
0.0
30
0.0
0
VERTEX
8
0
10
2728.000000000002
20
45960.455591932645
0
VERTEX
8
0
10
2730.009618943235
20
45967.955591932645
0
VERTEX
8
0
10
2735.500000000002
20
45973.44597298941
0
VERTEX
8
0
10
2743.000000000002
20
45975.455591932645
0
VERTEX
8
0
10
2743.000000000002
20
45973.955591932645
0
VERTEX
8
0
10
2736.250000000002
20
45972.146934883735
0
VERTEX
8
0
10
2731.3086570489118
20
45967.205591932645
0
VERTEX
8
0
10
2729.500000000002
20
45960.455591932645
0
VERTEX
8
0
10
2728.000000000002
20
45960.455591932645
0
SEQEND
0
POLYLINE
8
0
66
1
10
0.0
20
0.0
30
0.0
0
VERTEX
8
0
10
2743.000000000002
20
45973.955591932645
0
VERTEX
8
0
10
2776.500000000002
20
45973.955591932645
0
VERTEX
8
0
10
2776.500000000002
20
45976.955591932645
0
VERTEX
8
0
10
2743.000000000002
20
45976.955591932645
0
VERTEX
8
0
10
2743.000000000002
20
45973.955591932645
0
SEQEND
0
POLYLINE
8
0
66
1
10
0.0
20
0.0
30
0.0
0
VERTEX
8
0
10
2776.500000000002
20
45973.955591932645
0
VERTEX
8
0
10
2784.750000000002
20
45976.1661727702
0
VERTEX
8
0
10
2790.789419162445
20
45982.205591932645
0
VERTEX
8
0
10
2793.000000000002
20
45990.455591932645
0
VERTEX
8
0
10
2791.500000000002
20
45990.455591932645
0
VERTEX
8
0
10
2789.4903810567685
20
45982.955591932645
0
VERTEX
8
0
10
2784.000000000002
20
45977.46521087588
0
VERTEX
8
0
10
2776.500000000002
20
45975.455591932645
0
VERTEX
8
0
10
2776.500000000002
20
45973.955591932645
0
SEQEND
0
POLYLINE
8
0
66
1
10
0.0
20
0.0
30
0.0
0
VERTEX
8
0
10
2776.500000000002
20
45975.455591932645
0
VERTEX
8
0
10
2784.000000000002
20
45977.46521087588
0
VERTEX
8
0
10
2789.4903810567685
20
45982.955591932645
0
VERTEX
8
0
10
2791.500000000002
20
45990.455591932645
0
VERTEX
8
0
10
2790.000000000002
20
45990.455591932645
0
VERTEX
8
0
10
2788.191342951092
20
45983.705591932645
0
VERTEX
8
0
10
2783.250000000002
20
45978.764248981555
0
VERTEX
8
0
10
2776.500000000002
20
45976.955591932645
0
VERTEX
8
0
10
2776.500000000002
20
45975.455591932645
0
SEQEND
0
POLYLINE
8
0
66
1
10
0.0
20
0.0
30
0.0
0
VERTEX
8
0
10
2793.000000000002
20
45990.455591932645
0
VERTEX
8
0
10
2793.000000000002
20
46005.455591932645
0
VERTEX
8
0
10
2790.000000000002
20
46005.455591932645
0
VERTEX
8
0
10
2790.000000000002
20
45990.455591932645
0
VERTEX
8
0
10
2793.000000000002
20
45990.455591932645
0
SEQEND
0
POLYLINE
8
0
66
1
10
0.0
20
0.0
30
0.0
0
VERTEX
8
0
10
2793.000000000002
20
46005.455591932645
0
VERTEX
8
0
10
2790.789419162445
20
46013.705591932645
0
VERTEX
8
0
10
2784.750000000002
20
46019.74501109509
0
VERTEX
8
0
10
2776.500000000002
20
46021.955591932645
0
VERTEX
8
0
10
2776.500000000002
20
46020.455591932645
0
VERTEX
8
0
10
2784.000000000002
20
46018.44597298941
0
VERTEX
8
0
10
2789.4903810567685
20
46012.955591932645
0
VERTEX
8
0
10
2791.500000000002
20
46005.455591932645
0
VERTEX
8
0
10
2793.000000000002
20
46005.455591932645
0
SEQEND
0
POLYLINE
8
0
66
1
10
0.0
20
0.0
30
0.0
0
VERTEX
8
0
10
2791.500000000002
20
46005.455591932645
0
VERTEX
8
0
10
2789.4903810567685
20
46012.955591932645
0
VERTEX
8
0
10
2784.000000000002
20
46018.44597298941
0
VERTEX
8
0
10
2776.500000000002
20
46020.455591932645
0
VERTEX
8
0
10
2776.500000000002
20
46018.955591932645
0
VERTEX
8
0
10
2783.250000000002
20
46017.146934883735
0
VERTEX
8
0
10
2788.191342951092
20
46012.205591932645
0
VERTEX
8
0
10
2790.000000000002
20
46005.455591932645
0
VERTEX
8
0
10
2791.500000000002
20
46005.455591932645
0
SEQEND
0
POLYLINE
8
0
66
1
10
0.0
20
0.0
30
0.0
0
VERTEX
8
0
10
2705.5
20
46050.0
0
VERTEX
8
0
10
2505.5
20
46050.0
0
VERTEX
8
0
10
2505.5
20
46028.0
0
VERTEX
8
0
10
2705.5
20
46028.0
0
VERTEX
8
0
10
2705.5
20
46050.0
0
SEQEND
0
POLYLINE
8
0
66
1
10
0.0
20
0.0
30
0.0
0
VERTEX
8
0
10
2505.5
20
46064.0
0
VERTEX
8
0
10
2225.0
20
46064.0
0
VERTEX
8
0
10
2225.0
20
46014.0
0
VERTEX
8
0
10
2505.5
20
46014.0
0
VERTEX
8
0
10
2505.5
20
46064.0
0
SEQEND
0
POLYLINE
8
0
66
1
10
0.0
20
0.0
30
0.0
0
VERTEX
8
0
10
2225.0
20
47876.0
0
VERTEX
8
0
10
2105.0
20
47876.0
0
VERTEX
8
0
10
2105.0
20
45876.0
0
VERTEX
8
0
10
2225.0
20
45876.0
0
VERTEX
8
0
10
2225.0
20
47876.0
0
SEQEND
0
POLYLINE
8
0
66
1
10
0.0
20
0.0
30
0.0
0
VERTEX
8
0
10
2105.0
20
47226.0
0
VERTEX
8
0
10
325.00000000000006
20
47226.0
0
VERTEX
8
0
10
324.99999999999994
20
46526.0
0
VERTEX
8
0
10
2105.0
20
46526.0
0
VERTEX
8
0
10
2105.0
20
47226.0
0
SEQEND
0
POLYLINE
8
0
66
1
10
0.0
20
0.0
30
0.0
0
VERTEX
8
0
10
2744.5
20
46028.0
0
VERTEX
8
0
10
2944.5
20
46028.0
0
VERTEX
8
0
10
2944.5
20
46050.0
0
VERTEX
8
0
10
2744.5
20
46050.0
0
VERTEX
8
0
10
2744.5
20
46028.0
0
SEQEND
0
POLYLINE
8
0
66
1
10
0.0
20
0.0
30
0.0
0
VERTEX
8
0
10
2944.5
20
46014.0
0
VERTEX
8
0
10
3225.0
20
46014.0
0
VERTEX
8
0
10
3225.0
20
46064.0
0
VERTEX
8
0
10
2944.5
20
46064.0
0
VERTEX
8
0
10
2944.5
20
46014.0
0
SEQEND
0
POLYLINE
8
0
66
1
10
0.0
20
0.0
30
0.0
0
VERTEX
8
0
10
3225.0
20
45876.0
0
VERTEX
8
0
10
5125.0
20
45876.0
0
VERTEX
8
0
10
5125.0
20
47876.0
0
VERTEX
8
0
10
3225.0
20
47876.0
0
VERTEX
8
0
10
3225.0
20
45876.0
0
SEQEND
0
POLYLINE
8
0
66
1
10
0.0
20
0.0
30
0.0
0
VERTEX
8
0
10
325.0
20
47226.0
0
VERTEX
8
0
10
325.0
20
47216.0
0
VERTEX
8
0
10
335.0
20
47216.0
0
VERTEX
8
0
10
335.0
20
47226.0
0
VERTEX
8
0
10
325.0
20
47226.0
0
SEQEND
0
POLYLINE
8
0
66
1
10
0.0
20
0.0
30
0.0
0
VERTEX
8
0
10
325.0
20
47216.0
0
VERTEX
8
0
10
326.33974596215563
20
47221.0
0
VERTEX
8
0
10
330.0
20
47224.660254037844
0
VERTEX
8
0
10
335.0
20
47226.0
0
VERTEX
8
0
10
335.0
20
47221.0
0
VERTEX
8
0
10
332.5
20
47220.33012701892
0
VERTEX
8
0
10
330.6698729810778
20
47218.5
0
VERTEX
8
0
10
330.0
20
47216.0
0
VERTEX
8
0
10
325.0
20
47216.0
0
SEQEND
0
POLYLINE
8
0
66
1
10
0.0
20
0.0
30
0.0
0
VERTEX
8
0
10
330.0
20
47216.0
0
VERTEX
8
0
10
330.6698729810778
20
47218.5
0
VERTEX
8
0
10
332.5
20
47220.33012701892
0
VERTEX
8
0
10
335.0
20
47221.0
0
VERTEX
8
0
10
335.0
20
47216.0
0
VERTEX
8
0
10
335.0
20
47216.0
0
VERTEX
8
0
10
335.0
20
47216.0
0
VERTEX
8
0
10
335.0
20
47216.0
0
VERTEX
8
0
10
330.0
20
47216.0
0
SEQEND
0
POLYLINE
8
0
66
1
10
0.0
20
0.0
30
0.0
0
VERTEX
8
0
10
335.0
20
46526.0
0
VERTEX
8
0
10
335.0
20
46536.0
0
VERTEX
8
0
10
325.0
20
46536.0
0
VERTEX
8
0
10
325.0
20
46526.0
0
VERTEX
8
0
10
335.0
20
46526.0
0
SEQEND
0
POLYLINE
8
0
66
1
10
0.0
20
0.0
30
0.0
0
VERTEX
8
0
10
325.0
20
46536.0
0
VERTEX
8
0
10
326.33974596215563
20
46531.0
0
VERTEX
8
0
10
330.0
20
46527.339745962156
0
VERTEX
8
0
10
335.0
20
46526.0
0
VERTEX
8
0
10
335.0
20
46531.0
0
VERTEX
8
0
10
332.5
20
46531.66987298108
0
VERTEX
8
0
10
330.6698729810778
20
46533.5
0
VERTEX
8
0
10
330.0
20
46536.0
0
VERTEX
8
0
10
325.0
20
46536.0
0
SEQEND
0
POLYLINE
8
0
66
1
10
0.0
20
0.0
30
0.0
0
VERTEX
8
0
10
330.0
20
46536.0
0
VERTEX
8
0
10
330.6698729810778
20
46533.5
0
VERTEX
8
0
10
332.5
20
46531.66987298108
0
VERTEX
8
0
10
335.0
20
46531.0
0
VERTEX
8
0
10
335.0
20
46536.0
0
VERTEX
8
0
10
335.0
20
46536.0
0
VERTEX
8
0
10
335.0
20
46536.0
0
VERTEX
8
0
10
335.0
20
46536.0
0
VERTEX
8
0
10
330.0
20
46536.0
0
SEQEND
0
POLYLINE
8
0
66
1
10
0.0
20
0.0
30
0.0
0
VERTEX
8
0
10
2105.0
20
47226.0
0
VERTEX
8
0
10
2105.0
20
47326.0
0
VERTEX
8
0
10
2005.0
20
47326.0
0
VERTEX
8
0
10
2005.0
20
47226.0
0
VERTEX
8
0
10
2105.0
20
47226.0
0
SEQEND
0
POLYLINE
8
0
66
1
10
0.0
20
0.0
30
0.0
0
VERTEX
8
0
10
2105.0
20
47326.0
0
VERTEX
8
0
10
2091.602540378444
20
47276.0
0
VERTEX
8
0
10
2055.0
20
47239.397459621556
0
VERTEX
8
0
10
2005.0
20
47226.0
0
VERTEX
8
0
10
2005.0
20
47276.0
0
VERTEX
8
0
10
2030.0
20
47282.69872981078
0
VERTEX
8
0
10
2048.301270189222
20
47301.0
0
VERTEX
8
0
10
2055.0
20
47326.0
0
VERTEX
8
0
10
2105.0
20
47326.0
0
SEQEND
0
POLYLINE
8
0
66
1
10
0.0
20
0.0
30
0.0
0
VERTEX
8
0
10
2055.0
20
47326.0
0
VERTEX
8
0
10
2048.301270189222
20
47301.0
0
VERTEX
8
0
10
2030.0
20
47282.69872981078
0
VERTEX
8
0
10
2005.0
20
47276.0
0
VERTEX
8
0
10
2005.0
20
47326.0
0
VERTEX
8
0
10
2005.0
20
47326.0
0
VERTEX
8
0
10
2005.0
20
47326.0
0
VERTEX
8
0
10
2005.0
20
47326.0
0
VERTEX
8
0
10
2055.0
20
47326.0
0
SEQEND
0
POLYLINE
8
0
66
1
10
0.0
20
0.0
30
0.0
0
VERTEX
8
0
10
2005.0
20
46526.0
0
VERTEX
8
0
10
2005.0
20
46426.0
0
VERTEX
8
0
10
2105.0
20
46426.0
0
VERTEX
8
0
10
2105.0
20
46526.0
0
VERTEX
8
0
10
2005.0
20
46526.0
0
SEQEND
0
POLYLINE
8
0
66
1
10
0.0
20
0.0
30
0.0
0
VERTEX
8
0
10
2105.0
20
46426.0
0
VERTEX
8
0
10
2091.602540378444
20
46476.0
0
VERTEX
8
0
10
2055.0
20
46512.602540378444
0
VERTEX
8
0
10
2005.0
20
46526.0
0
VERTEX
8
0
10
2005.0
20
46476.0
0
VERTEX
8
0
10
2030.0
20
46469.30127018922
0
VERTEX
8
0
10
2048.301270189222
20
46451.0
0
VERTEX
8
0
10
2055.0
20
46426.0
0
VERTEX
8
0
10
2105.0
20
46426.0
0
SEQEND
0
POLYLINE
8
0
66
1
10
0.0
20
0.0
30
0.0
0
VERTEX
8
0
10
2055.0
20
46426.0
0
VERTEX
8
0
10
2048.301270189222
20
46451.0
0
VERTEX
8
0
10
2030.0
20
46469.30127018922
0
VERTEX
8
0
10
2005.0
20
46476.0
0
VERTEX
8
0
10
2005.0
20
46426.0
0
VERTEX
8
0
10
2005.0
20
46426.0
0
VERTEX
8
0
10
2005.0
20
46426.0
0
VERTEX
8
0
10
2005.0
20
46426.0
0
VERTEX
8
0
10
2055.0
20
46426.0
0
SEQEND
0
POLYLINE
8
0
66
1
10
0.0
20
0.0
30
0.0
0
VERTEX
8
0
10
2215.0
20
47876.0
0
VERTEX
8
0
10
2215.0
20
47866.0
0
VERTEX
8
0
10
2225.0
20
47866.0
0
VERTEX
8
0
10
2225.0
20
47876.0
0
VERTEX
8
0
10
2215.0
20
47876.0
0
SEQEND
0
POLYLINE
8
0
66
1
10
0.0
20
0.0
30
0.0
0
VERTEX
8
0
10
2225.0
20
47866.0
0
VERTEX
8
0
10
2223.6602540378444
20
47871.0
0
VERTEX
8
0
10
2220.0
20
47874.660254037844
0
VERTEX
8
0
10
2215.0
20
47876.0
0
VERTEX
8
0
10
2215.0
20
47871.0
0
VERTEX
8
0
10
2217.5
20
47870.33012701892
0
VERTEX
8
0
10
2219.330127018922
20
47868.5
0
VERTEX
8
0
10
2220.0
20
47866.0
0
VERTEX
8
0
10
2225.0
20
47866.0
0
SEQEND
0
POLYLINE
8
0
66
1
10
0.0
20
0.0
30
0.0
0
VERTEX
8
0
10
2220.0
20
47866.0
0
VERTEX
8
0
10
2219.330127018922
20
47868.5
0
VERTEX
8
0
10
2217.5
20
47870.33012701892
0
VERTEX
8
0
10
2215.0
20
47871.0
0
VERTEX
8
0
10
2215.0
20
47866.0
0
VERTEX
8
0
10
2215.0
20
47866.0
0
VERTEX
8
0
10
2215.0
20
47866.0
0
VERTEX
8
0
10
2215.0
20
47866.0
0
VERTEX
8
0
10
2220.0
20
47866.0
0
SEQEND
0
POLYLINE
8
0
66
1
10
0.0
20
0.0
30
0.0
0
VERTEX
8
0
10
2225.0
20
45876.0
0
VERTEX
8
0
10
2225.0
20
45886.0
0
VERTEX
8
0
10
2215.0
20
45886.0
0
VERTEX
8
0
10
2215.0
20
45876.0
0
VERTEX
8
0
10
2225.0
20
45876.0
0
SEQEND
0
POLYLINE
8
0
66
1
10
0.0
20
0.0
30
0.0
0
VERTEX
8
0
10
2225.0
20
45886.0
0
VERTEX
8
0
10
2223.6602540378444
20
45881.0
0
VERTEX
8
0
10
2220.0
20
45877.339745962156
0
VERTEX
8
0
10
2215.0
20
45876.0
0
VERTEX
8
0
10
2215.0
20
45881.0
0
VERTEX
8
0
10
2217.5
20
45881.66987298108
0
VERTEX
8
0
10
2219.330127018922
20
45883.5
0
VERTEX
8
0
10
2220.0
20
45886.0
0
VERTEX
8
0
10
2225.0
20
45886.0
0
SEQEND
0
POLYLINE
8
0
66
1
10
0.0
20
0.0
30
0.0
0
VERTEX
8
0
10
2220.0
20
45886.0
0
VERTEX
8
0
10
2219.330127018922
20
45883.5
0
VERTEX
8
0
10
2217.5
20
45881.66987298108
0
VERTEX
8
0
10
2215.0
20
45881.0
0
VERTEX
8
0
10
2215.0
20
45886.0
0
VERTEX
8
0
10
2215.0
20
45886.0
0
VERTEX
8
0
10
2215.0
20
45886.0
0
VERTEX
8
0
10
2215.0
20
45886.0
0
VERTEX
8
0
10
2220.0
20
45886.0
0
SEQEND
0
POLYLINE
8
0
66
1
10
0.0
20
0.0
30
0.0
0
VERTEX
8
0
10
2105.0
20
47876.0
0
VERTEX
8
0
10
2105.0
20
47866.0
0
VERTEX
8
0
10
2115.0
20
47866.0
0
VERTEX
8
0
10
2115.0
20
47876.0
0
VERTEX
8
0
10
2105.0
20
47876.0
0
SEQEND
0
POLYLINE
8
0
66
1
10
0.0
20
0.0
30
0.0
0
VERTEX
8
0
10
2105.0
20
47866.0
0
VERTEX
8
0
10
2106.3397459621556
20
47871.0
0
VERTEX
8
0
10
2110.0
20
47874.660254037844
0
VERTEX
8
0
10
2115.0
20
47876.0
0
VERTEX
8
0
10
2115.0
20
47871.0
0
VERTEX
8
0
10
2112.5
20
47870.33012701892
0
VERTEX
8
0
10
2110.669872981078
20
47868.5
0
VERTEX
8
0
10
2110.0
20
47866.0
0
VERTEX
8
0
10
2105.0
20
47866.0
0
SEQEND
0
POLYLINE
8
0
66
1
10
0.0
20
0.0
30
0.0
0
VERTEX
8
0
10
2110.0
20
47866.0
0
VERTEX
8
0
10
2110.669872981078
20
47868.5
0
VERTEX
8
0
10
2112.5
20
47870.33012701892
0
VERTEX
8
0
10
2115.0
20
47871.0
0
VERTEX
8
0
10
2115.0
20
47866.0
0
VERTEX
8
0
10
2115.0
20
47866.0
0
VERTEX
8
0
10
2115.0
20
47866.0
0
VERTEX
8
0
10
2115.0
20
47866.0
0
VERTEX
8
0
10
2110.0
20
47866.0
0
SEQEND
0
POLYLINE
8
0
66
1
10
0.0
20
0.0
30
0.0
0
VERTEX
8
0
10
2115.0
20
45876.0
0
VERTEX
8
0
10
2115.0
20
45886.0
0
VERTEX
8
0
10
2105.0
20
45886.0
0
VERTEX
8
0
10
2105.0
20
45876.0
0
VERTEX
8
0
10
2115.0
20
45876.0
0
SEQEND
0
POLYLINE
8
0
66
1
10
0.0
20
0.0
30
0.0
0
VERTEX
8
0
10
2105.0
20
45886.0
0
VERTEX
8
0
10
2106.3397459621556
20
45881.0
0
VERTEX
8
0
10
2110.0
20
45877.339745962156
0
VERTEX
8
0
10
2115.0
20
45876.0
0
VERTEX
8
0
10
2115.0
20
45881.0
0
VERTEX
8
0
10
2112.5
20
45881.66987298108
0
VERTEX
8
0
10
2110.669872981078
20
45883.5
0
VERTEX
8
0
10
2110.0
20
45886.0
0
VERTEX
8
0
10
2105.0
20
45886.0
0
SEQEND
0
POLYLINE
8
0
66
1
10
0.0
20
0.0
30
0.0
0
VERTEX
8
0
10
2110.0
20
45886.0
0
VERTEX
8
0
10
2110.669872981078
20
45883.5
0
VERTEX
8
0
10
2112.5
20
45881.66987298108
0
VERTEX
8
0
10
2115.0
20
45881.0
0
VERTEX
8
0
10
2115.0
20
45886.0
0
VERTEX
8
0
10
2115.0
20
45886.0
0
VERTEX
8
0
10
2115.0
20
45886.0
0
VERTEX
8
0
10
2115.0
20
45886.0
0
VERTEX
8
0
10
2110.0
20
45886.0
0
SEQEND
0
POLYLINE
8
0
66
1
10
0.0
20
0.0
30
0.0
0
VERTEX
8
0
10
2510.5
20
46050.0
0
VERTEX
8
0
10
2510.5
20
46055.0
0
VERTEX
8
0
10
2505.5
20
46055.0
0
VERTEX
8
0
10
2505.5
20
46050.0
0
VERTEX
8
0
10
2510.5
20
46050.0
0
SEQEND
0
POLYLINE
8
0
66
1
10
0.0
20
0.0
30
0.0
0
VERTEX
8
0
10
2505.5
20
46055.0
0
VERTEX
8
0
10
2506.169872981078
20
46052.5
0
VERTEX
8
0
10
2508.0
20
46050.66987298108
0
VERTEX
8
0
10
2510.5
20
46050.0
0
VERTEX
8
0
10
2510.5
20
46052.5
0
VERTEX
8
0
10
2509.25
20
46052.83493649054
0
VERTEX
8
0
10
2508.334936490539
20
46053.75
0
VERTEX
8
0
10
2508.0
20
46055.0
0
VERTEX
8
0
10
2505.5
20
46055.0
0
SEQEND
0
POLYLINE
8
0
66
1
10
0.0
20
0.0
30
0.0
0
VERTEX
8
0
10
2508.0
20
46055.0
0
VERTEX
8
0
10
2508.334936490539
20
46053.75
0
VERTEX
8
0
10
2509.25
20
46052.83493649054
0
VERTEX
8
0
10
2510.5
20
46052.5
0
VERTEX
8
0
10
2510.5
20
46055.0
0
VERTEX
8
0
10
2510.5
20
46055.0
0
VERTEX
8
0
10
2510.5
20
46055.0
0
VERTEX
8
0
10
2510.5
20
46055.0
0
VERTEX
8
0
10
2508.0
20
46055.0
0
SEQEND
0
POLYLINE
8
0
66
1
10
0.0
20
0.0
30
0.0
0
VERTEX
8
0
10
2505.5
20
46028.0
0
VERTEX
8
0
10
2505.5
20
46023.0
0
VERTEX
8
0
10
2510.5
20
46023.0
0
VERTEX
8
0
10
2510.5
20
46028.0
0
VERTEX
8
0
10
2505.5
20
46028.0
0
SEQEND
0
POLYLINE
8
0
66
1
10
0.0
20
0.0
30
0.0
0
VERTEX
8
0
10
2505.5
20
46023.0
0
VERTEX
8
0
10
2506.169872981078
20
46025.5
0
VERTEX
8
0
10
2508.0
20
46027.33012701892
0
VERTEX
8
0
10
2510.5
20
46028.0
0
VERTEX
8
0
10
2510.5
20
46025.5
0
VERTEX
8
0
10
2509.25
20
46025.16506350946
0
VERTEX
8
0
10
2508.334936490539
20
46024.25
0
VERTEX
8
0
10
2508.0
20
46023.0
0
VERTEX
8
0
10
2505.5
20
46023.0
0
SEQEND
0
POLYLINE
8
0
66
1
10
0.0
20
0.0
30
0.0
0
VERTEX
8
0
10
2508.0
20
46023.0
0
VERTEX
8
0
10
2508.334936490539
20
46024.25
0
VERTEX
8
0
10
2509.25
20
46025.16506350946
0
VERTEX
8
0
10
2510.5
20
46025.5
0
VERTEX
8
0
10
2510.5
20
46023.0
0
VERTEX
8
0
10
2510.5
20
46023.0
0
VERTEX
8
0
10
2510.5
20
46023.0
0
VERTEX
8
0
10
2510.5
20
46023.0
0
VERTEX
8
0
10
2508.0
20
46023.0
0
SEQEND
0
POLYLINE
8
0
66
1
10
0.0
20
0.0
30
0.0
0
VERTEX
8
0
10
2500.5
20
46064.0
0
VERTEX
8
0
10
2500.5
20
46059.0
0
VERTEX
8
0
10
2505.5
20
46059.0
0
VERTEX
8
0
10
2505.5
20
46064.0
0
VERTEX
8
0
10
2500.5
20
46064.0
0
SEQEND
0
POLYLINE
8
0
66
1
10
0.0
20
0.0
30
0.0
0
VERTEX
8
0
10
2505.5
20
46059.0
0
VERTEX
8
0
10
2504.830127018922
20
46061.5
0
VERTEX
8
0
10
2503.0
20
46063.33012701892
0
VERTEX
8
0
10
2500.5
20
46064.0
0
VERTEX
8
0
10
2500.5
20
46061.5
0
VERTEX
8
0
10
2501.75
20
46061.16506350946
0
VERTEX
8
0
10
2502.665063509461
20
46060.25
0
VERTEX
8
0
10
2503.0
20
46059.0
0
VERTEX
8
0
10
2505.5
20
46059.0
0
SEQEND
0
POLYLINE
8
0
66
1
10
0.0
20
0.0
30
0.0
0
VERTEX
8
0
10
2503.0
20
46059.0
0
VERTEX
8
0
10
2502.665063509461
20
46060.25
0
VERTEX
8
0
10
2501.75
20
46061.16506350946
0
VERTEX
8
0
10
2500.5
20
46061.5
0
VERTEX
8
0
10
2500.5
20
46059.0
0
VERTEX
8
0
10
2500.5
20
46059.0
0
VERTEX
8
0
10
2500.5
20
46059.0
0
VERTEX
8
0
10
2500.5
20
46059.0
0
VERTEX
8
0
10
2503.0
20
46059.0
0
SEQEND
0
POLYLINE
8
0
66
1
10
0.0
20
0.0
30
0.0
0
VERTEX
8
0
10
2505.5
20
46014.0
0
VERTEX
8
0
10
2505.5
20
46019.0
0
VERTEX
8
0
10
2500.5
20
46019.0
0
VERTEX
8
0
10
2500.5
20
46014.0
0
VERTEX
8
0
10
2505.5
20
46014.0
0
SEQEND
0
POLYLINE
8
0
66
1
10
0.0
20
0.0
30
0.0
0
VERTEX
8
0
10
2505.5
20
46019.0
0
VERTEX
8
0
10
2504.830127018922
20
46016.5
0
VERTEX
8
0
10
2503.0
20
46014.66987298108
0
VERTEX
8
0
10
2500.5
20
46014.0
0
VERTEX
8
0
10
2500.5
20
46016.5
0
VERTEX
8
0
10
2501.75
20
46016.83493649054
0
VERTEX
8
0
10
2502.665063509461
20
46017.75
0
VERTEX
8
0
10
2503.0
20
46019.0
0
VERTEX
8
0
10
2505.5
20
46019.0
0
SEQEND
0
POLYLINE
8
0
66
1
10
0.0
20
0.0
30
0.0
0
VERTEX
8
0
10
2503.0
20
46019.0
0
VERTEX
8
0
10
2502.665063509461
20
46017.75
0
VERTEX
8
0
10
2501.75
20
46016.83493649054
0
VERTEX
8
0
10
2500.5
20
46016.5
0
VERTEX
8
0
10
2500.5
20
46019.0
0
VERTEX
8
0
10
2500.5
20
46019.0
0
VERTEX
8
0
10
2500.5
20
46019.0
0
VERTEX
8
0
10
2500.5
20
46019.0
0
VERTEX
8
0
10
2503.0
20
46019.0
0
SEQEND
0
POLYLINE
8
0
66
1
10
0.0
20
0.0
30
0.0
0
VERTEX
8
0
10
2230.0
20
46064.0
0
VERTEX
8
0
10
2230.0
20
46069.0
0
VERTEX
8
0
10
2225.0
20
46069.0
0
VERTEX
8
0
10
2225.0
20
46064.0
0
VERTEX
8
0
10
2230.0
20
46064.0
0
SEQEND
0
POLYLINE
8
0
66
1
10
0.0
20
0.0
30
0.0
0
VERTEX
8
0
10
2225.0
20
46069.0
0
VERTEX
8
0
10
2225.669872981078
20
46066.5
0
VERTEX
8
0
10
2227.5
20
46064.66987298108
0
VERTEX
8
0
10
2230.0
20
46064.0
0
VERTEX
8
0
10
2230.0
20
46066.5
0
VERTEX
8
0
10
2228.75
20
46066.83493649054
0
VERTEX
8
0
10
2227.834936490539
20
46067.75
0
VERTEX
8
0
10
2227.5
20
46069.0
0
VERTEX
8
0
10
2225.0
20
46069.0
0
SEQEND
0
POLYLINE
8
0
66
1
10
0.0
20
0.0
30
0.0
0
VERTEX
8
0
10
2227.5
20
46069.0
0
VERTEX
8
0
10
2227.834936490539
20
46067.75
0
VERTEX
8
0
10
2228.75
20
46066.83493649054
0
VERTEX
8
0
10
2230.0
20
46066.5
0
VERTEX
8
0
10
2230.0
20
46069.0
0
VERTEX
8
0
10
2230.0
20
46069.0
0
VERTEX
8
0
10
2230.0
20
46069.0
0
VERTEX
8
0
10
2230.0
20
46069.0
0
VERTEX
8
0
10
2227.5
20
46069.0
0
SEQEND
0
POLYLINE
8
0
66
1
10
0.0
20
0.0
30
0.0
0
VERTEX
8
0
10
2225.0
20
46014.0
0
VERTEX
8
0
10
2225.0
20
46009.0
0
VERTEX
8
0
10
2230.0
20
46009.0
0
VERTEX
8
0
10
2230.0
20
46014.0
0
VERTEX
8
0
10
2225.0
20
46014.0
0
SEQEND
0
POLYLINE
8
0
66
1
10
0.0
20
0.0
30
0.0
0
VERTEX
8
0
10
2225.0
20
46009.0
0
VERTEX
8
0
10
2225.669872981078
20
46011.5
0
VERTEX
8
0
10
2227.5
20
46013.33012701892
0
VERTEX
8
0
10
2230.0
20
46014.0
0
VERTEX
8
0
10
2230.0
20
46011.5
0
VERTEX
8
0
10
2228.75
20
46011.16506350946
0
VERTEX
8
0
10
2227.834936490539
20
46010.25
0
VERTEX
8
0
10
2227.5
20
46009.0
0
VERTEX
8
0
10
2225.0
20
46009.0
0
SEQEND
0
POLYLINE
8
0
66
1
10
0.0
20
0.0
30
0.0
0
VERTEX
8
0
10
2227.5
20
46009.0
0
VERTEX
8
0
10
2227.834936490539
20
46010.25
0
VERTEX
8
0
10
2228.75
20
46011.16506350946
0
VERTEX
8
0
10
2230.0
20
46011.5
0
VERTEX
8
0
10
2230.0
20
46009.0
0
VERTEX
8
0
10
2230.0
20
46009.0
0
VERTEX
8
0
10
2230.0
20
46009.0
0
VERTEX
8
0
10
2230.0
20
46009.0
0
VERTEX
8
0
10
2227.5
20
46009.0
0
SEQEND
0
POLYLINE
8
0
66
1
10
0.0
20
0.0
30
0.0
0
VERTEX
8
0
10
-100.0
20
48400.0
0
VERTEX
8
0
10
0.0
20
48400.0
0
VERTEX
8
0
10
0.0
20
48380.0
0
VERTEX
8
0
10
-80.0
20
48380.0
0
VERTEX
8
0
10
-80.0
20
48300.0
0
VERTEX
8
0
10
-100.0
20
48300.0
0
VERTEX
8
0
10
-100.0
20
48400.0
0
SEQEND
0
POLYLINE
8
0
66
1
10
0.0
20
0.0
30
0.0
0
VERTEX
8
0
10
-100.0
20
-100.0
0
VERTEX
8
0
10
0.0
20
-100.0
0
VERTEX
8
0
10
0.0
20
-80.0
0
VERTEX
8
0
10
-80.0
20
-80.0
0
VERTEX
8
0
10
-80.0
20
0.0
0
VERTEX
8
0
10
-100.0
20
0.0
0
VERTEX
8
0
10
-100.0
20
-100.0
0
SEQEND
0
POLYLINE
8
0
66
1
10
0.0
20
0.0
30
0.0
0
VERTEX
8
0
10
5550.0
20
-100.0
0
VERTEX
8
0
10
5450.0
20
-100.0
0
VERTEX
8
0
10
5450.0
20
-80.0
0
VERTEX
8
0
10
5530.0
20
-80.0
0
VERTEX
8
0
10
5530.0
20
0.0
0
VERTEX
8
0
10
5550.0
20
0.0
0
VERTEX
8
0
10
5550.0
20
-100.0
0
SEQEND
0
POLYLINE
8
0
66
1
10
0.0
20
0.0
30
0.0
0
VERTEX
8
0
10
5550.0
20
48400.0
0
VERTEX
8
0
10
5450.0
20
48400.0
0
VERTEX
8
0
10
5450.0
20
48380.0
0
VERTEX
8
0
10
5530.0
20
48380.0
0
VERTEX
8
0
10
5530.0
20
48300.0
0
VERTEX
8
0
10
5550.0
20
48300.0
0
VERTEX
8
0
10
5550.0
20
48400.0
0
SEQEND
0
POLYLINE
8
0
66
1
10
0.0
20
0.0
30
0.0
0
VERTEX
8
0
10
667.1428571428571
20
48400.0
0
VERTEX
8
0
10
747.1428571428571
20
48400.0
0
VERTEX
8
0
10
747.1428571428571
20
48380.0
0
VERTEX
8
0
10
667.1428571428571
20
48380.0
0
VERTEX
8
0
10
667.1428571428571
20
48400.0
0
SEQEND
0
POLYLINE
8
0
66
1
10
0.0
20
0.0
30
0.0
0
VERTEX
8
0
10
667.1428571428571
20
-100.0
0
VERTEX
8
0
10
747.1428571428571
20
-100.0
0
VERTEX
8
0
10
747.1428571428571
20
-80.0
0
VERTEX
8
0
10
667.1428571428571
20
-80.0
0
VERTEX
8
0
10
667.1428571428571
20
-100.0
0
SEQEND
0
POLYLINE
8
0
66
1
10
0.0
20
0.0
30
0.0
0
VERTEX
8
0
10
-100.0
20
6788.571428571428
0
VERTEX
8
0
10
-100.0
20
6868.571428571428
0
VERTEX
8
0
10
-80.0
20
6868.571428571428
0
VERTEX
8
0
10
-80.0
20
6788.571428571428
0
VERTEX
8
0
10
-100.0
20
6788.571428571428
0
SEQEND
0
POLYLINE
8
0
66
1
10
0.0
20
0.0
30
0.0
0
VERTEX
8
0
10
5550.0
20
6788.571428571428
0
VERTEX
8
0
10
5550.0
20
6868.571428571428
0
VERTEX
8
0
10
5530.0
20
6868.571428571428
0
VERTEX
8
0
10
5530.0
20
6788.571428571428
0
VERTEX
8
0
10
5550.0
20
6788.571428571428
0
SEQEND
0
POLYLINE
8
0
66
1
10
0.0
20
0.0
30
0.0
0
VERTEX
8
0
10
1474.2857142857142
20
48400.0
0
VERTEX
8
0
10
1554.2857142857142
20
48400.0
0
VERTEX
8
0
10
1554.2857142857142
20
48380.0
0
VERTEX
8
0
10
1474.2857142857142
20
48380.0
0
VERTEX
8
0
10
1474.2857142857142
20
48400.0
0
SEQEND
0
POLYLINE
8
0
66
1
10
0.0
20
0.0
30
0.0
0
VERTEX
8
0
10
1474.2857142857142
20
-100.0
0
VERTEX
8
0
10
1554.2857142857142
20
-100.0
0
VERTEX
8
0
10
1554.2857142857142
20
-80.0
0
VERTEX
8
0
10
1474.2857142857142
20
-80.0
0
VERTEX
8
0
10
1474.2857142857142
20
-100.0
0
SEQEND
0
POLYLINE
8
0
66
1
10
0.0
20
0.0
30
0.0
0
VERTEX
8
0
10
-100.0
20
13717.142857142857
0
VERTEX
8
0
10
-100.0
20
13797.142857142857
0
VERTEX
8
0
10
-80.0
20
13797.142857142857
0
VERTEX
8
0
10
-80.0
20
13717.142857142857
0
VERTEX
8
0
10
-100.0
20
13717.142857142857
0
SEQEND
0
POLYLINE
8
0
66
1
10
0.0
20
0.0
30
0.0
0
VERTEX
8
0
10
5550.0
20
13717.142857142857
0
VERTEX
8
0
10
5550.0
20
13797.142857142857
0
VERTEX
8
0
10
5530.0
20
13797.142857142857
0
VERTEX
8
0
10
5530.0
20
13717.142857142857
0
VERTEX
8
0
10
5550.0
20
13717.142857142857
0
SEQEND
0
POLYLINE
8
0
66
1
10
0.0
20
0.0
30
0.0
0
VERTEX
8
0
10
2281.428571428571
20
48400.0
0
VERTEX
8
0
10
2361.428571428571
20
48400.0
0
VERTEX
8
0
10
2361.428571428571
20
48380.0
0
VERTEX
8
0
10
2281.428571428571
20
48380.0
0
VERTEX
8
0
10
2281.428571428571
20
48400.0
0
SEQEND
0
POLYLINE
8
0
66
1
10
0.0
20
0.0
30
0.0
0
VERTEX
8
0
10
2281.428571428571
20
-100.0
0
VERTEX
8
0
10
2361.428571428571
20
-100.0
0
VERTEX
8
0
10
2361.428571428571
20
-80.0
0
VERTEX
8
0
10
2281.428571428571
20
-80.0
0
VERTEX
8
0
10
2281.428571428571
20
-100.0
0
SEQEND
0
POLYLINE
8
0
66
1
10
0.0
20
0.0
30
0.0
0
VERTEX
8
0
10
-100.0
20
20645.714285714286
0
VERTEX
8
0
10
-100.0
20
20725.714285714286
0
VERTEX
8
0
10
-80.0
20
20725.714285714286
0
VERTEX
8
0
10
-80.0
20
20645.714285714286
0
VERTEX
8
0
10
-100.0
20
20645.714285714286
0
SEQEND
0
POLYLINE
8
0
66
1
10
0.0
20
0.0
30
0.0
0
VERTEX
8
0
10
5550.0
20
20645.714285714286
0
VERTEX
8
0
10
5550.0
20
20725.714285714286
0
VERTEX
8
0
10
5530.0
20
20725.714285714286
0
VERTEX
8
0
10
5530.0
20
20645.714285714286
0
VERTEX
8
0
10
5550.0
20
20645.714285714286
0
SEQEND
0
POLYLINE
8
0
66
1
10
0.0
20
0.0
30
0.0
0
VERTEX
8
0
10
3088.5714285714284
20
48400.0
0
VERTEX
8
0
10
3168.5714285714284
20
48400.0
0
VERTEX
8
0
10
3168.5714285714284
20
48380.0
0
VERTEX
8
0
10
3088.5714285714284
20
48380.0
0
VERTEX
8
0
10
3088.5714285714284
20
48400.0
0
SEQEND
0
POLYLINE
8
0
66
1
10
0.0
20
0.0
30
0.0
0
VERTEX
8
0
10
3088.5714285714284
20
-100.0
0
VERTEX
8
0
10
3168.5714285714284
20
-100.0
0
VERTEX
8
0
10
3168.5714285714284
20
-80.0
0
VERTEX
8
0
10
3088.5714285714284
20
-80.0
0
VERTEX
8
0
10
3088.5714285714284
20
-100.0
0
SEQEND
0
POLYLINE
8
0
66
1
10
0.0
20
0.0
30
0.0
0
VERTEX
8
0
10
-100.0
20
27574.285714285714
0
VERTEX
8
0
10
-100.0
20
27654.285714285714
0
VERTEX
8
0
10
-80.0
20
27654.285714285714
0
VERTEX
8
0
10
-80.0
20
27574.285714285714
0
VERTEX
8
0
10
-100.0
20
27574.285714285714
0
SEQEND
0
POLYLINE
8
0
66
1
10
0.0
20
0.0
30
0.0
0
VERTEX
8
0
10
5550.0
20
27574.285714285714
0
VERTEX
8
0
10
5550.0
20
27654.285714285714
0
VERTEX
8
0
10
5530.0
20
27654.285714285714
0
VERTEX
8
0
10
5530.0
20
27574.285714285714
0
VERTEX
8
0
10
5550.0
20
27574.285714285714
0
SEQEND
0
POLYLINE
8
0
66
1
10
0.0
20
0.0
30
0.0
0
VERTEX
8
0
10
3895.714285714286
20
48400.0
0
VERTEX
8
0
10
3975.714285714286
20
48400.0
0
VERTEX
8
0
10
3975.714285714286
20
48380.0
0
VERTEX
8
0
10
3895.714285714286
20
48380.0
0
VERTEX
8
0
10
3895.714285714286
20
48400.0
0
SEQEND
0
POLYLINE
8
0
66
1
10
0.0
20
0.0
30
0.0
0
VERTEX
8
0
10
3895.714285714286
20
-100.0
0
VERTEX
8
0
10
3975.714285714286
20
-100.0
0
VERTEX
8
0
10
3975.714285714286
20
-80.0
0
VERTEX
8
0
10
3895.714285714286
20
-80.0
0
VERTEX
8
0
10
3895.714285714286
20
-100.0
0
SEQEND
0
POLYLINE
8
0
66
1
10
0.0
20
0.0
30
0.0
0
VERTEX
8
0
10
-100.0
20
34502.857142857145
0
VERTEX
8
0
10
-100.0
20
34582.857142857145
0
VERTEX
8
0
10
-80.0
20
34582.857142857145
0
VERTEX
8
0
10
-80.0
20
34502.857142857145
0
VERTEX
8
0
10
-100.0
20
34502.857142857145
0
SEQEND
0
POLYLINE
8
0
66
1
10
0.0
20
0.0
30
0.0
0
VERTEX
8
0
10
5550.0
20
34502.857142857145
0
VERTEX
8
0
10
5550.0
20
34582.857142857145
0
VERTEX
8
0
10
5530.0
20
34582.857142857145
0
VERTEX
8
0
10
5530.0
20
34502.857142857145
0
VERTEX
8
0
10
5550.0
20
34502.857142857145
0
SEQEND
0
POLYLINE
8
0
66
1
10
0.0
20
0.0
30
0.0
0
VERTEX
8
0
10
4702.857142857142
20
48400.0
0
VERTEX
8
0
10
4782.857142857142
20
48400.0
0
VERTEX
8
0
10
4782.857142857142
20
48380.0
0
VERTEX
8
0
10
4702.857142857142
20
48380.0
0
VERTEX
8
0
10
4702.857142857142
20
48400.0
0
SEQEND
0
POLYLINE
8
0
66
1
10
0.0
20
0.0
30
0.0
0
VERTEX
8
0
10
4702.857142857142
20
-100.0
0
VERTEX
8
0
10
4782.857142857142
20
-100.0
0
VERTEX
8
0
10
4782.857142857142
20
-80.0
0
VERTEX
8
0
10
4702.857142857142
20
-80.0
0
VERTEX
8
0
10
4702.857142857142
20
-100.0
0
SEQEND
0
POLYLINE
8
0
66
1
10
0.0
20
0.0
30
0.0
0
VERTEX
8
0
10
-100.0
20
41431.42857142857
0
VERTEX
8
0
10
-100.0
20
41511.42857142857
0
VERTEX
8
0
10
-80.0
20
41511.42857142857
0
VERTEX
8
0
10
-80.0
20
41431.42857142857
0
VERTEX
8
0
10
-100.0
20
41431.42857142857
0
SEQEND
0
POLYLINE
8
0
66
1
10
0.0
20
0.0
30
0.0
0
VERTEX
8
0
10
5550.0
20
41431.42857142857
0
VERTEX
8
0
10
5550.0
20
41511.42857142857
0
VERTEX
8
0
10
5530.0
20
41511.42857142857
0
VERTEX
8
0
10
5530.0
20
41431.42857142857
0
VERTEX
8
0
10
5550.0
20
41431.42857142857
0
SEQEND
0
POLYLINE
8
0
66
1
10
0.0
20
0.0
30
0.0
0
VERTEX
8
0
10
200.0
20
100.0
0
VERTEX
8
0
10
200.0
20
170.0
0
VERTEX
8
0
10
252.5
20
170.0
0
VERTEX
8
0
10
252.5
20
161.25
0
VERTEX
8
0
10
217.5
20
161.25
0
VERTEX
8
0
10
217.5
20
108.75
0
VERTEX
8
0
10
252.5
20
108.75
0
VERTEX
8
0
10
252.5
20
100.0
0
VERTEX
8
0
10
200.0
20
100.0
0
VERTEX
8
0
10
200.0
20
100.0
0
SEQEND
0
POLYLINE
8
0
66
1
10
0.0
20
0.0
30
0.0
0
VERTEX
8
0
10
270.0
20
100.0
0
VERTEX
8
0
10
322.5
20
100.0
0
VERTEX
8
0
10
322.5
20
108.75
0
VERTEX
8
0
10
305.0
20
108.75
0
VERTEX
8
0
10
305.0
20
170.0
0
VERTEX
8
0
10
287.5
20
170.0
0
VERTEX
8
0
10
270.0
20
161.25
0
VERTEX
8
0
10
270.0
20
152.5
0
VERTEX
8
0
10
287.5
20
152.5
0
VERTEX
8
0
10
287.5
20
108.75
0
VERTEX
8
0
10
270.0
20
108.75
0
VERTEX
8
0
10
270.0
20
100.0
0
VERTEX
8
0
10
270.0
20
100.0
0
SEQEND
0
POLYLINE
8
0
66
1
10
0.0
20
0.0
30
0.0
0
VERTEX
8
0
10
340.0
20
100.0
0
VERTEX
8
0
10
357.5
20
100.0
0
VERTEX
8
0
10
357.5
20
135.0
0
VERTEX
8
0
10
375.0
20
135.0
0
VERTEX
8
0
10
375.0
20
100.0
0
VERTEX
8
0
10
392.5
20
100.0
0
VERTEX
8
0
10
392.5
20
170.0
0
VERTEX
8
0
10
375.0
20
170.0
0
VERTEX
8
0
10
375.0
20
143.75
0
VERTEX
8
0
10
357.5
20
143.75
0
VERTEX
8
0
10
357.5
20
170.0
0
VERTEX
8
0
10
340.0
20
170.0
0
VERTEX
8
0
10
340.0
20
100.0
0
VERTEX
8
0
10
340.0
20
100.0
0
SEQEND
0
ENDBLK
0
ENDSEC
0
SECTION
2
ENTITIES
0
INSERT
2
C1H
8
0
10
0
20
0
0
ENDSEC
0
EOF
