0
SECTION
2
HEADER
9
$ACADVER
1
AC1006
9
$INSBASE
10
0.0
20
0.0
30
0.0
9
$EXTMIN
10
0.0
20
0.0
9
$EXTMAX
10
0.0
20
0.0
0
ENDSEC
0
SECTION
2
TABLES
0
TABLE
2
LTYPE
70
1
0
LTYPE
2
CONTINUOUS
70
64
3
Solid line
72
65
73
0
40
0.0
0
ENDTAB
0
TABLE
2
LAYER
70
3
0
LAYER
2
PYDXF
70
64
62
7
6
continuous
0
LAYER
2
GAP
70
64
62
1
6
continuous
0
LAYER
2
PIN
70
64
62
3
6
continuous
0
ENDTAB
0
TABLE
2
STYLE
70
1
0
STYLE
2
STANDARD
70
0
40
0
41
40
50
50
71
0
42
1
3
ARIAL.TTF
4

0
ENDTAB
0
TABLE
2
VIEW
70
0
0
ENDTAB
0
ENDSEC
0
SECTION
2
BLOCKS
0
BLOCK
8
GAP
2
MM2UGAP
70
0
10
0
20
0
30
0
3
MM2UGAP
0
POLYLINE
8
0
66
1
10
0.0
20
0.0
30
0.0
0
VERTEX
8
0
10
-1950.0
20
12170.0
0
VERTEX
8
0
10
-1950.0
20
12095.0
0
VERTEX
8
0
10
-1650.0
20
12095.0
0
VERTEX
8
0
10
-1650.0
20
12170.0
0
VERTEX
8
0
10
-1950.0
20
12170.0
0
SEQEND
0
POLYLINE
8
0
66
1
10
0.0
20
0.0
30
0.0
0
VERTEX
8
0
10
-1950.0
20
12095.0
0
VERTEX
8
0
10
-1950.0
20
11770.0
0
VERTEX
8
0
10
-1650.0
20
11770.0
0
VERTEX
8
0
10
-1650.0
20
12095.0
0
VERTEX
8
0
10
-1950.0
20
12095.0
0
SEQEND
0
POLYLINE
8
0
66
1
10
0.0
20
0.0
30
0.0
0
VERTEX
8
0
10
-1800.0
20
11770.0
0
VERTEX
8
0
10
-1800.0
20
11520.0
0
VERTEX
8
0
10
-1790.15831189058
20
11520.0
0
VERTEX
8
0
10
-1650.0
20
11770.0
0
VERTEX
8
0
10
-1800.0
20
11770.0
0
SEQEND
0
POLYLINE
8
0
66
1
10
0.0
20
0.0
30
0.0
0
VERTEX
8
0
10
-1800.0
20
11770.0
0
VERTEX
8
0
10
-1800.0
20
11520.0
0
VERTEX
8
0
10
-1809.84168810942
20
11520.0
0
VERTEX
8
0
10
-1950.0
20
11770.0
0
VERTEX
8
0
10
-1800.0
20
11770.0
0
SEQEND
0
POLYLINE
8
0
66
1
10
0.0
20
0.0
30
0.0
0
VERTEX
8
0
10
-1950.0
20
14425.0
0
VERTEX
8
0
10
-1950.0
20
14350.0
0
VERTEX
8
0
10
-1650.0
20
14350.0
0
VERTEX
8
0
10
-1650.0
20
14425.0
0
VERTEX
8
0
10
-1950.0
20
14425.0
0
SEQEND
0
POLYLINE
8
0
66
1
10
0.0
20
0.0
30
0.0
0
VERTEX
8
0
10
-1950.0
20
14350.0
0
VERTEX
8
0
10
-1950.0
20
14025.0
0
VERTEX
8
0
10
-1650.0
20
14025.0
0
VERTEX
8
0
10
-1650.0
20
14350.0
0
VERTEX
8
0
10
-1950.0
20
14350.0
0
SEQEND
0
POLYLINE
8
0
66
1
10
0.0
20
0.0
30
0.0
0
VERTEX
8
0
10
-1800.0
20
14025.0
0
VERTEX
8
0
10
-1800.0
20
13775.0
0
VERTEX
8
0
10
-1790.15831189058
20
13775.0
0
VERTEX
8
0
10
-1650.0
20
14025.0
0
VERTEX
8
0
10
-1800.0
20
14025.0
0
SEQEND
0
POLYLINE
8
0
66
1
10
0.0
20
0.0
30
0.0
0
VERTEX
8
0
10
-1800.0
20
14025.0
0
VERTEX
8
0
10
-1800.0
20
13775.0
0
VERTEX
8
0
10
-1809.84168810942
20
13775.0
0
VERTEX
8
0
10
-1950.0
20
14025.0
0
VERTEX
8
0
10
-1800.0
20
14025.0
0
SEQEND
0
POLYLINE
8
0
66
1
10
0.0
20
0.0
30
0.0
0
VERTEX
8
0
10
2900.0
20
25500.0
0
VERTEX
8
0
10
2825.0
20
25500.0
0
VERTEX
8
0
10
2825.0
20
25200.0
0
VERTEX
8
0
10
2900.0
20
25200.0
0
VERTEX
8
0
10
2900.0
20
25500.0
0
SEQEND
0
POLYLINE
8
0
66
1
10
0.0
20
0.0
30
0.0
0
VERTEX
8
0
10
2825.0
20
25500.0
0
VERTEX
8
0
10
2500.0
20
25500.0
0
VERTEX
8
0
10
2500.0
20
25200.0
0
VERTEX
8
0
10
2825.0
20
25200.0
0
VERTEX
8
0
10
2825.0
20
25500.0
0
SEQEND
0
POLYLINE
8
0
66
1
10
0.0
20
0.0
30
0.0
0
VERTEX
8
0
10
2500.0
20
25350.0
0
VERTEX
8
0
10
2250.0
20
25350.0
0
VERTEX
8
0
10
2250.0
20
25340.15831189058
0
VERTEX
8
0
10
2500.0
20
25200.0
0
VERTEX
8
0
10
2500.0
20
25350.0
0
SEQEND
0
POLYLINE
8
0
66
1
10
0.0
20
0.0
30
0.0
0
VERTEX
8
0
10
2500.0
20
25350.0
0
VERTEX
8
0
10
2250.0
20
25350.0
0
VERTEX
8
0
10
2250.0
20
25359.84168810942
0
VERTEX
8
0
10
2500.0
20
25500.0
0
VERTEX
8
0
10
2500.0
20
25350.0
0
SEQEND
0
POLYLINE
8
0
66
1
10
0.0
20
0.0
30
0.0
0
VERTEX
8
0
10
3250.0
20
14425.0
0
VERTEX
8
0
10
3250.0
20
14350.0
0
VERTEX
8
0
10
3550.0
20
14350.0
0
VERTEX
8
0
10
3550.0
20
14425.0
0
VERTEX
8
0
10
3250.0
20
14425.0
0
SEQEND
0
POLYLINE
8
0
66
1
10
0.0
20
0.0
30
0.0
0
VERTEX
8
0
10
3250.0
20
14350.0
0
VERTEX
8
0
10
3250.0
20
14025.0
0
VERTEX
8
0
10
3550.0
20
14025.0
0
VERTEX
8
0
10
3550.0
20
14350.0
0
VERTEX
8
0
10
3250.0
20
14350.0
0
SEQEND
0
POLYLINE
8
0
66
1
10
0.0
20
0.0
30
0.0
0
VERTEX
8
0
10
3400.0
20
14025.0
0
VERTEX
8
0
10
3400.0
20
13775.0
0
VERTEX
8
0
10
3409.84168810942
20
13775.0
0
VERTEX
8
0
10
3550.0
20
14025.0
0
VERTEX
8
0
10
3400.0
20
14025.0
0
SEQEND
0
POLYLINE
8
0
66
1
10
0.0
20
0.0
30
0.0
0
VERTEX
8
0
10
3400.0
20
14025.0
0
VERTEX
8
0
10
3400.0
20
13775.0
0
VERTEX
8
0
10
3390.15831189058
20
13775.0
0
VERTEX
8
0
10
3250.0
20
14025.0
0
VERTEX
8
0
10
3400.0
20
14025.0
0
SEQEND
0
POLYLINE
8
0
66
1
10
0.0
20
0.0
30
0.0
0
VERTEX
8
0
10
3250.0
20
12175.0
0
VERTEX
8
0
10
3250.0
20
12100.0
0
VERTEX
8
0
10
3550.0
20
12100.0
0
VERTEX
8
0
10
3550.0
20
12175.0
0
VERTEX
8
0
10
3250.0
20
12175.0
0
SEQEND
0
POLYLINE
8
0
66
1
10
0.0
20
0.0
30
0.0
0
VERTEX
8
0
10
3250.0
20
12100.0
0
VERTEX
8
0
10
3250.0
20
11775.0
0
VERTEX
8
0
10
3550.0
20
11775.0
0
VERTEX
8
0
10
3550.0
20
12100.0
0
VERTEX
8
0
10
3250.0
20
12100.0
0
SEQEND
0
POLYLINE
8
0
66
1
10
0.0
20
0.0
30
0.0
0
VERTEX
8
0
10
3400.0
20
11775.0
0
VERTEX
8
0
10
3400.0
20
11525.0
0
VERTEX
8
0
10
3409.84168810942
20
11525.0
0
VERTEX
8
0
10
3550.0
20
11775.0
0
VERTEX
8
0
10
3400.0
20
11775.0
0
SEQEND
0
POLYLINE
8
0
66
1
10
0.0
20
0.0
30
0.0
0
VERTEX
8
0
10
3400.0
20
11775.0
0
VERTEX
8
0
10
3400.0
20
11525.0
0
VERTEX
8
0
10
3390.15831189058
20
11525.0
0
VERTEX
8
0
10
3250.0
20
11775.0
0
VERTEX
8
0
10
3400.0
20
11775.0
0
SEQEND
0
POLYLINE
8
0
66
1
10
0.0
20
0.0
30
0.0
0
VERTEX
8
0
10
2900.0
20
950.0
0
VERTEX
8
0
10
2825.0
20
950.0
0
VERTEX
8
0
10
2825.0
20
650.0
0
VERTEX
8
0
10
2900.0
20
650.0
0
VERTEX
8
0
10
2900.0
20
950.0
0
SEQEND
0
POLYLINE
8
0
66
1
10
0.0
20
0.0
30
0.0
0
VERTEX
8
0
10
2825.0
20
950.0
0
VERTEX
8
0
10
2500.0
20
950.0
0
VERTEX
8
0
10
2500.0
20
650.0
0
VERTEX
8
0
10
2825.0
20
650.0
0
VERTEX
8
0
10
2825.0
20
950.0
0
SEQEND
0
POLYLINE
8
0
66
1
10
0.0
20
0.0
30
0.0
0
VERTEX
8
0
10
2500.0
20
800.0
0
VERTEX
8
0
10
2250.0
20
800.0
0
VERTEX
8
0
10
2250.0
20
790.1583118905806
0
VERTEX
8
0
10
2500.0
20
650.0
0
VERTEX
8
0
10
2500.0
20
800.0
0
SEQEND
0
POLYLINE
8
0
66
1
10
0.0
20
0.0
30
0.0
0
VERTEX
8
0
10
2500.0
20
800.0
0
VERTEX
8
0
10
2250.0
20
800.0
0
VERTEX
8
0
10
2250.0
20
809.8416881094194
0
VERTEX
8
0
10
2500.0
20
950.0
0
VERTEX
8
0
10
2500.0
20
800.0
0
SEQEND
0
POLYLINE
8
0
66
1
10
0.0
20
0.0
30
0.0
0
VERTEX
8
0
10
-1300.0
20
650.0
0
VERTEX
8
0
10
-1225.0
20
650.0
0
VERTEX
8
0
10
-1225.0
20
950.0
0
VERTEX
8
0
10
-1300.0
20
950.0
0
VERTEX
8
0
10
-1300.0
20
650.0
0
SEQEND
0
POLYLINE
8
0
66
1
10
0.0
20
0.0
30
0.0
0
VERTEX
8
0
10
-1225.0
20
650.0
0
VERTEX
8
0
10
-900.0
20
650.0
0
VERTEX
8
0
10
-900.0
20
950.0
0
VERTEX
8
0
10
-1225.0
20
950.0
0
VERTEX
8
0
10
-1225.0
20
650.0
0
SEQEND
0
POLYLINE
8
0
66
1
10
0.0
20
0.0
30
0.0
0
VERTEX
8
0
10
-900.0
20
800.0
0
VERTEX
8
0
10
-650.0
20
800.0
0
VERTEX
8
0
10
-650.0
20
809.8416881094194
0
VERTEX
8
0
10
-900.0
20
950.0
0
VERTEX
8
0
10
-900.0
20
800.0
0
SEQEND
0
POLYLINE
8
0
66
1
10
0.0
20
0.0
30
0.0
0
VERTEX
8
0
10
-900.0
20
800.0
0
VERTEX
8
0
10
-650.0
20
800.0
0
VERTEX
8
0
10
-650.0
20
790.1583118905806
0
VERTEX
8
0
10
-900.0
20
650.0
0
VERTEX
8
0
10
-900.0
20
800.0
0
SEQEND
0
POLYLINE
8
0
66
1
10
0.0
20
0.0
30
0.0
0
VERTEX
8
0
10
-1950.0
20
12170.0
0
VERTEX
8
0
10
-1950.0
20
12095.0
0
VERTEX
8
0
10
-1650.0
20
12095.0
0
VERTEX
8
0
10
-1650.0
20
12170.0
0
VERTEX
8
0
10
-1950.0
20
12170.0
0
SEQEND
0
POLYLINE
8
0
66
1
10
0.0
20
0.0
30
0.0
0
VERTEX
8
0
10
-1950.0
20
12095.0
0
VERTEX
8
0
10
-1950.0
20
11770.0
0
VERTEX
8
0
10
-1650.0
20
11770.0
0
VERTEX
8
0
10
-1650.0
20
12095.0
0
VERTEX
8
0
10
-1950.0
20
12095.0
0
SEQEND
0
POLYLINE
8
0
66
1
10
0.0
20
0.0
30
0.0
0
VERTEX
8
0
10
-1800.0
20
11770.0
0
VERTEX
8
0
10
-1800.0
20
11520.0
0
VERTEX
8
0
10
-1790.15831189058
20
11520.0
0
VERTEX
8
0
10
-1650.0
20
11770.0
0
VERTEX
8
0
10
-1800.0
20
11770.0
0
SEQEND
0
POLYLINE
8
0
66
1
10
0.0
20
0.0
30
0.0
0
VERTEX
8
0
10
-1800.0
20
11770.0
0
VERTEX
8
0
10
-1800.0
20
11520.0
0
VERTEX
8
0
10
-1809.84168810942
20
11520.0
0
VERTEX
8
0
10
-1950.0
20
11770.0
0
VERTEX
8
0
10
-1800.0
20
11770.0
0
SEQEND
0
POLYLINE
8
0
66
1
10
0.0
20
0.0
30
0.0
0
VERTEX
8
0
10
-1950.0
20
14425.0
0
VERTEX
8
0
10
-1950.0
20
14350.0
0
VERTEX
8
0
10
-1650.0
20
14350.0
0
VERTEX
8
0
10
-1650.0
20
14425.0
0
VERTEX
8
0
10
-1950.0
20
14425.0
0
SEQEND
0
POLYLINE
8
0
66
1
10
0.0
20
0.0
30
0.0
0
VERTEX
8
0
10
-1950.0
20
14350.0
0
VERTEX
8
0
10
-1950.0
20
14025.0
0
VERTEX
8
0
10
-1650.0
20
14025.0
0
VERTEX
8
0
10
-1650.0
20
14350.0
0
VERTEX
8
0
10
-1950.0
20
14350.0
0
SEQEND
0
POLYLINE
8
0
66
1
10
0.0
20
0.0
30
0.0
0
VERTEX
8
0
10
-1800.0
20
14025.0
0
VERTEX
8
0
10
-1800.0
20
13775.0
0
VERTEX
8
0
10
-1790.15831189058
20
13775.0
0
VERTEX
8
0
10
-1650.0
20
14025.0
0
VERTEX
8
0
10
-1800.0
20
14025.0
0
SEQEND
0
POLYLINE
8
0
66
1
10
0.0
20
0.0
30
0.0
0
VERTEX
8
0
10
-1800.0
20
14025.0
0
VERTEX
8
0
10
-1800.0
20
13775.0
0
VERTEX
8
0
10
-1809.84168810942
20
13775.0
0
VERTEX
8
0
10
-1950.0
20
14025.0
0
VERTEX
8
0
10
-1800.0
20
14025.0
0
SEQEND
0
POLYLINE
8
0
66
1
10
0.0
20
0.0
30
0.0
0
VERTEX
8
0
10
2900.0
20
25500.0
0
VERTEX
8
0
10
2825.0
20
25500.0
0
VERTEX
8
0
10
2825.0
20
25200.0
0
VERTEX
8
0
10
2900.0
20
25200.0
0
VERTEX
8
0
10
2900.0
20
25500.0
0
SEQEND
0
POLYLINE
8
0
66
1
10
0.0
20
0.0
30
0.0
0
VERTEX
8
0
10
2825.0
20
25500.0
0
VERTEX
8
0
10
2500.0
20
25500.0
0
VERTEX
8
0
10
2500.0
20
25200.0
0
VERTEX
8
0
10
2825.0
20
25200.0
0
VERTEX
8
0
10
2825.0
20
25500.0
0
SEQEND
0
POLYLINE
8
0
66
1
10
0.0
20
0.0
30
0.0
0
VERTEX
8
0
10
2500.0
20
25350.0
0
VERTEX
8
0
10
2250.0
20
25350.0
0
VERTEX
8
0
10
2250.0
20
25340.15831189058
0
VERTEX
8
0
10
2500.0
20
25200.0
0
VERTEX
8
0
10
2500.0
20
25350.0
0
SEQEND
0
POLYLINE
8
0
66
1
10
0.0
20
0.0
30
0.0
0
VERTEX
8
0
10
2500.0
20
25350.0
0
VERTEX
8
0
10
2250.0
20
25350.0
0
VERTEX
8
0
10
2250.0
20
25359.84168810942
0
VERTEX
8
0
10
2500.0
20
25500.0
0
VERTEX
8
0
10
2500.0
20
25350.0
0
SEQEND
0
POLYLINE
8
0
66
1
10
0.0
20
0.0
30
0.0
0
VERTEX
8
0
10
3250.0
20
14425.0
0
VERTEX
8
0
10
3250.0
20
14350.0
0
VERTEX
8
0
10
3550.0
20
14350.0
0
VERTEX
8
0
10
3550.0
20
14425.0
0
VERTEX
8
0
10
3250.0
20
14425.0
0
SEQEND
0
POLYLINE
8
0
66
1
10
0.0
20
0.0
30
0.0
0
VERTEX
8
0
10
3250.0
20
14350.0
0
VERTEX
8
0
10
3250.0
20
14025.0
0
VERTEX
8
0
10
3550.0
20
14025.0
0
VERTEX
8
0
10
3550.0
20
14350.0
0
VERTEX
8
0
10
3250.0
20
14350.0
0
SEQEND
0
POLYLINE
8
0
66
1
10
0.0
20
0.0
30
0.0
0
VERTEX
8
0
10
3400.0
20
14025.0
0
VERTEX
8
0
10
3400.0
20
13775.0
0
VERTEX
8
0
10
3409.84168810942
20
13775.0
0
VERTEX
8
0
10
3550.0
20
14025.0
0
VERTEX
8
0
10
3400.0
20
14025.0
0
SEQEND
0
POLYLINE
8
0
66
1
10
0.0
20
0.0
30
0.0
0
VERTEX
8
0
10
3400.0
20
14025.0
0
VERTEX
8
0
10
3400.0
20
13775.0
0
VERTEX
8
0
10
3390.15831189058
20
13775.0
0
VERTEX
8
0
10
3250.0
20
14025.0
0
VERTEX
8
0
10
3400.0
20
14025.0
0
SEQEND
0
POLYLINE
8
0
66
1
10
0.0
20
0.0
30
0.0
0
VERTEX
8
0
10
3250.0
20
12175.0
0
VERTEX
8
0
10
3250.0
20
12100.0
0
VERTEX
8
0
10
3550.0
20
12100.0
0
VERTEX
8
0
10
3550.0
20
12175.0
0
VERTEX
8
0
10
3250.0
20
12175.0
0
SEQEND
0
POLYLINE
8
0
66
1
10
0.0
20
0.0
30
0.0
0
VERTEX
8
0
10
3250.0
20
12100.0
0
VERTEX
8
0
10
3250.0
20
11775.0
0
VERTEX
8
0
10
3550.0
20
11775.0
0
VERTEX
8
0
10
3550.0
20
12100.0
0
VERTEX
8
0
10
3250.0
20
12100.0
0
SEQEND
0
POLYLINE
8
0
66
1
10
0.0
20
0.0
30
0.0
0
VERTEX
8
0
10
3400.0
20
11775.0
0
VERTEX
8
0
10
3400.0
20
11525.0
0
VERTEX
8
0
10
3409.84168810942
20
11525.0
0
VERTEX
8
0
10
3550.0
20
11775.0
0
VERTEX
8
0
10
3400.0
20
11775.0
0
SEQEND
0
POLYLINE
8
0
66
1
10
0.0
20
0.0
30
0.0
0
VERTEX
8
0
10
3400.0
20
11775.0
0
VERTEX
8
0
10
3400.0
20
11525.0
0
VERTEX
8
0
10
3390.15831189058
20
11525.0
0
VERTEX
8
0
10
3250.0
20
11775.0
0
VERTEX
8
0
10
3400.0
20
11775.0
0
SEQEND
0
POLYLINE
8
0
66
1
10
0.0
20
0.0
30
0.0
0
VERTEX
8
0
10
2900.0
20
950.0
0
VERTEX
8
0
10
2825.0
20
950.0
0
VERTEX
8
0
10
2825.0
20
650.0
0
VERTEX
8
0
10
2900.0
20
650.0
0
VERTEX
8
0
10
2900.0
20
950.0
0
SEQEND
0
POLYLINE
8
0
66
1
10
0.0
20
0.0
30
0.0
0
VERTEX
8
0
10
2825.0
20
950.0
0
VERTEX
8
0
10
2500.0
20
950.0
0
VERTEX
8
0
10
2500.0
20
650.0
0
VERTEX
8
0
10
2825.0
20
650.0
0
VERTEX
8
0
10
2825.0
20
950.0
0
SEQEND
0
POLYLINE
8
0
66
1
10
0.0
20
0.0
30
0.0
0
VERTEX
8
0
10
2500.0
20
800.0
0
VERTEX
8
0
10
2250.0
20
800.0
0
VERTEX
8
0
10
2250.0
20
790.1583118905806
0
VERTEX
8
0
10
2500.0
20
650.0
0
VERTEX
8
0
10
2500.0
20
800.0
0
SEQEND
0
POLYLINE
8
0
66
1
10
0.0
20
0.0
30
0.0
0
VERTEX
8
0
10
2500.0
20
800.0
0
VERTEX
8
0
10
2250.0
20
800.0
0
VERTEX
8
0
10
2250.0
20
809.8416881094194
0
VERTEX
8
0
10
2500.0
20
950.0
0
VERTEX
8
0
10
2500.0
20
800.0
0
SEQEND
0
POLYLINE
8
0
66
1
10
0.0
20
0.0
30
0.0
0
VERTEX
8
0
10
-1300.0
20
650.0
0
VERTEX
8
0
10
-1225.0
20
650.0
0
VERTEX
8
0
10
-1225.0
20
950.0
0
VERTEX
8
0
10
-1300.0
20
950.0
0
VERTEX
8
0
10
-1300.0
20
650.0
0
SEQEND
0
POLYLINE
8
0
66
1
10
0.0
20
0.0
30
0.0
0
VERTEX
8
0
10
-1225.0
20
650.0
0
VERTEX
8
0
10
-900.0
20
650.0
0
VERTEX
8
0
10
-900.0
20
950.0
0
VERTEX
8
0
10
-1225.0
20
950.0
0
VERTEX
8
0
10
-1225.0
20
650.0
0
SEQEND
0
POLYLINE
8
0
66
1
10
0.0
20
0.0
30
0.0
0
VERTEX
8
0
10
-900.0
20
800.0
0
VERTEX
8
0
10
-650.0
20
800.0
0
VERTEX
8
0
10
-650.0
20
809.8416881094194
0
VERTEX
8
0
10
-900.0
20
950.0
0
VERTEX
8
0
10
-900.0
20
800.0
0
SEQEND
0
POLYLINE
8
0
66
1
10
0.0
20
0.0
30
0.0
0
VERTEX
8
0
10
-900.0
20
800.0
0
VERTEX
8
0
10
-650.0
20
800.0
0
VERTEX
8
0
10
-650.0
20
790.1583118905806
0
VERTEX
8
0
10
-900.0
20
650.0
0
VERTEX
8
0
10
-900.0
20
800.0
0
SEQEND
0
POLYLINE
8
0
66
1
10
0.0
20
0.0
30
0.0
0
VERTEX
8
0
10
395.0
20
9555.0
0
VERTEX
8
0
10
395.0
20
9635.0
0
VERTEX
8
0
10
-94.99999999999997
20
9635.0
0
VERTEX
8
0
10
-95.0
20
9555.0
0
VERTEX
8
0
10
395.0
20
9555.0
0
SEQEND
0
POLYLINE
8
0
66
1
10
0.0
20
0.0
30
0.0
0
VERTEX
8
0
10
1695.0
20
9555.0
0
VERTEX
8
0
10
1695.0
20
9635.0
0
VERTEX
8
0
10
1205.0
20
9635.0
0
VERTEX
8
0
10
1205.0
20
9555.0
0
VERTEX
8
0
10
1695.0
20
9555.0
0
SEQEND
0
POLYLINE
8
0
66
1
10
0.0
20
0.0
30
0.0
0
VERTEX
8
0
10
395.0
20
17155.0
0
VERTEX
8
0
10
395.0
20
17235.0
0
VERTEX
8
0
10
-94.99999999999997
20
17235.0
0
VERTEX
8
0
10
-95.0
20
17155.0
0
VERTEX
8
0
10
395.0
20
17155.0
0
SEQEND
0
POLYLINE
8
0
66
1
10
0.0
20
0.0
30
0.0
0
VERTEX
8
0
10
1695.0
20
17155.0
0
VERTEX
8
0
10
1695.0
20
17235.0
0
VERTEX
8
0
10
1205.0
20
17235.0
0
VERTEX
8
0
10
1205.0
20
17155.0
0
VERTEX
8
0
10
1695.0
20
17155.0
0
SEQEND
0
POLYLINE
8
0
66
1
10
0.0
20
0.0
30
0.0
0
VERTEX
8
0
10
400.0
20
9550.0
0
VERTEX
8
0
10
400.0000000000001
20
10050.0
0
VERTEX
8
0
10
-99.99999999999986
20
10050.0
0
VERTEX
8
0
10
-100.0
20
9550.0
0
VERTEX
8
0
10
400.0
20
9550.0
0
SEQEND
0
POLYLINE
8
0
66
1
10
0.0
20
0.0
30
0.0
0
VERTEX
8
0
10
1700.0
20
9550.0
0
VERTEX
8
0
10
1700.0000000000002
20
10050.0
0
VERTEX
8
0
10
1200.0000000000002
20
10050.0
0
VERTEX
8
0
10
1200.0
20
9550.0
0
VERTEX
8
0
10
1700.0
20
9550.0
0
SEQEND
0
POLYLINE
8
0
66
1
10
0.0
20
0.0
30
0.0
0
VERTEX
8
0
10
400.0
20
17150.0
0
VERTEX
8
0
10
400.0000000000001
20
17650.0
0
VERTEX
8
0
10
-99.99999999999986
20
17650.0
0
VERTEX
8
0
10
-100.0
20
17150.0
0
VERTEX
8
0
10
400.0
20
17150.0
0
SEQEND
0
POLYLINE
8
0
66
1
10
0.0
20
0.0
30
0.0
0
VERTEX
8
0
10
1700.0
20
17150.0
0
VERTEX
8
0
10
1700.0000000000002
20
17650.0
0
VERTEX
8
0
10
1200.0000000000002
20
17650.0
0
VERTEX
8
0
10
1200.0
20
17150.0
0
VERTEX
8
0
10
1700.0
20
17150.0
0
SEQEND
0
POLYLINE
8
0
66
1
10
0.0
20
0.0
30
0.0
0
VERTEX
8
0
10
875.0
20
-7180.0
0
VERTEX
8
0
10
875.0000000000002
20
-3480.0
0
VERTEX
8
0
10
725.0000000000002
20
-3480.0
0
VERTEX
8
0
10
725.0
20
-7180.0
0
VERTEX
8
0
10
875.0
20
-7180.0
0
SEQEND
0
POLYLINE
8
0
66
1
10
0.0
20
0.0
30
0.0
0
VERTEX
8
0
10
815.0000000000002
20
-3480.0
0
VERTEX
8
0
10
815.0000000000002
20
-3110.0
0
VERTEX
8
0
10
785.0000000000002
20
-3110.0
0
VERTEX
8
0
10
785.0000000000002
20
-3480.0
0
VERTEX
8
0
10
815.0000000000002
20
-3480.0
0
SEQEND
0
POLYLINE
8
0
66
1
10
0.0
20
0.0
30
0.0
0
VERTEX
8
0
10
797.5000000000002
20
-3110.0
0
VERTEX
8
0
10
797.5000000000002
20
-3115.0
0
VERTEX
8
0
10
802.5000000000002
20
-3115.0
0
VERTEX
8
0
10
802.5000000000002
20
-3110.0
0
VERTEX
8
0
10
797.5000000000002
20
-3110.0
0
SEQEND
0
POLYLINE
8
0
66
1
10
0.0
20
0.0
30
0.0
0
VERTEX
8
0
10
792.5000000000002
20
-3115.0
0
VERTEX
8
0
10
792.5000000000002
20
-3120.0
0
VERTEX
8
0
10
807.5000000000002
20
-3120.0
0
VERTEX
8
0
10
807.5000000000002
20
-3115.0
0
VERTEX
8
0
10
792.5000000000002
20
-3115.0
0
SEQEND
0
POLYLINE
8
0
66
1
10
0.0
20
0.0
30
0.0
0
VERTEX
8
0
10
802.5000000000002
20
-3080.0
0
VERTEX
8
0
10
802.5000000000002
20
-3075.0
0
VERTEX
8
0
10
797.5000000000002
20
-3075.0
0
VERTEX
8
0
10
797.5000000000002
20
-3080.0
0
VERTEX
8
0
10
802.5000000000002
20
-3080.0
0
SEQEND
0
POLYLINE
8
0
66
1
10
0.0
20
0.0
30
0.0
0
VERTEX
8
0
10
807.5000000000002
20
-3075.0
0
VERTEX
8
0
10
807.5000000000002
20
-3070.0
0
VERTEX
8
0
10
792.5000000000002
20
-3070.0
0
VERTEX
8
0
10
792.5000000000002
20
-3075.0
0
VERTEX
8
0
10
807.5000000000002
20
-3075.0
0
SEQEND
0
POLYLINE
8
0
66
1
10
0.0
20
0.0
30
0.0
0
VERTEX
8
0
10
815.0000000000002
20
-3080.0
0
VERTEX
8
0
10
815.0000000000003
20
-2730.0
0
VERTEX
8
0
10
785.0000000000003
20
-2730.0
0
VERTEX
8
0
10
785.0000000000002
20
-3080.0
0
VERTEX
8
0
10
815.0000000000002
20
-3080.0
0
SEQEND
0
POLYLINE
8
0
66
1
10
0.0
20
0.0
30
0.0
0
VERTEX
8
0
10
875.0000000000003
20
-2730.0
0
VERTEX
8
0
10
875.0000000000013
20
370.0
0
VERTEX
8
0
10
725.0000000000013
20
370.0
0
VERTEX
8
0
10
725.0000000000003
20
-2730.0
0
VERTEX
8
0
10
875.0000000000003
20
-2730.0
0
SEQEND
0
POLYLINE
8
0
66
1
10
0.0
20
0.0
30
0.0
0
VERTEX
8
0
10
875.0
20
-7180.0
0
VERTEX
8
0
10
875.0
20
-7140.0
0
VERTEX
8
0
10
835.0
20
-7140.0
0
VERTEX
8
0
10
835.0
20
-7180.0
0
VERTEX
8
0
10
875.0
20
-7180.0
0
SEQEND
0
POLYLINE
8
0
66
1
10
0.0
20
0.0
30
0.0
0
VERTEX
8
0
10
875.0
20
-7140.0
0
VERTEX
8
0
10
869.6410161513776
20
-7160.0
0
VERTEX
8
0
10
855.0
20
-7174.641016151378
0
VERTEX
8
0
10
835.0
20
-7180.0
0
VERTEX
8
0
10
835.0
20
-7160.0
0
VERTEX
8
0
10
845.0
20
-7157.320508075689
0
VERTEX
8
0
10
852.3205080756887
20
-7150.0
0
VERTEX
8
0
10
855.0
20
-7140.0
0
VERTEX
8
0
10
875.0
20
-7140.0
0
SEQEND
0
POLYLINE
8
0
66
1
10
0.0
20
0.0
30
0.0
0
VERTEX
8
0
10
855.0
20
-7140.0
0
VERTEX
8
0
10
852.3205080756887
20
-7150.0
0
VERTEX
8
0
10
845.0
20
-7157.320508075689
0
VERTEX
8
0
10
835.0
20
-7160.0
0
VERTEX
8
0
10
835.0
20
-7140.0
0
VERTEX
8
0
10
835.0
20
-7140.0
0
VERTEX
8
0
10
835.0
20
-7140.0
0
VERTEX
8
0
10
835.0
20
-7140.0
0
VERTEX
8
0
10
855.0
20
-7140.0
0
SEQEND
0
POLYLINE
8
0
66
1
10
0.0
20
0.0
30
0.0
0
VERTEX
8
0
10
765.0
20
-7180.0
0
VERTEX
8
0
10
765.0
20
-7140.0
0
VERTEX
8
0
10
725.0
20
-7140.0
0
VERTEX
8
0
10
725.0
20
-7180.0
0
VERTEX
8
0
10
765.0
20
-7180.0
0
SEQEND
0
POLYLINE
8
0
66
1
10
0.0
20
0.0
30
0.0
0
VERTEX
8
0
10
725.0
20
-7140.0
0
VERTEX
8
0
10
730.3589838486224
20
-7160.0
0
VERTEX
8
0
10
745.0
20
-7174.641016151378
0
VERTEX
8
0
10
765.0
20
-7180.0
0
VERTEX
8
0
10
765.0
20
-7160.0
0
VERTEX
8
0
10
755.0
20
-7157.320508075689
0
VERTEX
8
0
10
747.6794919243113
20
-7150.0
0
VERTEX
8
0
10
745.0
20
-7140.0
0
VERTEX
8
0
10
725.0
20
-7140.0
0
SEQEND
0
POLYLINE
8
0
66
1
10
0.0
20
0.0
30
0.0
0
VERTEX
8
0
10
745.0
20
-7140.0
0
VERTEX
8
0
10
747.6794919243113
20
-7150.0
0
VERTEX
8
0
10
755.0
20
-7157.320508075689
0
VERTEX
8
0
10
765.0
20
-7160.0
0
VERTEX
8
0
10
765.0
20
-7140.0
0
VERTEX
8
0
10
765.0
20
-7140.0
0
VERTEX
8
0
10
765.0
20
-7140.0
0
VERTEX
8
0
10
765.0
20
-7140.0
0
VERTEX
8
0
10
745.0
20
-7140.0
0
SEQEND
0
POLYLINE
8
0
66
1
10
0.0
20
0.0
30
0.0
0
VERTEX
8
0
10
725.0
20
-3480.0
0
VERTEX
8
0
10
725.0
20
-3520.0
0
VERTEX
8
0
10
765.0
20
-3520.0
0
VERTEX
8
0
10
765.0
20
-3480.0
0
VERTEX
8
0
10
725.0
20
-3480.0
0
SEQEND
0
POLYLINE
8
0
66
1
10
0.0
20
0.0
30
0.0
0
VERTEX
8
0
10
725.0
20
-3520.0
0
VERTEX
8
0
10
730.3589838486224
20
-3500.0
0
VERTEX
8
0
10
745.0
20
-3485.3589838486223
0
VERTEX
8
0
10
765.0
20
-3480.0
0
VERTEX
8
0
10
765.0
20
-3500.0
0
VERTEX
8
0
10
755.0
20
-3502.679491924311
0
VERTEX
8
0
10
747.6794919243113
20
-3510.0
0
VERTEX
8
0
10
745.0
20
-3520.0
0
VERTEX
8
0
10
725.0
20
-3520.0
0
SEQEND
0
POLYLINE
8
0
66
1
10
0.0
20
0.0
30
0.0
0
VERTEX
8
0
10
745.0
20
-3520.0
0
VERTEX
8
0
10
747.6794919243113
20
-3510.0
0
VERTEX
8
0
10
755.0
20
-3502.679491924311
0
VERTEX
8
0
10
765.0
20
-3500.0
0
VERTEX
8
0
10
765.0
20
-3520.0
0
VERTEX
8
0
10
765.0
20
-3520.0
0
VERTEX
8
0
10
765.0
20
-3520.0
0
VERTEX
8
0
10
765.0
20
-3520.0
0
VERTEX
8
0
10
745.0
20
-3520.0
0
SEQEND
0
POLYLINE
8
0
66
1
10
0.0
20
0.0
30
0.0
0
VERTEX
8
0
10
835.0
20
-3480.0
0
VERTEX
8
0
10
835.0
20
-3520.0
0
VERTEX
8
0
10
875.0
20
-3520.0
0
VERTEX
8
0
10
875.0
20
-3480.0
0
VERTEX
8
0
10
835.0
20
-3480.0
0
SEQEND
0
POLYLINE
8
0
66
1
10
0.0
20
0.0
30
0.0
0
VERTEX
8
0
10
875.0
20
-3520.0
0
VERTEX
8
0
10
869.6410161513776
20
-3500.0
0
VERTEX
8
0
10
855.0
20
-3485.3589838486223
0
VERTEX
8
0
10
835.0
20
-3480.0
0
VERTEX
8
0
10
835.0
20
-3500.0
0
VERTEX
8
0
10
845.0
20
-3502.679491924311
0
VERTEX
8
0
10
852.3205080756887
20
-3510.0
0
VERTEX
8
0
10
855.0
20
-3520.0
0
VERTEX
8
0
10
875.0
20
-3520.0
0
SEQEND
0
POLYLINE
8
0
66
1
10
0.0
20
0.0
30
0.0
0
VERTEX
8
0
10
855.0
20
-3520.0
0
VERTEX
8
0
10
852.3205080756887
20
-3510.0
0
VERTEX
8
0
10
845.0
20
-3502.679491924311
0
VERTEX
8
0
10
835.0
20
-3500.0
0
VERTEX
8
0
10
835.0
20
-3520.0
0
VERTEX
8
0
10
835.0
20
-3520.0
0
VERTEX
8
0
10
835.0
20
-3520.0
0
VERTEX
8
0
10
835.0
20
-3520.0
0
VERTEX
8
0
10
855.0
20
-3520.0
0
SEQEND
0
POLYLINE
8
0
66
1
10
0.0
20
0.0
30
0.0
0
VERTEX
8
0
10
785.0
20
-3480.0
0
VERTEX
8
0
10
785.0
20
-3470.0
0
VERTEX
8
0
10
775.0
20
-3470.0
0
VERTEX
8
0
10
775.0
20
-3480.0
0
VERTEX
8
0
10
785.0
20
-3480.0
0
SEQEND
0
POLYLINE
8
0
66
1
10
0.0
20
0.0
30
0.0
0
VERTEX
8
0
10
785.0
20
-3470.0
0
VERTEX
8
0
10
783.6602540378444
20
-3475.0
0
VERTEX
8
0
10
780.0
20
-3478.6602540378444
0
VERTEX
8
0
10
775.0
20
-3480.0
0
VERTEX
8
0
10
775.0
20
-3475.0
0
VERTEX
8
0
10
777.5
20
-3474.330127018922
0
VERTEX
8
0
10
779.3301270189222
20
-3472.5
0
VERTEX
8
0
10
780.0
20
-3470.0
0
VERTEX
8
0
10
785.0
20
-3470.0
0
SEQEND
0
POLYLINE
8
0
66
1
10
0.0
20
0.0
30
0.0
0
VERTEX
8
0
10
780.0
20
-3470.0
0
VERTEX
8
0
10
779.3301270189222
20
-3472.5
0
VERTEX
8
0
10
777.5
20
-3474.330127018922
0
VERTEX
8
0
10
775.0
20
-3475.0
0
VERTEX
8
0
10
775.0
20
-3470.0
0
VERTEX
8
0
10
775.0
20
-3470.0
0
VERTEX
8
0
10
775.0
20
-3470.0
0
VERTEX
8
0
10
775.0
20
-3470.0
0
VERTEX
8
0
10
780.0
20
-3470.0
0
SEQEND
0
POLYLINE
8
0
66
1
10
0.0
20
0.0
30
0.0
0
VERTEX
8
0
10
825.0
20
-3480.0
0
VERTEX
8
0
10
825.0
20
-3470.0
0
VERTEX
8
0
10
815.0
20
-3470.0
0
VERTEX
8
0
10
815.0
20
-3480.0
0
VERTEX
8
0
10
825.0
20
-3480.0
0
SEQEND
0
POLYLINE
8
0
66
1
10
0.0
20
0.0
30
0.0
0
VERTEX
8
0
10
815.0
20
-3470.0
0
VERTEX
8
0
10
816.3397459621556
20
-3475.0
0
VERTEX
8
0
10
820.0
20
-3478.6602540378444
0
VERTEX
8
0
10
825.0
20
-3480.0
0
VERTEX
8
0
10
825.0
20
-3475.0
0
VERTEX
8
0
10
822.5
20
-3474.330127018922
0
VERTEX
8
0
10
820.6698729810778
20
-3472.5
0
VERTEX
8
0
10
820.0
20
-3470.0
0
VERTEX
8
0
10
815.0
20
-3470.0
0
SEQEND
0
POLYLINE
8
0
66
1
10
0.0
20
0.0
30
0.0
0
VERTEX
8
0
10
820.0
20
-3470.0
0
VERTEX
8
0
10
820.6698729810778
20
-3472.5
0
VERTEX
8
0
10
822.5
20
-3474.330127018922
0
VERTEX
8
0
10
825.0
20
-3475.0
0
VERTEX
8
0
10
825.0
20
-3470.0
0
VERTEX
8
0
10
825.0
20
-3470.0
0
VERTEX
8
0
10
825.0
20
-3470.0
0
VERTEX
8
0
10
825.0
20
-3470.0
0
VERTEX
8
0
10
820.0
20
-3470.0
0
SEQEND
0
POLYLINE
8
0
66
1
10
0.0
20
0.0
30
0.0
0
VERTEX
8
0
10
835.0000000000013
20
370.0
0
VERTEX
8
0
10
835.0000000000013
20
330.0
0
VERTEX
8
0
10
875.0000000000013
20
330.0
0
VERTEX
8
0
10
875.0000000000013
20
370.0
0
VERTEX
8
0
10
835.0000000000013
20
370.0
0
SEQEND
0
POLYLINE
8
0
66
1
10
0.0
20
0.0
30
0.0
0
VERTEX
8
0
10
875.0000000000013
20
330.0
0
VERTEX
8
0
10
869.6410161513788
20
350.0
0
VERTEX
8
0
10
855.0000000000013
20
364.6410161513775
0
VERTEX
8
0
10
835.0000000000013
20
370.0
0
VERTEX
8
0
10
835.0000000000013
20
350.0
0
VERTEX
8
0
10
845.0000000000013
20
347.3205080756888
0
VERTEX
8
0
10
852.32050807569
20
340.0
0
VERTEX
8
0
10
855.0000000000013
20
330.0
0
VERTEX
8
0
10
875.0000000000013
20
330.0
0
SEQEND
0
POLYLINE
8
0
66
1
10
0.0
20
0.0
30
0.0
0
VERTEX
8
0
10
855.0000000000013
20
330.0
0
VERTEX
8
0
10
852.32050807569
20
340.0
0
VERTEX
8
0
10
845.0000000000013
20
347.3205080756888
0
VERTEX
8
0
10
835.0000000000013
20
350.0
0
VERTEX
8
0
10
835.0000000000013
20
330.0
0
VERTEX
8
0
10
835.0000000000013
20
330.0
0
VERTEX
8
0
10
835.0000000000013
20
330.0
0
VERTEX
8
0
10
835.0000000000013
20
330.0
0
VERTEX
8
0
10
855.0000000000013
20
330.0
0
SEQEND
0
POLYLINE
8
0
66
1
10
0.0
20
0.0
30
0.0
0
VERTEX
8
0
10
725.0000000000013
20
370.0
0
VERTEX
8
0
10
725.0000000000013
20
330.0
0
VERTEX
8
0
10
765.0000000000013
20
330.0
0
VERTEX
8
0
10
765.0000000000013
20
370.0
0
VERTEX
8
0
10
725.0000000000013
20
370.0
0
SEQEND
0
POLYLINE
8
0
66
1
10
0.0
20
0.0
30
0.0
0
VERTEX
8
0
10
725.0000000000013
20
330.0
0
VERTEX
8
0
10
730.3589838486237
20
350.0
0
VERTEX
8
0
10
745.0000000000013
20
364.6410161513775
0
VERTEX
8
0
10
765.0000000000013
20
370.0
0
VERTEX
8
0
10
765.0000000000013
20
350.0
0
VERTEX
8
0
10
755.0000000000013
20
347.3205080756888
0
VERTEX
8
0
10
747.6794919243125
20
340.0
0
VERTEX
8
0
10
745.0000000000013
20
330.0
0
VERTEX
8
0
10
725.0000000000013
20
330.0
0
SEQEND
0
POLYLINE
8
0
66
1
10
0.0
20
0.0
30
0.0
0
VERTEX
8
0
10
745.0000000000013
20
330.0
0
VERTEX
8
0
10
747.6794919243125
20
340.0
0
VERTEX
8
0
10
755.0000000000013
20
347.3205080756888
0
VERTEX
8
0
10
765.0000000000013
20
350.0
0
VERTEX
8
0
10
765.0000000000013
20
330.0
0
VERTEX
8
0
10
765.0000000000013
20
330.0
0
VERTEX
8
0
10
765.0000000000013
20
330.0
0
VERTEX
8
0
10
765.0000000000013
20
330.0
0
VERTEX
8
0
10
745.0000000000013
20
330.0
0
SEQEND
0
POLYLINE
8
0
66
1
10
0.0
20
0.0
30
0.0
0
VERTEX
8
0
10
765.0000000000013
20
-2730.0
0
VERTEX
8
0
10
765.0000000000013
20
-2690.0
0
VERTEX
8
0
10
725.0000000000013
20
-2690.0
0
VERTEX
8
0
10
725.0000000000013
20
-2730.0
0
VERTEX
8
0
10
765.0000000000013
20
-2730.0
0
SEQEND
0
POLYLINE
8
0
66
1
10
0.0
20
0.0
30
0.0
0
VERTEX
8
0
10
725.0000000000013
20
-2690.0
0
VERTEX
8
0
10
730.3589838486237
20
-2710.0
0
VERTEX
8
0
10
745.0000000000013
20
-2724.6410161513777
0
VERTEX
8
0
10
765.0000000000013
20
-2730.0
0
VERTEX
8
0
10
765.0000000000013
20
-2710.0
0
VERTEX
8
0
10
755.0000000000013
20
-2707.320508075689
0
VERTEX
8
0
10
747.6794919243125
20
-2700.0
0
VERTEX
8
0
10
745.0000000000013
20
-2690.0
0
VERTEX
8
0
10
725.0000000000013
20
-2690.0
0
SEQEND
0
POLYLINE
8
0
66
1
10
0.0
20
0.0
30
0.0
0
VERTEX
8
0
10
745.0000000000013
20
-2690.0
0
VERTEX
8
0
10
747.6794919243125
20
-2700.0
0
VERTEX
8
0
10
755.0000000000013
20
-2707.320508075689
0
VERTEX
8
0
10
765.0000000000013
20
-2710.0
0
VERTEX
8
0
10
765.0000000000013
20
-2690.0
0
VERTEX
8
0
10
765.0000000000013
20
-2690.0
0
VERTEX
8
0
10
765.0000000000013
20
-2690.0
0
VERTEX
8
0
10
765.0000000000013
20
-2690.0
0
VERTEX
8
0
10
745.0000000000013
20
-2690.0
0
SEQEND
0
POLYLINE
8
0
66
1
10
0.0
20
0.0
30
0.0
0
VERTEX
8
0
10
875.0000000000013
20
-2730.0
0
VERTEX
8
0
10
875.0000000000013
20
-2690.0
0
VERTEX
8
0
10
835.0000000000013
20
-2690.0
0
VERTEX
8
0
10
835.0000000000013
20
-2730.0
0
VERTEX
8
0
10
875.0000000000013
20
-2730.0
0
SEQEND
0
POLYLINE
8
0
66
1
10
0.0
20
0.0
30
0.0
0
VERTEX
8
0
10
875.0000000000013
20
-2690.0
0
VERTEX
8
0
10
869.6410161513788
20
-2710.0
0
VERTEX
8
0
10
855.0000000000013
20
-2724.6410161513777
0
VERTEX
8
0
10
835.0000000000013
20
-2730.0
0
VERTEX
8
0
10
835.0000000000013
20
-2710.0
0
VERTEX
8
0
10
845.0000000000013
20
-2707.320508075689
0
VERTEX
8
0
10
852.32050807569
20
-2700.0
0
VERTEX
8
0
10
855.0000000000013
20
-2690.0
0
VERTEX
8
0
10
875.0000000000013
20
-2690.0
0
SEQEND
0
POLYLINE
8
0
66
1
10
0.0
20
0.0
30
0.0
0
VERTEX
8
0
10
855.0000000000013
20
-2690.0
0
VERTEX
8
0
10
852.32050807569
20
-2700.0
0
VERTEX
8
0
10
845.0000000000013
20
-2707.320508075689
0
VERTEX
8
0
10
835.0000000000013
20
-2710.0
0
VERTEX
8
0
10
835.0000000000013
20
-2690.0
0
VERTEX
8
0
10
835.0000000000013
20
-2690.0
0
VERTEX
8
0
10
835.0000000000013
20
-2690.0
0
VERTEX
8
0
10
835.0000000000013
20
-2690.0
0
VERTEX
8
0
10
855.0000000000013
20
-2690.0
0
SEQEND
0
POLYLINE
8
0
66
1
10
0.0
20
0.0
30
0.0
0
VERTEX
8
0
10
775.0000000000013
20
-2730.0
0
VERTEX
8
0
10
775.0000000000013
20
-2740.0
0
VERTEX
8
0
10
785.0000000000013
20
-2740.0
0
VERTEX
8
0
10
785.0000000000013
20
-2730.0
0
VERTEX
8
0
10
775.0000000000013
20
-2730.0
0
SEQEND
0
POLYLINE
8
0
66
1
10
0.0
20
0.0
30
0.0
0
VERTEX
8
0
10
785.0000000000013
20
-2740.0
0
VERTEX
8
0
10
783.6602540378457
20
-2735.0
0
VERTEX
8
0
10
780.0000000000013
20
-2731.3397459621556
0
VERTEX
8
0
10
775.0000000000013
20
-2730.0
0
VERTEX
8
0
10
775.0000000000013
20
-2735.0
0
VERTEX
8
0
10
777.5000000000013
20
-2735.669872981078
0
VERTEX
8
0
10
779.3301270189235
20
-2737.5
0
VERTEX
8
0
10
780.0000000000013
20
-2740.0
0
VERTEX
8
0
10
785.0000000000013
20
-2740.0
0
SEQEND
0
POLYLINE
8
0
66
1
10
0.0
20
0.0
30
0.0
0
VERTEX
8
0
10
780.0000000000013
20
-2740.0
0
VERTEX
8
0
10
779.3301270189235
20
-2737.5
0
VERTEX
8
0
10
777.5000000000013
20
-2735.669872981078
0
VERTEX
8
0
10
775.0000000000013
20
-2735.0
0
VERTEX
8
0
10
775.0000000000013
20
-2740.0
0
VERTEX
8
0
10
775.0000000000013
20
-2740.0
0
VERTEX
8
0
10
775.0000000000013
20
-2740.0
0
VERTEX
8
0
10
775.0000000000013
20
-2740.0
0
VERTEX
8
0
10
780.0000000000013
20
-2740.0
0
SEQEND
0
POLYLINE
8
0
66
1
10
0.0
20
0.0
30
0.0
0
VERTEX
8
0
10
815.0000000000013
20
-2730.0
0
VERTEX
8
0
10
815.0000000000013
20
-2740.0
0
VERTEX
8
0
10
825.0000000000013
20
-2740.0
0
VERTEX
8
0
10
825.0000000000013
20
-2730.0
0
VERTEX
8
0
10
815.0000000000013
20
-2730.0
0
SEQEND
0
POLYLINE
8
0
66
1
10
0.0
20
0.0
30
0.0
0
VERTEX
8
0
10
815.0000000000013
20
-2740.0
0
VERTEX
8
0
10
816.3397459621568
20
-2735.0
0
VERTEX
8
0
10
820.0000000000013
20
-2731.3397459621556
0
VERTEX
8
0
10
825.0000000000013
20
-2730.0
0
VERTEX
8
0
10
825.0000000000013
20
-2735.0
0
VERTEX
8
0
10
822.5000000000013
20
-2735.669872981078
0
VERTEX
8
0
10
820.669872981079
20
-2737.5
0
VERTEX
8
0
10
820.0000000000013
20
-2740.0
0
VERTEX
8
0
10
815.0000000000013
20
-2740.0
0
SEQEND
0
POLYLINE
8
0
66
1
10
0.0
20
0.0
30
0.0
0
VERTEX
8
0
10
820.0000000000013
20
-2740.0
0
VERTEX
8
0
10
820.669872981079
20
-2737.5
0
VERTEX
8
0
10
822.5000000000013
20
-2735.669872981078
0
VERTEX
8
0
10
825.0000000000013
20
-2735.0
0
VERTEX
8
0
10
825.0000000000013
20
-2740.0
0
VERTEX
8
0
10
825.0000000000013
20
-2740.0
0
VERTEX
8
0
10
825.0000000000013
20
-2740.0
0
VERTEX
8
0
10
825.0000000000013
20
-2740.0
0
VERTEX
8
0
10
820.0000000000013
20
-2740.0
0
SEQEND
0
POLYLINE
8
0
66
1
10
0.0
20
0.0
30
0.0
0
VERTEX
8
0
10
1000.0000000000043
20
10270.0
0
VERTEX
8
0
10
1000.0000000000043
20
10370.0
0
VERTEX
8
0
10
600.0000000000043
20
10370.0
0
VERTEX
8
0
10
600.0000000000043
20
10270.0
0
VERTEX
8
0
10
1000.0000000000043
20
10270.0
0
SEQEND
0
POLYLINE
8
0
66
1
10
0.0
20
0.0
30
0.0
0
VERTEX
8
0
10
1000.0000000000043
20
10370.0
0
VERTEX
8
0
10
1000.0000000000044
20
10870.0
0
VERTEX
8
0
10
600.0000000000044
20
10870.0
0
VERTEX
8
0
10
600.0000000000043
20
10370.0
0
VERTEX
8
0
10
1000.0000000000043
20
10370.0
0
SEQEND
0
POLYLINE
8
0
66
1
10
0.0
20
0.0
30
0.0
0
VERTEX
8
0
10
1000.0000000000044
20
10870.0
0
VERTEX
8
0
10
1000.0000000000044
20
10970.0
0
VERTEX
8
0
10
600.0000000000044
20
10970.0
0
VERTEX
8
0
10
600.0000000000044
20
10870.0
0
VERTEX
8
0
10
1000.0000000000044
20
10870.0
0
SEQEND
0
POLYLINE
8
0
66
1
10
0.0
20
0.0
30
0.0
0
VERTEX
8
0
10
1600.0000000000043
20
10270.0
0
VERTEX
8
0
10
1600.0000000000043
20
10370.0
0
VERTEX
8
0
10
1200.0000000000043
20
10370.0
0
VERTEX
8
0
10
1200.0000000000043
20
10270.0
0
VERTEX
8
0
10
1600.0000000000043
20
10270.0
0
SEQEND
0
POLYLINE
8
0
66
1
10
0.0
20
0.0
30
0.0
0
VERTEX
8
0
10
1600.0000000000043
20
10370.0
0
VERTEX
8
0
10
1600.0000000000045
20
10870.0
0
VERTEX
8
0
10
1200.0000000000045
20
10870.0
0
VERTEX
8
0
10
1200.0000000000043
20
10370.0
0
VERTEX
8
0
10
1600.0000000000043
20
10370.0
0
SEQEND
0
POLYLINE
8
0
66
1
10
0.0
20
0.0
30
0.0
0
VERTEX
8
0
10
1600.0000000000045
20
10870.0
0
VERTEX
8
0
10
1600.0000000000045
20
10970.0
0
VERTEX
8
0
10
1200.0000000000045
20
10970.0
0
VERTEX
8
0
10
1200.0000000000045
20
10870.0
0
VERTEX
8
0
10
1600.0000000000045
20
10870.0
0
SEQEND
0
POLYLINE
8
0
66
1
10
0.0
20
0.0
30
0.0
0
VERTEX
8
0
10
400.0000000000043
20
10270.0
0
VERTEX
8
0
10
400.0000000000043
20
10370.0
0
VERTEX
8
0
10
4.348521542851813e-12
20
10370.0
0
VERTEX
8
0
10
4.320099833421409e-12
20
10270.0
0
VERTEX
8
0
10
400.0000000000043
20
10270.0
0
SEQEND
0
POLYLINE
8
0
66
1
10
0.0
20
0.0
30
0.0
0
VERTEX
8
0
10
400.0000000000043
20
10370.0
0
VERTEX
8
0
10
400.0000000000045
20
10870.0
0
VERTEX
8
0
10
4.490630090003833e-12
20
10870.0
0
VERTEX
8
0
10
4.348521542851813e-12
20
10370.0
0
VERTEX
8
0
10
400.0000000000043
20
10370.0
0
SEQEND
0
POLYLINE
8
0
66
1
10
0.0
20
0.0
30
0.0
0
VERTEX
8
0
10
400.0000000000045
20
10870.0
0
VERTEX
8
0
10
400.00000000000455
20
10970.0
0
VERTEX
8
0
10
4.519051799434237e-12
20
10970.0
0
VERTEX
8
0
10
4.490630090003833e-12
20
10870.0
0
VERTEX
8
0
10
400.0000000000045
20
10870.0
0
SEQEND
0
POLYLINE
8
0
66
1
10
0.0
20
0.0
30
0.0
0
VERTEX
8
0
10
400.0000000000043
20
10620.0
0
VERTEX
8
0
10
400.00000000000443
20
10970.0
0
VERTEX
8
0
10
300.00000000000443
20
10970.0
0
VERTEX
8
0
10
300.0000000000043
20
10620.0
0
VERTEX
8
0
10
400.0000000000043
20
10620.0
0
SEQEND
0
POLYLINE
8
GAP
66
1
10
0.0
20
0.0
30
0.0
0
VERTEX
8
GAP
10
5817.5
20
6430.0
0
VERTEX
8
GAP
10
5835.0
20
6430.0
0
VERTEX
8
GAP
10
5835.0
20
6491.25
0
VERTEX
8
GAP
10
5852.5
20
6491.25
0
VERTEX
8
GAP
10
5852.5
20
6500.0
0
VERTEX
8
GAP
10
5800.0
20
6500.0
0
VERTEX
8
GAP
10
5800.0
20
6491.25
0
VERTEX
8
GAP
10
5817.5
20
6491.25
0
VERTEX
8
GAP
10
5817.5
20
6430.0
0
VERTEX
8
GAP
10
5817.5
20
6430.0
0
SEQEND
0
POLYLINE
8
GAP
66
1
10
0.0
20
0.0
30
0.0
0
VERTEX
8
GAP
10
5870.0
20
6430.0
0
VERTEX
8
GAP
10
5870.0
20
6500.0
0
VERTEX
8
GAP
10
5922.5
20
6500.0
0
VERTEX
8
GAP
10
5922.5
20
6491.25
0
VERTEX
8
GAP
10
5887.5
20
6491.25
0
VERTEX
8
GAP
10
5887.5
20
6473.75
0
VERTEX
8
GAP
10
5905.0
20
6473.75
0
VERTEX
8
GAP
10
5905.0
20
6465.0
0
VERTEX
8
GAP
10
5887.5
20
6465.0
0
VERTEX
8
GAP
10
5887.5
20
6438.75
0
VERTEX
8
GAP
10
5922.5
20
6438.75
0
VERTEX
8
GAP
10
5922.5
20
6430.0
0
VERTEX
8
GAP
10
5870.0
20
6430.0
0
VERTEX
8
GAP
10
5870.0
20
6430.0
0
SEQEND
0
POLYLINE
8
GAP
66
1
10
0.0
20
0.0
30
0.0
0
VERTEX
8
GAP
10
5940.0
20
6430.0
0
VERTEX
8
GAP
10
5992.5
20
6430.0
0
VERTEX
8
GAP
10
5992.5
20
6473.75
0
VERTEX
8
GAP
10
5957.5
20
6473.75
0
VERTEX
8
GAP
10
5957.5
20
6491.25
0
VERTEX
8
GAP
10
5992.5
20
6491.25
0
VERTEX
8
GAP
10
5992.5
20
6500.0
0
VERTEX
8
GAP
10
5940.0
20
6500.0
0
VERTEX
8
GAP
10
5940.0
20
6465.0
0
VERTEX
8
GAP
10
5975.0
20
6465.0
0
VERTEX
8
GAP
10
5975.0
20
6438.75
0
VERTEX
8
GAP
10
5940.0
20
6438.75
0
VERTEX
8
GAP
10
5940.0
20
6430.0
0
VERTEX
8
GAP
10
5940.0
20
6430.0
0
SEQEND
0
POLYLINE
8
GAP
66
1
10
0.0
20
0.0
30
0.0
0
VERTEX
8
GAP
10
6027.5
20
6430.0
0
VERTEX
8
GAP
10
6045.0
20
6430.0
0
VERTEX
8
GAP
10
6045.0
20
6491.25
0
VERTEX
8
GAP
10
6062.5
20
6491.25
0
VERTEX
8
GAP
10
6062.5
20
6500.0
0
VERTEX
8
GAP
10
6010.0
20
6500.0
0
VERTEX
8
GAP
10
6010.0
20
6491.25
0
VERTEX
8
GAP
10
6027.5
20
6491.25
0
VERTEX
8
GAP
10
6027.5
20
6430.0
0
VERTEX
8
GAP
10
6027.5
20
6430.0
0
SEQEND
0
POLYLINE
8
GAP
66
1
10
0.0
20
0.0
30
0.0
0
VERTEX
8
GAP
10
6080.0
20
6430.0
0
VERTEX
8
GAP
10
6132.5
20
6430.0
0
VERTEX
8
GAP
10
6132.5
20
6438.75
0
VERTEX
8
GAP
10
6115.0
20
6438.75
0
VERTEX
8
GAP
10
6115.0
20
6491.25
0
VERTEX
8
GAP
10
6132.5
20
6491.25
0
VERTEX
8
GAP
10
6132.5
20
6500.0
0
VERTEX
8
GAP
10
6080.0
20
6500.0
0
VERTEX
8
GAP
10
6080.0
20
6491.25
0
VERTEX
8
GAP
10
6097.5
20
6491.25
0
VERTEX
8
GAP
10
6097.5
20
6438.75
0
VERTEX
8
GAP
10
6080.0
20
6438.75
0
VERTEX
8
GAP
10
6080.0
20
6430.0
0
VERTEX
8
GAP
10
6080.0
20
6430.0
0
SEQEND
0
POLYLINE
8
GAP
66
1
10
0.0
20
0.0
30
0.0
0
VERTEX
8
GAP
10
6150.0
20
6430.0
0
VERTEX
8
GAP
10
6167.5
20
6430.0
0
VERTEX
8
GAP
10
6167.5
20
6473.75
0
VERTEX
8
GAP
10
6185.0
20
6430.0
0
VERTEX
8
GAP
10
6202.5
20
6430.0
0
VERTEX
8
GAP
10
6202.5
20
6500.0
0
VERTEX
8
GAP
10
6185.0
20
6500.0
0
VERTEX
8
GAP
10
6185.0
20
6447.5
0
VERTEX
8
GAP
10
6167.5
20
6500.0
0
VERTEX
8
GAP
10
6150.0
20
6500.0
0
VERTEX
8
GAP
10
6150.0
20
6430.0
0
VERTEX
8
GAP
10
6150.0
20
6430.0
0
SEQEND
0
POLYLINE
8
GAP
66
1
10
0.0
20
0.0
30
0.0
0
VERTEX
8
GAP
10
6220.0
20
6430.0
0
VERTEX
8
GAP
10
6272.5
20
6430.0
0
VERTEX
8
GAP
10
6272.5
20
6465.0
0
VERTEX
8
GAP
10
6246.25
20
6465.0
0
VERTEX
8
GAP
10
6246.25
20
6456.25
0
VERTEX
8
GAP
10
6255.0
20
6456.25
0
VERTEX
8
GAP
10
6255.0
20
6438.75
0
VERTEX
8
GAP
10
6237.5
20
6438.75
0
VERTEX
8
GAP
10
6237.5
20
6491.25
0
VERTEX
8
GAP
10
6272.5
20
6491.25
0
VERTEX
8
GAP
10
6272.5
20
6500.0
0
VERTEX
8
GAP
10
6220.0
20
6500.0
0
VERTEX
8
GAP
10
6220.0
20
6430.0
0
VERTEX
8
GAP
10
6220.0
20
6430.0
0
SEQEND
0
POLYLINE
8
GAP
66
1
10
0.0
20
0.0
30
0.0
0
VERTEX
8
GAP
10
6290.0
20
6430.0
0
VERTEX
8
GAP
10
6307.5
20
6430.0
0
VERTEX
8
GAP
10
6307.5
20
6500.0
0
VERTEX
8
GAP
10
6290.0
20
6500.0
0
VERTEX
8
GAP
10
6290.0
20
6430.0
0
SEQEND
0
POLYLINE
8
GAP
66
1
10
0.0
20
0.0
30
0.0
0
VERTEX
8
GAP
10
6307.5
20
6438.75
0
VERTEX
8
GAP
10
6316.25
20
6438.75
0
VERTEX
8
GAP
10
6316.25
20
6447.5
0
VERTEX
8
GAP
10
6325.0
20
6447.5
0
VERTEX
8
GAP
10
6325.0
20
6491.25
0
VERTEX
8
GAP
10
6307.5
20
6491.25
0
VERTEX
8
GAP
10
6307.5
20
6500.0
0
VERTEX
8
GAP
10
6342.5
20
6500.0
0
VERTEX
8
GAP
10
6342.5
20
6425.625
0
VERTEX
8
GAP
10
6325.0
20
6425.625
0
VERTEX
8
GAP
10
6325.0
20
6430.0
0
VERTEX
8
GAP
10
6307.5
20
6430.0
0
VERTEX
8
GAP
10
6307.5
20
6438.75
0
SEQEND
0
POLYLINE
8
GAP
66
1
10
0.0
20
0.0
30
0.0
0
VERTEX
8
GAP
10
6360.0
20
6430.0
0
VERTEX
8
GAP
10
6412.5
20
6430.0
0
VERTEX
8
GAP
10
6412.5
20
6500.0
0
VERTEX
8
GAP
10
6395.0
20
6500.0
0
VERTEX
8
GAP
10
6395.0
20
6438.75
0
VERTEX
8
GAP
10
6377.5
20
6438.75
0
VERTEX
8
GAP
10
6377.5
20
6500.0
0
VERTEX
8
GAP
10
6360.0
20
6500.0
0
VERTEX
8
GAP
10
6360.0
20
6430.0
0
VERTEX
8
GAP
10
6360.0
20
6430.0
0
SEQEND
0
POLYLINE
8
GAP
66
1
10
0.0
20
0.0
30
0.0
0
VERTEX
8
GAP
10
6430.0
20
6430.0
0
VERTEX
8
GAP
10
6447.5
20
6430.0
0
VERTEX
8
GAP
10
6447.5
20
6500.0
0
VERTEX
8
GAP
10
6430.0
20
6500.0
0
VERTEX
8
GAP
10
6430.0
20
6430.0
0
SEQEND
0
POLYLINE
8
GAP
66
1
10
0.0
20
0.0
30
0.0
0
VERTEX
8
GAP
10
6447.5
20
6430.0
0
VERTEX
8
GAP
10
6465.0
20
6430.0
0
VERTEX
8
GAP
10
6482.5
20
6438.75
0
VERTEX
8
GAP
10
6482.5
20
6456.25
0
VERTEX
8
GAP
10
6465.0
20
6465.0
0
VERTEX
8
GAP
10
6482.5
20
6473.75
0
VERTEX
8
GAP
10
6482.5
20
6491.25
0
VERTEX
8
GAP
10
6465.0
20
6500.0
0
VERTEX
8
GAP
10
6447.5
20
6500.0
0
VERTEX
8
GAP
10
6447.5
20
6491.25
0
VERTEX
8
GAP
10
6465.0
20
6491.25
0
VERTEX
8
GAP
10
6465.0
20
6473.75
0
VERTEX
8
GAP
10
6447.5
20
6473.75
0
VERTEX
8
GAP
10
6447.5
20
6456.25
0
VERTEX
8
GAP
10
6465.0
20
6456.25
0
VERTEX
8
GAP
10
6465.0
20
6438.75
0
VERTEX
8
GAP
10
6447.5
20
6438.75
0
VERTEX
8
GAP
10
6447.5
20
6430.0
0
SEQEND
0
POLYLINE
8
GAP
66
1
10
0.0
20
0.0
30
0.0
0
VERTEX
8
GAP
10
6500.0
20
6430.0
0
VERTEX
8
GAP
10
6552.5
20
6430.0
0
VERTEX
8
GAP
10
6552.5
20
6438.75
0
VERTEX
8
GAP
10
6535.0
20
6438.75
0
VERTEX
8
GAP
10
6535.0
20
6491.25
0
VERTEX
8
GAP
10
6552.5
20
6491.25
0
VERTEX
8
GAP
10
6552.5
20
6500.0
0
VERTEX
8
GAP
10
6500.0
20
6500.0
0
VERTEX
8
GAP
10
6500.0
20
6491.25
0
VERTEX
8
GAP
10
6517.5
20
6491.25
0
VERTEX
8
GAP
10
6517.5
20
6438.75
0
VERTEX
8
GAP
10
6500.0
20
6438.75
0
VERTEX
8
GAP
10
6500.0
20
6430.0
0
VERTEX
8
GAP
10
6500.0
20
6430.0
0
SEQEND
0
POLYLINE
8
GAP
66
1
10
0.0
20
0.0
30
0.0
0
VERTEX
8
GAP
10
6587.5
20
6430.0
0
VERTEX
8
GAP
10
6605.0
20
6430.0
0
VERTEX
8
GAP
10
6605.0
20
6491.25
0
VERTEX
8
GAP
10
6622.5
20
6491.25
0
VERTEX
8
GAP
10
6622.5
20
6500.0
0
VERTEX
8
GAP
10
6570.0
20
6500.0
0
VERTEX
8
GAP
10
6570.0
20
6491.25
0
VERTEX
8
GAP
10
6587.5
20
6491.25
0
VERTEX
8
GAP
10
6587.5
20
6430.0
0
VERTEX
8
GAP
10
6587.5
20
6430.0
0
SEQEND
0
POLYLINE
8
GAP
66
1
10
0.0
20
0.0
30
0.0
0
VERTEX
8
GAP
10
200.0
20
100.0
0
VERTEX
8
GAP
10
217.5
20
100.0
0
VERTEX
8
GAP
10
217.5
20
135.0
0
VERTEX
8
GAP
10
226.25
20
108.75
0
VERTEX
8
GAP
10
235.0
20
135.0
0
VERTEX
8
GAP
10
235.0
20
100.0
0
VERTEX
8
GAP
10
252.5
20
100.0
0
VERTEX
8
GAP
10
252.5
20
170.0
0
VERTEX
8
GAP
10
235.0
20
170.0
0
VERTEX
8
GAP
10
226.25
20
143.75
0
VERTEX
8
GAP
10
217.5
20
170.0
0
VERTEX
8
GAP
10
200.0
20
170.0
0
VERTEX
8
GAP
10
200.0
20
100.0
0
VERTEX
8
GAP
10
200.0
20
100.0
0
SEQEND
0
POLYLINE
8
GAP
66
1
10
0.0
20
0.0
30
0.0
0
VERTEX
8
GAP
10
270.0
20
100.0
0
VERTEX
8
GAP
10
287.5
20
100.0
0
VERTEX
8
GAP
10
287.5
20
135.0
0
VERTEX
8
GAP
10
296.25
20
108.75
0
VERTEX
8
GAP
10
305.0
20
135.0
0
VERTEX
8
GAP
10
305.0
20
100.0
0
VERTEX
8
GAP
10
322.5
20
100.0
0
VERTEX
8
GAP
10
322.5
20
170.0
0
VERTEX
8
GAP
10
305.0
20
170.0
0
VERTEX
8
GAP
10
296.25
20
143.75
0
VERTEX
8
GAP
10
287.5
20
170.0
0
VERTEX
8
GAP
10
270.0
20
170.0
0
VERTEX
8
GAP
10
270.0
20
100.0
0
VERTEX
8
GAP
10
270.0
20
100.0
0
SEQEND
0
POLYLINE
8
GAP
66
1
10
0.0
20
0.0
30
0.0
0
VERTEX
8
GAP
10
340.0
20
100.0
0
VERTEX
8
GAP
10
392.5
20
100.0
0
VERTEX
8
GAP
10
392.5
20
108.75
0
VERTEX
8
GAP
10
357.5
20
108.75
0
VERTEX
8
GAP
10
357.5
20
117.5
0
VERTEX
8
GAP
10
392.5
20
152.5
0
VERTEX
8
GAP
10
392.5
20
170.0
0
VERTEX
8
GAP
10
340.0
20
170.0
0
VERTEX
8
GAP
10
340.0
20
161.25
0
VERTEX
8
GAP
10
375.0
20
161.25
0
VERTEX
8
GAP
10
375.0
20
152.5
0
VERTEX
8
GAP
10
340.0
20
117.5
0
VERTEX
8
GAP
10
340.0
20
100.0
0
VERTEX
8
GAP
10
340.0
20
100.0
0
SEQEND
0
POLYLINE
8
GAP
66
1
10
0.0
20
0.0
30
0.0
0
VERTEX
8
GAP
10
410.0
20
100.0
0
VERTEX
8
GAP
10
462.5
20
100.0
0
VERTEX
8
GAP
10
462.5
20
170.0
0
VERTEX
8
GAP
10
445.0
20
170.0
0
VERTEX
8
GAP
10
445.0
20
108.75
0
VERTEX
8
GAP
10
427.5
20
108.75
0
VERTEX
8
GAP
10
427.5
20
170.0
0
VERTEX
8
GAP
10
410.0
20
170.0
0
VERTEX
8
GAP
10
410.0
20
100.0
0
VERTEX
8
GAP
10
410.0
20
100.0
0
SEQEND
0
POLYLINE
8
GAP
66
1
10
0.0
20
0.0
30
0.0
0
VERTEX
8
GAP
10
6200.0
20
100.0
0
VERTEX
8
GAP
10
6200.0
20
170.0
0
VERTEX
8
GAP
10
6252.5
20
170.0
0
VERTEX
8
GAP
10
6252.5
20
161.25
0
VERTEX
8
GAP
10
6217.5
20
161.25
0
VERTEX
8
GAP
10
6217.5
20
143.75
0
VERTEX
8
GAP
10
6235.0
20
143.75
0
VERTEX
8
GAP
10
6235.0
20
135.0
0
VERTEX
8
GAP
10
6217.5
20
135.0
0
VERTEX
8
GAP
10
6217.5
20
108.75
0
VERTEX
8
GAP
10
6252.5
20
108.75
0
VERTEX
8
GAP
10
6252.5
20
100.0
0
VERTEX
8
GAP
10
6200.0
20
100.0
0
VERTEX
8
GAP
10
6200.0
20
100.0
0
SEQEND
0
POLYLINE
8
GAP
66
1
10
0.0
20
0.0
30
0.0
0
VERTEX
8
GAP
10
6270.0
20
100.0
0
VERTEX
8
GAP
10
6270.0
20
170.0
0
VERTEX
8
GAP
10
6322.5
20
170.0
0
VERTEX
8
GAP
10
6322.5
20
161.25
0
VERTEX
8
GAP
10
6287.5
20
161.25
0
VERTEX
8
GAP
10
6287.5
20
143.75
0
VERTEX
8
GAP
10
6305.0
20
143.75
0
VERTEX
8
GAP
10
6305.0
20
135.0
0
VERTEX
8
GAP
10
6287.5
20
135.0
0
VERTEX
8
GAP
10
6287.5
20
108.75
0
VERTEX
8
GAP
10
6322.5
20
108.75
0
VERTEX
8
GAP
10
6322.5
20
100.0
0
VERTEX
8
GAP
10
6270.0
20
100.0
0
VERTEX
8
GAP
10
6270.0
20
100.0
0
SEQEND
0
POLYLINE
8
GAP
66
1
10
0.0
20
0.0
30
0.0
0
VERTEX
8
GAP
10
6340.0
20
100.0
0
VERTEX
8
GAP
10
6392.5
20
100.0
0
VERTEX
8
GAP
10
6392.5
20
143.75
0
VERTEX
8
GAP
10
6357.5
20
143.75
0
VERTEX
8
GAP
10
6357.5
20
161.25
0
VERTEX
8
GAP
10
6392.5
20
161.25
0
VERTEX
8
GAP
10
6392.5
20
170.0
0
VERTEX
8
GAP
10
6340.0
20
170.0
0
VERTEX
8
GAP
10
6340.0
20
135.0
0
VERTEX
8
GAP
10
6375.0
20
135.0
0
VERTEX
8
GAP
10
6375.0
20
108.75
0
VERTEX
8
GAP
10
6340.0
20
108.75
0
VERTEX
8
GAP
10
6340.0
20
100.0
0
VERTEX
8
GAP
10
6340.0
20
100.0
0
SEQEND
0
POLYLINE
8
GAP
66
1
10
0.0
20
0.0
30
0.0
0
VERTEX
8
GAP
10
6410.0
20
100.0
0
VERTEX
8
GAP
10
6427.5
20
100.0
0
VERTEX
8
GAP
10
6427.5
20
135.0
0
VERTEX
8
GAP
10
6445.0
20
135.0
0
VERTEX
8
GAP
10
6445.0
20
100.0
0
VERTEX
8
GAP
10
6462.5
20
100.0
0
VERTEX
8
GAP
10
6462.5
20
170.0
0
VERTEX
8
GAP
10
6445.0
20
170.0
0
VERTEX
8
GAP
10
6445.0
20
143.75
0
VERTEX
8
GAP
10
6427.5
20
143.75
0
VERTEX
8
GAP
10
6427.5
20
170.0
0
VERTEX
8
GAP
10
6410.0
20
170.0
0
VERTEX
8
GAP
10
6410.0
20
100.0
0
VERTEX
8
GAP
10
6410.0
20
100.0
0
SEQEND
0
POLYLINE
8
GAP
66
1
10
0.0
20
0.0
30
0.0
0
VERTEX
8
GAP
10
6550.0
20
100.0
0
VERTEX
8
GAP
10
6602.5
20
100.0
0
VERTEX
8
GAP
10
6602.5
20
135.0
0
VERTEX
8
GAP
10
6576.25
20
135.0
0
VERTEX
8
GAP
10
6576.25
20
126.25
0
VERTEX
8
GAP
10
6585.0
20
126.25
0
VERTEX
8
GAP
10
6585.0
20
108.75
0
VERTEX
8
GAP
10
6567.5
20
108.75
0
VERTEX
8
GAP
10
6567.5
20
161.25
0
VERTEX
8
GAP
10
6602.5
20
161.25
0
VERTEX
8
GAP
10
6602.5
20
170.0
0
VERTEX
8
GAP
10
6550.0
20
170.0
0
VERTEX
8
GAP
10
6550.0
20
100.0
0
VERTEX
8
GAP
10
6550.0
20
100.0
0
SEQEND
0
POLYLINE
8
GAP
66
1
10
0.0
20
0.0
30
0.0
0
VERTEX
8
GAP
10
6620.0
20
100.0
0
VERTEX
8
GAP
10
6672.5
20
100.0
0
VERTEX
8
GAP
10
6672.5
20
170.0
0
VERTEX
8
GAP
10
6655.0
20
170.0
0
VERTEX
8
GAP
10
6655.0
20
108.75
0
VERTEX
8
GAP
10
6637.5
20
108.75
0
VERTEX
8
GAP
10
6637.5
20
170.0
0
VERTEX
8
GAP
10
6620.0
20
170.0
0
VERTEX
8
GAP
10
6620.0
20
100.0
0
VERTEX
8
GAP
10
6620.0
20
100.0
0
SEQEND
0
POLYLINE
8
GAP
66
1
10
0.0
20
0.0
30
0.0
0
VERTEX
8
GAP
10
6690.0
20
100.0
0
VERTEX
8
GAP
10
6707.5
20
100.0
0
VERTEX
8
GAP
10
6707.5
20
170.0
0
VERTEX
8
GAP
10
6690.0
20
170.0
0
VERTEX
8
GAP
10
6690.0
20
100.0
0
SEQEND
0
POLYLINE
8
GAP
66
1
10
0.0
20
0.0
30
0.0
0
VERTEX
8
GAP
10
6707.5
20
135.0
0
VERTEX
8
GAP
10
6742.5
20
135.0
0
VERTEX
8
GAP
10
6742.5
20
170.0
0
VERTEX
8
GAP
10
6707.5
20
170.0
0
VERTEX
8
GAP
10
6707.5
20
161.25
0
VERTEX
8
GAP
10
6725.0
20
161.25
0
VERTEX
8
GAP
10
6725.0
20
143.75
0
VERTEX
8
GAP
10
6707.5
20
143.75
0
VERTEX
8
GAP
10
6707.5
20
135.0
0
SEQEND
0
POLYLINE
8
GAP
66
1
10
0.0
20
0.0
30
0.0
0
VERTEX
8
GAP
10
6777.5
20
100.0
0
VERTEX
8
GAP
10
6795.0
20
100.0
0
VERTEX
8
GAP
10
6795.0
20
161.25
0
VERTEX
8
GAP
10
6812.5
20
161.25
0
VERTEX
8
GAP
10
6812.5
20
170.0
0
VERTEX
8
GAP
10
6760.0
20
170.0
0
VERTEX
8
GAP
10
6760.0
20
161.25
0
VERTEX
8
GAP
10
6777.5
20
161.25
0
VERTEX
8
GAP
10
6777.5
20
100.0
0
VERTEX
8
GAP
10
6777.5
20
100.0
0
SEQEND
0
POLYLINE
8
GAP
66
1
10
0.0
20
0.0
30
0.0
0
VERTEX
8
GAP
10
6830.0
20
100.0
0
VERTEX
8
GAP
10
6830.0
20
170.0
0
VERTEX
8
GAP
10
6882.5
20
170.0
0
VERTEX
8
GAP
10
6882.5
20
100.0
0
VERTEX
8
GAP
10
6865.0
20
100.0
0
VERTEX
8
GAP
10
6865.0
20
161.25
0
VERTEX
8
GAP
10
6847.5
20
161.25
0
VERTEX
8
GAP
10
6847.5
20
100.0
0
VERTEX
8
GAP
10
6830.0
20
100.0
0
SEQEND
0
POLYLINE
8
GAP
66
1
10
0.0
20
0.0
30
0.0
0
VERTEX
8
GAP
10
6847.5
20
135.0
0
VERTEX
8
GAP
10
6847.5
20
143.75
0
VERTEX
8
GAP
10
6865.0
20
143.75
0
VERTEX
8
GAP
10
6865.0
20
135.0
0
VERTEX
8
GAP
10
6847.5
20
135.0
0
SEQEND
0
ENDBLK
0
BLOCK
8
PIN
2
MM2UPIN
70
0
10
0
20
0
30
0
3
MM2UPIN
0
POLYLINE
8
0
66
1
10
0.0
20
0.0
30
0.0
0
VERTEX
8
0
10
-1875.0
20
12095.0
0
VERTEX
8
0
10
-1875.0
20
11770.0
0
VERTEX
8
0
10
-1725.0
20
11770.0
0
VERTEX
8
0
10
-1725.0
20
12095.0
0
VERTEX
8
0
10
-1875.0
20
12095.0
0
SEQEND
0
POLYLINE
8
0
66
1
10
0.0
20
0.0
30
0.0
0
VERTEX
8
0
10
-1800.0
20
11770.0
0
VERTEX
8
0
10
-1800.0
20
11520.0
0
VERTEX
8
0
10
-1795.0
20
11520.0
0
VERTEX
8
0
10
-1725.0
20
11770.0
0
VERTEX
8
0
10
-1800.0
20
11770.0
0
SEQEND
0
POLYLINE
8
0
66
1
10
0.0
20
0.0
30
0.0
0
VERTEX
8
0
10
-1800.0
20
11770.0
0
VERTEX
8
0
10
-1800.0
20
11520.0
0
VERTEX
8
0
10
-1805.0
20
11520.0
0
VERTEX
8
0
10
-1875.0
20
11770.0
0
VERTEX
8
0
10
-1800.0
20
11770.0
0
SEQEND
0
POLYLINE
8
0
66
1
10
0.0
20
0.0
30
0.0
0
VERTEX
8
0
10
-1875.0
20
14350.0
0
VERTEX
8
0
10
-1875.0
20
14025.0
0
VERTEX
8
0
10
-1725.0
20
14025.0
0
VERTEX
8
0
10
-1725.0
20
14350.0
0
VERTEX
8
0
10
-1875.0
20
14350.0
0
SEQEND
0
POLYLINE
8
0
66
1
10
0.0
20
0.0
30
0.0
0
VERTEX
8
0
10
-1800.0
20
14025.0
0
VERTEX
8
0
10
-1800.0
20
13775.0
0
VERTEX
8
0
10
-1795.0
20
13775.0
0
VERTEX
8
0
10
-1725.0
20
14025.0
0
VERTEX
8
0
10
-1800.0
20
14025.0
0
SEQEND
0
POLYLINE
8
0
66
1
10
0.0
20
0.0
30
0.0
0
VERTEX
8
0
10
-1800.0
20
14025.0
0
VERTEX
8
0
10
-1800.0
20
13775.0
0
VERTEX
8
0
10
-1805.0
20
13775.0
0
VERTEX
8
0
10
-1875.0
20
14025.0
0
VERTEX
8
0
10
-1800.0
20
14025.0
0
SEQEND
0
POLYLINE
8
0
66
1
10
0.0
20
0.0
30
0.0
0
VERTEX
8
0
10
2825.0
20
25425.0
0
VERTEX
8
0
10
2500.0
20
25425.0
0
VERTEX
8
0
10
2500.0
20
25275.0
0
VERTEX
8
0
10
2825.0
20
25275.0
0
VERTEX
8
0
10
2825.0
20
25425.0
0
SEQEND
0
POLYLINE
8
0
66
1
10
0.0
20
0.0
30
0.0
0
VERTEX
8
0
10
2500.0
20
25350.0
0
VERTEX
8
0
10
2250.0
20
25350.0
0
VERTEX
8
0
10
2250.0
20
25345.0
0
VERTEX
8
0
10
2500.0
20
25275.0
0
VERTEX
8
0
10
2500.0
20
25350.0
0
SEQEND
0
POLYLINE
8
0
66
1
10
0.0
20
0.0
30
0.0
0
VERTEX
8
0
10
2500.0
20
25350.0
0
VERTEX
8
0
10
2250.0
20
25350.0
0
VERTEX
8
0
10
2250.0
20
25355.0
0
VERTEX
8
0
10
2500.0
20
25425.0
0
VERTEX
8
0
10
2500.0
20
25350.0
0
SEQEND
0
POLYLINE
8
0
66
1
10
0.0
20
0.0
30
0.0
0
VERTEX
8
0
10
3325.0
20
14350.0
0
VERTEX
8
0
10
3325.0
20
14025.0
0
VERTEX
8
0
10
3475.0
20
14025.0
0
VERTEX
8
0
10
3475.0
20
14350.0
0
VERTEX
8
0
10
3325.0
20
14350.0
0
SEQEND
0
POLYLINE
8
0
66
1
10
0.0
20
0.0
30
0.0
0
VERTEX
8
0
10
3400.0
20
14025.0
0
VERTEX
8
0
10
3400.0
20
13775.0
0
VERTEX
8
0
10
3405.0
20
13775.0
0
VERTEX
8
0
10
3475.0
20
14025.0
0
VERTEX
8
0
10
3400.0
20
14025.0
0
SEQEND
0
POLYLINE
8
0
66
1
10
0.0
20
0.0
30
0.0
0
VERTEX
8
0
10
3400.0
20
14025.0
0
VERTEX
8
0
10
3400.0
20
13775.0
0
VERTEX
8
0
10
3395.0
20
13775.0
0
VERTEX
8
0
10
3325.0
20
14025.0
0
VERTEX
8
0
10
3400.0
20
14025.0
0
SEQEND
0
POLYLINE
8
0
66
1
10
0.0
20
0.0
30
0.0
0
VERTEX
8
0
10
3325.0
20
12100.0
0
VERTEX
8
0
10
3325.0
20
11775.0
0
VERTEX
8
0
10
3475.0
20
11775.0
0
VERTEX
8
0
10
3475.0
20
12100.0
0
VERTEX
8
0
10
3325.0
20
12100.0
0
SEQEND
0
POLYLINE
8
0
66
1
10
0.0
20
0.0
30
0.0
0
VERTEX
8
0
10
3400.0
20
11775.0
0
VERTEX
8
0
10
3400.0
20
11525.0
0
VERTEX
8
0
10
3405.0
20
11525.0
0
VERTEX
8
0
10
3475.0
20
11775.0
0
VERTEX
8
0
10
3400.0
20
11775.0
0
SEQEND
0
POLYLINE
8
0
66
1
10
0.0
20
0.0
30
0.0
0
VERTEX
8
0
10
3400.0
20
11775.0
0
VERTEX
8
0
10
3400.0
20
11525.0
0
VERTEX
8
0
10
3395.0
20
11525.0
0
VERTEX
8
0
10
3325.0
20
11775.0
0
VERTEX
8
0
10
3400.0
20
11775.0
0
SEQEND
0
POLYLINE
8
0
66
1
10
0.0
20
0.0
30
0.0
0
VERTEX
8
0
10
2825.0
20
875.0
0
VERTEX
8
0
10
2500.0
20
875.0
0
VERTEX
8
0
10
2500.0
20
725.0
0
VERTEX
8
0
10
2825.0
20
725.0
0
VERTEX
8
0
10
2825.0
20
875.0
0
SEQEND
0
POLYLINE
8
0
66
1
10
0.0
20
0.0
30
0.0
0
VERTEX
8
0
10
2500.0
20
800.0
0
VERTEX
8
0
10
2250.0
20
800.0
0
VERTEX
8
0
10
2250.0
20
795.0
0
VERTEX
8
0
10
2500.0
20
725.0
0
VERTEX
8
0
10
2500.0
20
800.0
0
SEQEND
0
POLYLINE
8
0
66
1
10
0.0
20
0.0
30
0.0
0
VERTEX
8
0
10
2500.0
20
800.0
0
VERTEX
8
0
10
2250.0
20
800.0
0
VERTEX
8
0
10
2250.0
20
805.0
0
VERTEX
8
0
10
2500.0
20
875.0
0
VERTEX
8
0
10
2500.0
20
800.0
0
SEQEND
0
POLYLINE
8
0
66
1
10
0.0
20
0.0
30
0.0
0
VERTEX
8
0
10
-1225.0
20
725.0
0
VERTEX
8
0
10
-900.0
20
725.0
0
VERTEX
8
0
10
-900.0
20
875.0
0
VERTEX
8
0
10
-1225.0
20
875.0
0
VERTEX
8
0
10
-1225.0
20
725.0
0
SEQEND
0
POLYLINE
8
0
66
1
10
0.0
20
0.0
30
0.0
0
VERTEX
8
0
10
-900.0
20
800.0
0
VERTEX
8
0
10
-650.0
20
800.0
0
VERTEX
8
0
10
-650.0
20
805.0
0
VERTEX
8
0
10
-900.0
20
875.0
0
VERTEX
8
0
10
-900.0
20
800.0
0
SEQEND
0
POLYLINE
8
0
66
1
10
0.0
20
0.0
30
0.0
0
VERTEX
8
0
10
-900.0
20
800.0
0
VERTEX
8
0
10
-650.0
20
800.0
0
VERTEX
8
0
10
-650.0
20
795.0
0
VERTEX
8
0
10
-900.0
20
725.0
0
VERTEX
8
0
10
-900.0
20
800.0
0
SEQEND
0
POLYLINE
8
0
66
1
10
0.0
20
0.0
30
0.0
0
VERTEX
8
0
10
-1875.0
20
12095.0
0
VERTEX
8
0
10
-1875.0
20
11770.0
0
VERTEX
8
0
10
-1725.0
20
11770.0
0
VERTEX
8
0
10
-1725.0
20
12095.0
0
VERTEX
8
0
10
-1875.0
20
12095.0
0
SEQEND
0
POLYLINE
8
0
66
1
10
0.0
20
0.0
30
0.0
0
VERTEX
8
0
10
-1800.0
20
11770.0
0
VERTEX
8
0
10
-1800.0
20
11520.0
0
VERTEX
8
0
10
-1795.0
20
11520.0
0
VERTEX
8
0
10
-1725.0
20
11770.0
0
VERTEX
8
0
10
-1800.0
20
11770.0
0
SEQEND
0
POLYLINE
8
0
66
1
10
0.0
20
0.0
30
0.0
0
VERTEX
8
0
10
-1800.0
20
11770.0
0
VERTEX
8
0
10
-1800.0
20
11520.0
0
VERTEX
8
0
10
-1805.0
20
11520.0
0
VERTEX
8
0
10
-1875.0
20
11770.0
0
VERTEX
8
0
10
-1800.0
20
11770.0
0
SEQEND
0
POLYLINE
8
0
66
1
10
0.0
20
0.0
30
0.0
0
VERTEX
8
0
10
-1875.0
20
14350.0
0
VERTEX
8
0
10
-1875.0
20
14025.0
0
VERTEX
8
0
10
-1725.0
20
14025.0
0
VERTEX
8
0
10
-1725.0
20
14350.0
0
VERTEX
8
0
10
-1875.0
20
14350.0
0
SEQEND
0
POLYLINE
8
0
66
1
10
0.0
20
0.0
30
0.0
0
VERTEX
8
0
10
-1800.0
20
14025.0
0
VERTEX
8
0
10
-1800.0
20
13775.0
0
VERTEX
8
0
10
-1795.0
20
13775.0
0
VERTEX
8
0
10
-1725.0
20
14025.0
0
VERTEX
8
0
10
-1800.0
20
14025.0
0
SEQEND
0
POLYLINE
8
0
66
1
10
0.0
20
0.0
30
0.0
0
VERTEX
8
0
10
-1800.0
20
14025.0
0
VERTEX
8
0
10
-1800.0
20
13775.0
0
VERTEX
8
0
10
-1805.0
20
13775.0
0
VERTEX
8
0
10
-1875.0
20
14025.0
0
VERTEX
8
0
10
-1800.0
20
14025.0
0
SEQEND
0
POLYLINE
8
0
66
1
10
0.0
20
0.0
30
0.0
0
VERTEX
8
0
10
2825.0
20
25425.0
0
VERTEX
8
0
10
2500.0
20
25425.0
0
VERTEX
8
0
10
2500.0
20
25275.0
0
VERTEX
8
0
10
2825.0
20
25275.0
0
VERTEX
8
0
10
2825.0
20
25425.0
0
SEQEND
0
POLYLINE
8
0
66
1
10
0.0
20
0.0
30
0.0
0
VERTEX
8
0
10
2500.0
20
25350.0
0
VERTEX
8
0
10
2250.0
20
25350.0
0
VERTEX
8
0
10
2250.0
20
25345.0
0
VERTEX
8
0
10
2500.0
20
25275.0
0
VERTEX
8
0
10
2500.0
20
25350.0
0
SEQEND
0
POLYLINE
8
0
66
1
10
0.0
20
0.0
30
0.0
0
VERTEX
8
0
10
2500.0
20
25350.0
0
VERTEX
8
0
10
2250.0
20
25350.0
0
VERTEX
8
0
10
2250.0
20
25355.0
0
VERTEX
8
0
10
2500.0
20
25425.0
0
VERTEX
8
0
10
2500.0
20
25350.0
0
SEQEND
0
POLYLINE
8
0
66
1
10
0.0
20
0.0
30
0.0
0
VERTEX
8
0
10
3325.0
20
14350.0
0
VERTEX
8
0
10
3325.0
20
14025.0
0
VERTEX
8
0
10
3475.0
20
14025.0
0
VERTEX
8
0
10
3475.0
20
14350.0
0
VERTEX
8
0
10
3325.0
20
14350.0
0
SEQEND
0
POLYLINE
8
0
66
1
10
0.0
20
0.0
30
0.0
0
VERTEX
8
0
10
3400.0
20
14025.0
0
VERTEX
8
0
10
3400.0
20
13775.0
0
VERTEX
8
0
10
3405.0
20
13775.0
0
VERTEX
8
0
10
3475.0
20
14025.0
0
VERTEX
8
0
10
3400.0
20
14025.0
0
SEQEND
0
POLYLINE
8
0
66
1
10
0.0
20
0.0
30
0.0
0
VERTEX
8
0
10
3400.0
20
14025.0
0
VERTEX
8
0
10
3400.0
20
13775.0
0
VERTEX
8
0
10
3395.0
20
13775.0
0
VERTEX
8
0
10
3325.0
20
14025.0
0
VERTEX
8
0
10
3400.0
20
14025.0
0
SEQEND
0
POLYLINE
8
0
66
1
10
0.0
20
0.0
30
0.0
0
VERTEX
8
0
10
3325.0
20
12100.0
0
VERTEX
8
0
10
3325.0
20
11775.0
0
VERTEX
8
0
10
3475.0
20
11775.0
0
VERTEX
8
0
10
3475.0
20
12100.0
0
VERTEX
8
0
10
3325.0
20
12100.0
0
SEQEND
0
POLYLINE
8
0
66
1
10
0.0
20
0.0
30
0.0
0
VERTEX
8
0
10
3400.0
20
11775.0
0
VERTEX
8
0
10
3400.0
20
11525.0
0
VERTEX
8
0
10
3405.0
20
11525.0
0
VERTEX
8
0
10
3475.0
20
11775.0
0
VERTEX
8
0
10
3400.0
20
11775.0
0
SEQEND
0
POLYLINE
8
0
66
1
10
0.0
20
0.0
30
0.0
0
VERTEX
8
0
10
3400.0
20
11775.0
0
VERTEX
8
0
10
3400.0
20
11525.0
0
VERTEX
8
0
10
3395.0
20
11525.0
0
VERTEX
8
0
10
3325.0
20
11775.0
0
VERTEX
8
0
10
3400.0
20
11775.0
0
SEQEND
0
POLYLINE
8
0
66
1
10
0.0
20
0.0
30
0.0
0
VERTEX
8
0
10
2825.0
20
875.0
0
VERTEX
8
0
10
2500.0
20
875.0
0
VERTEX
8
0
10
2500.0
20
725.0
0
VERTEX
8
0
10
2825.0
20
725.0
0
VERTEX
8
0
10
2825.0
20
875.0
0
SEQEND
0
POLYLINE
8
0
66
1
10
0.0
20
0.0
30
0.0
0
VERTEX
8
0
10
2500.0
20
800.0
0
VERTEX
8
0
10
2250.0
20
800.0
0
VERTEX
8
0
10
2250.0
20
795.0
0
VERTEX
8
0
10
2500.0
20
725.0
0
VERTEX
8
0
10
2500.0
20
800.0
0
SEQEND
0
POLYLINE
8
0
66
1
10
0.0
20
0.0
30
0.0
0
VERTEX
8
0
10
2500.0
20
800.0
0
VERTEX
8
0
10
2250.0
20
800.0
0
VERTEX
8
0
10
2250.0
20
805.0
0
VERTEX
8
0
10
2500.0
20
875.0
0
VERTEX
8
0
10
2500.0
20
800.0
0
SEQEND
0
POLYLINE
8
0
66
1
10
0.0
20
0.0
30
0.0
0
VERTEX
8
0
10
-1225.0
20
725.0
0
VERTEX
8
0
10
-900.0
20
725.0
0
VERTEX
8
0
10
-900.0
20
875.0
0
VERTEX
8
0
10
-1225.0
20
875.0
0
VERTEX
8
0
10
-1225.0
20
725.0
0
SEQEND
0
POLYLINE
8
0
66
1
10
0.0
20
0.0
30
0.0
0
VERTEX
8
0
10
-900.0
20
800.0
0
VERTEX
8
0
10
-650.0
20
800.0
0
VERTEX
8
0
10
-650.0
20
805.0
0
VERTEX
8
0
10
-900.0
20
875.0
0
VERTEX
8
0
10
-900.0
20
800.0
0
SEQEND
0
POLYLINE
8
0
66
1
10
0.0
20
0.0
30
0.0
0
VERTEX
8
0
10
-900.0
20
800.0
0
VERTEX
8
0
10
-650.0
20
800.0
0
VERTEX
8
0
10
-650.0
20
795.0
0
VERTEX
8
0
10
-900.0
20
725.0
0
VERTEX
8
0
10
-900.0
20
800.0
0
SEQEND
0
POLYLINE
8
0
66
1
10
0.0
20
0.0
30
0.0
0
VERTEX
8
0
10
855.0
20
-7140.0
0
VERTEX
8
0
10
852.3205080756887
20
-7150.0
0
VERTEX
8
0
10
845.0
20
-7157.320508075689
0
VERTEX
8
0
10
835.0
20
-7160.0
0
VERTEX
8
0
10
835.0
20
-7160.0
0
VERTEX
8
0
10
845.0
20
-7157.320508075689
0
VERTEX
8
0
10
852.3205080756887
20
-7150.0
0
VERTEX
8
0
10
855.0
20
-7140.0
0
VERTEX
8
0
10
855.0
20
-7140.0
0
SEQEND
0
POLYLINE
8
0
66
1
10
0.0
20
0.0
30
0.0
0
VERTEX
8
0
10
855.0
20
-7140.0
0
VERTEX
8
0
10
852.3205080756887
20
-7150.0
0
VERTEX
8
0
10
845.0
20
-7157.320508075689
0
VERTEX
8
0
10
835.0
20
-7160.0
0
VERTEX
8
0
10
835.0
20
-7160.0
0
VERTEX
8
0
10
845.0
20
-7157.320508075689
0
VERTEX
8
0
10
852.3205080756887
20
-7150.0
0
VERTEX
8
0
10
855.0
20
-7140.0
0
VERTEX
8
0
10
855.0
20
-7140.0
0
SEQEND
0
POLYLINE
8
0
66
1
10
0.0
20
0.0
30
0.0
0
VERTEX
8
0
10
745.0
20
-7140.0
0
VERTEX
8
0
10
747.6794919243113
20
-7150.0
0
VERTEX
8
0
10
755.0
20
-7157.320508075689
0
VERTEX
8
0
10
765.0
20
-7160.0
0
VERTEX
8
0
10
765.0
20
-7160.0
0
VERTEX
8
0
10
755.0
20
-7157.320508075689
0
VERTEX
8
0
10
747.6794919243113
20
-7150.0
0
VERTEX
8
0
10
745.0
20
-7140.0
0
VERTEX
8
0
10
745.0
20
-7140.0
0
SEQEND
0
POLYLINE
8
0
66
1
10
0.0
20
0.0
30
0.0
0
VERTEX
8
0
10
745.0
20
-7140.0
0
VERTEX
8
0
10
747.6794919243113
20
-7150.0
0
VERTEX
8
0
10
755.0
20
-7157.320508075689
0
VERTEX
8
0
10
765.0
20
-7160.0
0
VERTEX
8
0
10
765.0
20
-7160.0
0
VERTEX
8
0
10
755.0
20
-7157.320508075689
0
VERTEX
8
0
10
747.6794919243113
20
-7150.0
0
VERTEX
8
0
10
745.0
20
-7140.0
0
VERTEX
8
0
10
745.0
20
-7140.0
0
SEQEND
0
POLYLINE
8
0
66
1
10
0.0
20
0.0
30
0.0
0
VERTEX
8
0
10
745.0
20
-3520.0
0
VERTEX
8
0
10
747.6794919243113
20
-3510.0
0
VERTEX
8
0
10
755.0
20
-3502.679491924311
0
VERTEX
8
0
10
765.0
20
-3500.0
0
VERTEX
8
0
10
765.0
20
-3500.0
0
VERTEX
8
0
10
755.0
20
-3502.679491924311
0
VERTEX
8
0
10
747.6794919243113
20
-3510.0
0
VERTEX
8
0
10
745.0
20
-3520.0
0
VERTEX
8
0
10
745.0
20
-3520.0
0
SEQEND
0
POLYLINE
8
0
66
1
10
0.0
20
0.0
30
0.0
0
VERTEX
8
0
10
745.0
20
-3520.0
0
VERTEX
8
0
10
747.6794919243113
20
-3510.0
0
VERTEX
8
0
10
755.0
20
-3502.679491924311
0
VERTEX
8
0
10
765.0
20
-3500.0
0
VERTEX
8
0
10
765.0
20
-3500.0
0
VERTEX
8
0
10
755.0
20
-3502.679491924311
0
VERTEX
8
0
10
747.6794919243113
20
-3510.0
0
VERTEX
8
0
10
745.0
20
-3520.0
0
VERTEX
8
0
10
745.0
20
-3520.0
0
SEQEND
0
POLYLINE
8
0
66
1
10
0.0
20
0.0
30
0.0
0
VERTEX
8
0
10
855.0
20
-3520.0
0
VERTEX
8
0
10
852.3205080756887
20
-3510.0
0
VERTEX
8
0
10
845.0
20
-3502.679491924311
0
VERTEX
8
0
10
835.0
20
-3500.0
0
VERTEX
8
0
10
835.0
20
-3500.0
0
VERTEX
8
0
10
845.0
20
-3502.679491924311
0
VERTEX
8
0
10
852.3205080756887
20
-3510.0
0
VERTEX
8
0
10
855.0
20
-3520.0
0
VERTEX
8
0
10
855.0
20
-3520.0
0
SEQEND
0
POLYLINE
8
0
66
1
10
0.0
20
0.0
30
0.0
0
VERTEX
8
0
10
855.0
20
-3520.0
0
VERTEX
8
0
10
852.3205080756887
20
-3510.0
0
VERTEX
8
0
10
845.0
20
-3502.679491924311
0
VERTEX
8
0
10
835.0
20
-3500.0
0
VERTEX
8
0
10
835.0
20
-3500.0
0
VERTEX
8
0
10
845.0
20
-3502.679491924311
0
VERTEX
8
0
10
852.3205080756887
20
-3510.0
0
VERTEX
8
0
10
855.0
20
-3520.0
0
VERTEX
8
0
10
855.0
20
-3520.0
0
SEQEND
0
POLYLINE
8
0
66
1
10
0.0
20
0.0
30
0.0
0
VERTEX
8
0
10
780.0
20
-3470.0
0
VERTEX
8
0
10
779.3301270189222
20
-3472.5
0
VERTEX
8
0
10
777.5
20
-3474.330127018922
0
VERTEX
8
0
10
775.0
20
-3475.0
0
VERTEX
8
0
10
775.0
20
-3475.0
0
VERTEX
8
0
10
777.5
20
-3474.330127018922
0
VERTEX
8
0
10
779.3301270189222
20
-3472.5
0
VERTEX
8
0
10
780.0
20
-3470.0
0
VERTEX
8
0
10
780.0
20
-3470.0
0
SEQEND
0
POLYLINE
8
0
66
1
10
0.0
20
0.0
30
0.0
0
VERTEX
8
0
10
780.0
20
-3470.0
0
VERTEX
8
0
10
779.3301270189222
20
-3472.5
0
VERTEX
8
0
10
777.5
20
-3474.330127018922
0
VERTEX
8
0
10
775.0
20
-3475.0
0
VERTEX
8
0
10
775.0
20
-3475.0
0
VERTEX
8
0
10
777.5
20
-3474.330127018922
0
VERTEX
8
0
10
779.3301270189222
20
-3472.5
0
VERTEX
8
0
10
780.0
20
-3470.0
0
VERTEX
8
0
10
780.0
20
-3470.0
0
SEQEND
0
POLYLINE
8
0
66
1
10
0.0
20
0.0
30
0.0
0
VERTEX
8
0
10
820.0
20
-3470.0
0
VERTEX
8
0
10
820.6698729810778
20
-3472.5
0
VERTEX
8
0
10
822.5
20
-3474.330127018922
0
VERTEX
8
0
10
825.0
20
-3475.0
0
VERTEX
8
0
10
825.0
20
-3475.0
0
VERTEX
8
0
10
822.5
20
-3474.330127018922
0
VERTEX
8
0
10
820.6698729810778
20
-3472.5
0
VERTEX
8
0
10
820.0
20
-3470.0
0
VERTEX
8
0
10
820.0
20
-3470.0
0
SEQEND
0
POLYLINE
8
0
66
1
10
0.0
20
0.0
30
0.0
0
VERTEX
8
0
10
820.0
20
-3470.0
0
VERTEX
8
0
10
820.6698729810778
20
-3472.5
0
VERTEX
8
0
10
822.5
20
-3474.330127018922
0
VERTEX
8
0
10
825.0
20
-3475.0
0
VERTEX
8
0
10
825.0
20
-3475.0
0
VERTEX
8
0
10
822.5
20
-3474.330127018922
0
VERTEX
8
0
10
820.6698729810778
20
-3472.5
0
VERTEX
8
0
10
820.0
20
-3470.0
0
VERTEX
8
0
10
820.0
20
-3470.0
0
SEQEND
0
POLYLINE
8
0
66
1
10
0.0
20
0.0
30
0.0
0
VERTEX
8
0
10
855.0000000000013
20
330.0
0
VERTEX
8
0
10
852.32050807569
20
340.0
0
VERTEX
8
0
10
845.0000000000013
20
347.3205080756888
0
VERTEX
8
0
10
835.0000000000013
20
350.0
0
VERTEX
8
0
10
835.0000000000013
20
350.0
0
VERTEX
8
0
10
845.0000000000013
20
347.3205080756888
0
VERTEX
8
0
10
852.32050807569
20
340.0
0
VERTEX
8
0
10
855.0000000000013
20
330.0
0
VERTEX
8
0
10
855.0000000000013
20
330.0
0
SEQEND
0
POLYLINE
8
0
66
1
10
0.0
20
0.0
30
0.0
0
VERTEX
8
0
10
855.0000000000013
20
330.0
0
VERTEX
8
0
10
852.32050807569
20
340.0
0
VERTEX
8
0
10
845.0000000000013
20
347.3205080756888
0
VERTEX
8
0
10
835.0000000000013
20
350.0
0
VERTEX
8
0
10
835.0000000000013
20
350.0
0
VERTEX
8
0
10
845.0000000000013
20
347.3205080756888
0
VERTEX
8
0
10
852.32050807569
20
340.0
0
VERTEX
8
0
10
855.0000000000013
20
330.0
0
VERTEX
8
0
10
855.0000000000013
20
330.0
0
SEQEND
0
POLYLINE
8
0
66
1
10
0.0
20
0.0
30
0.0
0
VERTEX
8
0
10
745.0000000000013
20
330.0
0
VERTEX
8
0
10
747.6794919243125
20
340.0
0
VERTEX
8
0
10
755.0000000000013
20
347.3205080756888
0
VERTEX
8
0
10
765.0000000000013
20
350.0
0
VERTEX
8
0
10
765.0000000000013
20
350.0
0
VERTEX
8
0
10
755.0000000000013
20
347.3205080756888
0
VERTEX
8
0
10
747.6794919243125
20
340.0
0
VERTEX
8
0
10
745.0000000000013
20
330.0
0
VERTEX
8
0
10
745.0000000000013
20
330.0
0
SEQEND
0
POLYLINE
8
0
66
1
10
0.0
20
0.0
30
0.0
0
VERTEX
8
0
10
745.0000000000013
20
330.0
0
VERTEX
8
0
10
747.6794919243125
20
340.0
0
VERTEX
8
0
10
755.0000000000013
20
347.3205080756888
0
VERTEX
8
0
10
765.0000000000013
20
350.0
0
VERTEX
8
0
10
765.0000000000013
20
350.0
0
VERTEX
8
0
10
755.0000000000013
20
347.3205080756888
0
VERTEX
8
0
10
747.6794919243125
20
340.0
0
VERTEX
8
0
10
745.0000000000013
20
330.0
0
VERTEX
8
0
10
745.0000000000013
20
330.0
0
SEQEND
0
POLYLINE
8
0
66
1
10
0.0
20
0.0
30
0.0
0
VERTEX
8
0
10
745.0000000000013
20
-2690.0
0
VERTEX
8
0
10
747.6794919243125
20
-2700.0
0
VERTEX
8
0
10
755.0000000000013
20
-2707.320508075689
0
VERTEX
8
0
10
765.0000000000013
20
-2710.0
0
VERTEX
8
0
10
765.0000000000013
20
-2710.0
0
VERTEX
8
0
10
755.0000000000013
20
-2707.320508075689
0
VERTEX
8
0
10
747.6794919243125
20
-2700.0
0
VERTEX
8
0
10
745.0000000000013
20
-2690.0
0
VERTEX
8
0
10
745.0000000000013
20
-2690.0
0
SEQEND
0
POLYLINE
8
0
66
1
10
0.0
20
0.0
30
0.0
0
VERTEX
8
0
10
745.0000000000013
20
-2690.0
0
VERTEX
8
0
10
747.6794919243125
20
-2700.0
0
VERTEX
8
0
10
755.0000000000013
20
-2707.320508075689
0
VERTEX
8
0
10
765.0000000000013
20
-2710.0
0
VERTEX
8
0
10
765.0000000000013
20
-2710.0
0
VERTEX
8
0
10
755.0000000000013
20
-2707.320508075689
0
VERTEX
8
0
10
747.6794919243125
20
-2700.0
0
VERTEX
8
0
10
745.0000000000013
20
-2690.0
0
VERTEX
8
0
10
745.0000000000013
20
-2690.0
0
SEQEND
0
POLYLINE
8
0
66
1
10
0.0
20
0.0
30
0.0
0
VERTEX
8
0
10
855.0000000000013
20
-2690.0
0
VERTEX
8
0
10
852.32050807569
20
-2700.0
0
VERTEX
8
0
10
845.0000000000013
20
-2707.320508075689
0
VERTEX
8
0
10
835.0000000000013
20
-2710.0
0
VERTEX
8
0
10
835.0000000000013
20
-2710.0
0
VERTEX
8
0
10
845.0000000000013
20
-2707.320508075689
0
VERTEX
8
0
10
852.32050807569
20
-2700.0
0
VERTEX
8
0
10
855.0000000000013
20
-2690.0
0
VERTEX
8
0
10
855.0000000000013
20
-2690.0
0
SEQEND
0
POLYLINE
8
0
66
1
10
0.0
20
0.0
30
0.0
0
VERTEX
8
0
10
855.0000000000013
20
-2690.0
0
VERTEX
8
0
10
852.32050807569
20
-2700.0
0
VERTEX
8
0
10
845.0000000000013
20
-2707.320508075689
0
VERTEX
8
0
10
835.0000000000013
20
-2710.0
0
VERTEX
8
0
10
835.0000000000013
20
-2710.0
0
VERTEX
8
0
10
845.0000000000013
20
-2707.320508075689
0
VERTEX
8
0
10
852.32050807569
20
-2700.0
0
VERTEX
8
0
10
855.0000000000013
20
-2690.0
0
VERTEX
8
0
10
855.0000000000013
20
-2690.0
0
SEQEND
0
POLYLINE
8
0
66
1
10
0.0
20
0.0
30
0.0
0
VERTEX
8
0
10
780.0000000000013
20
-2740.0
0
VERTEX
8
0
10
779.3301270189235
20
-2737.5
0
VERTEX
8
0
10
777.5000000000013
20
-2735.669872981078
0
VERTEX
8
0
10
775.0000000000013
20
-2735.0
0
VERTEX
8
0
10
775.0000000000013
20
-2735.0
0
VERTEX
8
0
10
777.5000000000013
20
-2735.669872981078
0
VERTEX
8
0
10
779.3301270189235
20
-2737.5
0
VERTEX
8
0
10
780.0000000000013
20
-2740.0
0
VERTEX
8
0
10
780.0000000000013
20
-2740.0
0
SEQEND
0
POLYLINE
8
0
66
1
10
0.0
20
0.0
30
0.0
0
VERTEX
8
0
10
780.0000000000013
20
-2740.0
0
VERTEX
8
0
10
779.3301270189235
20
-2737.5
0
VERTEX
8
0
10
777.5000000000013
20
-2735.669872981078
0
VERTEX
8
0
10
775.0000000000013
20
-2735.0
0
VERTEX
8
0
10
775.0000000000013
20
-2735.0
0
VERTEX
8
0
10
777.5000000000013
20
-2735.669872981078
0
VERTEX
8
0
10
779.3301270189235
20
-2737.5
0
VERTEX
8
0
10
780.0000000000013
20
-2740.0
0
VERTEX
8
0
10
780.0000000000013
20
-2740.0
0
SEQEND
0
POLYLINE
8
0
66
1
10
0.0
20
0.0
30
0.0
0
VERTEX
8
0
10
820.0000000000013
20
-2740.0
0
VERTEX
8
0
10
820.669872981079
20
-2737.5
0
VERTEX
8
0
10
822.5000000000013
20
-2735.669872981078
0
VERTEX
8
0
10
825.0000000000013
20
-2735.0
0
VERTEX
8
0
10
825.0000000000013
20
-2735.0
0
VERTEX
8
0
10
822.5000000000013
20
-2735.669872981078
0
VERTEX
8
0
10
820.669872981079
20
-2737.5
0
VERTEX
8
0
10
820.0000000000013
20
-2740.0
0
VERTEX
8
0
10
820.0000000000013
20
-2740.0
0
SEQEND
0
POLYLINE
8
0
66
1
10
0.0
20
0.0
30
0.0
0
VERTEX
8
0
10
820.0000000000013
20
-2740.0
0
VERTEX
8
0
10
820.669872981079
20
-2737.5
0
VERTEX
8
0
10
822.5000000000013
20
-2735.669872981078
0
VERTEX
8
0
10
825.0000000000013
20
-2735.0
0
VERTEX
8
0
10
825.0000000000013
20
-2735.0
0
VERTEX
8
0
10
822.5000000000013
20
-2735.669872981078
0
VERTEX
8
0
10
820.669872981079
20
-2737.5
0
VERTEX
8
0
10
820.0000000000013
20
-2740.0
0
VERTEX
8
0
10
820.0000000000013
20
-2740.0
0
SEQEND
0
POLYLINE
8
0
66
1
10
0.0
20
0.0
30
0.0
0
VERTEX
8
0
10
900.0000000000043
20
10370.0
0
VERTEX
8
0
10
900.0000000000044
20
10870.0
0
VERTEX
8
0
10
700.0000000000044
20
10870.0
0
VERTEX
8
0
10
700.0000000000043
20
10370.0
0
VERTEX
8
0
10
900.0000000000043
20
10370.0
0
SEQEND
0
POLYLINE
8
0
66
1
10
0.0
20
0.0
30
0.0
0
VERTEX
8
0
10
1500.0000000000043
20
10370.0
0
VERTEX
8
0
10
1500.0000000000045
20
10870.0
0
VERTEX
8
0
10
1300.0000000000045
20
10870.0
0
VERTEX
8
0
10
1300.0000000000043
20
10370.0
0
VERTEX
8
0
10
1500.0000000000043
20
10370.0
0
SEQEND
0
POLYLINE
8
0
66
1
10
0.0
20
0.0
30
0.0
0
VERTEX
8
0
10
300.0000000000043
20
10370.0
0
VERTEX
8
0
10
300.0000000000045
20
10870.0
0
VERTEX
8
0
10
100.00000000000449
20
10870.0
0
VERTEX
8
0
10
100.00000000000435
20
10370.0
0
VERTEX
8
0
10
300.0000000000043
20
10370.0
0
SEQEND
0
POLYLINE
8
0
66
1
10
0.0
20
0.0
30
0.0
0
VERTEX
8
0
10
812.5
20
4553.0
0
VERTEX
8
0
10
812.5
20
4573.0
0
VERTEX
8
0
10
787.5
20
4573.0
0
VERTEX
8
0
10
787.5
20
4553.0
0
VERTEX
8
0
10
812.5
20
4553.0
0
SEQEND
0
ENDBLK
0
BLOCK
8
0
2
MM2U
70
0
10
0
20
0
30
0
3
MM2U
0
POLYLINE
8
GAP
66
1
10
0.0
20
0.0
30
0.0
0
VERTEX
8
GAP
10
-200.0
20
26150.0
0
VERTEX
8
GAP
10
-100.0
20
26150.0
0
VERTEX
8
GAP
10
-100.0
20
26130.0
0
VERTEX
8
GAP
10
-180.0
20
26130.0
0
VERTEX
8
GAP
10
-180.0
20
26050.0
0
VERTEX
8
GAP
10
-200.0
20
26050.0
0
VERTEX
8
GAP
10
-200.0
20
26150.0
0
SEQEND
0
POLYLINE
8
GAP
66
1
10
0.0
20
0.0
30
0.0
0
VERTEX
8
GAP
10
-200.0
20
-200.0
0
VERTEX
8
GAP
10
-100.0
20
-200.0
0
VERTEX
8
GAP
10
-100.0
20
-180.0
0
VERTEX
8
GAP
10
-180.0
20
-180.0
0
VERTEX
8
GAP
10
-180.0
20
-100.0
0
VERTEX
8
GAP
10
-200.0
20
-100.0
0
VERTEX
8
GAP
10
-200.0
20
-200.0
0
SEQEND
0
POLYLINE
8
GAP
66
1
10
0.0
20
0.0
30
0.0
0
VERTEX
8
GAP
10
1800.0
20
-200.0
0
VERTEX
8
GAP
10
1700.0
20
-200.0
0
VERTEX
8
GAP
10
1700.0
20
-180.0
0
VERTEX
8
GAP
10
1780.0
20
-180.0
0
VERTEX
8
GAP
10
1780.0
20
-100.0
0
VERTEX
8
GAP
10
1800.0
20
-100.0
0
VERTEX
8
GAP
10
1800.0
20
-200.0
0
SEQEND
0
POLYLINE
8
GAP
66
1
10
0.0
20
0.0
30
0.0
0
VERTEX
8
GAP
10
1800.0
20
26150.0
0
VERTEX
8
GAP
10
1700.0
20
26150.0
0
VERTEX
8
GAP
10
1700.0
20
26130.0
0
VERTEX
8
GAP
10
1780.0
20
26130.0
0
VERTEX
8
GAP
10
1780.0
20
26050.0
0
VERTEX
8
GAP
10
1800.0
20
26050.0
0
VERTEX
8
GAP
10
1800.0
20
26150.0
0
SEQEND
0
POLYLINE
8
GAP
66
1
10
0.0
20
0.0
30
0.0
0
VERTEX
8
GAP
10
260.0
20
26150.0
0
VERTEX
8
GAP
10
340.0
20
26150.0
0
VERTEX
8
GAP
10
340.0
20
26130.0
0
VERTEX
8
GAP
10
260.0
20
26130.0
0
VERTEX
8
GAP
10
260.0
20
26150.0
0
SEQEND
0
POLYLINE
8
GAP
66
1
10
0.0
20
0.0
30
0.0
0
VERTEX
8
GAP
10
260.0
20
-200.0
0
VERTEX
8
GAP
10
340.0
20
-200.0
0
VERTEX
8
GAP
10
340.0
20
-180.0
0
VERTEX
8
GAP
10
260.0
20
-180.0
0
VERTEX
8
GAP
10
260.0
20
-200.0
0
SEQEND
0
POLYLINE
8
GAP
66
1
10
0.0
20
0.0
30
0.0
0
VERTEX
8
GAP
10
-200.0
20
6347.5
0
VERTEX
8
GAP
10
-200.0
20
6427.5
0
VERTEX
8
GAP
10
-180.0
20
6427.5
0
VERTEX
8
GAP
10
-180.0
20
6347.5
0
VERTEX
8
GAP
10
-200.0
20
6347.5
0
SEQEND
0
POLYLINE
8
GAP
66
1
10
0.0
20
0.0
30
0.0
0
VERTEX
8
GAP
10
1800.0
20
6347.5
0
VERTEX
8
GAP
10
1800.0
20
6427.5
0
VERTEX
8
GAP
10
1780.0
20
6427.5
0
VERTEX
8
GAP
10
1780.0
20
6347.5
0
VERTEX
8
GAP
10
1800.0
20
6347.5
0
SEQEND
0
POLYLINE
8
GAP
66
1
10
0.0
20
0.0
30
0.0
0
VERTEX
8
GAP
10
760.0
20
26150.0
0
VERTEX
8
GAP
10
840.0
20
26150.0
0
VERTEX
8
GAP
10
840.0
20
26130.0
0
VERTEX
8
GAP
10
760.0
20
26130.0
0
VERTEX
8
GAP
10
760.0
20
26150.0
0
SEQEND
0
POLYLINE
8
GAP
66
1
10
0.0
20
0.0
30
0.0
0
VERTEX
8
GAP
10
760.0
20
-200.0
0
VERTEX
8
GAP
10
840.0
20
-200.0
0
VERTEX
8
GAP
10
840.0
20
-180.0
0
VERTEX
8
GAP
10
760.0
20
-180.0
0
VERTEX
8
GAP
10
760.0
20
-200.0
0
SEQEND
0
POLYLINE
8
GAP
66
1
10
0.0
20
0.0
30
0.0
0
VERTEX
8
GAP
10
-200.0
20
12935.0
0
VERTEX
8
GAP
10
-200.0
20
13015.0
0
VERTEX
8
GAP
10
-180.0
20
13015.0
0
VERTEX
8
GAP
10
-180.0
20
12935.0
0
VERTEX
8
GAP
10
-200.0
20
12935.0
0
SEQEND
0
POLYLINE
8
GAP
66
1
10
0.0
20
0.0
30
0.0
0
VERTEX
8
GAP
10
1800.0
20
12935.0
0
VERTEX
8
GAP
10
1800.0
20
13015.0
0
VERTEX
8
GAP
10
1780.0
20
13015.0
0
VERTEX
8
GAP
10
1780.0
20
12935.0
0
VERTEX
8
GAP
10
1800.0
20
12935.0
0
SEQEND
0
POLYLINE
8
GAP
66
1
10
0.0
20
0.0
30
0.0
0
VERTEX
8
GAP
10
1260.0
20
26150.0
0
VERTEX
8
GAP
10
1340.0
20
26150.0
0
VERTEX
8
GAP
10
1340.0
20
26130.0
0
VERTEX
8
GAP
10
1260.0
20
26130.0
0
VERTEX
8
GAP
10
1260.0
20
26150.0
0
SEQEND
0
POLYLINE
8
GAP
66
1
10
0.0
20
0.0
30
0.0
0
VERTEX
8
GAP
10
1260.0
20
-200.0
0
VERTEX
8
GAP
10
1340.0
20
-200.0
0
VERTEX
8
GAP
10
1340.0
20
-180.0
0
VERTEX
8
GAP
10
1260.0
20
-180.0
0
VERTEX
8
GAP
10
1260.0
20
-200.0
0
SEQEND
0
POLYLINE
8
GAP
66
1
10
0.0
20
0.0
30
0.0
0
VERTEX
8
GAP
10
-200.0
20
19522.5
0
VERTEX
8
GAP
10
-200.0
20
19602.5
0
VERTEX
8
GAP
10
-180.0
20
19602.5
0
VERTEX
8
GAP
10
-180.0
20
19522.5
0
VERTEX
8
GAP
10
-200.0
20
19522.5
0
SEQEND
0
POLYLINE
8
GAP
66
1
10
0.0
20
0.0
30
0.0
0
VERTEX
8
GAP
10
1800.0
20
19522.5
0
VERTEX
8
GAP
10
1800.0
20
19602.5
0
VERTEX
8
GAP
10
1780.0
20
19602.5
0
VERTEX
8
GAP
10
1780.0
20
19522.5
0
VERTEX
8
GAP
10
1800.0
20
19522.5
0
SEQEND
0
ENDBLK
0
ENDSEC
0
SECTION
2
ENTITIES
0
INSERT
2
MM2UGAP
8
GAP
10
0
20
0
0
INSERT
2
MM2UPIN
8
PIN
10
0
20
0
0
INSERT
2
MM2U
8
0
10
0
20
0
0
ENDSEC
0
EOF
