0
SECTION
2
HEADER
9
$ACADVER
1
AC1006
9
$INSBASE
10
0.0
20
0.0
30
0.0
9
$EXTMIN
10
0.0
20
0.0
9
$EXTMAX
10
0.0
20
0.0
0
ENDSEC
0
SECTION
2
TABLES
0
TABLE
2
LTYPE
70
1
0
LTYPE
2
CONTINUOUS
70
64
3
Solid line
72
65
73
0
40
0.0
0
ENDTAB
0
TABLE
2
LAYER
70
3
0
LAYER
2
PYDXF
70
64
62
7
6
continuous
0
LAYER
2
GAP
70
64
62
1
6
continuous
0
LAYER
2
PIN
70
64
62
3
6
continuous
0
ENDTAB
0
TABLE
2
STYLE
70
1
0
STYLE
2
STANDARD
70
0
40
0
41
40
50
50
71
0
42
1
3
ARIAL.TTF
4

0
ENDTAB
0
TABLE
2
VIEW
70
0
0
ENDTAB
0
ENDSEC
0
SECTION
2
BLOCKS
0
BLOCK
8
GAP
2
MM2DGAP
70
0
10
0
20
0
30
0
3
MM2DGAP
0
POLYLINE
8
0
66
1
10
0.0
20
0.0
30
0.0
0
VERTEX
8
0
10
-1950.0
20
12170.0
0
VERTEX
8
0
10
-1950.0
20
12095.0
0
VERTEX
8
0
10
-1650.0
20
12095.0
0
VERTEX
8
0
10
-1650.0
20
12170.0
0
VERTEX
8
0
10
-1950.0
20
12170.0
0
SEQEND
0
POLYLINE
8
0
66
1
10
0.0
20
0.0
30
0.0
0
VERTEX
8
0
10
-1950.0
20
12095.0
0
VERTEX
8
0
10
-1950.0
20
11770.0
0
VERTEX
8
0
10
-1650.0
20
11770.0
0
VERTEX
8
0
10
-1650.0
20
12095.0
0
VERTEX
8
0
10
-1950.0
20
12095.0
0
SEQEND
0
POLYLINE
8
0
66
1
10
0.0
20
0.0
30
0.0
0
VERTEX
8
0
10
-1800.0
20
11770.0
0
VERTEX
8
0
10
-1800.0
20
11520.0
0
VERTEX
8
0
10
-1790.15831189058
20
11520.0
0
VERTEX
8
0
10
-1650.0
20
11770.0
0
VERTEX
8
0
10
-1800.0
20
11770.0
0
SEQEND
0
POLYLINE
8
0
66
1
10
0.0
20
0.0
30
0.0
0
VERTEX
8
0
10
-1800.0
20
11770.0
0
VERTEX
8
0
10
-1800.0
20
11520.0
0
VERTEX
8
0
10
-1809.84168810942
20
11520.0
0
VERTEX
8
0
10
-1950.0
20
11770.0
0
VERTEX
8
0
10
-1800.0
20
11770.0
0
SEQEND
0
POLYLINE
8
0
66
1
10
0.0
20
0.0
30
0.0
0
VERTEX
8
0
10
-1950.0
20
14425.0
0
VERTEX
8
0
10
-1950.0
20
14350.0
0
VERTEX
8
0
10
-1650.0
20
14350.0
0
VERTEX
8
0
10
-1650.0
20
14425.0
0
VERTEX
8
0
10
-1950.0
20
14425.0
0
SEQEND
0
POLYLINE
8
0
66
1
10
0.0
20
0.0
30
0.0
0
VERTEX
8
0
10
-1950.0
20
14350.0
0
VERTEX
8
0
10
-1950.0
20
14025.0
0
VERTEX
8
0
10
-1650.0
20
14025.0
0
VERTEX
8
0
10
-1650.0
20
14350.0
0
VERTEX
8
0
10
-1950.0
20
14350.0
0
SEQEND
0
POLYLINE
8
0
66
1
10
0.0
20
0.0
30
0.0
0
VERTEX
8
0
10
-1800.0
20
14025.0
0
VERTEX
8
0
10
-1800.0
20
13775.0
0
VERTEX
8
0
10
-1790.15831189058
20
13775.0
0
VERTEX
8
0
10
-1650.0
20
14025.0
0
VERTEX
8
0
10
-1800.0
20
14025.0
0
SEQEND
0
POLYLINE
8
0
66
1
10
0.0
20
0.0
30
0.0
0
VERTEX
8
0
10
-1800.0
20
14025.0
0
VERTEX
8
0
10
-1800.0
20
13775.0
0
VERTEX
8
0
10
-1809.84168810942
20
13775.0
0
VERTEX
8
0
10
-1950.0
20
14025.0
0
VERTEX
8
0
10
-1800.0
20
14025.0
0
SEQEND
0
POLYLINE
8
0
66
1
10
0.0
20
0.0
30
0.0
0
VERTEX
8
0
10
2900.0
20
25500.0
0
VERTEX
8
0
10
2825.0
20
25500.0
0
VERTEX
8
0
10
2825.0
20
25200.0
0
VERTEX
8
0
10
2900.0
20
25200.0
0
VERTEX
8
0
10
2900.0
20
25500.0
0
SEQEND
0
POLYLINE
8
0
66
1
10
0.0
20
0.0
30
0.0
0
VERTEX
8
0
10
2825.0
20
25500.0
0
VERTEX
8
0
10
2500.0
20
25500.0
0
VERTEX
8
0
10
2500.0
20
25200.0
0
VERTEX
8
0
10
2825.0
20
25200.0
0
VERTEX
8
0
10
2825.0
20
25500.0
0
SEQEND
0
POLYLINE
8
0
66
1
10
0.0
20
0.0
30
0.0
0
VERTEX
8
0
10
2500.0
20
25350.0
0
VERTEX
8
0
10
2250.0
20
25350.0
0
VERTEX
8
0
10
2250.0
20
25340.15831189058
0
VERTEX
8
0
10
2500.0
20
25200.0
0
VERTEX
8
0
10
2500.0
20
25350.0
0
SEQEND
0
POLYLINE
8
0
66
1
10
0.0
20
0.0
30
0.0
0
VERTEX
8
0
10
2500.0
20
25350.0
0
VERTEX
8
0
10
2250.0
20
25350.0
0
VERTEX
8
0
10
2250.0
20
25359.84168810942
0
VERTEX
8
0
10
2500.0
20
25500.0
0
VERTEX
8
0
10
2500.0
20
25350.0
0
SEQEND
0
POLYLINE
8
0
66
1
10
0.0
20
0.0
30
0.0
0
VERTEX
8
0
10
3250.0
20
14425.0
0
VERTEX
8
0
10
3250.0
20
14350.0
0
VERTEX
8
0
10
3550.0
20
14350.0
0
VERTEX
8
0
10
3550.0
20
14425.0
0
VERTEX
8
0
10
3250.0
20
14425.0
0
SEQEND
0
POLYLINE
8
0
66
1
10
0.0
20
0.0
30
0.0
0
VERTEX
8
0
10
3250.0
20
14350.0
0
VERTEX
8
0
10
3250.0
20
14025.0
0
VERTEX
8
0
10
3550.0
20
14025.0
0
VERTEX
8
0
10
3550.0
20
14350.0
0
VERTEX
8
0
10
3250.0
20
14350.0
0
SEQEND
0
POLYLINE
8
0
66
1
10
0.0
20
0.0
30
0.0
0
VERTEX
8
0
10
3400.0
20
14025.0
0
VERTEX
8
0
10
3400.0
20
13775.0
0
VERTEX
8
0
10
3409.84168810942
20
13775.0
0
VERTEX
8
0
10
3550.0
20
14025.0
0
VERTEX
8
0
10
3400.0
20
14025.0
0
SEQEND
0
POLYLINE
8
0
66
1
10
0.0
20
0.0
30
0.0
0
VERTEX
8
0
10
3400.0
20
14025.0
0
VERTEX
8
0
10
3400.0
20
13775.0
0
VERTEX
8
0
10
3390.15831189058
20
13775.0
0
VERTEX
8
0
10
3250.0
20
14025.0
0
VERTEX
8
0
10
3400.0
20
14025.0
0
SEQEND
0
POLYLINE
8
0
66
1
10
0.0
20
0.0
30
0.0
0
VERTEX
8
0
10
3250.0
20
12175.0
0
VERTEX
8
0
10
3250.0
20
12100.0
0
VERTEX
8
0
10
3550.0
20
12100.0
0
VERTEX
8
0
10
3550.0
20
12175.0
0
VERTEX
8
0
10
3250.0
20
12175.0
0
SEQEND
0
POLYLINE
8
0
66
1
10
0.0
20
0.0
30
0.0
0
VERTEX
8
0
10
3250.0
20
12100.0
0
VERTEX
8
0
10
3250.0
20
11775.0
0
VERTEX
8
0
10
3550.0
20
11775.0
0
VERTEX
8
0
10
3550.0
20
12100.0
0
VERTEX
8
0
10
3250.0
20
12100.0
0
SEQEND
0
POLYLINE
8
0
66
1
10
0.0
20
0.0
30
0.0
0
VERTEX
8
0
10
3400.0
20
11775.0
0
VERTEX
8
0
10
3400.0
20
11525.0
0
VERTEX
8
0
10
3409.84168810942
20
11525.0
0
VERTEX
8
0
10
3550.0
20
11775.0
0
VERTEX
8
0
10
3400.0
20
11775.0
0
SEQEND
0
POLYLINE
8
0
66
1
10
0.0
20
0.0
30
0.0
0
VERTEX
8
0
10
3400.0
20
11775.0
0
VERTEX
8
0
10
3400.0
20
11525.0
0
VERTEX
8
0
10
3390.15831189058
20
11525.0
0
VERTEX
8
0
10
3250.0
20
11775.0
0
VERTEX
8
0
10
3400.0
20
11775.0
0
SEQEND
0
POLYLINE
8
0
66
1
10
0.0
20
0.0
30
0.0
0
VERTEX
8
0
10
2900.0
20
950.0
0
VERTEX
8
0
10
2825.0
20
950.0
0
VERTEX
8
0
10
2825.0
20
650.0
0
VERTEX
8
0
10
2900.0
20
650.0
0
VERTEX
8
0
10
2900.0
20
950.0
0
SEQEND
0
POLYLINE
8
0
66
1
10
0.0
20
0.0
30
0.0
0
VERTEX
8
0
10
2825.0
20
950.0
0
VERTEX
8
0
10
2500.0
20
950.0
0
VERTEX
8
0
10
2500.0
20
650.0
0
VERTEX
8
0
10
2825.0
20
650.0
0
VERTEX
8
0
10
2825.0
20
950.0
0
SEQEND
0
POLYLINE
8
0
66
1
10
0.0
20
0.0
30
0.0
0
VERTEX
8
0
10
2500.0
20
800.0
0
VERTEX
8
0
10
2250.0
20
800.0
0
VERTEX
8
0
10
2250.0
20
790.1583118905806
0
VERTEX
8
0
10
2500.0
20
650.0
0
VERTEX
8
0
10
2500.0
20
800.0
0
SEQEND
0
POLYLINE
8
0
66
1
10
0.0
20
0.0
30
0.0
0
VERTEX
8
0
10
2500.0
20
800.0
0
VERTEX
8
0
10
2250.0
20
800.0
0
VERTEX
8
0
10
2250.0
20
809.8416881094194
0
VERTEX
8
0
10
2500.0
20
950.0
0
VERTEX
8
0
10
2500.0
20
800.0
0
SEQEND
0
POLYLINE
8
0
66
1
10
0.0
20
0.0
30
0.0
0
VERTEX
8
0
10
-1300.0
20
650.0
0
VERTEX
8
0
10
-1225.0
20
650.0
0
VERTEX
8
0
10
-1225.0
20
950.0
0
VERTEX
8
0
10
-1300.0
20
950.0
0
VERTEX
8
0
10
-1300.0
20
650.0
0
SEQEND
0
POLYLINE
8
0
66
1
10
0.0
20
0.0
30
0.0
0
VERTEX
8
0
10
-1225.0
20
650.0
0
VERTEX
8
0
10
-900.0
20
650.0
0
VERTEX
8
0
10
-900.0
20
950.0
0
VERTEX
8
0
10
-1225.0
20
950.0
0
VERTEX
8
0
10
-1225.0
20
650.0
0
SEQEND
0
POLYLINE
8
0
66
1
10
0.0
20
0.0
30
0.0
0
VERTEX
8
0
10
-900.0
20
800.0
0
VERTEX
8
0
10
-650.0
20
800.0
0
VERTEX
8
0
10
-650.0
20
809.8416881094194
0
VERTEX
8
0
10
-900.0
20
950.0
0
VERTEX
8
0
10
-900.0
20
800.0
0
SEQEND
0
POLYLINE
8
0
66
1
10
0.0
20
0.0
30
0.0
0
VERTEX
8
0
10
-900.0
20
800.0
0
VERTEX
8
0
10
-650.0
20
800.0
0
VERTEX
8
0
10
-650.0
20
790.1583118905806
0
VERTEX
8
0
10
-900.0
20
650.0
0
VERTEX
8
0
10
-900.0
20
800.0
0
SEQEND
0
POLYLINE
8
0
66
1
10
0.0
20
0.0
30
0.0
0
VERTEX
8
0
10
-1950.0
20
12170.0
0
VERTEX
8
0
10
-1950.0
20
12095.0
0
VERTEX
8
0
10
-1650.0
20
12095.0
0
VERTEX
8
0
10
-1650.0
20
12170.0
0
VERTEX
8
0
10
-1950.0
20
12170.0
0
SEQEND
0
POLYLINE
8
0
66
1
10
0.0
20
0.0
30
0.0
0
VERTEX
8
0
10
-1950.0
20
12095.0
0
VERTEX
8
0
10
-1950.0
20
11770.0
0
VERTEX
8
0
10
-1650.0
20
11770.0
0
VERTEX
8
0
10
-1650.0
20
12095.0
0
VERTEX
8
0
10
-1950.0
20
12095.0
0
SEQEND
0
POLYLINE
8
0
66
1
10
0.0
20
0.0
30
0.0
0
VERTEX
8
0
10
-1800.0
20
11770.0
0
VERTEX
8
0
10
-1800.0
20
11520.0
0
VERTEX
8
0
10
-1790.15831189058
20
11520.0
0
VERTEX
8
0
10
-1650.0
20
11770.0
0
VERTEX
8
0
10
-1800.0
20
11770.0
0
SEQEND
0
POLYLINE
8
0
66
1
10
0.0
20
0.0
30
0.0
0
VERTEX
8
0
10
-1800.0
20
11770.0
0
VERTEX
8
0
10
-1800.0
20
11520.0
0
VERTEX
8
0
10
-1809.84168810942
20
11520.0
0
VERTEX
8
0
10
-1950.0
20
11770.0
0
VERTEX
8
0
10
-1800.0
20
11770.0
0
SEQEND
0
POLYLINE
8
0
66
1
10
0.0
20
0.0
30
0.0
0
VERTEX
8
0
10
-1950.0
20
14425.0
0
VERTEX
8
0
10
-1950.0
20
14350.0
0
VERTEX
8
0
10
-1650.0
20
14350.0
0
VERTEX
8
0
10
-1650.0
20
14425.0
0
VERTEX
8
0
10
-1950.0
20
14425.0
0
SEQEND
0
POLYLINE
8
0
66
1
10
0.0
20
0.0
30
0.0
0
VERTEX
8
0
10
-1950.0
20
14350.0
0
VERTEX
8
0
10
-1950.0
20
14025.0
0
VERTEX
8
0
10
-1650.0
20
14025.0
0
VERTEX
8
0
10
-1650.0
20
14350.0
0
VERTEX
8
0
10
-1950.0
20
14350.0
0
SEQEND
0
POLYLINE
8
0
66
1
10
0.0
20
0.0
30
0.0
0
VERTEX
8
0
10
-1800.0
20
14025.0
0
VERTEX
8
0
10
-1800.0
20
13775.0
0
VERTEX
8
0
10
-1790.15831189058
20
13775.0
0
VERTEX
8
0
10
-1650.0
20
14025.0
0
VERTEX
8
0
10
-1800.0
20
14025.0
0
SEQEND
0
POLYLINE
8
0
66
1
10
0.0
20
0.0
30
0.0
0
VERTEX
8
0
10
-1800.0
20
14025.0
0
VERTEX
8
0
10
-1800.0
20
13775.0
0
VERTEX
8
0
10
-1809.84168810942
20
13775.0
0
VERTEX
8
0
10
-1950.0
20
14025.0
0
VERTEX
8
0
10
-1800.0
20
14025.0
0
SEQEND
0
POLYLINE
8
0
66
1
10
0.0
20
0.0
30
0.0
0
VERTEX
8
0
10
2900.0
20
25500.0
0
VERTEX
8
0
10
2825.0
20
25500.0
0
VERTEX
8
0
10
2825.0
20
25200.0
0
VERTEX
8
0
10
2900.0
20
25200.0
0
VERTEX
8
0
10
2900.0
20
25500.0
0
SEQEND
0
POLYLINE
8
0
66
1
10
0.0
20
0.0
30
0.0
0
VERTEX
8
0
10
2825.0
20
25500.0
0
VERTEX
8
0
10
2500.0
20
25500.0
0
VERTEX
8
0
10
2500.0
20
25200.0
0
VERTEX
8
0
10
2825.0
20
25200.0
0
VERTEX
8
0
10
2825.0
20
25500.0
0
SEQEND
0
POLYLINE
8
0
66
1
10
0.0
20
0.0
30
0.0
0
VERTEX
8
0
10
2500.0
20
25350.0
0
VERTEX
8
0
10
2250.0
20
25350.0
0
VERTEX
8
0
10
2250.0
20
25340.15831189058
0
VERTEX
8
0
10
2500.0
20
25200.0
0
VERTEX
8
0
10
2500.0
20
25350.0
0
SEQEND
0
POLYLINE
8
0
66
1
10
0.0
20
0.0
30
0.0
0
VERTEX
8
0
10
2500.0
20
25350.0
0
VERTEX
8
0
10
2250.0
20
25350.0
0
VERTEX
8
0
10
2250.0
20
25359.84168810942
0
VERTEX
8
0
10
2500.0
20
25500.0
0
VERTEX
8
0
10
2500.0
20
25350.0
0
SEQEND
0
POLYLINE
8
0
66
1
10
0.0
20
0.0
30
0.0
0
VERTEX
8
0
10
3250.0
20
14425.0
0
VERTEX
8
0
10
3250.0
20
14350.0
0
VERTEX
8
0
10
3550.0
20
14350.0
0
VERTEX
8
0
10
3550.0
20
14425.0
0
VERTEX
8
0
10
3250.0
20
14425.0
0
SEQEND
0
POLYLINE
8
0
66
1
10
0.0
20
0.0
30
0.0
0
VERTEX
8
0
10
3250.0
20
14350.0
0
VERTEX
8
0
10
3250.0
20
14025.0
0
VERTEX
8
0
10
3550.0
20
14025.0
0
VERTEX
8
0
10
3550.0
20
14350.0
0
VERTEX
8
0
10
3250.0
20
14350.0
0
SEQEND
0
POLYLINE
8
0
66
1
10
0.0
20
0.0
30
0.0
0
VERTEX
8
0
10
3400.0
20
14025.0
0
VERTEX
8
0
10
3400.0
20
13775.0
0
VERTEX
8
0
10
3409.84168810942
20
13775.0
0
VERTEX
8
0
10
3550.0
20
14025.0
0
VERTEX
8
0
10
3400.0
20
14025.0
0
SEQEND
0
POLYLINE
8
0
66
1
10
0.0
20
0.0
30
0.0
0
VERTEX
8
0
10
3400.0
20
14025.0
0
VERTEX
8
0
10
3400.0
20
13775.0
0
VERTEX
8
0
10
3390.15831189058
20
13775.0
0
VERTEX
8
0
10
3250.0
20
14025.0
0
VERTEX
8
0
10
3400.0
20
14025.0
0
SEQEND
0
POLYLINE
8
0
66
1
10
0.0
20
0.0
30
0.0
0
VERTEX
8
0
10
3250.0
20
12175.0
0
VERTEX
8
0
10
3250.0
20
12100.0
0
VERTEX
8
0
10
3550.0
20
12100.0
0
VERTEX
8
0
10
3550.0
20
12175.0
0
VERTEX
8
0
10
3250.0
20
12175.0
0
SEQEND
0
POLYLINE
8
0
66
1
10
0.0
20
0.0
30
0.0
0
VERTEX
8
0
10
3250.0
20
12100.0
0
VERTEX
8
0
10
3250.0
20
11775.0
0
VERTEX
8
0
10
3550.0
20
11775.0
0
VERTEX
8
0
10
3550.0
20
12100.0
0
VERTEX
8
0
10
3250.0
20
12100.0
0
SEQEND
0
POLYLINE
8
0
66
1
10
0.0
20
0.0
30
0.0
0
VERTEX
8
0
10
3400.0
20
11775.0
0
VERTEX
8
0
10
3400.0
20
11525.0
0
VERTEX
8
0
10
3409.84168810942
20
11525.0
0
VERTEX
8
0
10
3550.0
20
11775.0
0
VERTEX
8
0
10
3400.0
20
11775.0
0
SEQEND
0
POLYLINE
8
0
66
1
10
0.0
20
0.0
30
0.0
0
VERTEX
8
0
10
3400.0
20
11775.0
0
VERTEX
8
0
10
3400.0
20
11525.0
0
VERTEX
8
0
10
3390.15831189058
20
11525.0
0
VERTEX
8
0
10
3250.0
20
11775.0
0
VERTEX
8
0
10
3400.0
20
11775.0
0
SEQEND
0
POLYLINE
8
0
66
1
10
0.0
20
0.0
30
0.0
0
VERTEX
8
0
10
2900.0
20
950.0
0
VERTEX
8
0
10
2825.0
20
950.0
0
VERTEX
8
0
10
2825.0
20
650.0
0
VERTEX
8
0
10
2900.0
20
650.0
0
VERTEX
8
0
10
2900.0
20
950.0
0
SEQEND
0
POLYLINE
8
0
66
1
10
0.0
20
0.0
30
0.0
0
VERTEX
8
0
10
2825.0
20
950.0
0
VERTEX
8
0
10
2500.0
20
950.0
0
VERTEX
8
0
10
2500.0
20
650.0
0
VERTEX
8
0
10
2825.0
20
650.0
0
VERTEX
8
0
10
2825.0
20
950.0
0
SEQEND
0
POLYLINE
8
0
66
1
10
0.0
20
0.0
30
0.0
0
VERTEX
8
0
10
2500.0
20
800.0
0
VERTEX
8
0
10
2250.0
20
800.0
0
VERTEX
8
0
10
2250.0
20
790.1583118905806
0
VERTEX
8
0
10
2500.0
20
650.0
0
VERTEX
8
0
10
2500.0
20
800.0
0
SEQEND
0
POLYLINE
8
0
66
1
10
0.0
20
0.0
30
0.0
0
VERTEX
8
0
10
2500.0
20
800.0
0
VERTEX
8
0
10
2250.0
20
800.0
0
VERTEX
8
0
10
2250.0
20
809.8416881094194
0
VERTEX
8
0
10
2500.0
20
950.0
0
VERTEX
8
0
10
2500.0
20
800.0
0
SEQEND
0
POLYLINE
8
0
66
1
10
0.0
20
0.0
30
0.0
0
VERTEX
8
0
10
-1300.0
20
650.0
0
VERTEX
8
0
10
-1225.0
20
650.0
0
VERTEX
8
0
10
-1225.0
20
950.0
0
VERTEX
8
0
10
-1300.0
20
950.0
0
VERTEX
8
0
10
-1300.0
20
650.0
0
SEQEND
0
POLYLINE
8
0
66
1
10
0.0
20
0.0
30
0.0
0
VERTEX
8
0
10
-1225.0
20
650.0
0
VERTEX
8
0
10
-900.0
20
650.0
0
VERTEX
8
0
10
-900.0
20
950.0
0
VERTEX
8
0
10
-1225.0
20
950.0
0
VERTEX
8
0
10
-1225.0
20
650.0
0
SEQEND
0
POLYLINE
8
0
66
1
10
0.0
20
0.0
30
0.0
0
VERTEX
8
0
10
-900.0
20
800.0
0
VERTEX
8
0
10
-650.0
20
800.0
0
VERTEX
8
0
10
-650.0
20
809.8416881094194
0
VERTEX
8
0
10
-900.0
20
950.0
0
VERTEX
8
0
10
-900.0
20
800.0
0
SEQEND
0
POLYLINE
8
0
66
1
10
0.0
20
0.0
30
0.0
0
VERTEX
8
0
10
-900.0
20
800.0
0
VERTEX
8
0
10
-650.0
20
800.0
0
VERTEX
8
0
10
-650.0
20
790.1583118905806
0
VERTEX
8
0
10
-900.0
20
650.0
0
VERTEX
8
0
10
-900.0
20
800.0
0
SEQEND
0
POLYLINE
8
0
66
1
10
0.0
20
0.0
30
0.0
0
VERTEX
8
0
10
110.0
20
28040.0
0
VERTEX
8
0
10
109.99999999999997
20
27960.0
0
VERTEX
8
0
10
189.99999999999997
20
27960.0
0
VERTEX
8
0
10
190.0
20
28040.0
0
VERTEX
8
0
10
110.0
20
28040.0
0
SEQEND
0
POLYLINE
8
0
66
1
10
0.0
20
0.0
30
0.0
0
VERTEX
8
0
10
1410.0
20
28040.0
0
VERTEX
8
0
10
1410.0
20
27960.0
0
VERTEX
8
0
10
1490.0
20
27960.0
0
VERTEX
8
0
10
1490.0
20
28040.0
0
VERTEX
8
0
10
1410.0
20
28040.0
0
SEQEND
0
POLYLINE
8
0
66
1
10
0.0
20
0.0
30
0.0
0
VERTEX
8
0
10
110.0
20
740.0
0
VERTEX
8
0
10
109.99999999999997
20
660.0
0
VERTEX
8
0
10
189.99999999999997
20
660.0
0
VERTEX
8
0
10
190.0
20
740.0
0
VERTEX
8
0
10
110.0
20
740.0
0
SEQEND
0
POLYLINE
8
0
66
1
10
0.0
20
0.0
30
0.0
0
VERTEX
8
0
10
1410.0
20
740.0
0
VERTEX
8
0
10
1410.0
20
660.0
0
VERTEX
8
0
10
1490.0
20
660.0
0
VERTEX
8
0
10
1490.0
20
740.0
0
VERTEX
8
0
10
1410.0
20
740.0
0
SEQEND
0
POLYLINE
8
0
66
1
10
0.0
20
0.0
30
0.0
0
VERTEX
8
0
10
-100.0
20
28250.0
0
VERTEX
8
0
10
-100.00000000000009
20
27750.0
0
VERTEX
8
0
10
399.9999999999999
20
27750.0
0
VERTEX
8
0
10
400.0
20
28250.0
0
VERTEX
8
0
10
-100.0
20
28250.0
0
SEQEND
0
POLYLINE
8
0
66
1
10
0.0
20
0.0
30
0.0
0
VERTEX
8
0
10
1200.0
20
28250.0
0
VERTEX
8
0
10
1200.0
20
27750.0
0
VERTEX
8
0
10
1700.0
20
27750.0
0
VERTEX
8
0
10
1700.0
20
28250.0
0
VERTEX
8
0
10
1200.0
20
28250.0
0
SEQEND
0
POLYLINE
8
0
66
1
10
0.0
20
0.0
30
0.0
0
VERTEX
8
0
10
-100.0
20
950.0
0
VERTEX
8
0
10
-100.00000000000009
20
450.00000000000006
0
VERTEX
8
0
10
399.9999999999999
20
449.99999999999994
0
VERTEX
8
0
10
400.0
20
950.0
0
VERTEX
8
0
10
-100.0
20
950.0
0
SEQEND
0
POLYLINE
8
0
66
1
10
0.0
20
0.0
30
0.0
0
VERTEX
8
0
10
1200.0
20
950.0
0
VERTEX
8
0
10
1200.0
20
450.00000000000006
0
VERTEX
8
0
10
1700.0
20
449.99999999999994
0
VERTEX
8
0
10
1700.0
20
950.0
0
VERTEX
8
0
10
1200.0
20
950.0
0
SEQEND
0
POLYLINE
8
0
66
1
10
0.0
20
0.0
30
0.0
0
VERTEX
8
0
10
250.0
20
9750.0
0
VERTEX
8
0
10
250.0
20
9650.0
0
VERTEX
8
0
10
1750.0
20
9650.0
0
VERTEX
8
0
10
1750.0
20
9750.0
0
VERTEX
8
0
10
250.0
20
9750.0
0
SEQEND
0
POLYLINE
8
0
66
1
10
0.0
20
0.0
30
0.0
0
VERTEX
8
0
10
725.0
20
25280.0
0
VERTEX
8
0
10
724.9999999999993
20
21580.0
0
VERTEX
8
0
10
874.9999999999993
20
21580.0
0
VERTEX
8
0
10
875.0
20
25280.0
0
VERTEX
8
0
10
725.0
20
25280.0
0
SEQEND
0
POLYLINE
8
0
66
1
10
0.0
20
0.0
30
0.0
0
VERTEX
8
0
10
784.9999999999993
20
21580.0
0
VERTEX
8
0
10
784.9999999999992
20
21210.0
0
VERTEX
8
0
10
814.9999999999992
20
21210.0
0
VERTEX
8
0
10
814.9999999999993
20
21580.0
0
VERTEX
8
0
10
784.9999999999993
20
21580.0
0
SEQEND
0
POLYLINE
8
0
66
1
10
0.0
20
0.0
30
0.0
0
VERTEX
8
0
10
802.4999999999992
20
21210.0
0
VERTEX
8
0
10
802.4999999999992
20
21215.0
0
VERTEX
8
0
10
797.4999999999992
20
21215.0
0
VERTEX
8
0
10
797.4999999999992
20
21210.0
0
VERTEX
8
0
10
802.4999999999992
20
21210.0
0
SEQEND
0
POLYLINE
8
0
66
1
10
0.0
20
0.0
30
0.0
0
VERTEX
8
0
10
807.4999999999992
20
21215.0
0
VERTEX
8
0
10
807.4999999999992
20
21220.0
0
VERTEX
8
0
10
792.4999999999992
20
21220.0
0
VERTEX
8
0
10
792.4999999999992
20
21215.0
0
VERTEX
8
0
10
807.4999999999992
20
21215.0
0
SEQEND
0
POLYLINE
8
0
66
1
10
0.0
20
0.0
30
0.0
0
VERTEX
8
0
10
797.4999999999992
20
21180.0
0
VERTEX
8
0
10
797.4999999999992
20
21175.0
0
VERTEX
8
0
10
802.4999999999992
20
21175.0
0
VERTEX
8
0
10
802.4999999999992
20
21180.0
0
VERTEX
8
0
10
797.4999999999992
20
21180.0
0
SEQEND
0
POLYLINE
8
0
66
1
10
0.0
20
0.0
30
0.0
0
VERTEX
8
0
10
792.4999999999992
20
21175.0
0
VERTEX
8
0
10
792.4999999999992
20
21170.0
0
VERTEX
8
0
10
807.4999999999992
20
21170.0
0
VERTEX
8
0
10
807.4999999999992
20
21175.0
0
VERTEX
8
0
10
792.4999999999992
20
21175.0
0
SEQEND
0
POLYLINE
8
0
66
1
10
0.0
20
0.0
30
0.0
0
VERTEX
8
0
10
784.9999999999992
20
21180.0
0
VERTEX
8
0
10
784.9999999999991
20
20830.0
0
VERTEX
8
0
10
814.9999999999991
20
20830.0
0
VERTEX
8
0
10
814.9999999999992
20
21180.0
0
VERTEX
8
0
10
784.9999999999992
20
21180.0
0
SEQEND
0
POLYLINE
8
0
66
1
10
0.0
20
0.0
30
0.0
0
VERTEX
8
0
10
724.9999999999991
20
20830.0
0
VERTEX
8
0
10
724.9999999999977
20
17730.0
0
VERTEX
8
0
10
874.9999999999977
20
17730.0
0
VERTEX
8
0
10
874.9999999999991
20
20830.0
0
VERTEX
8
0
10
724.9999999999991
20
20830.0
0
SEQEND
0
POLYLINE
8
0
66
1
10
0.0
20
0.0
30
0.0
0
VERTEX
8
0
10
835.0
20
25280.0
0
VERTEX
8
0
10
835.0
20
25240.0
0
VERTEX
8
0
10
875.0
20
25240.0
0
VERTEX
8
0
10
875.0
20
25280.0
0
VERTEX
8
0
10
835.0
20
25280.0
0
SEQEND
0
POLYLINE
8
0
66
1
10
0.0
20
0.0
30
0.0
0
VERTEX
8
0
10
875.0
20
25240.0
0
VERTEX
8
0
10
869.6410161513776
20
25260.0
0
VERTEX
8
0
10
855.0
20
25274.641016151378
0
VERTEX
8
0
10
835.0
20
25280.0
0
VERTEX
8
0
10
835.0
20
25260.0
0
VERTEX
8
0
10
845.0
20
25257.32050807569
0
VERTEX
8
0
10
852.3205080756887
20
25250.0
0
VERTEX
8
0
10
855.0
20
25240.0
0
VERTEX
8
0
10
875.0
20
25240.0
0
SEQEND
0
POLYLINE
8
0
66
1
10
0.0
20
0.0
30
0.0
0
VERTEX
8
0
10
855.0
20
25240.0
0
VERTEX
8
0
10
852.3205080756887
20
25250.0
0
VERTEX
8
0
10
845.0
20
25257.32050807569
0
VERTEX
8
0
10
835.0
20
25260.0
0
VERTEX
8
0
10
835.0
20
25240.0
0
VERTEX
8
0
10
835.0
20
25240.0
0
VERTEX
8
0
10
835.0
20
25240.0
0
VERTEX
8
0
10
835.0
20
25240.0
0
VERTEX
8
0
10
855.0
20
25240.0
0
SEQEND
0
POLYLINE
8
0
66
1
10
0.0
20
0.0
30
0.0
0
VERTEX
8
0
10
725.0
20
25280.0
0
VERTEX
8
0
10
725.0
20
25240.0
0
VERTEX
8
0
10
765.0
20
25240.0
0
VERTEX
8
0
10
765.0
20
25280.0
0
VERTEX
8
0
10
725.0
20
25280.0
0
SEQEND
0
POLYLINE
8
0
66
1
10
0.0
20
0.0
30
0.0
0
VERTEX
8
0
10
725.0
20
25240.0
0
VERTEX
8
0
10
730.3589838486224
20
25260.0
0
VERTEX
8
0
10
745.0
20
25274.641016151378
0
VERTEX
8
0
10
765.0
20
25280.0
0
VERTEX
8
0
10
765.0
20
25260.0
0
VERTEX
8
0
10
755.0
20
25257.32050807569
0
VERTEX
8
0
10
747.6794919243113
20
25250.0
0
VERTEX
8
0
10
745.0
20
25240.0
0
VERTEX
8
0
10
725.0
20
25240.0
0
SEQEND
0
POLYLINE
8
0
66
1
10
0.0
20
0.0
30
0.0
0
VERTEX
8
0
10
745.0
20
25240.0
0
VERTEX
8
0
10
747.6794919243113
20
25250.0
0
VERTEX
8
0
10
755.0
20
25257.32050807569
0
VERTEX
8
0
10
765.0
20
25260.0
0
VERTEX
8
0
10
765.0
20
25240.0
0
VERTEX
8
0
10
765.0
20
25240.0
0
VERTEX
8
0
10
765.0
20
25240.0
0
VERTEX
8
0
10
765.0
20
25240.0
0
VERTEX
8
0
10
745.0
20
25240.0
0
SEQEND
0
POLYLINE
8
0
66
1
10
0.0
20
0.0
30
0.0
0
VERTEX
8
0
10
765.0
20
21580.0
0
VERTEX
8
0
10
765.0
20
21620.0
0
VERTEX
8
0
10
725.0
20
21620.0
0
VERTEX
8
0
10
725.0
20
21580.0
0
VERTEX
8
0
10
765.0
20
21580.0
0
SEQEND
0
POLYLINE
8
0
66
1
10
0.0
20
0.0
30
0.0
0
VERTEX
8
0
10
725.0
20
21620.0
0
VERTEX
8
0
10
730.3589838486224
20
21600.0
0
VERTEX
8
0
10
745.0
20
21585.358983848622
0
VERTEX
8
0
10
765.0
20
21580.0
0
VERTEX
8
0
10
765.0
20
21600.0
0
VERTEX
8
0
10
755.0
20
21602.67949192431
0
VERTEX
8
0
10
747.6794919243113
20
21610.0
0
VERTEX
8
0
10
745.0
20
21620.0
0
VERTEX
8
0
10
725.0
20
21620.0
0
SEQEND
0
POLYLINE
8
0
66
1
10
0.0
20
0.0
30
0.0
0
VERTEX
8
0
10
745.0
20
21620.0
0
VERTEX
8
0
10
747.6794919243113
20
21610.0
0
VERTEX
8
0
10
755.0
20
21602.67949192431
0
VERTEX
8
0
10
765.0
20
21600.0
0
VERTEX
8
0
10
765.0
20
21620.0
0
VERTEX
8
0
10
765.0
20
21620.0
0
VERTEX
8
0
10
765.0
20
21620.0
0
VERTEX
8
0
10
765.0
20
21620.0
0
VERTEX
8
0
10
745.0
20
21620.0
0
SEQEND
0
POLYLINE
8
0
66
1
10
0.0
20
0.0
30
0.0
0
VERTEX
8
0
10
875.0
20
21580.0
0
VERTEX
8
0
10
875.0
20
21620.0
0
VERTEX
8
0
10
835.0
20
21620.0
0
VERTEX
8
0
10
835.0
20
21580.0
0
VERTEX
8
0
10
875.0
20
21580.0
0
SEQEND
0
POLYLINE
8
0
66
1
10
0.0
20
0.0
30
0.0
0
VERTEX
8
0
10
875.0
20
21620.0
0
VERTEX
8
0
10
869.6410161513776
20
21600.0
0
VERTEX
8
0
10
855.0
20
21585.358983848622
0
VERTEX
8
0
10
835.0
20
21580.0
0
VERTEX
8
0
10
835.0
20
21600.0
0
VERTEX
8
0
10
845.0
20
21602.67949192431
0
VERTEX
8
0
10
852.3205080756887
20
21610.0
0
VERTEX
8
0
10
855.0
20
21620.0
0
VERTEX
8
0
10
875.0
20
21620.0
0
SEQEND
0
POLYLINE
8
0
66
1
10
0.0
20
0.0
30
0.0
0
VERTEX
8
0
10
855.0
20
21620.0
0
VERTEX
8
0
10
852.3205080756887
20
21610.0
0
VERTEX
8
0
10
845.0
20
21602.67949192431
0
VERTEX
8
0
10
835.0
20
21600.0
0
VERTEX
8
0
10
835.0
20
21620.0
0
VERTEX
8
0
10
835.0
20
21620.0
0
VERTEX
8
0
10
835.0
20
21620.0
0
VERTEX
8
0
10
835.0
20
21620.0
0
VERTEX
8
0
10
855.0
20
21620.0
0
SEQEND
0
POLYLINE
8
0
66
1
10
0.0
20
0.0
30
0.0
0
VERTEX
8
0
10
775.0
20
21580.0
0
VERTEX
8
0
10
775.0
20
21570.0
0
VERTEX
8
0
10
785.0
20
21570.0
0
VERTEX
8
0
10
785.0
20
21580.0
0
VERTEX
8
0
10
775.0
20
21580.0
0
SEQEND
0
POLYLINE
8
0
66
1
10
0.0
20
0.0
30
0.0
0
VERTEX
8
0
10
785.0
20
21570.0
0
VERTEX
8
0
10
783.6602540378444
20
21575.0
0
VERTEX
8
0
10
780.0
20
21578.660254037844
0
VERTEX
8
0
10
775.0
20
21580.0
0
VERTEX
8
0
10
775.0
20
21575.0
0
VERTEX
8
0
10
777.5
20
21574.330127018922
0
VERTEX
8
0
10
779.3301270189222
20
21572.5
0
VERTEX
8
0
10
780.0
20
21570.0
0
VERTEX
8
0
10
785.0
20
21570.0
0
SEQEND
0
POLYLINE
8
0
66
1
10
0.0
20
0.0
30
0.0
0
VERTEX
8
0
10
780.0
20
21570.0
0
VERTEX
8
0
10
779.3301270189222
20
21572.5
0
VERTEX
8
0
10
777.5
20
21574.330127018922
0
VERTEX
8
0
10
775.0
20
21575.0
0
VERTEX
8
0
10
775.0
20
21570.0
0
VERTEX
8
0
10
775.0
20
21570.0
0
VERTEX
8
0
10
775.0
20
21570.0
0
VERTEX
8
0
10
775.0
20
21570.0
0
VERTEX
8
0
10
780.0
20
21570.0
0
SEQEND
0
POLYLINE
8
0
66
1
10
0.0
20
0.0
30
0.0
0
VERTEX
8
0
10
815.0
20
21580.0
0
VERTEX
8
0
10
815.0
20
21570.0
0
VERTEX
8
0
10
825.0
20
21570.0
0
VERTEX
8
0
10
825.0
20
21580.0
0
VERTEX
8
0
10
815.0
20
21580.0
0
SEQEND
0
POLYLINE
8
0
66
1
10
0.0
20
0.0
30
0.0
0
VERTEX
8
0
10
815.0
20
21570.0
0
VERTEX
8
0
10
816.3397459621556
20
21575.0
0
VERTEX
8
0
10
820.0
20
21578.660254037844
0
VERTEX
8
0
10
825.0
20
21580.0
0
VERTEX
8
0
10
825.0
20
21575.0
0
VERTEX
8
0
10
822.5
20
21574.330127018922
0
VERTEX
8
0
10
820.6698729810778
20
21572.5
0
VERTEX
8
0
10
820.0
20
21570.0
0
VERTEX
8
0
10
815.0
20
21570.0
0
SEQEND
0
POLYLINE
8
0
66
1
10
0.0
20
0.0
30
0.0
0
VERTEX
8
0
10
820.0
20
21570.0
0
VERTEX
8
0
10
820.6698729810778
20
21572.5
0
VERTEX
8
0
10
822.5
20
21574.330127018922
0
VERTEX
8
0
10
825.0
20
21575.0
0
VERTEX
8
0
10
825.0
20
21570.0
0
VERTEX
8
0
10
825.0
20
21570.0
0
VERTEX
8
0
10
825.0
20
21570.0
0
VERTEX
8
0
10
825.0
20
21570.0
0
VERTEX
8
0
10
820.0
20
21570.0
0
SEQEND
0
POLYLINE
8
0
66
1
10
0.0
20
0.0
30
0.0
0
VERTEX
8
0
10
874.9999999999977
20
17730.0
0
VERTEX
8
0
10
874.9999999999977
20
17770.0
0
VERTEX
8
0
10
834.9999999999977
20
17770.0
0
VERTEX
8
0
10
834.9999999999977
20
17730.0
0
VERTEX
8
0
10
874.9999999999977
20
17730.0
0
SEQEND
0
POLYLINE
8
0
66
1
10
0.0
20
0.0
30
0.0
0
VERTEX
8
0
10
874.9999999999977
20
17770.0
0
VERTEX
8
0
10
869.6410161513753
20
17750.0
0
VERTEX
8
0
10
854.9999999999977
20
17735.358983848622
0
VERTEX
8
0
10
834.9999999999977
20
17730.0
0
VERTEX
8
0
10
834.9999999999977
20
17750.0
0
VERTEX
8
0
10
844.9999999999977
20
17752.67949192431
0
VERTEX
8
0
10
852.3205080756865
20
17760.0
0
VERTEX
8
0
10
854.9999999999977
20
17770.0
0
VERTEX
8
0
10
874.9999999999977
20
17770.0
0
SEQEND
0
POLYLINE
8
0
66
1
10
0.0
20
0.0
30
0.0
0
VERTEX
8
0
10
854.9999999999977
20
17770.0
0
VERTEX
8
0
10
852.3205080756865
20
17760.0
0
VERTEX
8
0
10
844.9999999999977
20
17752.67949192431
0
VERTEX
8
0
10
834.9999999999977
20
17750.0
0
VERTEX
8
0
10
834.9999999999977
20
17770.0
0
VERTEX
8
0
10
834.9999999999977
20
17770.0
0
VERTEX
8
0
10
834.9999999999977
20
17770.0
0
VERTEX
8
0
10
834.9999999999977
20
17770.0
0
VERTEX
8
0
10
854.9999999999977
20
17770.0
0
SEQEND
0
POLYLINE
8
0
66
1
10
0.0
20
0.0
30
0.0
0
VERTEX
8
0
10
764.9999999999977
20
17730.0
0
VERTEX
8
0
10
764.9999999999977
20
17770.0
0
VERTEX
8
0
10
724.9999999999977
20
17770.0
0
VERTEX
8
0
10
724.9999999999977
20
17730.0
0
VERTEX
8
0
10
764.9999999999977
20
17730.0
0
SEQEND
0
POLYLINE
8
0
66
1
10
0.0
20
0.0
30
0.0
0
VERTEX
8
0
10
724.9999999999977
20
17770.0
0
VERTEX
8
0
10
730.3589838486201
20
17750.0
0
VERTEX
8
0
10
744.9999999999977
20
17735.358983848622
0
VERTEX
8
0
10
764.9999999999977
20
17730.0
0
VERTEX
8
0
10
764.9999999999977
20
17750.0
0
VERTEX
8
0
10
754.9999999999977
20
17752.67949192431
0
VERTEX
8
0
10
747.679491924309
20
17760.0
0
VERTEX
8
0
10
744.9999999999977
20
17770.0
0
VERTEX
8
0
10
724.9999999999977
20
17770.0
0
SEQEND
0
POLYLINE
8
0
66
1
10
0.0
20
0.0
30
0.0
0
VERTEX
8
0
10
744.9999999999977
20
17770.0
0
VERTEX
8
0
10
747.679491924309
20
17760.0
0
VERTEX
8
0
10
754.9999999999977
20
17752.67949192431
0
VERTEX
8
0
10
764.9999999999977
20
17750.0
0
VERTEX
8
0
10
764.9999999999977
20
17770.0
0
VERTEX
8
0
10
764.9999999999977
20
17770.0
0
VERTEX
8
0
10
764.9999999999977
20
17770.0
0
VERTEX
8
0
10
764.9999999999977
20
17770.0
0
VERTEX
8
0
10
744.9999999999977
20
17770.0
0
SEQEND
0
POLYLINE
8
0
66
1
10
0.0
20
0.0
30
0.0
0
VERTEX
8
0
10
724.9999999999977
20
20830.0
0
VERTEX
8
0
10
724.9999999999977
20
20790.0
0
VERTEX
8
0
10
764.9999999999977
20
20790.0
0
VERTEX
8
0
10
764.9999999999977
20
20830.0
0
VERTEX
8
0
10
724.9999999999977
20
20830.0
0
SEQEND
0
POLYLINE
8
0
66
1
10
0.0
20
0.0
30
0.0
0
VERTEX
8
0
10
724.9999999999977
20
20790.0
0
VERTEX
8
0
10
730.3589838486201
20
20810.0
0
VERTEX
8
0
10
744.9999999999977
20
20824.641016151378
0
VERTEX
8
0
10
764.9999999999977
20
20830.0
0
VERTEX
8
0
10
764.9999999999977
20
20810.0
0
VERTEX
8
0
10
754.9999999999977
20
20807.32050807569
0
VERTEX
8
0
10
747.679491924309
20
20800.0
0
VERTEX
8
0
10
744.9999999999977
20
20790.0
0
VERTEX
8
0
10
724.9999999999977
20
20790.0
0
SEQEND
0
POLYLINE
8
0
66
1
10
0.0
20
0.0
30
0.0
0
VERTEX
8
0
10
744.9999999999977
20
20790.0
0
VERTEX
8
0
10
747.679491924309
20
20800.0
0
VERTEX
8
0
10
754.9999999999977
20
20807.32050807569
0
VERTEX
8
0
10
764.9999999999977
20
20810.0
0
VERTEX
8
0
10
764.9999999999977
20
20790.0
0
VERTEX
8
0
10
764.9999999999977
20
20790.0
0
VERTEX
8
0
10
764.9999999999977
20
20790.0
0
VERTEX
8
0
10
764.9999999999977
20
20790.0
0
VERTEX
8
0
10
744.9999999999977
20
20790.0
0
SEQEND
0
POLYLINE
8
0
66
1
10
0.0
20
0.0
30
0.0
0
VERTEX
8
0
10
834.9999999999977
20
20830.0
0
VERTEX
8
0
10
834.9999999999977
20
20790.0
0
VERTEX
8
0
10
874.9999999999977
20
20790.0
0
VERTEX
8
0
10
874.9999999999977
20
20830.0
0
VERTEX
8
0
10
834.9999999999977
20
20830.0
0
SEQEND
0
POLYLINE
8
0
66
1
10
0.0
20
0.0
30
0.0
0
VERTEX
8
0
10
874.9999999999977
20
20790.0
0
VERTEX
8
0
10
869.6410161513753
20
20810.0
0
VERTEX
8
0
10
854.9999999999977
20
20824.641016151378
0
VERTEX
8
0
10
834.9999999999977
20
20830.0
0
VERTEX
8
0
10
834.9999999999977
20
20810.0
0
VERTEX
8
0
10
844.9999999999977
20
20807.32050807569
0
VERTEX
8
0
10
852.3205080756865
20
20800.0
0
VERTEX
8
0
10
854.9999999999977
20
20790.0
0
VERTEX
8
0
10
874.9999999999977
20
20790.0
0
SEQEND
0
POLYLINE
8
0
66
1
10
0.0
20
0.0
30
0.0
0
VERTEX
8
0
10
854.9999999999977
20
20790.0
0
VERTEX
8
0
10
852.3205080756865
20
20800.0
0
VERTEX
8
0
10
844.9999999999977
20
20807.32050807569
0
VERTEX
8
0
10
834.9999999999977
20
20810.0
0
VERTEX
8
0
10
834.9999999999977
20
20790.0
0
VERTEX
8
0
10
834.9999999999977
20
20790.0
0
VERTEX
8
0
10
834.9999999999977
20
20790.0
0
VERTEX
8
0
10
834.9999999999977
20
20790.0
0
VERTEX
8
0
10
854.9999999999977
20
20790.0
0
SEQEND
0
POLYLINE
8
0
66
1
10
0.0
20
0.0
30
0.0
0
VERTEX
8
0
10
784.9999999999977
20
20830.0
0
VERTEX
8
0
10
784.9999999999977
20
20840.0
0
VERTEX
8
0
10
774.9999999999977
20
20840.0
0
VERTEX
8
0
10
774.9999999999977
20
20830.0
0
VERTEX
8
0
10
784.9999999999977
20
20830.0
0
SEQEND
0
POLYLINE
8
0
66
1
10
0.0
20
0.0
30
0.0
0
VERTEX
8
0
10
784.9999999999977
20
20840.0
0
VERTEX
8
0
10
783.6602540378422
20
20835.0
0
VERTEX
8
0
10
779.9999999999977
20
20831.339745962156
0
VERTEX
8
0
10
774.9999999999977
20
20830.0
0
VERTEX
8
0
10
774.9999999999977
20
20835.0
0
VERTEX
8
0
10
777.4999999999977
20
20835.669872981078
0
VERTEX
8
0
10
779.3301270189199
20
20837.5
0
VERTEX
8
0
10
779.9999999999977
20
20840.0
0
VERTEX
8
0
10
784.9999999999977
20
20840.0
0
SEQEND
0
POLYLINE
8
0
66
1
10
0.0
20
0.0
30
0.0
0
VERTEX
8
0
10
779.9999999999977
20
20840.0
0
VERTEX
8
0
10
779.3301270189199
20
20837.5
0
VERTEX
8
0
10
777.4999999999977
20
20835.669872981078
0
VERTEX
8
0
10
774.9999999999977
20
20835.0
0
VERTEX
8
0
10
774.9999999999977
20
20840.0
0
VERTEX
8
0
10
774.9999999999977
20
20840.0
0
VERTEX
8
0
10
774.9999999999977
20
20840.0
0
VERTEX
8
0
10
774.9999999999977
20
20840.0
0
VERTEX
8
0
10
779.9999999999977
20
20840.0
0
SEQEND
0
POLYLINE
8
0
66
1
10
0.0
20
0.0
30
0.0
0
VERTEX
8
0
10
824.9999999999977
20
20830.0
0
VERTEX
8
0
10
824.9999999999977
20
20840.0
0
VERTEX
8
0
10
814.9999999999977
20
20840.0
0
VERTEX
8
0
10
814.9999999999977
20
20830.0
0
VERTEX
8
0
10
824.9999999999977
20
20830.0
0
SEQEND
0
POLYLINE
8
0
66
1
10
0.0
20
0.0
30
0.0
0
VERTEX
8
0
10
814.9999999999977
20
20840.0
0
VERTEX
8
0
10
816.3397459621533
20
20835.0
0
VERTEX
8
0
10
819.9999999999977
20
20831.339745962156
0
VERTEX
8
0
10
824.9999999999977
20
20830.0
0
VERTEX
8
0
10
824.9999999999977
20
20835.0
0
VERTEX
8
0
10
822.4999999999977
20
20835.669872981078
0
VERTEX
8
0
10
820.6698729810755
20
20837.5
0
VERTEX
8
0
10
819.9999999999977
20
20840.0
0
VERTEX
8
0
10
814.9999999999977
20
20840.0
0
SEQEND
0
POLYLINE
8
0
66
1
10
0.0
20
0.0
30
0.0
0
VERTEX
8
0
10
819.9999999999977
20
20840.0
0
VERTEX
8
0
10
820.6698729810755
20
20837.5
0
VERTEX
8
0
10
822.4999999999977
20
20835.669872981078
0
VERTEX
8
0
10
824.9999999999977
20
20835.0
0
VERTEX
8
0
10
824.9999999999977
20
20840.0
0
VERTEX
8
0
10
824.9999999999977
20
20840.0
0
VERTEX
8
0
10
824.9999999999977
20
20840.0
0
VERTEX
8
0
10
824.9999999999977
20
20840.0
0
VERTEX
8
0
10
819.9999999999977
20
20840.0
0
SEQEND
0
POLYLINE
8
0
66
1
10
0.0
20
0.0
30
0.0
0
VERTEX
8
0
10
599.9999999999935
20
7830.0
0
VERTEX
8
0
10
599.9999999999935
20
7730.0
0
VERTEX
8
0
10
999.9999999999935
20
7730.0
0
VERTEX
8
0
10
999.9999999999935
20
7830.0
0
VERTEX
8
0
10
599.9999999999935
20
7830.0
0
SEQEND
0
POLYLINE
8
0
66
1
10
0.0
20
0.0
30
0.0
0
VERTEX
8
0
10
599.9999999999935
20
7730.0
0
VERTEX
8
0
10
599.9999999999933
20
7230.0
0
VERTEX
8
0
10
999.9999999999933
20
7230.0
0
VERTEX
8
0
10
999.9999999999935
20
7730.0
0
VERTEX
8
0
10
599.9999999999935
20
7730.0
0
SEQEND
0
POLYLINE
8
0
66
1
10
0.0
20
0.0
30
0.0
0
VERTEX
8
0
10
599.9999999999933
20
7230.0
0
VERTEX
8
0
10
599.9999999999933
20
7130.0
0
VERTEX
8
0
10
999.9999999999933
20
7130.0
0
VERTEX
8
0
10
999.9999999999933
20
7230.0
0
VERTEX
8
0
10
599.9999999999933
20
7230.0
0
SEQEND
0
POLYLINE
8
0
66
1
10
0.0
20
0.0
30
0.0
0
VERTEX
8
0
10
-6.480149750132114e-12
20
7830.0
0
VERTEX
8
0
10
-6.536993168992922e-12
20
7730.0
0
VERTEX
8
0
10
399.99999999999346
20
7730.0
0
VERTEX
8
0
10
399.9999999999935
20
7830.0
0
VERTEX
8
0
10
-6.480149750132114e-12
20
7830.0
0
SEQEND
0
POLYLINE
8
0
66
1
10
0.0
20
0.0
30
0.0
0
VERTEX
8
0
10
-6.536993168992922e-12
20
7730.0
0
VERTEX
8
0
10
-6.764366844436154e-12
20
7230.0
0
VERTEX
8
0
10
399.99999999999324
20
7230.0
0
VERTEX
8
0
10
399.99999999999346
20
7730.0
0
VERTEX
8
0
10
-6.536993168992922e-12
20
7730.0
0
SEQEND
0
POLYLINE
8
0
66
1
10
0.0
20
0.0
30
0.0
0
VERTEX
8
0
10
-6.764366844436154e-12
20
7230.0
0
VERTEX
8
0
10
-6.821210263296962e-12
20
7130.0
0
VERTEX
8
0
10
399.9999999999932
20
7130.0
0
VERTEX
8
0
10
399.99999999999324
20
7230.0
0
VERTEX
8
0
10
-6.764366844436154e-12
20
7230.0
0
SEQEND
0
POLYLINE
8
0
66
1
10
0.0
20
0.0
30
0.0
0
VERTEX
8
0
10
1199.9999999999936
20
7830.0
0
VERTEX
8
0
10
1199.9999999999936
20
7730.0
0
VERTEX
8
0
10
1599.9999999999936
20
7730.0
0
VERTEX
8
0
10
1599.9999999999936
20
7830.0
0
VERTEX
8
0
10
1199.9999999999936
20
7830.0
0
SEQEND
0
POLYLINE
8
0
66
1
10
0.0
20
0.0
30
0.0
0
VERTEX
8
0
10
1199.9999999999936
20
7730.0
0
VERTEX
8
0
10
1199.9999999999934
20
7230.0
0
VERTEX
8
0
10
1599.9999999999934
20
7230.0
0
VERTEX
8
0
10
1599.9999999999936
20
7730.0
0
VERTEX
8
0
10
1199.9999999999936
20
7730.0
0
SEQEND
0
POLYLINE
8
0
66
1
10
0.0
20
0.0
30
0.0
0
VERTEX
8
0
10
1199.9999999999934
20
7230.0
0
VERTEX
8
0
10
1199.9999999999934
20
7130.0
0
VERTEX
8
0
10
1599.9999999999934
20
7130.0
0
VERTEX
8
0
10
1599.9999999999934
20
7230.0
0
VERTEX
8
0
10
1199.9999999999934
20
7230.0
0
SEQEND
0
POLYLINE
8
0
66
1
10
0.0
20
0.0
30
0.0
0
VERTEX
8
0
10
1199.9999999999936
20
7480.0
0
VERTEX
8
0
10
1199.9999999999934
20
7130.0
0
VERTEX
8
0
10
1299.9999999999934
20
7130.0
0
VERTEX
8
0
10
1299.9999999999936
20
7480.0
0
VERTEX
8
0
10
1199.9999999999936
20
7480.0
0
SEQEND
0
POLYLINE
8
GAP
66
1
10
0.0
20
0.0
30
0.0
0
VERTEX
8
GAP
10
5817.5
20
6430.0
0
VERTEX
8
GAP
10
5835.0
20
6430.0
0
VERTEX
8
GAP
10
5835.0
20
6491.25
0
VERTEX
8
GAP
10
5852.5
20
6491.25
0
VERTEX
8
GAP
10
5852.5
20
6500.0
0
VERTEX
8
GAP
10
5800.0
20
6500.0
0
VERTEX
8
GAP
10
5800.0
20
6491.25
0
VERTEX
8
GAP
10
5817.5
20
6491.25
0
VERTEX
8
GAP
10
5817.5
20
6430.0
0
VERTEX
8
GAP
10
5817.5
20
6430.0
0
SEQEND
0
POLYLINE
8
GAP
66
1
10
0.0
20
0.0
30
0.0
0
VERTEX
8
GAP
10
5870.0
20
6430.0
0
VERTEX
8
GAP
10
5870.0
20
6500.0
0
VERTEX
8
GAP
10
5922.5
20
6500.0
0
VERTEX
8
GAP
10
5922.5
20
6491.25
0
VERTEX
8
GAP
10
5887.5
20
6491.25
0
VERTEX
8
GAP
10
5887.5
20
6473.75
0
VERTEX
8
GAP
10
5905.0
20
6473.75
0
VERTEX
8
GAP
10
5905.0
20
6465.0
0
VERTEX
8
GAP
10
5887.5
20
6465.0
0
VERTEX
8
GAP
10
5887.5
20
6438.75
0
VERTEX
8
GAP
10
5922.5
20
6438.75
0
VERTEX
8
GAP
10
5922.5
20
6430.0
0
VERTEX
8
GAP
10
5870.0
20
6430.0
0
VERTEX
8
GAP
10
5870.0
20
6430.0
0
SEQEND
0
POLYLINE
8
GAP
66
1
10
0.0
20
0.0
30
0.0
0
VERTEX
8
GAP
10
5940.0
20
6430.0
0
VERTEX
8
GAP
10
5992.5
20
6430.0
0
VERTEX
8
GAP
10
5992.5
20
6473.75
0
VERTEX
8
GAP
10
5957.5
20
6473.75
0
VERTEX
8
GAP
10
5957.5
20
6491.25
0
VERTEX
8
GAP
10
5992.5
20
6491.25
0
VERTEX
8
GAP
10
5992.5
20
6500.0
0
VERTEX
8
GAP
10
5940.0
20
6500.0
0
VERTEX
8
GAP
10
5940.0
20
6465.0
0
VERTEX
8
GAP
10
5975.0
20
6465.0
0
VERTEX
8
GAP
10
5975.0
20
6438.75
0
VERTEX
8
GAP
10
5940.0
20
6438.75
0
VERTEX
8
GAP
10
5940.0
20
6430.0
0
VERTEX
8
GAP
10
5940.0
20
6430.0
0
SEQEND
0
POLYLINE
8
GAP
66
1
10
0.0
20
0.0
30
0.0
0
VERTEX
8
GAP
10
6027.5
20
6430.0
0
VERTEX
8
GAP
10
6045.0
20
6430.0
0
VERTEX
8
GAP
10
6045.0
20
6491.25
0
VERTEX
8
GAP
10
6062.5
20
6491.25
0
VERTEX
8
GAP
10
6062.5
20
6500.0
0
VERTEX
8
GAP
10
6010.0
20
6500.0
0
VERTEX
8
GAP
10
6010.0
20
6491.25
0
VERTEX
8
GAP
10
6027.5
20
6491.25
0
VERTEX
8
GAP
10
6027.5
20
6430.0
0
VERTEX
8
GAP
10
6027.5
20
6430.0
0
SEQEND
0
POLYLINE
8
GAP
66
1
10
0.0
20
0.0
30
0.0
0
VERTEX
8
GAP
10
6080.0
20
6430.0
0
VERTEX
8
GAP
10
6132.5
20
6430.0
0
VERTEX
8
GAP
10
6132.5
20
6438.75
0
VERTEX
8
GAP
10
6115.0
20
6438.75
0
VERTEX
8
GAP
10
6115.0
20
6491.25
0
VERTEX
8
GAP
10
6132.5
20
6491.25
0
VERTEX
8
GAP
10
6132.5
20
6500.0
0
VERTEX
8
GAP
10
6080.0
20
6500.0
0
VERTEX
8
GAP
10
6080.0
20
6491.25
0
VERTEX
8
GAP
10
6097.5
20
6491.25
0
VERTEX
8
GAP
10
6097.5
20
6438.75
0
VERTEX
8
GAP
10
6080.0
20
6438.75
0
VERTEX
8
GAP
10
6080.0
20
6430.0
0
VERTEX
8
GAP
10
6080.0
20
6430.0
0
SEQEND
0
POLYLINE
8
GAP
66
1
10
0.0
20
0.0
30
0.0
0
VERTEX
8
GAP
10
6150.0
20
6430.0
0
VERTEX
8
GAP
10
6167.5
20
6430.0
0
VERTEX
8
GAP
10
6167.5
20
6473.75
0
VERTEX
8
GAP
10
6185.0
20
6430.0
0
VERTEX
8
GAP
10
6202.5
20
6430.0
0
VERTEX
8
GAP
10
6202.5
20
6500.0
0
VERTEX
8
GAP
10
6185.0
20
6500.0
0
VERTEX
8
GAP
10
6185.0
20
6447.5
0
VERTEX
8
GAP
10
6167.5
20
6500.0
0
VERTEX
8
GAP
10
6150.0
20
6500.0
0
VERTEX
8
GAP
10
6150.0
20
6430.0
0
VERTEX
8
GAP
10
6150.0
20
6430.0
0
SEQEND
0
POLYLINE
8
GAP
66
1
10
0.0
20
0.0
30
0.0
0
VERTEX
8
GAP
10
6220.0
20
6430.0
0
VERTEX
8
GAP
10
6272.5
20
6430.0
0
VERTEX
8
GAP
10
6272.5
20
6465.0
0
VERTEX
8
GAP
10
6246.25
20
6465.0
0
VERTEX
8
GAP
10
6246.25
20
6456.25
0
VERTEX
8
GAP
10
6255.0
20
6456.25
0
VERTEX
8
GAP
10
6255.0
20
6438.75
0
VERTEX
8
GAP
10
6237.5
20
6438.75
0
VERTEX
8
GAP
10
6237.5
20
6491.25
0
VERTEX
8
GAP
10
6272.5
20
6491.25
0
VERTEX
8
GAP
10
6272.5
20
6500.0
0
VERTEX
8
GAP
10
6220.0
20
6500.0
0
VERTEX
8
GAP
10
6220.0
20
6430.0
0
VERTEX
8
GAP
10
6220.0
20
6430.0
0
SEQEND
0
POLYLINE
8
GAP
66
1
10
0.0
20
0.0
30
0.0
0
VERTEX
8
GAP
10
6290.0
20
6430.0
0
VERTEX
8
GAP
10
6307.5
20
6430.0
0
VERTEX
8
GAP
10
6307.5
20
6500.0
0
VERTEX
8
GAP
10
6290.0
20
6500.0
0
VERTEX
8
GAP
10
6290.0
20
6430.0
0
SEQEND
0
POLYLINE
8
GAP
66
1
10
0.0
20
0.0
30
0.0
0
VERTEX
8
GAP
10
6307.5
20
6438.75
0
VERTEX
8
GAP
10
6316.25
20
6438.75
0
VERTEX
8
GAP
10
6316.25
20
6447.5
0
VERTEX
8
GAP
10
6325.0
20
6447.5
0
VERTEX
8
GAP
10
6325.0
20
6491.25
0
VERTEX
8
GAP
10
6307.5
20
6491.25
0
VERTEX
8
GAP
10
6307.5
20
6500.0
0
VERTEX
8
GAP
10
6342.5
20
6500.0
0
VERTEX
8
GAP
10
6342.5
20
6425.625
0
VERTEX
8
GAP
10
6325.0
20
6425.625
0
VERTEX
8
GAP
10
6325.0
20
6430.0
0
VERTEX
8
GAP
10
6307.5
20
6430.0
0
VERTEX
8
GAP
10
6307.5
20
6438.75
0
SEQEND
0
POLYLINE
8
GAP
66
1
10
0.0
20
0.0
30
0.0
0
VERTEX
8
GAP
10
6360.0
20
6430.0
0
VERTEX
8
GAP
10
6412.5
20
6430.0
0
VERTEX
8
GAP
10
6412.5
20
6500.0
0
VERTEX
8
GAP
10
6395.0
20
6500.0
0
VERTEX
8
GAP
10
6395.0
20
6438.75
0
VERTEX
8
GAP
10
6377.5
20
6438.75
0
VERTEX
8
GAP
10
6377.5
20
6500.0
0
VERTEX
8
GAP
10
6360.0
20
6500.0
0
VERTEX
8
GAP
10
6360.0
20
6430.0
0
VERTEX
8
GAP
10
6360.0
20
6430.0
0
SEQEND
0
POLYLINE
8
GAP
66
1
10
0.0
20
0.0
30
0.0
0
VERTEX
8
GAP
10
6430.0
20
6430.0
0
VERTEX
8
GAP
10
6447.5
20
6430.0
0
VERTEX
8
GAP
10
6447.5
20
6500.0
0
VERTEX
8
GAP
10
6430.0
20
6500.0
0
VERTEX
8
GAP
10
6430.0
20
6430.0
0
SEQEND
0
POLYLINE
8
GAP
66
1
10
0.0
20
0.0
30
0.0
0
VERTEX
8
GAP
10
6447.5
20
6430.0
0
VERTEX
8
GAP
10
6465.0
20
6430.0
0
VERTEX
8
GAP
10
6482.5
20
6438.75
0
VERTEX
8
GAP
10
6482.5
20
6456.25
0
VERTEX
8
GAP
10
6465.0
20
6465.0
0
VERTEX
8
GAP
10
6482.5
20
6473.75
0
VERTEX
8
GAP
10
6482.5
20
6491.25
0
VERTEX
8
GAP
10
6465.0
20
6500.0
0
VERTEX
8
GAP
10
6447.5
20
6500.0
0
VERTEX
8
GAP
10
6447.5
20
6491.25
0
VERTEX
8
GAP
10
6465.0
20
6491.25
0
VERTEX
8
GAP
10
6465.0
20
6473.75
0
VERTEX
8
GAP
10
6447.5
20
6473.75
0
VERTEX
8
GAP
10
6447.5
20
6456.25
0
VERTEX
8
GAP
10
6465.0
20
6456.25
0
VERTEX
8
GAP
10
6465.0
20
6438.75
0
VERTEX
8
GAP
10
6447.5
20
6438.75
0
VERTEX
8
GAP
10
6447.5
20
6430.0
0
SEQEND
0
POLYLINE
8
GAP
66
1
10
0.0
20
0.0
30
0.0
0
VERTEX
8
GAP
10
6500.0
20
6430.0
0
VERTEX
8
GAP
10
6552.5
20
6430.0
0
VERTEX
8
GAP
10
6552.5
20
6438.75
0
VERTEX
8
GAP
10
6535.0
20
6438.75
0
VERTEX
8
GAP
10
6535.0
20
6491.25
0
VERTEX
8
GAP
10
6552.5
20
6491.25
0
VERTEX
8
GAP
10
6552.5
20
6500.0
0
VERTEX
8
GAP
10
6500.0
20
6500.0
0
VERTEX
8
GAP
10
6500.0
20
6491.25
0
VERTEX
8
GAP
10
6517.5
20
6491.25
0
VERTEX
8
GAP
10
6517.5
20
6438.75
0
VERTEX
8
GAP
10
6500.0
20
6438.75
0
VERTEX
8
GAP
10
6500.0
20
6430.0
0
VERTEX
8
GAP
10
6500.0
20
6430.0
0
SEQEND
0
POLYLINE
8
GAP
66
1
10
0.0
20
0.0
30
0.0
0
VERTEX
8
GAP
10
6587.5
20
6430.0
0
VERTEX
8
GAP
10
6605.0
20
6430.0
0
VERTEX
8
GAP
10
6605.0
20
6491.25
0
VERTEX
8
GAP
10
6622.5
20
6491.25
0
VERTEX
8
GAP
10
6622.5
20
6500.0
0
VERTEX
8
GAP
10
6570.0
20
6500.0
0
VERTEX
8
GAP
10
6570.0
20
6491.25
0
VERTEX
8
GAP
10
6587.5
20
6491.25
0
VERTEX
8
GAP
10
6587.5
20
6430.0
0
VERTEX
8
GAP
10
6587.5
20
6430.0
0
SEQEND
0
POLYLINE
8
GAP
66
1
10
0.0
20
0.0
30
0.0
0
VERTEX
8
GAP
10
200.0
20
100.0
0
VERTEX
8
GAP
10
217.5
20
100.0
0
VERTEX
8
GAP
10
217.5
20
135.0
0
VERTEX
8
GAP
10
226.25
20
108.75
0
VERTEX
8
GAP
10
235.0
20
135.0
0
VERTEX
8
GAP
10
235.0
20
100.0
0
VERTEX
8
GAP
10
252.5
20
100.0
0
VERTEX
8
GAP
10
252.5
20
170.0
0
VERTEX
8
GAP
10
235.0
20
170.0
0
VERTEX
8
GAP
10
226.25
20
143.75
0
VERTEX
8
GAP
10
217.5
20
170.0
0
VERTEX
8
GAP
10
200.0
20
170.0
0
VERTEX
8
GAP
10
200.0
20
100.0
0
VERTEX
8
GAP
10
200.0
20
100.0
0
SEQEND
0
POLYLINE
8
GAP
66
1
10
0.0
20
0.0
30
0.0
0
VERTEX
8
GAP
10
270.0
20
100.0
0
VERTEX
8
GAP
10
287.5
20
100.0
0
VERTEX
8
GAP
10
287.5
20
135.0
0
VERTEX
8
GAP
10
296.25
20
108.75
0
VERTEX
8
GAP
10
305.0
20
135.0
0
VERTEX
8
GAP
10
305.0
20
100.0
0
VERTEX
8
GAP
10
322.5
20
100.0
0
VERTEX
8
GAP
10
322.5
20
170.0
0
VERTEX
8
GAP
10
305.0
20
170.0
0
VERTEX
8
GAP
10
296.25
20
143.75
0
VERTEX
8
GAP
10
287.5
20
170.0
0
VERTEX
8
GAP
10
270.0
20
170.0
0
VERTEX
8
GAP
10
270.0
20
100.0
0
VERTEX
8
GAP
10
270.0
20
100.0
0
SEQEND
0
POLYLINE
8
GAP
66
1
10
0.0
20
0.0
30
0.0
0
VERTEX
8
GAP
10
340.0
20
100.0
0
VERTEX
8
GAP
10
392.5
20
100.0
0
VERTEX
8
GAP
10
392.5
20
108.75
0
VERTEX
8
GAP
10
357.5
20
108.75
0
VERTEX
8
GAP
10
357.5
20
117.5
0
VERTEX
8
GAP
10
392.5
20
152.5
0
VERTEX
8
GAP
10
392.5
20
170.0
0
VERTEX
8
GAP
10
340.0
20
170.0
0
VERTEX
8
GAP
10
340.0
20
161.25
0
VERTEX
8
GAP
10
375.0
20
161.25
0
VERTEX
8
GAP
10
375.0
20
152.5
0
VERTEX
8
GAP
10
340.0
20
117.5
0
VERTEX
8
GAP
10
340.0
20
100.0
0
VERTEX
8
GAP
10
340.0
20
100.0
0
SEQEND
0
POLYLINE
8
GAP
66
1
10
0.0
20
0.0
30
0.0
0
VERTEX
8
GAP
10
410.0
20
100.0
0
VERTEX
8
GAP
10
427.5
20
100.0
0
VERTEX
8
GAP
10
427.5
20
170.0
0
VERTEX
8
GAP
10
410.0
20
170.0
0
VERTEX
8
GAP
10
410.0
20
100.0
0
SEQEND
0
POLYLINE
8
GAP
66
1
10
0.0
20
0.0
30
0.0
0
VERTEX
8
GAP
10
427.5
20
100.0
0
VERTEX
8
GAP
10
445.0
20
100.0
0
VERTEX
8
GAP
10
462.5
20
108.75
0
VERTEX
8
GAP
10
462.5
20
161.25
0
VERTEX
8
GAP
10
445.0
20
170.0
0
VERTEX
8
GAP
10
427.5
20
170.0
0
VERTEX
8
GAP
10
427.5
20
161.25
0
VERTEX
8
GAP
10
445.0
20
161.25
0
VERTEX
8
GAP
10
445.0
20
108.75
0
VERTEX
8
GAP
10
427.5
20
108.75
0
VERTEX
8
GAP
10
427.5
20
100.0
0
SEQEND
0
POLYLINE
8
GAP
66
1
10
0.0
20
0.0
30
0.0
0
VERTEX
8
GAP
10
6200.0
20
100.0
0
VERTEX
8
GAP
10
6200.0
20
170.0
0
VERTEX
8
GAP
10
6252.5
20
170.0
0
VERTEX
8
GAP
10
6252.5
20
161.25
0
VERTEX
8
GAP
10
6217.5
20
161.25
0
VERTEX
8
GAP
10
6217.5
20
143.75
0
VERTEX
8
GAP
10
6235.0
20
143.75
0
VERTEX
8
GAP
10
6235.0
20
135.0
0
VERTEX
8
GAP
10
6217.5
20
135.0
0
VERTEX
8
GAP
10
6217.5
20
108.75
0
VERTEX
8
GAP
10
6252.5
20
108.75
0
VERTEX
8
GAP
10
6252.5
20
100.0
0
VERTEX
8
GAP
10
6200.0
20
100.0
0
VERTEX
8
GAP
10
6200.0
20
100.0
0
SEQEND
0
POLYLINE
8
GAP
66
1
10
0.0
20
0.0
30
0.0
0
VERTEX
8
GAP
10
6270.0
20
100.0
0
VERTEX
8
GAP
10
6270.0
20
170.0
0
VERTEX
8
GAP
10
6322.5
20
170.0
0
VERTEX
8
GAP
10
6322.5
20
161.25
0
VERTEX
8
GAP
10
6287.5
20
161.25
0
VERTEX
8
GAP
10
6287.5
20
143.75
0
VERTEX
8
GAP
10
6305.0
20
143.75
0
VERTEX
8
GAP
10
6305.0
20
135.0
0
VERTEX
8
GAP
10
6287.5
20
135.0
0
VERTEX
8
GAP
10
6287.5
20
108.75
0
VERTEX
8
GAP
10
6322.5
20
108.75
0
VERTEX
8
GAP
10
6322.5
20
100.0
0
VERTEX
8
GAP
10
6270.0
20
100.0
0
VERTEX
8
GAP
10
6270.0
20
100.0
0
SEQEND
0
POLYLINE
8
GAP
66
1
10
0.0
20
0.0
30
0.0
0
VERTEX
8
GAP
10
6340.0
20
100.0
0
VERTEX
8
GAP
10
6392.5
20
100.0
0
VERTEX
8
GAP
10
6392.5
20
143.75
0
VERTEX
8
GAP
10
6357.5
20
143.75
0
VERTEX
8
GAP
10
6357.5
20
161.25
0
VERTEX
8
GAP
10
6392.5
20
161.25
0
VERTEX
8
GAP
10
6392.5
20
170.0
0
VERTEX
8
GAP
10
6340.0
20
170.0
0
VERTEX
8
GAP
10
6340.0
20
135.0
0
VERTEX
8
GAP
10
6375.0
20
135.0
0
VERTEX
8
GAP
10
6375.0
20
108.75
0
VERTEX
8
GAP
10
6340.0
20
108.75
0
VERTEX
8
GAP
10
6340.0
20
100.0
0
VERTEX
8
GAP
10
6340.0
20
100.0
0
SEQEND
0
POLYLINE
8
GAP
66
1
10
0.0
20
0.0
30
0.0
0
VERTEX
8
GAP
10
6410.0
20
100.0
0
VERTEX
8
GAP
10
6427.5
20
100.0
0
VERTEX
8
GAP
10
6427.5
20
135.0
0
VERTEX
8
GAP
10
6445.0
20
135.0
0
VERTEX
8
GAP
10
6445.0
20
100.0
0
VERTEX
8
GAP
10
6462.5
20
100.0
0
VERTEX
8
GAP
10
6462.5
20
170.0
0
VERTEX
8
GAP
10
6445.0
20
170.0
0
VERTEX
8
GAP
10
6445.0
20
143.75
0
VERTEX
8
GAP
10
6427.5
20
143.75
0
VERTEX
8
GAP
10
6427.5
20
170.0
0
VERTEX
8
GAP
10
6410.0
20
170.0
0
VERTEX
8
GAP
10
6410.0
20
100.0
0
VERTEX
8
GAP
10
6410.0
20
100.0
0
SEQEND
0
POLYLINE
8
GAP
66
1
10
0.0
20
0.0
30
0.0
0
VERTEX
8
GAP
10
6550.0
20
100.0
0
VERTEX
8
GAP
10
6602.5
20
100.0
0
VERTEX
8
GAP
10
6602.5
20
135.0
0
VERTEX
8
GAP
10
6576.25
20
135.0
0
VERTEX
8
GAP
10
6576.25
20
126.25
0
VERTEX
8
GAP
10
6585.0
20
126.25
0
VERTEX
8
GAP
10
6585.0
20
108.75
0
VERTEX
8
GAP
10
6567.5
20
108.75
0
VERTEX
8
GAP
10
6567.5
20
161.25
0
VERTEX
8
GAP
10
6602.5
20
161.25
0
VERTEX
8
GAP
10
6602.5
20
170.0
0
VERTEX
8
GAP
10
6550.0
20
170.0
0
VERTEX
8
GAP
10
6550.0
20
100.0
0
VERTEX
8
GAP
10
6550.0
20
100.0
0
SEQEND
0
POLYLINE
8
GAP
66
1
10
0.0
20
0.0
30
0.0
0
VERTEX
8
GAP
10
6620.0
20
100.0
0
VERTEX
8
GAP
10
6672.5
20
100.0
0
VERTEX
8
GAP
10
6672.5
20
170.0
0
VERTEX
8
GAP
10
6655.0
20
170.0
0
VERTEX
8
GAP
10
6655.0
20
108.75
0
VERTEX
8
GAP
10
6637.5
20
108.75
0
VERTEX
8
GAP
10
6637.5
20
170.0
0
VERTEX
8
GAP
10
6620.0
20
170.0
0
VERTEX
8
GAP
10
6620.0
20
100.0
0
VERTEX
8
GAP
10
6620.0
20
100.0
0
SEQEND
0
POLYLINE
8
GAP
66
1
10
0.0
20
0.0
30
0.0
0
VERTEX
8
GAP
10
6690.0
20
100.0
0
VERTEX
8
GAP
10
6707.5
20
100.0
0
VERTEX
8
GAP
10
6707.5
20
170.0
0
VERTEX
8
GAP
10
6690.0
20
170.0
0
VERTEX
8
GAP
10
6690.0
20
100.0
0
SEQEND
0
POLYLINE
8
GAP
66
1
10
0.0
20
0.0
30
0.0
0
VERTEX
8
GAP
10
6707.5
20
135.0
0
VERTEX
8
GAP
10
6742.5
20
135.0
0
VERTEX
8
GAP
10
6742.5
20
170.0
0
VERTEX
8
GAP
10
6707.5
20
170.0
0
VERTEX
8
GAP
10
6707.5
20
161.25
0
VERTEX
8
GAP
10
6725.0
20
161.25
0
VERTEX
8
GAP
10
6725.0
20
143.75
0
VERTEX
8
GAP
10
6707.5
20
143.75
0
VERTEX
8
GAP
10
6707.5
20
135.0
0
SEQEND
0
POLYLINE
8
GAP
66
1
10
0.0
20
0.0
30
0.0
0
VERTEX
8
GAP
10
6777.5
20
100.0
0
VERTEX
8
GAP
10
6795.0
20
100.0
0
VERTEX
8
GAP
10
6795.0
20
161.25
0
VERTEX
8
GAP
10
6812.5
20
161.25
0
VERTEX
8
GAP
10
6812.5
20
170.0
0
VERTEX
8
GAP
10
6760.0
20
170.0
0
VERTEX
8
GAP
10
6760.0
20
161.25
0
VERTEX
8
GAP
10
6777.5
20
161.25
0
VERTEX
8
GAP
10
6777.5
20
100.0
0
VERTEX
8
GAP
10
6777.5
20
100.0
0
SEQEND
0
POLYLINE
8
GAP
66
1
10
0.0
20
0.0
30
0.0
0
VERTEX
8
GAP
10
6830.0
20
100.0
0
VERTEX
8
GAP
10
6830.0
20
170.0
0
VERTEX
8
GAP
10
6882.5
20
170.0
0
VERTEX
8
GAP
10
6882.5
20
100.0
0
VERTEX
8
GAP
10
6865.0
20
100.0
0
VERTEX
8
GAP
10
6865.0
20
161.25
0
VERTEX
8
GAP
10
6847.5
20
161.25
0
VERTEX
8
GAP
10
6847.5
20
100.0
0
VERTEX
8
GAP
10
6830.0
20
100.0
0
SEQEND
0
POLYLINE
8
GAP
66
1
10
0.0
20
0.0
30
0.0
0
VERTEX
8
GAP
10
6847.5
20
135.0
0
VERTEX
8
GAP
10
6847.5
20
143.75
0
VERTEX
8
GAP
10
6865.0
20
143.75
0
VERTEX
8
GAP
10
6865.0
20
135.0
0
VERTEX
8
GAP
10
6847.5
20
135.0
0
SEQEND
0
ENDBLK
0
BLOCK
8
PIN
2
MM2DPIN
70
0
10
0
20
0
30
0
3
MM2DPIN
0
POLYLINE
8
0
66
1
10
0.0
20
0.0
30
0.0
0
VERTEX
8
0
10
-1875.0
20
12095.0
0
VERTEX
8
0
10
-1875.0
20
11770.0
0
VERTEX
8
0
10
-1725.0
20
11770.0
0
VERTEX
8
0
10
-1725.0
20
12095.0
0
VERTEX
8
0
10
-1875.0
20
12095.0
0
SEQEND
0
POLYLINE
8
0
66
1
10
0.0
20
0.0
30
0.0
0
VERTEX
8
0
10
-1800.0
20
11770.0
0
VERTEX
8
0
10
-1800.0
20
11520.0
0
VERTEX
8
0
10
-1795.0
20
11520.0
0
VERTEX
8
0
10
-1725.0
20
11770.0
0
VERTEX
8
0
10
-1800.0
20
11770.0
0
SEQEND
0
POLYLINE
8
0
66
1
10
0.0
20
0.0
30
0.0
0
VERTEX
8
0
10
-1800.0
20
11770.0
0
VERTEX
8
0
10
-1800.0
20
11520.0
0
VERTEX
8
0
10
-1805.0
20
11520.0
0
VERTEX
8
0
10
-1875.0
20
11770.0
0
VERTEX
8
0
10
-1800.0
20
11770.0
0
SEQEND
0
POLYLINE
8
0
66
1
10
0.0
20
0.0
30
0.0
0
VERTEX
8
0
10
-1875.0
20
14350.0
0
VERTEX
8
0
10
-1875.0
20
14025.0
0
VERTEX
8
0
10
-1725.0
20
14025.0
0
VERTEX
8
0
10
-1725.0
20
14350.0
0
VERTEX
8
0
10
-1875.0
20
14350.0
0
SEQEND
0
POLYLINE
8
0
66
1
10
0.0
20
0.0
30
0.0
0
VERTEX
8
0
10
-1800.0
20
14025.0
0
VERTEX
8
0
10
-1800.0
20
13775.0
0
VERTEX
8
0
10
-1795.0
20
13775.0
0
VERTEX
8
0
10
-1725.0
20
14025.0
0
VERTEX
8
0
10
-1800.0
20
14025.0
0
SEQEND
0
POLYLINE
8
0
66
1
10
0.0
20
0.0
30
0.0
0
VERTEX
8
0
10
-1800.0
20
14025.0
0
VERTEX
8
0
10
-1800.0
20
13775.0
0
VERTEX
8
0
10
-1805.0
20
13775.0
0
VERTEX
8
0
10
-1875.0
20
14025.0
0
VERTEX
8
0
10
-1800.0
20
14025.0
0
SEQEND
0
POLYLINE
8
0
66
1
10
0.0
20
0.0
30
0.0
0
VERTEX
8
0
10
2825.0
20
25425.0
0
VERTEX
8
0
10
2500.0
20
25425.0
0
VERTEX
8
0
10
2500.0
20
25275.0
0
VERTEX
8
0
10
2825.0
20
25275.0
0
VERTEX
8
0
10
2825.0
20
25425.0
0
SEQEND
0
POLYLINE
8
0
66
1
10
0.0
20
0.0
30
0.0
0
VERTEX
8
0
10
2500.0
20
25350.0
0
VERTEX
8
0
10
2250.0
20
25350.0
0
VERTEX
8
0
10
2250.0
20
25345.0
0
VERTEX
8
0
10
2500.0
20
25275.0
0
VERTEX
8
0
10
2500.0
20
25350.0
0
SEQEND
0
POLYLINE
8
0
66
1
10
0.0
20
0.0
30
0.0
0
VERTEX
8
0
10
2500.0
20
25350.0
0
VERTEX
8
0
10
2250.0
20
25350.0
0
VERTEX
8
0
10
2250.0
20
25355.0
0
VERTEX
8
0
10
2500.0
20
25425.0
0
VERTEX
8
0
10
2500.0
20
25350.0
0
SEQEND
0
POLYLINE
8
0
66
1
10
0.0
20
0.0
30
0.0
0
VERTEX
8
0
10
3325.0
20
14350.0
0
VERTEX
8
0
10
3325.0
20
14025.0
0
VERTEX
8
0
10
3475.0
20
14025.0
0
VERTEX
8
0
10
3475.0
20
14350.0
0
VERTEX
8
0
10
3325.0
20
14350.0
0
SEQEND
0
POLYLINE
8
0
66
1
10
0.0
20
0.0
30
0.0
0
VERTEX
8
0
10
3400.0
20
14025.0
0
VERTEX
8
0
10
3400.0
20
13775.0
0
VERTEX
8
0
10
3405.0
20
13775.0
0
VERTEX
8
0
10
3475.0
20
14025.0
0
VERTEX
8
0
10
3400.0
20
14025.0
0
SEQEND
0
POLYLINE
8
0
66
1
10
0.0
20
0.0
30
0.0
0
VERTEX
8
0
10
3400.0
20
14025.0
0
VERTEX
8
0
10
3400.0
20
13775.0
0
VERTEX
8
0
10
3395.0
20
13775.0
0
VERTEX
8
0
10
3325.0
20
14025.0
0
VERTEX
8
0
10
3400.0
20
14025.0
0
SEQEND
0
POLYLINE
8
0
66
1
10
0.0
20
0.0
30
0.0
0
VERTEX
8
0
10
3325.0
20
12100.0
0
VERTEX
8
0
10
3325.0
20
11775.0
0
VERTEX
8
0
10
3475.0
20
11775.0
0
VERTEX
8
0
10
3475.0
20
12100.0
0
VERTEX
8
0
10
3325.0
20
12100.0
0
SEQEND
0
POLYLINE
8
0
66
1
10
0.0
20
0.0
30
0.0
0
VERTEX
8
0
10
3400.0
20
11775.0
0
VERTEX
8
0
10
3400.0
20
11525.0
0
VERTEX
8
0
10
3405.0
20
11525.0
0
VERTEX
8
0
10
3475.0
20
11775.0
0
VERTEX
8
0
10
3400.0
20
11775.0
0
SEQEND
0
POLYLINE
8
0
66
1
10
0.0
20
0.0
30
0.0
0
VERTEX
8
0
10
3400.0
20
11775.0
0
VERTEX
8
0
10
3400.0
20
11525.0
0
VERTEX
8
0
10
3395.0
20
11525.0
0
VERTEX
8
0
10
3325.0
20
11775.0
0
VERTEX
8
0
10
3400.0
20
11775.0
0
SEQEND
0
POLYLINE
8
0
66
1
10
0.0
20
0.0
30
0.0
0
VERTEX
8
0
10
2825.0
20
875.0
0
VERTEX
8
0
10
2500.0
20
875.0
0
VERTEX
8
0
10
2500.0
20
725.0
0
VERTEX
8
0
10
2825.0
20
725.0
0
VERTEX
8
0
10
2825.0
20
875.0
0
SEQEND
0
POLYLINE
8
0
66
1
10
0.0
20
0.0
30
0.0
0
VERTEX
8
0
10
2500.0
20
800.0
0
VERTEX
8
0
10
2250.0
20
800.0
0
VERTEX
8
0
10
2250.0
20
795.0
0
VERTEX
8
0
10
2500.0
20
725.0
0
VERTEX
8
0
10
2500.0
20
800.0
0
SEQEND
0
POLYLINE
8
0
66
1
10
0.0
20
0.0
30
0.0
0
VERTEX
8
0
10
2500.0
20
800.0
0
VERTEX
8
0
10
2250.0
20
800.0
0
VERTEX
8
0
10
2250.0
20
805.0
0
VERTEX
8
0
10
2500.0
20
875.0
0
VERTEX
8
0
10
2500.0
20
800.0
0
SEQEND
0
POLYLINE
8
0
66
1
10
0.0
20
0.0
30
0.0
0
VERTEX
8
0
10
-1225.0
20
725.0
0
VERTEX
8
0
10
-900.0
20
725.0
0
VERTEX
8
0
10
-900.0
20
875.0
0
VERTEX
8
0
10
-1225.0
20
875.0
0
VERTEX
8
0
10
-1225.0
20
725.0
0
SEQEND
0
POLYLINE
8
0
66
1
10
0.0
20
0.0
30
0.0
0
VERTEX
8
0
10
-900.0
20
800.0
0
VERTEX
8
0
10
-650.0
20
800.0
0
VERTEX
8
0
10
-650.0
20
805.0
0
VERTEX
8
0
10
-900.0
20
875.0
0
VERTEX
8
0
10
-900.0
20
800.0
0
SEQEND
0
POLYLINE
8
0
66
1
10
0.0
20
0.0
30
0.0
0
VERTEX
8
0
10
-900.0
20
800.0
0
VERTEX
8
0
10
-650.0
20
800.0
0
VERTEX
8
0
10
-650.0
20
795.0
0
VERTEX
8
0
10
-900.0
20
725.0
0
VERTEX
8
0
10
-900.0
20
800.0
0
SEQEND
0
POLYLINE
8
0
66
1
10
0.0
20
0.0
30
0.0
0
VERTEX
8
0
10
-1875.0
20
12095.0
0
VERTEX
8
0
10
-1875.0
20
11770.0
0
VERTEX
8
0
10
-1725.0
20
11770.0
0
VERTEX
8
0
10
-1725.0
20
12095.0
0
VERTEX
8
0
10
-1875.0
20
12095.0
0
SEQEND
0
POLYLINE
8
0
66
1
10
0.0
20
0.0
30
0.0
0
VERTEX
8
0
10
-1800.0
20
11770.0
0
VERTEX
8
0
10
-1800.0
20
11520.0
0
VERTEX
8
0
10
-1795.0
20
11520.0
0
VERTEX
8
0
10
-1725.0
20
11770.0
0
VERTEX
8
0
10
-1800.0
20
11770.0
0
SEQEND
0
POLYLINE
8
0
66
1
10
0.0
20
0.0
30
0.0
0
VERTEX
8
0
10
-1800.0
20
11770.0
0
VERTEX
8
0
10
-1800.0
20
11520.0
0
VERTEX
8
0
10
-1805.0
20
11520.0
0
VERTEX
8
0
10
-1875.0
20
11770.0
0
VERTEX
8
0
10
-1800.0
20
11770.0
0
SEQEND
0
POLYLINE
8
0
66
1
10
0.0
20
0.0
30
0.0
0
VERTEX
8
0
10
-1875.0
20
14350.0
0
VERTEX
8
0
10
-1875.0
20
14025.0
0
VERTEX
8
0
10
-1725.0
20
14025.0
0
VERTEX
8
0
10
-1725.0
20
14350.0
0
VERTEX
8
0
10
-1875.0
20
14350.0
0
SEQEND
0
POLYLINE
8
0
66
1
10
0.0
20
0.0
30
0.0
0
VERTEX
8
0
10
-1800.0
20
14025.0
0
VERTEX
8
0
10
-1800.0
20
13775.0
0
VERTEX
8
0
10
-1795.0
20
13775.0
0
VERTEX
8
0
10
-1725.0
20
14025.0
0
VERTEX
8
0
10
-1800.0
20
14025.0
0
SEQEND
0
POLYLINE
8
0
66
1
10
0.0
20
0.0
30
0.0
0
VERTEX
8
0
10
-1800.0
20
14025.0
0
VERTEX
8
0
10
-1800.0
20
13775.0
0
VERTEX
8
0
10
-1805.0
20
13775.0
0
VERTEX
8
0
10
-1875.0
20
14025.0
0
VERTEX
8
0
10
-1800.0
20
14025.0
0
SEQEND
0
POLYLINE
8
0
66
1
10
0.0
20
0.0
30
0.0
0
VERTEX
8
0
10
2825.0
20
25425.0
0
VERTEX
8
0
10
2500.0
20
25425.0
0
VERTEX
8
0
10
2500.0
20
25275.0
0
VERTEX
8
0
10
2825.0
20
25275.0
0
VERTEX
8
0
10
2825.0
20
25425.0
0
SEQEND
0
POLYLINE
8
0
66
1
10
0.0
20
0.0
30
0.0
0
VERTEX
8
0
10
2500.0
20
25350.0
0
VERTEX
8
0
10
2250.0
20
25350.0
0
VERTEX
8
0
10
2250.0
20
25345.0
0
VERTEX
8
0
10
2500.0
20
25275.0
0
VERTEX
8
0
10
2500.0
20
25350.0
0
SEQEND
0
POLYLINE
8
0
66
1
10
0.0
20
0.0
30
0.0
0
VERTEX
8
0
10
2500.0
20
25350.0
0
VERTEX
8
0
10
2250.0
20
25350.0
0
VERTEX
8
0
10
2250.0
20
25355.0
0
VERTEX
8
0
10
2500.0
20
25425.0
0
VERTEX
8
0
10
2500.0
20
25350.0
0
SEQEND
0
POLYLINE
8
0
66
1
10
0.0
20
0.0
30
0.0
0
VERTEX
8
0
10
3325.0
20
14350.0
0
VERTEX
8
0
10
3325.0
20
14025.0
0
VERTEX
8
0
10
3475.0
20
14025.0
0
VERTEX
8
0
10
3475.0
20
14350.0
0
VERTEX
8
0
10
3325.0
20
14350.0
0
SEQEND
0
POLYLINE
8
0
66
1
10
0.0
20
0.0
30
0.0
0
VERTEX
8
0
10
3400.0
20
14025.0
0
VERTEX
8
0
10
3400.0
20
13775.0
0
VERTEX
8
0
10
3405.0
20
13775.0
0
VERTEX
8
0
10
3475.0
20
14025.0
0
VERTEX
8
0
10
3400.0
20
14025.0
0
SEQEND
0
POLYLINE
8
0
66
1
10
0.0
20
0.0
30
0.0
0
VERTEX
8
0
10
3400.0
20
14025.0
0
VERTEX
8
0
10
3400.0
20
13775.0
0
VERTEX
8
0
10
3395.0
20
13775.0
0
VERTEX
8
0
10
3325.0
20
14025.0
0
VERTEX
8
0
10
3400.0
20
14025.0
0
SEQEND
0
POLYLINE
8
0
66
1
10
0.0
20
0.0
30
0.0
0
VERTEX
8
0
10
3325.0
20
12100.0
0
VERTEX
8
0
10
3325.0
20
11775.0
0
VERTEX
8
0
10
3475.0
20
11775.0
0
VERTEX
8
0
10
3475.0
20
12100.0
0
VERTEX
8
0
10
3325.0
20
12100.0
0
SEQEND
0
POLYLINE
8
0
66
1
10
0.0
20
0.0
30
0.0
0
VERTEX
8
0
10
3400.0
20
11775.0
0
VERTEX
8
0
10
3400.0
20
11525.0
0
VERTEX
8
0
10
3405.0
20
11525.0
0
VERTEX
8
0
10
3475.0
20
11775.0
0
VERTEX
8
0
10
3400.0
20
11775.0
0
SEQEND
0
POLYLINE
8
0
66
1
10
0.0
20
0.0
30
0.0
0
VERTEX
8
0
10
3400.0
20
11775.0
0
VERTEX
8
0
10
3400.0
20
11525.0
0
VERTEX
8
0
10
3395.0
20
11525.0
0
VERTEX
8
0
10
3325.0
20
11775.0
0
VERTEX
8
0
10
3400.0
20
11775.0
0
SEQEND
0
POLYLINE
8
0
66
1
10
0.0
20
0.0
30
0.0
0
VERTEX
8
0
10
2825.0
20
875.0
0
VERTEX
8
0
10
2500.0
20
875.0
0
VERTEX
8
0
10
2500.0
20
725.0
0
VERTEX
8
0
10
2825.0
20
725.0
0
VERTEX
8
0
10
2825.0
20
875.0
0
SEQEND
0
POLYLINE
8
0
66
1
10
0.0
20
0.0
30
0.0
0
VERTEX
8
0
10
2500.0
20
800.0
0
VERTEX
8
0
10
2250.0
20
800.0
0
VERTEX
8
0
10
2250.0
20
795.0
0
VERTEX
8
0
10
2500.0
20
725.0
0
VERTEX
8
0
10
2500.0
20
800.0
0
SEQEND
0
POLYLINE
8
0
66
1
10
0.0
20
0.0
30
0.0
0
VERTEX
8
0
10
2500.0
20
800.0
0
VERTEX
8
0
10
2250.0
20
800.0
0
VERTEX
8
0
10
2250.0
20
805.0
0
VERTEX
8
0
10
2500.0
20
875.0
0
VERTEX
8
0
10
2500.0
20
800.0
0
SEQEND
0
POLYLINE
8
0
66
1
10
0.0
20
0.0
30
0.0
0
VERTEX
8
0
10
-1225.0
20
725.0
0
VERTEX
8
0
10
-900.0
20
725.0
0
VERTEX
8
0
10
-900.0
20
875.0
0
VERTEX
8
0
10
-1225.0
20
875.0
0
VERTEX
8
0
10
-1225.0
20
725.0
0
SEQEND
0
POLYLINE
8
0
66
1
10
0.0
20
0.0
30
0.0
0
VERTEX
8
0
10
-900.0
20
800.0
0
VERTEX
8
0
10
-650.0
20
800.0
0
VERTEX
8
0
10
-650.0
20
805.0
0
VERTEX
8
0
10
-900.0
20
875.0
0
VERTEX
8
0
10
-900.0
20
800.0
0
SEQEND
0
POLYLINE
8
0
66
1
10
0.0
20
0.0
30
0.0
0
VERTEX
8
0
10
-900.0
20
800.0
0
VERTEX
8
0
10
-650.0
20
800.0
0
VERTEX
8
0
10
-650.0
20
795.0
0
VERTEX
8
0
10
-900.0
20
725.0
0
VERTEX
8
0
10
-900.0
20
800.0
0
SEQEND
0
POLYLINE
8
0
66
1
10
0.0
20
0.0
30
0.0
0
VERTEX
8
0
10
855.0
20
25240.0
0
VERTEX
8
0
10
852.3205080756887
20
25250.0
0
VERTEX
8
0
10
845.0
20
25257.32050807569
0
VERTEX
8
0
10
835.0
20
25260.0
0
VERTEX
8
0
10
835.0
20
25260.0
0
VERTEX
8
0
10
845.0
20
25257.32050807569
0
VERTEX
8
0
10
852.3205080756887
20
25250.0
0
VERTEX
8
0
10
855.0
20
25240.0
0
VERTEX
8
0
10
855.0
20
25240.0
0
SEQEND
0
POLYLINE
8
0
66
1
10
0.0
20
0.0
30
0.0
0
VERTEX
8
0
10
855.0
20
25240.0
0
VERTEX
8
0
10
852.3205080756887
20
25250.0
0
VERTEX
8
0
10
845.0
20
25257.32050807569
0
VERTEX
8
0
10
835.0
20
25260.0
0
VERTEX
8
0
10
835.0
20
25260.0
0
VERTEX
8
0
10
845.0
20
25257.32050807569
0
VERTEX
8
0
10
852.3205080756887
20
25250.0
0
VERTEX
8
0
10
855.0
20
25240.0
0
VERTEX
8
0
10
855.0
20
25240.0
0
SEQEND
0
POLYLINE
8
0
66
1
10
0.0
20
0.0
30
0.0
0
VERTEX
8
0
10
745.0
20
25240.0
0
VERTEX
8
0
10
747.6794919243113
20
25250.0
0
VERTEX
8
0
10
755.0
20
25257.32050807569
0
VERTEX
8
0
10
765.0
20
25260.0
0
VERTEX
8
0
10
765.0
20
25260.0
0
VERTEX
8
0
10
755.0
20
25257.32050807569
0
VERTEX
8
0
10
747.6794919243113
20
25250.0
0
VERTEX
8
0
10
745.0
20
25240.0
0
VERTEX
8
0
10
745.0
20
25240.0
0
SEQEND
0
POLYLINE
8
0
66
1
10
0.0
20
0.0
30
0.0
0
VERTEX
8
0
10
745.0
20
25240.0
0
VERTEX
8
0
10
747.6794919243113
20
25250.0
0
VERTEX
8
0
10
755.0
20
25257.32050807569
0
VERTEX
8
0
10
765.0
20
25260.0
0
VERTEX
8
0
10
765.0
20
25260.0
0
VERTEX
8
0
10
755.0
20
25257.32050807569
0
VERTEX
8
0
10
747.6794919243113
20
25250.0
0
VERTEX
8
0
10
745.0
20
25240.0
0
VERTEX
8
0
10
745.0
20
25240.0
0
SEQEND
0
POLYLINE
8
0
66
1
10
0.0
20
0.0
30
0.0
0
VERTEX
8
0
10
745.0
20
21620.0
0
VERTEX
8
0
10
747.6794919243113
20
21610.0
0
VERTEX
8
0
10
755.0
20
21602.67949192431
0
VERTEX
8
0
10
765.0
20
21600.0
0
VERTEX
8
0
10
765.0
20
21600.0
0
VERTEX
8
0
10
755.0
20
21602.67949192431
0
VERTEX
8
0
10
747.6794919243113
20
21610.0
0
VERTEX
8
0
10
745.0
20
21620.0
0
VERTEX
8
0
10
745.0
20
21620.0
0
SEQEND
0
POLYLINE
8
0
66
1
10
0.0
20
0.0
30
0.0
0
VERTEX
8
0
10
745.0
20
21620.0
0
VERTEX
8
0
10
747.6794919243113
20
21610.0
0
VERTEX
8
0
10
755.0
20
21602.67949192431
0
VERTEX
8
0
10
765.0
20
21600.0
0
VERTEX
8
0
10
765.0
20
21600.0
0
VERTEX
8
0
10
755.0
20
21602.67949192431
0
VERTEX
8
0
10
747.6794919243113
20
21610.0
0
VERTEX
8
0
10
745.0
20
21620.0
0
VERTEX
8
0
10
745.0
20
21620.0
0
SEQEND
0
POLYLINE
8
0
66
1
10
0.0
20
0.0
30
0.0
0
VERTEX
8
0
10
855.0
20
21620.0
0
VERTEX
8
0
10
852.3205080756887
20
21610.0
0
VERTEX
8
0
10
845.0
20
21602.67949192431
0
VERTEX
8
0
10
835.0
20
21600.0
0
VERTEX
8
0
10
835.0
20
21600.0
0
VERTEX
8
0
10
845.0
20
21602.67949192431
0
VERTEX
8
0
10
852.3205080756887
20
21610.0
0
VERTEX
8
0
10
855.0
20
21620.0
0
VERTEX
8
0
10
855.0
20
21620.0
0
SEQEND
0
POLYLINE
8
0
66
1
10
0.0
20
0.0
30
0.0
0
VERTEX
8
0
10
855.0
20
21620.0
0
VERTEX
8
0
10
852.3205080756887
20
21610.0
0
VERTEX
8
0
10
845.0
20
21602.67949192431
0
VERTEX
8
0
10
835.0
20
21600.0
0
VERTEX
8
0
10
835.0
20
21600.0
0
VERTEX
8
0
10
845.0
20
21602.67949192431
0
VERTEX
8
0
10
852.3205080756887
20
21610.0
0
VERTEX
8
0
10
855.0
20
21620.0
0
VERTEX
8
0
10
855.0
20
21620.0
0
SEQEND
0
POLYLINE
8
0
66
1
10
0.0
20
0.0
30
0.0
0
VERTEX
8
0
10
780.0
20
21570.0
0
VERTEX
8
0
10
779.3301270189222
20
21572.5
0
VERTEX
8
0
10
777.5
20
21574.330127018922
0
VERTEX
8
0
10
775.0
20
21575.0
0
VERTEX
8
0
10
775.0
20
21575.0
0
VERTEX
8
0
10
777.5
20
21574.330127018922
0
VERTEX
8
0
10
779.3301270189222
20
21572.5
0
VERTEX
8
0
10
780.0
20
21570.0
0
VERTEX
8
0
10
780.0
20
21570.0
0
SEQEND
0
POLYLINE
8
0
66
1
10
0.0
20
0.0
30
0.0
0
VERTEX
8
0
10
780.0
20
21570.0
0
VERTEX
8
0
10
779.3301270189222
20
21572.5
0
VERTEX
8
0
10
777.5
20
21574.330127018922
0
VERTEX
8
0
10
775.0
20
21575.0
0
VERTEX
8
0
10
775.0
20
21575.0
0
VERTEX
8
0
10
777.5
20
21574.330127018922
0
VERTEX
8
0
10
779.3301270189222
20
21572.5
0
VERTEX
8
0
10
780.0
20
21570.0
0
VERTEX
8
0
10
780.0
20
21570.0
0
SEQEND
0
POLYLINE
8
0
66
1
10
0.0
20
0.0
30
0.0
0
VERTEX
8
0
10
820.0
20
21570.0
0
VERTEX
8
0
10
820.6698729810778
20
21572.5
0
VERTEX
8
0
10
822.5
20
21574.330127018922
0
VERTEX
8
0
10
825.0
20
21575.0
0
VERTEX
8
0
10
825.0
20
21575.0
0
VERTEX
8
0
10
822.5
20
21574.330127018922
0
VERTEX
8
0
10
820.6698729810778
20
21572.5
0
VERTEX
8
0
10
820.0
20
21570.0
0
VERTEX
8
0
10
820.0
20
21570.0
0
SEQEND
0
POLYLINE
8
0
66
1
10
0.0
20
0.0
30
0.0
0
VERTEX
8
0
10
820.0
20
21570.0
0
VERTEX
8
0
10
820.6698729810778
20
21572.5
0
VERTEX
8
0
10
822.5
20
21574.330127018922
0
VERTEX
8
0
10
825.0
20
21575.0
0
VERTEX
8
0
10
825.0
20
21575.0
0
VERTEX
8
0
10
822.5
20
21574.330127018922
0
VERTEX
8
0
10
820.6698729810778
20
21572.5
0
VERTEX
8
0
10
820.0
20
21570.0
0
VERTEX
8
0
10
820.0
20
21570.0
0
SEQEND
0
POLYLINE
8
0
66
1
10
0.0
20
0.0
30
0.0
0
VERTEX
8
0
10
854.9999999999977
20
17770.0
0
VERTEX
8
0
10
852.3205080756865
20
17760.0
0
VERTEX
8
0
10
844.9999999999977
20
17752.67949192431
0
VERTEX
8
0
10
834.9999999999977
20
17750.0
0
VERTEX
8
0
10
834.9999999999977
20
17750.0
0
VERTEX
8
0
10
844.9999999999977
20
17752.67949192431
0
VERTEX
8
0
10
852.3205080756865
20
17760.0
0
VERTEX
8
0
10
854.9999999999977
20
17770.0
0
VERTEX
8
0
10
854.9999999999977
20
17770.0
0
SEQEND
0
POLYLINE
8
0
66
1
10
0.0
20
0.0
30
0.0
0
VERTEX
8
0
10
854.9999999999977
20
17770.0
0
VERTEX
8
0
10
852.3205080756865
20
17760.0
0
VERTEX
8
0
10
844.9999999999977
20
17752.67949192431
0
VERTEX
8
0
10
834.9999999999977
20
17750.0
0
VERTEX
8
0
10
834.9999999999977
20
17750.0
0
VERTEX
8
0
10
844.9999999999977
20
17752.67949192431
0
VERTEX
8
0
10
852.3205080756865
20
17760.0
0
VERTEX
8
0
10
854.9999999999977
20
17770.0
0
VERTEX
8
0
10
854.9999999999977
20
17770.0
0
SEQEND
0
POLYLINE
8
0
66
1
10
0.0
20
0.0
30
0.0
0
VERTEX
8
0
10
744.9999999999977
20
17770.0
0
VERTEX
8
0
10
747.679491924309
20
17760.0
0
VERTEX
8
0
10
754.9999999999977
20
17752.67949192431
0
VERTEX
8
0
10
764.9999999999977
20
17750.0
0
VERTEX
8
0
10
764.9999999999977
20
17750.0
0
VERTEX
8
0
10
754.9999999999977
20
17752.67949192431
0
VERTEX
8
0
10
747.679491924309
20
17760.0
0
VERTEX
8
0
10
744.9999999999977
20
17770.0
0
VERTEX
8
0
10
744.9999999999977
20
17770.0
0
SEQEND
0
POLYLINE
8
0
66
1
10
0.0
20
0.0
30
0.0
0
VERTEX
8
0
10
744.9999999999977
20
17770.0
0
VERTEX
8
0
10
747.679491924309
20
17760.0
0
VERTEX
8
0
10
754.9999999999977
20
17752.67949192431
0
VERTEX
8
0
10
764.9999999999977
20
17750.0
0
VERTEX
8
0
10
764.9999999999977
20
17750.0
0
VERTEX
8
0
10
754.9999999999977
20
17752.67949192431
0
VERTEX
8
0
10
747.679491924309
20
17760.0
0
VERTEX
8
0
10
744.9999999999977
20
17770.0
0
VERTEX
8
0
10
744.9999999999977
20
17770.0
0
SEQEND
0
POLYLINE
8
0
66
1
10
0.0
20
0.0
30
0.0
0
VERTEX
8
0
10
744.9999999999977
20
20790.0
0
VERTEX
8
0
10
747.679491924309
20
20800.0
0
VERTEX
8
0
10
754.9999999999977
20
20807.32050807569
0
VERTEX
8
0
10
764.9999999999977
20
20810.0
0
VERTEX
8
0
10
764.9999999999977
20
20810.0
0
VERTEX
8
0
10
754.9999999999977
20
20807.32050807569
0
VERTEX
8
0
10
747.679491924309
20
20800.0
0
VERTEX
8
0
10
744.9999999999977
20
20790.0
0
VERTEX
8
0
10
744.9999999999977
20
20790.0
0
SEQEND
0
POLYLINE
8
0
66
1
10
0.0
20
0.0
30
0.0
0
VERTEX
8
0
10
744.9999999999977
20
20790.0
0
VERTEX
8
0
10
747.679491924309
20
20800.0
0
VERTEX
8
0
10
754.9999999999977
20
20807.32050807569
0
VERTEX
8
0
10
764.9999999999977
20
20810.0
0
VERTEX
8
0
10
764.9999999999977
20
20810.0
0
VERTEX
8
0
10
754.9999999999977
20
20807.32050807569
0
VERTEX
8
0
10
747.679491924309
20
20800.0
0
VERTEX
8
0
10
744.9999999999977
20
20790.0
0
VERTEX
8
0
10
744.9999999999977
20
20790.0
0
SEQEND
0
POLYLINE
8
0
66
1
10
0.0
20
0.0
30
0.0
0
VERTEX
8
0
10
854.9999999999977
20
20790.0
0
VERTEX
8
0
10
852.3205080756865
20
20800.0
0
VERTEX
8
0
10
844.9999999999977
20
20807.32050807569
0
VERTEX
8
0
10
834.9999999999977
20
20810.0
0
VERTEX
8
0
10
834.9999999999977
20
20810.0
0
VERTEX
8
0
10
844.9999999999977
20
20807.32050807569
0
VERTEX
8
0
10
852.3205080756865
20
20800.0
0
VERTEX
8
0
10
854.9999999999977
20
20790.0
0
VERTEX
8
0
10
854.9999999999977
20
20790.0
0
SEQEND
0
POLYLINE
8
0
66
1
10
0.0
20
0.0
30
0.0
0
VERTEX
8
0
10
854.9999999999977
20
20790.0
0
VERTEX
8
0
10
852.3205080756865
20
20800.0
0
VERTEX
8
0
10
844.9999999999977
20
20807.32050807569
0
VERTEX
8
0
10
834.9999999999977
20
20810.0
0
VERTEX
8
0
10
834.9999999999977
20
20810.0
0
VERTEX
8
0
10
844.9999999999977
20
20807.32050807569
0
VERTEX
8
0
10
852.3205080756865
20
20800.0
0
VERTEX
8
0
10
854.9999999999977
20
20790.0
0
VERTEX
8
0
10
854.9999999999977
20
20790.0
0
SEQEND
0
POLYLINE
8
0
66
1
10
0.0
20
0.0
30
0.0
0
VERTEX
8
0
10
779.9999999999977
20
20840.0
0
VERTEX
8
0
10
779.3301270189199
20
20837.5
0
VERTEX
8
0
10
777.4999999999977
20
20835.669872981078
0
VERTEX
8
0
10
774.9999999999977
20
20835.0
0
VERTEX
8
0
10
774.9999999999977
20
20835.0
0
VERTEX
8
0
10
777.4999999999977
20
20835.669872981078
0
VERTEX
8
0
10
779.3301270189199
20
20837.5
0
VERTEX
8
0
10
779.9999999999977
20
20840.0
0
VERTEX
8
0
10
779.9999999999977
20
20840.0
0
SEQEND
0
POLYLINE
8
0
66
1
10
0.0
20
0.0
30
0.0
0
VERTEX
8
0
10
779.9999999999977
20
20840.0
0
VERTEX
8
0
10
779.3301270189199
20
20837.5
0
VERTEX
8
0
10
777.4999999999977
20
20835.669872981078
0
VERTEX
8
0
10
774.9999999999977
20
20835.0
0
VERTEX
8
0
10
774.9999999999977
20
20835.0
0
VERTEX
8
0
10
777.4999999999977
20
20835.669872981078
0
VERTEX
8
0
10
779.3301270189199
20
20837.5
0
VERTEX
8
0
10
779.9999999999977
20
20840.0
0
VERTEX
8
0
10
779.9999999999977
20
20840.0
0
SEQEND
0
POLYLINE
8
0
66
1
10
0.0
20
0.0
30
0.0
0
VERTEX
8
0
10
819.9999999999977
20
20840.0
0
VERTEX
8
0
10
820.6698729810755
20
20837.5
0
VERTEX
8
0
10
822.4999999999977
20
20835.669872981078
0
VERTEX
8
0
10
824.9999999999977
20
20835.0
0
VERTEX
8
0
10
824.9999999999977
20
20835.0
0
VERTEX
8
0
10
822.4999999999977
20
20835.669872981078
0
VERTEX
8
0
10
820.6698729810755
20
20837.5
0
VERTEX
8
0
10
819.9999999999977
20
20840.0
0
VERTEX
8
0
10
819.9999999999977
20
20840.0
0
SEQEND
0
POLYLINE
8
0
66
1
10
0.0
20
0.0
30
0.0
0
VERTEX
8
0
10
819.9999999999977
20
20840.0
0
VERTEX
8
0
10
820.6698729810755
20
20837.5
0
VERTEX
8
0
10
822.4999999999977
20
20835.669872981078
0
VERTEX
8
0
10
824.9999999999977
20
20835.0
0
VERTEX
8
0
10
824.9999999999977
20
20835.0
0
VERTEX
8
0
10
822.4999999999977
20
20835.669872981078
0
VERTEX
8
0
10
820.6698729810755
20
20837.5
0
VERTEX
8
0
10
819.9999999999977
20
20840.0
0
VERTEX
8
0
10
819.9999999999977
20
20840.0
0
SEQEND
0
POLYLINE
8
0
66
1
10
0.0
20
0.0
30
0.0
0
VERTEX
8
0
10
699.9999999999935
20
7730.0
0
VERTEX
8
0
10
699.9999999999933
20
7230.0
0
VERTEX
8
0
10
899.9999999999933
20
7230.0
0
VERTEX
8
0
10
899.9999999999935
20
7730.0
0
VERTEX
8
0
10
699.9999999999935
20
7730.0
0
SEQEND
0
POLYLINE
8
0
66
1
10
0.0
20
0.0
30
0.0
0
VERTEX
8
0
10
99.99999999999346
20
7730.0
0
VERTEX
8
0
10
99.99999999999324
20
7230.0
0
VERTEX
8
0
10
299.99999999999324
20
7230.0
0
VERTEX
8
0
10
299.99999999999346
20
7730.0
0
VERTEX
8
0
10
99.99999999999346
20
7730.0
0
SEQEND
0
POLYLINE
8
0
66
1
10
0.0
20
0.0
30
0.0
0
VERTEX
8
0
10
1299.9999999999936
20
7730.0
0
VERTEX
8
0
10
1299.9999999999934
20
7230.0
0
VERTEX
8
0
10
1499.9999999999934
20
7230.0
0
VERTEX
8
0
10
1499.9999999999936
20
7730.0
0
VERTEX
8
0
10
1299.9999999999936
20
7730.0
0
SEQEND
0
POLYLINE
8
0
66
1
10
0.0
20
0.0
30
0.0
0
VERTEX
8
0
10
812.5
20
21162.0
0
VERTEX
8
0
10
812.5
20
21182.0
0
VERTEX
8
0
10
787.5
20
21182.0
0
VERTEX
8
0
10
787.5
20
21162.0
0
VERTEX
8
0
10
812.5
20
21162.0
0
SEQEND
0
ENDBLK
0
BLOCK
8
0
2
MM2D
70
0
10
0
20
0
30
0
3
MM2D
0
POLYLINE
8
GAP
66
1
10
0.0
20
0.0
30
0.0
0
VERTEX
8
GAP
10
-200.0
20
26150.0
0
VERTEX
8
GAP
10
-100.0
20
26150.0
0
VERTEX
8
GAP
10
-100.0
20
26130.0
0
VERTEX
8
GAP
10
-180.0
20
26130.0
0
VERTEX
8
GAP
10
-180.0
20
26050.0
0
VERTEX
8
GAP
10
-200.0
20
26050.0
0
VERTEX
8
GAP
10
-200.0
20
26150.0
0
SEQEND
0
POLYLINE
8
GAP
66
1
10
0.0
20
0.0
30
0.0
0
VERTEX
8
GAP
10
-200.0
20
-200.0
0
VERTEX
8
GAP
10
-100.0
20
-200.0
0
VERTEX
8
GAP
10
-100.0
20
-180.0
0
VERTEX
8
GAP
10
-180.0
20
-180.0
0
VERTEX
8
GAP
10
-180.0
20
-100.0
0
VERTEX
8
GAP
10
-200.0
20
-100.0
0
VERTEX
8
GAP
10
-200.0
20
-200.0
0
SEQEND
0
POLYLINE
8
GAP
66
1
10
0.0
20
0.0
30
0.0
0
VERTEX
8
GAP
10
1800.0
20
-200.0
0
VERTEX
8
GAP
10
1700.0
20
-200.0
0
VERTEX
8
GAP
10
1700.0
20
-180.0
0
VERTEX
8
GAP
10
1780.0
20
-180.0
0
VERTEX
8
GAP
10
1780.0
20
-100.0
0
VERTEX
8
GAP
10
1800.0
20
-100.0
0
VERTEX
8
GAP
10
1800.0
20
-200.0
0
SEQEND
0
POLYLINE
8
GAP
66
1
10
0.0
20
0.0
30
0.0
0
VERTEX
8
GAP
10
1800.0
20
26150.0
0
VERTEX
8
GAP
10
1700.0
20
26150.0
0
VERTEX
8
GAP
10
1700.0
20
26130.0
0
VERTEX
8
GAP
10
1780.0
20
26130.0
0
VERTEX
8
GAP
10
1780.0
20
26050.0
0
VERTEX
8
GAP
10
1800.0
20
26050.0
0
VERTEX
8
GAP
10
1800.0
20
26150.0
0
SEQEND
0
POLYLINE
8
GAP
66
1
10
0.0
20
0.0
30
0.0
0
VERTEX
8
GAP
10
260.0
20
26150.0
0
VERTEX
8
GAP
10
340.0
20
26150.0
0
VERTEX
8
GAP
10
340.0
20
26130.0
0
VERTEX
8
GAP
10
260.0
20
26130.0
0
VERTEX
8
GAP
10
260.0
20
26150.0
0
SEQEND
0
POLYLINE
8
GAP
66
1
10
0.0
20
0.0
30
0.0
0
VERTEX
8
GAP
10
260.0
20
-200.0
0
VERTEX
8
GAP
10
340.0
20
-200.0
0
VERTEX
8
GAP
10
340.0
20
-180.0
0
VERTEX
8
GAP
10
260.0
20
-180.0
0
VERTEX
8
GAP
10
260.0
20
-200.0
0
SEQEND
0
POLYLINE
8
GAP
66
1
10
0.0
20
0.0
30
0.0
0
VERTEX
8
GAP
10
-200.0
20
6347.5
0
VERTEX
8
GAP
10
-200.0
20
6427.5
0
VERTEX
8
GAP
10
-180.0
20
6427.5
0
VERTEX
8
GAP
10
-180.0
20
6347.5
0
VERTEX
8
GAP
10
-200.0
20
6347.5
0
SEQEND
0
POLYLINE
8
GAP
66
1
10
0.0
20
0.0
30
0.0
0
VERTEX
8
GAP
10
1800.0
20
6347.5
0
VERTEX
8
GAP
10
1800.0
20
6427.5
0
VERTEX
8
GAP
10
1780.0
20
6427.5
0
VERTEX
8
GAP
10
1780.0
20
6347.5
0
VERTEX
8
GAP
10
1800.0
20
6347.5
0
SEQEND
0
POLYLINE
8
GAP
66
1
10
0.0
20
0.0
30
0.0
0
VERTEX
8
GAP
10
760.0
20
26150.0
0
VERTEX
8
GAP
10
840.0
20
26150.0
0
VERTEX
8
GAP
10
840.0
20
26130.0
0
VERTEX
8
GAP
10
760.0
20
26130.0
0
VERTEX
8
GAP
10
760.0
20
26150.0
0
SEQEND
0
POLYLINE
8
GAP
66
1
10
0.0
20
0.0
30
0.0
0
VERTEX
8
GAP
10
760.0
20
-200.0
0
VERTEX
8
GAP
10
840.0
20
-200.0
0
VERTEX
8
GAP
10
840.0
20
-180.0
0
VERTEX
8
GAP
10
760.0
20
-180.0
0
VERTEX
8
GAP
10
760.0
20
-200.0
0
SEQEND
0
POLYLINE
8
GAP
66
1
10
0.0
20
0.0
30
0.0
0
VERTEX
8
GAP
10
-200.0
20
12935.0
0
VERTEX
8
GAP
10
-200.0
20
13015.0
0
VERTEX
8
GAP
10
-180.0
20
13015.0
0
VERTEX
8
GAP
10
-180.0
20
12935.0
0
VERTEX
8
GAP
10
-200.0
20
12935.0
0
SEQEND
0
POLYLINE
8
GAP
66
1
10
0.0
20
0.0
30
0.0
0
VERTEX
8
GAP
10
1800.0
20
12935.0
0
VERTEX
8
GAP
10
1800.0
20
13015.0
0
VERTEX
8
GAP
10
1780.0
20
13015.0
0
VERTEX
8
GAP
10
1780.0
20
12935.0
0
VERTEX
8
GAP
10
1800.0
20
12935.0
0
SEQEND
0
POLYLINE
8
GAP
66
1
10
0.0
20
0.0
30
0.0
0
VERTEX
8
GAP
10
1260.0
20
26150.0
0
VERTEX
8
GAP
10
1340.0
20
26150.0
0
VERTEX
8
GAP
10
1340.0
20
26130.0
0
VERTEX
8
GAP
10
1260.0
20
26130.0
0
VERTEX
8
GAP
10
1260.0
20
26150.0
0
SEQEND
0
POLYLINE
8
GAP
66
1
10
0.0
20
0.0
30
0.0
0
VERTEX
8
GAP
10
1260.0
20
-200.0
0
VERTEX
8
GAP
10
1340.0
20
-200.0
0
VERTEX
8
GAP
10
1340.0
20
-180.0
0
VERTEX
8
GAP
10
1260.0
20
-180.0
0
VERTEX
8
GAP
10
1260.0
20
-200.0
0
SEQEND
0
POLYLINE
8
GAP
66
1
10
0.0
20
0.0
30
0.0
0
VERTEX
8
GAP
10
-200.0
20
19522.5
0
VERTEX
8
GAP
10
-200.0
20
19602.5
0
VERTEX
8
GAP
10
-180.0
20
19602.5
0
VERTEX
8
GAP
10
-180.0
20
19522.5
0
VERTEX
8
GAP
10
-200.0
20
19522.5
0
SEQEND
0
POLYLINE
8
GAP
66
1
10
0.0
20
0.0
30
0.0
0
VERTEX
8
GAP
10
1800.0
20
19522.5
0
VERTEX
8
GAP
10
1800.0
20
19602.5
0
VERTEX
8
GAP
10
1780.0
20
19602.5
0
VERTEX
8
GAP
10
1780.0
20
19522.5
0
VERTEX
8
GAP
10
1800.0
20
19522.5
0
SEQEND
0
ENDBLK
0
ENDSEC
0
SECTION
2
ENTITIES
0
INSERT
2
MM2DGAP
8
GAP
10
0
20
0
0
INSERT
2
MM2DPIN
8
PIN
10
0
20
0
0
INSERT
2
MM2D
8
0
10
0
20
0
0
ENDSEC
0
EOF
