0
SECTION
2
HEADER
9
$ACADVER
1
AC1006
9
$INSBASE
10
0.0
20
0.0
30
0.0
9
$EXTMIN
10
0.0
20
0.0
9
$EXTMAX
10
0.0
20
0.0
0
ENDSEC
0
SECTION
2
TABLES
0
TABLE
2
LTYPE
70
1
0
LTYPE
2
CONTINUOUS
70
64
3
Solid line
72
65
73
0
40
0.0
0
ENDTAB
0
TABLE
2
LAYER
70
3
0
LAYER
2
PYDXF
70
64
62
7
6
continuous
0
LAYER
2
GAP
70
64
62
1
6
continuous
0
LAYER
2
PIN
70
64
62
3
6
continuous
0
ENDTAB
0
TABLE
2
STYLE
70
1
0
STYLE
2
STANDARD
70
0
40
0
41
40
50
50
71
0
42
1
3
ARIAL.TTF
4

0
ENDTAB
0
TABLE
2
VIEW
70
0
0
ENDTAB
0
ENDSEC
0
SECTION
2
BLOCKS
0
BLOCK
8
GAP
2
Q6GAP
70
0
10
0
20
0
30
0
3
Q6GAP
0
POLYLINE
8
0
66
1
10
0.0
20
0.0
30
0.0
0
VERTEX
8
0
10
810.7000000000007
20
21113.3
0
VERTEX
8
0
10
810.7000000000007
20
21114.0
0
VERTEX
8
0
10
789.2999999999993
20
21114.0
0
VERTEX
8
0
10
789.2999999999993
20
21113.3
0
VERTEX
8
0
10
810.7000000000007
20
21113.3
0
SEQEND
0
POLYLINE
8
0
66
1
10
0.0
20
0.0
30
0.0
0
VERTEX
8
0
10
790.0
20
21114.0
0
VERTEX
8
0
10
790.0
20
21131.0
0
VERTEX
8
0
10
789.2999999999993
20
21131.0
0
VERTEX
8
0
10
789.2999999999993
20
21114.0
0
VERTEX
8
0
10
790.0
20
21114.0
0
SEQEND
0
POLYLINE
8
0
66
1
10
0.0
20
0.0
30
0.0
0
VERTEX
8
0
10
810.0
20
21114.0
0
VERTEX
8
0
10
810.0
20
21131.0
0
VERTEX
8
0
10
810.7000000000007
20
21131.0
0
VERTEX
8
0
10
810.7000000000007
20
21114.0
0
VERTEX
8
0
10
810.0
20
21114.0
0
SEQEND
0
POLYLINE
8
0
66
1
10
0.0
20
0.0
30
0.0
0
VERTEX
8
0
10
790.0
20
21131.0
0
VERTEX
8
0
10
799.0
20
21136.0
0
VERTEX
8
0
10
798.2999999999993
20
21136.0
0
VERTEX
8
0
10
789.2999999999993
20
21131.0
0
VERTEX
8
0
10
790.0
20
21131.0
0
SEQEND
0
POLYLINE
8
0
66
1
10
0.0
20
0.0
30
0.0
0
VERTEX
8
0
10
810.0
20
21131.0
0
VERTEX
8
0
10
801.0
20
21136.0
0
VERTEX
8
0
10
801.7000000000007
20
21136.0
0
VERTEX
8
0
10
810.7000000000007
20
21131.0
0
VERTEX
8
0
10
810.0
20
21131.0
0
SEQEND
0
POLYLINE
8
0
66
1
10
0.0
20
0.0
30
0.0
0
VERTEX
8
0
10
799.0
20
21136.0
0
VERTEX
8
0
10
799.0
20
21137.0
0
VERTEX
8
0
10
798.2999999999993
20
21137.0
0
VERTEX
8
0
10
798.2999999999993
20
21136.0
0
VERTEX
8
0
10
799.0
20
21136.0
0
SEQEND
0
POLYLINE
8
0
66
1
10
0.0
20
0.0
30
0.0
0
VERTEX
8
0
10
801.0
20
21136.0
0
VERTEX
8
0
10
801.0
20
21137.0
0
VERTEX
8
0
10
801.7000000000007
20
21137.0
0
VERTEX
8
0
10
801.7000000000007
20
21136.0
0
VERTEX
8
0
10
801.0
20
21136.0
0
SEQEND
0
POLYLINE
8
0
66
1
10
0.0
20
0.0
30
0.0
0
VERTEX
8
0
10
799.0
20
21137.0
0
VERTEX
8
0
10
799.0
20
21138.5
0
VERTEX
8
0
10
798.7999999999993
20
21138.5
0
VERTEX
8
0
10
798.7999999999993
20
21137.0
0
VERTEX
8
0
10
799.0
20
21137.0
0
SEQEND
0
POLYLINE
8
0
66
1
10
0.0
20
0.0
30
0.0
0
VERTEX
8
0
10
801.0
20
21137.0
0
VERTEX
8
0
10
801.0
20
21138.5
0
VERTEX
8
0
10
801.2000000000007
20
21138.5
0
VERTEX
8
0
10
801.2000000000007
20
21137.0
0
VERTEX
8
0
10
801.0
20
21137.0
0
SEQEND
0
POLYLINE
8
0
66
1
10
0.0
20
0.0
30
0.0
0
VERTEX
8
0
10
799.0
20
21138.5
0
VERTEX
8
0
10
799.8050000000003
20
21143.5
0
VERTEX
8
0
10
799.6049999999996
20
21143.5
0
VERTEX
8
0
10
798.7999999999993
20
21138.5
0
VERTEX
8
0
10
799.0
20
21138.5
0
SEQEND
0
POLYLINE
8
0
66
1
10
0.0
20
0.0
30
0.0
0
VERTEX
8
0
10
801.0
20
21138.5
0
VERTEX
8
0
10
800.1949999999997
20
21143.5
0
VERTEX
8
0
10
800.3950000000004
20
21143.5
0
VERTEX
8
0
10
801.2000000000007
20
21138.5
0
VERTEX
8
0
10
801.0
20
21138.5
0
SEQEND
0
POLYLINE
8
0
66
1
10
0.0
20
0.0
30
0.0
0
VERTEX
8
0
10
799.8050000000003
20
21143.5
0
VERTEX
8
0
10
799.8050000000003
20
21146.0
0
VERTEX
8
0
10
799.6049999999996
20
21146.0
0
VERTEX
8
0
10
799.6049999999996
20
21143.5
0
VERTEX
8
0
10
799.8050000000003
20
21143.5
0
SEQEND
0
POLYLINE
8
0
66
1
10
0.0
20
0.0
30
0.0
0
VERTEX
8
0
10
800.1949999999997
20
21143.5
0
VERTEX
8
0
10
800.1949999999997
20
21146.0
0
VERTEX
8
0
10
800.3950000000004
20
21146.0
0
VERTEX
8
0
10
800.3950000000004
20
21143.5
0
VERTEX
8
0
10
800.1949999999997
20
21143.5
0
SEQEND
0
POLYLINE
8
0
66
1
10
0.0
20
0.0
30
0.0
0
VERTEX
8
0
10
801.2000000000007
20
21146.0
0
VERTEX
8
0
10
801.2000000000007
20
21146.2
0
VERTEX
8
0
10
798.7999999999993
20
21146.2
0
VERTEX
8
0
10
798.7999999999993
20
21146.0
0
VERTEX
8
0
10
801.2000000000007
20
21146.0
0
SEQEND
0
POLYLINE
8
0
66
1
10
0.0
20
0.0
30
0.0
0
VERTEX
8
0
10
799.0
20
21146.2
0
VERTEX
8
0
10
799.0
20
21153.2
0
VERTEX
8
0
10
798.7999999999993
20
21153.2
0
VERTEX
8
0
10
798.7999999999993
20
21146.2
0
VERTEX
8
0
10
799.0
20
21146.2
0
SEQEND
0
POLYLINE
8
0
66
1
10
0.0
20
0.0
30
0.0
0
VERTEX
8
0
10
801.0
20
21146.2
0
VERTEX
8
0
10
801.0
20
21153.2
0
VERTEX
8
0
10
801.2000000000007
20
21153.2
0
VERTEX
8
0
10
801.2000000000007
20
21146.2
0
VERTEX
8
0
10
801.0
20
21146.2
0
SEQEND
0
POLYLINE
8
0
66
1
10
0.0
20
0.0
30
0.0
0
VERTEX
8
0
10
799.0
20
21153.2
0
VERTEX
8
0
10
799.0
20
21154.2
0
VERTEX
8
0
10
798.2999999999993
20
21154.2
0
VERTEX
8
0
10
798.2999999999993
20
21153.2
0
VERTEX
8
0
10
799.0
20
21153.2
0
SEQEND
0
POLYLINE
8
0
66
1
10
0.0
20
0.0
30
0.0
0
VERTEX
8
0
10
801.0
20
21153.2
0
VERTEX
8
0
10
801.0
20
21154.2
0
VERTEX
8
0
10
801.7000000000007
20
21154.2
0
VERTEX
8
0
10
801.7000000000007
20
21153.2
0
VERTEX
8
0
10
801.0
20
21153.2
0
SEQEND
0
POLYLINE
8
0
66
1
10
0.0
20
0.0
30
0.0
0
VERTEX
8
0
10
799.0
20
21154.2
0
VERTEX
8
0
10
790.0
20
21159.2
0
VERTEX
8
0
10
789.2999999999993
20
21159.2
0
VERTEX
8
0
10
798.2999999999993
20
21154.2
0
VERTEX
8
0
10
799.0
20
21154.2
0
SEQEND
0
POLYLINE
8
0
66
1
10
0.0
20
0.0
30
0.0
0
VERTEX
8
0
10
801.0
20
21154.2
0
VERTEX
8
0
10
810.0
20
21159.2
0
VERTEX
8
0
10
810.7000000000007
20
21159.2
0
VERTEX
8
0
10
801.7000000000007
20
21154.2
0
VERTEX
8
0
10
801.0
20
21154.2
0
SEQEND
0
POLYLINE
8
0
66
1
10
0.0
20
0.0
30
0.0
0
VERTEX
8
0
10
790.0
20
21159.2
0
VERTEX
8
0
10
790.0
20
21176.2
0
VERTEX
8
0
10
789.2999999999993
20
21176.2
0
VERTEX
8
0
10
789.2999999999993
20
21159.2
0
VERTEX
8
0
10
790.0
20
21159.2
0
SEQEND
0
POLYLINE
8
0
66
1
10
0.0
20
0.0
30
0.0
0
VERTEX
8
0
10
810.0
20
21159.2
0
VERTEX
8
0
10
810.0
20
21176.2
0
VERTEX
8
0
10
810.7000000000007
20
21176.2
0
VERTEX
8
0
10
810.7000000000007
20
21159.2
0
VERTEX
8
0
10
810.0
20
21159.2
0
SEQEND
0
POLYLINE
8
0
66
1
10
0.0
20
0.0
30
0.0
0
VERTEX
8
0
10
810.7000000000007
20
21176.2
0
VERTEX
8
0
10
810.7000000000007
20
21176.9
0
VERTEX
8
0
10
789.2999999999993
20
21176.9
0
VERTEX
8
0
10
789.2999999999993
20
21176.2
0
VERTEX
8
0
10
810.7000000000007
20
21176.2
0
SEQEND
0
POLYLINE
8
0
66
1
10
0.0
20
0.0
30
0.0
0
VERTEX
8
0
10
810.6999999999998
20
2253.3
0
VERTEX
8
0
10
810.6999999999998
20
2254.0
0
VERTEX
8
0
10
789.3000000000002
20
2254.0
0
VERTEX
8
0
10
789.3000000000002
20
2253.3
0
VERTEX
8
0
10
810.6999999999998
20
2253.3
0
SEQEND
0
POLYLINE
8
0
66
1
10
0.0
20
0.0
30
0.0
0
VERTEX
8
0
10
790.0
20
2254.0
0
VERTEX
8
0
10
790.0
20
2271.0
0
VERTEX
8
0
10
789.3000000000002
20
2271.0
0
VERTEX
8
0
10
789.3000000000002
20
2254.0
0
VERTEX
8
0
10
790.0
20
2254.0
0
SEQEND
0
POLYLINE
8
0
66
1
10
0.0
20
0.0
30
0.0
0
VERTEX
8
0
10
810.0
20
2254.0
0
VERTEX
8
0
10
810.0
20
2271.0
0
VERTEX
8
0
10
810.6999999999998
20
2271.0
0
VERTEX
8
0
10
810.6999999999998
20
2254.0
0
VERTEX
8
0
10
810.0
20
2254.0
0
SEQEND
0
POLYLINE
8
0
66
1
10
0.0
20
0.0
30
0.0
0
VERTEX
8
0
10
810.6999999999998
20
2271.0
0
VERTEX
8
0
10
810.6999999999998
20
2271.7
0
VERTEX
8
0
10
789.3000000000002
20
2271.7
0
VERTEX
8
0
10
789.3000000000002
20
2271.0
0
VERTEX
8
0
10
810.6999999999998
20
2271.0
0
SEQEND
0
POLYLINE
8
0
66
1
10
0.0
20
0.0
30
0.0
0
VERTEX
8
0
10
810.6999999999998
20
2298.5
0
VERTEX
8
0
10
810.6999999999998
20
2299.2
0
VERTEX
8
0
10
789.3000000000002
20
2299.2
0
VERTEX
8
0
10
789.3000000000002
20
2298.5
0
VERTEX
8
0
10
810.6999999999998
20
2298.5
0
SEQEND
0
POLYLINE
8
0
66
1
10
0.0
20
0.0
30
0.0
0
VERTEX
8
0
10
790.0
20
2299.2
0
VERTEX
8
0
10
790.0
20
2316.2
0
VERTEX
8
0
10
789.3000000000002
20
2316.2
0
VERTEX
8
0
10
789.3000000000002
20
2299.2
0
VERTEX
8
0
10
790.0
20
2299.2
0
SEQEND
0
POLYLINE
8
0
66
1
10
0.0
20
0.0
30
0.0
0
VERTEX
8
0
10
810.0
20
2299.2
0
VERTEX
8
0
10
810.0
20
2316.2
0
VERTEX
8
0
10
810.6999999999998
20
2316.2
0
VERTEX
8
0
10
810.6999999999998
20
2299.2
0
VERTEX
8
0
10
810.0
20
2299.2
0
SEQEND
0
POLYLINE
8
0
66
1
10
0.0
20
0.0
30
0.0
0
VERTEX
8
0
10
810.6999999999998
20
2316.2
0
VERTEX
8
0
10
810.6999999999998
20
2316.8999999999996
0
VERTEX
8
0
10
789.3000000000002
20
2316.8999999999996
0
VERTEX
8
0
10
789.3000000000002
20
2316.2
0
VERTEX
8
0
10
810.6999999999998
20
2316.2
0
SEQEND
0
POLYLINE
8
0
66
1
10
0.0
20
0.0
30
0.0
0
VERTEX
8
0
10
810.6999999999998
20
4253.3
0
VERTEX
8
0
10
810.6999999999998
20
4254.0
0
VERTEX
8
0
10
789.3000000000002
20
4254.0
0
VERTEX
8
0
10
789.3000000000002
20
4253.3
0
VERTEX
8
0
10
810.6999999999998
20
4253.3
0
SEQEND
0
POLYLINE
8
0
66
1
10
0.0
20
0.0
30
0.0
0
VERTEX
8
0
10
790.0
20
4254.0
0
VERTEX
8
0
10
790.0
20
4271.0
0
VERTEX
8
0
10
789.3000000000002
20
4271.0
0
VERTEX
8
0
10
789.3000000000002
20
4254.0
0
VERTEX
8
0
10
790.0
20
4254.0
0
SEQEND
0
POLYLINE
8
0
66
1
10
0.0
20
0.0
30
0.0
0
VERTEX
8
0
10
810.0
20
4254.0
0
VERTEX
8
0
10
810.0
20
4271.0
0
VERTEX
8
0
10
810.6999999999998
20
4271.0
0
VERTEX
8
0
10
810.6999999999998
20
4254.0
0
VERTEX
8
0
10
810.0
20
4254.0
0
SEQEND
0
POLYLINE
8
0
66
1
10
0.0
20
0.0
30
0.0
0
VERTEX
8
0
10
790.0
20
4271.0
0
VERTEX
8
0
10
790.0
20
4299.2
0
VERTEX
8
0
10
789.3000000000002
20
4299.2
0
VERTEX
8
0
10
789.3000000000002
20
4271.0
0
VERTEX
8
0
10
790.0
20
4271.0
0
SEQEND
0
POLYLINE
8
0
66
1
10
0.0
20
0.0
30
0.0
0
VERTEX
8
0
10
810.0
20
4271.0
0
VERTEX
8
0
10
810.0
20
4299.2
0
VERTEX
8
0
10
810.6999999999998
20
4299.2
0
VERTEX
8
0
10
810.6999999999998
20
4271.0
0
VERTEX
8
0
10
810.0
20
4271.0
0
SEQEND
0
POLYLINE
8
0
66
1
10
0.0
20
0.0
30
0.0
0
VERTEX
8
0
10
790.0
20
4299.2
0
VERTEX
8
0
10
790.0
20
4316.2
0
VERTEX
8
0
10
789.3000000000002
20
4316.2
0
VERTEX
8
0
10
789.3000000000002
20
4299.2
0
VERTEX
8
0
10
790.0
20
4299.2
0
SEQEND
0
POLYLINE
8
0
66
1
10
0.0
20
0.0
30
0.0
0
VERTEX
8
0
10
810.0
20
4299.2
0
VERTEX
8
0
10
810.0
20
4316.2
0
VERTEX
8
0
10
810.6999999999998
20
4316.2
0
VERTEX
8
0
10
810.6999999999998
20
4299.2
0
VERTEX
8
0
10
810.0
20
4299.2
0
SEQEND
0
POLYLINE
8
0
66
1
10
0.0
20
0.0
30
0.0
0
VERTEX
8
0
10
810.6999999999998
20
4316.2
0
VERTEX
8
0
10
810.6999999999998
20
4316.9
0
VERTEX
8
0
10
789.3000000000002
20
4316.9
0
VERTEX
8
0
10
789.3000000000002
20
4316.2
0
VERTEX
8
0
10
810.6999999999998
20
4316.2
0
SEQEND
0
POLYLINE
8
0
66
1
10
0.0
20
0.0
30
0.0
0
VERTEX
8
0
10
810.6999999999998
20
6253.3
0
VERTEX
8
0
10
810.6999999999998
20
6254.0
0
VERTEX
8
0
10
789.3000000000002
20
6254.0
0
VERTEX
8
0
10
789.3000000000002
20
6253.3
0
VERTEX
8
0
10
810.6999999999998
20
6253.3
0
SEQEND
0
POLYLINE
8
0
66
1
10
0.0
20
0.0
30
0.0
0
VERTEX
8
0
10
790.0
20
6254.0
0
VERTEX
8
0
10
790.0
20
6271.0
0
VERTEX
8
0
10
789.3000000000002
20
6271.0
0
VERTEX
8
0
10
789.3000000000002
20
6254.0
0
VERTEX
8
0
10
790.0
20
6254.0
0
SEQEND
0
POLYLINE
8
0
66
1
10
0.0
20
0.0
30
0.0
0
VERTEX
8
0
10
810.0
20
6254.0
0
VERTEX
8
0
10
810.0
20
6271.0
0
VERTEX
8
0
10
810.6999999999998
20
6271.0
0
VERTEX
8
0
10
810.6999999999998
20
6254.0
0
VERTEX
8
0
10
810.0
20
6254.0
0
SEQEND
0
POLYLINE
8
0
66
1
10
0.0
20
0.0
30
0.0
0
VERTEX
8
0
10
790.0
20
6271.0
0
VERTEX
8
0
10
799.0
20
6276.0
0
VERTEX
8
0
10
798.3000000000002
20
6276.0
0
VERTEX
8
0
10
789.3000000000002
20
6271.0
0
VERTEX
8
0
10
790.0
20
6271.0
0
SEQEND
0
POLYLINE
8
0
66
1
10
0.0
20
0.0
30
0.0
0
VERTEX
8
0
10
810.0
20
6271.0
0
VERTEX
8
0
10
801.0
20
6276.0
0
VERTEX
8
0
10
801.6999999999998
20
6276.0
0
VERTEX
8
0
10
810.6999999999998
20
6271.0
0
VERTEX
8
0
10
810.0
20
6271.0
0
SEQEND
0
POLYLINE
8
0
66
1
10
0.0
20
0.0
30
0.0
0
VERTEX
8
0
10
799.0
20
6276.0
0
VERTEX
8
0
10
799.0
20
6277.0
0
VERTEX
8
0
10
798.3000000000002
20
6277.0
0
VERTEX
8
0
10
798.3000000000002
20
6276.0
0
VERTEX
8
0
10
799.0
20
6276.0
0
SEQEND
0
POLYLINE
8
0
66
1
10
0.0
20
0.0
30
0.0
0
VERTEX
8
0
10
801.0
20
6276.0
0
VERTEX
8
0
10
801.0
20
6277.0
0
VERTEX
8
0
10
801.6999999999998
20
6277.0
0
VERTEX
8
0
10
801.6999999999998
20
6276.0
0
VERTEX
8
0
10
801.0
20
6276.0
0
SEQEND
0
POLYLINE
8
0
66
1
10
0.0
20
0.0
30
0.0
0
VERTEX
8
0
10
799.0
20
6277.0
0
VERTEX
8
0
10
799.0
20
6278.5
0
VERTEX
8
0
10
798.8000000000002
20
6278.5
0
VERTEX
8
0
10
798.8000000000002
20
6277.0
0
VERTEX
8
0
10
799.0
20
6277.0
0
SEQEND
0
POLYLINE
8
0
66
1
10
0.0
20
0.0
30
0.0
0
VERTEX
8
0
10
801.0
20
6277.0
0
VERTEX
8
0
10
801.0
20
6278.5
0
VERTEX
8
0
10
801.1999999999998
20
6278.5
0
VERTEX
8
0
10
801.1999999999998
20
6277.0
0
VERTEX
8
0
10
801.0
20
6277.0
0
SEQEND
0
POLYLINE
8
0
66
1
10
0.0
20
0.0
30
0.0
0
VERTEX
8
0
10
799.0
20
6278.5
0
VERTEX
8
0
10
799.8050000000003
20
6283.5
0
VERTEX
8
0
10
799.6050000000005
20
6283.5
0
VERTEX
8
0
10
798.8000000000002
20
6278.5
0
VERTEX
8
0
10
799.0
20
6278.5
0
SEQEND
0
POLYLINE
8
0
66
1
10
0.0
20
0.0
30
0.0
0
VERTEX
8
0
10
801.0
20
6278.5
0
VERTEX
8
0
10
800.1949999999997
20
6283.5
0
VERTEX
8
0
10
800.3949999999995
20
6283.5
0
VERTEX
8
0
10
801.1999999999998
20
6278.5
0
VERTEX
8
0
10
801.0
20
6278.5
0
SEQEND
0
POLYLINE
8
0
66
1
10
0.0
20
0.0
30
0.0
0
VERTEX
8
0
10
799.8050000000003
20
6283.5
0
VERTEX
8
0
10
799.8050000000003
20
6286.0
0
VERTEX
8
0
10
799.6050000000005
20
6286.0
0
VERTEX
8
0
10
799.6050000000005
20
6283.5
0
VERTEX
8
0
10
799.8050000000003
20
6283.5
0
SEQEND
0
POLYLINE
8
0
66
1
10
0.0
20
0.0
30
0.0
0
VERTEX
8
0
10
800.1949999999997
20
6283.5
0
VERTEX
8
0
10
800.1949999999997
20
6286.0
0
VERTEX
8
0
10
800.3949999999995
20
6286.0
0
VERTEX
8
0
10
800.3949999999995
20
6283.5
0
VERTEX
8
0
10
800.1949999999997
20
6283.5
0
SEQEND
0
POLYLINE
8
0
66
1
10
0.0
20
0.0
30
0.0
0
VERTEX
8
0
10
801.1999999999998
20
6286.0
0
VERTEX
8
0
10
801.1999999999998
20
6286.2
0
VERTEX
8
0
10
798.8000000000002
20
6286.2
0
VERTEX
8
0
10
798.8000000000002
20
6286.0
0
VERTEX
8
0
10
801.1999999999998
20
6286.0
0
SEQEND
0
POLYLINE
8
0
66
1
10
0.0
20
0.0
30
0.0
0
VERTEX
8
0
10
799.0
20
6286.2
0
VERTEX
8
0
10
799.0
20
6293.2
0
VERTEX
8
0
10
798.8000000000002
20
6293.2
0
VERTEX
8
0
10
798.8000000000002
20
6286.2
0
VERTEX
8
0
10
799.0
20
6286.2
0
SEQEND
0
POLYLINE
8
0
66
1
10
0.0
20
0.0
30
0.0
0
VERTEX
8
0
10
801.0
20
6286.2
0
VERTEX
8
0
10
801.0
20
6293.2
0
VERTEX
8
0
10
801.1999999999998
20
6293.2
0
VERTEX
8
0
10
801.1999999999998
20
6286.2
0
VERTEX
8
0
10
801.0
20
6286.2
0
SEQEND
0
POLYLINE
8
0
66
1
10
0.0
20
0.0
30
0.0
0
VERTEX
8
0
10
799.0
20
6293.2
0
VERTEX
8
0
10
799.0
20
6294.2
0
VERTEX
8
0
10
798.3000000000002
20
6294.2
0
VERTEX
8
0
10
798.3000000000002
20
6293.2
0
VERTEX
8
0
10
799.0
20
6293.2
0
SEQEND
0
POLYLINE
8
0
66
1
10
0.0
20
0.0
30
0.0
0
VERTEX
8
0
10
801.0
20
6293.2
0
VERTEX
8
0
10
801.0
20
6294.2
0
VERTEX
8
0
10
801.6999999999998
20
6294.2
0
VERTEX
8
0
10
801.6999999999998
20
6293.2
0
VERTEX
8
0
10
801.0
20
6293.2
0
SEQEND
0
POLYLINE
8
0
66
1
10
0.0
20
0.0
30
0.0
0
VERTEX
8
0
10
799.0
20
6294.2
0
VERTEX
8
0
10
790.0
20
6299.2
0
VERTEX
8
0
10
789.3000000000002
20
6299.2
0
VERTEX
8
0
10
798.3000000000002
20
6294.2
0
VERTEX
8
0
10
799.0
20
6294.2
0
SEQEND
0
POLYLINE
8
0
66
1
10
0.0
20
0.0
30
0.0
0
VERTEX
8
0
10
801.0
20
6294.2
0
VERTEX
8
0
10
810.0
20
6299.2
0
VERTEX
8
0
10
810.6999999999998
20
6299.2
0
VERTEX
8
0
10
801.6999999999998
20
6294.2
0
VERTEX
8
0
10
801.0
20
6294.2
0
SEQEND
0
POLYLINE
8
0
66
1
10
0.0
20
0.0
30
0.0
0
VERTEX
8
0
10
790.0
20
6299.2
0
VERTEX
8
0
10
790.0
20
6316.2
0
VERTEX
8
0
10
789.3000000000002
20
6316.2
0
VERTEX
8
0
10
789.3000000000002
20
6299.2
0
VERTEX
8
0
10
790.0
20
6299.2
0
SEQEND
0
POLYLINE
8
0
66
1
10
0.0
20
0.0
30
0.0
0
VERTEX
8
0
10
810.0
20
6299.2
0
VERTEX
8
0
10
810.0
20
6316.2
0
VERTEX
8
0
10
810.6999999999998
20
6316.2
0
VERTEX
8
0
10
810.6999999999998
20
6299.2
0
VERTEX
8
0
10
810.0
20
6299.2
0
SEQEND
0
POLYLINE
8
0
66
1
10
0.0
20
0.0
30
0.0
0
VERTEX
8
0
10
810.6999999999998
20
6316.2
0
VERTEX
8
0
10
810.6999999999998
20
6316.9
0
VERTEX
8
0
10
789.3000000000002
20
6316.9
0
VERTEX
8
0
10
789.3000000000002
20
6316.2
0
VERTEX
8
0
10
810.6999999999998
20
6316.2
0
SEQEND
0
POLYLINE
8
0
66
1
10
0.0
20
0.0
30
0.0
0
VERTEX
8
0
10
810.7000000000007
20
8253.3
0
VERTEX
8
0
10
810.7000000000007
20
8254.0
0
VERTEX
8
0
10
789.2999999999993
20
8254.0
0
VERTEX
8
0
10
789.2999999999993
20
8253.3
0
VERTEX
8
0
10
810.7000000000007
20
8253.3
0
SEQEND
0
POLYLINE
8
0
66
1
10
0.0
20
0.0
30
0.0
0
VERTEX
8
0
10
790.0
20
8254.0
0
VERTEX
8
0
10
790.0
20
8271.0
0
VERTEX
8
0
10
789.2999999999993
20
8271.0
0
VERTEX
8
0
10
789.2999999999993
20
8254.0
0
VERTEX
8
0
10
790.0
20
8254.0
0
SEQEND
0
POLYLINE
8
0
66
1
10
0.0
20
0.0
30
0.0
0
VERTEX
8
0
10
810.0
20
8254.0
0
VERTEX
8
0
10
810.0
20
8271.0
0
VERTEX
8
0
10
810.7000000000007
20
8271.0
0
VERTEX
8
0
10
810.7000000000007
20
8254.0
0
VERTEX
8
0
10
810.0
20
8254.0
0
SEQEND
0
POLYLINE
8
0
66
1
10
0.0
20
0.0
30
0.0
0
VERTEX
8
0
10
790.0
20
8271.0
0
VERTEX
8
0
10
799.0
20
8276.0
0
VERTEX
8
0
10
798.2999999999993
20
8276.0
0
VERTEX
8
0
10
789.2999999999993
20
8271.0
0
VERTEX
8
0
10
790.0
20
8271.0
0
SEQEND
0
POLYLINE
8
0
66
1
10
0.0
20
0.0
30
0.0
0
VERTEX
8
0
10
810.0
20
8271.0
0
VERTEX
8
0
10
801.0
20
8276.0
0
VERTEX
8
0
10
801.7000000000007
20
8276.0
0
VERTEX
8
0
10
810.7000000000007
20
8271.0
0
VERTEX
8
0
10
810.0
20
8271.0
0
SEQEND
0
POLYLINE
8
0
66
1
10
0.0
20
0.0
30
0.0
0
VERTEX
8
0
10
799.0
20
8276.0
0
VERTEX
8
0
10
799.0
20
8277.0
0
VERTEX
8
0
10
798.2999999999993
20
8277.0
0
VERTEX
8
0
10
798.2999999999993
20
8276.0
0
VERTEX
8
0
10
799.0
20
8276.0
0
SEQEND
0
POLYLINE
8
0
66
1
10
0.0
20
0.0
30
0.0
0
VERTEX
8
0
10
801.0
20
8276.0
0
VERTEX
8
0
10
801.0
20
8277.0
0
VERTEX
8
0
10
801.7000000000007
20
8277.0
0
VERTEX
8
0
10
801.7000000000007
20
8276.0
0
VERTEX
8
0
10
801.0
20
8276.0
0
SEQEND
0
POLYLINE
8
0
66
1
10
0.0
20
0.0
30
0.0
0
VERTEX
8
0
10
799.0
20
8277.0
0
VERTEX
8
0
10
799.0
20
8278.5
0
VERTEX
8
0
10
798.7999999999993
20
8278.5
0
VERTEX
8
0
10
798.7999999999993
20
8277.0
0
VERTEX
8
0
10
799.0
20
8277.0
0
SEQEND
0
POLYLINE
8
0
66
1
10
0.0
20
0.0
30
0.0
0
VERTEX
8
0
10
801.0
20
8277.0
0
VERTEX
8
0
10
801.0
20
8278.5
0
VERTEX
8
0
10
801.2000000000007
20
8278.5
0
VERTEX
8
0
10
801.2000000000007
20
8277.0
0
VERTEX
8
0
10
801.0
20
8277.0
0
SEQEND
0
POLYLINE
8
0
66
1
10
0.0
20
0.0
30
0.0
0
VERTEX
8
0
10
799.0
20
8278.5
0
VERTEX
8
0
10
799.8050000000003
20
8283.5
0
VERTEX
8
0
10
799.6049999999996
20
8283.5
0
VERTEX
8
0
10
798.7999999999993
20
8278.5
0
VERTEX
8
0
10
799.0
20
8278.5
0
SEQEND
0
POLYLINE
8
0
66
1
10
0.0
20
0.0
30
0.0
0
VERTEX
8
0
10
801.0
20
8278.5
0
VERTEX
8
0
10
800.1949999999997
20
8283.5
0
VERTEX
8
0
10
800.3950000000004
20
8283.5
0
VERTEX
8
0
10
801.2000000000007
20
8278.5
0
VERTEX
8
0
10
801.0
20
8278.5
0
SEQEND
0
POLYLINE
8
0
66
1
10
0.0
20
0.0
30
0.0
0
VERTEX
8
0
10
799.8050000000003
20
8283.5
0
VERTEX
8
0
10
799.8050000000003
20
8286.0
0
VERTEX
8
0
10
799.6049999999996
20
8286.0
0
VERTEX
8
0
10
799.6049999999996
20
8283.5
0
VERTEX
8
0
10
799.8050000000003
20
8283.5
0
SEQEND
0
POLYLINE
8
0
66
1
10
0.0
20
0.0
30
0.0
0
VERTEX
8
0
10
800.1949999999997
20
8283.5
0
VERTEX
8
0
10
800.1949999999997
20
8286.0
0
VERTEX
8
0
10
800.3950000000004
20
8286.0
0
VERTEX
8
0
10
800.3950000000004
20
8283.5
0
VERTEX
8
0
10
800.1949999999997
20
8283.5
0
SEQEND
0
POLYLINE
8
0
66
1
10
0.0
20
0.0
30
0.0
0
VERTEX
8
0
10
801.2000000000007
20
8286.0
0
VERTEX
8
0
10
801.2000000000007
20
8286.2
0
VERTEX
8
0
10
798.7999999999993
20
8286.2
0
VERTEX
8
0
10
798.7999999999993
20
8286.0
0
VERTEX
8
0
10
801.2000000000007
20
8286.0
0
SEQEND
0
POLYLINE
8
0
66
1
10
0.0
20
0.0
30
0.0
0
VERTEX
8
0
10
799.0
20
8286.2
0
VERTEX
8
0
10
799.0
20
8293.2
0
VERTEX
8
0
10
798.7999999999993
20
8293.2
0
VERTEX
8
0
10
798.7999999999993
20
8286.2
0
VERTEX
8
0
10
799.0
20
8286.2
0
SEQEND
0
POLYLINE
8
0
66
1
10
0.0
20
0.0
30
0.0
0
VERTEX
8
0
10
801.0
20
8286.2
0
VERTEX
8
0
10
801.0
20
8293.2
0
VERTEX
8
0
10
801.2000000000007
20
8293.2
0
VERTEX
8
0
10
801.2000000000007
20
8286.2
0
VERTEX
8
0
10
801.0
20
8286.2
0
SEQEND
0
POLYLINE
8
0
66
1
10
0.0
20
0.0
30
0.0
0
VERTEX
8
0
10
799.0
20
8293.2
0
VERTEX
8
0
10
799.0
20
8294.2
0
VERTEX
8
0
10
798.2999999999993
20
8294.2
0
VERTEX
8
0
10
798.2999999999993
20
8293.2
0
VERTEX
8
0
10
799.0
20
8293.2
0
SEQEND
0
POLYLINE
8
0
66
1
10
0.0
20
0.0
30
0.0
0
VERTEX
8
0
10
801.0
20
8293.2
0
VERTEX
8
0
10
801.0
20
8294.2
0
VERTEX
8
0
10
801.7000000000007
20
8294.2
0
VERTEX
8
0
10
801.7000000000007
20
8293.2
0
VERTEX
8
0
10
801.0
20
8293.2
0
SEQEND
0
POLYLINE
8
0
66
1
10
0.0
20
0.0
30
0.0
0
VERTEX
8
0
10
799.0
20
8294.2
0
VERTEX
8
0
10
790.0
20
8299.2
0
VERTEX
8
0
10
789.2999999999993
20
8299.2
0
VERTEX
8
0
10
798.2999999999993
20
8294.2
0
VERTEX
8
0
10
799.0
20
8294.2
0
SEQEND
0
POLYLINE
8
0
66
1
10
0.0
20
0.0
30
0.0
0
VERTEX
8
0
10
801.0
20
8294.2
0
VERTEX
8
0
10
810.0
20
8299.2
0
VERTEX
8
0
10
810.7000000000007
20
8299.2
0
VERTEX
8
0
10
801.7000000000007
20
8294.2
0
VERTEX
8
0
10
801.0
20
8294.2
0
SEQEND
0
POLYLINE
8
0
66
1
10
0.0
20
0.0
30
0.0
0
VERTEX
8
0
10
790.0
20
8299.2
0
VERTEX
8
0
10
790.0
20
8316.2
0
VERTEX
8
0
10
789.2999999999993
20
8316.2
0
VERTEX
8
0
10
789.2999999999993
20
8299.2
0
VERTEX
8
0
10
790.0
20
8299.2
0
SEQEND
0
POLYLINE
8
0
66
1
10
0.0
20
0.0
30
0.0
0
VERTEX
8
0
10
810.0
20
8299.2
0
VERTEX
8
0
10
810.0
20
8316.2
0
VERTEX
8
0
10
810.7000000000007
20
8316.2
0
VERTEX
8
0
10
810.7000000000007
20
8299.2
0
VERTEX
8
0
10
810.0
20
8299.2
0
SEQEND
0
POLYLINE
8
0
66
1
10
0.0
20
0.0
30
0.0
0
VERTEX
8
0
10
810.7000000000007
20
8316.2
0
VERTEX
8
0
10
810.7000000000007
20
8316.900000000001
0
VERTEX
8
0
10
789.2999999999993
20
8316.900000000001
0
VERTEX
8
0
10
789.2999999999993
20
8316.2
0
VERTEX
8
0
10
810.7000000000007
20
8316.2
0
SEQEND
0
ENDBLK
0
BLOCK
8
PIN
2
Q6PIN
70
0
10
0
20
0
30
0
3
Q6PIN
0
POLYLINE
8
0
66
1
10
0.0
20
0.0
30
0.0
0
VERTEX
8
0
10
810.0
20
21114.0
0
VERTEX
8
0
10
810.0
20
21131.0
0
VERTEX
8
0
10
790.0
20
21131.0
0
VERTEX
8
0
10
790.0
20
21114.0
0
VERTEX
8
0
10
810.0
20
21114.0
0
SEQEND
0
POLYLINE
8
0
66
1
10
0.0
20
0.0
30
0.0
0
VERTEX
8
0
10
800.0
20
21131.0
0
VERTEX
8
0
10
800.0
20
21136.0
0
VERTEX
8
0
10
799.0
20
21136.0
0
VERTEX
8
0
10
790.0
20
21131.0
0
VERTEX
8
0
10
800.0
20
21131.0
0
SEQEND
0
POLYLINE
8
0
66
1
10
0.0
20
0.0
30
0.0
0
VERTEX
8
0
10
800.0
20
21131.0
0
VERTEX
8
0
10
800.0
20
21136.0
0
VERTEX
8
0
10
801.0
20
21136.0
0
VERTEX
8
0
10
810.0
20
21131.0
0
VERTEX
8
0
10
800.0
20
21131.0
0
SEQEND
0
POLYLINE
8
0
66
1
10
0.0
20
0.0
30
0.0
0
VERTEX
8
0
10
801.0
20
21136.0
0
VERTEX
8
0
10
801.0
20
21138.5
0
VERTEX
8
0
10
799.0
20
21138.5
0
VERTEX
8
0
10
799.0
20
21136.0
0
VERTEX
8
0
10
801.0
20
21136.0
0
SEQEND
0
POLYLINE
8
0
66
1
10
0.0
20
0.0
30
0.0
0
VERTEX
8
0
10
800.0
20
21138.5
0
VERTEX
8
0
10
800.0
20
21143.5
0
VERTEX
8
0
10
799.8050000000003
20
21143.5
0
VERTEX
8
0
10
799.0
20
21138.5
0
VERTEX
8
0
10
800.0
20
21138.5
0
SEQEND
0
POLYLINE
8
0
66
1
10
0.0
20
0.0
30
0.0
0
VERTEX
8
0
10
800.0
20
21138.5
0
VERTEX
8
0
10
800.0
20
21143.5
0
VERTEX
8
0
10
800.1949999999997
20
21143.5
0
VERTEX
8
0
10
801.0
20
21138.5
0
VERTEX
8
0
10
800.0
20
21138.5
0
SEQEND
0
POLYLINE
8
0
66
1
10
0.0
20
0.0
30
0.0
0
VERTEX
8
0
10
800.1949999999997
20
21143.5
0
VERTEX
8
0
10
800.1949999999997
20
21146.0
0
VERTEX
8
0
10
799.8050000000003
20
21146.0
0
VERTEX
8
0
10
799.8050000000003
20
21143.5
0
VERTEX
8
0
10
800.1949999999997
20
21143.5
0
SEQEND
0
POLYLINE
8
0
66
1
10
0.0
20
0.0
30
0.0
0
VERTEX
8
0
10
801.0
20
21146.2
0
VERTEX
8
0
10
801.0
20
21154.2
0
VERTEX
8
0
10
799.0
20
21154.2
0
VERTEX
8
0
10
799.0
20
21146.2
0
VERTEX
8
0
10
801.0
20
21146.2
0
SEQEND
0
POLYLINE
8
0
66
1
10
0.0
20
0.0
30
0.0
0
VERTEX
8
0
10
800.0
20
21154.2
0
VERTEX
8
0
10
800.0
20
21159.2
0
VERTEX
8
0
10
790.0
20
21159.2
0
VERTEX
8
0
10
799.0
20
21154.2
0
VERTEX
8
0
10
800.0
20
21154.2
0
SEQEND
0
POLYLINE
8
0
66
1
10
0.0
20
0.0
30
0.0
0
VERTEX
8
0
10
800.0
20
21154.2
0
VERTEX
8
0
10
800.0
20
21159.2
0
VERTEX
8
0
10
810.0
20
21159.2
0
VERTEX
8
0
10
801.0
20
21154.2
0
VERTEX
8
0
10
800.0
20
21154.2
0
SEQEND
0
POLYLINE
8
0
66
1
10
0.0
20
0.0
30
0.0
0
VERTEX
8
0
10
810.0
20
21159.2
0
VERTEX
8
0
10
810.0
20
21176.2
0
VERTEX
8
0
10
790.0
20
21176.2
0
VERTEX
8
0
10
790.0
20
21159.2
0
VERTEX
8
0
10
810.0
20
21159.2
0
SEQEND
0
POLYLINE
8
0
66
1
10
0.0
20
0.0
30
0.0
0
VERTEX
8
0
10
810.0
20
2254.0
0
VERTEX
8
0
10
810.0
20
2271.0
0
VERTEX
8
0
10
790.0
20
2271.0
0
VERTEX
8
0
10
790.0
20
2254.0
0
VERTEX
8
0
10
810.0
20
2254.0
0
SEQEND
0
POLYLINE
8
0
66
1
10
0.0
20
0.0
30
0.0
0
VERTEX
8
0
10
810.0
20
2299.2
0
VERTEX
8
0
10
810.0
20
2316.2
0
VERTEX
8
0
10
790.0
20
2316.2
0
VERTEX
8
0
10
790.0
20
2299.2
0
VERTEX
8
0
10
810.0
20
2299.2
0
SEQEND
0
POLYLINE
8
0
66
1
10
0.0
20
0.0
30
0.0
0
VERTEX
8
0
10
810.0
20
4254.0
0
VERTEX
8
0
10
810.0
20
4271.0
0
VERTEX
8
0
10
790.0
20
4271.0
0
VERTEX
8
0
10
790.0
20
4254.0
0
VERTEX
8
0
10
810.0
20
4254.0
0
SEQEND
0
POLYLINE
8
0
66
1
10
0.0
20
0.0
30
0.0
0
VERTEX
8
0
10
810.0
20
4271.0
0
VERTEX
8
0
10
810.0
20
4299.2
0
VERTEX
8
0
10
790.0
20
4299.2
0
VERTEX
8
0
10
790.0
20
4271.0
0
VERTEX
8
0
10
810.0
20
4271.0
0
SEQEND
0
POLYLINE
8
0
66
1
10
0.0
20
0.0
30
0.0
0
VERTEX
8
0
10
810.0
20
4299.2
0
VERTEX
8
0
10
810.0
20
4316.2
0
VERTEX
8
0
10
790.0
20
4316.2
0
VERTEX
8
0
10
790.0
20
4299.2
0
VERTEX
8
0
10
810.0
20
4299.2
0
SEQEND
0
POLYLINE
8
0
66
1
10
0.0
20
0.0
30
0.0
0
VERTEX
8
0
10
810.0
20
6254.0
0
VERTEX
8
0
10
810.0
20
6271.0
0
VERTEX
8
0
10
790.0
20
6271.0
0
VERTEX
8
0
10
790.0
20
6254.0
0
VERTEX
8
0
10
810.0
20
6254.0
0
SEQEND
0
POLYLINE
8
0
66
1
10
0.0
20
0.0
30
0.0
0
VERTEX
8
0
10
800.0
20
6271.0
0
VERTEX
8
0
10
800.0
20
6276.0
0
VERTEX
8
0
10
799.0
20
6276.0
0
VERTEX
8
0
10
790.0
20
6271.0
0
VERTEX
8
0
10
800.0
20
6271.0
0
SEQEND
0
POLYLINE
8
0
66
1
10
0.0
20
0.0
30
0.0
0
VERTEX
8
0
10
800.0
20
6271.0
0
VERTEX
8
0
10
800.0
20
6276.0
0
VERTEX
8
0
10
801.0
20
6276.0
0
VERTEX
8
0
10
810.0
20
6271.0
0
VERTEX
8
0
10
800.0
20
6271.0
0
SEQEND
0
POLYLINE
8
0
66
1
10
0.0
20
0.0
30
0.0
0
VERTEX
8
0
10
801.0
20
6276.0
0
VERTEX
8
0
10
801.0
20
6278.5
0
VERTEX
8
0
10
799.0
20
6278.5
0
VERTEX
8
0
10
799.0
20
6276.0
0
VERTEX
8
0
10
801.0
20
6276.0
0
SEQEND
0
POLYLINE
8
0
66
1
10
0.0
20
0.0
30
0.0
0
VERTEX
8
0
10
800.0
20
6278.5
0
VERTEX
8
0
10
800.0
20
6283.5
0
VERTEX
8
0
10
799.8050000000003
20
6283.5
0
VERTEX
8
0
10
799.0
20
6278.5
0
VERTEX
8
0
10
800.0
20
6278.5
0
SEQEND
0
POLYLINE
8
0
66
1
10
0.0
20
0.0
30
0.0
0
VERTEX
8
0
10
800.0
20
6278.5
0
VERTEX
8
0
10
800.0
20
6283.5
0
VERTEX
8
0
10
800.1949999999997
20
6283.5
0
VERTEX
8
0
10
801.0
20
6278.5
0
VERTEX
8
0
10
800.0
20
6278.5
0
SEQEND
0
POLYLINE
8
0
66
1
10
0.0
20
0.0
30
0.0
0
VERTEX
8
0
10
800.1949999999997
20
6283.5
0
VERTEX
8
0
10
800.1949999999997
20
6286.0
0
VERTEX
8
0
10
799.8050000000003
20
6286.0
0
VERTEX
8
0
10
799.8050000000003
20
6283.5
0
VERTEX
8
0
10
800.1949999999997
20
6283.5
0
SEQEND
0
POLYLINE
8
0
66
1
10
0.0
20
0.0
30
0.0
0
VERTEX
8
0
10
801.0
20
6286.2
0
VERTEX
8
0
10
801.0
20
6294.2
0
VERTEX
8
0
10
799.0
20
6294.2
0
VERTEX
8
0
10
799.0
20
6286.2
0
VERTEX
8
0
10
801.0
20
6286.2
0
SEQEND
0
POLYLINE
8
0
66
1
10
0.0
20
0.0
30
0.0
0
VERTEX
8
0
10
800.0
20
6294.2
0
VERTEX
8
0
10
800.0
20
6299.2
0
VERTEX
8
0
10
790.0
20
6299.2
0
VERTEX
8
0
10
799.0
20
6294.2
0
VERTEX
8
0
10
800.0
20
6294.2
0
SEQEND
0
POLYLINE
8
0
66
1
10
0.0
20
0.0
30
0.0
0
VERTEX
8
0
10
800.0
20
6294.2
0
VERTEX
8
0
10
800.0
20
6299.2
0
VERTEX
8
0
10
810.0
20
6299.2
0
VERTEX
8
0
10
801.0
20
6294.2
0
VERTEX
8
0
10
800.0
20
6294.2
0
SEQEND
0
POLYLINE
8
0
66
1
10
0.0
20
0.0
30
0.0
0
VERTEX
8
0
10
810.0
20
6299.2
0
VERTEX
8
0
10
810.0
20
6316.2
0
VERTEX
8
0
10
790.0
20
6316.2
0
VERTEX
8
0
10
790.0
20
6299.2
0
VERTEX
8
0
10
810.0
20
6299.2
0
SEQEND
0
POLYLINE
8
0
66
1
10
0.0
20
0.0
30
0.0
0
VERTEX
8
0
10
810.0
20
8254.0
0
VERTEX
8
0
10
810.0
20
8271.0
0
VERTEX
8
0
10
790.0
20
8271.0
0
VERTEX
8
0
10
790.0
20
8254.0
0
VERTEX
8
0
10
810.0
20
8254.0
0
SEQEND
0
POLYLINE
8
0
66
1
10
0.0
20
0.0
30
0.0
0
VERTEX
8
0
10
800.0
20
8271.0
0
VERTEX
8
0
10
800.0
20
8276.0
0
VERTEX
8
0
10
799.0
20
8276.0
0
VERTEX
8
0
10
790.0
20
8271.0
0
VERTEX
8
0
10
800.0
20
8271.0
0
SEQEND
0
POLYLINE
8
0
66
1
10
0.0
20
0.0
30
0.0
0
VERTEX
8
0
10
800.0
20
8271.0
0
VERTEX
8
0
10
800.0
20
8276.0
0
VERTEX
8
0
10
801.0
20
8276.0
0
VERTEX
8
0
10
810.0
20
8271.0
0
VERTEX
8
0
10
800.0
20
8271.0
0
SEQEND
0
POLYLINE
8
0
66
1
10
0.0
20
0.0
30
0.0
0
VERTEX
8
0
10
801.0
20
8276.0
0
VERTEX
8
0
10
801.0
20
8278.5
0
VERTEX
8
0
10
799.0
20
8278.5
0
VERTEX
8
0
10
799.0
20
8276.0
0
VERTEX
8
0
10
801.0
20
8276.0
0
SEQEND
0
POLYLINE
8
0
66
1
10
0.0
20
0.0
30
0.0
0
VERTEX
8
0
10
800.0
20
8278.5
0
VERTEX
8
0
10
800.0
20
8283.5
0
VERTEX
8
0
10
799.8050000000003
20
8283.5
0
VERTEX
8
0
10
799.0
20
8278.5
0
VERTEX
8
0
10
800.0
20
8278.5
0
SEQEND
0
POLYLINE
8
0
66
1
10
0.0
20
0.0
30
0.0
0
VERTEX
8
0
10
800.0
20
8278.5
0
VERTEX
8
0
10
800.0
20
8283.5
0
VERTEX
8
0
10
800.1949999999997
20
8283.5
0
VERTEX
8
0
10
801.0
20
8278.5
0
VERTEX
8
0
10
800.0
20
8278.5
0
SEQEND
0
POLYLINE
8
0
66
1
10
0.0
20
0.0
30
0.0
0
VERTEX
8
0
10
800.1949999999997
20
8283.5
0
VERTEX
8
0
10
800.1949999999997
20
8286.0
0
VERTEX
8
0
10
799.8050000000003
20
8286.0
0
VERTEX
8
0
10
799.8050000000003
20
8283.5
0
VERTEX
8
0
10
800.1949999999997
20
8283.5
0
SEQEND
0
POLYLINE
8
0
66
1
10
0.0
20
0.0
30
0.0
0
VERTEX
8
0
10
801.0
20
8286.2
0
VERTEX
8
0
10
801.0
20
8294.2
0
VERTEX
8
0
10
799.0
20
8294.2
0
VERTEX
8
0
10
799.0
20
8286.2
0
VERTEX
8
0
10
801.0
20
8286.2
0
SEQEND
0
POLYLINE
8
0
66
1
10
0.0
20
0.0
30
0.0
0
VERTEX
8
0
10
800.0
20
8294.2
0
VERTEX
8
0
10
800.0
20
8299.2
0
VERTEX
8
0
10
790.0
20
8299.2
0
VERTEX
8
0
10
799.0
20
8294.2
0
VERTEX
8
0
10
800.0
20
8294.2
0
SEQEND
0
POLYLINE
8
0
66
1
10
0.0
20
0.0
30
0.0
0
VERTEX
8
0
10
800.0
20
8294.2
0
VERTEX
8
0
10
800.0
20
8299.2
0
VERTEX
8
0
10
810.0
20
8299.2
0
VERTEX
8
0
10
801.0
20
8294.2
0
VERTEX
8
0
10
800.0
20
8294.2
0
SEQEND
0
POLYLINE
8
0
66
1
10
0.0
20
0.0
30
0.0
0
VERTEX
8
0
10
810.0
20
8299.2
0
VERTEX
8
0
10
810.0
20
8316.2
0
VERTEX
8
0
10
790.0
20
8316.2
0
VERTEX
8
0
10
790.0
20
8299.2
0
VERTEX
8
0
10
810.0
20
8299.2
0
SEQEND
0
ENDBLK
0
BLOCK
8
0
2
Q6
70
0
10
0
20
0
30
0
3
Q6
0
POLYLINE
8
PIN
66
1
10
0.0
20
0.0
30
0.0
0
VERTEX
8
PIN
10
460.0
20
26050.0
0
VERTEX
8
PIN
10
540.0
20
26050.0
0
VERTEX
8
PIN
10
540.0
20
26030.0
0
VERTEX
8
PIN
10
460.0
20
26030.0
0
VERTEX
8
PIN
10
460.0
20
26050.0
0
SEQEND
0
POLYLINE
8
PIN
66
1
10
0.0
20
0.0
30
0.0
0
VERTEX
8
PIN
10
460.0
20
-100.0
0
VERTEX
8
PIN
10
540.0
20
-100.0
0
VERTEX
8
PIN
10
540.0
20
-80.0
0
VERTEX
8
PIN
10
460.0
20
-80.0
0
VERTEX
8
PIN
10
460.0
20
-100.0
0
SEQEND
0
POLYLINE
8
PIN
66
1
10
0.0
20
0.0
30
0.0
0
VERTEX
8
PIN
10
-100.0
20
8576.666666666666
0
VERTEX
8
PIN
10
-100.0
20
8656.666666666666
0
VERTEX
8
PIN
10
-80.0
20
8656.666666666666
0
VERTEX
8
PIN
10
-80.0
20
8576.666666666666
0
VERTEX
8
PIN
10
-100.0
20
8576.666666666666
0
SEQEND
0
POLYLINE
8
PIN
66
1
10
0.0
20
0.0
30
0.0
0
VERTEX
8
PIN
10
1700.0
20
8576.666666666666
0
VERTEX
8
PIN
10
1700.0
20
8656.666666666666
0
VERTEX
8
PIN
10
1680.0
20
8656.666666666666
0
VERTEX
8
PIN
10
1680.0
20
8576.666666666666
0
VERTEX
8
PIN
10
1700.0
20
8576.666666666666
0
SEQEND
0
POLYLINE
8
PIN
66
1
10
0.0
20
0.0
30
0.0
0
VERTEX
8
PIN
10
1060.0
20
26050.0
0
VERTEX
8
PIN
10
1140.0
20
26050.0
0
VERTEX
8
PIN
10
1140.0
20
26030.0
0
VERTEX
8
PIN
10
1060.0
20
26030.0
0
VERTEX
8
PIN
10
1060.0
20
26050.0
0
SEQEND
0
POLYLINE
8
PIN
66
1
10
0.0
20
0.0
30
0.0
0
VERTEX
8
PIN
10
1060.0
20
-100.0
0
VERTEX
8
PIN
10
1140.0
20
-100.0
0
VERTEX
8
PIN
10
1140.0
20
-80.0
0
VERTEX
8
PIN
10
1060.0
20
-80.0
0
VERTEX
8
PIN
10
1060.0
20
-100.0
0
SEQEND
0
POLYLINE
8
PIN
66
1
10
0.0
20
0.0
30
0.0
0
VERTEX
8
PIN
10
-100.0
20
17293.333333333332
0
VERTEX
8
PIN
10
-100.0
20
17373.333333333332
0
VERTEX
8
PIN
10
-80.0
20
17373.333333333332
0
VERTEX
8
PIN
10
-80.0
20
17293.333333333332
0
VERTEX
8
PIN
10
-100.0
20
17293.333333333332
0
SEQEND
0
POLYLINE
8
PIN
66
1
10
0.0
20
0.0
30
0.0
0
VERTEX
8
PIN
10
1700.0
20
17293.333333333332
0
VERTEX
8
PIN
10
1700.0
20
17373.333333333332
0
VERTEX
8
PIN
10
1680.0
20
17373.333333333332
0
VERTEX
8
PIN
10
1680.0
20
17293.333333333332
0
VERTEX
8
PIN
10
1700.0
20
17293.333333333332
0
SEQEND
0
ENDBLK
0
ENDSEC
0
SECTION
2
ENTITIES
0
INSERT
2
Q6GAP
8
GAP
10
0
20
0
0
INSERT
2
Q6PIN
8
PIN
10
0
20
0
0
INSERT
2
Q6
8
0
10
0
20
0
0
ENDSEC
0
EOF
