0
SECTION
2
HEADER
9
$ACADVER
1
AC1006
9
$INSBASE
10
0.0
20
0.0
30
0.0
9
$EXTMIN
10
0.0
20
0.0
9
$EXTMAX
10
0.0
20
0.0
0
ENDSEC
0
SECTION
2
TABLES
0
TABLE
2
LTYPE
70
1
0
LTYPE
2
CONTINUOUS
70
64
3
Solid line
72
65
73
0
40
0.0
0
ENDTAB
0
TABLE
2
LAYER
70
3
0
LAYER
2
PYDXF
70
64
62
7
6
continuous
0
LAYER
2
GAP
70
64
62
1
6
continuous
0
LAYER
2
PIN
70
64
62
3
6
continuous
0
ENDTAB
0
TABLE
2
STYLE
70
1
0
STYLE
2
STANDARD
70
0
40
0
41
40
50
50
71
0
42
1
3
ARIAL.TTF
4

0
ENDTAB
0
TABLE
2
VIEW
70
0
0
ENDTAB
0
ENDSEC
0
SECTION
2
BLOCKS
0
BLOCK
8
GAP
2
Q9GAP
70
0
10
0
20
0
30
0
3
Q9GAP
0
POLYLINE
8
0
66
1
10
0.0
20
0.0
30
0.0
0
VERTEX
8
0
10
810.7000000000007
20
21113.3
0
VERTEX
8
0
10
810.7000000000007
20
21114.0
0
VERTEX
8
0
10
789.2999999999993
20
21114.0
0
VERTEX
8
0
10
789.2999999999993
20
21113.3
0
VERTEX
8
0
10
810.7000000000007
20
21113.3
0
SEQEND
0
POLYLINE
8
0
66
1
10
0.0
20
0.0
30
0.0
0
VERTEX
8
0
10
790.0
20
21114.0
0
VERTEX
8
0
10
790.0
20
21131.0
0
VERTEX
8
0
10
789.2999999999993
20
21131.0
0
VERTEX
8
0
10
789.2999999999993
20
21114.0
0
VERTEX
8
0
10
790.0
20
21114.0
0
SEQEND
0
POLYLINE
8
0
66
1
10
0.0
20
0.0
30
0.0
0
VERTEX
8
0
10
810.0
20
21114.0
0
VERTEX
8
0
10
810.0
20
21131.0
0
VERTEX
8
0
10
810.7000000000007
20
21131.0
0
VERTEX
8
0
10
810.7000000000007
20
21114.0
0
VERTEX
8
0
10
810.0
20
21114.0
0
SEQEND
0
POLYLINE
8
0
66
1
10
0.0
20
0.0
30
0.0
0
VERTEX
8
0
10
790.0
20
21131.0
0
VERTEX
8
0
10
799.7400000000016
20
21136.0
0
VERTEX
8
0
10
799.0400000000009
20
21136.0
0
VERTEX
8
0
10
789.2999999999993
20
21131.0
0
VERTEX
8
0
10
790.0
20
21131.0
0
SEQEND
0
POLYLINE
8
0
66
1
10
0.0
20
0.0
30
0.0
0
VERTEX
8
0
10
810.0
20
21131.0
0
VERTEX
8
0
10
800.2599999999984
20
21136.0
0
VERTEX
8
0
10
800.9599999999991
20
21136.0
0
VERTEX
8
0
10
810.7000000000007
20
21131.0
0
VERTEX
8
0
10
810.0
20
21131.0
0
SEQEND
0
POLYLINE
8
0
66
1
10
0.0
20
0.0
30
0.0
0
VERTEX
8
0
10
799.7400000000016
20
21136.0
0
VERTEX
8
0
10
799.7400000000016
20
21144.0
0
VERTEX
8
0
10
799.5400000000009
20
21144.0
0
VERTEX
8
0
10
799.5400000000009
20
21136.0
0
VERTEX
8
0
10
799.7400000000016
20
21136.0
0
SEQEND
0
POLYLINE
8
0
66
1
10
0.0
20
0.0
30
0.0
0
VERTEX
8
0
10
800.2599999999984
20
21136.0
0
VERTEX
8
0
10
800.2599999999984
20
21144.0
0
VERTEX
8
0
10
800.4599999999991
20
21144.0
0
VERTEX
8
0
10
800.4599999999991
20
21136.0
0
VERTEX
8
0
10
800.2599999999984
20
21136.0
0
SEQEND
0
POLYLINE
8
0
66
1
10
0.0
20
0.0
30
0.0
0
VERTEX
8
0
10
801.2000000000007
20
21144.0
0
VERTEX
8
0
10
801.2000000000007
20
21144.2
0
VERTEX
8
0
10
798.7999999999993
20
21144.2
0
VERTEX
8
0
10
798.7999999999993
20
21144.0
0
VERTEX
8
0
10
801.2000000000007
20
21144.0
0
SEQEND
0
POLYLINE
8
0
66
1
10
0.0
20
0.0
30
0.0
0
VERTEX
8
0
10
799.0
20
21144.2
0
VERTEX
8
0
10
799.0
20
21152.2
0
VERTEX
8
0
10
798.7999999999993
20
21152.2
0
VERTEX
8
0
10
798.7999999999993
20
21144.2
0
VERTEX
8
0
10
799.0
20
21144.2
0
SEQEND
0
POLYLINE
8
0
66
1
10
0.0
20
0.0
30
0.0
0
VERTEX
8
0
10
801.0
20
21144.2
0
VERTEX
8
0
10
801.0
20
21152.2
0
VERTEX
8
0
10
801.2000000000007
20
21152.2
0
VERTEX
8
0
10
801.2000000000007
20
21144.2
0
VERTEX
8
0
10
801.0
20
21144.2
0
SEQEND
0
POLYLINE
8
0
66
1
10
0.0
20
0.0
30
0.0
0
VERTEX
8
0
10
799.0
20
21152.2
0
VERTEX
8
0
10
790.0
20
21157.2
0
VERTEX
8
0
10
789.2999999999993
20
21157.2
0
VERTEX
8
0
10
798.2999999999993
20
21152.2
0
VERTEX
8
0
10
799.0
20
21152.2
0
SEQEND
0
POLYLINE
8
0
66
1
10
0.0
20
0.0
30
0.0
0
VERTEX
8
0
10
801.0
20
21152.2
0
VERTEX
8
0
10
810.0
20
21157.2
0
VERTEX
8
0
10
810.7000000000007
20
21157.2
0
VERTEX
8
0
10
801.7000000000007
20
21152.2
0
VERTEX
8
0
10
801.0
20
21152.2
0
SEQEND
0
POLYLINE
8
0
66
1
10
0.0
20
0.0
30
0.0
0
VERTEX
8
0
10
790.0
20
21157.2
0
VERTEX
8
0
10
790.0
20
21174.2
0
VERTEX
8
0
10
789.2999999999993
20
21174.2
0
VERTEX
8
0
10
789.2999999999993
20
21157.2
0
VERTEX
8
0
10
790.0
20
21157.2
0
SEQEND
0
POLYLINE
8
0
66
1
10
0.0
20
0.0
30
0.0
0
VERTEX
8
0
10
810.0
20
21157.2
0
VERTEX
8
0
10
810.0
20
21174.2
0
VERTEX
8
0
10
810.7000000000007
20
21174.2
0
VERTEX
8
0
10
810.7000000000007
20
21157.2
0
VERTEX
8
0
10
810.0
20
21157.2
0
SEQEND
0
POLYLINE
8
0
66
1
10
0.0
20
0.0
30
0.0
0
VERTEX
8
0
10
810.7000000000007
20
21174.2
0
VERTEX
8
0
10
810.7000000000007
20
21174.9
0
VERTEX
8
0
10
789.2999999999993
20
21174.9
0
VERTEX
8
0
10
789.2999999999993
20
21174.2
0
VERTEX
8
0
10
810.7000000000007
20
21174.2
0
SEQEND
0
POLYLINE
8
0
66
1
10
0.0
20
0.0
30
0.0
0
VERTEX
8
0
10
810.6999999999998
20
2253.3
0
VERTEX
8
0
10
810.6999999999998
20
2254.0
0
VERTEX
8
0
10
789.3000000000002
20
2254.0
0
VERTEX
8
0
10
789.3000000000002
20
2253.3
0
VERTEX
8
0
10
810.6999999999998
20
2253.3
0
SEQEND
0
POLYLINE
8
0
66
1
10
0.0
20
0.0
30
0.0
0
VERTEX
8
0
10
790.0
20
2254.0
0
VERTEX
8
0
10
790.0
20
2271.0
0
VERTEX
8
0
10
789.3000000000002
20
2271.0
0
VERTEX
8
0
10
789.3000000000002
20
2254.0
0
VERTEX
8
0
10
790.0
20
2254.0
0
SEQEND
0
POLYLINE
8
0
66
1
10
0.0
20
0.0
30
0.0
0
VERTEX
8
0
10
810.0
20
2254.0
0
VERTEX
8
0
10
810.0
20
2271.0
0
VERTEX
8
0
10
810.6999999999998
20
2271.0
0
VERTEX
8
0
10
810.6999999999998
20
2254.0
0
VERTEX
8
0
10
810.0
20
2254.0
0
SEQEND
0
POLYLINE
8
0
66
1
10
0.0
20
0.0
30
0.0
0
VERTEX
8
0
10
790.0
20
2271.0
0
VERTEX
8
0
10
799.7399999999998
20
2276.0
0
VERTEX
8
0
10
799.04
20
2276.0
0
VERTEX
8
0
10
789.3000000000002
20
2271.0
0
VERTEX
8
0
10
790.0
20
2271.0
0
SEQEND
0
POLYLINE
8
0
66
1
10
0.0
20
0.0
30
0.0
0
VERTEX
8
0
10
810.0
20
2271.0
0
VERTEX
8
0
10
800.2600000000002
20
2276.0
0
VERTEX
8
0
10
800.96
20
2276.0
0
VERTEX
8
0
10
810.6999999999998
20
2271.0
0
VERTEX
8
0
10
810.0
20
2271.0
0
SEQEND
0
POLYLINE
8
0
66
1
10
0.0
20
0.0
30
0.0
0
VERTEX
8
0
10
799.7399999999998
20
2276.0
0
VERTEX
8
0
10
799.7399999999998
20
2284.0
0
VERTEX
8
0
10
799.54
20
2284.0
0
VERTEX
8
0
10
799.54
20
2276.0
0
VERTEX
8
0
10
799.7399999999998
20
2276.0
0
SEQEND
0
POLYLINE
8
0
66
1
10
0.0
20
0.0
30
0.0
0
VERTEX
8
0
10
800.2600000000002
20
2276.0
0
VERTEX
8
0
10
800.2600000000002
20
2284.0
0
VERTEX
8
0
10
800.46
20
2284.0
0
VERTEX
8
0
10
800.46
20
2276.0
0
VERTEX
8
0
10
800.2600000000002
20
2276.0
0
SEQEND
0
POLYLINE
8
0
66
1
10
0.0
20
0.0
30
0.0
0
VERTEX
8
0
10
801.1999999999998
20
2284.0
0
VERTEX
8
0
10
801.1999999999998
20
2284.2
0
VERTEX
8
0
10
798.8000000000002
20
2284.2
0
VERTEX
8
0
10
798.8000000000002
20
2284.0
0
VERTEX
8
0
10
801.1999999999998
20
2284.0
0
SEQEND
0
POLYLINE
8
0
66
1
10
0.0
20
0.0
30
0.0
0
VERTEX
8
0
10
799.0
20
2284.2
0
VERTEX
8
0
10
799.0
20
2292.2
0
VERTEX
8
0
10
798.8000000000002
20
2292.2
0
VERTEX
8
0
10
798.8000000000002
20
2284.2
0
VERTEX
8
0
10
799.0
20
2284.2
0
SEQEND
0
POLYLINE
8
0
66
1
10
0.0
20
0.0
30
0.0
0
VERTEX
8
0
10
801.0
20
2284.2
0
VERTEX
8
0
10
801.0
20
2292.2
0
VERTEX
8
0
10
801.1999999999998
20
2292.2
0
VERTEX
8
0
10
801.1999999999998
20
2284.2
0
VERTEX
8
0
10
801.0
20
2284.2
0
SEQEND
0
POLYLINE
8
0
66
1
10
0.0
20
0.0
30
0.0
0
VERTEX
8
0
10
799.0
20
2292.2
0
VERTEX
8
0
10
790.0
20
2297.2
0
VERTEX
8
0
10
789.3000000000002
20
2297.2
0
VERTEX
8
0
10
798.3000000000002
20
2292.2
0
VERTEX
8
0
10
799.0
20
2292.2
0
SEQEND
0
POLYLINE
8
0
66
1
10
0.0
20
0.0
30
0.0
0
VERTEX
8
0
10
801.0
20
2292.2
0
VERTEX
8
0
10
810.0
20
2297.2
0
VERTEX
8
0
10
810.6999999999998
20
2297.2
0
VERTEX
8
0
10
801.6999999999998
20
2292.2
0
VERTEX
8
0
10
801.0
20
2292.2
0
SEQEND
0
POLYLINE
8
0
66
1
10
0.0
20
0.0
30
0.0
0
VERTEX
8
0
10
790.0
20
2297.2
0
VERTEX
8
0
10
790.0
20
2314.2
0
VERTEX
8
0
10
789.3000000000002
20
2314.2
0
VERTEX
8
0
10
789.3000000000002
20
2297.2
0
VERTEX
8
0
10
790.0
20
2297.2
0
SEQEND
0
POLYLINE
8
0
66
1
10
0.0
20
0.0
30
0.0
0
VERTEX
8
0
10
810.0
20
2297.2
0
VERTEX
8
0
10
810.0
20
2314.2
0
VERTEX
8
0
10
810.6999999999998
20
2314.2
0
VERTEX
8
0
10
810.6999999999998
20
2297.2
0
VERTEX
8
0
10
810.0
20
2297.2
0
SEQEND
0
POLYLINE
8
0
66
1
10
0.0
20
0.0
30
0.0
0
VERTEX
8
0
10
810.6999999999998
20
2314.2
0
VERTEX
8
0
10
810.6999999999998
20
2314.8999999999996
0
VERTEX
8
0
10
789.3000000000002
20
2314.8999999999996
0
VERTEX
8
0
10
789.3000000000002
20
2314.2
0
VERTEX
8
0
10
810.6999999999998
20
2314.2
0
SEQEND
0
POLYLINE
8
0
66
1
10
0.0
20
0.0
30
0.0
0
VERTEX
8
0
10
810.6999999999998
20
4753.3
0
VERTEX
8
0
10
810.6999999999998
20
4754.0
0
VERTEX
8
0
10
789.3000000000002
20
4754.0
0
VERTEX
8
0
10
789.3000000000002
20
4753.3
0
VERTEX
8
0
10
810.6999999999998
20
4753.3
0
SEQEND
0
POLYLINE
8
0
66
1
10
0.0
20
0.0
30
0.0
0
VERTEX
8
0
10
790.0
20
4754.0
0
VERTEX
8
0
10
790.0
20
4771.0
0
VERTEX
8
0
10
789.3000000000002
20
4771.0
0
VERTEX
8
0
10
789.3000000000002
20
4754.0
0
VERTEX
8
0
10
790.0
20
4754.0
0
SEQEND
0
POLYLINE
8
0
66
1
10
0.0
20
0.0
30
0.0
0
VERTEX
8
0
10
810.0
20
4754.0
0
VERTEX
8
0
10
810.0
20
4771.0
0
VERTEX
8
0
10
810.6999999999998
20
4771.0
0
VERTEX
8
0
10
810.6999999999998
20
4754.0
0
VERTEX
8
0
10
810.0
20
4754.0
0
SEQEND
0
POLYLINE
8
0
66
1
10
0.0
20
0.0
30
0.0
0
VERTEX
8
0
10
790.0
20
4771.0
0
VERTEX
8
0
10
799.7399999999998
20
4776.0
0
VERTEX
8
0
10
799.04
20
4776.0
0
VERTEX
8
0
10
789.3000000000002
20
4771.0
0
VERTEX
8
0
10
790.0
20
4771.0
0
SEQEND
0
POLYLINE
8
0
66
1
10
0.0
20
0.0
30
0.0
0
VERTEX
8
0
10
810.0
20
4771.0
0
VERTEX
8
0
10
800.2600000000002
20
4776.0
0
VERTEX
8
0
10
800.96
20
4776.0
0
VERTEX
8
0
10
810.6999999999998
20
4771.0
0
VERTEX
8
0
10
810.0
20
4771.0
0
SEQEND
0
POLYLINE
8
0
66
1
10
0.0
20
0.0
30
0.0
0
VERTEX
8
0
10
799.7399999999998
20
4776.0
0
VERTEX
8
0
10
799.7399999999998
20
4784.0
0
VERTEX
8
0
10
799.54
20
4784.0
0
VERTEX
8
0
10
799.54
20
4776.0
0
VERTEX
8
0
10
799.7399999999998
20
4776.0
0
SEQEND
0
POLYLINE
8
0
66
1
10
0.0
20
0.0
30
0.0
0
VERTEX
8
0
10
800.2600000000002
20
4776.0
0
VERTEX
8
0
10
800.2600000000002
20
4784.0
0
VERTEX
8
0
10
800.46
20
4784.0
0
VERTEX
8
0
10
800.46
20
4776.0
0
VERTEX
8
0
10
800.2600000000002
20
4776.0
0
SEQEND
0
POLYLINE
8
0
66
1
10
0.0
20
0.0
30
0.0
0
VERTEX
8
0
10
801.1999999999998
20
4784.0
0
VERTEX
8
0
10
801.1999999999998
20
4784.2
0
VERTEX
8
0
10
798.8000000000002
20
4784.2
0
VERTEX
8
0
10
798.8000000000002
20
4784.0
0
VERTEX
8
0
10
801.1999999999998
20
4784.0
0
SEQEND
0
POLYLINE
8
0
66
1
10
0.0
20
0.0
30
0.0
0
VERTEX
8
0
10
799.0
20
4784.2
0
VERTEX
8
0
10
799.0
20
4792.2
0
VERTEX
8
0
10
798.8000000000002
20
4792.2
0
VERTEX
8
0
10
798.8000000000002
20
4784.2
0
VERTEX
8
0
10
799.0
20
4784.2
0
SEQEND
0
POLYLINE
8
0
66
1
10
0.0
20
0.0
30
0.0
0
VERTEX
8
0
10
801.0
20
4784.2
0
VERTEX
8
0
10
801.0
20
4792.2
0
VERTEX
8
0
10
801.1999999999998
20
4792.2
0
VERTEX
8
0
10
801.1999999999998
20
4784.2
0
VERTEX
8
0
10
801.0
20
4784.2
0
SEQEND
0
POLYLINE
8
0
66
1
10
0.0
20
0.0
30
0.0
0
VERTEX
8
0
10
799.0
20
4792.2
0
VERTEX
8
0
10
790.0
20
4797.2
0
VERTEX
8
0
10
789.3000000000002
20
4797.2
0
VERTEX
8
0
10
798.3000000000002
20
4792.2
0
VERTEX
8
0
10
799.0
20
4792.2
0
SEQEND
0
POLYLINE
8
0
66
1
10
0.0
20
0.0
30
0.0
0
VERTEX
8
0
10
801.0
20
4792.2
0
VERTEX
8
0
10
810.0
20
4797.2
0
VERTEX
8
0
10
810.6999999999998
20
4797.2
0
VERTEX
8
0
10
801.6999999999998
20
4792.2
0
VERTEX
8
0
10
801.0
20
4792.2
0
SEQEND
0
POLYLINE
8
0
66
1
10
0.0
20
0.0
30
0.0
0
VERTEX
8
0
10
790.0
20
4797.2
0
VERTEX
8
0
10
790.0
20
4814.2
0
VERTEX
8
0
10
789.3000000000002
20
4814.2
0
VERTEX
8
0
10
789.3000000000002
20
4797.2
0
VERTEX
8
0
10
790.0
20
4797.2
0
SEQEND
0
POLYLINE
8
0
66
1
10
0.0
20
0.0
30
0.0
0
VERTEX
8
0
10
810.0
20
4797.2
0
VERTEX
8
0
10
810.0
20
4814.2
0
VERTEX
8
0
10
810.6999999999998
20
4814.2
0
VERTEX
8
0
10
810.6999999999998
20
4797.2
0
VERTEX
8
0
10
810.0
20
4797.2
0
SEQEND
0
POLYLINE
8
0
66
1
10
0.0
20
0.0
30
0.0
0
VERTEX
8
0
10
810.6999999999998
20
4814.2
0
VERTEX
8
0
10
810.6999999999998
20
4814.9
0
VERTEX
8
0
10
789.3000000000002
20
4814.9
0
VERTEX
8
0
10
789.3000000000002
20
4814.2
0
VERTEX
8
0
10
810.6999999999998
20
4814.2
0
SEQEND
0
POLYLINE
8
0
66
1
10
0.0
20
0.0
30
0.0
0
VERTEX
8
0
10
810.6999999999998
20
7253.3
0
VERTEX
8
0
10
810.6999999999998
20
7254.0
0
VERTEX
8
0
10
789.3000000000002
20
7254.0
0
VERTEX
8
0
10
789.3000000000002
20
7253.3
0
VERTEX
8
0
10
810.6999999999998
20
7253.3
0
SEQEND
0
POLYLINE
8
0
66
1
10
0.0
20
0.0
30
0.0
0
VERTEX
8
0
10
790.0
20
7254.0
0
VERTEX
8
0
10
790.0
20
7271.0
0
VERTEX
8
0
10
789.3000000000002
20
7271.0
0
VERTEX
8
0
10
789.3000000000002
20
7254.0
0
VERTEX
8
0
10
790.0
20
7254.0
0
SEQEND
0
POLYLINE
8
0
66
1
10
0.0
20
0.0
30
0.0
0
VERTEX
8
0
10
810.0
20
7254.0
0
VERTEX
8
0
10
810.0
20
7271.0
0
VERTEX
8
0
10
810.6999999999998
20
7271.0
0
VERTEX
8
0
10
810.6999999999998
20
7254.0
0
VERTEX
8
0
10
810.0
20
7254.0
0
SEQEND
0
POLYLINE
8
0
66
1
10
0.0
20
0.0
30
0.0
0
VERTEX
8
0
10
790.0
20
7271.0
0
VERTEX
8
0
10
799.7399999999998
20
7276.0
0
VERTEX
8
0
10
799.04
20
7276.0
0
VERTEX
8
0
10
789.3000000000002
20
7271.0
0
VERTEX
8
0
10
790.0
20
7271.0
0
SEQEND
0
POLYLINE
8
0
66
1
10
0.0
20
0.0
30
0.0
0
VERTEX
8
0
10
810.0
20
7271.0
0
VERTEX
8
0
10
800.2600000000002
20
7276.0
0
VERTEX
8
0
10
800.96
20
7276.0
0
VERTEX
8
0
10
810.6999999999998
20
7271.0
0
VERTEX
8
0
10
810.0
20
7271.0
0
SEQEND
0
POLYLINE
8
0
66
1
10
0.0
20
0.0
30
0.0
0
VERTEX
8
0
10
799.7399999999998
20
7276.0
0
VERTEX
8
0
10
799.7399999999998
20
7284.0
0
VERTEX
8
0
10
799.54
20
7284.0
0
VERTEX
8
0
10
799.54
20
7276.0
0
VERTEX
8
0
10
799.7399999999998
20
7276.0
0
SEQEND
0
POLYLINE
8
0
66
1
10
0.0
20
0.0
30
0.0
0
VERTEX
8
0
10
800.2600000000002
20
7276.0
0
VERTEX
8
0
10
800.2600000000002
20
7284.0
0
VERTEX
8
0
10
800.46
20
7284.0
0
VERTEX
8
0
10
800.46
20
7276.0
0
VERTEX
8
0
10
800.2600000000002
20
7276.0
0
SEQEND
0
POLYLINE
8
0
66
1
10
0.0
20
0.0
30
0.0
0
VERTEX
8
0
10
801.1999999999998
20
7284.0
0
VERTEX
8
0
10
801.1999999999998
20
7284.2
0
VERTEX
8
0
10
798.8000000000002
20
7284.2
0
VERTEX
8
0
10
798.8000000000002
20
7284.0
0
VERTEX
8
0
10
801.1999999999998
20
7284.0
0
SEQEND
0
POLYLINE
8
0
66
1
10
0.0
20
0.0
30
0.0
0
VERTEX
8
0
10
799.0
20
7284.2
0
VERTEX
8
0
10
799.0
20
7292.2
0
VERTEX
8
0
10
798.8000000000002
20
7292.2
0
VERTEX
8
0
10
798.8000000000002
20
7284.2
0
VERTEX
8
0
10
799.0
20
7284.2
0
SEQEND
0
POLYLINE
8
0
66
1
10
0.0
20
0.0
30
0.0
0
VERTEX
8
0
10
801.0
20
7284.2
0
VERTEX
8
0
10
801.0
20
7292.2
0
VERTEX
8
0
10
801.1999999999998
20
7292.2
0
VERTEX
8
0
10
801.1999999999998
20
7284.2
0
VERTEX
8
0
10
801.0
20
7284.2
0
SEQEND
0
POLYLINE
8
0
66
1
10
0.0
20
0.0
30
0.0
0
VERTEX
8
0
10
799.0
20
7292.2
0
VERTEX
8
0
10
790.0
20
7297.2
0
VERTEX
8
0
10
789.3000000000002
20
7297.2
0
VERTEX
8
0
10
798.3000000000002
20
7292.2
0
VERTEX
8
0
10
799.0
20
7292.2
0
SEQEND
0
POLYLINE
8
0
66
1
10
0.0
20
0.0
30
0.0
0
VERTEX
8
0
10
801.0
20
7292.2
0
VERTEX
8
0
10
810.0
20
7297.2
0
VERTEX
8
0
10
810.6999999999998
20
7297.2
0
VERTEX
8
0
10
801.6999999999998
20
7292.2
0
VERTEX
8
0
10
801.0
20
7292.2
0
SEQEND
0
POLYLINE
8
0
66
1
10
0.0
20
0.0
30
0.0
0
VERTEX
8
0
10
790.0
20
7297.2
0
VERTEX
8
0
10
790.0
20
7314.2
0
VERTEX
8
0
10
789.3000000000002
20
7314.2
0
VERTEX
8
0
10
789.3000000000002
20
7297.2
0
VERTEX
8
0
10
790.0
20
7297.2
0
SEQEND
0
POLYLINE
8
0
66
1
10
0.0
20
0.0
30
0.0
0
VERTEX
8
0
10
810.0
20
7297.2
0
VERTEX
8
0
10
810.0
20
7314.2
0
VERTEX
8
0
10
810.6999999999998
20
7314.2
0
VERTEX
8
0
10
810.6999999999998
20
7297.2
0
VERTEX
8
0
10
810.0
20
7297.2
0
SEQEND
0
POLYLINE
8
0
66
1
10
0.0
20
0.0
30
0.0
0
VERTEX
8
0
10
810.6999999999998
20
7314.2
0
VERTEX
8
0
10
810.6999999999998
20
7314.9
0
VERTEX
8
0
10
789.3000000000002
20
7314.9
0
VERTEX
8
0
10
789.3000000000002
20
7314.2
0
VERTEX
8
0
10
810.6999999999998
20
7314.2
0
SEQEND
0
ENDBLK
0
BLOCK
8
PIN
2
Q9PIN
70
0
10
0
20
0
30
0
3
Q9PIN
0
POLYLINE
8
0
66
1
10
0.0
20
0.0
30
0.0
0
VERTEX
8
0
10
810.0
20
21114.0
0
VERTEX
8
0
10
810.0
20
21131.0
0
VERTEX
8
0
10
790.0
20
21131.0
0
VERTEX
8
0
10
790.0
20
21114.0
0
VERTEX
8
0
10
810.0
20
21114.0
0
SEQEND
0
POLYLINE
8
0
66
1
10
0.0
20
0.0
30
0.0
0
VERTEX
8
0
10
800.0
20
21131.0
0
VERTEX
8
0
10
800.0
20
21136.0
0
VERTEX
8
0
10
799.7400000000016
20
21136.0
0
VERTEX
8
0
10
790.0
20
21131.0
0
VERTEX
8
0
10
800.0
20
21131.0
0
SEQEND
0
POLYLINE
8
0
66
1
10
0.0
20
0.0
30
0.0
0
VERTEX
8
0
10
800.0
20
21131.0
0
VERTEX
8
0
10
800.0
20
21136.0
0
VERTEX
8
0
10
800.2599999999984
20
21136.0
0
VERTEX
8
0
10
810.0
20
21131.0
0
VERTEX
8
0
10
800.0
20
21131.0
0
SEQEND
0
POLYLINE
8
0
66
1
10
0.0
20
0.0
30
0.0
0
VERTEX
8
0
10
800.2599999999984
20
21136.0
0
VERTEX
8
0
10
800.2599999999984
20
21144.0
0
VERTEX
8
0
10
799.7400000000016
20
21144.0
0
VERTEX
8
0
10
799.7400000000016
20
21136.0
0
VERTEX
8
0
10
800.2599999999984
20
21136.0
0
SEQEND
0
POLYLINE
8
0
66
1
10
0.0
20
0.0
30
0.0
0
VERTEX
8
0
10
801.0
20
21144.2
0
VERTEX
8
0
10
801.0
20
21152.2
0
VERTEX
8
0
10
799.0
20
21152.2
0
VERTEX
8
0
10
799.0
20
21144.2
0
VERTEX
8
0
10
801.0
20
21144.2
0
SEQEND
0
POLYLINE
8
0
66
1
10
0.0
20
0.0
30
0.0
0
VERTEX
8
0
10
800.0
20
21152.2
0
VERTEX
8
0
10
800.0
20
21157.2
0
VERTEX
8
0
10
790.0
20
21157.2
0
VERTEX
8
0
10
799.0
20
21152.2
0
VERTEX
8
0
10
800.0
20
21152.2
0
SEQEND
0
POLYLINE
8
0
66
1
10
0.0
20
0.0
30
0.0
0
VERTEX
8
0
10
800.0
20
21152.2
0
VERTEX
8
0
10
800.0
20
21157.2
0
VERTEX
8
0
10
810.0
20
21157.2
0
VERTEX
8
0
10
801.0
20
21152.2
0
VERTEX
8
0
10
800.0
20
21152.2
0
SEQEND
0
POLYLINE
8
0
66
1
10
0.0
20
0.0
30
0.0
0
VERTEX
8
0
10
810.0
20
21157.2
0
VERTEX
8
0
10
810.0
20
21174.2
0
VERTEX
8
0
10
790.0
20
21174.2
0
VERTEX
8
0
10
790.0
20
21157.2
0
VERTEX
8
0
10
810.0
20
21157.2
0
SEQEND
0
POLYLINE
8
0
66
1
10
0.0
20
0.0
30
0.0
0
VERTEX
8
0
10
810.0
20
2254.0
0
VERTEX
8
0
10
810.0
20
2271.0
0
VERTEX
8
0
10
790.0
20
2271.0
0
VERTEX
8
0
10
790.0
20
2254.0
0
VERTEX
8
0
10
810.0
20
2254.0
0
SEQEND
0
POLYLINE
8
0
66
1
10
0.0
20
0.0
30
0.0
0
VERTEX
8
0
10
800.0
20
2271.0
0
VERTEX
8
0
10
800.0
20
2276.0
0
VERTEX
8
0
10
799.7399999999998
20
2276.0
0
VERTEX
8
0
10
790.0
20
2271.0
0
VERTEX
8
0
10
800.0
20
2271.0
0
SEQEND
0
POLYLINE
8
0
66
1
10
0.0
20
0.0
30
0.0
0
VERTEX
8
0
10
800.0
20
2271.0
0
VERTEX
8
0
10
800.0
20
2276.0
0
VERTEX
8
0
10
800.2600000000002
20
2276.0
0
VERTEX
8
0
10
810.0
20
2271.0
0
VERTEX
8
0
10
800.0
20
2271.0
0
SEQEND
0
POLYLINE
8
0
66
1
10
0.0
20
0.0
30
0.0
0
VERTEX
8
0
10
800.2600000000002
20
2276.0
0
VERTEX
8
0
10
800.2600000000002
20
2284.0
0
VERTEX
8
0
10
799.7399999999998
20
2284.0
0
VERTEX
8
0
10
799.7399999999998
20
2276.0
0
VERTEX
8
0
10
800.2600000000002
20
2276.0
0
SEQEND
0
POLYLINE
8
0
66
1
10
0.0
20
0.0
30
0.0
0
VERTEX
8
0
10
801.0
20
2284.2
0
VERTEX
8
0
10
801.0
20
2292.2
0
VERTEX
8
0
10
799.0
20
2292.2
0
VERTEX
8
0
10
799.0
20
2284.2
0
VERTEX
8
0
10
801.0
20
2284.2
0
SEQEND
0
POLYLINE
8
0
66
1
10
0.0
20
0.0
30
0.0
0
VERTEX
8
0
10
800.0
20
2292.2
0
VERTEX
8
0
10
800.0
20
2297.2
0
VERTEX
8
0
10
790.0
20
2297.2
0
VERTEX
8
0
10
799.0
20
2292.2
0
VERTEX
8
0
10
800.0
20
2292.2
0
SEQEND
0
POLYLINE
8
0
66
1
10
0.0
20
0.0
30
0.0
0
VERTEX
8
0
10
800.0
20
2292.2
0
VERTEX
8
0
10
800.0
20
2297.2
0
VERTEX
8
0
10
810.0
20
2297.2
0
VERTEX
8
0
10
801.0
20
2292.2
0
VERTEX
8
0
10
800.0
20
2292.2
0
SEQEND
0
POLYLINE
8
0
66
1
10
0.0
20
0.0
30
0.0
0
VERTEX
8
0
10
810.0
20
2297.2
0
VERTEX
8
0
10
810.0
20
2314.2
0
VERTEX
8
0
10
790.0
20
2314.2
0
VERTEX
8
0
10
790.0
20
2297.2
0
VERTEX
8
0
10
810.0
20
2297.2
0
SEQEND
0
POLYLINE
8
0
66
1
10
0.0
20
0.0
30
0.0
0
VERTEX
8
0
10
810.0
20
4754.0
0
VERTEX
8
0
10
810.0
20
4771.0
0
VERTEX
8
0
10
790.0
20
4771.0
0
VERTEX
8
0
10
790.0
20
4754.0
0
VERTEX
8
0
10
810.0
20
4754.0
0
SEQEND
0
POLYLINE
8
0
66
1
10
0.0
20
0.0
30
0.0
0
VERTEX
8
0
10
800.0
20
4771.0
0
VERTEX
8
0
10
800.0
20
4776.0
0
VERTEX
8
0
10
799.7399999999998
20
4776.0
0
VERTEX
8
0
10
790.0
20
4771.0
0
VERTEX
8
0
10
800.0
20
4771.0
0
SEQEND
0
POLYLINE
8
0
66
1
10
0.0
20
0.0
30
0.0
0
VERTEX
8
0
10
800.0
20
4771.0
0
VERTEX
8
0
10
800.0
20
4776.0
0
VERTEX
8
0
10
800.2600000000002
20
4776.0
0
VERTEX
8
0
10
810.0
20
4771.0
0
VERTEX
8
0
10
800.0
20
4771.0
0
SEQEND
0
POLYLINE
8
0
66
1
10
0.0
20
0.0
30
0.0
0
VERTEX
8
0
10
800.2600000000002
20
4776.0
0
VERTEX
8
0
10
800.2600000000002
20
4784.0
0
VERTEX
8
0
10
799.7399999999998
20
4784.0
0
VERTEX
8
0
10
799.7399999999998
20
4776.0
0
VERTEX
8
0
10
800.2600000000002
20
4776.0
0
SEQEND
0
POLYLINE
8
0
66
1
10
0.0
20
0.0
30
0.0
0
VERTEX
8
0
10
801.0
20
4784.2
0
VERTEX
8
0
10
801.0
20
4792.2
0
VERTEX
8
0
10
799.0
20
4792.2
0
VERTEX
8
0
10
799.0
20
4784.2
0
VERTEX
8
0
10
801.0
20
4784.2
0
SEQEND
0
POLYLINE
8
0
66
1
10
0.0
20
0.0
30
0.0
0
VERTEX
8
0
10
800.0
20
4792.2
0
VERTEX
8
0
10
800.0
20
4797.2
0
VERTEX
8
0
10
790.0
20
4797.2
0
VERTEX
8
0
10
799.0
20
4792.2
0
VERTEX
8
0
10
800.0
20
4792.2
0
SEQEND
0
POLYLINE
8
0
66
1
10
0.0
20
0.0
30
0.0
0
VERTEX
8
0
10
800.0
20
4792.2
0
VERTEX
8
0
10
800.0
20
4797.2
0
VERTEX
8
0
10
810.0
20
4797.2
0
VERTEX
8
0
10
801.0
20
4792.2
0
VERTEX
8
0
10
800.0
20
4792.2
0
SEQEND
0
POLYLINE
8
0
66
1
10
0.0
20
0.0
30
0.0
0
VERTEX
8
0
10
810.0
20
4797.2
0
VERTEX
8
0
10
810.0
20
4814.2
0
VERTEX
8
0
10
790.0
20
4814.2
0
VERTEX
8
0
10
790.0
20
4797.2
0
VERTEX
8
0
10
810.0
20
4797.2
0
SEQEND
0
POLYLINE
8
0
66
1
10
0.0
20
0.0
30
0.0
0
VERTEX
8
0
10
810.0
20
7254.0
0
VERTEX
8
0
10
810.0
20
7271.0
0
VERTEX
8
0
10
790.0
20
7271.0
0
VERTEX
8
0
10
790.0
20
7254.0
0
VERTEX
8
0
10
810.0
20
7254.0
0
SEQEND
0
POLYLINE
8
0
66
1
10
0.0
20
0.0
30
0.0
0
VERTEX
8
0
10
800.0
20
7271.0
0
VERTEX
8
0
10
800.0
20
7276.0
0
VERTEX
8
0
10
799.7399999999998
20
7276.0
0
VERTEX
8
0
10
790.0
20
7271.0
0
VERTEX
8
0
10
800.0
20
7271.0
0
SEQEND
0
POLYLINE
8
0
66
1
10
0.0
20
0.0
30
0.0
0
VERTEX
8
0
10
800.0
20
7271.0
0
VERTEX
8
0
10
800.0
20
7276.0
0
VERTEX
8
0
10
800.2600000000002
20
7276.0
0
VERTEX
8
0
10
810.0
20
7271.0
0
VERTEX
8
0
10
800.0
20
7271.0
0
SEQEND
0
POLYLINE
8
0
66
1
10
0.0
20
0.0
30
0.0
0
VERTEX
8
0
10
800.2600000000002
20
7276.0
0
VERTEX
8
0
10
800.2600000000002
20
7284.0
0
VERTEX
8
0
10
799.7399999999998
20
7284.0
0
VERTEX
8
0
10
799.7399999999998
20
7276.0
0
VERTEX
8
0
10
800.2600000000002
20
7276.0
0
SEQEND
0
POLYLINE
8
0
66
1
10
0.0
20
0.0
30
0.0
0
VERTEX
8
0
10
801.0
20
7284.2
0
VERTEX
8
0
10
801.0
20
7292.2
0
VERTEX
8
0
10
799.0
20
7292.2
0
VERTEX
8
0
10
799.0
20
7284.2
0
VERTEX
8
0
10
801.0
20
7284.2
0
SEQEND
0
POLYLINE
8
0
66
1
10
0.0
20
0.0
30
0.0
0
VERTEX
8
0
10
800.0
20
7292.2
0
VERTEX
8
0
10
800.0
20
7297.2
0
VERTEX
8
0
10
790.0
20
7297.2
0
VERTEX
8
0
10
799.0
20
7292.2
0
VERTEX
8
0
10
800.0
20
7292.2
0
SEQEND
0
POLYLINE
8
0
66
1
10
0.0
20
0.0
30
0.0
0
VERTEX
8
0
10
800.0
20
7292.2
0
VERTEX
8
0
10
800.0
20
7297.2
0
VERTEX
8
0
10
810.0
20
7297.2
0
VERTEX
8
0
10
801.0
20
7292.2
0
VERTEX
8
0
10
800.0
20
7292.2
0
SEQEND
0
POLYLINE
8
0
66
1
10
0.0
20
0.0
30
0.0
0
VERTEX
8
0
10
810.0
20
7297.2
0
VERTEX
8
0
10
810.0
20
7314.2
0
VERTEX
8
0
10
790.0
20
7314.2
0
VERTEX
8
0
10
790.0
20
7297.2
0
VERTEX
8
0
10
810.0
20
7297.2
0
SEQEND
0
ENDBLK
0
BLOCK
8
0
2
Q9
70
0
10
0
20
0
30
0
3
Q9

0
ENDBLK
0
ENDSEC
0
SECTION
2
ENTITIES
0
INSERT
2
Q9GAP
8
GAP
10
0
20
0
0
INSERT
2
Q9PIN
8
PIN
10
0
20
0
0
INSERT
2
Q9
8
0
10
0
20
0
0
ENDSEC
0
EOF
