0
SECTION
2
HEADER
9
$ACADVER
1
AC1006
9
$INSBASE
10
0.0
20
0.0
30
0.0
9
$EXTMIN
10
0.0
20
0.0
9
$EXTMAX
10
0.0
20
0.0
0
ENDSEC
0
SECTION
2
TABLES
0
TABLE
2
LTYPE
70
1
0
LTYPE
2
CONTINUOUS
70
64
3
Solid line
72
65
73
0
40
0.0
0
ENDTAB
0
TABLE
2
LAYER
70
3
0
LAYER
2
PYDXF
70
64
62
7
6
continuous
0
LAYER
2
GAP
70
64
62
1
6
continuous
0
LAYER
2
PIN
70
64
62
3
6
continuous
0
ENDTAB
0
TABLE
2
STYLE
70
1
0
STYLE
2
STANDARD
70
0
40
0
41
40
50
50
71
0
42
1
3
ARIAL.TTF
4

0
ENDTAB
0
TABLE
2
VIEW
70
0
0
ENDTAB
0
ENDSEC
0
SECTION
2
BLOCKS
0
BLOCK
8
GAP
2
Q24GAP
70
0
10
0
20
0
30
0
3
Q24GAP
0
POLYLINE
8
0
66
1
10
0.0
20
0.0
30
0.0
0
VERTEX
8
0
10
810.7000000000007
20
21113.3
0
VERTEX
8
0
10
810.7000000000007
20
21114.0
0
VERTEX
8
0
10
789.2999999999993
20
21114.0
0
VERTEX
8
0
10
789.2999999999993
20
21113.3
0
VERTEX
8
0
10
810.7000000000007
20
21113.3
0
SEQEND
0
POLYLINE
8
0
66
1
10
0.0
20
0.0
30
0.0
0
VERTEX
8
0
10
790.0
20
21114.0
0
VERTEX
8
0
10
790.0
20
21131.0
0
VERTEX
8
0
10
789.2999999999993
20
21131.0
0
VERTEX
8
0
10
789.2999999999993
20
21114.0
0
VERTEX
8
0
10
790.0
20
21114.0
0
SEQEND
0
POLYLINE
8
0
66
1
10
0.0
20
0.0
30
0.0
0
VERTEX
8
0
10
810.0
20
21114.0
0
VERTEX
8
0
10
810.0
20
21131.0
0
VERTEX
8
0
10
810.7000000000007
20
21131.0
0
VERTEX
8
0
10
810.7000000000007
20
21114.0
0
VERTEX
8
0
10
810.0
20
21114.0
0
SEQEND
0
POLYLINE
8
0
66
1
10
0.0
20
0.0
30
0.0
0
VERTEX
8
0
10
790.0
20
21131.0
0
VERTEX
8
0
10
799.0
20
21136.0
0
VERTEX
8
0
10
798.2999999999993
20
21136.0
0
VERTEX
8
0
10
789.2999999999993
20
21131.0
0
VERTEX
8
0
10
790.0
20
21131.0
0
SEQEND
0
POLYLINE
8
0
66
1
10
0.0
20
0.0
30
0.0
0
VERTEX
8
0
10
810.0
20
21131.0
0
VERTEX
8
0
10
801.0
20
21136.0
0
VERTEX
8
0
10
801.7000000000007
20
21136.0
0
VERTEX
8
0
10
810.7000000000007
20
21131.0
0
VERTEX
8
0
10
810.0
20
21131.0
0
SEQEND
0
POLYLINE
8
0
66
1
10
0.0
20
0.0
30
0.0
0
VERTEX
8
0
10
799.0
20
21136.0
0
VERTEX
8
0
10
799.0
20
21137.0
0
VERTEX
8
0
10
798.2999999999993
20
21137.0
0
VERTEX
8
0
10
798.2999999999993
20
21136.0
0
VERTEX
8
0
10
799.0
20
21136.0
0
SEQEND
0
POLYLINE
8
0
66
1
10
0.0
20
0.0
30
0.0
0
VERTEX
8
0
10
801.0
20
21136.0
0
VERTEX
8
0
10
801.0
20
21137.0
0
VERTEX
8
0
10
801.7000000000007
20
21137.0
0
VERTEX
8
0
10
801.7000000000007
20
21136.0
0
VERTEX
8
0
10
801.0
20
21136.0
0
SEQEND
0
POLYLINE
8
0
66
1
10
0.0
20
0.0
30
0.0
0
VERTEX
8
0
10
799.0
20
21137.0
0
VERTEX
8
0
10
799.0
20
21138.5
0
VERTEX
8
0
10
798.7999999999993
20
21138.5
0
VERTEX
8
0
10
798.7999999999993
20
21137.0
0
VERTEX
8
0
10
799.0
20
21137.0
0
SEQEND
0
POLYLINE
8
0
66
1
10
0.0
20
0.0
30
0.0
0
VERTEX
8
0
10
801.0
20
21137.0
0
VERTEX
8
0
10
801.0
20
21138.5
0
VERTEX
8
0
10
801.2000000000007
20
21138.5
0
VERTEX
8
0
10
801.2000000000007
20
21137.0
0
VERTEX
8
0
10
801.0
20
21137.0
0
SEQEND
0
POLYLINE
8
0
66
1
10
0.0
20
0.0
30
0.0
0
VERTEX
8
0
10
799.0
20
21138.5
0
VERTEX
8
0
10
799.5499999999993
20
21143.5
0
VERTEX
8
0
10
799.3499999999985
20
21143.5
0
VERTEX
8
0
10
798.7999999999993
20
21138.5
0
VERTEX
8
0
10
799.0
20
21138.5
0
SEQEND
0
POLYLINE
8
0
66
1
10
0.0
20
0.0
30
0.0
0
VERTEX
8
0
10
801.0
20
21138.5
0
VERTEX
8
0
10
800.4500000000007
20
21143.5
0
VERTEX
8
0
10
800.6500000000015
20
21143.5
0
VERTEX
8
0
10
801.2000000000007
20
21138.5
0
VERTEX
8
0
10
801.0
20
21138.5
0
SEQEND
0
POLYLINE
8
0
66
1
10
0.0
20
0.0
30
0.0
0
VERTEX
8
0
10
799.5499999999993
20
21143.5
0
VERTEX
8
0
10
799.5499999999993
20
21146.0
0
VERTEX
8
0
10
799.3499999999985
20
21146.0
0
VERTEX
8
0
10
799.3499999999985
20
21143.5
0
VERTEX
8
0
10
799.5499999999993
20
21143.5
0
SEQEND
0
POLYLINE
8
0
66
1
10
0.0
20
0.0
30
0.0
0
VERTEX
8
0
10
800.4500000000007
20
21143.5
0
VERTEX
8
0
10
800.4500000000007
20
21146.0
0
VERTEX
8
0
10
800.6500000000015
20
21146.0
0
VERTEX
8
0
10
800.6500000000015
20
21143.5
0
VERTEX
8
0
10
800.4500000000007
20
21143.5
0
SEQEND
0
POLYLINE
8
0
66
1
10
0.0
20
0.0
30
0.0
0
VERTEX
8
0
10
801.2000000000007
20
21146.0
0
VERTEX
8
0
10
801.2000000000007
20
21146.15
0
VERTEX
8
0
10
798.7999999999993
20
21146.15
0
VERTEX
8
0
10
798.7999999999993
20
21146.0
0
VERTEX
8
0
10
801.2000000000007
20
21146.0
0
SEQEND
0
POLYLINE
8
0
66
1
10
0.0
20
0.0
30
0.0
0
VERTEX
8
0
10
799.0
20
21146.15
0
VERTEX
8
0
10
799.0
20
21153.15
0
VERTEX
8
0
10
798.7999999999993
20
21153.15
0
VERTEX
8
0
10
798.7999999999993
20
21146.15
0
VERTEX
8
0
10
799.0
20
21146.15
0
SEQEND
0
POLYLINE
8
0
66
1
10
0.0
20
0.0
30
0.0
0
VERTEX
8
0
10
801.0
20
21146.15
0
VERTEX
8
0
10
801.0
20
21153.15
0
VERTEX
8
0
10
801.2000000000007
20
21153.15
0
VERTEX
8
0
10
801.2000000000007
20
21146.15
0
VERTEX
8
0
10
801.0
20
21146.15
0
SEQEND
0
POLYLINE
8
0
66
1
10
0.0
20
0.0
30
0.0
0
VERTEX
8
0
10
799.0
20
21153.15
0
VERTEX
8
0
10
799.0
20
21154.15
0
VERTEX
8
0
10
798.2999999999993
20
21154.15
0
VERTEX
8
0
10
798.2999999999993
20
21153.15
0
VERTEX
8
0
10
799.0
20
21153.15
0
SEQEND
0
POLYLINE
8
0
66
1
10
0.0
20
0.0
30
0.0
0
VERTEX
8
0
10
801.0
20
21153.15
0
VERTEX
8
0
10
801.0
20
21154.15
0
VERTEX
8
0
10
801.7000000000007
20
21154.15
0
VERTEX
8
0
10
801.7000000000007
20
21153.15
0
VERTEX
8
0
10
801.0
20
21153.15
0
SEQEND
0
POLYLINE
8
0
66
1
10
0.0
20
0.0
30
0.0
0
VERTEX
8
0
10
799.0
20
21154.15
0
VERTEX
8
0
10
790.0
20
21159.15
0
VERTEX
8
0
10
789.2999999999993
20
21159.15
0
VERTEX
8
0
10
798.2999999999993
20
21154.15
0
VERTEX
8
0
10
799.0
20
21154.15
0
SEQEND
0
POLYLINE
8
0
66
1
10
0.0
20
0.0
30
0.0
0
VERTEX
8
0
10
801.0
20
21154.15
0
VERTEX
8
0
10
810.0
20
21159.15
0
VERTEX
8
0
10
810.7000000000007
20
21159.15
0
VERTEX
8
0
10
801.7000000000007
20
21154.15
0
VERTEX
8
0
10
801.0
20
21154.15
0
SEQEND
0
POLYLINE
8
0
66
1
10
0.0
20
0.0
30
0.0
0
VERTEX
8
0
10
790.0
20
21159.15
0
VERTEX
8
0
10
790.0
20
21176.15
0
VERTEX
8
0
10
789.2999999999993
20
21176.15
0
VERTEX
8
0
10
789.2999999999993
20
21159.15
0
VERTEX
8
0
10
790.0
20
21159.15
0
SEQEND
0
POLYLINE
8
0
66
1
10
0.0
20
0.0
30
0.0
0
VERTEX
8
0
10
810.0
20
21159.15
0
VERTEX
8
0
10
810.0
20
21176.15
0
VERTEX
8
0
10
810.7000000000007
20
21176.15
0
VERTEX
8
0
10
810.7000000000007
20
21159.15
0
VERTEX
8
0
10
810.0
20
21159.15
0
SEQEND
0
POLYLINE
8
0
66
1
10
0.0
20
0.0
30
0.0
0
VERTEX
8
0
10
810.7000000000007
20
21176.15
0
VERTEX
8
0
10
810.7000000000007
20
21176.850000000002
0
VERTEX
8
0
10
789.2999999999993
20
21176.850000000002
0
VERTEX
8
0
10
789.2999999999993
20
21176.15
0
VERTEX
8
0
10
810.7000000000007
20
21176.15
0
SEQEND
0
POLYLINE
8
0
66
1
10
0.0
20
0.0
30
0.0
0
VERTEX
8
0
10
810.6999999999998
20
2253.3
0
VERTEX
8
0
10
810.6999999999998
20
2254.0
0
VERTEX
8
0
10
789.3000000000002
20
2254.0
0
VERTEX
8
0
10
789.3000000000002
20
2253.3
0
VERTEX
8
0
10
810.6999999999998
20
2253.3
0
SEQEND
0
POLYLINE
8
0
66
1
10
0.0
20
0.0
30
0.0
0
VERTEX
8
0
10
790.0
20
2254.0
0
VERTEX
8
0
10
790.0
20
2271.0
0
VERTEX
8
0
10
789.3000000000002
20
2271.0
0
VERTEX
8
0
10
789.3000000000002
20
2254.0
0
VERTEX
8
0
10
790.0
20
2254.0
0
SEQEND
0
POLYLINE
8
0
66
1
10
0.0
20
0.0
30
0.0
0
VERTEX
8
0
10
810.0
20
2254.0
0
VERTEX
8
0
10
810.0
20
2271.0
0
VERTEX
8
0
10
810.6999999999998
20
2271.0
0
VERTEX
8
0
10
810.6999999999998
20
2254.0
0
VERTEX
8
0
10
810.0
20
2254.0
0
SEQEND
0
POLYLINE
8
0
66
1
10
0.0
20
0.0
30
0.0
0
VERTEX
8
0
10
790.0
20
2271.0
0
VERTEX
8
0
10
799.0
20
2276.0
0
VERTEX
8
0
10
798.3000000000002
20
2276.0
0
VERTEX
8
0
10
789.3000000000002
20
2271.0
0
VERTEX
8
0
10
790.0
20
2271.0
0
SEQEND
0
POLYLINE
8
0
66
1
10
0.0
20
0.0
30
0.0
0
VERTEX
8
0
10
810.0
20
2271.0
0
VERTEX
8
0
10
801.0
20
2276.0
0
VERTEX
8
0
10
801.6999999999998
20
2276.0
0
VERTEX
8
0
10
810.6999999999998
20
2271.0
0
VERTEX
8
0
10
810.0
20
2271.0
0
SEQEND
0
POLYLINE
8
0
66
1
10
0.0
20
0.0
30
0.0
0
VERTEX
8
0
10
799.0
20
2276.0
0
VERTEX
8
0
10
799.0
20
2277.0
0
VERTEX
8
0
10
798.3000000000002
20
2277.0
0
VERTEX
8
0
10
798.3000000000002
20
2276.0
0
VERTEX
8
0
10
799.0
20
2276.0
0
SEQEND
0
POLYLINE
8
0
66
1
10
0.0
20
0.0
30
0.0
0
VERTEX
8
0
10
801.0
20
2276.0
0
VERTEX
8
0
10
801.0
20
2277.0
0
VERTEX
8
0
10
801.6999999999998
20
2277.0
0
VERTEX
8
0
10
801.6999999999998
20
2276.0
0
VERTEX
8
0
10
801.0
20
2276.0
0
SEQEND
0
POLYLINE
8
0
66
1
10
0.0
20
0.0
30
0.0
0
VERTEX
8
0
10
799.0
20
2277.0
0
VERTEX
8
0
10
799.0
20
2278.5
0
VERTEX
8
0
10
798.8000000000002
20
2278.5
0
VERTEX
8
0
10
798.8000000000002
20
2277.0
0
VERTEX
8
0
10
799.0
20
2277.0
0
SEQEND
0
POLYLINE
8
0
66
1
10
0.0
20
0.0
30
0.0
0
VERTEX
8
0
10
801.0
20
2277.0
0
VERTEX
8
0
10
801.0
20
2278.5
0
VERTEX
8
0
10
801.1999999999998
20
2278.5
0
VERTEX
8
0
10
801.1999999999998
20
2277.0
0
VERTEX
8
0
10
801.0
20
2277.0
0
SEQEND
0
POLYLINE
8
0
66
1
10
0.0
20
0.0
30
0.0
0
VERTEX
8
0
10
799.0
20
2278.5
0
VERTEX
8
0
10
799.5500000000002
20
2283.5
0
VERTEX
8
0
10
799.3500000000004
20
2283.5
0
VERTEX
8
0
10
798.8000000000002
20
2278.5
0
VERTEX
8
0
10
799.0
20
2278.5
0
SEQEND
0
POLYLINE
8
0
66
1
10
0.0
20
0.0
30
0.0
0
VERTEX
8
0
10
801.0
20
2278.5
0
VERTEX
8
0
10
800.4499999999998
20
2283.5
0
VERTEX
8
0
10
800.6499999999996
20
2283.5
0
VERTEX
8
0
10
801.1999999999998
20
2278.5
0
VERTEX
8
0
10
801.0
20
2278.5
0
SEQEND
0
POLYLINE
8
0
66
1
10
0.0
20
0.0
30
0.0
0
VERTEX
8
0
10
799.5500000000002
20
2283.5
0
VERTEX
8
0
10
799.5500000000002
20
2286.0
0
VERTEX
8
0
10
799.3500000000004
20
2286.0
0
VERTEX
8
0
10
799.3500000000004
20
2283.5
0
VERTEX
8
0
10
799.5500000000002
20
2283.5
0
SEQEND
0
POLYLINE
8
0
66
1
10
0.0
20
0.0
30
0.0
0
VERTEX
8
0
10
800.4499999999998
20
2283.5
0
VERTEX
8
0
10
800.4499999999998
20
2286.0
0
VERTEX
8
0
10
800.6499999999996
20
2286.0
0
VERTEX
8
0
10
800.6499999999996
20
2283.5
0
VERTEX
8
0
10
800.4499999999998
20
2283.5
0
SEQEND
0
POLYLINE
8
0
66
1
10
0.0
20
0.0
30
0.0
0
VERTEX
8
0
10
801.1999999999998
20
2286.0
0
VERTEX
8
0
10
801.1999999999998
20
2286.15
0
VERTEX
8
0
10
798.8000000000002
20
2286.15
0
VERTEX
8
0
10
798.8000000000002
20
2286.0
0
VERTEX
8
0
10
801.1999999999998
20
2286.0
0
SEQEND
0
POLYLINE
8
0
66
1
10
0.0
20
0.0
30
0.0
0
VERTEX
8
0
10
799.0
20
2286.15
0
VERTEX
8
0
10
799.0
20
2293.15
0
VERTEX
8
0
10
798.8000000000002
20
2293.15
0
VERTEX
8
0
10
798.8000000000002
20
2286.15
0
VERTEX
8
0
10
799.0
20
2286.15
0
SEQEND
0
POLYLINE
8
0
66
1
10
0.0
20
0.0
30
0.0
0
VERTEX
8
0
10
801.0
20
2286.15
0
VERTEX
8
0
10
801.0
20
2293.15
0
VERTEX
8
0
10
801.1999999999998
20
2293.15
0
VERTEX
8
0
10
801.1999999999998
20
2286.15
0
VERTEX
8
0
10
801.0
20
2286.15
0
SEQEND
0
POLYLINE
8
0
66
1
10
0.0
20
0.0
30
0.0
0
VERTEX
8
0
10
799.0
20
2293.15
0
VERTEX
8
0
10
799.0
20
2294.15
0
VERTEX
8
0
10
798.3000000000002
20
2294.15
0
VERTEX
8
0
10
798.3000000000002
20
2293.15
0
VERTEX
8
0
10
799.0
20
2293.15
0
SEQEND
0
POLYLINE
8
0
66
1
10
0.0
20
0.0
30
0.0
0
VERTEX
8
0
10
801.0
20
2293.15
0
VERTEX
8
0
10
801.0
20
2294.15
0
VERTEX
8
0
10
801.6999999999998
20
2294.15
0
VERTEX
8
0
10
801.6999999999998
20
2293.15
0
VERTEX
8
0
10
801.0
20
2293.15
0
SEQEND
0
POLYLINE
8
0
66
1
10
0.0
20
0.0
30
0.0
0
VERTEX
8
0
10
799.0
20
2294.15
0
VERTEX
8
0
10
790.0
20
2299.15
0
VERTEX
8
0
10
789.3000000000002
20
2299.15
0
VERTEX
8
0
10
798.3000000000002
20
2294.15
0
VERTEX
8
0
10
799.0
20
2294.15
0
SEQEND
0
POLYLINE
8
0
66
1
10
0.0
20
0.0
30
0.0
0
VERTEX
8
0
10
801.0
20
2294.15
0
VERTEX
8
0
10
810.0
20
2299.15
0
VERTEX
8
0
10
810.6999999999998
20
2299.15
0
VERTEX
8
0
10
801.6999999999998
20
2294.15
0
VERTEX
8
0
10
801.0
20
2294.15
0
SEQEND
0
POLYLINE
8
0
66
1
10
0.0
20
0.0
30
0.0
0
VERTEX
8
0
10
790.0
20
2299.15
0
VERTEX
8
0
10
790.0
20
2316.15
0
VERTEX
8
0
10
789.3000000000002
20
2316.15
0
VERTEX
8
0
10
789.3000000000002
20
2299.15
0
VERTEX
8
0
10
790.0
20
2299.15
0
SEQEND
0
POLYLINE
8
0
66
1
10
0.0
20
0.0
30
0.0
0
VERTEX
8
0
10
810.0
20
2299.15
0
VERTEX
8
0
10
810.0
20
2316.15
0
VERTEX
8
0
10
810.6999999999998
20
2316.15
0
VERTEX
8
0
10
810.6999999999998
20
2299.15
0
VERTEX
8
0
10
810.0
20
2299.15
0
SEQEND
0
POLYLINE
8
0
66
1
10
0.0
20
0.0
30
0.0
0
VERTEX
8
0
10
810.6999999999998
20
2316.15
0
VERTEX
8
0
10
810.6999999999998
20
2316.8500000000004
0
VERTEX
8
0
10
789.3000000000002
20
2316.8500000000004
0
VERTEX
8
0
10
789.3000000000002
20
2316.15
0
VERTEX
8
0
10
810.6999999999998
20
2316.15
0
SEQEND
0
POLYLINE
8
0
66
1
10
0.0
20
0.0
30
0.0
0
VERTEX
8
0
10
810.6999999999998
20
4753.3
0
VERTEX
8
0
10
810.6999999999998
20
4754.0
0
VERTEX
8
0
10
789.3000000000002
20
4754.0
0
VERTEX
8
0
10
789.3000000000002
20
4753.3
0
VERTEX
8
0
10
810.6999999999998
20
4753.3
0
SEQEND
0
POLYLINE
8
0
66
1
10
0.0
20
0.0
30
0.0
0
VERTEX
8
0
10
790.0
20
4754.0
0
VERTEX
8
0
10
790.0
20
4771.0
0
VERTEX
8
0
10
789.3000000000002
20
4771.0
0
VERTEX
8
0
10
789.3000000000002
20
4754.0
0
VERTEX
8
0
10
790.0
20
4754.0
0
SEQEND
0
POLYLINE
8
0
66
1
10
0.0
20
0.0
30
0.0
0
VERTEX
8
0
10
810.0
20
4754.0
0
VERTEX
8
0
10
810.0
20
4771.0
0
VERTEX
8
0
10
810.6999999999998
20
4771.0
0
VERTEX
8
0
10
810.6999999999998
20
4754.0
0
VERTEX
8
0
10
810.0
20
4754.0
0
SEQEND
0
POLYLINE
8
0
66
1
10
0.0
20
0.0
30
0.0
0
VERTEX
8
0
10
790.0
20
4771.0
0
VERTEX
8
0
10
799.0
20
4776.0
0
VERTEX
8
0
10
798.3000000000002
20
4776.0
0
VERTEX
8
0
10
789.3000000000002
20
4771.0
0
VERTEX
8
0
10
790.0
20
4771.0
0
SEQEND
0
POLYLINE
8
0
66
1
10
0.0
20
0.0
30
0.0
0
VERTEX
8
0
10
810.0
20
4771.0
0
VERTEX
8
0
10
801.0
20
4776.0
0
VERTEX
8
0
10
801.6999999999998
20
4776.0
0
VERTEX
8
0
10
810.6999999999998
20
4771.0
0
VERTEX
8
0
10
810.0
20
4771.0
0
SEQEND
0
POLYLINE
8
0
66
1
10
0.0
20
0.0
30
0.0
0
VERTEX
8
0
10
799.0
20
4776.0
0
VERTEX
8
0
10
799.0
20
4777.0
0
VERTEX
8
0
10
798.3000000000002
20
4777.0
0
VERTEX
8
0
10
798.3000000000002
20
4776.0
0
VERTEX
8
0
10
799.0
20
4776.0
0
SEQEND
0
POLYLINE
8
0
66
1
10
0.0
20
0.0
30
0.0
0
VERTEX
8
0
10
801.0
20
4776.0
0
VERTEX
8
0
10
801.0
20
4777.0
0
VERTEX
8
0
10
801.6999999999998
20
4777.0
0
VERTEX
8
0
10
801.6999999999998
20
4776.0
0
VERTEX
8
0
10
801.0
20
4776.0
0
SEQEND
0
POLYLINE
8
0
66
1
10
0.0
20
0.0
30
0.0
0
VERTEX
8
0
10
799.0
20
4777.0
0
VERTEX
8
0
10
799.0
20
4778.5
0
VERTEX
8
0
10
798.8000000000002
20
4778.5
0
VERTEX
8
0
10
798.8000000000002
20
4777.0
0
VERTEX
8
0
10
799.0
20
4777.0
0
SEQEND
0
POLYLINE
8
0
66
1
10
0.0
20
0.0
30
0.0
0
VERTEX
8
0
10
801.0
20
4777.0
0
VERTEX
8
0
10
801.0
20
4778.5
0
VERTEX
8
0
10
801.1999999999998
20
4778.5
0
VERTEX
8
0
10
801.1999999999998
20
4777.0
0
VERTEX
8
0
10
801.0
20
4777.0
0
SEQEND
0
POLYLINE
8
0
66
1
10
0.0
20
0.0
30
0.0
0
VERTEX
8
0
10
799.0
20
4778.5
0
VERTEX
8
0
10
799.5500000000002
20
4783.5
0
VERTEX
8
0
10
799.3500000000004
20
4783.5
0
VERTEX
8
0
10
798.8000000000002
20
4778.5
0
VERTEX
8
0
10
799.0
20
4778.5
0
SEQEND
0
POLYLINE
8
0
66
1
10
0.0
20
0.0
30
0.0
0
VERTEX
8
0
10
801.0
20
4778.5
0
VERTEX
8
0
10
800.4499999999998
20
4783.5
0
VERTEX
8
0
10
800.6499999999996
20
4783.5
0
VERTEX
8
0
10
801.1999999999998
20
4778.5
0
VERTEX
8
0
10
801.0
20
4778.5
0
SEQEND
0
POLYLINE
8
0
66
1
10
0.0
20
0.0
30
0.0
0
VERTEX
8
0
10
799.5500000000002
20
4783.5
0
VERTEX
8
0
10
799.5500000000002
20
4786.0
0
VERTEX
8
0
10
799.3500000000004
20
4786.0
0
VERTEX
8
0
10
799.3500000000004
20
4783.5
0
VERTEX
8
0
10
799.5500000000002
20
4783.5
0
SEQEND
0
POLYLINE
8
0
66
1
10
0.0
20
0.0
30
0.0
0
VERTEX
8
0
10
800.4499999999998
20
4783.5
0
VERTEX
8
0
10
800.4499999999998
20
4786.0
0
VERTEX
8
0
10
800.6499999999996
20
4786.0
0
VERTEX
8
0
10
800.6499999999996
20
4783.5
0
VERTEX
8
0
10
800.4499999999998
20
4783.5
0
SEQEND
0
POLYLINE
8
0
66
1
10
0.0
20
0.0
30
0.0
0
VERTEX
8
0
10
801.1999999999998
20
4786.0
0
VERTEX
8
0
10
801.1999999999998
20
4786.15
0
VERTEX
8
0
10
798.8000000000002
20
4786.15
0
VERTEX
8
0
10
798.8000000000002
20
4786.0
0
VERTEX
8
0
10
801.1999999999998
20
4786.0
0
SEQEND
0
POLYLINE
8
0
66
1
10
0.0
20
0.0
30
0.0
0
VERTEX
8
0
10
799.0
20
4786.15
0
VERTEX
8
0
10
799.0
20
4793.15
0
VERTEX
8
0
10
798.8000000000002
20
4793.15
0
VERTEX
8
0
10
798.8000000000002
20
4786.15
0
VERTEX
8
0
10
799.0
20
4786.15
0
SEQEND
0
POLYLINE
8
0
66
1
10
0.0
20
0.0
30
0.0
0
VERTEX
8
0
10
801.0
20
4786.15
0
VERTEX
8
0
10
801.0
20
4793.15
0
VERTEX
8
0
10
801.1999999999998
20
4793.15
0
VERTEX
8
0
10
801.1999999999998
20
4786.15
0
VERTEX
8
0
10
801.0
20
4786.15
0
SEQEND
0
POLYLINE
8
0
66
1
10
0.0
20
0.0
30
0.0
0
VERTEX
8
0
10
799.0
20
4793.15
0
VERTEX
8
0
10
799.0
20
4794.15
0
VERTEX
8
0
10
798.3000000000002
20
4794.15
0
VERTEX
8
0
10
798.3000000000002
20
4793.15
0
VERTEX
8
0
10
799.0
20
4793.15
0
SEQEND
0
POLYLINE
8
0
66
1
10
0.0
20
0.0
30
0.0
0
VERTEX
8
0
10
801.0
20
4793.15
0
VERTEX
8
0
10
801.0
20
4794.15
0
VERTEX
8
0
10
801.6999999999998
20
4794.15
0
VERTEX
8
0
10
801.6999999999998
20
4793.15
0
VERTEX
8
0
10
801.0
20
4793.15
0
SEQEND
0
POLYLINE
8
0
66
1
10
0.0
20
0.0
30
0.0
0
VERTEX
8
0
10
799.0
20
4794.15
0
VERTEX
8
0
10
790.0
20
4799.15
0
VERTEX
8
0
10
789.3000000000002
20
4799.15
0
VERTEX
8
0
10
798.3000000000002
20
4794.15
0
VERTEX
8
0
10
799.0
20
4794.15
0
SEQEND
0
POLYLINE
8
0
66
1
10
0.0
20
0.0
30
0.0
0
VERTEX
8
0
10
801.0
20
4794.15
0
VERTEX
8
0
10
810.0
20
4799.15
0
VERTEX
8
0
10
810.6999999999998
20
4799.15
0
VERTEX
8
0
10
801.6999999999998
20
4794.15
0
VERTEX
8
0
10
801.0
20
4794.15
0
SEQEND
0
POLYLINE
8
0
66
1
10
0.0
20
0.0
30
0.0
0
VERTEX
8
0
10
790.0
20
4799.15
0
VERTEX
8
0
10
790.0
20
4816.15
0
VERTEX
8
0
10
789.3000000000002
20
4816.15
0
VERTEX
8
0
10
789.3000000000002
20
4799.15
0
VERTEX
8
0
10
790.0
20
4799.15
0
SEQEND
0
POLYLINE
8
0
66
1
10
0.0
20
0.0
30
0.0
0
VERTEX
8
0
10
810.0
20
4799.15
0
VERTEX
8
0
10
810.0
20
4816.15
0
VERTEX
8
0
10
810.6999999999998
20
4816.15
0
VERTEX
8
0
10
810.6999999999998
20
4799.15
0
VERTEX
8
0
10
810.0
20
4799.15
0
SEQEND
0
POLYLINE
8
0
66
1
10
0.0
20
0.0
30
0.0
0
VERTEX
8
0
10
810.6999999999998
20
4816.15
0
VERTEX
8
0
10
810.6999999999998
20
4816.849999999999
0
VERTEX
8
0
10
789.3000000000002
20
4816.849999999999
0
VERTEX
8
0
10
789.3000000000002
20
4816.15
0
VERTEX
8
0
10
810.6999999999998
20
4816.15
0
SEQEND
0
POLYLINE
8
0
66
1
10
0.0
20
0.0
30
0.0
0
VERTEX
8
0
10
810.6999999999998
20
7253.3
0
VERTEX
8
0
10
810.6999999999998
20
7254.0
0
VERTEX
8
0
10
789.3000000000002
20
7254.0
0
VERTEX
8
0
10
789.3000000000002
20
7253.3
0
VERTEX
8
0
10
810.6999999999998
20
7253.3
0
SEQEND
0
POLYLINE
8
0
66
1
10
0.0
20
0.0
30
0.0
0
VERTEX
8
0
10
790.0
20
7254.0
0
VERTEX
8
0
10
790.0
20
7271.0
0
VERTEX
8
0
10
789.3000000000002
20
7271.0
0
VERTEX
8
0
10
789.3000000000002
20
7254.0
0
VERTEX
8
0
10
790.0
20
7254.0
0
SEQEND
0
POLYLINE
8
0
66
1
10
0.0
20
0.0
30
0.0
0
VERTEX
8
0
10
810.0
20
7254.0
0
VERTEX
8
0
10
810.0
20
7271.0
0
VERTEX
8
0
10
810.6999999999998
20
7271.0
0
VERTEX
8
0
10
810.6999999999998
20
7254.0
0
VERTEX
8
0
10
810.0
20
7254.0
0
SEQEND
0
POLYLINE
8
0
66
1
10
0.0
20
0.0
30
0.0
0
VERTEX
8
0
10
790.0
20
7271.0
0
VERTEX
8
0
10
799.0
20
7276.0
0
VERTEX
8
0
10
798.3000000000002
20
7276.0
0
VERTEX
8
0
10
789.3000000000002
20
7271.0
0
VERTEX
8
0
10
790.0
20
7271.0
0
SEQEND
0
POLYLINE
8
0
66
1
10
0.0
20
0.0
30
0.0
0
VERTEX
8
0
10
810.0
20
7271.0
0
VERTEX
8
0
10
801.0
20
7276.0
0
VERTEX
8
0
10
801.6999999999998
20
7276.0
0
VERTEX
8
0
10
810.6999999999998
20
7271.0
0
VERTEX
8
0
10
810.0
20
7271.0
0
SEQEND
0
POLYLINE
8
0
66
1
10
0.0
20
0.0
30
0.0
0
VERTEX
8
0
10
799.0
20
7276.0
0
VERTEX
8
0
10
799.0
20
7277.0
0
VERTEX
8
0
10
798.3000000000002
20
7277.0
0
VERTEX
8
0
10
798.3000000000002
20
7276.0
0
VERTEX
8
0
10
799.0
20
7276.0
0
SEQEND
0
POLYLINE
8
0
66
1
10
0.0
20
0.0
30
0.0
0
VERTEX
8
0
10
801.0
20
7276.0
0
VERTEX
8
0
10
801.0
20
7277.0
0
VERTEX
8
0
10
801.6999999999998
20
7277.0
0
VERTEX
8
0
10
801.6999999999998
20
7276.0
0
VERTEX
8
0
10
801.0
20
7276.0
0
SEQEND
0
POLYLINE
8
0
66
1
10
0.0
20
0.0
30
0.0
0
VERTEX
8
0
10
799.0
20
7277.0
0
VERTEX
8
0
10
799.0
20
7278.5
0
VERTEX
8
0
10
798.8000000000002
20
7278.5
0
VERTEX
8
0
10
798.8000000000002
20
7277.0
0
VERTEX
8
0
10
799.0
20
7277.0
0
SEQEND
0
POLYLINE
8
0
66
1
10
0.0
20
0.0
30
0.0
0
VERTEX
8
0
10
801.0
20
7277.0
0
VERTEX
8
0
10
801.0
20
7278.5
0
VERTEX
8
0
10
801.1999999999998
20
7278.5
0
VERTEX
8
0
10
801.1999999999998
20
7277.0
0
VERTEX
8
0
10
801.0
20
7277.0
0
SEQEND
0
POLYLINE
8
0
66
1
10
0.0
20
0.0
30
0.0
0
VERTEX
8
0
10
799.0
20
7278.5
0
VERTEX
8
0
10
799.5500000000002
20
7283.5
0
VERTEX
8
0
10
799.3500000000004
20
7283.5
0
VERTEX
8
0
10
798.8000000000002
20
7278.5
0
VERTEX
8
0
10
799.0
20
7278.5
0
SEQEND
0
POLYLINE
8
0
66
1
10
0.0
20
0.0
30
0.0
0
VERTEX
8
0
10
801.0
20
7278.5
0
VERTEX
8
0
10
800.4499999999998
20
7283.5
0
VERTEX
8
0
10
800.6499999999996
20
7283.5
0
VERTEX
8
0
10
801.1999999999998
20
7278.5
0
VERTEX
8
0
10
801.0
20
7278.5
0
SEQEND
0
POLYLINE
8
0
66
1
10
0.0
20
0.0
30
0.0
0
VERTEX
8
0
10
799.5500000000002
20
7283.5
0
VERTEX
8
0
10
799.5500000000002
20
7286.0
0
VERTEX
8
0
10
799.3500000000004
20
7286.0
0
VERTEX
8
0
10
799.3500000000004
20
7283.5
0
VERTEX
8
0
10
799.5500000000002
20
7283.5
0
SEQEND
0
POLYLINE
8
0
66
1
10
0.0
20
0.0
30
0.0
0
VERTEX
8
0
10
800.4499999999998
20
7283.5
0
VERTEX
8
0
10
800.4499999999998
20
7286.0
0
VERTEX
8
0
10
800.6499999999996
20
7286.0
0
VERTEX
8
0
10
800.6499999999996
20
7283.5
0
VERTEX
8
0
10
800.4499999999998
20
7283.5
0
SEQEND
0
POLYLINE
8
0
66
1
10
0.0
20
0.0
30
0.0
0
VERTEX
8
0
10
801.1999999999998
20
7286.0
0
VERTEX
8
0
10
801.1999999999998
20
7286.15
0
VERTEX
8
0
10
798.8000000000002
20
7286.15
0
VERTEX
8
0
10
798.8000000000002
20
7286.0
0
VERTEX
8
0
10
801.1999999999998
20
7286.0
0
SEQEND
0
POLYLINE
8
0
66
1
10
0.0
20
0.0
30
0.0
0
VERTEX
8
0
10
799.0
20
7286.15
0
VERTEX
8
0
10
799.0
20
7293.15
0
VERTEX
8
0
10
798.8000000000002
20
7293.15
0
VERTEX
8
0
10
798.8000000000002
20
7286.15
0
VERTEX
8
0
10
799.0
20
7286.15
0
SEQEND
0
POLYLINE
8
0
66
1
10
0.0
20
0.0
30
0.0
0
VERTEX
8
0
10
801.0
20
7286.15
0
VERTEX
8
0
10
801.0
20
7293.15
0
VERTEX
8
0
10
801.1999999999998
20
7293.15
0
VERTEX
8
0
10
801.1999999999998
20
7286.15
0
VERTEX
8
0
10
801.0
20
7286.15
0
SEQEND
0
POLYLINE
8
0
66
1
10
0.0
20
0.0
30
0.0
0
VERTEX
8
0
10
799.0
20
7293.15
0
VERTEX
8
0
10
799.0
20
7294.15
0
VERTEX
8
0
10
798.3000000000002
20
7294.15
0
VERTEX
8
0
10
798.3000000000002
20
7293.15
0
VERTEX
8
0
10
799.0
20
7293.15
0
SEQEND
0
POLYLINE
8
0
66
1
10
0.0
20
0.0
30
0.0
0
VERTEX
8
0
10
801.0
20
7293.15
0
VERTEX
8
0
10
801.0
20
7294.15
0
VERTEX
8
0
10
801.6999999999998
20
7294.15
0
VERTEX
8
0
10
801.6999999999998
20
7293.15
0
VERTEX
8
0
10
801.0
20
7293.15
0
SEQEND
0
POLYLINE
8
0
66
1
10
0.0
20
0.0
30
0.0
0
VERTEX
8
0
10
799.0
20
7294.15
0
VERTEX
8
0
10
790.0
20
7299.15
0
VERTEX
8
0
10
789.3000000000002
20
7299.15
0
VERTEX
8
0
10
798.3000000000002
20
7294.15
0
VERTEX
8
0
10
799.0
20
7294.15
0
SEQEND
0
POLYLINE
8
0
66
1
10
0.0
20
0.0
30
0.0
0
VERTEX
8
0
10
801.0
20
7294.15
0
VERTEX
8
0
10
810.0
20
7299.15
0
VERTEX
8
0
10
810.6999999999998
20
7299.15
0
VERTEX
8
0
10
801.6999999999998
20
7294.15
0
VERTEX
8
0
10
801.0
20
7294.15
0
SEQEND
0
POLYLINE
8
0
66
1
10
0.0
20
0.0
30
0.0
0
VERTEX
8
0
10
790.0
20
7299.15
0
VERTEX
8
0
10
790.0
20
7316.15
0
VERTEX
8
0
10
789.3000000000002
20
7316.15
0
VERTEX
8
0
10
789.3000000000002
20
7299.15
0
VERTEX
8
0
10
790.0
20
7299.15
0
SEQEND
0
POLYLINE
8
0
66
1
10
0.0
20
0.0
30
0.0
0
VERTEX
8
0
10
810.0
20
7299.15
0
VERTEX
8
0
10
810.0
20
7316.15
0
VERTEX
8
0
10
810.6999999999998
20
7316.15
0
VERTEX
8
0
10
810.6999999999998
20
7299.15
0
VERTEX
8
0
10
810.0
20
7299.15
0
SEQEND
0
POLYLINE
8
0
66
1
10
0.0
20
0.0
30
0.0
0
VERTEX
8
0
10
810.6999999999998
20
7316.15
0
VERTEX
8
0
10
810.6999999999998
20
7316.849999999999
0
VERTEX
8
0
10
789.3000000000002
20
7316.849999999999
0
VERTEX
8
0
10
789.3000000000002
20
7316.15
0
VERTEX
8
0
10
810.6999999999998
20
7316.15
0
SEQEND
0
ENDBLK
0
BLOCK
8
PIN
2
Q24PIN
70
0
10
0
20
0
30
0
3
Q24PIN
0
POLYLINE
8
0
66
1
10
0.0
20
0.0
30
0.0
0
VERTEX
8
0
10
810.0
20
21114.0
0
VERTEX
8
0
10
810.0
20
21131.0
0
VERTEX
8
0
10
790.0
20
21131.0
0
VERTEX
8
0
10
790.0
20
21114.0
0
VERTEX
8
0
10
810.0
20
21114.0
0
SEQEND
0
POLYLINE
8
0
66
1
10
0.0
20
0.0
30
0.0
0
VERTEX
8
0
10
800.0
20
21131.0
0
VERTEX
8
0
10
800.0
20
21136.0
0
VERTEX
8
0
10
799.0
20
21136.0
0
VERTEX
8
0
10
790.0
20
21131.0
0
VERTEX
8
0
10
800.0
20
21131.0
0
SEQEND
0
POLYLINE
8
0
66
1
10
0.0
20
0.0
30
0.0
0
VERTEX
8
0
10
800.0
20
21131.0
0
VERTEX
8
0
10
800.0
20
21136.0
0
VERTEX
8
0
10
801.0
20
21136.0
0
VERTEX
8
0
10
810.0
20
21131.0
0
VERTEX
8
0
10
800.0
20
21131.0
0
SEQEND
0
POLYLINE
8
0
66
1
10
0.0
20
0.0
30
0.0
0
VERTEX
8
0
10
801.0
20
21136.0
0
VERTEX
8
0
10
801.0
20
21138.5
0
VERTEX
8
0
10
799.0
20
21138.5
0
VERTEX
8
0
10
799.0
20
21136.0
0
VERTEX
8
0
10
801.0
20
21136.0
0
SEQEND
0
POLYLINE
8
0
66
1
10
0.0
20
0.0
30
0.0
0
VERTEX
8
0
10
800.0
20
21138.5
0
VERTEX
8
0
10
800.0
20
21143.5
0
VERTEX
8
0
10
799.5499999999993
20
21143.5
0
VERTEX
8
0
10
799.0
20
21138.5
0
VERTEX
8
0
10
800.0
20
21138.5
0
SEQEND
0
POLYLINE
8
0
66
1
10
0.0
20
0.0
30
0.0
0
VERTEX
8
0
10
800.0
20
21138.5
0
VERTEX
8
0
10
800.0
20
21143.5
0
VERTEX
8
0
10
800.4500000000007
20
21143.5
0
VERTEX
8
0
10
801.0
20
21138.5
0
VERTEX
8
0
10
800.0
20
21138.5
0
SEQEND
0
POLYLINE
8
0
66
1
10
0.0
20
0.0
30
0.0
0
VERTEX
8
0
10
800.4500000000007
20
21143.5
0
VERTEX
8
0
10
800.4500000000007
20
21146.0
0
VERTEX
8
0
10
799.5499999999993
20
21146.0
0
VERTEX
8
0
10
799.5499999999993
20
21143.5
0
VERTEX
8
0
10
800.4500000000007
20
21143.5
0
SEQEND
0
POLYLINE
8
0
66
1
10
0.0
20
0.0
30
0.0
0
VERTEX
8
0
10
801.0
20
21146.15
0
VERTEX
8
0
10
801.0
20
21154.15
0
VERTEX
8
0
10
799.0
20
21154.15
0
VERTEX
8
0
10
799.0
20
21146.15
0
VERTEX
8
0
10
801.0
20
21146.15
0
SEQEND
0
POLYLINE
8
0
66
1
10
0.0
20
0.0
30
0.0
0
VERTEX
8
0
10
800.0
20
21154.15
0
VERTEX
8
0
10
800.0
20
21159.15
0
VERTEX
8
0
10
790.0
20
21159.15
0
VERTEX
8
0
10
799.0
20
21154.15
0
VERTEX
8
0
10
800.0
20
21154.15
0
SEQEND
0
POLYLINE
8
0
66
1
10
0.0
20
0.0
30
0.0
0
VERTEX
8
0
10
800.0
20
21154.15
0
VERTEX
8
0
10
800.0
20
21159.15
0
VERTEX
8
0
10
810.0
20
21159.15
0
VERTEX
8
0
10
801.0
20
21154.15
0
VERTEX
8
0
10
800.0
20
21154.15
0
SEQEND
0
POLYLINE
8
0
66
1
10
0.0
20
0.0
30
0.0
0
VERTEX
8
0
10
810.0
20
21159.15
0
VERTEX
8
0
10
810.0
20
21176.15
0
VERTEX
8
0
10
790.0
20
21176.15
0
VERTEX
8
0
10
790.0
20
21159.15
0
VERTEX
8
0
10
810.0
20
21159.15
0
SEQEND
0
POLYLINE
8
0
66
1
10
0.0
20
0.0
30
0.0
0
VERTEX
8
0
10
810.0
20
2254.0
0
VERTEX
8
0
10
810.0
20
2271.0
0
VERTEX
8
0
10
790.0
20
2271.0
0
VERTEX
8
0
10
790.0
20
2254.0
0
VERTEX
8
0
10
810.0
20
2254.0
0
SEQEND
0
POLYLINE
8
0
66
1
10
0.0
20
0.0
30
0.0
0
VERTEX
8
0
10
800.0
20
2271.0
0
VERTEX
8
0
10
800.0
20
2276.0
0
VERTEX
8
0
10
799.0
20
2276.0
0
VERTEX
8
0
10
790.0
20
2271.0
0
VERTEX
8
0
10
800.0
20
2271.0
0
SEQEND
0
POLYLINE
8
0
66
1
10
0.0
20
0.0
30
0.0
0
VERTEX
8
0
10
800.0
20
2271.0
0
VERTEX
8
0
10
800.0
20
2276.0
0
VERTEX
8
0
10
801.0
20
2276.0
0
VERTEX
8
0
10
810.0
20
2271.0
0
VERTEX
8
0
10
800.0
20
2271.0
0
SEQEND
0
POLYLINE
8
0
66
1
10
0.0
20
0.0
30
0.0
0
VERTEX
8
0
10
801.0
20
2276.0
0
VERTEX
8
0
10
801.0
20
2278.5
0
VERTEX
8
0
10
799.0
20
2278.5
0
VERTEX
8
0
10
799.0
20
2276.0
0
VERTEX
8
0
10
801.0
20
2276.0
0
SEQEND
0
POLYLINE
8
0
66
1
10
0.0
20
0.0
30
0.0
0
VERTEX
8
0
10
800.0
20
2278.5
0
VERTEX
8
0
10
800.0
20
2283.5
0
VERTEX
8
0
10
799.5500000000002
20
2283.5
0
VERTEX
8
0
10
799.0
20
2278.5
0
VERTEX
8
0
10
800.0
20
2278.5
0
SEQEND
0
POLYLINE
8
0
66
1
10
0.0
20
0.0
30
0.0
0
VERTEX
8
0
10
800.0
20
2278.5
0
VERTEX
8
0
10
800.0
20
2283.5
0
VERTEX
8
0
10
800.4499999999998
20
2283.5
0
VERTEX
8
0
10
801.0
20
2278.5
0
VERTEX
8
0
10
800.0
20
2278.5
0
SEQEND
0
POLYLINE
8
0
66
1
10
0.0
20
0.0
30
0.0
0
VERTEX
8
0
10
800.4499999999998
20
2283.5
0
VERTEX
8
0
10
800.4499999999998
20
2286.0
0
VERTEX
8
0
10
799.5500000000002
20
2286.0
0
VERTEX
8
0
10
799.5500000000002
20
2283.5
0
VERTEX
8
0
10
800.4499999999998
20
2283.5
0
SEQEND
0
POLYLINE
8
0
66
1
10
0.0
20
0.0
30
0.0
0
VERTEX
8
0
10
801.0
20
2286.15
0
VERTEX
8
0
10
801.0
20
2294.15
0
VERTEX
8
0
10
799.0
20
2294.15
0
VERTEX
8
0
10
799.0
20
2286.15
0
VERTEX
8
0
10
801.0
20
2286.15
0
SEQEND
0
POLYLINE
8
0
66
1
10
0.0
20
0.0
30
0.0
0
VERTEX
8
0
10
800.0
20
2294.15
0
VERTEX
8
0
10
800.0
20
2299.15
0
VERTEX
8
0
10
790.0
20
2299.15
0
VERTEX
8
0
10
799.0
20
2294.15
0
VERTEX
8
0
10
800.0
20
2294.15
0
SEQEND
0
POLYLINE
8
0
66
1
10
0.0
20
0.0
30
0.0
0
VERTEX
8
0
10
800.0
20
2294.15
0
VERTEX
8
0
10
800.0
20
2299.15
0
VERTEX
8
0
10
810.0
20
2299.15
0
VERTEX
8
0
10
801.0
20
2294.15
0
VERTEX
8
0
10
800.0
20
2294.15
0
SEQEND
0
POLYLINE
8
0
66
1
10
0.0
20
0.0
30
0.0
0
VERTEX
8
0
10
810.0
20
2299.15
0
VERTEX
8
0
10
810.0
20
2316.15
0
VERTEX
8
0
10
790.0
20
2316.15
0
VERTEX
8
0
10
790.0
20
2299.15
0
VERTEX
8
0
10
810.0
20
2299.15
0
SEQEND
0
POLYLINE
8
0
66
1
10
0.0
20
0.0
30
0.0
0
VERTEX
8
0
10
810.0
20
4754.0
0
VERTEX
8
0
10
810.0
20
4771.0
0
VERTEX
8
0
10
790.0
20
4771.0
0
VERTEX
8
0
10
790.0
20
4754.0
0
VERTEX
8
0
10
810.0
20
4754.0
0
SEQEND
0
POLYLINE
8
0
66
1
10
0.0
20
0.0
30
0.0
0
VERTEX
8
0
10
800.0
20
4771.0
0
VERTEX
8
0
10
800.0
20
4776.0
0
VERTEX
8
0
10
799.0
20
4776.0
0
VERTEX
8
0
10
790.0
20
4771.0
0
VERTEX
8
0
10
800.0
20
4771.0
0
SEQEND
0
POLYLINE
8
0
66
1
10
0.0
20
0.0
30
0.0
0
VERTEX
8
0
10
800.0
20
4771.0
0
VERTEX
8
0
10
800.0
20
4776.0
0
VERTEX
8
0
10
801.0
20
4776.0
0
VERTEX
8
0
10
810.0
20
4771.0
0
VERTEX
8
0
10
800.0
20
4771.0
0
SEQEND
0
POLYLINE
8
0
66
1
10
0.0
20
0.0
30
0.0
0
VERTEX
8
0
10
801.0
20
4776.0
0
VERTEX
8
0
10
801.0
20
4778.5
0
VERTEX
8
0
10
799.0
20
4778.5
0
VERTEX
8
0
10
799.0
20
4776.0
0
VERTEX
8
0
10
801.0
20
4776.0
0
SEQEND
0
POLYLINE
8
0
66
1
10
0.0
20
0.0
30
0.0
0
VERTEX
8
0
10
800.0
20
4778.5
0
VERTEX
8
0
10
800.0
20
4783.5
0
VERTEX
8
0
10
799.5500000000002
20
4783.5
0
VERTEX
8
0
10
799.0
20
4778.5
0
VERTEX
8
0
10
800.0
20
4778.5
0
SEQEND
0
POLYLINE
8
0
66
1
10
0.0
20
0.0
30
0.0
0
VERTEX
8
0
10
800.0
20
4778.5
0
VERTEX
8
0
10
800.0
20
4783.5
0
VERTEX
8
0
10
800.4499999999998
20
4783.5
0
VERTEX
8
0
10
801.0
20
4778.5
0
VERTEX
8
0
10
800.0
20
4778.5
0
SEQEND
0
POLYLINE
8
0
66
1
10
0.0
20
0.0
30
0.0
0
VERTEX
8
0
10
800.4499999999998
20
4783.5
0
VERTEX
8
0
10
800.4499999999998
20
4786.0
0
VERTEX
8
0
10
799.5500000000002
20
4786.0
0
VERTEX
8
0
10
799.5500000000002
20
4783.5
0
VERTEX
8
0
10
800.4499999999998
20
4783.5
0
SEQEND
0
POLYLINE
8
0
66
1
10
0.0
20
0.0
30
0.0
0
VERTEX
8
0
10
801.0
20
4786.15
0
VERTEX
8
0
10
801.0
20
4794.15
0
VERTEX
8
0
10
799.0
20
4794.15
0
VERTEX
8
0
10
799.0
20
4786.15
0
VERTEX
8
0
10
801.0
20
4786.15
0
SEQEND
0
POLYLINE
8
0
66
1
10
0.0
20
0.0
30
0.0
0
VERTEX
8
0
10
800.0
20
4794.15
0
VERTEX
8
0
10
800.0
20
4799.15
0
VERTEX
8
0
10
790.0
20
4799.15
0
VERTEX
8
0
10
799.0
20
4794.15
0
VERTEX
8
0
10
800.0
20
4794.15
0
SEQEND
0
POLYLINE
8
0
66
1
10
0.0
20
0.0
30
0.0
0
VERTEX
8
0
10
800.0
20
4794.15
0
VERTEX
8
0
10
800.0
20
4799.15
0
VERTEX
8
0
10
810.0
20
4799.15
0
VERTEX
8
0
10
801.0
20
4794.15
0
VERTEX
8
0
10
800.0
20
4794.15
0
SEQEND
0
POLYLINE
8
0
66
1
10
0.0
20
0.0
30
0.0
0
VERTEX
8
0
10
810.0
20
4799.15
0
VERTEX
8
0
10
810.0
20
4816.15
0
VERTEX
8
0
10
790.0
20
4816.15
0
VERTEX
8
0
10
790.0
20
4799.15
0
VERTEX
8
0
10
810.0
20
4799.15
0
SEQEND
0
POLYLINE
8
0
66
1
10
0.0
20
0.0
30
0.0
0
VERTEX
8
0
10
810.0
20
7254.0
0
VERTEX
8
0
10
810.0
20
7271.0
0
VERTEX
8
0
10
790.0
20
7271.0
0
VERTEX
8
0
10
790.0
20
7254.0
0
VERTEX
8
0
10
810.0
20
7254.0
0
SEQEND
0
POLYLINE
8
0
66
1
10
0.0
20
0.0
30
0.0
0
VERTEX
8
0
10
800.0
20
7271.0
0
VERTEX
8
0
10
800.0
20
7276.0
0
VERTEX
8
0
10
799.0
20
7276.0
0
VERTEX
8
0
10
790.0
20
7271.0
0
VERTEX
8
0
10
800.0
20
7271.0
0
SEQEND
0
POLYLINE
8
0
66
1
10
0.0
20
0.0
30
0.0
0
VERTEX
8
0
10
800.0
20
7271.0
0
VERTEX
8
0
10
800.0
20
7276.0
0
VERTEX
8
0
10
801.0
20
7276.0
0
VERTEX
8
0
10
810.0
20
7271.0
0
VERTEX
8
0
10
800.0
20
7271.0
0
SEQEND
0
POLYLINE
8
0
66
1
10
0.0
20
0.0
30
0.0
0
VERTEX
8
0
10
801.0
20
7276.0
0
VERTEX
8
0
10
801.0
20
7278.5
0
VERTEX
8
0
10
799.0
20
7278.5
0
VERTEX
8
0
10
799.0
20
7276.0
0
VERTEX
8
0
10
801.0
20
7276.0
0
SEQEND
0
POLYLINE
8
0
66
1
10
0.0
20
0.0
30
0.0
0
VERTEX
8
0
10
800.0
20
7278.5
0
VERTEX
8
0
10
800.0
20
7283.5
0
VERTEX
8
0
10
799.5500000000002
20
7283.5
0
VERTEX
8
0
10
799.0
20
7278.5
0
VERTEX
8
0
10
800.0
20
7278.5
0
SEQEND
0
POLYLINE
8
0
66
1
10
0.0
20
0.0
30
0.0
0
VERTEX
8
0
10
800.0
20
7278.5
0
VERTEX
8
0
10
800.0
20
7283.5
0
VERTEX
8
0
10
800.4499999999998
20
7283.5
0
VERTEX
8
0
10
801.0
20
7278.5
0
VERTEX
8
0
10
800.0
20
7278.5
0
SEQEND
0
POLYLINE
8
0
66
1
10
0.0
20
0.0
30
0.0
0
VERTEX
8
0
10
800.4499999999998
20
7283.5
0
VERTEX
8
0
10
800.4499999999998
20
7286.0
0
VERTEX
8
0
10
799.5500000000002
20
7286.0
0
VERTEX
8
0
10
799.5500000000002
20
7283.5
0
VERTEX
8
0
10
800.4499999999998
20
7283.5
0
SEQEND
0
POLYLINE
8
0
66
1
10
0.0
20
0.0
30
0.0
0
VERTEX
8
0
10
801.0
20
7286.15
0
VERTEX
8
0
10
801.0
20
7294.15
0
VERTEX
8
0
10
799.0
20
7294.15
0
VERTEX
8
0
10
799.0
20
7286.15
0
VERTEX
8
0
10
801.0
20
7286.15
0
SEQEND
0
POLYLINE
8
0
66
1
10
0.0
20
0.0
30
0.0
0
VERTEX
8
0
10
800.0
20
7294.15
0
VERTEX
8
0
10
800.0
20
7299.15
0
VERTEX
8
0
10
790.0
20
7299.15
0
VERTEX
8
0
10
799.0
20
7294.15
0
VERTEX
8
0
10
800.0
20
7294.15
0
SEQEND
0
POLYLINE
8
0
66
1
10
0.0
20
0.0
30
0.0
0
VERTEX
8
0
10
800.0
20
7294.15
0
VERTEX
8
0
10
800.0
20
7299.15
0
VERTEX
8
0
10
810.0
20
7299.15
0
VERTEX
8
0
10
801.0
20
7294.15
0
VERTEX
8
0
10
800.0
20
7294.15
0
SEQEND
0
POLYLINE
8
0
66
1
10
0.0
20
0.0
30
0.0
0
VERTEX
8
0
10
810.0
20
7299.15
0
VERTEX
8
0
10
810.0
20
7316.15
0
VERTEX
8
0
10
790.0
20
7316.15
0
VERTEX
8
0
10
790.0
20
7299.15
0
VERTEX
8
0
10
810.0
20
7299.15
0
SEQEND
0
ENDBLK
0
BLOCK
8
0
2
Q24
70
0
10
0
20
0
30
0
3
Q24

0
ENDBLK
0
ENDSEC
0
SECTION
2
ENTITIES
0
INSERT
2
Q24GAP
8
GAP
10
0
20
0
0
INSERT
2
Q24PIN
8
PIN
10
0
20
0
0
INSERT
2
Q24
8
0
10
0
20
0
0
ENDSEC
0
EOF
