0
SECTION
2
HEADER
9
$ACADVER
1
AC1006
9
$INSBASE
10
0.0
20
0.0
30
0.0
9
$EXTMIN
10
0.0
20
0.0
9
$EXTMAX
10
0.0
20
0.0
0
ENDSEC
0
SECTION
2
TABLES
0
TABLE
2
LTYPE
70
1
0
LTYPE
2
CONTINUOUS
70
64
3
Solid line
72
65
73
0
40
0.0
0
ENDTAB
0
TABLE
2
LAYER
70
1
0
LAYER
2
PYDXF
70
64
62
7
6
continuous
0
ENDTAB
0
TABLE
2
STYLE
70
1
0
STYLE
2
STANDARD
70
0
40
0
41
40
50
50
71
0
42
1
3
ARIAL.TTF
4

0
ENDTAB
0
TABLE
2
VIEW
70
0
0
ENDTAB
0
ENDSEC
0
SECTION
2
BLOCKS
0
BLOCK
8
0
2
A
70
0
10
0
20
0
30
0
3
A
0
POLYLINE
8
0
66
1
10
0.0
20
0.0
30
0.0
0
VERTEX
8
0
10
400.0
20
9750.0
0
VERTEX
8
0
10
400.0
20
9650.0
0
VERTEX
8
0
10
1600.0
20
9650.0
0
VERTEX
8
0
10
1600.0
20
9750.0
0
VERTEX
8
0
10
400.0
20
9750.0
0
SEQEND
0
POLYLINE
8
0
66
1
10
0.0
20
0.0
30
0.0
0
VERTEX
8
0
10
110.0
20
28040.0
0
VERTEX
8
0
10
109.99999999999997
20
27960.0
0
VERTEX
8
0
10
189.99999999999997
20
27960.0
0
VERTEX
8
0
10
190.0
20
28040.0
0
VERTEX
8
0
10
110.0
20
28040.0
0
SEQEND
0
POLYLINE
8
0
66
1
10
0.0
20
0.0
30
0.0
0
VERTEX
8
0
10
1410.0
20
28040.0
0
VERTEX
8
0
10
1410.0
20
27960.0
0
VERTEX
8
0
10
1490.0
20
27960.0
0
VERTEX
8
0
10
1490.0
20
28040.0
0
VERTEX
8
0
10
1410.0
20
28040.0
0
SEQEND
0
POLYLINE
8
0
66
1
10
0.0
20
0.0
30
0.0
0
VERTEX
8
0
10
110.0
20
740.0
0
VERTEX
8
0
10
109.99999999999997
20
660.0
0
VERTEX
8
0
10
189.99999999999997
20
660.0
0
VERTEX
8
0
10
190.0
20
740.0
0
VERTEX
8
0
10
110.0
20
740.0
0
SEQEND
0
POLYLINE
8
0
66
1
10
0.0
20
0.0
30
0.0
0
VERTEX
8
0
10
1410.0
20
740.0
0
VERTEX
8
0
10
1410.0
20
660.0
0
VERTEX
8
0
10
1490.0
20
660.0
0
VERTEX
8
0
10
1490.0
20
740.0
0
VERTEX
8
0
10
1410.0
20
740.0
0
SEQEND
0
POLYLINE
8
0
66
1
10
0.0
20
0.0
30
0.0
0
VERTEX
8
0
10
-100.0
20
28250.0
0
VERTEX
8
0
10
-100.00000000000009
20
27750.0
0
VERTEX
8
0
10
399.9999999999999
20
27750.0
0
VERTEX
8
0
10
400.0
20
28250.0
0
VERTEX
8
0
10
-100.0
20
28250.0
0
SEQEND
0
POLYLINE
8
0
66
1
10
0.0
20
0.0
30
0.0
0
VERTEX
8
0
10
1200.0
20
28250.0
0
VERTEX
8
0
10
1200.0
20
27750.0
0
VERTEX
8
0
10
1700.0
20
27750.0
0
VERTEX
8
0
10
1700.0
20
28250.0
0
VERTEX
8
0
10
1200.0
20
28250.0
0
SEQEND
0
POLYLINE
8
0
66
1
10
0.0
20
0.0
30
0.0
0
VERTEX
8
0
10
-100.0
20
950.0
0
VERTEX
8
0
10
-100.00000000000009
20
450.00000000000006
0
VERTEX
8
0
10
399.9999999999999
20
449.99999999999994
0
VERTEX
8
0
10
400.0
20
950.0
0
VERTEX
8
0
10
-100.0
20
950.0
0
SEQEND
0
POLYLINE
8
0
66
1
10
0.0
20
0.0
30
0.0
0
VERTEX
8
0
10
1200.0
20
950.0
0
VERTEX
8
0
10
1200.0
20
450.00000000000006
0
VERTEX
8
0
10
1700.0
20
449.99999999999994
0
VERTEX
8
0
10
1700.0
20
950.0
0
VERTEX
8
0
10
1200.0
20
950.0
0
SEQEND
0
POLYLINE
8
0
66
1
10
0.0
20
0.0
30
0.0
0
VERTEX
8
0
10
725.0
20
25630.0
0
VERTEX
8
0
10
724.9999999999992
20
21530.0
0
VERTEX
8
0
10
874.9999999999992
20
21530.0
0
VERTEX
8
0
10
875.0
20
25630.0
0
VERTEX
8
0
10
725.0
20
25630.0
0
SEQEND
0
POLYLINE
8
0
66
1
10
0.0
20
0.0
30
0.0
0
VERTEX
8
0
10
784.9999999999992
20
21530.0
0
VERTEX
8
0
10
784.9999999999991
20
21160.0
0
VERTEX
8
0
10
814.9999999999991
20
21160.0
0
VERTEX
8
0
10
814.9999999999992
20
21530.0
0
VERTEX
8
0
10
784.9999999999992
20
21530.0
0
SEQEND
0
POLYLINE
8
0
66
1
10
0.0
20
0.0
30
0.0
0
VERTEX
8
0
10
802.4999999999991
20
21160.0
0
VERTEX
8
0
10
802.4999999999991
20
21165.0
0
VERTEX
8
0
10
797.4999999999991
20
21165.0
0
VERTEX
8
0
10
797.4999999999991
20
21160.0
0
VERTEX
8
0
10
802.4999999999991
20
21160.0
0
SEQEND
0
POLYLINE
8
0
66
1
10
0.0
20
0.0
30
0.0
0
VERTEX
8
0
10
807.4999999999991
20
21165.0
0
VERTEX
8
0
10
807.4999999999991
20
21170.0
0
VERTEX
8
0
10
792.4999999999991
20
21170.0
0
VERTEX
8
0
10
792.4999999999991
20
21165.0
0
VERTEX
8
0
10
807.4999999999991
20
21165.0
0
SEQEND
0
POLYLINE
8
0
66
1
10
0.0
20
0.0
30
0.0
0
VERTEX
8
0
10
797.4999999999991
20
21130.0
0
VERTEX
8
0
10
797.4999999999991
20
21125.0
0
VERTEX
8
0
10
802.4999999999991
20
21125.0
0
VERTEX
8
0
10
802.4999999999991
20
21130.0
0
VERTEX
8
0
10
797.4999999999991
20
21130.0
0
SEQEND
0
POLYLINE
8
0
66
1
10
0.0
20
0.0
30
0.0
0
VERTEX
8
0
10
792.4999999999991
20
21125.0
0
VERTEX
8
0
10
792.4999999999991
20
21120.0
0
VERTEX
8
0
10
807.4999999999991
20
21120.0
0
VERTEX
8
0
10
807.4999999999991
20
21125.0
0
VERTEX
8
0
10
792.4999999999991
20
21125.0
0
SEQEND
0
POLYLINE
8
0
66
1
10
0.0
20
0.0
30
0.0
0
VERTEX
8
0
10
784.9999999999991
20
21130.0
0
VERTEX
8
0
10
784.999999999999
20
20780.0
0
VERTEX
8
0
10
814.999999999999
20
20780.0
0
VERTEX
8
0
10
814.9999999999991
20
21130.0
0
VERTEX
8
0
10
784.9999999999991
20
21130.0
0
SEQEND
0
POLYLINE
8
0
66
1
10
0.0
20
0.0
30
0.0
0
VERTEX
8
0
10
724.999999999999
20
20780.0
0
VERTEX
8
0
10
724.9999999999976
20
17680.0
0
VERTEX
8
0
10
874.9999999999976
20
17680.0
0
VERTEX
8
0
10
874.999999999999
20
20780.0
0
VERTEX
8
0
10
724.999999999999
20
20780.0
0
SEQEND
0
POLYLINE
8
0
66
1
10
0.0
20
0.0
30
0.0
0
VERTEX
8
0
10
835.0
20
25630.0
0
VERTEX
8
0
10
835.0
20
25590.0
0
VERTEX
8
0
10
875.0
20
25590.0
0
VERTEX
8
0
10
875.0
20
25630.0
0
VERTEX
8
0
10
835.0
20
25630.0
0
SEQEND
0
POLYLINE
8
0
66
1
10
0.0
20
0.0
30
0.0
0
VERTEX
8
0
10
875.0
20
25590.0
0
VERTEX
8
0
10
869.6410161513776
20
25610.0
0
VERTEX
8
0
10
855.0
20
25624.641016151378
0
VERTEX
8
0
10
835.0
20
25630.0
0
VERTEX
8
0
10
835.0
20
25610.0
0
VERTEX
8
0
10
845.0
20
25607.32050807569
0
VERTEX
8
0
10
852.3205080756887
20
25600.0
0
VERTEX
8
0
10
855.0
20
25590.0
0
VERTEX
8
0
10
875.0
20
25590.0
0
SEQEND
0
POLYLINE
8
0
66
1
10
0.0
20
0.0
30
0.0
0
VERTEX
8
0
10
855.0
20
25590.0
0
VERTEX
8
0
10
852.3205080756887
20
25600.0
0
VERTEX
8
0
10
845.0
20
25607.32050807569
0
VERTEX
8
0
10
835.0
20
25610.0
0
VERTEX
8
0
10
835.0
20
25590.0
0
VERTEX
8
0
10
835.0
20
25590.0
0
VERTEX
8
0
10
835.0
20
25590.0
0
VERTEX
8
0
10
835.0
20
25590.0
0
VERTEX
8
0
10
855.0
20
25590.0
0
SEQEND
0
POLYLINE
8
0
66
1
10
0.0
20
0.0
30
0.0
0
VERTEX
8
0
10
725.0
20
25630.0
0
VERTEX
8
0
10
725.0
20
25590.0
0
VERTEX
8
0
10
765.0
20
25590.0
0
VERTEX
8
0
10
765.0
20
25630.0
0
VERTEX
8
0
10
725.0
20
25630.0
0
SEQEND
0
POLYLINE
8
0
66
1
10
0.0
20
0.0
30
0.0
0
VERTEX
8
0
10
725.0
20
25590.0
0
VERTEX
8
0
10
730.3589838486224
20
25610.0
0
VERTEX
8
0
10
745.0
20
25624.641016151378
0
VERTEX
8
0
10
765.0
20
25630.0
0
VERTEX
8
0
10
765.0
20
25610.0
0
VERTEX
8
0
10
755.0
20
25607.32050807569
0
VERTEX
8
0
10
747.6794919243113
20
25600.0
0
VERTEX
8
0
10
745.0
20
25590.0
0
VERTEX
8
0
10
725.0
20
25590.0
0
SEQEND
0
POLYLINE
8
0
66
1
10
0.0
20
0.0
30
0.0
0
VERTEX
8
0
10
745.0
20
25590.0
0
VERTEX
8
0
10
747.6794919243113
20
25600.0
0
VERTEX
8
0
10
755.0
20
25607.32050807569
0
VERTEX
8
0
10
765.0
20
25610.0
0
VERTEX
8
0
10
765.0
20
25590.0
0
VERTEX
8
0
10
765.0
20
25590.0
0
VERTEX
8
0
10
765.0
20
25590.0
0
VERTEX
8
0
10
765.0
20
25590.0
0
VERTEX
8
0
10
745.0
20
25590.0
0
SEQEND
0
POLYLINE
8
0
66
1
10
0.0
20
0.0
30
0.0
0
VERTEX
8
0
10
765.0
20
21530.0
0
VERTEX
8
0
10
765.0
20
21570.0
0
VERTEX
8
0
10
725.0
20
21570.0
0
VERTEX
8
0
10
725.0
20
21530.0
0
VERTEX
8
0
10
765.0
20
21530.0
0
SEQEND
0
POLYLINE
8
0
66
1
10
0.0
20
0.0
30
0.0
0
VERTEX
8
0
10
725.0
20
21570.0
0
VERTEX
8
0
10
730.3589838486224
20
21550.0
0
VERTEX
8
0
10
745.0
20
21535.358983848622
0
VERTEX
8
0
10
765.0
20
21530.0
0
VERTEX
8
0
10
765.0
20
21550.0
0
VERTEX
8
0
10
755.0
20
21552.67949192431
0
VERTEX
8
0
10
747.6794919243113
20
21560.0
0
VERTEX
8
0
10
745.0
20
21570.0
0
VERTEX
8
0
10
725.0
20
21570.0
0
SEQEND
0
POLYLINE
8
0
66
1
10
0.0
20
0.0
30
0.0
0
VERTEX
8
0
10
745.0
20
21570.0
0
VERTEX
8
0
10
747.6794919243113
20
21560.0
0
VERTEX
8
0
10
755.0
20
21552.67949192431
0
VERTEX
8
0
10
765.0
20
21550.0
0
VERTEX
8
0
10
765.0
20
21570.0
0
VERTEX
8
0
10
765.0
20
21570.0
0
VERTEX
8
0
10
765.0
20
21570.0
0
VERTEX
8
0
10
765.0
20
21570.0
0
VERTEX
8
0
10
745.0
20
21570.0
0
SEQEND
0
POLYLINE
8
0
66
1
10
0.0
20
0.0
30
0.0
0
VERTEX
8
0
10
875.0
20
21530.0
0
VERTEX
8
0
10
875.0
20
21570.0
0
VERTEX
8
0
10
835.0
20
21570.0
0
VERTEX
8
0
10
835.0
20
21530.0
0
VERTEX
8
0
10
875.0
20
21530.0
0
SEQEND
0
POLYLINE
8
0
66
1
10
0.0
20
0.0
30
0.0
0
VERTEX
8
0
10
875.0
20
21570.0
0
VERTEX
8
0
10
869.6410161513776
20
21550.0
0
VERTEX
8
0
10
855.0
20
21535.358983848622
0
VERTEX
8
0
10
835.0
20
21530.0
0
VERTEX
8
0
10
835.0
20
21550.0
0
VERTEX
8
0
10
845.0
20
21552.67949192431
0
VERTEX
8
0
10
852.3205080756887
20
21560.0
0
VERTEX
8
0
10
855.0
20
21570.0
0
VERTEX
8
0
10
875.0
20
21570.0
0
SEQEND
0
POLYLINE
8
0
66
1
10
0.0
20
0.0
30
0.0
0
VERTEX
8
0
10
855.0
20
21570.0
0
VERTEX
8
0
10
852.3205080756887
20
21560.0
0
VERTEX
8
0
10
845.0
20
21552.67949192431
0
VERTEX
8
0
10
835.0
20
21550.0
0
VERTEX
8
0
10
835.0
20
21570.0
0
VERTEX
8
0
10
835.0
20
21570.0
0
VERTEX
8
0
10
835.0
20
21570.0
0
VERTEX
8
0
10
835.0
20
21570.0
0
VERTEX
8
0
10
855.0
20
21570.0
0
SEQEND
0
POLYLINE
8
0
66
1
10
0.0
20
0.0
30
0.0
0
VERTEX
8
0
10
775.0
20
21530.0
0
VERTEX
8
0
10
775.0
20
21520.0
0
VERTEX
8
0
10
785.0
20
21520.0
0
VERTEX
8
0
10
785.0
20
21530.0
0
VERTEX
8
0
10
775.0
20
21530.0
0
SEQEND
0
POLYLINE
8
0
66
1
10
0.0
20
0.0
30
0.0
0
VERTEX
8
0
10
785.0
20
21520.0
0
VERTEX
8
0
10
783.6602540378444
20
21525.0
0
VERTEX
8
0
10
780.0
20
21528.660254037844
0
VERTEX
8
0
10
775.0
20
21530.0
0
VERTEX
8
0
10
775.0
20
21525.0
0
VERTEX
8
0
10
777.5
20
21524.330127018922
0
VERTEX
8
0
10
779.3301270189222
20
21522.5
0
VERTEX
8
0
10
780.0
20
21520.0
0
VERTEX
8
0
10
785.0
20
21520.0
0
SEQEND
0
POLYLINE
8
0
66
1
10
0.0
20
0.0
30
0.0
0
VERTEX
8
0
10
780.0
20
21520.0
0
VERTEX
8
0
10
779.3301270189222
20
21522.5
0
VERTEX
8
0
10
777.5
20
21524.330127018922
0
VERTEX
8
0
10
775.0
20
21525.0
0
VERTEX
8
0
10
775.0
20
21520.0
0
VERTEX
8
0
10
775.0
20
21520.0
0
VERTEX
8
0
10
775.0
20
21520.0
0
VERTEX
8
0
10
775.0
20
21520.0
0
VERTEX
8
0
10
780.0
20
21520.0
0
SEQEND
0
POLYLINE
8
0
66
1
10
0.0
20
0.0
30
0.0
0
VERTEX
8
0
10
815.0
20
21530.0
0
VERTEX
8
0
10
815.0
20
21520.0
0
VERTEX
8
0
10
825.0
20
21520.0
0
VERTEX
8
0
10
825.0
20
21530.0
0
VERTEX
8
0
10
815.0
20
21530.0
0
SEQEND
0
POLYLINE
8
0
66
1
10
0.0
20
0.0
30
0.0
0
VERTEX
8
0
10
815.0
20
21520.0
0
VERTEX
8
0
10
816.3397459621556
20
21525.0
0
VERTEX
8
0
10
820.0
20
21528.660254037844
0
VERTEX
8
0
10
825.0
20
21530.0
0
VERTEX
8
0
10
825.0
20
21525.0
0
VERTEX
8
0
10
822.5
20
21524.330127018922
0
VERTEX
8
0
10
820.6698729810778
20
21522.5
0
VERTEX
8
0
10
820.0
20
21520.0
0
VERTEX
8
0
10
815.0
20
21520.0
0
SEQEND
0
POLYLINE
8
0
66
1
10
0.0
20
0.0
30
0.0
0
VERTEX
8
0
10
820.0
20
21520.0
0
VERTEX
8
0
10
820.6698729810778
20
21522.5
0
VERTEX
8
0
10
822.5
20
21524.330127018922
0
VERTEX
8
0
10
825.0
20
21525.0
0
VERTEX
8
0
10
825.0
20
21520.0
0
VERTEX
8
0
10
825.0
20
21520.0
0
VERTEX
8
0
10
825.0
20
21520.0
0
VERTEX
8
0
10
825.0
20
21520.0
0
VERTEX
8
0
10
820.0
20
21520.0
0
SEQEND
0
POLYLINE
8
0
66
1
10
0.0
20
0.0
30
0.0
0
VERTEX
8
0
10
874.9999999999976
20
17680.0
0
VERTEX
8
0
10
874.9999999999976
20
17720.0
0
VERTEX
8
0
10
834.9999999999976
20
17720.0
0
VERTEX
8
0
10
834.9999999999976
20
17680.0
0
VERTEX
8
0
10
874.9999999999976
20
17680.0
0
SEQEND
0
POLYLINE
8
0
66
1
10
0.0
20
0.0
30
0.0
0
VERTEX
8
0
10
874.9999999999976
20
17720.0
0
VERTEX
8
0
10
869.6410161513752
20
17700.0
0
VERTEX
8
0
10
854.9999999999976
20
17685.358983848622
0
VERTEX
8
0
10
834.9999999999976
20
17680.0
0
VERTEX
8
0
10
834.9999999999976
20
17700.0
0
VERTEX
8
0
10
844.9999999999976
20
17702.67949192431
0
VERTEX
8
0
10
852.3205080756863
20
17710.0
0
VERTEX
8
0
10
854.9999999999976
20
17720.0
0
VERTEX
8
0
10
874.9999999999976
20
17720.0
0
SEQEND
0
POLYLINE
8
0
66
1
10
0.0
20
0.0
30
0.0
0
VERTEX
8
0
10
854.9999999999976
20
17720.0
0
VERTEX
8
0
10
852.3205080756863
20
17710.0
0
VERTEX
8
0
10
844.9999999999976
20
17702.67949192431
0
VERTEX
8
0
10
834.9999999999976
20
17700.0
0
VERTEX
8
0
10
834.9999999999976
20
17720.0
0
VERTEX
8
0
10
834.9999999999976
20
17720.0
0
VERTEX
8
0
10
834.9999999999976
20
17720.0
0
VERTEX
8
0
10
834.9999999999976
20
17720.0
0
VERTEX
8
0
10
854.9999999999976
20
17720.0
0
SEQEND
0
POLYLINE
8
0
66
1
10
0.0
20
0.0
30
0.0
0
VERTEX
8
0
10
764.9999999999976
20
17680.0
0
VERTEX
8
0
10
764.9999999999976
20
17720.0
0
VERTEX
8
0
10
724.9999999999976
20
17720.0
0
VERTEX
8
0
10
724.9999999999976
20
17680.0
0
VERTEX
8
0
10
764.9999999999976
20
17680.0
0
SEQEND
0
POLYLINE
8
0
66
1
10
0.0
20
0.0
30
0.0
0
VERTEX
8
0
10
724.9999999999976
20
17720.0
0
VERTEX
8
0
10
730.35898384862
20
17700.0
0
VERTEX
8
0
10
744.9999999999976
20
17685.358983848622
0
VERTEX
8
0
10
764.9999999999976
20
17680.0
0
VERTEX
8
0
10
764.9999999999976
20
17700.0
0
VERTEX
8
0
10
754.9999999999976
20
17702.67949192431
0
VERTEX
8
0
10
747.6794919243089
20
17710.0
0
VERTEX
8
0
10
744.9999999999976
20
17720.0
0
VERTEX
8
0
10
724.9999999999976
20
17720.0
0
SEQEND
0
POLYLINE
8
0
66
1
10
0.0
20
0.0
30
0.0
0
VERTEX
8
0
10
744.9999999999976
20
17720.0
0
VERTEX
8
0
10
747.6794919243089
20
17710.0
0
VERTEX
8
0
10
754.9999999999976
20
17702.67949192431
0
VERTEX
8
0
10
764.9999999999976
20
17700.0
0
VERTEX
8
0
10
764.9999999999976
20
17720.0
0
VERTEX
8
0
10
764.9999999999976
20
17720.0
0
VERTEX
8
0
10
764.9999999999976
20
17720.0
0
VERTEX
8
0
10
764.9999999999976
20
17720.0
0
VERTEX
8
0
10
744.9999999999976
20
17720.0
0
SEQEND
0
POLYLINE
8
0
66
1
10
0.0
20
0.0
30
0.0
0
VERTEX
8
0
10
724.9999999999976
20
20780.0
0
VERTEX
8
0
10
724.9999999999976
20
20740.0
0
VERTEX
8
0
10
764.9999999999976
20
20740.0
0
VERTEX
8
0
10
764.9999999999976
20
20780.0
0
VERTEX
8
0
10
724.9999999999976
20
20780.0
0
SEQEND
0
POLYLINE
8
0
66
1
10
0.0
20
0.0
30
0.0
0
VERTEX
8
0
10
724.9999999999976
20
20740.0
0
VERTEX
8
0
10
730.35898384862
20
20760.0
0
VERTEX
8
0
10
744.9999999999976
20
20774.641016151378
0
VERTEX
8
0
10
764.9999999999976
20
20780.0
0
VERTEX
8
0
10
764.9999999999976
20
20760.0
0
VERTEX
8
0
10
754.9999999999976
20
20757.32050807569
0
VERTEX
8
0
10
747.6794919243089
20
20750.0
0
VERTEX
8
0
10
744.9999999999976
20
20740.0
0
VERTEX
8
0
10
724.9999999999976
20
20740.0
0
SEQEND
0
POLYLINE
8
0
66
1
10
0.0
20
0.0
30
0.0
0
VERTEX
8
0
10
744.9999999999976
20
20740.0
0
VERTEX
8
0
10
747.6794919243089
20
20750.0
0
VERTEX
8
0
10
754.9999999999976
20
20757.32050807569
0
VERTEX
8
0
10
764.9999999999976
20
20760.0
0
VERTEX
8
0
10
764.9999999999976
20
20740.0
0
VERTEX
8
0
10
764.9999999999976
20
20740.0
0
VERTEX
8
0
10
764.9999999999976
20
20740.0
0
VERTEX
8
0
10
764.9999999999976
20
20740.0
0
VERTEX
8
0
10
744.9999999999976
20
20740.0
0
SEQEND
0
POLYLINE
8
0
66
1
10
0.0
20
0.0
30
0.0
0
VERTEX
8
0
10
834.9999999999976
20
20780.0
0
VERTEX
8
0
10
834.9999999999976
20
20740.0
0
VERTEX
8
0
10
874.9999999999976
20
20740.0
0
VERTEX
8
0
10
874.9999999999976
20
20780.0
0
VERTEX
8
0
10
834.9999999999976
20
20780.0
0
SEQEND
0
POLYLINE
8
0
66
1
10
0.0
20
0.0
30
0.0
0
VERTEX
8
0
10
874.9999999999976
20
20740.0
0
VERTEX
8
0
10
869.6410161513752
20
20760.0
0
VERTEX
8
0
10
854.9999999999976
20
20774.641016151378
0
VERTEX
8
0
10
834.9999999999976
20
20780.0
0
VERTEX
8
0
10
834.9999999999976
20
20760.0
0
VERTEX
8
0
10
844.9999999999976
20
20757.32050807569
0
VERTEX
8
0
10
852.3205080756863
20
20750.0
0
VERTEX
8
0
10
854.9999999999976
20
20740.0
0
VERTEX
8
0
10
874.9999999999976
20
20740.0
0
SEQEND
0
POLYLINE
8
0
66
1
10
0.0
20
0.0
30
0.0
0
VERTEX
8
0
10
854.9999999999976
20
20740.0
0
VERTEX
8
0
10
852.3205080756863
20
20750.0
0
VERTEX
8
0
10
844.9999999999976
20
20757.32050807569
0
VERTEX
8
0
10
834.9999999999976
20
20760.0
0
VERTEX
8
0
10
834.9999999999976
20
20740.0
0
VERTEX
8
0
10
834.9999999999976
20
20740.0
0
VERTEX
8
0
10
834.9999999999976
20
20740.0
0
VERTEX
8
0
10
834.9999999999976
20
20740.0
0
VERTEX
8
0
10
854.9999999999976
20
20740.0
0
SEQEND
0
POLYLINE
8
0
66
1
10
0.0
20
0.0
30
0.0
0
VERTEX
8
0
10
784.9999999999976
20
20780.0
0
VERTEX
8
0
10
784.9999999999976
20
20790.0
0
VERTEX
8
0
10
774.9999999999976
20
20790.0
0
VERTEX
8
0
10
774.9999999999976
20
20780.0
0
VERTEX
8
0
10
784.9999999999976
20
20780.0
0
SEQEND
0
POLYLINE
8
0
66
1
10
0.0
20
0.0
30
0.0
0
VERTEX
8
0
10
784.9999999999976
20
20790.0
0
VERTEX
8
0
10
783.660254037842
20
20785.0
0
VERTEX
8
0
10
779.9999999999976
20
20781.339745962156
0
VERTEX
8
0
10
774.9999999999976
20
20780.0
0
VERTEX
8
0
10
774.9999999999976
20
20785.0
0
VERTEX
8
0
10
777.4999999999976
20
20785.669872981078
0
VERTEX
8
0
10
779.3301270189198
20
20787.5
0
VERTEX
8
0
10
779.9999999999976
20
20790.0
0
VERTEX
8
0
10
784.9999999999976
20
20790.0
0
SEQEND
0
POLYLINE
8
0
66
1
10
0.0
20
0.0
30
0.0
0
VERTEX
8
0
10
779.9999999999976
20
20790.0
0
VERTEX
8
0
10
779.3301270189198
20
20787.5
0
VERTEX
8
0
10
777.4999999999976
20
20785.669872981078
0
VERTEX
8
0
10
774.9999999999976
20
20785.0
0
VERTEX
8
0
10
774.9999999999976
20
20790.0
0
VERTEX
8
0
10
774.9999999999976
20
20790.0
0
VERTEX
8
0
10
774.9999999999976
20
20790.0
0
VERTEX
8
0
10
774.9999999999976
20
20790.0
0
VERTEX
8
0
10
779.9999999999976
20
20790.0
0
SEQEND
0
POLYLINE
8
0
66
1
10
0.0
20
0.0
30
0.0
0
VERTEX
8
0
10
824.9999999999976
20
20780.0
0
VERTEX
8
0
10
824.9999999999976
20
20790.0
0
VERTEX
8
0
10
814.9999999999976
20
20790.0
0
VERTEX
8
0
10
814.9999999999976
20
20780.0
0
VERTEX
8
0
10
824.9999999999976
20
20780.0
0
SEQEND
0
POLYLINE
8
0
66
1
10
0.0
20
0.0
30
0.0
0
VERTEX
8
0
10
814.9999999999976
20
20790.0
0
VERTEX
8
0
10
816.3397459621532
20
20785.0
0
VERTEX
8
0
10
819.9999999999976
20
20781.339745962156
0
VERTEX
8
0
10
824.9999999999976
20
20780.0
0
VERTEX
8
0
10
824.9999999999976
20
20785.0
0
VERTEX
8
0
10
822.4999999999976
20
20785.669872981078
0
VERTEX
8
0
10
820.6698729810754
20
20787.5
0
VERTEX
8
0
10
819.9999999999976
20
20790.0
0
VERTEX
8
0
10
814.9999999999976
20
20790.0
0
SEQEND
0
POLYLINE
8
0
66
1
10
0.0
20
0.0
30
0.0
0
VERTEX
8
0
10
819.9999999999976
20
20790.0
0
VERTEX
8
0
10
820.6698729810754
20
20787.5
0
VERTEX
8
0
10
822.4999999999976
20
20785.669872981078
0
VERTEX
8
0
10
824.9999999999976
20
20785.0
0
VERTEX
8
0
10
824.9999999999976
20
20790.0
0
VERTEX
8
0
10
824.9999999999976
20
20790.0
0
VERTEX
8
0
10
824.9999999999976
20
20790.0
0
VERTEX
8
0
10
824.9999999999976
20
20790.0
0
VERTEX
8
0
10
819.9999999999976
20
20790.0
0
SEQEND
0
POLYLINE
8
0
66
1
10
0.0
20
0.0
30
0.0
0
VERTEX
8
0
10
400.0
20
3200.0
0
VERTEX
8
0
10
399.9999999999999
20
2400.0
0
VERTEX
8
0
10
1200.0
20
2400.0
0
VERTEX
8
0
10
1200.0
20
3200.0
0
VERTEX
8
0
10
400.0
20
3200.0
0
SEQEND
0
POLYLINE
8
0
66
1
10
0.0
20
0.0
30
0.0
0
VERTEX
8
0
10
784.9999999999999
20
2400.0
0
VERTEX
8
0
10
784.9999999999999
20
2300.0
0
VERTEX
8
0
10
814.9999999999999
20
2300.0
0
VERTEX
8
0
10
814.9999999999999
20
2400.0
0
VERTEX
8
0
10
784.9999999999999
20
2400.0
0
SEQEND
0
POLYLINE
8
0
66
1
10
0.0
20
0.0
30
0.0
0
VERTEX
8
0
10
802.4999999999999
20
2300.0
0
VERTEX
8
0
10
802.4999999999999
20
2305.0
0
VERTEX
8
0
10
797.4999999999999
20
2305.0
0
VERTEX
8
0
10
797.4999999999999
20
2300.0
0
VERTEX
8
0
10
802.4999999999999
20
2300.0
0
SEQEND
0
POLYLINE
8
0
66
1
10
0.0
20
0.0
30
0.0
0
VERTEX
8
0
10
807.4999999999999
20
2305.0
0
VERTEX
8
0
10
807.4999999999999
20
2310.0
0
VERTEX
8
0
10
792.4999999999999
20
2310.0
0
VERTEX
8
0
10
792.4999999999999
20
2305.0
0
VERTEX
8
0
10
807.4999999999999
20
2305.0
0
SEQEND
0
POLYLINE
8
0
66
1
10
0.0
20
0.0
30
0.0
0
VERTEX
8
0
10
797.4999999999999
20
2270.0
0
VERTEX
8
0
10
797.4999999999999
20
2265.0
0
VERTEX
8
0
10
802.4999999999999
20
2265.0
0
VERTEX
8
0
10
802.4999999999999
20
2270.0
0
VERTEX
8
0
10
797.4999999999999
20
2270.0
0
SEQEND
0
POLYLINE
8
0
66
1
10
0.0
20
0.0
30
0.0
0
VERTEX
8
0
10
792.4999999999999
20
2265.0
0
VERTEX
8
0
10
792.4999999999999
20
2260.0
0
VERTEX
8
0
10
807.4999999999999
20
2260.0
0
VERTEX
8
0
10
807.4999999999999
20
2265.0
0
VERTEX
8
0
10
792.4999999999999
20
2265.0
0
SEQEND
0
POLYLINE
8
0
66
1
10
0.0
20
0.0
30
0.0
0
VERTEX
8
0
10
784.9999999999999
20
2270.0
0
VERTEX
8
0
10
784.9999999999999
20
2170.0
0
VERTEX
8
0
10
814.9999999999999
20
2170.0
0
VERTEX
8
0
10
814.9999999999999
20
2270.0
0
VERTEX
8
0
10
784.9999999999999
20
2270.0
0
SEQEND
0
POLYLINE
8
0
66
1
10
0.0
20
0.0
30
0.0
0
VERTEX
8
0
10
399.9999999999999
20
2170.0
0
VERTEX
8
0
10
399.99999999999955
20
1370.0000000000002
0
VERTEX
8
0
10
1199.9999999999995
20
1369.9999999999998
0
VERTEX
8
0
10
1200.0
20
2170.0
0
VERTEX
8
0
10
399.9999999999999
20
2170.0
0
SEQEND
0
POLYLINE
8
0
66
1
10
0.0
20
0.0
30
0.0
0
VERTEX
8
0
10
1160.0
20
3200.0
0
VERTEX
8
0
10
1160.0
20
3160.0
0
VERTEX
8
0
10
1200.0
20
3160.0
0
VERTEX
8
0
10
1200.0
20
3200.0
0
VERTEX
8
0
10
1160.0
20
3200.0
0
SEQEND
0
POLYLINE
8
0
66
1
10
0.0
20
0.0
30
0.0
0
VERTEX
8
0
10
1200.0
20
3160.0
0
VERTEX
8
0
10
1194.6410161513775
20
3180.0
0
VERTEX
8
0
10
1180.0
20
3194.6410161513777
0
VERTEX
8
0
10
1160.0
20
3200.0
0
VERTEX
8
0
10
1160.0
20
3180.0
0
VERTEX
8
0
10
1170.0
20
3177.320508075689
0
VERTEX
8
0
10
1177.3205080756888
20
3170.0
0
VERTEX
8
0
10
1180.0
20
3160.0
0
VERTEX
8
0
10
1200.0
20
3160.0
0
SEQEND
0
POLYLINE
8
0
66
1
10
0.0
20
0.0
30
0.0
0
VERTEX
8
0
10
1180.0
20
3160.0
0
VERTEX
8
0
10
1177.3205080756888
20
3170.0
0
VERTEX
8
0
10
1170.0
20
3177.320508075689
0
VERTEX
8
0
10
1160.0
20
3180.0
0
VERTEX
8
0
10
1160.0
20
3160.0
0
VERTEX
8
0
10
1160.0
20
3160.0
0
VERTEX
8
0
10
1160.0
20
3160.0
0
VERTEX
8
0
10
1160.0
20
3160.0
0
VERTEX
8
0
10
1180.0
20
3160.0
0
SEQEND
0
POLYLINE
8
0
66
1
10
0.0
20
0.0
30
0.0
0
VERTEX
8
0
10
400.0
20
3200.0
0
VERTEX
8
0
10
400.0
20
3160.0
0
VERTEX
8
0
10
440.0
20
3160.0
0
VERTEX
8
0
10
440.0
20
3200.0
0
VERTEX
8
0
10
400.0
20
3200.0
0
SEQEND
0
POLYLINE
8
0
66
1
10
0.0
20
0.0
30
0.0
0
VERTEX
8
0
10
400.0
20
3160.0
0
VERTEX
8
0
10
405.3589838486225
20
3180.0
0
VERTEX
8
0
10
420.0
20
3194.6410161513777
0
VERTEX
8
0
10
440.0
20
3200.0
0
VERTEX
8
0
10
440.0
20
3180.0
0
VERTEX
8
0
10
430.0
20
3177.320508075689
0
VERTEX
8
0
10
422.6794919243112
20
3170.0
0
VERTEX
8
0
10
420.0
20
3160.0
0
VERTEX
8
0
10
400.0
20
3160.0
0
SEQEND
0
POLYLINE
8
0
66
1
10
0.0
20
0.0
30
0.0
0
VERTEX
8
0
10
420.0
20
3160.0
0
VERTEX
8
0
10
422.6794919243112
20
3170.0
0
VERTEX
8
0
10
430.0
20
3177.320508075689
0
VERTEX
8
0
10
440.0
20
3180.0
0
VERTEX
8
0
10
440.0
20
3160.0
0
VERTEX
8
0
10
440.0
20
3160.0
0
VERTEX
8
0
10
440.0
20
3160.0
0
VERTEX
8
0
10
440.0
20
3160.0
0
VERTEX
8
0
10
420.0
20
3160.0
0
SEQEND
0
POLYLINE
8
0
66
1
10
0.0
20
0.0
30
0.0
0
VERTEX
8
0
10
440.0
20
2400.0
0
VERTEX
8
0
10
440.0
20
2440.0
0
VERTEX
8
0
10
400.0
20
2440.0
0
VERTEX
8
0
10
400.0
20
2400.0
0
VERTEX
8
0
10
440.0
20
2400.0
0
SEQEND
0
POLYLINE
8
0
66
1
10
0.0
20
0.0
30
0.0
0
VERTEX
8
0
10
400.0
20
2440.0
0
VERTEX
8
0
10
405.3589838486225
20
2420.0
0
VERTEX
8
0
10
420.0
20
2405.3589838486223
0
VERTEX
8
0
10
440.0
20
2400.0
0
VERTEX
8
0
10
440.0
20
2420.0
0
VERTEX
8
0
10
430.0
20
2422.679491924311
0
VERTEX
8
0
10
422.6794919243112
20
2430.0
0
VERTEX
8
0
10
420.0
20
2440.0
0
VERTEX
8
0
10
400.0
20
2440.0
0
SEQEND
0
POLYLINE
8
0
66
1
10
0.0
20
0.0
30
0.0
0
VERTEX
8
0
10
420.0
20
2440.0
0
VERTEX
8
0
10
422.6794919243112
20
2430.0
0
VERTEX
8
0
10
430.0
20
2422.679491924311
0
VERTEX
8
0
10
440.0
20
2420.0
0
VERTEX
8
0
10
440.0
20
2440.0
0
VERTEX
8
0
10
440.0
20
2440.0
0
VERTEX
8
0
10
440.0
20
2440.0
0
VERTEX
8
0
10
440.0
20
2440.0
0
VERTEX
8
0
10
420.0
20
2440.0
0
SEQEND
0
POLYLINE
8
0
66
1
10
0.0
20
0.0
30
0.0
0
VERTEX
8
0
10
1200.0
20
2400.0
0
VERTEX
8
0
10
1200.0
20
2440.0
0
VERTEX
8
0
10
1160.0
20
2440.0
0
VERTEX
8
0
10
1160.0
20
2400.0
0
VERTEX
8
0
10
1200.0
20
2400.0
0
SEQEND
0
POLYLINE
8
0
66
1
10
0.0
20
0.0
30
0.0
0
VERTEX
8
0
10
1200.0
20
2440.0
0
VERTEX
8
0
10
1194.6410161513775
20
2420.0
0
VERTEX
8
0
10
1180.0
20
2405.3589838486223
0
VERTEX
8
0
10
1160.0
20
2400.0
0
VERTEX
8
0
10
1160.0
20
2420.0
0
VERTEX
8
0
10
1170.0
20
2422.679491924311
0
VERTEX
8
0
10
1177.3205080756888
20
2430.0
0
VERTEX
8
0
10
1180.0
20
2440.0
0
VERTEX
8
0
10
1200.0
20
2440.0
0
SEQEND
0
POLYLINE
8
0
66
1
10
0.0
20
0.0
30
0.0
0
VERTEX
8
0
10
1180.0
20
2440.0
0
VERTEX
8
0
10
1177.3205080756888
20
2430.0
0
VERTEX
8
0
10
1170.0
20
2422.679491924311
0
VERTEX
8
0
10
1160.0
20
2420.0
0
VERTEX
8
0
10
1160.0
20
2440.0
0
VERTEX
8
0
10
1160.0
20
2440.0
0
VERTEX
8
0
10
1160.0
20
2440.0
0
VERTEX
8
0
10
1160.0
20
2440.0
0
VERTEX
8
0
10
1180.0
20
2440.0
0
SEQEND
0
POLYLINE
8
0
66
1
10
0.0
20
0.0
30
0.0
0
VERTEX
8
0
10
775.0
20
2400.0
0
VERTEX
8
0
10
775.0
20
2390.0
0
VERTEX
8
0
10
785.0
20
2390.0
0
VERTEX
8
0
10
785.0
20
2400.0
0
VERTEX
8
0
10
775.0
20
2400.0
0
SEQEND
0
POLYLINE
8
0
66
1
10
0.0
20
0.0
30
0.0
0
VERTEX
8
0
10
785.0
20
2390.0
0
VERTEX
8
0
10
783.6602540378444
20
2395.0
0
VERTEX
8
0
10
780.0
20
2398.6602540378444
0
VERTEX
8
0
10
775.0
20
2400.0
0
VERTEX
8
0
10
775.0
20
2395.0
0
VERTEX
8
0
10
777.5
20
2394.330127018922
0
VERTEX
8
0
10
779.3301270189222
20
2392.5
0
VERTEX
8
0
10
780.0
20
2390.0
0
VERTEX
8
0
10
785.0
20
2390.0
0
SEQEND
0
POLYLINE
8
0
66
1
10
0.0
20
0.0
30
0.0
0
VERTEX
8
0
10
780.0
20
2390.0
0
VERTEX
8
0
10
779.3301270189222
20
2392.5
0
VERTEX
8
0
10
777.5
20
2394.330127018922
0
VERTEX
8
0
10
775.0
20
2395.0
0
VERTEX
8
0
10
775.0
20
2390.0
0
VERTEX
8
0
10
775.0
20
2390.0
0
VERTEX
8
0
10
775.0
20
2390.0
0
VERTEX
8
0
10
775.0
20
2390.0
0
VERTEX
8
0
10
780.0
20
2390.0
0
SEQEND
0
POLYLINE
8
0
66
1
10
0.0
20
0.0
30
0.0
0
VERTEX
8
0
10
815.0
20
2400.0
0
VERTEX
8
0
10
815.0
20
2390.0
0
VERTEX
8
0
10
825.0
20
2390.0
0
VERTEX
8
0
10
825.0
20
2400.0
0
VERTEX
8
0
10
815.0
20
2400.0
0
SEQEND
0
POLYLINE
8
0
66
1
10
0.0
20
0.0
30
0.0
0
VERTEX
8
0
10
815.0
20
2390.0
0
VERTEX
8
0
10
816.3397459621556
20
2395.0
0
VERTEX
8
0
10
820.0
20
2398.6602540378444
0
VERTEX
8
0
10
825.0
20
2400.0
0
VERTEX
8
0
10
825.0
20
2395.0
0
VERTEX
8
0
10
822.5
20
2394.330127018922
0
VERTEX
8
0
10
820.6698729810778
20
2392.5
0
VERTEX
8
0
10
820.0
20
2390.0
0
VERTEX
8
0
10
815.0
20
2390.0
0
SEQEND
0
POLYLINE
8
0
66
1
10
0.0
20
0.0
30
0.0
0
VERTEX
8
0
10
820.0
20
2390.0
0
VERTEX
8
0
10
820.6698729810778
20
2392.5
0
VERTEX
8
0
10
822.5
20
2394.330127018922
0
VERTEX
8
0
10
825.0
20
2395.0
0
VERTEX
8
0
10
825.0
20
2390.0
0
VERTEX
8
0
10
825.0
20
2390.0
0
VERTEX
8
0
10
825.0
20
2390.0
0
VERTEX
8
0
10
825.0
20
2390.0
0
VERTEX
8
0
10
820.0
20
2390.0
0
SEQEND
0
POLYLINE
8
0
66
1
10
0.0
20
0.0
30
0.0
0
VERTEX
8
0
10
1199.9999999999995
20
1370.0
0
VERTEX
8
0
10
1199.9999999999995
20
1410.0
0
VERTEX
8
0
10
1159.9999999999995
20
1410.0
0
VERTEX
8
0
10
1159.9999999999995
20
1370.0
0
VERTEX
8
0
10
1199.9999999999995
20
1370.0
0
SEQEND
0
POLYLINE
8
0
66
1
10
0.0
20
0.0
30
0.0
0
VERTEX
8
0
10
1199.9999999999995
20
1410.0
0
VERTEX
8
0
10
1194.641016151377
20
1390.0
0
VERTEX
8
0
10
1179.9999999999995
20
1375.3589838486225
0
VERTEX
8
0
10
1159.9999999999995
20
1370.0
0
VERTEX
8
0
10
1159.9999999999995
20
1390.0
0
VERTEX
8
0
10
1169.9999999999995
20
1392.6794919243112
0
VERTEX
8
0
10
1177.3205080756884
20
1400.0
0
VERTEX
8
0
10
1179.9999999999995
20
1410.0
0
VERTEX
8
0
10
1199.9999999999995
20
1410.0
0
SEQEND
0
POLYLINE
8
0
66
1
10
0.0
20
0.0
30
0.0
0
VERTEX
8
0
10
1179.9999999999995
20
1410.0
0
VERTEX
8
0
10
1177.3205080756884
20
1400.0
0
VERTEX
8
0
10
1169.9999999999995
20
1392.6794919243112
0
VERTEX
8
0
10
1159.9999999999995
20
1390.0
0
VERTEX
8
0
10
1159.9999999999995
20
1410.0
0
VERTEX
8
0
10
1159.9999999999995
20
1410.0
0
VERTEX
8
0
10
1159.9999999999995
20
1410.0
0
VERTEX
8
0
10
1159.9999999999995
20
1410.0
0
VERTEX
8
0
10
1179.9999999999995
20
1410.0
0
SEQEND
0
POLYLINE
8
0
66
1
10
0.0
20
0.0
30
0.0
0
VERTEX
8
0
10
439.99999999999955
20
1370.0
0
VERTEX
8
0
10
439.99999999999955
20
1410.0
0
VERTEX
8
0
10
399.99999999999955
20
1410.0
0
VERTEX
8
0
10
399.99999999999955
20
1370.0
0
VERTEX
8
0
10
439.99999999999955
20
1370.0
0
SEQEND
0
POLYLINE
8
0
66
1
10
0.0
20
0.0
30
0.0
0
VERTEX
8
0
10
399.99999999999955
20
1410.0
0
VERTEX
8
0
10
405.358983848622
20
1390.0
0
VERTEX
8
0
10
419.99999999999955
20
1375.3589838486225
0
VERTEX
8
0
10
439.99999999999955
20
1370.0
0
VERTEX
8
0
10
439.99999999999955
20
1390.0
0
VERTEX
8
0
10
429.99999999999955
20
1392.6794919243112
0
VERTEX
8
0
10
422.67949192431075
20
1400.0
0
VERTEX
8
0
10
419.99999999999955
20
1410.0
0
VERTEX
8
0
10
399.99999999999955
20
1410.0
0
SEQEND
0
POLYLINE
8
0
66
1
10
0.0
20
0.0
30
0.0
0
VERTEX
8
0
10
419.99999999999955
20
1410.0
0
VERTEX
8
0
10
422.67949192431075
20
1400.0
0
VERTEX
8
0
10
429.99999999999955
20
1392.6794919243112
0
VERTEX
8
0
10
439.99999999999955
20
1390.0
0
VERTEX
8
0
10
439.99999999999955
20
1410.0
0
VERTEX
8
0
10
439.99999999999955
20
1410.0
0
VERTEX
8
0
10
439.99999999999955
20
1410.0
0
VERTEX
8
0
10
439.99999999999955
20
1410.0
0
VERTEX
8
0
10
419.99999999999955
20
1410.0
0
SEQEND
0
POLYLINE
8
0
66
1
10
0.0
20
0.0
30
0.0
0
VERTEX
8
0
10
399.99999999999955
20
2170.0
0
VERTEX
8
0
10
399.99999999999955
20
2130.0
0
VERTEX
8
0
10
439.99999999999955
20
2130.0
0
VERTEX
8
0
10
439.99999999999955
20
2170.0
0
VERTEX
8
0
10
399.99999999999955
20
2170.0
0
SEQEND
0
POLYLINE
8
0
66
1
10
0.0
20
0.0
30
0.0
0
VERTEX
8
0
10
399.99999999999955
20
2130.0
0
VERTEX
8
0
10
405.358983848622
20
2150.0
0
VERTEX
8
0
10
419.99999999999955
20
2164.6410161513777
0
VERTEX
8
0
10
439.99999999999955
20
2170.0
0
VERTEX
8
0
10
439.99999999999955
20
2150.0
0
VERTEX
8
0
10
429.99999999999955
20
2147.320508075689
0
VERTEX
8
0
10
422.67949192431075
20
2140.0
0
VERTEX
8
0
10
419.99999999999955
20
2130.0
0
VERTEX
8
0
10
399.99999999999955
20
2130.0
0
SEQEND
0
POLYLINE
8
0
66
1
10
0.0
20
0.0
30
0.0
0
VERTEX
8
0
10
419.99999999999955
20
2130.0
0
VERTEX
8
0
10
422.67949192431075
20
2140.0
0
VERTEX
8
0
10
429.99999999999955
20
2147.320508075689
0
VERTEX
8
0
10
439.99999999999955
20
2150.0
0
VERTEX
8
0
10
439.99999999999955
20
2130.0
0
VERTEX
8
0
10
439.99999999999955
20
2130.0
0
VERTEX
8
0
10
439.99999999999955
20
2130.0
0
VERTEX
8
0
10
439.99999999999955
20
2130.0
0
VERTEX
8
0
10
419.99999999999955
20
2130.0
0
SEQEND
0
POLYLINE
8
0
66
1
10
0.0
20
0.0
30
0.0
0
VERTEX
8
0
10
1159.9999999999995
20
2170.0
0
VERTEX
8
0
10
1159.9999999999995
20
2130.0
0
VERTEX
8
0
10
1199.9999999999995
20
2130.0
0
VERTEX
8
0
10
1199.9999999999995
20
2170.0
0
VERTEX
8
0
10
1159.9999999999995
20
2170.0
0
SEQEND
0
POLYLINE
8
0
66
1
10
0.0
20
0.0
30
0.0
0
VERTEX
8
0
10
1199.9999999999995
20
2130.0
0
VERTEX
8
0
10
1194.641016151377
20
2150.0
0
VERTEX
8
0
10
1179.9999999999995
20
2164.6410161513777
0
VERTEX
8
0
10
1159.9999999999995
20
2170.0
0
VERTEX
8
0
10
1159.9999999999995
20
2150.0
0
VERTEX
8
0
10
1169.9999999999995
20
2147.320508075689
0
VERTEX
8
0
10
1177.3205080756884
20
2140.0
0
VERTEX
8
0
10
1179.9999999999995
20
2130.0
0
VERTEX
8
0
10
1199.9999999999995
20
2130.0
0
SEQEND
0
POLYLINE
8
0
66
1
10
0.0
20
0.0
30
0.0
0
VERTEX
8
0
10
1179.9999999999995
20
2130.0
0
VERTEX
8
0
10
1177.3205080756884
20
2140.0
0
VERTEX
8
0
10
1169.9999999999995
20
2147.320508075689
0
VERTEX
8
0
10
1159.9999999999995
20
2150.0
0
VERTEX
8
0
10
1159.9999999999995
20
2130.0
0
VERTEX
8
0
10
1159.9999999999995
20
2130.0
0
VERTEX
8
0
10
1159.9999999999995
20
2130.0
0
VERTEX
8
0
10
1159.9999999999995
20
2130.0
0
VERTEX
8
0
10
1179.9999999999995
20
2130.0
0
SEQEND
0
POLYLINE
8
0
66
1
10
0.0
20
0.0
30
0.0
0
VERTEX
8
0
10
784.9999999999995
20
2170.0
0
VERTEX
8
0
10
784.9999999999995
20
2180.0
0
VERTEX
8
0
10
774.9999999999995
20
2180.0
0
VERTEX
8
0
10
774.9999999999995
20
2170.0
0
VERTEX
8
0
10
784.9999999999995
20
2170.0
0
SEQEND
0
POLYLINE
8
0
66
1
10
0.0
20
0.0
30
0.0
0
VERTEX
8
0
10
784.9999999999995
20
2180.0
0
VERTEX
8
0
10
783.660254037844
20
2175.0
0
VERTEX
8
0
10
779.9999999999995
20
2171.3397459621556
0
VERTEX
8
0
10
774.9999999999995
20
2170.0
0
VERTEX
8
0
10
774.9999999999995
20
2175.0
0
VERTEX
8
0
10
777.4999999999995
20
2175.669872981078
0
VERTEX
8
0
10
779.3301270189218
20
2177.5
0
VERTEX
8
0
10
779.9999999999995
20
2180.0
0
VERTEX
8
0
10
784.9999999999995
20
2180.0
0
SEQEND
0
POLYLINE
8
0
66
1
10
0.0
20
0.0
30
0.0
0
VERTEX
8
0
10
779.9999999999995
20
2180.0
0
VERTEX
8
0
10
779.3301270189218
20
2177.5
0
VERTEX
8
0
10
777.4999999999995
20
2175.669872981078
0
VERTEX
8
0
10
774.9999999999995
20
2175.0
0
VERTEX
8
0
10
774.9999999999995
20
2180.0
0
VERTEX
8
0
10
774.9999999999995
20
2180.0
0
VERTEX
8
0
10
774.9999999999995
20
2180.0
0
VERTEX
8
0
10
774.9999999999995
20
2180.0
0
VERTEX
8
0
10
779.9999999999995
20
2180.0
0
SEQEND
0
POLYLINE
8
0
66
1
10
0.0
20
0.0
30
0.0
0
VERTEX
8
0
10
824.9999999999995
20
2170.0
0
VERTEX
8
0
10
824.9999999999995
20
2180.0
0
VERTEX
8
0
10
814.9999999999995
20
2180.0
0
VERTEX
8
0
10
814.9999999999995
20
2170.0
0
VERTEX
8
0
10
824.9999999999995
20
2170.0
0
SEQEND
0
POLYLINE
8
0
66
1
10
0.0
20
0.0
30
0.0
0
VERTEX
8
0
10
814.9999999999995
20
2180.0
0
VERTEX
8
0
10
816.3397459621551
20
2175.0
0
VERTEX
8
0
10
819.9999999999995
20
2171.3397459621556
0
VERTEX
8
0
10
824.9999999999995
20
2170.0
0
VERTEX
8
0
10
824.9999999999995
20
2175.0
0
VERTEX
8
0
10
822.4999999999995
20
2175.669872981078
0
VERTEX
8
0
10
820.6698729810773
20
2177.5
0
VERTEX
8
0
10
819.9999999999995
20
2180.0
0
VERTEX
8
0
10
814.9999999999995
20
2180.0
0
SEQEND
0
POLYLINE
8
0
66
1
10
0.0
20
0.0
30
0.0
0
VERTEX
8
0
10
819.9999999999995
20
2180.0
0
VERTEX
8
0
10
820.6698729810773
20
2177.5
0
VERTEX
8
0
10
822.4999999999995
20
2175.669872981078
0
VERTEX
8
0
10
824.9999999999995
20
2175.0
0
VERTEX
8
0
10
824.9999999999995
20
2180.0
0
VERTEX
8
0
10
824.9999999999995
20
2180.0
0
VERTEX
8
0
10
824.9999999999995
20
2180.0
0
VERTEX
8
0
10
824.9999999999995
20
2180.0
0
VERTEX
8
0
10
819.9999999999995
20
2180.0
0
SEQEND
0
POLYLINE
8
0
66
1
10
0.0
20
0.0
30
0.0
0
VERTEX
8
0
10
700.0
20
3250.0
0
VERTEX
8
0
10
700.0
20
3350.0
0
VERTEX
8
0
10
775.0
20
3350.0
0
VERTEX
8
0
10
775.0
20
3250.0
0
VERTEX
8
0
10
750.0
20
3250.0
0
VERTEX
8
0
10
750.0
20
3337.5
0
VERTEX
8
0
10
725.0
20
3337.5
0
VERTEX
8
0
10
725.0
20
3250.0
0
VERTEX
8
0
10
700.0
20
3250.0
0
SEQEND
0
POLYLINE
8
0
66
1
10
0.0
20
0.0
30
0.0
0
VERTEX
8
0
10
725.0
20
3300.0
0
VERTEX
8
0
10
725.0
20
3312.5
0
VERTEX
8
0
10
750.0
20
3312.5
0
VERTEX
8
0
10
750.0
20
3300.0
0
VERTEX
8
0
10
725.0
20
3300.0
0
SEQEND
0
POLYLINE
8
0
66
1
10
0.0
20
0.0
30
0.0
0
VERTEX
8
0
10
800.0
20
3262.5
0
VERTEX
8
0
10
825.0
20
3250.0
0
VERTEX
8
0
10
825.0
20
3350.0
0
VERTEX
8
0
10
800.0
20
3337.5
0
VERTEX
8
0
10
800.0
20
3262.5
0
SEQEND
0
POLYLINE
8
0
66
1
10
0.0
20
0.0
30
0.0
0
VERTEX
8
0
10
825.0
20
3250.0
0
VERTEX
8
0
10
850.0
20
3250.0
0
VERTEX
8
0
10
875.0
20
3262.5
0
VERTEX
8
0
10
875.0
20
3337.5
0
VERTEX
8
0
10
850.0
20
3350.0
0
VERTEX
8
0
10
825.0
20
3350.0
0
VERTEX
8
0
10
825.0
20
3337.5
0
VERTEX
8
0
10
850.0
20
3337.5
0
VERTEX
8
0
10
850.0
20
3262.5
0
VERTEX
8
0
10
825.0
20
3262.5
0
VERTEX
8
0
10
825.0
20
3250.0
0
SEQEND
0
POLYLINE
8
0
66
1
10
0.0
20
0.0
30
0.0
0
VERTEX
8
0
10
825.0
20
3262.5
0
VERTEX
8
0
10
837.5
20
3262.5
0
VERTEX
8
0
10
850.0
20
3331.25
0
VERTEX
8
0
10
850.0
20
3337.5
0
VERTEX
8
0
10
837.5
20
3337.5
0
VERTEX
8
0
10
825.0
20
3268.75
0
VERTEX
8
0
10
825.0
20
3262.5
0
SEQEND
0
POLYLINE
8
0
66
1
10
0.0
20
0.0
30
0.0
0
VERTEX
8
0
10
400.0
20
5200.0
0
VERTEX
8
0
10
399.9999999999999
20
4400.0
0
VERTEX
8
0
10
1200.0
20
4400.0
0
VERTEX
8
0
10
1200.0
20
5200.0
0
VERTEX
8
0
10
400.0
20
5200.0
0
SEQEND
0
POLYLINE
8
0
66
1
10
0.0
20
0.0
30
0.0
0
VERTEX
8
0
10
784.9999999999999
20
4400.0
0
VERTEX
8
0
10
784.9999999999999
20
4300.0
0
VERTEX
8
0
10
814.9999999999999
20
4300.0
0
VERTEX
8
0
10
814.9999999999999
20
4400.0
0
VERTEX
8
0
10
784.9999999999999
20
4400.0
0
SEQEND
0
POLYLINE
8
0
66
1
10
0.0
20
0.0
30
0.0
0
VERTEX
8
0
10
802.4999999999999
20
4300.0
0
VERTEX
8
0
10
802.4999999999999
20
4305.0
0
VERTEX
8
0
10
797.4999999999999
20
4305.0
0
VERTEX
8
0
10
797.4999999999999
20
4300.0
0
VERTEX
8
0
10
802.4999999999999
20
4300.0
0
SEQEND
0
POLYLINE
8
0
66
1
10
0.0
20
0.0
30
0.0
0
VERTEX
8
0
10
807.4999999999999
20
4305.0
0
VERTEX
8
0
10
807.4999999999999
20
4310.0
0
VERTEX
8
0
10
792.4999999999999
20
4310.0
0
VERTEX
8
0
10
792.4999999999999
20
4305.0
0
VERTEX
8
0
10
807.4999999999999
20
4305.0
0
SEQEND
0
POLYLINE
8
0
66
1
10
0.0
20
0.0
30
0.0
0
VERTEX
8
0
10
797.4999999999999
20
4270.0
0
VERTEX
8
0
10
797.4999999999999
20
4265.0
0
VERTEX
8
0
10
802.4999999999999
20
4265.0
0
VERTEX
8
0
10
802.4999999999999
20
4270.0
0
VERTEX
8
0
10
797.4999999999999
20
4270.0
0
SEQEND
0
POLYLINE
8
0
66
1
10
0.0
20
0.0
30
0.0
0
VERTEX
8
0
10
792.4999999999999
20
4265.0
0
VERTEX
8
0
10
792.4999999999999
20
4260.0
0
VERTEX
8
0
10
807.4999999999999
20
4260.0
0
VERTEX
8
0
10
807.4999999999999
20
4265.0
0
VERTEX
8
0
10
792.4999999999999
20
4265.0
0
SEQEND
0
POLYLINE
8
0
66
1
10
0.0
20
0.0
30
0.0
0
VERTEX
8
0
10
784.9999999999999
20
4270.0
0
VERTEX
8
0
10
784.9999999999999
20
4170.0
0
VERTEX
8
0
10
814.9999999999999
20
4170.0
0
VERTEX
8
0
10
814.9999999999999
20
4270.0
0
VERTEX
8
0
10
784.9999999999999
20
4270.0
0
SEQEND
0
POLYLINE
8
0
66
1
10
0.0
20
0.0
30
0.0
0
VERTEX
8
0
10
399.9999999999999
20
4170.0
0
VERTEX
8
0
10
399.99999999999955
20
3370.0
0
VERTEX
8
0
10
1199.9999999999995
20
3370.0
0
VERTEX
8
0
10
1200.0
20
4170.0
0
VERTEX
8
0
10
399.9999999999999
20
4170.0
0
SEQEND
0
POLYLINE
8
0
66
1
10
0.0
20
0.0
30
0.0
0
VERTEX
8
0
10
1160.0
20
5200.0
0
VERTEX
8
0
10
1160.0
20
5160.0
0
VERTEX
8
0
10
1200.0
20
5160.0
0
VERTEX
8
0
10
1200.0
20
5200.0
0
VERTEX
8
0
10
1160.0
20
5200.0
0
SEQEND
0
POLYLINE
8
0
66
1
10
0.0
20
0.0
30
0.0
0
VERTEX
8
0
10
1200.0
20
5160.0
0
VERTEX
8
0
10
1194.6410161513775
20
5180.0
0
VERTEX
8
0
10
1180.0
20
5194.641016151378
0
VERTEX
8
0
10
1160.0
20
5200.0
0
VERTEX
8
0
10
1160.0
20
5180.0
0
VERTEX
8
0
10
1170.0
20
5177.320508075689
0
VERTEX
8
0
10
1177.3205080756888
20
5170.0
0
VERTEX
8
0
10
1180.0
20
5160.0
0
VERTEX
8
0
10
1200.0
20
5160.0
0
SEQEND
0
POLYLINE
8
0
66
1
10
0.0
20
0.0
30
0.0
0
VERTEX
8
0
10
1180.0
20
5160.0
0
VERTEX
8
0
10
1177.3205080756888
20
5170.0
0
VERTEX
8
0
10
1170.0
20
5177.320508075689
0
VERTEX
8
0
10
1160.0
20
5180.0
0
VERTEX
8
0
10
1160.0
20
5160.0
0
VERTEX
8
0
10
1160.0
20
5160.0
0
VERTEX
8
0
10
1160.0
20
5160.0
0
VERTEX
8
0
10
1160.0
20
5160.0
0
VERTEX
8
0
10
1180.0
20
5160.0
0
SEQEND
0
POLYLINE
8
0
66
1
10
0.0
20
0.0
30
0.0
0
VERTEX
8
0
10
400.0
20
5200.0
0
VERTEX
8
0
10
400.0
20
5160.0
0
VERTEX
8
0
10
440.0
20
5160.0
0
VERTEX
8
0
10
440.0
20
5200.0
0
VERTEX
8
0
10
400.0
20
5200.0
0
SEQEND
0
POLYLINE
8
0
66
1
10
0.0
20
0.0
30
0.0
0
VERTEX
8
0
10
400.0
20
5160.0
0
VERTEX
8
0
10
405.3589838486225
20
5180.0
0
VERTEX
8
0
10
420.0
20
5194.641016151378
0
VERTEX
8
0
10
440.0
20
5200.0
0
VERTEX
8
0
10
440.0
20
5180.0
0
VERTEX
8
0
10
430.0
20
5177.320508075689
0
VERTEX
8
0
10
422.6794919243112
20
5170.0
0
VERTEX
8
0
10
420.0
20
5160.0
0
VERTEX
8
0
10
400.0
20
5160.0
0
SEQEND
0
POLYLINE
8
0
66
1
10
0.0
20
0.0
30
0.0
0
VERTEX
8
0
10
420.0
20
5160.0
0
VERTEX
8
0
10
422.6794919243112
20
5170.0
0
VERTEX
8
0
10
430.0
20
5177.320508075689
0
VERTEX
8
0
10
440.0
20
5180.0
0
VERTEX
8
0
10
440.0
20
5160.0
0
VERTEX
8
0
10
440.0
20
5160.0
0
VERTEX
8
0
10
440.0
20
5160.0
0
VERTEX
8
0
10
440.0
20
5160.0
0
VERTEX
8
0
10
420.0
20
5160.0
0
SEQEND
0
POLYLINE
8
0
66
1
10
0.0
20
0.0
30
0.0
0
VERTEX
8
0
10
440.0
20
4400.0
0
VERTEX
8
0
10
440.0
20
4440.0
0
VERTEX
8
0
10
400.0
20
4440.0
0
VERTEX
8
0
10
400.0
20
4400.0
0
VERTEX
8
0
10
440.0
20
4400.0
0
SEQEND
0
POLYLINE
8
0
66
1
10
0.0
20
0.0
30
0.0
0
VERTEX
8
0
10
400.0
20
4440.0
0
VERTEX
8
0
10
405.3589838486225
20
4420.0
0
VERTEX
8
0
10
420.0
20
4405.358983848622
0
VERTEX
8
0
10
440.0
20
4400.0
0
VERTEX
8
0
10
440.0
20
4420.0
0
VERTEX
8
0
10
430.0
20
4422.679491924311
0
VERTEX
8
0
10
422.6794919243112
20
4430.0
0
VERTEX
8
0
10
420.0
20
4440.0
0
VERTEX
8
0
10
400.0
20
4440.0
0
SEQEND
0
POLYLINE
8
0
66
1
10
0.0
20
0.0
30
0.0
0
VERTEX
8
0
10
420.0
20
4440.0
0
VERTEX
8
0
10
422.6794919243112
20
4430.0
0
VERTEX
8
0
10
430.0
20
4422.679491924311
0
VERTEX
8
0
10
440.0
20
4420.0
0
VERTEX
8
0
10
440.0
20
4440.0
0
VERTEX
8
0
10
440.0
20
4440.0
0
VERTEX
8
0
10
440.0
20
4440.0
0
VERTEX
8
0
10
440.0
20
4440.0
0
VERTEX
8
0
10
420.0
20
4440.0
0
SEQEND
0
POLYLINE
8
0
66
1
10
0.0
20
0.0
30
0.0
0
VERTEX
8
0
10
1200.0
20
4400.0
0
VERTEX
8
0
10
1200.0
20
4440.0
0
VERTEX
8
0
10
1160.0
20
4440.0
0
VERTEX
8
0
10
1160.0
20
4400.0
0
VERTEX
8
0
10
1200.0
20
4400.0
0
SEQEND
0
POLYLINE
8
0
66
1
10
0.0
20
0.0
30
0.0
0
VERTEX
8
0
10
1200.0
20
4440.0
0
VERTEX
8
0
10
1194.6410161513775
20
4420.0
0
VERTEX
8
0
10
1180.0
20
4405.358983848622
0
VERTEX
8
0
10
1160.0
20
4400.0
0
VERTEX
8
0
10
1160.0
20
4420.0
0
VERTEX
8
0
10
1170.0
20
4422.679491924311
0
VERTEX
8
0
10
1177.3205080756888
20
4430.0
0
VERTEX
8
0
10
1180.0
20
4440.0
0
VERTEX
8
0
10
1200.0
20
4440.0
0
SEQEND
0
POLYLINE
8
0
66
1
10
0.0
20
0.0
30
0.0
0
VERTEX
8
0
10
1180.0
20
4440.0
0
VERTEX
8
0
10
1177.3205080756888
20
4430.0
0
VERTEX
8
0
10
1170.0
20
4422.679491924311
0
VERTEX
8
0
10
1160.0
20
4420.0
0
VERTEX
8
0
10
1160.0
20
4440.0
0
VERTEX
8
0
10
1160.0
20
4440.0
0
VERTEX
8
0
10
1160.0
20
4440.0
0
VERTEX
8
0
10
1160.0
20
4440.0
0
VERTEX
8
0
10
1180.0
20
4440.0
0
SEQEND
0
POLYLINE
8
0
66
1
10
0.0
20
0.0
30
0.0
0
VERTEX
8
0
10
775.0
20
4400.0
0
VERTEX
8
0
10
775.0
20
4390.0
0
VERTEX
8
0
10
785.0
20
4390.0
0
VERTEX
8
0
10
785.0
20
4400.0
0
VERTEX
8
0
10
775.0
20
4400.0
0
SEQEND
0
POLYLINE
8
0
66
1
10
0.0
20
0.0
30
0.0
0
VERTEX
8
0
10
785.0
20
4390.0
0
VERTEX
8
0
10
783.6602540378444
20
4395.0
0
VERTEX
8
0
10
780.0
20
4398.660254037844
0
VERTEX
8
0
10
775.0
20
4400.0
0
VERTEX
8
0
10
775.0
20
4395.0
0
VERTEX
8
0
10
777.5
20
4394.330127018922
0
VERTEX
8
0
10
779.3301270189222
20
4392.5
0
VERTEX
8
0
10
780.0
20
4390.0
0
VERTEX
8
0
10
785.0
20
4390.0
0
SEQEND
0
POLYLINE
8
0
66
1
10
0.0
20
0.0
30
0.0
0
VERTEX
8
0
10
780.0
20
4390.0
0
VERTEX
8
0
10
779.3301270189222
20
4392.5
0
VERTEX
8
0
10
777.5
20
4394.330127018922
0
VERTEX
8
0
10
775.0
20
4395.0
0
VERTEX
8
0
10
775.0
20
4390.0
0
VERTEX
8
0
10
775.0
20
4390.0
0
VERTEX
8
0
10
775.0
20
4390.0
0
VERTEX
8
0
10
775.0
20
4390.0
0
VERTEX
8
0
10
780.0
20
4390.0
0
SEQEND
0
POLYLINE
8
0
66
1
10
0.0
20
0.0
30
0.0
0
VERTEX
8
0
10
815.0
20
4400.0
0
VERTEX
8
0
10
815.0
20
4390.0
0
VERTEX
8
0
10
825.0
20
4390.0
0
VERTEX
8
0
10
825.0
20
4400.0
0
VERTEX
8
0
10
815.0
20
4400.0
0
SEQEND
0
POLYLINE
8
0
66
1
10
0.0
20
0.0
30
0.0
0
VERTEX
8
0
10
815.0
20
4390.0
0
VERTEX
8
0
10
816.3397459621556
20
4395.0
0
VERTEX
8
0
10
820.0
20
4398.660254037844
0
VERTEX
8
0
10
825.0
20
4400.0
0
VERTEX
8
0
10
825.0
20
4395.0
0
VERTEX
8
0
10
822.5
20
4394.330127018922
0
VERTEX
8
0
10
820.6698729810778
20
4392.5
0
VERTEX
8
0
10
820.0
20
4390.0
0
VERTEX
8
0
10
815.0
20
4390.0
0
SEQEND
0
POLYLINE
8
0
66
1
10
0.0
20
0.0
30
0.0
0
VERTEX
8
0
10
820.0
20
4390.0
0
VERTEX
8
0
10
820.6698729810778
20
4392.5
0
VERTEX
8
0
10
822.5
20
4394.330127018922
0
VERTEX
8
0
10
825.0
20
4395.0
0
VERTEX
8
0
10
825.0
20
4390.0
0
VERTEX
8
0
10
825.0
20
4390.0
0
VERTEX
8
0
10
825.0
20
4390.0
0
VERTEX
8
0
10
825.0
20
4390.0
0
VERTEX
8
0
10
820.0
20
4390.0
0
SEQEND
0
POLYLINE
8
0
66
1
10
0.0
20
0.0
30
0.0
0
VERTEX
8
0
10
1199.9999999999995
20
3370.0
0
VERTEX
8
0
10
1199.9999999999995
20
3410.0
0
VERTEX
8
0
10
1159.9999999999995
20
3410.0
0
VERTEX
8
0
10
1159.9999999999995
20
3370.0
0
VERTEX
8
0
10
1199.9999999999995
20
3370.0
0
SEQEND
0
POLYLINE
8
0
66
1
10
0.0
20
0.0
30
0.0
0
VERTEX
8
0
10
1199.9999999999995
20
3410.0
0
VERTEX
8
0
10
1194.641016151377
20
3390.0
0
VERTEX
8
0
10
1179.9999999999995
20
3375.3589838486223
0
VERTEX
8
0
10
1159.9999999999995
20
3370.0
0
VERTEX
8
0
10
1159.9999999999995
20
3390.0
0
VERTEX
8
0
10
1169.9999999999995
20
3392.679491924311
0
VERTEX
8
0
10
1177.3205080756884
20
3400.0
0
VERTEX
8
0
10
1179.9999999999995
20
3410.0
0
VERTEX
8
0
10
1199.9999999999995
20
3410.0
0
SEQEND
0
POLYLINE
8
0
66
1
10
0.0
20
0.0
30
0.0
0
VERTEX
8
0
10
1179.9999999999995
20
3410.0
0
VERTEX
8
0
10
1177.3205080756884
20
3400.0
0
VERTEX
8
0
10
1169.9999999999995
20
3392.679491924311
0
VERTEX
8
0
10
1159.9999999999995
20
3390.0
0
VERTEX
8
0
10
1159.9999999999995
20
3410.0
0
VERTEX
8
0
10
1159.9999999999995
20
3410.0
0
VERTEX
8
0
10
1159.9999999999995
20
3410.0
0
VERTEX
8
0
10
1159.9999999999995
20
3410.0
0
VERTEX
8
0
10
1179.9999999999995
20
3410.0
0
SEQEND
0
POLYLINE
8
0
66
1
10
0.0
20
0.0
30
0.0
0
VERTEX
8
0
10
439.99999999999955
20
3370.0
0
VERTEX
8
0
10
439.99999999999955
20
3410.0
0
VERTEX
8
0
10
399.99999999999955
20
3410.0
0
VERTEX
8
0
10
399.99999999999955
20
3370.0
0
VERTEX
8
0
10
439.99999999999955
20
3370.0
0
SEQEND
0
POLYLINE
8
0
66
1
10
0.0
20
0.0
30
0.0
0
VERTEX
8
0
10
399.99999999999955
20
3410.0
0
VERTEX
8
0
10
405.358983848622
20
3390.0
0
VERTEX
8
0
10
419.99999999999955
20
3375.3589838486223
0
VERTEX
8
0
10
439.99999999999955
20
3370.0
0
VERTEX
8
0
10
439.99999999999955
20
3390.0
0
VERTEX
8
0
10
429.99999999999955
20
3392.679491924311
0
VERTEX
8
0
10
422.67949192431075
20
3400.0
0
VERTEX
8
0
10
419.99999999999955
20
3410.0
0
VERTEX
8
0
10
399.99999999999955
20
3410.0
0
SEQEND
0
POLYLINE
8
0
66
1
10
0.0
20
0.0
30
0.0
0
VERTEX
8
0
10
419.99999999999955
20
3410.0
0
VERTEX
8
0
10
422.67949192431075
20
3400.0
0
VERTEX
8
0
10
429.99999999999955
20
3392.679491924311
0
VERTEX
8
0
10
439.99999999999955
20
3390.0
0
VERTEX
8
0
10
439.99999999999955
20
3410.0
0
VERTEX
8
0
10
439.99999999999955
20
3410.0
0
VERTEX
8
0
10
439.99999999999955
20
3410.0
0
VERTEX
8
0
10
439.99999999999955
20
3410.0
0
VERTEX
8
0
10
419.99999999999955
20
3410.0
0
SEQEND
0
POLYLINE
8
0
66
1
10
0.0
20
0.0
30
0.0
0
VERTEX
8
0
10
399.99999999999955
20
4170.0
0
VERTEX
8
0
10
399.99999999999955
20
4130.0
0
VERTEX
8
0
10
439.99999999999955
20
4130.0
0
VERTEX
8
0
10
439.99999999999955
20
4170.0
0
VERTEX
8
0
10
399.99999999999955
20
4170.0
0
SEQEND
0
POLYLINE
8
0
66
1
10
0.0
20
0.0
30
0.0
0
VERTEX
8
0
10
399.99999999999955
20
4130.0
0
VERTEX
8
0
10
405.358983848622
20
4150.0
0
VERTEX
8
0
10
419.99999999999955
20
4164.641016151378
0
VERTEX
8
0
10
439.99999999999955
20
4170.0
0
VERTEX
8
0
10
439.99999999999955
20
4150.0
0
VERTEX
8
0
10
429.99999999999955
20
4147.320508075689
0
VERTEX
8
0
10
422.67949192431075
20
4140.0
0
VERTEX
8
0
10
419.99999999999955
20
4130.0
0
VERTEX
8
0
10
399.99999999999955
20
4130.0
0
SEQEND
0
POLYLINE
8
0
66
1
10
0.0
20
0.0
30
0.0
0
VERTEX
8
0
10
419.99999999999955
20
4130.0
0
VERTEX
8
0
10
422.67949192431075
20
4140.0
0
VERTEX
8
0
10
429.99999999999955
20
4147.320508075689
0
VERTEX
8
0
10
439.99999999999955
20
4150.0
0
VERTEX
8
0
10
439.99999999999955
20
4130.0
0
VERTEX
8
0
10
439.99999999999955
20
4130.0
0
VERTEX
8
0
10
439.99999999999955
20
4130.0
0
VERTEX
8
0
10
439.99999999999955
20
4130.0
0
VERTEX
8
0
10
419.99999999999955
20
4130.0
0
SEQEND
0
POLYLINE
8
0
66
1
10
0.0
20
0.0
30
0.0
0
VERTEX
8
0
10
1159.9999999999995
20
4170.0
0
VERTEX
8
0
10
1159.9999999999995
20
4130.0
0
VERTEX
8
0
10
1199.9999999999995
20
4130.0
0
VERTEX
8
0
10
1199.9999999999995
20
4170.0
0
VERTEX
8
0
10
1159.9999999999995
20
4170.0
0
SEQEND
0
POLYLINE
8
0
66
1
10
0.0
20
0.0
30
0.0
0
VERTEX
8
0
10
1199.9999999999995
20
4130.0
0
VERTEX
8
0
10
1194.641016151377
20
4150.0
0
VERTEX
8
0
10
1179.9999999999995
20
4164.641016151378
0
VERTEX
8
0
10
1159.9999999999995
20
4170.0
0
VERTEX
8
0
10
1159.9999999999995
20
4150.0
0
VERTEX
8
0
10
1169.9999999999995
20
4147.320508075689
0
VERTEX
8
0
10
1177.3205080756884
20
4140.0
0
VERTEX
8
0
10
1179.9999999999995
20
4130.0
0
VERTEX
8
0
10
1199.9999999999995
20
4130.0
0
SEQEND
0
POLYLINE
8
0
66
1
10
0.0
20
0.0
30
0.0
0
VERTEX
8
0
10
1179.9999999999995
20
4130.0
0
VERTEX
8
0
10
1177.3205080756884
20
4140.0
0
VERTEX
8
0
10
1169.9999999999995
20
4147.320508075689
0
VERTEX
8
0
10
1159.9999999999995
20
4150.0
0
VERTEX
8
0
10
1159.9999999999995
20
4130.0
0
VERTEX
8
0
10
1159.9999999999995
20
4130.0
0
VERTEX
8
0
10
1159.9999999999995
20
4130.0
0
VERTEX
8
0
10
1159.9999999999995
20
4130.0
0
VERTEX
8
0
10
1179.9999999999995
20
4130.0
0
SEQEND
0
POLYLINE
8
0
66
1
10
0.0
20
0.0
30
0.0
0
VERTEX
8
0
10
784.9999999999995
20
4170.0
0
VERTEX
8
0
10
784.9999999999995
20
4180.0
0
VERTEX
8
0
10
774.9999999999995
20
4180.0
0
VERTEX
8
0
10
774.9999999999995
20
4170.0
0
VERTEX
8
0
10
784.9999999999995
20
4170.0
0
SEQEND
0
POLYLINE
8
0
66
1
10
0.0
20
0.0
30
0.0
0
VERTEX
8
0
10
784.9999999999995
20
4180.0
0
VERTEX
8
0
10
783.660254037844
20
4175.0
0
VERTEX
8
0
10
779.9999999999995
20
4171.339745962156
0
VERTEX
8
0
10
774.9999999999995
20
4170.0
0
VERTEX
8
0
10
774.9999999999995
20
4175.0
0
VERTEX
8
0
10
777.4999999999995
20
4175.669872981078
0
VERTEX
8
0
10
779.3301270189218
20
4177.5
0
VERTEX
8
0
10
779.9999999999995
20
4180.0
0
VERTEX
8
0
10
784.9999999999995
20
4180.0
0
SEQEND
0
POLYLINE
8
0
66
1
10
0.0
20
0.0
30
0.0
0
VERTEX
8
0
10
779.9999999999995
20
4180.0
0
VERTEX
8
0
10
779.3301270189218
20
4177.5
0
VERTEX
8
0
10
777.4999999999995
20
4175.669872981078
0
VERTEX
8
0
10
774.9999999999995
20
4175.0
0
VERTEX
8
0
10
774.9999999999995
20
4180.0
0
VERTEX
8
0
10
774.9999999999995
20
4180.0
0
VERTEX
8
0
10
774.9999999999995
20
4180.0
0
VERTEX
8
0
10
774.9999999999995
20
4180.0
0
VERTEX
8
0
10
779.9999999999995
20
4180.0
0
SEQEND
0
POLYLINE
8
0
66
1
10
0.0
20
0.0
30
0.0
0
VERTEX
8
0
10
824.9999999999995
20
4170.0
0
VERTEX
8
0
10
824.9999999999995
20
4180.0
0
VERTEX
8
0
10
814.9999999999995
20
4180.0
0
VERTEX
8
0
10
814.9999999999995
20
4170.0
0
VERTEX
8
0
10
824.9999999999995
20
4170.0
0
SEQEND
0
POLYLINE
8
0
66
1
10
0.0
20
0.0
30
0.0
0
VERTEX
8
0
10
814.9999999999995
20
4180.0
0
VERTEX
8
0
10
816.3397459621551
20
4175.0
0
VERTEX
8
0
10
819.9999999999995
20
4171.339745962156
0
VERTEX
8
0
10
824.9999999999995
20
4170.0
0
VERTEX
8
0
10
824.9999999999995
20
4175.0
0
VERTEX
8
0
10
822.4999999999995
20
4175.669872981078
0
VERTEX
8
0
10
820.6698729810773
20
4177.5
0
VERTEX
8
0
10
819.9999999999995
20
4180.0
0
VERTEX
8
0
10
814.9999999999995
20
4180.0
0
SEQEND
0
POLYLINE
8
0
66
1
10
0.0
20
0.0
30
0.0
0
VERTEX
8
0
10
819.9999999999995
20
4180.0
0
VERTEX
8
0
10
820.6698729810773
20
4177.5
0
VERTEX
8
0
10
822.4999999999995
20
4175.669872981078
0
VERTEX
8
0
10
824.9999999999995
20
4175.0
0
VERTEX
8
0
10
824.9999999999995
20
4180.0
0
VERTEX
8
0
10
824.9999999999995
20
4180.0
0
VERTEX
8
0
10
824.9999999999995
20
4180.0
0
VERTEX
8
0
10
824.9999999999995
20
4180.0
0
VERTEX
8
0
10
819.9999999999995
20
4180.0
0
SEQEND
0
POLYLINE
8
0
66
1
10
0.0
20
0.0
30
0.0
0
VERTEX
8
0
10
700.0
20
5250.0
0
VERTEX
8
0
10
700.0
20
5350.0
0
VERTEX
8
0
10
775.0
20
5350.0
0
VERTEX
8
0
10
775.0
20
5250.0
0
VERTEX
8
0
10
750.0
20
5250.0
0
VERTEX
8
0
10
750.0
20
5337.5
0
VERTEX
8
0
10
725.0
20
5337.5
0
VERTEX
8
0
10
725.0
20
5250.0
0
VERTEX
8
0
10
700.0
20
5250.0
0
SEQEND
0
POLYLINE
8
0
66
1
10
0.0
20
0.0
30
0.0
0
VERTEX
8
0
10
725.0
20
5300.0
0
VERTEX
8
0
10
725.0
20
5312.5
0
VERTEX
8
0
10
750.0
20
5312.5
0
VERTEX
8
0
10
750.0
20
5300.0
0
VERTEX
8
0
10
725.0
20
5300.0
0
SEQEND
0
POLYLINE
8
0
66
1
10
0.0
20
0.0
30
0.0
0
VERTEX
8
0
10
800.0
20
5250.0
0
VERTEX
8
0
10
875.0
20
5250.0
0
VERTEX
8
0
10
875.0
20
5262.5
0
VERTEX
8
0
10
850.0
20
5262.5
0
VERTEX
8
0
10
850.0
20
5350.0
0
VERTEX
8
0
10
825.0
20
5350.0
0
VERTEX
8
0
10
800.0
20
5337.5
0
VERTEX
8
0
10
800.0
20
5325.0
0
VERTEX
8
0
10
825.0
20
5325.0
0
VERTEX
8
0
10
825.0
20
5262.5
0
VERTEX
8
0
10
800.0
20
5262.5
0
VERTEX
8
0
10
800.0
20
5250.0
0
VERTEX
8
0
10
800.0
20
5250.0
0
SEQEND
0
POLYLINE
8
0
66
1
10
0.0
20
0.0
30
0.0
0
VERTEX
8
0
10
400.0
20
7200.0
0
VERTEX
8
0
10
399.9999999999999
20
6400.0
0
VERTEX
8
0
10
1200.0
20
6400.0
0
VERTEX
8
0
10
1200.0
20
7200.0
0
VERTEX
8
0
10
400.0
20
7200.0
0
SEQEND
0
POLYLINE
8
0
66
1
10
0.0
20
0.0
30
0.0
0
VERTEX
8
0
10
784.9999999999999
20
6400.0
0
VERTEX
8
0
10
784.9999999999999
20
6300.0
0
VERTEX
8
0
10
814.9999999999999
20
6300.0
0
VERTEX
8
0
10
814.9999999999999
20
6400.0
0
VERTEX
8
0
10
784.9999999999999
20
6400.0
0
SEQEND
0
POLYLINE
8
0
66
1
10
0.0
20
0.0
30
0.0
0
VERTEX
8
0
10
802.4999999999999
20
6300.0
0
VERTEX
8
0
10
802.4999999999999
20
6305.0
0
VERTEX
8
0
10
797.4999999999999
20
6305.0
0
VERTEX
8
0
10
797.4999999999999
20
6300.0
0
VERTEX
8
0
10
802.4999999999999
20
6300.0
0
SEQEND
0
POLYLINE
8
0
66
1
10
0.0
20
0.0
30
0.0
0
VERTEX
8
0
10
807.4999999999999
20
6305.0
0
VERTEX
8
0
10
807.4999999999999
20
6310.0
0
VERTEX
8
0
10
792.4999999999999
20
6310.0
0
VERTEX
8
0
10
792.4999999999999
20
6305.0
0
VERTEX
8
0
10
807.4999999999999
20
6305.0
0
SEQEND
0
POLYLINE
8
0
66
1
10
0.0
20
0.0
30
0.0
0
VERTEX
8
0
10
797.4999999999999
20
6270.0
0
VERTEX
8
0
10
797.4999999999999
20
6265.0
0
VERTEX
8
0
10
802.4999999999999
20
6265.0
0
VERTEX
8
0
10
802.4999999999999
20
6270.0
0
VERTEX
8
0
10
797.4999999999999
20
6270.0
0
SEQEND
0
POLYLINE
8
0
66
1
10
0.0
20
0.0
30
0.0
0
VERTEX
8
0
10
792.4999999999999
20
6265.0
0
VERTEX
8
0
10
792.4999999999999
20
6260.0
0
VERTEX
8
0
10
807.4999999999999
20
6260.0
0
VERTEX
8
0
10
807.4999999999999
20
6265.0
0
VERTEX
8
0
10
792.4999999999999
20
6265.0
0
SEQEND
0
POLYLINE
8
0
66
1
10
0.0
20
0.0
30
0.0
0
VERTEX
8
0
10
784.9999999999999
20
6270.0
0
VERTEX
8
0
10
784.9999999999999
20
6170.0
0
VERTEX
8
0
10
814.9999999999999
20
6170.0
0
VERTEX
8
0
10
814.9999999999999
20
6270.0
0
VERTEX
8
0
10
784.9999999999999
20
6270.0
0
SEQEND
0
POLYLINE
8
0
66
1
10
0.0
20
0.0
30
0.0
0
VERTEX
8
0
10
399.9999999999999
20
6170.0
0
VERTEX
8
0
10
399.99999999999955
20
5370.0
0
VERTEX
8
0
10
1199.9999999999995
20
5370.0
0
VERTEX
8
0
10
1200.0
20
6170.0
0
VERTEX
8
0
10
399.9999999999999
20
6170.0
0
SEQEND
0
POLYLINE
8
0
66
1
10
0.0
20
0.0
30
0.0
0
VERTEX
8
0
10
1160.0
20
7200.0
0
VERTEX
8
0
10
1160.0
20
7160.0
0
VERTEX
8
0
10
1200.0
20
7160.0
0
VERTEX
8
0
10
1200.0
20
7200.0
0
VERTEX
8
0
10
1160.0
20
7200.0
0
SEQEND
0
POLYLINE
8
0
66
1
10
0.0
20
0.0
30
0.0
0
VERTEX
8
0
10
1200.0
20
7160.0
0
VERTEX
8
0
10
1194.6410161513775
20
7180.0
0
VERTEX
8
0
10
1180.0
20
7194.641016151378
0
VERTEX
8
0
10
1160.0
20
7200.0
0
VERTEX
8
0
10
1160.0
20
7180.0
0
VERTEX
8
0
10
1170.0
20
7177.320508075689
0
VERTEX
8
0
10
1177.3205080756888
20
7170.0
0
VERTEX
8
0
10
1180.0
20
7160.0
0
VERTEX
8
0
10
1200.0
20
7160.0
0
SEQEND
0
POLYLINE
8
0
66
1
10
0.0
20
0.0
30
0.0
0
VERTEX
8
0
10
1180.0
20
7160.0
0
VERTEX
8
0
10
1177.3205080756888
20
7170.0
0
VERTEX
8
0
10
1170.0
20
7177.320508075689
0
VERTEX
8
0
10
1160.0
20
7180.0
0
VERTEX
8
0
10
1160.0
20
7160.0
0
VERTEX
8
0
10
1160.0
20
7160.0
0
VERTEX
8
0
10
1160.0
20
7160.0
0
VERTEX
8
0
10
1160.0
20
7160.0
0
VERTEX
8
0
10
1180.0
20
7160.0
0
SEQEND
0
POLYLINE
8
0
66
1
10
0.0
20
0.0
30
0.0
0
VERTEX
8
0
10
400.0
20
7200.0
0
VERTEX
8
0
10
400.0
20
7160.0
0
VERTEX
8
0
10
440.0
20
7160.0
0
VERTEX
8
0
10
440.0
20
7200.0
0
VERTEX
8
0
10
400.0
20
7200.0
0
SEQEND
0
POLYLINE
8
0
66
1
10
0.0
20
0.0
30
0.0
0
VERTEX
8
0
10
400.0
20
7160.0
0
VERTEX
8
0
10
405.3589838486225
20
7180.0
0
VERTEX
8
0
10
420.0
20
7194.641016151378
0
VERTEX
8
0
10
440.0
20
7200.0
0
VERTEX
8
0
10
440.0
20
7180.0
0
VERTEX
8
0
10
430.0
20
7177.320508075689
0
VERTEX
8
0
10
422.6794919243112
20
7170.0
0
VERTEX
8
0
10
420.0
20
7160.0
0
VERTEX
8
0
10
400.0
20
7160.0
0
SEQEND
0
POLYLINE
8
0
66
1
10
0.0
20
0.0
30
0.0
0
VERTEX
8
0
10
420.0
20
7160.0
0
VERTEX
8
0
10
422.6794919243112
20
7170.0
0
VERTEX
8
0
10
430.0
20
7177.320508075689
0
VERTEX
8
0
10
440.0
20
7180.0
0
VERTEX
8
0
10
440.0
20
7160.0
0
VERTEX
8
0
10
440.0
20
7160.0
0
VERTEX
8
0
10
440.0
20
7160.0
0
VERTEX
8
0
10
440.0
20
7160.0
0
VERTEX
8
0
10
420.0
20
7160.0
0
SEQEND
0
POLYLINE
8
0
66
1
10
0.0
20
0.0
30
0.0
0
VERTEX
8
0
10
440.0
20
6400.0
0
VERTEX
8
0
10
440.0
20
6440.0
0
VERTEX
8
0
10
400.0
20
6440.0
0
VERTEX
8
0
10
400.0
20
6400.0
0
VERTEX
8
0
10
440.0
20
6400.0
0
SEQEND
0
POLYLINE
8
0
66
1
10
0.0
20
0.0
30
0.0
0
VERTEX
8
0
10
400.0
20
6440.0
0
VERTEX
8
0
10
405.3589838486225
20
6420.0
0
VERTEX
8
0
10
420.0
20
6405.358983848622
0
VERTEX
8
0
10
440.0
20
6400.0
0
VERTEX
8
0
10
440.0
20
6420.0
0
VERTEX
8
0
10
430.0
20
6422.679491924311
0
VERTEX
8
0
10
422.6794919243112
20
6430.0
0
VERTEX
8
0
10
420.0
20
6440.0
0
VERTEX
8
0
10
400.0
20
6440.0
0
SEQEND
0
POLYLINE
8
0
66
1
10
0.0
20
0.0
30
0.0
0
VERTEX
8
0
10
420.0
20
6440.0
0
VERTEX
8
0
10
422.6794919243112
20
6430.0
0
VERTEX
8
0
10
430.0
20
6422.679491924311
0
VERTEX
8
0
10
440.0
20
6420.0
0
VERTEX
8
0
10
440.0
20
6440.0
0
VERTEX
8
0
10
440.0
20
6440.0
0
VERTEX
8
0
10
440.0
20
6440.0
0
VERTEX
8
0
10
440.0
20
6440.0
0
VERTEX
8
0
10
420.0
20
6440.0
0
SEQEND
0
POLYLINE
8
0
66
1
10
0.0
20
0.0
30
0.0
0
VERTEX
8
0
10
1200.0
20
6400.0
0
VERTEX
8
0
10
1200.0
20
6440.0
0
VERTEX
8
0
10
1160.0
20
6440.0
0
VERTEX
8
0
10
1160.0
20
6400.0
0
VERTEX
8
0
10
1200.0
20
6400.0
0
SEQEND
0
POLYLINE
8
0
66
1
10
0.0
20
0.0
30
0.0
0
VERTEX
8
0
10
1200.0
20
6440.0
0
VERTEX
8
0
10
1194.6410161513775
20
6420.0
0
VERTEX
8
0
10
1180.0
20
6405.358983848622
0
VERTEX
8
0
10
1160.0
20
6400.0
0
VERTEX
8
0
10
1160.0
20
6420.0
0
VERTEX
8
0
10
1170.0
20
6422.679491924311
0
VERTEX
8
0
10
1177.3205080756888
20
6430.0
0
VERTEX
8
0
10
1180.0
20
6440.0
0
VERTEX
8
0
10
1200.0
20
6440.0
0
SEQEND
0
POLYLINE
8
0
66
1
10
0.0
20
0.0
30
0.0
0
VERTEX
8
0
10
1180.0
20
6440.0
0
VERTEX
8
0
10
1177.3205080756888
20
6430.0
0
VERTEX
8
0
10
1170.0
20
6422.679491924311
0
VERTEX
8
0
10
1160.0
20
6420.0
0
VERTEX
8
0
10
1160.0
20
6440.0
0
VERTEX
8
0
10
1160.0
20
6440.0
0
VERTEX
8
0
10
1160.0
20
6440.0
0
VERTEX
8
0
10
1160.0
20
6440.0
0
VERTEX
8
0
10
1180.0
20
6440.0
0
SEQEND
0
POLYLINE
8
0
66
1
10
0.0
20
0.0
30
0.0
0
VERTEX
8
0
10
775.0
20
6400.0
0
VERTEX
8
0
10
775.0
20
6390.0
0
VERTEX
8
0
10
785.0
20
6390.0
0
VERTEX
8
0
10
785.0
20
6400.0
0
VERTEX
8
0
10
775.0
20
6400.0
0
SEQEND
0
POLYLINE
8
0
66
1
10
0.0
20
0.0
30
0.0
0
VERTEX
8
0
10
785.0
20
6390.0
0
VERTEX
8
0
10
783.6602540378444
20
6395.0
0
VERTEX
8
0
10
780.0
20
6398.660254037844
0
VERTEX
8
0
10
775.0
20
6400.0
0
VERTEX
8
0
10
775.0
20
6395.0
0
VERTEX
8
0
10
777.5
20
6394.330127018922
0
VERTEX
8
0
10
779.3301270189222
20
6392.5
0
VERTEX
8
0
10
780.0
20
6390.0
0
VERTEX
8
0
10
785.0
20
6390.0
0
SEQEND
0
POLYLINE
8
0
66
1
10
0.0
20
0.0
30
0.0
0
VERTEX
8
0
10
780.0
20
6390.0
0
VERTEX
8
0
10
779.3301270189222
20
6392.5
0
VERTEX
8
0
10
777.5
20
6394.330127018922
0
VERTEX
8
0
10
775.0
20
6395.0
0
VERTEX
8
0
10
775.0
20
6390.0
0
VERTEX
8
0
10
775.0
20
6390.0
0
VERTEX
8
0
10
775.0
20
6390.0
0
VERTEX
8
0
10
775.0
20
6390.0
0
VERTEX
8
0
10
780.0
20
6390.0
0
SEQEND
0
POLYLINE
8
0
66
1
10
0.0
20
0.0
30
0.0
0
VERTEX
8
0
10
815.0
20
6400.0
0
VERTEX
8
0
10
815.0
20
6390.0
0
VERTEX
8
0
10
825.0
20
6390.0
0
VERTEX
8
0
10
825.0
20
6400.0
0
VERTEX
8
0
10
815.0
20
6400.0
0
SEQEND
0
POLYLINE
8
0
66
1
10
0.0
20
0.0
30
0.0
0
VERTEX
8
0
10
815.0
20
6390.0
0
VERTEX
8
0
10
816.3397459621556
20
6395.0
0
VERTEX
8
0
10
820.0
20
6398.660254037844
0
VERTEX
8
0
10
825.0
20
6400.0
0
VERTEX
8
0
10
825.0
20
6395.0
0
VERTEX
8
0
10
822.5
20
6394.330127018922
0
VERTEX
8
0
10
820.6698729810778
20
6392.5
0
VERTEX
8
0
10
820.0
20
6390.0
0
VERTEX
8
0
10
815.0
20
6390.0
0
SEQEND
0
POLYLINE
8
0
66
1
10
0.0
20
0.0
30
0.0
0
VERTEX
8
0
10
820.0
20
6390.0
0
VERTEX
8
0
10
820.6698729810778
20
6392.5
0
VERTEX
8
0
10
822.5
20
6394.330127018922
0
VERTEX
8
0
10
825.0
20
6395.0
0
VERTEX
8
0
10
825.0
20
6390.0
0
VERTEX
8
0
10
825.0
20
6390.0
0
VERTEX
8
0
10
825.0
20
6390.0
0
VERTEX
8
0
10
825.0
20
6390.0
0
VERTEX
8
0
10
820.0
20
6390.0
0
SEQEND
0
POLYLINE
8
0
66
1
10
0.0
20
0.0
30
0.0
0
VERTEX
8
0
10
1199.9999999999995
20
5370.0
0
VERTEX
8
0
10
1199.9999999999995
20
5410.0
0
VERTEX
8
0
10
1159.9999999999995
20
5410.0
0
VERTEX
8
0
10
1159.9999999999995
20
5370.0
0
VERTEX
8
0
10
1199.9999999999995
20
5370.0
0
SEQEND
0
POLYLINE
8
0
66
1
10
0.0
20
0.0
30
0.0
0
VERTEX
8
0
10
1199.9999999999995
20
5410.0
0
VERTEX
8
0
10
1194.641016151377
20
5390.0
0
VERTEX
8
0
10
1179.9999999999995
20
5375.358983848622
0
VERTEX
8
0
10
1159.9999999999995
20
5370.0
0
VERTEX
8
0
10
1159.9999999999995
20
5390.0
0
VERTEX
8
0
10
1169.9999999999995
20
5392.679491924311
0
VERTEX
8
0
10
1177.3205080756884
20
5400.0
0
VERTEX
8
0
10
1179.9999999999995
20
5410.0
0
VERTEX
8
0
10
1199.9999999999995
20
5410.0
0
SEQEND
0
POLYLINE
8
0
66
1
10
0.0
20
0.0
30
0.0
0
VERTEX
8
0
10
1179.9999999999995
20
5410.0
0
VERTEX
8
0
10
1177.3205080756884
20
5400.0
0
VERTEX
8
0
10
1169.9999999999995
20
5392.679491924311
0
VERTEX
8
0
10
1159.9999999999995
20
5390.0
0
VERTEX
8
0
10
1159.9999999999995
20
5410.0
0
VERTEX
8
0
10
1159.9999999999995
20
5410.0
0
VERTEX
8
0
10
1159.9999999999995
20
5410.0
0
VERTEX
8
0
10
1159.9999999999995
20
5410.0
0
VERTEX
8
0
10
1179.9999999999995
20
5410.0
0
SEQEND
0
POLYLINE
8
0
66
1
10
0.0
20
0.0
30
0.0
0
VERTEX
8
0
10
439.99999999999955
20
5370.0
0
VERTEX
8
0
10
439.99999999999955
20
5410.0
0
VERTEX
8
0
10
399.99999999999955
20
5410.0
0
VERTEX
8
0
10
399.99999999999955
20
5370.0
0
VERTEX
8
0
10
439.99999999999955
20
5370.0
0
SEQEND
0
POLYLINE
8
0
66
1
10
0.0
20
0.0
30
0.0
0
VERTEX
8
0
10
399.99999999999955
20
5410.0
0
VERTEX
8
0
10
405.358983848622
20
5390.0
0
VERTEX
8
0
10
419.99999999999955
20
5375.358983848622
0
VERTEX
8
0
10
439.99999999999955
20
5370.0
0
VERTEX
8
0
10
439.99999999999955
20
5390.0
0
VERTEX
8
0
10
429.99999999999955
20
5392.679491924311
0
VERTEX
8
0
10
422.67949192431075
20
5400.0
0
VERTEX
8
0
10
419.99999999999955
20
5410.0
0
VERTEX
8
0
10
399.99999999999955
20
5410.0
0
SEQEND
0
POLYLINE
8
0
66
1
10
0.0
20
0.0
30
0.0
0
VERTEX
8
0
10
419.99999999999955
20
5410.0
0
VERTEX
8
0
10
422.67949192431075
20
5400.0
0
VERTEX
8
0
10
429.99999999999955
20
5392.679491924311
0
VERTEX
8
0
10
439.99999999999955
20
5390.0
0
VERTEX
8
0
10
439.99999999999955
20
5410.0
0
VERTEX
8
0
10
439.99999999999955
20
5410.0
0
VERTEX
8
0
10
439.99999999999955
20
5410.0
0
VERTEX
8
0
10
439.99999999999955
20
5410.0
0
VERTEX
8
0
10
419.99999999999955
20
5410.0
0
SEQEND
0
POLYLINE
8
0
66
1
10
0.0
20
0.0
30
0.0
0
VERTEX
8
0
10
399.99999999999955
20
6170.0
0
VERTEX
8
0
10
399.99999999999955
20
6130.0
0
VERTEX
8
0
10
439.99999999999955
20
6130.0
0
VERTEX
8
0
10
439.99999999999955
20
6170.0
0
VERTEX
8
0
10
399.99999999999955
20
6170.0
0
SEQEND
0
POLYLINE
8
0
66
1
10
0.0
20
0.0
30
0.0
0
VERTEX
8
0
10
399.99999999999955
20
6130.0
0
VERTEX
8
0
10
405.358983848622
20
6150.0
0
VERTEX
8
0
10
419.99999999999955
20
6164.641016151378
0
VERTEX
8
0
10
439.99999999999955
20
6170.0
0
VERTEX
8
0
10
439.99999999999955
20
6150.0
0
VERTEX
8
0
10
429.99999999999955
20
6147.320508075689
0
VERTEX
8
0
10
422.67949192431075
20
6140.0
0
VERTEX
8
0
10
419.99999999999955
20
6130.0
0
VERTEX
8
0
10
399.99999999999955
20
6130.0
0
SEQEND
0
POLYLINE
8
0
66
1
10
0.0
20
0.0
30
0.0
0
VERTEX
8
0
10
419.99999999999955
20
6130.0
0
VERTEX
8
0
10
422.67949192431075
20
6140.0
0
VERTEX
8
0
10
429.99999999999955
20
6147.320508075689
0
VERTEX
8
0
10
439.99999999999955
20
6150.0
0
VERTEX
8
0
10
439.99999999999955
20
6130.0
0
VERTEX
8
0
10
439.99999999999955
20
6130.0
0
VERTEX
8
0
10
439.99999999999955
20
6130.0
0
VERTEX
8
0
10
439.99999999999955
20
6130.0
0
VERTEX
8
0
10
419.99999999999955
20
6130.0
0
SEQEND
0
POLYLINE
8
0
66
1
10
0.0
20
0.0
30
0.0
0
VERTEX
8
0
10
1159.9999999999995
20
6170.0
0
VERTEX
8
0
10
1159.9999999999995
20
6130.0
0
VERTEX
8
0
10
1199.9999999999995
20
6130.0
0
VERTEX
8
0
10
1199.9999999999995
20
6170.0
0
VERTEX
8
0
10
1159.9999999999995
20
6170.0
0
SEQEND
0
POLYLINE
8
0
66
1
10
0.0
20
0.0
30
0.0
0
VERTEX
8
0
10
1199.9999999999995
20
6130.0
0
VERTEX
8
0
10
1194.641016151377
20
6150.0
0
VERTEX
8
0
10
1179.9999999999995
20
6164.641016151378
0
VERTEX
8
0
10
1159.9999999999995
20
6170.0
0
VERTEX
8
0
10
1159.9999999999995
20
6150.0
0
VERTEX
8
0
10
1169.9999999999995
20
6147.320508075689
0
VERTEX
8
0
10
1177.3205080756884
20
6140.0
0
VERTEX
8
0
10
1179.9999999999995
20
6130.0
0
VERTEX
8
0
10
1199.9999999999995
20
6130.0
0
SEQEND
0
POLYLINE
8
0
66
1
10
0.0
20
0.0
30
0.0
0
VERTEX
8
0
10
1179.9999999999995
20
6130.0
0
VERTEX
8
0
10
1177.3205080756884
20
6140.0
0
VERTEX
8
0
10
1169.9999999999995
20
6147.320508075689
0
VERTEX
8
0
10
1159.9999999999995
20
6150.0
0
VERTEX
8
0
10
1159.9999999999995
20
6130.0
0
VERTEX
8
0
10
1159.9999999999995
20
6130.0
0
VERTEX
8
0
10
1159.9999999999995
20
6130.0
0
VERTEX
8
0
10
1159.9999999999995
20
6130.0
0
VERTEX
8
0
10
1179.9999999999995
20
6130.0
0
SEQEND
0
POLYLINE
8
0
66
1
10
0.0
20
0.0
30
0.0
0
VERTEX
8
0
10
784.9999999999995
20
6170.0
0
VERTEX
8
0
10
784.9999999999995
20
6180.0
0
VERTEX
8
0
10
774.9999999999995
20
6180.0
0
VERTEX
8
0
10
774.9999999999995
20
6170.0
0
VERTEX
8
0
10
784.9999999999995
20
6170.0
0
SEQEND
0
POLYLINE
8
0
66
1
10
0.0
20
0.0
30
0.0
0
VERTEX
8
0
10
784.9999999999995
20
6180.0
0
VERTEX
8
0
10
783.660254037844
20
6175.0
0
VERTEX
8
0
10
779.9999999999995
20
6171.339745962156
0
VERTEX
8
0
10
774.9999999999995
20
6170.0
0
VERTEX
8
0
10
774.9999999999995
20
6175.0
0
VERTEX
8
0
10
777.4999999999995
20
6175.669872981078
0
VERTEX
8
0
10
779.3301270189218
20
6177.5
0
VERTEX
8
0
10
779.9999999999995
20
6180.0
0
VERTEX
8
0
10
784.9999999999995
20
6180.0
0
SEQEND
0
POLYLINE
8
0
66
1
10
0.0
20
0.0
30
0.0
0
VERTEX
8
0
10
779.9999999999995
20
6180.0
0
VERTEX
8
0
10
779.3301270189218
20
6177.5
0
VERTEX
8
0
10
777.4999999999995
20
6175.669872981078
0
VERTEX
8
0
10
774.9999999999995
20
6175.0
0
VERTEX
8
0
10
774.9999999999995
20
6180.0
0
VERTEX
8
0
10
774.9999999999995
20
6180.0
0
VERTEX
8
0
10
774.9999999999995
20
6180.0
0
VERTEX
8
0
10
774.9999999999995
20
6180.0
0
VERTEX
8
0
10
779.9999999999995
20
6180.0
0
SEQEND
0
POLYLINE
8
0
66
1
10
0.0
20
0.0
30
0.0
0
VERTEX
8
0
10
824.9999999999995
20
6170.0
0
VERTEX
8
0
10
824.9999999999995
20
6180.0
0
VERTEX
8
0
10
814.9999999999995
20
6180.0
0
VERTEX
8
0
10
814.9999999999995
20
6170.0
0
VERTEX
8
0
10
824.9999999999995
20
6170.0
0
SEQEND
0
POLYLINE
8
0
66
1
10
0.0
20
0.0
30
0.0
0
VERTEX
8
0
10
814.9999999999995
20
6180.0
0
VERTEX
8
0
10
816.3397459621551
20
6175.0
0
VERTEX
8
0
10
819.9999999999995
20
6171.339745962156
0
VERTEX
8
0
10
824.9999999999995
20
6170.0
0
VERTEX
8
0
10
824.9999999999995
20
6175.0
0
VERTEX
8
0
10
822.4999999999995
20
6175.669872981078
0
VERTEX
8
0
10
820.6698729810773
20
6177.5
0
VERTEX
8
0
10
819.9999999999995
20
6180.0
0
VERTEX
8
0
10
814.9999999999995
20
6180.0
0
SEQEND
0
POLYLINE
8
0
66
1
10
0.0
20
0.0
30
0.0
0
VERTEX
8
0
10
819.9999999999995
20
6180.0
0
VERTEX
8
0
10
820.6698729810773
20
6177.5
0
VERTEX
8
0
10
822.4999999999995
20
6175.669872981078
0
VERTEX
8
0
10
824.9999999999995
20
6175.0
0
VERTEX
8
0
10
824.9999999999995
20
6180.0
0
VERTEX
8
0
10
824.9999999999995
20
6180.0
0
VERTEX
8
0
10
824.9999999999995
20
6180.0
0
VERTEX
8
0
10
824.9999999999995
20
6180.0
0
VERTEX
8
0
10
819.9999999999995
20
6180.0
0
SEQEND
0
POLYLINE
8
0
66
1
10
0.0
20
0.0
30
0.0
0
VERTEX
8
0
10
700.0
20
7250.0
0
VERTEX
8
0
10
700.0
20
7350.0
0
VERTEX
8
0
10
775.0
20
7350.0
0
VERTEX
8
0
10
775.0
20
7250.0
0
VERTEX
8
0
10
750.0
20
7250.0
0
VERTEX
8
0
10
750.0
20
7337.5
0
VERTEX
8
0
10
725.0
20
7337.5
0
VERTEX
8
0
10
725.0
20
7250.0
0
VERTEX
8
0
10
700.0
20
7250.0
0
SEQEND
0
POLYLINE
8
0
66
1
10
0.0
20
0.0
30
0.0
0
VERTEX
8
0
10
725.0
20
7300.0
0
VERTEX
8
0
10
725.0
20
7312.5
0
VERTEX
8
0
10
750.0
20
7312.5
0
VERTEX
8
0
10
750.0
20
7300.0
0
VERTEX
8
0
10
725.0
20
7300.0
0
SEQEND
0
POLYLINE
8
0
66
1
10
0.0
20
0.0
30
0.0
0
VERTEX
8
0
10
800.0
20
7250.0
0
VERTEX
8
0
10
875.0
20
7250.0
0
VERTEX
8
0
10
875.0
20
7262.5
0
VERTEX
8
0
10
825.0
20
7262.5
0
VERTEX
8
0
10
825.0
20
7275.0
0
VERTEX
8
0
10
875.0
20
7325.0
0
VERTEX
8
0
10
875.0
20
7350.0
0
VERTEX
8
0
10
800.0
20
7350.0
0
VERTEX
8
0
10
800.0
20
7337.5
0
VERTEX
8
0
10
850.0
20
7337.5
0
VERTEX
8
0
10
850.0
20
7325.0
0
VERTEX
8
0
10
800.0
20
7275.0
0
VERTEX
8
0
10
800.0
20
7250.0
0
VERTEX
8
0
10
800.0
20
7250.0
0
SEQEND
0
POLYLINE
8
0
66
1
10
0.0
20
0.0
30
0.0
0
VERTEX
8
0
10
400.0
20
9200.0
0
VERTEX
8
0
10
399.9999999999999
20
8400.0
0
VERTEX
8
0
10
1200.0
20
8400.0
0
VERTEX
8
0
10
1200.0
20
9200.0
0
VERTEX
8
0
10
400.0
20
9200.0
0
SEQEND
0
POLYLINE
8
0
66
1
10
0.0
20
0.0
30
0.0
0
VERTEX
8
0
10
784.9999999999999
20
8400.0
0
VERTEX
8
0
10
784.9999999999999
20
8300.0
0
VERTEX
8
0
10
814.9999999999999
20
8300.0
0
VERTEX
8
0
10
814.9999999999999
20
8400.0
0
VERTEX
8
0
10
784.9999999999999
20
8400.0
0
SEQEND
0
POLYLINE
8
0
66
1
10
0.0
20
0.0
30
0.0
0
VERTEX
8
0
10
802.4999999999999
20
8300.0
0
VERTEX
8
0
10
802.4999999999999
20
8305.0
0
VERTEX
8
0
10
797.4999999999999
20
8305.0
0
VERTEX
8
0
10
797.4999999999999
20
8300.0
0
VERTEX
8
0
10
802.4999999999999
20
8300.0
0
SEQEND
0
POLYLINE
8
0
66
1
10
0.0
20
0.0
30
0.0
0
VERTEX
8
0
10
807.4999999999999
20
8305.0
0
VERTEX
8
0
10
807.4999999999999
20
8310.0
0
VERTEX
8
0
10
792.4999999999999
20
8310.0
0
VERTEX
8
0
10
792.4999999999999
20
8305.0
0
VERTEX
8
0
10
807.4999999999999
20
8305.0
0
SEQEND
0
POLYLINE
8
0
66
1
10
0.0
20
0.0
30
0.0
0
VERTEX
8
0
10
797.4999999999999
20
8270.0
0
VERTEX
8
0
10
797.4999999999999
20
8265.0
0
VERTEX
8
0
10
802.4999999999999
20
8265.0
0
VERTEX
8
0
10
802.4999999999999
20
8270.0
0
VERTEX
8
0
10
797.4999999999999
20
8270.0
0
SEQEND
0
POLYLINE
8
0
66
1
10
0.0
20
0.0
30
0.0
0
VERTEX
8
0
10
792.4999999999999
20
8265.0
0
VERTEX
8
0
10
792.4999999999999
20
8260.0
0
VERTEX
8
0
10
807.4999999999999
20
8260.0
0
VERTEX
8
0
10
807.4999999999999
20
8265.0
0
VERTEX
8
0
10
792.4999999999999
20
8265.0
0
SEQEND
0
POLYLINE
8
0
66
1
10
0.0
20
0.0
30
0.0
0
VERTEX
8
0
10
784.9999999999999
20
8270.0
0
VERTEX
8
0
10
784.9999999999999
20
8170.0
0
VERTEX
8
0
10
814.9999999999999
20
8170.0
0
VERTEX
8
0
10
814.9999999999999
20
8270.0
0
VERTEX
8
0
10
784.9999999999999
20
8270.0
0
SEQEND
0
POLYLINE
8
0
66
1
10
0.0
20
0.0
30
0.0
0
VERTEX
8
0
10
399.9999999999999
20
8170.0
0
VERTEX
8
0
10
399.99999999999955
20
7370.0
0
VERTEX
8
0
10
1199.9999999999995
20
7370.0
0
VERTEX
8
0
10
1200.0
20
8170.0
0
VERTEX
8
0
10
399.9999999999999
20
8170.0
0
SEQEND
0
POLYLINE
8
0
66
1
10
0.0
20
0.0
30
0.0
0
VERTEX
8
0
10
1160.0
20
9200.0
0
VERTEX
8
0
10
1160.0
20
9160.0
0
VERTEX
8
0
10
1200.0
20
9160.0
0
VERTEX
8
0
10
1200.0
20
9200.0
0
VERTEX
8
0
10
1160.0
20
9200.0
0
SEQEND
0
POLYLINE
8
0
66
1
10
0.0
20
0.0
30
0.0
0
VERTEX
8
0
10
1200.0
20
9160.0
0
VERTEX
8
0
10
1194.6410161513775
20
9180.0
0
VERTEX
8
0
10
1180.0
20
9194.641016151378
0
VERTEX
8
0
10
1160.0
20
9200.0
0
VERTEX
8
0
10
1160.0
20
9180.0
0
VERTEX
8
0
10
1170.0
20
9177.320508075689
0
VERTEX
8
0
10
1177.3205080756888
20
9170.0
0
VERTEX
8
0
10
1180.0
20
9160.0
0
VERTEX
8
0
10
1200.0
20
9160.0
0
SEQEND
0
POLYLINE
8
0
66
1
10
0.0
20
0.0
30
0.0
0
VERTEX
8
0
10
1180.0
20
9160.0
0
VERTEX
8
0
10
1177.3205080756888
20
9170.0
0
VERTEX
8
0
10
1170.0
20
9177.320508075689
0
VERTEX
8
0
10
1160.0
20
9180.0
0
VERTEX
8
0
10
1160.0
20
9160.0
0
VERTEX
8
0
10
1160.0
20
9160.0
0
VERTEX
8
0
10
1160.0
20
9160.0
0
VERTEX
8
0
10
1160.0
20
9160.0
0
VERTEX
8
0
10
1180.0
20
9160.0
0
SEQEND
0
POLYLINE
8
0
66
1
10
0.0
20
0.0
30
0.0
0
VERTEX
8
0
10
400.0
20
9200.0
0
VERTEX
8
0
10
400.0
20
9160.0
0
VERTEX
8
0
10
440.0
20
9160.0
0
VERTEX
8
0
10
440.0
20
9200.0
0
VERTEX
8
0
10
400.0
20
9200.0
0
SEQEND
0
POLYLINE
8
0
66
1
10
0.0
20
0.0
30
0.0
0
VERTEX
8
0
10
400.0
20
9160.0
0
VERTEX
8
0
10
405.3589838486225
20
9180.0
0
VERTEX
8
0
10
420.0
20
9194.641016151378
0
VERTEX
8
0
10
440.0
20
9200.0
0
VERTEX
8
0
10
440.0
20
9180.0
0
VERTEX
8
0
10
430.0
20
9177.320508075689
0
VERTEX
8
0
10
422.6794919243112
20
9170.0
0
VERTEX
8
0
10
420.0
20
9160.0
0
VERTEX
8
0
10
400.0
20
9160.0
0
SEQEND
0
POLYLINE
8
0
66
1
10
0.0
20
0.0
30
0.0
0
VERTEX
8
0
10
420.0
20
9160.0
0
VERTEX
8
0
10
422.6794919243112
20
9170.0
0
VERTEX
8
0
10
430.0
20
9177.320508075689
0
VERTEX
8
0
10
440.0
20
9180.0
0
VERTEX
8
0
10
440.0
20
9160.0
0
VERTEX
8
0
10
440.0
20
9160.0
0
VERTEX
8
0
10
440.0
20
9160.0
0
VERTEX
8
0
10
440.0
20
9160.0
0
VERTEX
8
0
10
420.0
20
9160.0
0
SEQEND
0
POLYLINE
8
0
66
1
10
0.0
20
0.0
30
0.0
0
VERTEX
8
0
10
440.0
20
8400.0
0
VERTEX
8
0
10
440.0
20
8440.0
0
VERTEX
8
0
10
400.0
20
8440.0
0
VERTEX
8
0
10
400.0
20
8400.0
0
VERTEX
8
0
10
440.0
20
8400.0
0
SEQEND
0
POLYLINE
8
0
66
1
10
0.0
20
0.0
30
0.0
0
VERTEX
8
0
10
400.0
20
8440.0
0
VERTEX
8
0
10
405.3589838486225
20
8420.0
0
VERTEX
8
0
10
420.0
20
8405.358983848622
0
VERTEX
8
0
10
440.0
20
8400.0
0
VERTEX
8
0
10
440.0
20
8420.0
0
VERTEX
8
0
10
430.0
20
8422.679491924311
0
VERTEX
8
0
10
422.6794919243112
20
8430.0
0
VERTEX
8
0
10
420.0
20
8440.0
0
VERTEX
8
0
10
400.0
20
8440.0
0
SEQEND
0
POLYLINE
8
0
66
1
10
0.0
20
0.0
30
0.0
0
VERTEX
8
0
10
420.0
20
8440.0
0
VERTEX
8
0
10
422.6794919243112
20
8430.0
0
VERTEX
8
0
10
430.0
20
8422.679491924311
0
VERTEX
8
0
10
440.0
20
8420.0
0
VERTEX
8
0
10
440.0
20
8440.0
0
VERTEX
8
0
10
440.0
20
8440.0
0
VERTEX
8
0
10
440.0
20
8440.0
0
VERTEX
8
0
10
440.0
20
8440.0
0
VERTEX
8
0
10
420.0
20
8440.0
0
SEQEND
0
POLYLINE
8
0
66
1
10
0.0
20
0.0
30
0.0
0
VERTEX
8
0
10
1200.0
20
8400.0
0
VERTEX
8
0
10
1200.0
20
8440.0
0
VERTEX
8
0
10
1160.0
20
8440.0
0
VERTEX
8
0
10
1160.0
20
8400.0
0
VERTEX
8
0
10
1200.0
20
8400.0
0
SEQEND
0
POLYLINE
8
0
66
1
10
0.0
20
0.0
30
0.0
0
VERTEX
8
0
10
1200.0
20
8440.0
0
VERTEX
8
0
10
1194.6410161513775
20
8420.0
0
VERTEX
8
0
10
1180.0
20
8405.358983848622
0
VERTEX
8
0
10
1160.0
20
8400.0
0
VERTEX
8
0
10
1160.0
20
8420.0
0
VERTEX
8
0
10
1170.0
20
8422.679491924311
0
VERTEX
8
0
10
1177.3205080756888
20
8430.0
0
VERTEX
8
0
10
1180.0
20
8440.0
0
VERTEX
8
0
10
1200.0
20
8440.0
0
SEQEND
0
POLYLINE
8
0
66
1
10
0.0
20
0.0
30
0.0
0
VERTEX
8
0
10
1180.0
20
8440.0
0
VERTEX
8
0
10
1177.3205080756888
20
8430.0
0
VERTEX
8
0
10
1170.0
20
8422.679491924311
0
VERTEX
8
0
10
1160.0
20
8420.0
0
VERTEX
8
0
10
1160.0
20
8440.0
0
VERTEX
8
0
10
1160.0
20
8440.0
0
VERTEX
8
0
10
1160.0
20
8440.0
0
VERTEX
8
0
10
1160.0
20
8440.0
0
VERTEX
8
0
10
1180.0
20
8440.0
0
SEQEND
0
POLYLINE
8
0
66
1
10
0.0
20
0.0
30
0.0
0
VERTEX
8
0
10
775.0
20
8400.0
0
VERTEX
8
0
10
775.0
20
8390.0
0
VERTEX
8
0
10
785.0
20
8390.0
0
VERTEX
8
0
10
785.0
20
8400.0
0
VERTEX
8
0
10
775.0
20
8400.0
0
SEQEND
0
POLYLINE
8
0
66
1
10
0.0
20
0.0
30
0.0
0
VERTEX
8
0
10
785.0
20
8390.0
0
VERTEX
8
0
10
783.6602540378444
20
8395.0
0
VERTEX
8
0
10
780.0
20
8398.660254037844
0
VERTEX
8
0
10
775.0
20
8400.0
0
VERTEX
8
0
10
775.0
20
8395.0
0
VERTEX
8
0
10
777.5
20
8394.330127018922
0
VERTEX
8
0
10
779.3301270189222
20
8392.5
0
VERTEX
8
0
10
780.0
20
8390.0
0
VERTEX
8
0
10
785.0
20
8390.0
0
SEQEND
0
POLYLINE
8
0
66
1
10
0.0
20
0.0
30
0.0
0
VERTEX
8
0
10
780.0
20
8390.0
0
VERTEX
8
0
10
779.3301270189222
20
8392.5
0
VERTEX
8
0
10
777.5
20
8394.330127018922
0
VERTEX
8
0
10
775.0
20
8395.0
0
VERTEX
8
0
10
775.0
20
8390.0
0
VERTEX
8
0
10
775.0
20
8390.0
0
VERTEX
8
0
10
775.0
20
8390.0
0
VERTEX
8
0
10
775.0
20
8390.0
0
VERTEX
8
0
10
780.0
20
8390.0
0
SEQEND
0
POLYLINE
8
0
66
1
10
0.0
20
0.0
30
0.0
0
VERTEX
8
0
10
815.0
20
8400.0
0
VERTEX
8
0
10
815.0
20
8390.0
0
VERTEX
8
0
10
825.0
20
8390.0
0
VERTEX
8
0
10
825.0
20
8400.0
0
VERTEX
8
0
10
815.0
20
8400.0
0
SEQEND
0
POLYLINE
8
0
66
1
10
0.0
20
0.0
30
0.0
0
VERTEX
8
0
10
815.0
20
8390.0
0
VERTEX
8
0
10
816.3397459621556
20
8395.0
0
VERTEX
8
0
10
820.0
20
8398.660254037844
0
VERTEX
8
0
10
825.0
20
8400.0
0
VERTEX
8
0
10
825.0
20
8395.0
0
VERTEX
8
0
10
822.5
20
8394.330127018922
0
VERTEX
8
0
10
820.6698729810778
20
8392.5
0
VERTEX
8
0
10
820.0
20
8390.0
0
VERTEX
8
0
10
815.0
20
8390.0
0
SEQEND
0
POLYLINE
8
0
66
1
10
0.0
20
0.0
30
0.0
0
VERTEX
8
0
10
820.0
20
8390.0
0
VERTEX
8
0
10
820.6698729810778
20
8392.5
0
VERTEX
8
0
10
822.5
20
8394.330127018922
0
VERTEX
8
0
10
825.0
20
8395.0
0
VERTEX
8
0
10
825.0
20
8390.0
0
VERTEX
8
0
10
825.0
20
8390.0
0
VERTEX
8
0
10
825.0
20
8390.0
0
VERTEX
8
0
10
825.0
20
8390.0
0
VERTEX
8
0
10
820.0
20
8390.0
0
SEQEND
0
POLYLINE
8
0
66
1
10
0.0
20
0.0
30
0.0
0
VERTEX
8
0
10
1199.9999999999995
20
7370.0
0
VERTEX
8
0
10
1199.9999999999995
20
7410.0
0
VERTEX
8
0
10
1159.9999999999995
20
7410.0
0
VERTEX
8
0
10
1159.9999999999995
20
7370.0
0
VERTEX
8
0
10
1199.9999999999995
20
7370.0
0
SEQEND
0
POLYLINE
8
0
66
1
10
0.0
20
0.0
30
0.0
0
VERTEX
8
0
10
1199.9999999999995
20
7410.0
0
VERTEX
8
0
10
1194.641016151377
20
7390.0
0
VERTEX
8
0
10
1179.9999999999995
20
7375.358983848622
0
VERTEX
8
0
10
1159.9999999999995
20
7370.0
0
VERTEX
8
0
10
1159.9999999999995
20
7390.0
0
VERTEX
8
0
10
1169.9999999999995
20
7392.679491924311
0
VERTEX
8
0
10
1177.3205080756884
20
7400.0
0
VERTEX
8
0
10
1179.9999999999995
20
7410.0
0
VERTEX
8
0
10
1199.9999999999995
20
7410.0
0
SEQEND
0
POLYLINE
8
0
66
1
10
0.0
20
0.0
30
0.0
0
VERTEX
8
0
10
1179.9999999999995
20
7410.0
0
VERTEX
8
0
10
1177.3205080756884
20
7400.0
0
VERTEX
8
0
10
1169.9999999999995
20
7392.679491924311
0
VERTEX
8
0
10
1159.9999999999995
20
7390.0
0
VERTEX
8
0
10
1159.9999999999995
20
7410.0
0
VERTEX
8
0
10
1159.9999999999995
20
7410.0
0
VERTEX
8
0
10
1159.9999999999995
20
7410.0
0
VERTEX
8
0
10
1159.9999999999995
20
7410.0
0
VERTEX
8
0
10
1179.9999999999995
20
7410.0
0
SEQEND
0
POLYLINE
8
0
66
1
10
0.0
20
0.0
30
0.0
0
VERTEX
8
0
10
439.99999999999955
20
7370.0
0
VERTEX
8
0
10
439.99999999999955
20
7410.0
0
VERTEX
8
0
10
399.99999999999955
20
7410.0
0
VERTEX
8
0
10
399.99999999999955
20
7370.0
0
VERTEX
8
0
10
439.99999999999955
20
7370.0
0
SEQEND
0
POLYLINE
8
0
66
1
10
0.0
20
0.0
30
0.0
0
VERTEX
8
0
10
399.99999999999955
20
7410.0
0
VERTEX
8
0
10
405.358983848622
20
7390.0
0
VERTEX
8
0
10
419.99999999999955
20
7375.358983848622
0
VERTEX
8
0
10
439.99999999999955
20
7370.0
0
VERTEX
8
0
10
439.99999999999955
20
7390.0
0
VERTEX
8
0
10
429.99999999999955
20
7392.679491924311
0
VERTEX
8
0
10
422.67949192431075
20
7400.0
0
VERTEX
8
0
10
419.99999999999955
20
7410.0
0
VERTEX
8
0
10
399.99999999999955
20
7410.0
0
SEQEND
0
POLYLINE
8
0
66
1
10
0.0
20
0.0
30
0.0
0
VERTEX
8
0
10
419.99999999999955
20
7410.0
0
VERTEX
8
0
10
422.67949192431075
20
7400.0
0
VERTEX
8
0
10
429.99999999999955
20
7392.679491924311
0
VERTEX
8
0
10
439.99999999999955
20
7390.0
0
VERTEX
8
0
10
439.99999999999955
20
7410.0
0
VERTEX
8
0
10
439.99999999999955
20
7410.0
0
VERTEX
8
0
10
439.99999999999955
20
7410.0
0
VERTEX
8
0
10
439.99999999999955
20
7410.0
0
VERTEX
8
0
10
419.99999999999955
20
7410.0
0
SEQEND
0
POLYLINE
8
0
66
1
10
0.0
20
0.0
30
0.0
0
VERTEX
8
0
10
399.99999999999955
20
8170.0
0
VERTEX
8
0
10
399.99999999999955
20
8130.0
0
VERTEX
8
0
10
439.99999999999955
20
8130.0
0
VERTEX
8
0
10
439.99999999999955
20
8170.0
0
VERTEX
8
0
10
399.99999999999955
20
8170.0
0
SEQEND
0
POLYLINE
8
0
66
1
10
0.0
20
0.0
30
0.0
0
VERTEX
8
0
10
399.99999999999955
20
8130.0
0
VERTEX
8
0
10
405.358983848622
20
8150.0
0
VERTEX
8
0
10
419.99999999999955
20
8164.641016151378
0
VERTEX
8
0
10
439.99999999999955
20
8170.0
0
VERTEX
8
0
10
439.99999999999955
20
8150.0
0
VERTEX
8
0
10
429.99999999999955
20
8147.320508075689
0
VERTEX
8
0
10
422.67949192431075
20
8140.0
0
VERTEX
8
0
10
419.99999999999955
20
8130.0
0
VERTEX
8
0
10
399.99999999999955
20
8130.0
0
SEQEND
0
POLYLINE
8
0
66
1
10
0.0
20
0.0
30
0.0
0
VERTEX
8
0
10
419.99999999999955
20
8130.0
0
VERTEX
8
0
10
422.67949192431075
20
8140.0
0
VERTEX
8
0
10
429.99999999999955
20
8147.320508075689
0
VERTEX
8
0
10
439.99999999999955
20
8150.0
0
VERTEX
8
0
10
439.99999999999955
20
8130.0
0
VERTEX
8
0
10
439.99999999999955
20
8130.0
0
VERTEX
8
0
10
439.99999999999955
20
8130.0
0
VERTEX
8
0
10
439.99999999999955
20
8130.0
0
VERTEX
8
0
10
419.99999999999955
20
8130.0
0
SEQEND
0
POLYLINE
8
0
66
1
10
0.0
20
0.0
30
0.0
0
VERTEX
8
0
10
1159.9999999999995
20
8170.0
0
VERTEX
8
0
10
1159.9999999999995
20
8130.0
0
VERTEX
8
0
10
1199.9999999999995
20
8130.0
0
VERTEX
8
0
10
1199.9999999999995
20
8170.0
0
VERTEX
8
0
10
1159.9999999999995
20
8170.0
0
SEQEND
0
POLYLINE
8
0
66
1
10
0.0
20
0.0
30
0.0
0
VERTEX
8
0
10
1199.9999999999995
20
8130.0
0
VERTEX
8
0
10
1194.641016151377
20
8150.0
0
VERTEX
8
0
10
1179.9999999999995
20
8164.641016151378
0
VERTEX
8
0
10
1159.9999999999995
20
8170.0
0
VERTEX
8
0
10
1159.9999999999995
20
8150.0
0
VERTEX
8
0
10
1169.9999999999995
20
8147.320508075689
0
VERTEX
8
0
10
1177.3205080756884
20
8140.0
0
VERTEX
8
0
10
1179.9999999999995
20
8130.0
0
VERTEX
8
0
10
1199.9999999999995
20
8130.0
0
SEQEND
0
POLYLINE
8
0
66
1
10
0.0
20
0.0
30
0.0
0
VERTEX
8
0
10
1179.9999999999995
20
8130.0
0
VERTEX
8
0
10
1177.3205080756884
20
8140.0
0
VERTEX
8
0
10
1169.9999999999995
20
8147.320508075689
0
VERTEX
8
0
10
1159.9999999999995
20
8150.0
0
VERTEX
8
0
10
1159.9999999999995
20
8130.0
0
VERTEX
8
0
10
1159.9999999999995
20
8130.0
0
VERTEX
8
0
10
1159.9999999999995
20
8130.0
0
VERTEX
8
0
10
1159.9999999999995
20
8130.0
0
VERTEX
8
0
10
1179.9999999999995
20
8130.0
0
SEQEND
0
POLYLINE
8
0
66
1
10
0.0
20
0.0
30
0.0
0
VERTEX
8
0
10
784.9999999999995
20
8170.0
0
VERTEX
8
0
10
784.9999999999995
20
8180.0
0
VERTEX
8
0
10
774.9999999999995
20
8180.0
0
VERTEX
8
0
10
774.9999999999995
20
8170.0
0
VERTEX
8
0
10
784.9999999999995
20
8170.0
0
SEQEND
0
POLYLINE
8
0
66
1
10
0.0
20
0.0
30
0.0
0
VERTEX
8
0
10
784.9999999999995
20
8180.0
0
VERTEX
8
0
10
783.660254037844
20
8175.0
0
VERTEX
8
0
10
779.9999999999995
20
8171.339745962156
0
VERTEX
8
0
10
774.9999999999995
20
8170.0
0
VERTEX
8
0
10
774.9999999999995
20
8175.0
0
VERTEX
8
0
10
777.4999999999995
20
8175.669872981078
0
VERTEX
8
0
10
779.3301270189218
20
8177.5
0
VERTEX
8
0
10
779.9999999999995
20
8180.0
0
VERTEX
8
0
10
784.9999999999995
20
8180.0
0
SEQEND
0
POLYLINE
8
0
66
1
10
0.0
20
0.0
30
0.0
0
VERTEX
8
0
10
779.9999999999995
20
8180.0
0
VERTEX
8
0
10
779.3301270189218
20
8177.5
0
VERTEX
8
0
10
777.4999999999995
20
8175.669872981078
0
VERTEX
8
0
10
774.9999999999995
20
8175.0
0
VERTEX
8
0
10
774.9999999999995
20
8180.0
0
VERTEX
8
0
10
774.9999999999995
20
8180.0
0
VERTEX
8
0
10
774.9999999999995
20
8180.0
0
VERTEX
8
0
10
774.9999999999995
20
8180.0
0
VERTEX
8
0
10
779.9999999999995
20
8180.0
0
SEQEND
0
POLYLINE
8
0
66
1
10
0.0
20
0.0
30
0.0
0
VERTEX
8
0
10
824.9999999999995
20
8170.0
0
VERTEX
8
0
10
824.9999999999995
20
8180.0
0
VERTEX
8
0
10
814.9999999999995
20
8180.0
0
VERTEX
8
0
10
814.9999999999995
20
8170.0
0
VERTEX
8
0
10
824.9999999999995
20
8170.0
0
SEQEND
0
POLYLINE
8
0
66
1
10
0.0
20
0.0
30
0.0
0
VERTEX
8
0
10
814.9999999999995
20
8180.0
0
VERTEX
8
0
10
816.3397459621551
20
8175.0
0
VERTEX
8
0
10
819.9999999999995
20
8171.339745962156
0
VERTEX
8
0
10
824.9999999999995
20
8170.0
0
VERTEX
8
0
10
824.9999999999995
20
8175.0
0
VERTEX
8
0
10
822.4999999999995
20
8175.669872981078
0
VERTEX
8
0
10
820.6698729810773
20
8177.5
0
VERTEX
8
0
10
819.9999999999995
20
8180.0
0
VERTEX
8
0
10
814.9999999999995
20
8180.0
0
SEQEND
0
POLYLINE
8
0
66
1
10
0.0
20
0.0
30
0.0
0
VERTEX
8
0
10
819.9999999999995
20
8180.0
0
VERTEX
8
0
10
820.6698729810773
20
8177.5
0
VERTEX
8
0
10
822.4999999999995
20
8175.669872981078
0
VERTEX
8
0
10
824.9999999999995
20
8175.0
0
VERTEX
8
0
10
824.9999999999995
20
8180.0
0
VERTEX
8
0
10
824.9999999999995
20
8180.0
0
VERTEX
8
0
10
824.9999999999995
20
8180.0
0
VERTEX
8
0
10
824.9999999999995
20
8180.0
0
VERTEX
8
0
10
819.9999999999995
20
8180.0
0
SEQEND
0
POLYLINE
8
0
66
1
10
0.0
20
0.0
30
0.0
0
VERTEX
8
0
10
700.0
20
9250.0
0
VERTEX
8
0
10
700.0
20
9350.0
0
VERTEX
8
0
10
775.0
20
9350.0
0
VERTEX
8
0
10
775.0
20
9250.0
0
VERTEX
8
0
10
750.0
20
9250.0
0
VERTEX
8
0
10
750.0
20
9337.5
0
VERTEX
8
0
10
725.0
20
9337.5
0
VERTEX
8
0
10
725.0
20
9250.0
0
VERTEX
8
0
10
700.0
20
9250.0
0
SEQEND
0
POLYLINE
8
0
66
1
10
0.0
20
0.0
30
0.0
0
VERTEX
8
0
10
725.0
20
9300.0
0
VERTEX
8
0
10
725.0
20
9312.5
0
VERTEX
8
0
10
750.0
20
9312.5
0
VERTEX
8
0
10
750.0
20
9300.0
0
VERTEX
8
0
10
725.0
20
9300.0
0
SEQEND
0
POLYLINE
8
0
66
1
10
0.0
20
0.0
30
0.0
0
VERTEX
8
0
10
800.0
20
9250.0
0
VERTEX
8
0
10
875.0
20
9250.0
0
VERTEX
8
0
10
875.0
20
9350.0
0
VERTEX
8
0
10
800.0
20
9350.0
0
VERTEX
8
0
10
800.0
20
9337.5
0
VERTEX
8
0
10
850.0
20
9337.5
0
VERTEX
8
0
10
850.0
20
9306.25
0
VERTEX
8
0
10
825.0
20
9306.25
0
VERTEX
8
0
10
825.0
20
9293.75
0
VERTEX
8
0
10
850.0
20
9293.75
0
VERTEX
8
0
10
850.0
20
9262.5
0
VERTEX
8
0
10
800.0
20
9262.5
0
VERTEX
8
0
10
800.0
20
9250.0
0
VERTEX
8
0
10
800.0
20
9250.0
0
SEQEND
0
POLYLINE
8
0
66
1
10
0.0
20
0.0
30
0.0
0
VERTEX
8
0
10
500.0
20
120.0
0
VERTEX
8
0
10
500.0
20
420.0
0
VERTEX
8
0
10
725.0
20
420.0
0
VERTEX
8
0
10
725.0
20
120.0
0
VERTEX
8
0
10
650.0
20
120.0
0
VERTEX
8
0
10
650.0
20
382.5
0
VERTEX
8
0
10
575.0
20
382.5
0
VERTEX
8
0
10
575.0
20
120.0
0
VERTEX
8
0
10
500.0
20
120.0
0
SEQEND
0
POLYLINE
8
0
66
1
10
0.0
20
0.0
30
0.0
0
VERTEX
8
0
10
575.0
20
270.0
0
VERTEX
8
0
10
575.0
20
307.5
0
VERTEX
8
0
10
650.0
20
307.5
0
VERTEX
8
0
10
650.0
20
270.0
0
VERTEX
8
0
10
575.0
20
270.0
0
SEQEND
0
POLYLINE
8
0
66
1
10
0.0
20
0.0
30
0.0
0
VERTEX
8
0
10
460.0
20
26050.0
0
VERTEX
8
0
10
540.0
20
26050.0
0
VERTEX
8
0
10
540.0
20
26030.0
0
VERTEX
8
0
10
460.0
20
26030.0
0
VERTEX
8
0
10
460.0
20
26050.0
0
SEQEND
0
POLYLINE
8
0
66
1
10
0.0
20
0.0
30
0.0
0
VERTEX
8
0
10
460.0
20
-100.0
0
VERTEX
8
0
10
540.0
20
-100.0
0
VERTEX
8
0
10
540.0
20
-80.0
0
VERTEX
8
0
10
460.0
20
-80.0
0
VERTEX
8
0
10
460.0
20
-100.0
0
SEQEND
0
POLYLINE
8
0
66
1
10
0.0
20
0.0
30
0.0
0
VERTEX
8
0
10
-100.0
20
8576.666666666666
0
VERTEX
8
0
10
-100.0
20
8656.666666666666
0
VERTEX
8
0
10
-80.0
20
8656.666666666666
0
VERTEX
8
0
10
-80.0
20
8576.666666666666
0
VERTEX
8
0
10
-100.0
20
8576.666666666666
0
SEQEND
0
POLYLINE
8
0
66
1
10
0.0
20
0.0
30
0.0
0
VERTEX
8
0
10
1700.0
20
8576.666666666666
0
VERTEX
8
0
10
1700.0
20
8656.666666666666
0
VERTEX
8
0
10
1680.0
20
8656.666666666666
0
VERTEX
8
0
10
1680.0
20
8576.666666666666
0
VERTEX
8
0
10
1700.0
20
8576.666666666666
0
SEQEND
0
POLYLINE
8
0
66
1
10
0.0
20
0.0
30
0.0
0
VERTEX
8
0
10
1060.0
20
26050.0
0
VERTEX
8
0
10
1140.0
20
26050.0
0
VERTEX
8
0
10
1140.0
20
26030.0
0
VERTEX
8
0
10
1060.0
20
26030.0
0
VERTEX
8
0
10
1060.0
20
26050.0
0
SEQEND
0
POLYLINE
8
0
66
1
10
0.0
20
0.0
30
0.0
0
VERTEX
8
0
10
1060.0
20
-100.0
0
VERTEX
8
0
10
1140.0
20
-100.0
0
VERTEX
8
0
10
1140.0
20
-80.0
0
VERTEX
8
0
10
1060.0
20
-80.0
0
VERTEX
8
0
10
1060.0
20
-100.0
0
SEQEND
0
POLYLINE
8
0
66
1
10
0.0
20
0.0
30
0.0
0
VERTEX
8
0
10
-100.0
20
17293.333333333332
0
VERTEX
8
0
10
-100.0
20
17373.333333333332
0
VERTEX
8
0
10
-80.0
20
17373.333333333332
0
VERTEX
8
0
10
-80.0
20
17293.333333333332
0
VERTEX
8
0
10
-100.0
20
17293.333333333332
0
SEQEND
0
POLYLINE
8
0
66
1
10
0.0
20
0.0
30
0.0
0
VERTEX
8
0
10
1700.0
20
17293.333333333332
0
VERTEX
8
0
10
1700.0
20
17373.333333333332
0
VERTEX
8
0
10
1680.0
20
17373.333333333332
0
VERTEX
8
0
10
1680.0
20
17293.333333333332
0
VERTEX
8
0
10
1700.0
20
17293.333333333332
0
SEQEND
0
ENDBLK
0
ENDSEC
0
SECTION
2
ENTITIES
0
INSERT
2
A
8
0
10
0
20
0
0
ENDSEC
0
EOF
