0
SECTION
2
HEADER
9
$ACADVER
1
AC1006
9
$INSBASE
10
0.0
20
0.0
30
0.0
9
$EXTMIN
10
0.0
20
0.0
9
$EXTMAX
10
0.0
20
0.0
0
ENDSEC
0
SECTION
2
TABLES
0
TABLE
2
LTYPE
70
1
0
LTYPE
2
CONTINUOUS
70
64
3
Solid line
72
65
73
0
40
0.0
0
ENDTAB
0
TABLE
2
LAYER
70
1
0
LAYER
2
PYDXF
70
64
62
7
6
continuous
0
ENDTAB
0
TABLE
2
STYLE
70
1
0
STYLE
2
STANDARD
70
0
40
0
41
40
50
50
71
0
42
1
3
ARIAL.TTF
4

0
ENDTAB
0
TABLE
2
VIEW
70
0
0
ENDTAB
0
ENDSEC
0
SECTION
2
BLOCKS
0
BLOCK
8
0
2
K
70
0
10
0
20
0
30
0
3
K
0
POLYLINE
8
0
66
1
10
0.0
20
0.0
30
0.0
0
VERTEX
8
0
10
400.0
20
9750.0
0
VERTEX
8
0
10
400.0
20
9650.0
0
VERTEX
8
0
10
1600.0
20
9650.0
0
VERTEX
8
0
10
1600.0
20
9750.0
0
VERTEX
8
0
10
400.0
20
9750.0
0
SEQEND
0
POLYLINE
8
0
66
1
10
0.0
20
0.0
30
0.0
0
VERTEX
8
0
10
725.0
20
25130.0
0
VERTEX
8
0
10
724.9999999999993
20
21180.0
0
VERTEX
8
0
10
874.9999999999993
20
21180.0
0
VERTEX
8
0
10
875.0
20
25130.0
0
VERTEX
8
0
10
725.0
20
25130.0
0
SEQEND
0
POLYLINE
8
0
66
1
10
0.0
20
0.0
30
0.0
0
VERTEX
8
0
10
784.9999999999993
20
21180.0
0
VERTEX
8
0
10
784.9999999999992
20
20810.0
0
VERTEX
8
0
10
814.9999999999992
20
20810.0
0
VERTEX
8
0
10
814.9999999999993
20
21180.0
0
VERTEX
8
0
10
784.9999999999993
20
21180.0
0
SEQEND
0
POLYLINE
8
0
66
1
10
0.0
20
0.0
30
0.0
0
VERTEX
8
0
10
802.4999999999992
20
20810.0
0
VERTEX
8
0
10
802.4999999999992
20
20815.0
0
VERTEX
8
0
10
797.4999999999992
20
20815.0
0
VERTEX
8
0
10
797.4999999999992
20
20810.0
0
VERTEX
8
0
10
802.4999999999992
20
20810.0
0
SEQEND
0
POLYLINE
8
0
66
1
10
0.0
20
0.0
30
0.0
0
VERTEX
8
0
10
807.4999999999992
20
20815.0
0
VERTEX
8
0
10
807.4999999999992
20
20820.0
0
VERTEX
8
0
10
792.4999999999992
20
20820.0
0
VERTEX
8
0
10
792.4999999999992
20
20815.0
0
VERTEX
8
0
10
807.4999999999992
20
20815.0
0
SEQEND
0
POLYLINE
8
0
66
1
10
0.0
20
0.0
30
0.0
0
VERTEX
8
0
10
797.4999999999992
20
20780.0
0
VERTEX
8
0
10
797.4999999999992
20
20775.0
0
VERTEX
8
0
10
802.4999999999992
20
20775.0
0
VERTEX
8
0
10
802.4999999999992
20
20780.0
0
VERTEX
8
0
10
797.4999999999992
20
20780.0
0
SEQEND
0
POLYLINE
8
0
66
1
10
0.0
20
0.0
30
0.0
0
VERTEX
8
0
10
792.4999999999992
20
20775.0
0
VERTEX
8
0
10
792.4999999999992
20
20770.0
0
VERTEX
8
0
10
807.4999999999992
20
20770.0
0
VERTEX
8
0
10
807.4999999999992
20
20775.0
0
VERTEX
8
0
10
792.4999999999992
20
20775.0
0
SEQEND
0
POLYLINE
8
0
66
1
10
0.0
20
0.0
30
0.0
0
VERTEX
8
0
10
784.9999999999992
20
20780.0
0
VERTEX
8
0
10
784.9999999999991
20
20430.0
0
VERTEX
8
0
10
814.9999999999991
20
20430.0
0
VERTEX
8
0
10
814.9999999999992
20
20780.0
0
VERTEX
8
0
10
784.9999999999992
20
20780.0
0
SEQEND
0
POLYLINE
8
0
66
1
10
0.0
20
0.0
30
0.0
0
VERTEX
8
0
10
724.9999999999991
20
20430.0
0
VERTEX
8
0
10
724.9999999999977
20
17330.0
0
VERTEX
8
0
10
874.9999999999977
20
17330.0
0
VERTEX
8
0
10
874.9999999999991
20
20430.0
0
VERTEX
8
0
10
724.9999999999991
20
20430.0
0
SEQEND
0
POLYLINE
8
0
66
1
10
0.0
20
0.0
30
0.0
0
VERTEX
8
0
10
835.0
20
25130.0
0
VERTEX
8
0
10
835.0
20
25090.0
0
VERTEX
8
0
10
875.0
20
25090.0
0
VERTEX
8
0
10
875.0
20
25130.0
0
VERTEX
8
0
10
835.0
20
25130.0
0
SEQEND
0
POLYLINE
8
0
66
1
10
0.0
20
0.0
30
0.0
0
VERTEX
8
0
10
875.0
20
25090.0
0
VERTEX
8
0
10
869.6410161513776
20
25110.0
0
VERTEX
8
0
10
855.0
20
25124.641016151378
0
VERTEX
8
0
10
835.0
20
25130.0
0
VERTEX
8
0
10
835.0
20
25110.0
0
VERTEX
8
0
10
845.0
20
25107.32050807569
0
VERTEX
8
0
10
852.3205080756887
20
25100.0
0
VERTEX
8
0
10
855.0
20
25090.0
0
VERTEX
8
0
10
875.0
20
25090.0
0
SEQEND
0
POLYLINE
8
0
66
1
10
0.0
20
0.0
30
0.0
0
VERTEX
8
0
10
855.0
20
25090.0
0
VERTEX
8
0
10
852.3205080756887
20
25100.0
0
VERTEX
8
0
10
845.0
20
25107.32050807569
0
VERTEX
8
0
10
835.0
20
25110.0
0
VERTEX
8
0
10
835.0
20
25090.0
0
VERTEX
8
0
10
835.0
20
25090.0
0
VERTEX
8
0
10
835.0
20
25090.0
0
VERTEX
8
0
10
835.0
20
25090.0
0
VERTEX
8
0
10
855.0
20
25090.0
0
SEQEND
0
POLYLINE
8
0
66
1
10
0.0
20
0.0
30
0.0
0
VERTEX
8
0
10
725.0
20
25130.0
0
VERTEX
8
0
10
725.0
20
25090.0
0
VERTEX
8
0
10
765.0
20
25090.0
0
VERTEX
8
0
10
765.0
20
25130.0
0
VERTEX
8
0
10
725.0
20
25130.0
0
SEQEND
0
POLYLINE
8
0
66
1
10
0.0
20
0.0
30
0.0
0
VERTEX
8
0
10
725.0
20
25090.0
0
VERTEX
8
0
10
730.3589838486224
20
25110.0
0
VERTEX
8
0
10
745.0
20
25124.641016151378
0
VERTEX
8
0
10
765.0
20
25130.0
0
VERTEX
8
0
10
765.0
20
25110.0
0
VERTEX
8
0
10
755.0
20
25107.32050807569
0
VERTEX
8
0
10
747.6794919243113
20
25100.0
0
VERTEX
8
0
10
745.0
20
25090.0
0
VERTEX
8
0
10
725.0
20
25090.0
0
SEQEND
0
POLYLINE
8
0
66
1
10
0.0
20
0.0
30
0.0
0
VERTEX
8
0
10
745.0
20
25090.0
0
VERTEX
8
0
10
747.6794919243113
20
25100.0
0
VERTEX
8
0
10
755.0
20
25107.32050807569
0
VERTEX
8
0
10
765.0
20
25110.0
0
VERTEX
8
0
10
765.0
20
25090.0
0
VERTEX
8
0
10
765.0
20
25090.0
0
VERTEX
8
0
10
765.0
20
25090.0
0
VERTEX
8
0
10
765.0
20
25090.0
0
VERTEX
8
0
10
745.0
20
25090.0
0
SEQEND
0
POLYLINE
8
0
66
1
10
0.0
20
0.0
30
0.0
0
VERTEX
8
0
10
765.0
20
21180.0
0
VERTEX
8
0
10
765.0
20
21220.0
0
VERTEX
8
0
10
725.0
20
21220.0
0
VERTEX
8
0
10
725.0
20
21180.0
0
VERTEX
8
0
10
765.0
20
21180.0
0
SEQEND
0
POLYLINE
8
0
66
1
10
0.0
20
0.0
30
0.0
0
VERTEX
8
0
10
725.0
20
21220.0
0
VERTEX
8
0
10
730.3589838486224
20
21200.0
0
VERTEX
8
0
10
745.0
20
21185.358983848622
0
VERTEX
8
0
10
765.0
20
21180.0
0
VERTEX
8
0
10
765.0
20
21200.0
0
VERTEX
8
0
10
755.0
20
21202.67949192431
0
VERTEX
8
0
10
747.6794919243113
20
21210.0
0
VERTEX
8
0
10
745.0
20
21220.0
0
VERTEX
8
0
10
725.0
20
21220.0
0
SEQEND
0
POLYLINE
8
0
66
1
10
0.0
20
0.0
30
0.0
0
VERTEX
8
0
10
745.0
20
21220.0
0
VERTEX
8
0
10
747.6794919243113
20
21210.0
0
VERTEX
8
0
10
755.0
20
21202.67949192431
0
VERTEX
8
0
10
765.0
20
21200.0
0
VERTEX
8
0
10
765.0
20
21220.0
0
VERTEX
8
0
10
765.0
20
21220.0
0
VERTEX
8
0
10
765.0
20
21220.0
0
VERTEX
8
0
10
765.0
20
21220.0
0
VERTEX
8
0
10
745.0
20
21220.0
0
SEQEND
0
POLYLINE
8
0
66
1
10
0.0
20
0.0
30
0.0
0
VERTEX
8
0
10
875.0
20
21180.0
0
VERTEX
8
0
10
875.0
20
21220.0
0
VERTEX
8
0
10
835.0
20
21220.0
0
VERTEX
8
0
10
835.0
20
21180.0
0
VERTEX
8
0
10
875.0
20
21180.0
0
SEQEND
0
POLYLINE
8
0
66
1
10
0.0
20
0.0
30
0.0
0
VERTEX
8
0
10
875.0
20
21220.0
0
VERTEX
8
0
10
869.6410161513776
20
21200.0
0
VERTEX
8
0
10
855.0
20
21185.358983848622
0
VERTEX
8
0
10
835.0
20
21180.0
0
VERTEX
8
0
10
835.0
20
21200.0
0
VERTEX
8
0
10
845.0
20
21202.67949192431
0
VERTEX
8
0
10
852.3205080756887
20
21210.0
0
VERTEX
8
0
10
855.0
20
21220.0
0
VERTEX
8
0
10
875.0
20
21220.0
0
SEQEND
0
POLYLINE
8
0
66
1
10
0.0
20
0.0
30
0.0
0
VERTEX
8
0
10
855.0
20
21220.0
0
VERTEX
8
0
10
852.3205080756887
20
21210.0
0
VERTEX
8
0
10
845.0
20
21202.67949192431
0
VERTEX
8
0
10
835.0
20
21200.0
0
VERTEX
8
0
10
835.0
20
21220.0
0
VERTEX
8
0
10
835.0
20
21220.0
0
VERTEX
8
0
10
835.0
20
21220.0
0
VERTEX
8
0
10
835.0
20
21220.0
0
VERTEX
8
0
10
855.0
20
21220.0
0
SEQEND
0
POLYLINE
8
0
66
1
10
0.0
20
0.0
30
0.0
0
VERTEX
8
0
10
775.0
20
21180.0
0
VERTEX
8
0
10
775.0
20
21170.0
0
VERTEX
8
0
10
785.0
20
21170.0
0
VERTEX
8
0
10
785.0
20
21180.0
0
VERTEX
8
0
10
775.0
20
21180.0
0
SEQEND
0
POLYLINE
8
0
66
1
10
0.0
20
0.0
30
0.0
0
VERTEX
8
0
10
785.0
20
21170.0
0
VERTEX
8
0
10
783.6602540378444
20
21175.0
0
VERTEX
8
0
10
780.0
20
21178.660254037844
0
VERTEX
8
0
10
775.0
20
21180.0
0
VERTEX
8
0
10
775.0
20
21175.0
0
VERTEX
8
0
10
777.5
20
21174.330127018922
0
VERTEX
8
0
10
779.3301270189222
20
21172.5
0
VERTEX
8
0
10
780.0
20
21170.0
0
VERTEX
8
0
10
785.0
20
21170.0
0
SEQEND
0
POLYLINE
8
0
66
1
10
0.0
20
0.0
30
0.0
0
VERTEX
8
0
10
780.0
20
21170.0
0
VERTEX
8
0
10
779.3301270189222
20
21172.5
0
VERTEX
8
0
10
777.5
20
21174.330127018922
0
VERTEX
8
0
10
775.0
20
21175.0
0
VERTEX
8
0
10
775.0
20
21170.0
0
VERTEX
8
0
10
775.0
20
21170.0
0
VERTEX
8
0
10
775.0
20
21170.0
0
VERTEX
8
0
10
775.0
20
21170.0
0
VERTEX
8
0
10
780.0
20
21170.0
0
SEQEND
0
POLYLINE
8
0
66
1
10
0.0
20
0.0
30
0.0
0
VERTEX
8
0
10
815.0
20
21180.0
0
VERTEX
8
0
10
815.0
20
21170.0
0
VERTEX
8
0
10
825.0
20
21170.0
0
VERTEX
8
0
10
825.0
20
21180.0
0
VERTEX
8
0
10
815.0
20
21180.0
0
SEQEND
0
POLYLINE
8
0
66
1
10
0.0
20
0.0
30
0.0
0
VERTEX
8
0
10
815.0
20
21170.0
0
VERTEX
8
0
10
816.3397459621556
20
21175.0
0
VERTEX
8
0
10
820.0
20
21178.660254037844
0
VERTEX
8
0
10
825.0
20
21180.0
0
VERTEX
8
0
10
825.0
20
21175.0
0
VERTEX
8
0
10
822.5
20
21174.330127018922
0
VERTEX
8
0
10
820.6698729810778
20
21172.5
0
VERTEX
8
0
10
820.0
20
21170.0
0
VERTEX
8
0
10
815.0
20
21170.0
0
SEQEND
0
POLYLINE
8
0
66
1
10
0.0
20
0.0
30
0.0
0
VERTEX
8
0
10
820.0
20
21170.0
0
VERTEX
8
0
10
820.6698729810778
20
21172.5
0
VERTEX
8
0
10
822.5
20
21174.330127018922
0
VERTEX
8
0
10
825.0
20
21175.0
0
VERTEX
8
0
10
825.0
20
21170.0
0
VERTEX
8
0
10
825.0
20
21170.0
0
VERTEX
8
0
10
825.0
20
21170.0
0
VERTEX
8
0
10
825.0
20
21170.0
0
VERTEX
8
0
10
820.0
20
21170.0
0
SEQEND
0
POLYLINE
8
0
66
1
10
0.0
20
0.0
30
0.0
0
VERTEX
8
0
10
874.9999999999977
20
17330.0
0
VERTEX
8
0
10
874.9999999999977
20
17370.0
0
VERTEX
8
0
10
834.9999999999977
20
17370.0
0
VERTEX
8
0
10
834.9999999999977
20
17330.0
0
VERTEX
8
0
10
874.9999999999977
20
17330.0
0
SEQEND
0
POLYLINE
8
0
66
1
10
0.0
20
0.0
30
0.0
0
VERTEX
8
0
10
874.9999999999977
20
17370.0
0
VERTEX
8
0
10
869.6410161513753
20
17350.0
0
VERTEX
8
0
10
854.9999999999977
20
17335.358983848622
0
VERTEX
8
0
10
834.9999999999977
20
17330.0
0
VERTEX
8
0
10
834.9999999999977
20
17350.0
0
VERTEX
8
0
10
844.9999999999977
20
17352.67949192431
0
VERTEX
8
0
10
852.3205080756865
20
17360.0
0
VERTEX
8
0
10
854.9999999999977
20
17370.0
0
VERTEX
8
0
10
874.9999999999977
20
17370.0
0
SEQEND
0
POLYLINE
8
0
66
1
10
0.0
20
0.0
30
0.0
0
VERTEX
8
0
10
854.9999999999977
20
17370.0
0
VERTEX
8
0
10
852.3205080756865
20
17360.0
0
VERTEX
8
0
10
844.9999999999977
20
17352.67949192431
0
VERTEX
8
0
10
834.9999999999977
20
17350.0
0
VERTEX
8
0
10
834.9999999999977
20
17370.0
0
VERTEX
8
0
10
834.9999999999977
20
17370.0
0
VERTEX
8
0
10
834.9999999999977
20
17370.0
0
VERTEX
8
0
10
834.9999999999977
20
17370.0
0
VERTEX
8
0
10
854.9999999999977
20
17370.0
0
SEQEND
0
POLYLINE
8
0
66
1
10
0.0
20
0.0
30
0.0
0
VERTEX
8
0
10
764.9999999999977
20
17330.0
0
VERTEX
8
0
10
764.9999999999977
20
17370.0
0
VERTEX
8
0
10
724.9999999999977
20
17370.0
0
VERTEX
8
0
10
724.9999999999977
20
17330.0
0
VERTEX
8
0
10
764.9999999999977
20
17330.0
0
SEQEND
0
POLYLINE
8
0
66
1
10
0.0
20
0.0
30
0.0
0
VERTEX
8
0
10
724.9999999999977
20
17370.0
0
VERTEX
8
0
10
730.3589838486201
20
17350.0
0
VERTEX
8
0
10
744.9999999999977
20
17335.358983848622
0
VERTEX
8
0
10
764.9999999999977
20
17330.0
0
VERTEX
8
0
10
764.9999999999977
20
17350.0
0
VERTEX
8
0
10
754.9999999999977
20
17352.67949192431
0
VERTEX
8
0
10
747.679491924309
20
17360.0
0
VERTEX
8
0
10
744.9999999999977
20
17370.0
0
VERTEX
8
0
10
724.9999999999977
20
17370.0
0
SEQEND
0
POLYLINE
8
0
66
1
10
0.0
20
0.0
30
0.0
0
VERTEX
8
0
10
744.9999999999977
20
17370.0
0
VERTEX
8
0
10
747.679491924309
20
17360.0
0
VERTEX
8
0
10
754.9999999999977
20
17352.67949192431
0
VERTEX
8
0
10
764.9999999999977
20
17350.0
0
VERTEX
8
0
10
764.9999999999977
20
17370.0
0
VERTEX
8
0
10
764.9999999999977
20
17370.0
0
VERTEX
8
0
10
764.9999999999977
20
17370.0
0
VERTEX
8
0
10
764.9999999999977
20
17370.0
0
VERTEX
8
0
10
744.9999999999977
20
17370.0
0
SEQEND
0
POLYLINE
8
0
66
1
10
0.0
20
0.0
30
0.0
0
VERTEX
8
0
10
724.9999999999977
20
20430.0
0
VERTEX
8
0
10
724.9999999999977
20
20390.0
0
VERTEX
8
0
10
764.9999999999977
20
20390.0
0
VERTEX
8
0
10
764.9999999999977
20
20430.0
0
VERTEX
8
0
10
724.9999999999977
20
20430.0
0
SEQEND
0
POLYLINE
8
0
66
1
10
0.0
20
0.0
30
0.0
0
VERTEX
8
0
10
724.9999999999977
20
20390.0
0
VERTEX
8
0
10
730.3589838486201
20
20410.0
0
VERTEX
8
0
10
744.9999999999977
20
20424.641016151378
0
VERTEX
8
0
10
764.9999999999977
20
20430.0
0
VERTEX
8
0
10
764.9999999999977
20
20410.0
0
VERTEX
8
0
10
754.9999999999977
20
20407.32050807569
0
VERTEX
8
0
10
747.679491924309
20
20400.0
0
VERTEX
8
0
10
744.9999999999977
20
20390.0
0
VERTEX
8
0
10
724.9999999999977
20
20390.0
0
SEQEND
0
POLYLINE
8
0
66
1
10
0.0
20
0.0
30
0.0
0
VERTEX
8
0
10
744.9999999999977
20
20390.0
0
VERTEX
8
0
10
747.679491924309
20
20400.0
0
VERTEX
8
0
10
754.9999999999977
20
20407.32050807569
0
VERTEX
8
0
10
764.9999999999977
20
20410.0
0
VERTEX
8
0
10
764.9999999999977
20
20390.0
0
VERTEX
8
0
10
764.9999999999977
20
20390.0
0
VERTEX
8
0
10
764.9999999999977
20
20390.0
0
VERTEX
8
0
10
764.9999999999977
20
20390.0
0
VERTEX
8
0
10
744.9999999999977
20
20390.0
0
SEQEND
0
POLYLINE
8
0
66
1
10
0.0
20
0.0
30
0.0
0
VERTEX
8
0
10
834.9999999999977
20
20430.0
0
VERTEX
8
0
10
834.9999999999977
20
20390.0
0
VERTEX
8
0
10
874.9999999999977
20
20390.0
0
VERTEX
8
0
10
874.9999999999977
20
20430.0
0
VERTEX
8
0
10
834.9999999999977
20
20430.0
0
SEQEND
0
POLYLINE
8
0
66
1
10
0.0
20
0.0
30
0.0
0
VERTEX
8
0
10
874.9999999999977
20
20390.0
0
VERTEX
8
0
10
869.6410161513753
20
20410.0
0
VERTEX
8
0
10
854.9999999999977
20
20424.641016151378
0
VERTEX
8
0
10
834.9999999999977
20
20430.0
0
VERTEX
8
0
10
834.9999999999977
20
20410.0
0
VERTEX
8
0
10
844.9999999999977
20
20407.32050807569
0
VERTEX
8
0
10
852.3205080756865
20
20400.0
0
VERTEX
8
0
10
854.9999999999977
20
20390.0
0
VERTEX
8
0
10
874.9999999999977
20
20390.0
0
SEQEND
0
POLYLINE
8
0
66
1
10
0.0
20
0.0
30
0.0
0
VERTEX
8
0
10
854.9999999999977
20
20390.0
0
VERTEX
8
0
10
852.3205080756865
20
20400.0
0
VERTEX
8
0
10
844.9999999999977
20
20407.32050807569
0
VERTEX
8
0
10
834.9999999999977
20
20410.0
0
VERTEX
8
0
10
834.9999999999977
20
20390.0
0
VERTEX
8
0
10
834.9999999999977
20
20390.0
0
VERTEX
8
0
10
834.9999999999977
20
20390.0
0
VERTEX
8
0
10
834.9999999999977
20
20390.0
0
VERTEX
8
0
10
854.9999999999977
20
20390.0
0
SEQEND
0
POLYLINE
8
0
66
1
10
0.0
20
0.0
30
0.0
0
VERTEX
8
0
10
784.9999999999977
20
20430.0
0
VERTEX
8
0
10
784.9999999999977
20
20440.0
0
VERTEX
8
0
10
774.9999999999977
20
20440.0
0
VERTEX
8
0
10
774.9999999999977
20
20430.0
0
VERTEX
8
0
10
784.9999999999977
20
20430.0
0
SEQEND
0
POLYLINE
8
0
66
1
10
0.0
20
0.0
30
0.0
0
VERTEX
8
0
10
784.9999999999977
20
20440.0
0
VERTEX
8
0
10
783.6602540378422
20
20435.0
0
VERTEX
8
0
10
779.9999999999977
20
20431.339745962156
0
VERTEX
8
0
10
774.9999999999977
20
20430.0
0
VERTEX
8
0
10
774.9999999999977
20
20435.0
0
VERTEX
8
0
10
777.4999999999977
20
20435.669872981078
0
VERTEX
8
0
10
779.3301270189199
20
20437.5
0
VERTEX
8
0
10
779.9999999999977
20
20440.0
0
VERTEX
8
0
10
784.9999999999977
20
20440.0
0
SEQEND
0
POLYLINE
8
0
66
1
10
0.0
20
0.0
30
0.0
0
VERTEX
8
0
10
779.9999999999977
20
20440.0
0
VERTEX
8
0
10
779.3301270189199
20
20437.5
0
VERTEX
8
0
10
777.4999999999977
20
20435.669872981078
0
VERTEX
8
0
10
774.9999999999977
20
20435.0
0
VERTEX
8
0
10
774.9999999999977
20
20440.0
0
VERTEX
8
0
10
774.9999999999977
20
20440.0
0
VERTEX
8
0
10
774.9999999999977
20
20440.0
0
VERTEX
8
0
10
774.9999999999977
20
20440.0
0
VERTEX
8
0
10
779.9999999999977
20
20440.0
0
SEQEND
0
POLYLINE
8
0
66
1
10
0.0
20
0.0
30
0.0
0
VERTEX
8
0
10
824.9999999999977
20
20430.0
0
VERTEX
8
0
10
824.9999999999977
20
20440.0
0
VERTEX
8
0
10
814.9999999999977
20
20440.0
0
VERTEX
8
0
10
814.9999999999977
20
20430.0
0
VERTEX
8
0
10
824.9999999999977
20
20430.0
0
SEQEND
0
POLYLINE
8
0
66
1
10
0.0
20
0.0
30
0.0
0
VERTEX
8
0
10
814.9999999999977
20
20440.0
0
VERTEX
8
0
10
816.3397459621533
20
20435.0
0
VERTEX
8
0
10
819.9999999999977
20
20431.339745962156
0
VERTEX
8
0
10
824.9999999999977
20
20430.0
0
VERTEX
8
0
10
824.9999999999977
20
20435.0
0
VERTEX
8
0
10
822.4999999999977
20
20435.669872981078
0
VERTEX
8
0
10
820.6698729810755
20
20437.5
0
VERTEX
8
0
10
819.9999999999977
20
20440.0
0
VERTEX
8
0
10
814.9999999999977
20
20440.0
0
SEQEND
0
POLYLINE
8
0
66
1
10
0.0
20
0.0
30
0.0
0
VERTEX
8
0
10
819.9999999999977
20
20440.0
0
VERTEX
8
0
10
820.6698729810755
20
20437.5
0
VERTEX
8
0
10
822.4999999999977
20
20435.669872981078
0
VERTEX
8
0
10
824.9999999999977
20
20435.0
0
VERTEX
8
0
10
824.9999999999977
20
20440.0
0
VERTEX
8
0
10
824.9999999999977
20
20440.0
0
VERTEX
8
0
10
824.9999999999977
20
20440.0
0
VERTEX
8
0
10
824.9999999999977
20
20440.0
0
VERTEX
8
0
10
819.9999999999977
20
20440.0
0
SEQEND
0
POLYLINE
8
0
66
1
10
0.0
20
0.0
30
0.0
0
VERTEX
8
0
10
400.0
20
3200.0
0
VERTEX
8
0
10
399.9999999999999
20
2400.0
0
VERTEX
8
0
10
1200.0
20
2400.0
0
VERTEX
8
0
10
1200.0
20
3200.0
0
VERTEX
8
0
10
400.0
20
3200.0
0
SEQEND
0
POLYLINE
8
0
66
1
10
0.0
20
0.0
30
0.0
0
VERTEX
8
0
10
784.9999999999999
20
2400.0
0
VERTEX
8
0
10
784.9999999999999
20
2300.0
0
VERTEX
8
0
10
814.9999999999999
20
2300.0
0
VERTEX
8
0
10
814.9999999999999
20
2400.0
0
VERTEX
8
0
10
784.9999999999999
20
2400.0
0
SEQEND
0
POLYLINE
8
0
66
1
10
0.0
20
0.0
30
0.0
0
VERTEX
8
0
10
802.4999999999999
20
2300.0
0
VERTEX
8
0
10
802.4999999999999
20
2305.0
0
VERTEX
8
0
10
797.4999999999999
20
2305.0
0
VERTEX
8
0
10
797.4999999999999
20
2300.0
0
VERTEX
8
0
10
802.4999999999999
20
2300.0
0
SEQEND
0
POLYLINE
8
0
66
1
10
0.0
20
0.0
30
0.0
0
VERTEX
8
0
10
807.4999999999999
20
2305.0
0
VERTEX
8
0
10
807.4999999999999
20
2310.0
0
VERTEX
8
0
10
792.4999999999999
20
2310.0
0
VERTEX
8
0
10
792.4999999999999
20
2305.0
0
VERTEX
8
0
10
807.4999999999999
20
2305.0
0
SEQEND
0
POLYLINE
8
0
66
1
10
0.0
20
0.0
30
0.0
0
VERTEX
8
0
10
797.4999999999999
20
2270.0
0
VERTEX
8
0
10
797.4999999999999
20
2265.0
0
VERTEX
8
0
10
802.4999999999999
20
2265.0
0
VERTEX
8
0
10
802.4999999999999
20
2270.0
0
VERTEX
8
0
10
797.4999999999999
20
2270.0
0
SEQEND
0
POLYLINE
8
0
66
1
10
0.0
20
0.0
30
0.0
0
VERTEX
8
0
10
792.4999999999999
20
2265.0
0
VERTEX
8
0
10
792.4999999999999
20
2260.0
0
VERTEX
8
0
10
807.4999999999999
20
2260.0
0
VERTEX
8
0
10
807.4999999999999
20
2265.0
0
VERTEX
8
0
10
792.4999999999999
20
2265.0
0
SEQEND
0
POLYLINE
8
0
66
1
10
0.0
20
0.0
30
0.0
0
VERTEX
8
0
10
784.9999999999999
20
2270.0
0
VERTEX
8
0
10
784.9999999999999
20
2170.0
0
VERTEX
8
0
10
814.9999999999999
20
2170.0
0
VERTEX
8
0
10
814.9999999999999
20
2270.0
0
VERTEX
8
0
10
784.9999999999999
20
2270.0
0
SEQEND
0
POLYLINE
8
0
66
1
10
0.0
20
0.0
30
0.0
0
VERTEX
8
0
10
399.9999999999999
20
2170.0
0
VERTEX
8
0
10
399.99999999999955
20
1370.0000000000002
0
VERTEX
8
0
10
1199.9999999999995
20
1369.9999999999998
0
VERTEX
8
0
10
1200.0
20
2170.0
0
VERTEX
8
0
10
399.9999999999999
20
2170.0
0
SEQEND
0
POLYLINE
8
0
66
1
10
0.0
20
0.0
30
0.0
0
VERTEX
8
0
10
1160.0
20
3200.0
0
VERTEX
8
0
10
1160.0
20
3160.0
0
VERTEX
8
0
10
1200.0
20
3160.0
0
VERTEX
8
0
10
1200.0
20
3200.0
0
VERTEX
8
0
10
1160.0
20
3200.0
0
SEQEND
0
POLYLINE
8
0
66
1
10
0.0
20
0.0
30
0.0
0
VERTEX
8
0
10
1200.0
20
3160.0
0
VERTEX
8
0
10
1194.6410161513775
20
3180.0
0
VERTEX
8
0
10
1180.0
20
3194.6410161513777
0
VERTEX
8
0
10
1160.0
20
3200.0
0
VERTEX
8
0
10
1160.0
20
3180.0
0
VERTEX
8
0
10
1170.0
20
3177.320508075689
0
VERTEX
8
0
10
1177.3205080756888
20
3170.0
0
VERTEX
8
0
10
1180.0
20
3160.0
0
VERTEX
8
0
10
1200.0
20
3160.0
0
SEQEND
0
POLYLINE
8
0
66
1
10
0.0
20
0.0
30
0.0
0
VERTEX
8
0
10
1180.0
20
3160.0
0
VERTEX
8
0
10
1177.3205080756888
20
3170.0
0
VERTEX
8
0
10
1170.0
20
3177.320508075689
0
VERTEX
8
0
10
1160.0
20
3180.0
0
VERTEX
8
0
10
1160.0
20
3160.0
0
VERTEX
8
0
10
1160.0
20
3160.0
0
VERTEX
8
0
10
1160.0
20
3160.0
0
VERTEX
8
0
10
1160.0
20
3160.0
0
VERTEX
8
0
10
1180.0
20
3160.0
0
SEQEND
0
POLYLINE
8
0
66
1
10
0.0
20
0.0
30
0.0
0
VERTEX
8
0
10
400.0
20
3200.0
0
VERTEX
8
0
10
400.0
20
3160.0
0
VERTEX
8
0
10
440.0
20
3160.0
0
VERTEX
8
0
10
440.0
20
3200.0
0
VERTEX
8
0
10
400.0
20
3200.0
0
SEQEND
0
POLYLINE
8
0
66
1
10
0.0
20
0.0
30
0.0
0
VERTEX
8
0
10
400.0
20
3160.0
0
VERTEX
8
0
10
405.3589838486225
20
3180.0
0
VERTEX
8
0
10
420.0
20
3194.6410161513777
0
VERTEX
8
0
10
440.0
20
3200.0
0
VERTEX
8
0
10
440.0
20
3180.0
0
VERTEX
8
0
10
430.0
20
3177.320508075689
0
VERTEX
8
0
10
422.6794919243112
20
3170.0
0
VERTEX
8
0
10
420.0
20
3160.0
0
VERTEX
8
0
10
400.0
20
3160.0
0
SEQEND
0
POLYLINE
8
0
66
1
10
0.0
20
0.0
30
0.0
0
VERTEX
8
0
10
420.0
20
3160.0
0
VERTEX
8
0
10
422.6794919243112
20
3170.0
0
VERTEX
8
0
10
430.0
20
3177.320508075689
0
VERTEX
8
0
10
440.0
20
3180.0
0
VERTEX
8
0
10
440.0
20
3160.0
0
VERTEX
8
0
10
440.0
20
3160.0
0
VERTEX
8
0
10
440.0
20
3160.0
0
VERTEX
8
0
10
440.0
20
3160.0
0
VERTEX
8
0
10
420.0
20
3160.0
0
SEQEND
0
POLYLINE
8
0
66
1
10
0.0
20
0.0
30
0.0
0
VERTEX
8
0
10
440.0
20
2400.0
0
VERTEX
8
0
10
440.0
20
2440.0
0
VERTEX
8
0
10
400.0
20
2440.0
0
VERTEX
8
0
10
400.0
20
2400.0
0
VERTEX
8
0
10
440.0
20
2400.0
0
SEQEND
0
POLYLINE
8
0
66
1
10
0.0
20
0.0
30
0.0
0
VERTEX
8
0
10
400.0
20
2440.0
0
VERTEX
8
0
10
405.3589838486225
20
2420.0
0
VERTEX
8
0
10
420.0
20
2405.3589838486223
0
VERTEX
8
0
10
440.0
20
2400.0
0
VERTEX
8
0
10
440.0
20
2420.0
0
VERTEX
8
0
10
430.0
20
2422.679491924311
0
VERTEX
8
0
10
422.6794919243112
20
2430.0
0
VERTEX
8
0
10
420.0
20
2440.0
0
VERTEX
8
0
10
400.0
20
2440.0
0
SEQEND
0
POLYLINE
8
0
66
1
10
0.0
20
0.0
30
0.0
0
VERTEX
8
0
10
420.0
20
2440.0
0
VERTEX
8
0
10
422.6794919243112
20
2430.0
0
VERTEX
8
0
10
430.0
20
2422.679491924311
0
VERTEX
8
0
10
440.0
20
2420.0
0
VERTEX
8
0
10
440.0
20
2440.0
0
VERTEX
8
0
10
440.0
20
2440.0
0
VERTEX
8
0
10
440.0
20
2440.0
0
VERTEX
8
0
10
440.0
20
2440.0
0
VERTEX
8
0
10
420.0
20
2440.0
0
SEQEND
0
POLYLINE
8
0
66
1
10
0.0
20
0.0
30
0.0
0
VERTEX
8
0
10
1200.0
20
2400.0
0
VERTEX
8
0
10
1200.0
20
2440.0
0
VERTEX
8
0
10
1160.0
20
2440.0
0
VERTEX
8
0
10
1160.0
20
2400.0
0
VERTEX
8
0
10
1200.0
20
2400.0
0
SEQEND
0
POLYLINE
8
0
66
1
10
0.0
20
0.0
30
0.0
0
VERTEX
8
0
10
1200.0
20
2440.0
0
VERTEX
8
0
10
1194.6410161513775
20
2420.0
0
VERTEX
8
0
10
1180.0
20
2405.3589838486223
0
VERTEX
8
0
10
1160.0
20
2400.0
0
VERTEX
8
0
10
1160.0
20
2420.0
0
VERTEX
8
0
10
1170.0
20
2422.679491924311
0
VERTEX
8
0
10
1177.3205080756888
20
2430.0
0
VERTEX
8
0
10
1180.0
20
2440.0
0
VERTEX
8
0
10
1200.0
20
2440.0
0
SEQEND
0
POLYLINE
8
0
66
1
10
0.0
20
0.0
30
0.0
0
VERTEX
8
0
10
1180.0
20
2440.0
0
VERTEX
8
0
10
1177.3205080756888
20
2430.0
0
VERTEX
8
0
10
1170.0
20
2422.679491924311
0
VERTEX
8
0
10
1160.0
20
2420.0
0
VERTEX
8
0
10
1160.0
20
2440.0
0
VERTEX
8
0
10
1160.0
20
2440.0
0
VERTEX
8
0
10
1160.0
20
2440.0
0
VERTEX
8
0
10
1160.0
20
2440.0
0
VERTEX
8
0
10
1180.0
20
2440.0
0
SEQEND
0
POLYLINE
8
0
66
1
10
0.0
20
0.0
30
0.0
0
VERTEX
8
0
10
775.0
20
2400.0
0
VERTEX
8
0
10
775.0
20
2390.0
0
VERTEX
8
0
10
785.0
20
2390.0
0
VERTEX
8
0
10
785.0
20
2400.0
0
VERTEX
8
0
10
775.0
20
2400.0
0
SEQEND
0
POLYLINE
8
0
66
1
10
0.0
20
0.0
30
0.0
0
VERTEX
8
0
10
785.0
20
2390.0
0
VERTEX
8
0
10
783.6602540378444
20
2395.0
0
VERTEX
8
0
10
780.0
20
2398.6602540378444
0
VERTEX
8
0
10
775.0
20
2400.0
0
VERTEX
8
0
10
775.0
20
2395.0
0
VERTEX
8
0
10
777.5
20
2394.330127018922
0
VERTEX
8
0
10
779.3301270189222
20
2392.5
0
VERTEX
8
0
10
780.0
20
2390.0
0
VERTEX
8
0
10
785.0
20
2390.0
0
SEQEND
0
POLYLINE
8
0
66
1
10
0.0
20
0.0
30
0.0
0
VERTEX
8
0
10
780.0
20
2390.0
0
VERTEX
8
0
10
779.3301270189222
20
2392.5
0
VERTEX
8
0
10
777.5
20
2394.330127018922
0
VERTEX
8
0
10
775.0
20
2395.0
0
VERTEX
8
0
10
775.0
20
2390.0
0
VERTEX
8
0
10
775.0
20
2390.0
0
VERTEX
8
0
10
775.0
20
2390.0
0
VERTEX
8
0
10
775.0
20
2390.0
0
VERTEX
8
0
10
780.0
20
2390.0
0
SEQEND
0
POLYLINE
8
0
66
1
10
0.0
20
0.0
30
0.0
0
VERTEX
8
0
10
815.0
20
2400.0
0
VERTEX
8
0
10
815.0
20
2390.0
0
VERTEX
8
0
10
825.0
20
2390.0
0
VERTEX
8
0
10
825.0
20
2400.0
0
VERTEX
8
0
10
815.0
20
2400.0
0
SEQEND
0
POLYLINE
8
0
66
1
10
0.0
20
0.0
30
0.0
0
VERTEX
8
0
10
815.0
20
2390.0
0
VERTEX
8
0
10
816.3397459621556
20
2395.0
0
VERTEX
8
0
10
820.0
20
2398.6602540378444
0
VERTEX
8
0
10
825.0
20
2400.0
0
VERTEX
8
0
10
825.0
20
2395.0
0
VERTEX
8
0
10
822.5
20
2394.330127018922
0
VERTEX
8
0
10
820.6698729810778
20
2392.5
0
VERTEX
8
0
10
820.0
20
2390.0
0
VERTEX
8
0
10
815.0
20
2390.0
0
SEQEND
0
POLYLINE
8
0
66
1
10
0.0
20
0.0
30
0.0
0
VERTEX
8
0
10
820.0
20
2390.0
0
VERTEX
8
0
10
820.6698729810778
20
2392.5
0
VERTEX
8
0
10
822.5
20
2394.330127018922
0
VERTEX
8
0
10
825.0
20
2395.0
0
VERTEX
8
0
10
825.0
20
2390.0
0
VERTEX
8
0
10
825.0
20
2390.0
0
VERTEX
8
0
10
825.0
20
2390.0
0
VERTEX
8
0
10
825.0
20
2390.0
0
VERTEX
8
0
10
820.0
20
2390.0
0
SEQEND
0
POLYLINE
8
0
66
1
10
0.0
20
0.0
30
0.0
0
VERTEX
8
0
10
1199.9999999999995
20
1370.0
0
VERTEX
8
0
10
1199.9999999999995
20
1410.0
0
VERTEX
8
0
10
1159.9999999999995
20
1410.0
0
VERTEX
8
0
10
1159.9999999999995
20
1370.0
0
VERTEX
8
0
10
1199.9999999999995
20
1370.0
0
SEQEND
0
POLYLINE
8
0
66
1
10
0.0
20
0.0
30
0.0
0
VERTEX
8
0
10
1199.9999999999995
20
1410.0
0
VERTEX
8
0
10
1194.641016151377
20
1390.0
0
VERTEX
8
0
10
1179.9999999999995
20
1375.3589838486225
0
VERTEX
8
0
10
1159.9999999999995
20
1370.0
0
VERTEX
8
0
10
1159.9999999999995
20
1390.0
0
VERTEX
8
0
10
1169.9999999999995
20
1392.6794919243112
0
VERTEX
8
0
10
1177.3205080756884
20
1400.0
0
VERTEX
8
0
10
1179.9999999999995
20
1410.0
0
VERTEX
8
0
10
1199.9999999999995
20
1410.0
0
SEQEND
0
POLYLINE
8
0
66
1
10
0.0
20
0.0
30
0.0
0
VERTEX
8
0
10
1179.9999999999995
20
1410.0
0
VERTEX
8
0
10
1177.3205080756884
20
1400.0
0
VERTEX
8
0
10
1169.9999999999995
20
1392.6794919243112
0
VERTEX
8
0
10
1159.9999999999995
20
1390.0
0
VERTEX
8
0
10
1159.9999999999995
20
1410.0
0
VERTEX
8
0
10
1159.9999999999995
20
1410.0
0
VERTEX
8
0
10
1159.9999999999995
20
1410.0
0
VERTEX
8
0
10
1159.9999999999995
20
1410.0
0
VERTEX
8
0
10
1179.9999999999995
20
1410.0
0
SEQEND
0
POLYLINE
8
0
66
1
10
0.0
20
0.0
30
0.0
0
VERTEX
8
0
10
439.99999999999955
20
1370.0
0
VERTEX
8
0
10
439.99999999999955
20
1410.0
0
VERTEX
8
0
10
399.99999999999955
20
1410.0
0
VERTEX
8
0
10
399.99999999999955
20
1370.0
0
VERTEX
8
0
10
439.99999999999955
20
1370.0
0
SEQEND
0
POLYLINE
8
0
66
1
10
0.0
20
0.0
30
0.0
0
VERTEX
8
0
10
399.99999999999955
20
1410.0
0
VERTEX
8
0
10
405.358983848622
20
1390.0
0
VERTEX
8
0
10
419.99999999999955
20
1375.3589838486225
0
VERTEX
8
0
10
439.99999999999955
20
1370.0
0
VERTEX
8
0
10
439.99999999999955
20
1390.0
0
VERTEX
8
0
10
429.99999999999955
20
1392.6794919243112
0
VERTEX
8
0
10
422.67949192431075
20
1400.0
0
VERTEX
8
0
10
419.99999999999955
20
1410.0
0
VERTEX
8
0
10
399.99999999999955
20
1410.0
0
SEQEND
0
POLYLINE
8
0
66
1
10
0.0
20
0.0
30
0.0
0
VERTEX
8
0
10
419.99999999999955
20
1410.0
0
VERTEX
8
0
10
422.67949192431075
20
1400.0
0
VERTEX
8
0
10
429.99999999999955
20
1392.6794919243112
0
VERTEX
8
0
10
439.99999999999955
20
1390.0
0
VERTEX
8
0
10
439.99999999999955
20
1410.0
0
VERTEX
8
0
10
439.99999999999955
20
1410.0
0
VERTEX
8
0
10
439.99999999999955
20
1410.0
0
VERTEX
8
0
10
439.99999999999955
20
1410.0
0
VERTEX
8
0
10
419.99999999999955
20
1410.0
0
SEQEND
0
POLYLINE
8
0
66
1
10
0.0
20
0.0
30
0.0
0
VERTEX
8
0
10
399.99999999999955
20
2170.0
0
VERTEX
8
0
10
399.99999999999955
20
2130.0
0
VERTEX
8
0
10
439.99999999999955
20
2130.0
0
VERTEX
8
0
10
439.99999999999955
20
2170.0
0
VERTEX
8
0
10
399.99999999999955
20
2170.0
0
SEQEND
0
POLYLINE
8
0
66
1
10
0.0
20
0.0
30
0.0
0
VERTEX
8
0
10
399.99999999999955
20
2130.0
0
VERTEX
8
0
10
405.358983848622
20
2150.0
0
VERTEX
8
0
10
419.99999999999955
20
2164.6410161513777
0
VERTEX
8
0
10
439.99999999999955
20
2170.0
0
VERTEX
8
0
10
439.99999999999955
20
2150.0
0
VERTEX
8
0
10
429.99999999999955
20
2147.320508075689
0
VERTEX
8
0
10
422.67949192431075
20
2140.0
0
VERTEX
8
0
10
419.99999999999955
20
2130.0
0
VERTEX
8
0
10
399.99999999999955
20
2130.0
0
SEQEND
0
POLYLINE
8
0
66
1
10
0.0
20
0.0
30
0.0
0
VERTEX
8
0
10
419.99999999999955
20
2130.0
0
VERTEX
8
0
10
422.67949192431075
20
2140.0
0
VERTEX
8
0
10
429.99999999999955
20
2147.320508075689
0
VERTEX
8
0
10
439.99999999999955
20
2150.0
0
VERTEX
8
0
10
439.99999999999955
20
2130.0
0
VERTEX
8
0
10
439.99999999999955
20
2130.0
0
VERTEX
8
0
10
439.99999999999955
20
2130.0
0
VERTEX
8
0
10
439.99999999999955
20
2130.0
0
VERTEX
8
0
10
419.99999999999955
20
2130.0
0
SEQEND
0
POLYLINE
8
0
66
1
10
0.0
20
0.0
30
0.0
0
VERTEX
8
0
10
1159.9999999999995
20
2170.0
0
VERTEX
8
0
10
1159.9999999999995
20
2130.0
0
VERTEX
8
0
10
1199.9999999999995
20
2130.0
0
VERTEX
8
0
10
1199.9999999999995
20
2170.0
0
VERTEX
8
0
10
1159.9999999999995
20
2170.0
0
SEQEND
0
POLYLINE
8
0
66
1
10
0.0
20
0.0
30
0.0
0
VERTEX
8
0
10
1199.9999999999995
20
2130.0
0
VERTEX
8
0
10
1194.641016151377
20
2150.0
0
VERTEX
8
0
10
1179.9999999999995
20
2164.6410161513777
0
VERTEX
8
0
10
1159.9999999999995
20
2170.0
0
VERTEX
8
0
10
1159.9999999999995
20
2150.0
0
VERTEX
8
0
10
1169.9999999999995
20
2147.320508075689
0
VERTEX
8
0
10
1177.3205080756884
20
2140.0
0
VERTEX
8
0
10
1179.9999999999995
20
2130.0
0
VERTEX
8
0
10
1199.9999999999995
20
2130.0
0
SEQEND
0
POLYLINE
8
0
66
1
10
0.0
20
0.0
30
0.0
0
VERTEX
8
0
10
1179.9999999999995
20
2130.0
0
VERTEX
8
0
10
1177.3205080756884
20
2140.0
0
VERTEX
8
0
10
1169.9999999999995
20
2147.320508075689
0
VERTEX
8
0
10
1159.9999999999995
20
2150.0
0
VERTEX
8
0
10
1159.9999999999995
20
2130.0
0
VERTEX
8
0
10
1159.9999999999995
20
2130.0
0
VERTEX
8
0
10
1159.9999999999995
20
2130.0
0
VERTEX
8
0
10
1159.9999999999995
20
2130.0
0
VERTEX
8
0
10
1179.9999999999995
20
2130.0
0
SEQEND
0
POLYLINE
8
0
66
1
10
0.0
20
0.0
30
0.0
0
VERTEX
8
0
10
784.9999999999995
20
2170.0
0
VERTEX
8
0
10
784.9999999999995
20
2180.0
0
VERTEX
8
0
10
774.9999999999995
20
2180.0
0
VERTEX
8
0
10
774.9999999999995
20
2170.0
0
VERTEX
8
0
10
784.9999999999995
20
2170.0
0
SEQEND
0
POLYLINE
8
0
66
1
10
0.0
20
0.0
30
0.0
0
VERTEX
8
0
10
784.9999999999995
20
2180.0
0
VERTEX
8
0
10
783.660254037844
20
2175.0
0
VERTEX
8
0
10
779.9999999999995
20
2171.3397459621556
0
VERTEX
8
0
10
774.9999999999995
20
2170.0
0
VERTEX
8
0
10
774.9999999999995
20
2175.0
0
VERTEX
8
0
10
777.4999999999995
20
2175.669872981078
0
VERTEX
8
0
10
779.3301270189218
20
2177.5
0
VERTEX
8
0
10
779.9999999999995
20
2180.0
0
VERTEX
8
0
10
784.9999999999995
20
2180.0
0
SEQEND
0
POLYLINE
8
0
66
1
10
0.0
20
0.0
30
0.0
0
VERTEX
8
0
10
779.9999999999995
20
2180.0
0
VERTEX
8
0
10
779.3301270189218
20
2177.5
0
VERTEX
8
0
10
777.4999999999995
20
2175.669872981078
0
VERTEX
8
0
10
774.9999999999995
20
2175.0
0
VERTEX
8
0
10
774.9999999999995
20
2180.0
0
VERTEX
8
0
10
774.9999999999995
20
2180.0
0
VERTEX
8
0
10
774.9999999999995
20
2180.0
0
VERTEX
8
0
10
774.9999999999995
20
2180.0
0
VERTEX
8
0
10
779.9999999999995
20
2180.0
0
SEQEND
0
POLYLINE
8
0
66
1
10
0.0
20
0.0
30
0.0
0
VERTEX
8
0
10
824.9999999999995
20
2170.0
0
VERTEX
8
0
10
824.9999999999995
20
2180.0
0
VERTEX
8
0
10
814.9999999999995
20
2180.0
0
VERTEX
8
0
10
814.9999999999995
20
2170.0
0
VERTEX
8
0
10
824.9999999999995
20
2170.0
0
SEQEND
0
POLYLINE
8
0
66
1
10
0.0
20
0.0
30
0.0
0
VERTEX
8
0
10
814.9999999999995
20
2180.0
0
VERTEX
8
0
10
816.3397459621551
20
2175.0
0
VERTEX
8
0
10
819.9999999999995
20
2171.3397459621556
0
VERTEX
8
0
10
824.9999999999995
20
2170.0
0
VERTEX
8
0
10
824.9999999999995
20
2175.0
0
VERTEX
8
0
10
822.4999999999995
20
2175.669872981078
0
VERTEX
8
0
10
820.6698729810773
20
2177.5
0
VERTEX
8
0
10
819.9999999999995
20
2180.0
0
VERTEX
8
0
10
814.9999999999995
20
2180.0
0
SEQEND
0
POLYLINE
8
0
66
1
10
0.0
20
0.0
30
0.0
0
VERTEX
8
0
10
819.9999999999995
20
2180.0
0
VERTEX
8
0
10
820.6698729810773
20
2177.5
0
VERTEX
8
0
10
822.4999999999995
20
2175.669872981078
0
VERTEX
8
0
10
824.9999999999995
20
2175.0
0
VERTEX
8
0
10
824.9999999999995
20
2180.0
0
VERTEX
8
0
10
824.9999999999995
20
2180.0
0
VERTEX
8
0
10
824.9999999999995
20
2180.0
0
VERTEX
8
0
10
824.9999999999995
20
2180.0
0
VERTEX
8
0
10
819.9999999999995
20
2180.0
0
SEQEND
0
POLYLINE
8
0
66
1
10
0.0
20
0.0
30
0.0
0
VERTEX
8
0
10
700.0
20
3250.0
0
VERTEX
8
0
10
725.0
20
3250.0
0
VERTEX
8
0
10
725.0
20
3287.5
0
VERTEX
8
0
10
750.0
20
3250.0
0
VERTEX
8
0
10
775.0
20
3250.0
0
VERTEX
8
0
10
737.5
20
3300.0
0
VERTEX
8
0
10
775.0
20
3350.0
0
VERTEX
8
0
10
750.0
20
3350.0
0
VERTEX
8
0
10
725.0
20
3312.5
0
VERTEX
8
0
10
725.0
20
3350.0
0
VERTEX
8
0
10
700.0
20
3350.0
0
VERTEX
8
0
10
700.0
20
3250.0
0
VERTEX
8
0
10
700.0
20
3250.0
0
SEQEND
0
POLYLINE
8
0
66
1
10
0.0
20
0.0
30
0.0
0
VERTEX
8
0
10
800.0
20
3262.5
0
VERTEX
8
0
10
825.0
20
3250.0
0
VERTEX
8
0
10
825.0
20
3350.0
0
VERTEX
8
0
10
800.0
20
3337.5
0
VERTEX
8
0
10
800.0
20
3262.5
0
SEQEND
0
POLYLINE
8
0
66
1
10
0.0
20
0.0
30
0.0
0
VERTEX
8
0
10
825.0
20
3250.0
0
VERTEX
8
0
10
850.0
20
3250.0
0
VERTEX
8
0
10
875.0
20
3262.5
0
VERTEX
8
0
10
875.0
20
3337.5
0
VERTEX
8
0
10
850.0
20
3350.0
0
VERTEX
8
0
10
825.0
20
3350.0
0
VERTEX
8
0
10
825.0
20
3337.5
0
VERTEX
8
0
10
850.0
20
3337.5
0
VERTEX
8
0
10
850.0
20
3262.5
0
VERTEX
8
0
10
825.0
20
3262.5
0
VERTEX
8
0
10
825.0
20
3250.0
0
SEQEND
0
POLYLINE
8
0
66
1
10
0.0
20
0.0
30
0.0
0
VERTEX
8
0
10
825.0
20
3262.5
0
VERTEX
8
0
10
837.5
20
3262.5
0
VERTEX
8
0
10
850.0
20
3331.25
0
VERTEX
8
0
10
850.0
20
3337.5
0
VERTEX
8
0
10
837.5
20
3337.5
0
VERTEX
8
0
10
825.0
20
3268.75
0
VERTEX
8
0
10
825.0
20
3262.5
0
SEQEND
0
POLYLINE
8
0
66
1
10
0.0
20
0.0
30
0.0
0
VERTEX
8
0
10
400.0
20
5200.0
0
VERTEX
8
0
10
399.9999999999999
20
4400.0
0
VERTEX
8
0
10
1200.0
20
4400.0
0
VERTEX
8
0
10
1200.0
20
5200.0
0
VERTEX
8
0
10
400.0
20
5200.0
0
SEQEND
0
POLYLINE
8
0
66
1
10
0.0
20
0.0
30
0.0
0
VERTEX
8
0
10
784.9999999999999
20
4400.0
0
VERTEX
8
0
10
784.9999999999999
20
4300.0
0
VERTEX
8
0
10
814.9999999999999
20
4300.0
0
VERTEX
8
0
10
814.9999999999999
20
4400.0
0
VERTEX
8
0
10
784.9999999999999
20
4400.0
0
SEQEND
0
POLYLINE
8
0
66
1
10
0.0
20
0.0
30
0.0
0
VERTEX
8
0
10
802.4999999999999
20
4300.0
0
VERTEX
8
0
10
802.4999999999999
20
4305.0
0
VERTEX
8
0
10
797.4999999999999
20
4305.0
0
VERTEX
8
0
10
797.4999999999999
20
4300.0
0
VERTEX
8
0
10
802.4999999999999
20
4300.0
0
SEQEND
0
POLYLINE
8
0
66
1
10
0.0
20
0.0
30
0.0
0
VERTEX
8
0
10
807.4999999999999
20
4305.0
0
VERTEX
8
0
10
807.4999999999999
20
4310.0
0
VERTEX
8
0
10
792.4999999999999
20
4310.0
0
VERTEX
8
0
10
792.4999999999999
20
4305.0
0
VERTEX
8
0
10
807.4999999999999
20
4305.0
0
SEQEND
0
POLYLINE
8
0
66
1
10
0.0
20
0.0
30
0.0
0
VERTEX
8
0
10
797.4999999999999
20
4270.0
0
VERTEX
8
0
10
797.4999999999999
20
4265.0
0
VERTEX
8
0
10
802.4999999999999
20
4265.0
0
VERTEX
8
0
10
802.4999999999999
20
4270.0
0
VERTEX
8
0
10
797.4999999999999
20
4270.0
0
SEQEND
0
POLYLINE
8
0
66
1
10
0.0
20
0.0
30
0.0
0
VERTEX
8
0
10
792.4999999999999
20
4265.0
0
VERTEX
8
0
10
792.4999999999999
20
4260.0
0
VERTEX
8
0
10
807.4999999999999
20
4260.0
0
VERTEX
8
0
10
807.4999999999999
20
4265.0
0
VERTEX
8
0
10
792.4999999999999
20
4265.0
0
SEQEND
0
POLYLINE
8
0
66
1
10
0.0
20
0.0
30
0.0
0
VERTEX
8
0
10
784.9999999999999
20
4270.0
0
VERTEX
8
0
10
784.9999999999999
20
4170.0
0
VERTEX
8
0
10
814.9999999999999
20
4170.0
0
VERTEX
8
0
10
814.9999999999999
20
4270.0
0
VERTEX
8
0
10
784.9999999999999
20
4270.0
0
SEQEND
0
POLYLINE
8
0
66
1
10
0.0
20
0.0
30
0.0
0
VERTEX
8
0
10
399.9999999999999
20
4170.0
0
VERTEX
8
0
10
399.99999999999955
20
3370.0
0
VERTEX
8
0
10
1199.9999999999995
20
3370.0
0
VERTEX
8
0
10
1200.0
20
4170.0
0
VERTEX
8
0
10
399.9999999999999
20
4170.0
0
SEQEND
0
POLYLINE
8
0
66
1
10
0.0
20
0.0
30
0.0
0
VERTEX
8
0
10
1160.0
20
5200.0
0
VERTEX
8
0
10
1160.0
20
5160.0
0
VERTEX
8
0
10
1200.0
20
5160.0
0
VERTEX
8
0
10
1200.0
20
5200.0
0
VERTEX
8
0
10
1160.0
20
5200.0
0
SEQEND
0
POLYLINE
8
0
66
1
10
0.0
20
0.0
30
0.0
0
VERTEX
8
0
10
1200.0
20
5160.0
0
VERTEX
8
0
10
1194.6410161513775
20
5180.0
0
VERTEX
8
0
10
1180.0
20
5194.641016151378
0
VERTEX
8
0
10
1160.0
20
5200.0
0
VERTEX
8
0
10
1160.0
20
5180.0
0
VERTEX
8
0
10
1170.0
20
5177.320508075689
0
VERTEX
8
0
10
1177.3205080756888
20
5170.0
0
VERTEX
8
0
10
1180.0
20
5160.0
0
VERTEX
8
0
10
1200.0
20
5160.0
0
SEQEND
0
POLYLINE
8
0
66
1
10
0.0
20
0.0
30
0.0
0
VERTEX
8
0
10
1180.0
20
5160.0
0
VERTEX
8
0
10
1177.3205080756888
20
5170.0
0
VERTEX
8
0
10
1170.0
20
5177.320508075689
0
VERTEX
8
0
10
1160.0
20
5180.0
0
VERTEX
8
0
10
1160.0
20
5160.0
0
VERTEX
8
0
10
1160.0
20
5160.0
0
VERTEX
8
0
10
1160.0
20
5160.0
0
VERTEX
8
0
10
1160.0
20
5160.0
0
VERTEX
8
0
10
1180.0
20
5160.0
0
SEQEND
0
POLYLINE
8
0
66
1
10
0.0
20
0.0
30
0.0
0
VERTEX
8
0
10
400.0
20
5200.0
0
VERTEX
8
0
10
400.0
20
5160.0
0
VERTEX
8
0
10
440.0
20
5160.0
0
VERTEX
8
0
10
440.0
20
5200.0
0
VERTEX
8
0
10
400.0
20
5200.0
0
SEQEND
0
POLYLINE
8
0
66
1
10
0.0
20
0.0
30
0.0
0
VERTEX
8
0
10
400.0
20
5160.0
0
VERTEX
8
0
10
405.3589838486225
20
5180.0
0
VERTEX
8
0
10
420.0
20
5194.641016151378
0
VERTEX
8
0
10
440.0
20
5200.0
0
VERTEX
8
0
10
440.0
20
5180.0
0
VERTEX
8
0
10
430.0
20
5177.320508075689
0
VERTEX
8
0
10
422.6794919243112
20
5170.0
0
VERTEX
8
0
10
420.0
20
5160.0
0
VERTEX
8
0
10
400.0
20
5160.0
0
SEQEND
0
POLYLINE
8
0
66
1
10
0.0
20
0.0
30
0.0
0
VERTEX
8
0
10
420.0
20
5160.0
0
VERTEX
8
0
10
422.6794919243112
20
5170.0
0
VERTEX
8
0
10
430.0
20
5177.320508075689
0
VERTEX
8
0
10
440.0
20
5180.0
0
VERTEX
8
0
10
440.0
20
5160.0
0
VERTEX
8
0
10
440.0
20
5160.0
0
VERTEX
8
0
10
440.0
20
5160.0
0
VERTEX
8
0
10
440.0
20
5160.0
0
VERTEX
8
0
10
420.0
20
5160.0
0
SEQEND
0
POLYLINE
8
0
66
1
10
0.0
20
0.0
30
0.0
0
VERTEX
8
0
10
440.0
20
4400.0
0
VERTEX
8
0
10
440.0
20
4440.0
0
VERTEX
8
0
10
400.0
20
4440.0
0
VERTEX
8
0
10
400.0
20
4400.0
0
VERTEX
8
0
10
440.0
20
4400.0
0
SEQEND
0
POLYLINE
8
0
66
1
10
0.0
20
0.0
30
0.0
0
VERTEX
8
0
10
400.0
20
4440.0
0
VERTEX
8
0
10
405.3589838486225
20
4420.0
0
VERTEX
8
0
10
420.0
20
4405.358983848622
0
VERTEX
8
0
10
440.0
20
4400.0
0
VERTEX
8
0
10
440.0
20
4420.0
0
VERTEX
8
0
10
430.0
20
4422.679491924311
0
VERTEX
8
0
10
422.6794919243112
20
4430.0
0
VERTEX
8
0
10
420.0
20
4440.0
0
VERTEX
8
0
10
400.0
20
4440.0
0
SEQEND
0
POLYLINE
8
0
66
1
10
0.0
20
0.0
30
0.0
0
VERTEX
8
0
10
420.0
20
4440.0
0
VERTEX
8
0
10
422.6794919243112
20
4430.0
0
VERTEX
8
0
10
430.0
20
4422.679491924311
0
VERTEX
8
0
10
440.0
20
4420.0
0
VERTEX
8
0
10
440.0
20
4440.0
0
VERTEX
8
0
10
440.0
20
4440.0
0
VERTEX
8
0
10
440.0
20
4440.0
0
VERTEX
8
0
10
440.0
20
4440.0
0
VERTEX
8
0
10
420.0
20
4440.0
0
SEQEND
0
POLYLINE
8
0
66
1
10
0.0
20
0.0
30
0.0
0
VERTEX
8
0
10
1200.0
20
4400.0
0
VERTEX
8
0
10
1200.0
20
4440.0
0
VERTEX
8
0
10
1160.0
20
4440.0
0
VERTEX
8
0
10
1160.0
20
4400.0
0
VERTEX
8
0
10
1200.0
20
4400.0
0
SEQEND
0
POLYLINE
8
0
66
1
10
0.0
20
0.0
30
0.0
0
VERTEX
8
0
10
1200.0
20
4440.0
0
VERTEX
8
0
10
1194.6410161513775
20
4420.0
0
VERTEX
8
0
10
1180.0
20
4405.358983848622
0
VERTEX
8
0
10
1160.0
20
4400.0
0
VERTEX
8
0
10
1160.0
20
4420.0
0
VERTEX
8
0
10
1170.0
20
4422.679491924311
0
VERTEX
8
0
10
1177.3205080756888
20
4430.0
0
VERTEX
8
0
10
1180.0
20
4440.0
0
VERTEX
8
0
10
1200.0
20
4440.0
0
SEQEND
0
POLYLINE
8
0
66
1
10
0.0
20
0.0
30
0.0
0
VERTEX
8
0
10
1180.0
20
4440.0
0
VERTEX
8
0
10
1177.3205080756888
20
4430.0
0
VERTEX
8
0
10
1170.0
20
4422.679491924311
0
VERTEX
8
0
10
1160.0
20
4420.0
0
VERTEX
8
0
10
1160.0
20
4440.0
0
VERTEX
8
0
10
1160.0
20
4440.0
0
VERTEX
8
0
10
1160.0
20
4440.0
0
VERTEX
8
0
10
1160.0
20
4440.0
0
VERTEX
8
0
10
1180.0
20
4440.0
0
SEQEND
0
POLYLINE
8
0
66
1
10
0.0
20
0.0
30
0.0
0
VERTEX
8
0
10
775.0
20
4400.0
0
VERTEX
8
0
10
775.0
20
4390.0
0
VERTEX
8
0
10
785.0
20
4390.0
0
VERTEX
8
0
10
785.0
20
4400.0
0
VERTEX
8
0
10
775.0
20
4400.0
0
SEQEND
0
POLYLINE
8
0
66
1
10
0.0
20
0.0
30
0.0
0
VERTEX
8
0
10
785.0
20
4390.0
0
VERTEX
8
0
10
783.6602540378444
20
4395.0
0
VERTEX
8
0
10
780.0
20
4398.660254037844
0
VERTEX
8
0
10
775.0
20
4400.0
0
VERTEX
8
0
10
775.0
20
4395.0
0
VERTEX
8
0
10
777.5
20
4394.330127018922
0
VERTEX
8
0
10
779.3301270189222
20
4392.5
0
VERTEX
8
0
10
780.0
20
4390.0
0
VERTEX
8
0
10
785.0
20
4390.0
0
SEQEND
0
POLYLINE
8
0
66
1
10
0.0
20
0.0
30
0.0
0
VERTEX
8
0
10
780.0
20
4390.0
0
VERTEX
8
0
10
779.3301270189222
20
4392.5
0
VERTEX
8
0
10
777.5
20
4394.330127018922
0
VERTEX
8
0
10
775.0
20
4395.0
0
VERTEX
8
0
10
775.0
20
4390.0
0
VERTEX
8
0
10
775.0
20
4390.0
0
VERTEX
8
0
10
775.0
20
4390.0
0
VERTEX
8
0
10
775.0
20
4390.0
0
VERTEX
8
0
10
780.0
20
4390.0
0
SEQEND
0
POLYLINE
8
0
66
1
10
0.0
20
0.0
30
0.0
0
VERTEX
8
0
10
815.0
20
4400.0
0
VERTEX
8
0
10
815.0
20
4390.0
0
VERTEX
8
0
10
825.0
20
4390.0
0
VERTEX
8
0
10
825.0
20
4400.0
0
VERTEX
8
0
10
815.0
20
4400.0
0
SEQEND
0
POLYLINE
8
0
66
1
10
0.0
20
0.0
30
0.0
0
VERTEX
8
0
10
815.0
20
4390.0
0
VERTEX
8
0
10
816.3397459621556
20
4395.0
0
VERTEX
8
0
10
820.0
20
4398.660254037844
0
VERTEX
8
0
10
825.0
20
4400.0
0
VERTEX
8
0
10
825.0
20
4395.0
0
VERTEX
8
0
10
822.5
20
4394.330127018922
0
VERTEX
8
0
10
820.6698729810778
20
4392.5
0
VERTEX
8
0
10
820.0
20
4390.0
0
VERTEX
8
0
10
815.0
20
4390.0
0
SEQEND
0
POLYLINE
8
0
66
1
10
0.0
20
0.0
30
0.0
0
VERTEX
8
0
10
820.0
20
4390.0
0
VERTEX
8
0
10
820.6698729810778
20
4392.5
0
VERTEX
8
0
10
822.5
20
4394.330127018922
0
VERTEX
8
0
10
825.0
20
4395.0
0
VERTEX
8
0
10
825.0
20
4390.0
0
VERTEX
8
0
10
825.0
20
4390.0
0
VERTEX
8
0
10
825.0
20
4390.0
0
VERTEX
8
0
10
825.0
20
4390.0
0
VERTEX
8
0
10
820.0
20
4390.0
0
SEQEND
0
POLYLINE
8
0
66
1
10
0.0
20
0.0
30
0.0
0
VERTEX
8
0
10
1199.9999999999995
20
3370.0
0
VERTEX
8
0
10
1199.9999999999995
20
3410.0
0
VERTEX
8
0
10
1159.9999999999995
20
3410.0
0
VERTEX
8
0
10
1159.9999999999995
20
3370.0
0
VERTEX
8
0
10
1199.9999999999995
20
3370.0
0
SEQEND
0
POLYLINE
8
0
66
1
10
0.0
20
0.0
30
0.0
0
VERTEX
8
0
10
1199.9999999999995
20
3410.0
0
VERTEX
8
0
10
1194.641016151377
20
3390.0
0
VERTEX
8
0
10
1179.9999999999995
20
3375.3589838486223
0
VERTEX
8
0
10
1159.9999999999995
20
3370.0
0
VERTEX
8
0
10
1159.9999999999995
20
3390.0
0
VERTEX
8
0
10
1169.9999999999995
20
3392.679491924311
0
VERTEX
8
0
10
1177.3205080756884
20
3400.0
0
VERTEX
8
0
10
1179.9999999999995
20
3410.0
0
VERTEX
8
0
10
1199.9999999999995
20
3410.0
0
SEQEND
0
POLYLINE
8
0
66
1
10
0.0
20
0.0
30
0.0
0
VERTEX
8
0
10
1179.9999999999995
20
3410.0
0
VERTEX
8
0
10
1177.3205080756884
20
3400.0
0
VERTEX
8
0
10
1169.9999999999995
20
3392.679491924311
0
VERTEX
8
0
10
1159.9999999999995
20
3390.0
0
VERTEX
8
0
10
1159.9999999999995
20
3410.0
0
VERTEX
8
0
10
1159.9999999999995
20
3410.0
0
VERTEX
8
0
10
1159.9999999999995
20
3410.0
0
VERTEX
8
0
10
1159.9999999999995
20
3410.0
0
VERTEX
8
0
10
1179.9999999999995
20
3410.0
0
SEQEND
0
POLYLINE
8
0
66
1
10
0.0
20
0.0
30
0.0
0
VERTEX
8
0
10
439.99999999999955
20
3370.0
0
VERTEX
8
0
10
439.99999999999955
20
3410.0
0
VERTEX
8
0
10
399.99999999999955
20
3410.0
0
VERTEX
8
0
10
399.99999999999955
20
3370.0
0
VERTEX
8
0
10
439.99999999999955
20
3370.0
0
SEQEND
0
POLYLINE
8
0
66
1
10
0.0
20
0.0
30
0.0
0
VERTEX
8
0
10
399.99999999999955
20
3410.0
0
VERTEX
8
0
10
405.358983848622
20
3390.0
0
VERTEX
8
0
10
419.99999999999955
20
3375.3589838486223
0
VERTEX
8
0
10
439.99999999999955
20
3370.0
0
VERTEX
8
0
10
439.99999999999955
20
3390.0
0
VERTEX
8
0
10
429.99999999999955
20
3392.679491924311
0
VERTEX
8
0
10
422.67949192431075
20
3400.0
0
VERTEX
8
0
10
419.99999999999955
20
3410.0
0
VERTEX
8
0
10
399.99999999999955
20
3410.0
0
SEQEND
0
POLYLINE
8
0
66
1
10
0.0
20
0.0
30
0.0
0
VERTEX
8
0
10
419.99999999999955
20
3410.0
0
VERTEX
8
0
10
422.67949192431075
20
3400.0
0
VERTEX
8
0
10
429.99999999999955
20
3392.679491924311
0
VERTEX
8
0
10
439.99999999999955
20
3390.0
0
VERTEX
8
0
10
439.99999999999955
20
3410.0
0
VERTEX
8
0
10
439.99999999999955
20
3410.0
0
VERTEX
8
0
10
439.99999999999955
20
3410.0
0
VERTEX
8
0
10
439.99999999999955
20
3410.0
0
VERTEX
8
0
10
419.99999999999955
20
3410.0
0
SEQEND
0
POLYLINE
8
0
66
1
10
0.0
20
0.0
30
0.0
0
VERTEX
8
0
10
399.99999999999955
20
4170.0
0
VERTEX
8
0
10
399.99999999999955
20
4130.0
0
VERTEX
8
0
10
439.99999999999955
20
4130.0
0
VERTEX
8
0
10
439.99999999999955
20
4170.0
0
VERTEX
8
0
10
399.99999999999955
20
4170.0
0
SEQEND
0
POLYLINE
8
0
66
1
10
0.0
20
0.0
30
0.0
0
VERTEX
8
0
10
399.99999999999955
20
4130.0
0
VERTEX
8
0
10
405.358983848622
20
4150.0
0
VERTEX
8
0
10
419.99999999999955
20
4164.641016151378
0
VERTEX
8
0
10
439.99999999999955
20
4170.0
0
VERTEX
8
0
10
439.99999999999955
20
4150.0
0
VERTEX
8
0
10
429.99999999999955
20
4147.320508075689
0
VERTEX
8
0
10
422.67949192431075
20
4140.0
0
VERTEX
8
0
10
419.99999999999955
20
4130.0
0
VERTEX
8
0
10
399.99999999999955
20
4130.0
0
SEQEND
0
POLYLINE
8
0
66
1
10
0.0
20
0.0
30
0.0
0
VERTEX
8
0
10
419.99999999999955
20
4130.0
0
VERTEX
8
0
10
422.67949192431075
20
4140.0
0
VERTEX
8
0
10
429.99999999999955
20
4147.320508075689
0
VERTEX
8
0
10
439.99999999999955
20
4150.0
0
VERTEX
8
0
10
439.99999999999955
20
4130.0
0
VERTEX
8
0
10
439.99999999999955
20
4130.0
0
VERTEX
8
0
10
439.99999999999955
20
4130.0
0
VERTEX
8
0
10
439.99999999999955
20
4130.0
0
VERTEX
8
0
10
419.99999999999955
20
4130.0
0
SEQEND
0
POLYLINE
8
0
66
1
10
0.0
20
0.0
30
0.0
0
VERTEX
8
0
10
1159.9999999999995
20
4170.0
0
VERTEX
8
0
10
1159.9999999999995
20
4130.0
0
VERTEX
8
0
10
1199.9999999999995
20
4130.0
0
VERTEX
8
0
10
1199.9999999999995
20
4170.0
0
VERTEX
8
0
10
1159.9999999999995
20
4170.0
0
SEQEND
0
POLYLINE
8
0
66
1
10
0.0
20
0.0
30
0.0
0
VERTEX
8
0
10
1199.9999999999995
20
4130.0
0
VERTEX
8
0
10
1194.641016151377
20
4150.0
0
VERTEX
8
0
10
1179.9999999999995
20
4164.641016151378
0
VERTEX
8
0
10
1159.9999999999995
20
4170.0
0
VERTEX
8
0
10
1159.9999999999995
20
4150.0
0
VERTEX
8
0
10
1169.9999999999995
20
4147.320508075689
0
VERTEX
8
0
10
1177.3205080756884
20
4140.0
0
VERTEX
8
0
10
1179.9999999999995
20
4130.0
0
VERTEX
8
0
10
1199.9999999999995
20
4130.0
0
SEQEND
0
POLYLINE
8
0
66
1
10
0.0
20
0.0
30
0.0
0
VERTEX
8
0
10
1179.9999999999995
20
4130.0
0
VERTEX
8
0
10
1177.3205080756884
20
4140.0
0
VERTEX
8
0
10
1169.9999999999995
20
4147.320508075689
0
VERTEX
8
0
10
1159.9999999999995
20
4150.0
0
VERTEX
8
0
10
1159.9999999999995
20
4130.0
0
VERTEX
8
0
10
1159.9999999999995
20
4130.0
0
VERTEX
8
0
10
1159.9999999999995
20
4130.0
0
VERTEX
8
0
10
1159.9999999999995
20
4130.0
0
VERTEX
8
0
10
1179.9999999999995
20
4130.0
0
SEQEND
0
POLYLINE
8
0
66
1
10
0.0
20
0.0
30
0.0
0
VERTEX
8
0
10
784.9999999999995
20
4170.0
0
VERTEX
8
0
10
784.9999999999995
20
4180.0
0
VERTEX
8
0
10
774.9999999999995
20
4180.0
0
VERTEX
8
0
10
774.9999999999995
20
4170.0
0
VERTEX
8
0
10
784.9999999999995
20
4170.0
0
SEQEND
0
POLYLINE
8
0
66
1
10
0.0
20
0.0
30
0.0
0
VERTEX
8
0
10
784.9999999999995
20
4180.0
0
VERTEX
8
0
10
783.660254037844
20
4175.0
0
VERTEX
8
0
10
779.9999999999995
20
4171.339745962156
0
VERTEX
8
0
10
774.9999999999995
20
4170.0
0
VERTEX
8
0
10
774.9999999999995
20
4175.0
0
VERTEX
8
0
10
777.4999999999995
20
4175.669872981078
0
VERTEX
8
0
10
779.3301270189218
20
4177.5
0
VERTEX
8
0
10
779.9999999999995
20
4180.0
0
VERTEX
8
0
10
784.9999999999995
20
4180.0
0
SEQEND
0
POLYLINE
8
0
66
1
10
0.0
20
0.0
30
0.0
0
VERTEX
8
0
10
779.9999999999995
20
4180.0
0
VERTEX
8
0
10
779.3301270189218
20
4177.5
0
VERTEX
8
0
10
777.4999999999995
20
4175.669872981078
0
VERTEX
8
0
10
774.9999999999995
20
4175.0
0
VERTEX
8
0
10
774.9999999999995
20
4180.0
0
VERTEX
8
0
10
774.9999999999995
20
4180.0
0
VERTEX
8
0
10
774.9999999999995
20
4180.0
0
VERTEX
8
0
10
774.9999999999995
20
4180.0
0
VERTEX
8
0
10
779.9999999999995
20
4180.0
0
SEQEND
0
POLYLINE
8
0
66
1
10
0.0
20
0.0
30
0.0
0
VERTEX
8
0
10
824.9999999999995
20
4170.0
0
VERTEX
8
0
10
824.9999999999995
20
4180.0
0
VERTEX
8
0
10
814.9999999999995
20
4180.0
0
VERTEX
8
0
10
814.9999999999995
20
4170.0
0
VERTEX
8
0
10
824.9999999999995
20
4170.0
0
SEQEND
0
POLYLINE
8
0
66
1
10
0.0
20
0.0
30
0.0
0
VERTEX
8
0
10
814.9999999999995
20
4180.0
0
VERTEX
8
0
10
816.3397459621551
20
4175.0
0
VERTEX
8
0
10
819.9999999999995
20
4171.339745962156
0
VERTEX
8
0
10
824.9999999999995
20
4170.0
0
VERTEX
8
0
10
824.9999999999995
20
4175.0
0
VERTEX
8
0
10
822.4999999999995
20
4175.669872981078
0
VERTEX
8
0
10
820.6698729810773
20
4177.5
0
VERTEX
8
0
10
819.9999999999995
20
4180.0
0
VERTEX
8
0
10
814.9999999999995
20
4180.0
0
SEQEND
0
POLYLINE
8
0
66
1
10
0.0
20
0.0
30
0.0
0
VERTEX
8
0
10
819.9999999999995
20
4180.0
0
VERTEX
8
0
10
820.6698729810773
20
4177.5
0
VERTEX
8
0
10
822.4999999999995
20
4175.669872981078
0
VERTEX
8
0
10
824.9999999999995
20
4175.0
0
VERTEX
8
0
10
824.9999999999995
20
4180.0
0
VERTEX
8
0
10
824.9999999999995
20
4180.0
0
VERTEX
8
0
10
824.9999999999995
20
4180.0
0
VERTEX
8
0
10
824.9999999999995
20
4180.0
0
VERTEX
8
0
10
819.9999999999995
20
4180.0
0
SEQEND
0
POLYLINE
8
0
66
1
10
0.0
20
0.0
30
0.0
0
VERTEX
8
0
10
700.0
20
5250.0
0
VERTEX
8
0
10
725.0
20
5250.0
0
VERTEX
8
0
10
725.0
20
5287.5
0
VERTEX
8
0
10
750.0
20
5250.0
0
VERTEX
8
0
10
775.0
20
5250.0
0
VERTEX
8
0
10
737.5
20
5300.0
0
VERTEX
8
0
10
775.0
20
5350.0
0
VERTEX
8
0
10
750.0
20
5350.0
0
VERTEX
8
0
10
725.0
20
5312.5
0
VERTEX
8
0
10
725.0
20
5350.0
0
VERTEX
8
0
10
700.0
20
5350.0
0
VERTEX
8
0
10
700.0
20
5250.0
0
VERTEX
8
0
10
700.0
20
5250.0
0
SEQEND
0
POLYLINE
8
0
66
1
10
0.0
20
0.0
30
0.0
0
VERTEX
8
0
10
800.0
20
5250.0
0
VERTEX
8
0
10
875.0
20
5250.0
0
VERTEX
8
0
10
875.0
20
5262.5
0
VERTEX
8
0
10
850.0
20
5262.5
0
VERTEX
8
0
10
850.0
20
5350.0
0
VERTEX
8
0
10
825.0
20
5350.0
0
VERTEX
8
0
10
800.0
20
5337.5
0
VERTEX
8
0
10
800.0
20
5325.0
0
VERTEX
8
0
10
825.0
20
5325.0
0
VERTEX
8
0
10
825.0
20
5262.5
0
VERTEX
8
0
10
800.0
20
5262.5
0
VERTEX
8
0
10
800.0
20
5250.0
0
VERTEX
8
0
10
800.0
20
5250.0
0
SEQEND
0
POLYLINE
8
0
66
1
10
0.0
20
0.0
30
0.0
0
VERTEX
8
0
10
400.0
20
7200.0
0
VERTEX
8
0
10
399.9999999999999
20
6400.0
0
VERTEX
8
0
10
1200.0
20
6400.0
0
VERTEX
8
0
10
1200.0
20
7200.0
0
VERTEX
8
0
10
400.0
20
7200.0
0
SEQEND
0
POLYLINE
8
0
66
1
10
0.0
20
0.0
30
0.0
0
VERTEX
8
0
10
784.9999999999999
20
6400.0
0
VERTEX
8
0
10
784.9999999999999
20
6300.0
0
VERTEX
8
0
10
814.9999999999999
20
6300.0
0
VERTEX
8
0
10
814.9999999999999
20
6400.0
0
VERTEX
8
0
10
784.9999999999999
20
6400.0
0
SEQEND
0
POLYLINE
8
0
66
1
10
0.0
20
0.0
30
0.0
0
VERTEX
8
0
10
802.4999999999999
20
6300.0
0
VERTEX
8
0
10
802.4999999999999
20
6305.0
0
VERTEX
8
0
10
797.4999999999999
20
6305.0
0
VERTEX
8
0
10
797.4999999999999
20
6300.0
0
VERTEX
8
0
10
802.4999999999999
20
6300.0
0
SEQEND
0
POLYLINE
8
0
66
1
10
0.0
20
0.0
30
0.0
0
VERTEX
8
0
10
807.4999999999999
20
6305.0
0
VERTEX
8
0
10
807.4999999999999
20
6310.0
0
VERTEX
8
0
10
792.4999999999999
20
6310.0
0
VERTEX
8
0
10
792.4999999999999
20
6305.0
0
VERTEX
8
0
10
807.4999999999999
20
6305.0
0
SEQEND
0
POLYLINE
8
0
66
1
10
0.0
20
0.0
30
0.0
0
VERTEX
8
0
10
797.4999999999999
20
6270.0
0
VERTEX
8
0
10
797.4999999999999
20
6265.0
0
VERTEX
8
0
10
802.4999999999999
20
6265.0
0
VERTEX
8
0
10
802.4999999999999
20
6270.0
0
VERTEX
8
0
10
797.4999999999999
20
6270.0
0
SEQEND
0
POLYLINE
8
0
66
1
10
0.0
20
0.0
30
0.0
0
VERTEX
8
0
10
792.4999999999999
20
6265.0
0
VERTEX
8
0
10
792.4999999999999
20
6260.0
0
VERTEX
8
0
10
807.4999999999999
20
6260.0
0
VERTEX
8
0
10
807.4999999999999
20
6265.0
0
VERTEX
8
0
10
792.4999999999999
20
6265.0
0
SEQEND
0
POLYLINE
8
0
66
1
10
0.0
20
0.0
30
0.0
0
VERTEX
8
0
10
784.9999999999999
20
6270.0
0
VERTEX
8
0
10
784.9999999999999
20
6170.0
0
VERTEX
8
0
10
814.9999999999999
20
6170.0
0
VERTEX
8
0
10
814.9999999999999
20
6270.0
0
VERTEX
8
0
10
784.9999999999999
20
6270.0
0
SEQEND
0
POLYLINE
8
0
66
1
10
0.0
20
0.0
30
0.0
0
VERTEX
8
0
10
399.9999999999999
20
6170.0
0
VERTEX
8
0
10
399.99999999999955
20
5370.0
0
VERTEX
8
0
10
1199.9999999999995
20
5370.0
0
VERTEX
8
0
10
1200.0
20
6170.0
0
VERTEX
8
0
10
399.9999999999999
20
6170.0
0
SEQEND
0
POLYLINE
8
0
66
1
10
0.0
20
0.0
30
0.0
0
VERTEX
8
0
10
1160.0
20
7200.0
0
VERTEX
8
0
10
1160.0
20
7160.0
0
VERTEX
8
0
10
1200.0
20
7160.0
0
VERTEX
8
0
10
1200.0
20
7200.0
0
VERTEX
8
0
10
1160.0
20
7200.0
0
SEQEND
0
POLYLINE
8
0
66
1
10
0.0
20
0.0
30
0.0
0
VERTEX
8
0
10
1200.0
20
7160.0
0
VERTEX
8
0
10
1194.6410161513775
20
7180.0
0
VERTEX
8
0
10
1180.0
20
7194.641016151378
0
VERTEX
8
0
10
1160.0
20
7200.0
0
VERTEX
8
0
10
1160.0
20
7180.0
0
VERTEX
8
0
10
1170.0
20
7177.320508075689
0
VERTEX
8
0
10
1177.3205080756888
20
7170.0
0
VERTEX
8
0
10
1180.0
20
7160.0
0
VERTEX
8
0
10
1200.0
20
7160.0
0
SEQEND
0
POLYLINE
8
0
66
1
10
0.0
20
0.0
30
0.0
0
VERTEX
8
0
10
1180.0
20
7160.0
0
VERTEX
8
0
10
1177.3205080756888
20
7170.0
0
VERTEX
8
0
10
1170.0
20
7177.320508075689
0
VERTEX
8
0
10
1160.0
20
7180.0
0
VERTEX
8
0
10
1160.0
20
7160.0
0
VERTEX
8
0
10
1160.0
20
7160.0
0
VERTEX
8
0
10
1160.0
20
7160.0
0
VERTEX
8
0
10
1160.0
20
7160.0
0
VERTEX
8
0
10
1180.0
20
7160.0
0
SEQEND
0
POLYLINE
8
0
66
1
10
0.0
20
0.0
30
0.0
0
VERTEX
8
0
10
400.0
20
7200.0
0
VERTEX
8
0
10
400.0
20
7160.0
0
VERTEX
8
0
10
440.0
20
7160.0
0
VERTEX
8
0
10
440.0
20
7200.0
0
VERTEX
8
0
10
400.0
20
7200.0
0
SEQEND
0
POLYLINE
8
0
66
1
10
0.0
20
0.0
30
0.0
0
VERTEX
8
0
10
400.0
20
7160.0
0
VERTEX
8
0
10
405.3589838486225
20
7180.0
0
VERTEX
8
0
10
420.0
20
7194.641016151378
0
VERTEX
8
0
10
440.0
20
7200.0
0
VERTEX
8
0
10
440.0
20
7180.0
0
VERTEX
8
0
10
430.0
20
7177.320508075689
0
VERTEX
8
0
10
422.6794919243112
20
7170.0
0
VERTEX
8
0
10
420.0
20
7160.0
0
VERTEX
8
0
10
400.0
20
7160.0
0
SEQEND
0
POLYLINE
8
0
66
1
10
0.0
20
0.0
30
0.0
0
VERTEX
8
0
10
420.0
20
7160.0
0
VERTEX
8
0
10
422.6794919243112
20
7170.0
0
VERTEX
8
0
10
430.0
20
7177.320508075689
0
VERTEX
8
0
10
440.0
20
7180.0
0
VERTEX
8
0
10
440.0
20
7160.0
0
VERTEX
8
0
10
440.0
20
7160.0
0
VERTEX
8
0
10
440.0
20
7160.0
0
VERTEX
8
0
10
440.0
20
7160.0
0
VERTEX
8
0
10
420.0
20
7160.0
0
SEQEND
0
POLYLINE
8
0
66
1
10
0.0
20
0.0
30
0.0
0
VERTEX
8
0
10
440.0
20
6400.0
0
VERTEX
8
0
10
440.0
20
6440.0
0
VERTEX
8
0
10
400.0
20
6440.0
0
VERTEX
8
0
10
400.0
20
6400.0
0
VERTEX
8
0
10
440.0
20
6400.0
0
SEQEND
0
POLYLINE
8
0
66
1
10
0.0
20
0.0
30
0.0
0
VERTEX
8
0
10
400.0
20
6440.0
0
VERTEX
8
0
10
405.3589838486225
20
6420.0
0
VERTEX
8
0
10
420.0
20
6405.358983848622
0
VERTEX
8
0
10
440.0
20
6400.0
0
VERTEX
8
0
10
440.0
20
6420.0
0
VERTEX
8
0
10
430.0
20
6422.679491924311
0
VERTEX
8
0
10
422.6794919243112
20
6430.0
0
VERTEX
8
0
10
420.0
20
6440.0
0
VERTEX
8
0
10
400.0
20
6440.0
0
SEQEND
0
POLYLINE
8
0
66
1
10
0.0
20
0.0
30
0.0
0
VERTEX
8
0
10
420.0
20
6440.0
0
VERTEX
8
0
10
422.6794919243112
20
6430.0
0
VERTEX
8
0
10
430.0
20
6422.679491924311
0
VERTEX
8
0
10
440.0
20
6420.0
0
VERTEX
8
0
10
440.0
20
6440.0
0
VERTEX
8
0
10
440.0
20
6440.0
0
VERTEX
8
0
10
440.0
20
6440.0
0
VERTEX
8
0
10
440.0
20
6440.0
0
VERTEX
8
0
10
420.0
20
6440.0
0
SEQEND
0
POLYLINE
8
0
66
1
10
0.0
20
0.0
30
0.0
0
VERTEX
8
0
10
1200.0
20
6400.0
0
VERTEX
8
0
10
1200.0
20
6440.0
0
VERTEX
8
0
10
1160.0
20
6440.0
0
VERTEX
8
0
10
1160.0
20
6400.0
0
VERTEX
8
0
10
1200.0
20
6400.0
0
SEQEND
0
POLYLINE
8
0
66
1
10
0.0
20
0.0
30
0.0
0
VERTEX
8
0
10
1200.0
20
6440.0
0
VERTEX
8
0
10
1194.6410161513775
20
6420.0
0
VERTEX
8
0
10
1180.0
20
6405.358983848622
0
VERTEX
8
0
10
1160.0
20
6400.0
0
VERTEX
8
0
10
1160.0
20
6420.0
0
VERTEX
8
0
10
1170.0
20
6422.679491924311
0
VERTEX
8
0
10
1177.3205080756888
20
6430.0
0
VERTEX
8
0
10
1180.0
20
6440.0
0
VERTEX
8
0
10
1200.0
20
6440.0
0
SEQEND
0
POLYLINE
8
0
66
1
10
0.0
20
0.0
30
0.0
0
VERTEX
8
0
10
1180.0
20
6440.0
0
VERTEX
8
0
10
1177.3205080756888
20
6430.0
0
VERTEX
8
0
10
1170.0
20
6422.679491924311
0
VERTEX
8
0
10
1160.0
20
6420.0
0
VERTEX
8
0
10
1160.0
20
6440.0
0
VERTEX
8
0
10
1160.0
20
6440.0
0
VERTEX
8
0
10
1160.0
20
6440.0
0
VERTEX
8
0
10
1160.0
20
6440.0
0
VERTEX
8
0
10
1180.0
20
6440.0
0
SEQEND
0
POLYLINE
8
0
66
1
10
0.0
20
0.0
30
0.0
0
VERTEX
8
0
10
775.0
20
6400.0
0
VERTEX
8
0
10
775.0
20
6390.0
0
VERTEX
8
0
10
785.0
20
6390.0
0
VERTEX
8
0
10
785.0
20
6400.0
0
VERTEX
8
0
10
775.0
20
6400.0
0
SEQEND
0
POLYLINE
8
0
66
1
10
0.0
20
0.0
30
0.0
0
VERTEX
8
0
10
785.0
20
6390.0
0
VERTEX
8
0
10
783.6602540378444
20
6395.0
0
VERTEX
8
0
10
780.0
20
6398.660254037844
0
VERTEX
8
0
10
775.0
20
6400.0
0
VERTEX
8
0
10
775.0
20
6395.0
0
VERTEX
8
0
10
777.5
20
6394.330127018922
0
VERTEX
8
0
10
779.3301270189222
20
6392.5
0
VERTEX
8
0
10
780.0
20
6390.0
0
VERTEX
8
0
10
785.0
20
6390.0
0
SEQEND
0
POLYLINE
8
0
66
1
10
0.0
20
0.0
30
0.0
0
VERTEX
8
0
10
780.0
20
6390.0
0
VERTEX
8
0
10
779.3301270189222
20
6392.5
0
VERTEX
8
0
10
777.5
20
6394.330127018922
0
VERTEX
8
0
10
775.0
20
6395.0
0
VERTEX
8
0
10
775.0
20
6390.0
0
VERTEX
8
0
10
775.0
20
6390.0
0
VERTEX
8
0
10
775.0
20
6390.0
0
VERTEX
8
0
10
775.0
20
6390.0
0
VERTEX
8
0
10
780.0
20
6390.0
0
SEQEND
0
POLYLINE
8
0
66
1
10
0.0
20
0.0
30
0.0
0
VERTEX
8
0
10
815.0
20
6400.0
0
VERTEX
8
0
10
815.0
20
6390.0
0
VERTEX
8
0
10
825.0
20
6390.0
0
VERTEX
8
0
10
825.0
20
6400.0
0
VERTEX
8
0
10
815.0
20
6400.0
0
SEQEND
0
POLYLINE
8
0
66
1
10
0.0
20
0.0
30
0.0
0
VERTEX
8
0
10
815.0
20
6390.0
0
VERTEX
8
0
10
816.3397459621556
20
6395.0
0
VERTEX
8
0
10
820.0
20
6398.660254037844
0
VERTEX
8
0
10
825.0
20
6400.0
0
VERTEX
8
0
10
825.0
20
6395.0
0
VERTEX
8
0
10
822.5
20
6394.330127018922
0
VERTEX
8
0
10
820.6698729810778
20
6392.5
0
VERTEX
8
0
10
820.0
20
6390.0
0
VERTEX
8
0
10
815.0
20
6390.0
0
SEQEND
0
POLYLINE
8
0
66
1
10
0.0
20
0.0
30
0.0
0
VERTEX
8
0
10
820.0
20
6390.0
0
VERTEX
8
0
10
820.6698729810778
20
6392.5
0
VERTEX
8
0
10
822.5
20
6394.330127018922
0
VERTEX
8
0
10
825.0
20
6395.0
0
VERTEX
8
0
10
825.0
20
6390.0
0
VERTEX
8
0
10
825.0
20
6390.0
0
VERTEX
8
0
10
825.0
20
6390.0
0
VERTEX
8
0
10
825.0
20
6390.0
0
VERTEX
8
0
10
820.0
20
6390.0
0
SEQEND
0
POLYLINE
8
0
66
1
10
0.0
20
0.0
30
0.0
0
VERTEX
8
0
10
1199.9999999999995
20
5370.0
0
VERTEX
8
0
10
1199.9999999999995
20
5410.0
0
VERTEX
8
0
10
1159.9999999999995
20
5410.0
0
VERTEX
8
0
10
1159.9999999999995
20
5370.0
0
VERTEX
8
0
10
1199.9999999999995
20
5370.0
0
SEQEND
0
POLYLINE
8
0
66
1
10
0.0
20
0.0
30
0.0
0
VERTEX
8
0
10
1199.9999999999995
20
5410.0
0
VERTEX
8
0
10
1194.641016151377
20
5390.0
0
VERTEX
8
0
10
1179.9999999999995
20
5375.358983848622
0
VERTEX
8
0
10
1159.9999999999995
20
5370.0
0
VERTEX
8
0
10
1159.9999999999995
20
5390.0
0
VERTEX
8
0
10
1169.9999999999995
20
5392.679491924311
0
VERTEX
8
0
10
1177.3205080756884
20
5400.0
0
VERTEX
8
0
10
1179.9999999999995
20
5410.0
0
VERTEX
8
0
10
1199.9999999999995
20
5410.0
0
SEQEND
0
POLYLINE
8
0
66
1
10
0.0
20
0.0
30
0.0
0
VERTEX
8
0
10
1179.9999999999995
20
5410.0
0
VERTEX
8
0
10
1177.3205080756884
20
5400.0
0
VERTEX
8
0
10
1169.9999999999995
20
5392.679491924311
0
VERTEX
8
0
10
1159.9999999999995
20
5390.0
0
VERTEX
8
0
10
1159.9999999999995
20
5410.0
0
VERTEX
8
0
10
1159.9999999999995
20
5410.0
0
VERTEX
8
0
10
1159.9999999999995
20
5410.0
0
VERTEX
8
0
10
1159.9999999999995
20
5410.0
0
VERTEX
8
0
10
1179.9999999999995
20
5410.0
0
SEQEND
0
POLYLINE
8
0
66
1
10
0.0
20
0.0
30
0.0
0
VERTEX
8
0
10
439.99999999999955
20
5370.0
0
VERTEX
8
0
10
439.99999999999955
20
5410.0
0
VERTEX
8
0
10
399.99999999999955
20
5410.0
0
VERTEX
8
0
10
399.99999999999955
20
5370.0
0
VERTEX
8
0
10
439.99999999999955
20
5370.0
0
SEQEND
0
POLYLINE
8
0
66
1
10
0.0
20
0.0
30
0.0
0
VERTEX
8
0
10
399.99999999999955
20
5410.0
0
VERTEX
8
0
10
405.358983848622
20
5390.0
0
VERTEX
8
0
10
419.99999999999955
20
5375.358983848622
0
VERTEX
8
0
10
439.99999999999955
20
5370.0
0
VERTEX
8
0
10
439.99999999999955
20
5390.0
0
VERTEX
8
0
10
429.99999999999955
20
5392.679491924311
0
VERTEX
8
0
10
422.67949192431075
20
5400.0
0
VERTEX
8
0
10
419.99999999999955
20
5410.0
0
VERTEX
8
0
10
399.99999999999955
20
5410.0
0
SEQEND
0
POLYLINE
8
0
66
1
10
0.0
20
0.0
30
0.0
0
VERTEX
8
0
10
419.99999999999955
20
5410.0
0
VERTEX
8
0
10
422.67949192431075
20
5400.0
0
VERTEX
8
0
10
429.99999999999955
20
5392.679491924311
0
VERTEX
8
0
10
439.99999999999955
20
5390.0
0
VERTEX
8
0
10
439.99999999999955
20
5410.0
0
VERTEX
8
0
10
439.99999999999955
20
5410.0
0
VERTEX
8
0
10
439.99999999999955
20
5410.0
0
VERTEX
8
0
10
439.99999999999955
20
5410.0
0
VERTEX
8
0
10
419.99999999999955
20
5410.0
0
SEQEND
0
POLYLINE
8
0
66
1
10
0.0
20
0.0
30
0.0
0
VERTEX
8
0
10
399.99999999999955
20
6170.0
0
VERTEX
8
0
10
399.99999999999955
20
6130.0
0
VERTEX
8
0
10
439.99999999999955
20
6130.0
0
VERTEX
8
0
10
439.99999999999955
20
6170.0
0
VERTEX
8
0
10
399.99999999999955
20
6170.0
0
SEQEND
0
POLYLINE
8
0
66
1
10
0.0
20
0.0
30
0.0
0
VERTEX
8
0
10
399.99999999999955
20
6130.0
0
VERTEX
8
0
10
405.358983848622
20
6150.0
0
VERTEX
8
0
10
419.99999999999955
20
6164.641016151378
0
VERTEX
8
0
10
439.99999999999955
20
6170.0
0
VERTEX
8
0
10
439.99999999999955
20
6150.0
0
VERTEX
8
0
10
429.99999999999955
20
6147.320508075689
0
VERTEX
8
0
10
422.67949192431075
20
6140.0
0
VERTEX
8
0
10
419.99999999999955
20
6130.0
0
VERTEX
8
0
10
399.99999999999955
20
6130.0
0
SEQEND
0
POLYLINE
8
0
66
1
10
0.0
20
0.0
30
0.0
0
VERTEX
8
0
10
419.99999999999955
20
6130.0
0
VERTEX
8
0
10
422.67949192431075
20
6140.0
0
VERTEX
8
0
10
429.99999999999955
20
6147.320508075689
0
VERTEX
8
0
10
439.99999999999955
20
6150.0
0
VERTEX
8
0
10
439.99999999999955
20
6130.0
0
VERTEX
8
0
10
439.99999999999955
20
6130.0
0
VERTEX
8
0
10
439.99999999999955
20
6130.0
0
VERTEX
8
0
10
439.99999999999955
20
6130.0
0
VERTEX
8
0
10
419.99999999999955
20
6130.0
0
SEQEND
0
POLYLINE
8
0
66
1
10
0.0
20
0.0
30
0.0
0
VERTEX
8
0
10
1159.9999999999995
20
6170.0
0
VERTEX
8
0
10
1159.9999999999995
20
6130.0
0
VERTEX
8
0
10
1199.9999999999995
20
6130.0
0
VERTEX
8
0
10
1199.9999999999995
20
6170.0
0
VERTEX
8
0
10
1159.9999999999995
20
6170.0
0
SEQEND
0
POLYLINE
8
0
66
1
10
0.0
20
0.0
30
0.0
0
VERTEX
8
0
10
1199.9999999999995
20
6130.0
0
VERTEX
8
0
10
1194.641016151377
20
6150.0
0
VERTEX
8
0
10
1179.9999999999995
20
6164.641016151378
0
VERTEX
8
0
10
1159.9999999999995
20
6170.0
0
VERTEX
8
0
10
1159.9999999999995
20
6150.0
0
VERTEX
8
0
10
1169.9999999999995
20
6147.320508075689
0
VERTEX
8
0
10
1177.3205080756884
20
6140.0
0
VERTEX
8
0
10
1179.9999999999995
20
6130.0
0
VERTEX
8
0
10
1199.9999999999995
20
6130.0
0
SEQEND
0
POLYLINE
8
0
66
1
10
0.0
20
0.0
30
0.0
0
VERTEX
8
0
10
1179.9999999999995
20
6130.0
0
VERTEX
8
0
10
1177.3205080756884
20
6140.0
0
VERTEX
8
0
10
1169.9999999999995
20
6147.320508075689
0
VERTEX
8
0
10
1159.9999999999995
20
6150.0
0
VERTEX
8
0
10
1159.9999999999995
20
6130.0
0
VERTEX
8
0
10
1159.9999999999995
20
6130.0
0
VERTEX
8
0
10
1159.9999999999995
20
6130.0
0
VERTEX
8
0
10
1159.9999999999995
20
6130.0
0
VERTEX
8
0
10
1179.9999999999995
20
6130.0
0
SEQEND
0
POLYLINE
8
0
66
1
10
0.0
20
0.0
30
0.0
0
VERTEX
8
0
10
784.9999999999995
20
6170.0
0
VERTEX
8
0
10
784.9999999999995
20
6180.0
0
VERTEX
8
0
10
774.9999999999995
20
6180.0
0
VERTEX
8
0
10
774.9999999999995
20
6170.0
0
VERTEX
8
0
10
784.9999999999995
20
6170.0
0
SEQEND
0
POLYLINE
8
0
66
1
10
0.0
20
0.0
30
0.0
0
VERTEX
8
0
10
784.9999999999995
20
6180.0
0
VERTEX
8
0
10
783.660254037844
20
6175.0
0
VERTEX
8
0
10
779.9999999999995
20
6171.339745962156
0
VERTEX
8
0
10
774.9999999999995
20
6170.0
0
VERTEX
8
0
10
774.9999999999995
20
6175.0
0
VERTEX
8
0
10
777.4999999999995
20
6175.669872981078
0
VERTEX
8
0
10
779.3301270189218
20
6177.5
0
VERTEX
8
0
10
779.9999999999995
20
6180.0
0
VERTEX
8
0
10
784.9999999999995
20
6180.0
0
SEQEND
0
POLYLINE
8
0
66
1
10
0.0
20
0.0
30
0.0
0
VERTEX
8
0
10
779.9999999999995
20
6180.0
0
VERTEX
8
0
10
779.3301270189218
20
6177.5
0
VERTEX
8
0
10
777.4999999999995
20
6175.669872981078
0
VERTEX
8
0
10
774.9999999999995
20
6175.0
0
VERTEX
8
0
10
774.9999999999995
20
6180.0
0
VERTEX
8
0
10
774.9999999999995
20
6180.0
0
VERTEX
8
0
10
774.9999999999995
20
6180.0
0
VERTEX
8
0
10
774.9999999999995
20
6180.0
0
VERTEX
8
0
10
779.9999999999995
20
6180.0
0
SEQEND
0
POLYLINE
8
0
66
1
10
0.0
20
0.0
30
0.0
0
VERTEX
8
0
10
824.9999999999995
20
6170.0
0
VERTEX
8
0
10
824.9999999999995
20
6180.0
0
VERTEX
8
0
10
814.9999999999995
20
6180.0
0
VERTEX
8
0
10
814.9999999999995
20
6170.0
0
VERTEX
8
0
10
824.9999999999995
20
6170.0
0
SEQEND
0
POLYLINE
8
0
66
1
10
0.0
20
0.0
30
0.0
0
VERTEX
8
0
10
814.9999999999995
20
6180.0
0
VERTEX
8
0
10
816.3397459621551
20
6175.0
0
VERTEX
8
0
10
819.9999999999995
20
6171.339745962156
0
VERTEX
8
0
10
824.9999999999995
20
6170.0
0
VERTEX
8
0
10
824.9999999999995
20
6175.0
0
VERTEX
8
0
10
822.4999999999995
20
6175.669872981078
0
VERTEX
8
0
10
820.6698729810773
20
6177.5
0
VERTEX
8
0
10
819.9999999999995
20
6180.0
0
VERTEX
8
0
10
814.9999999999995
20
6180.0
0
SEQEND
0
POLYLINE
8
0
66
1
10
0.0
20
0.0
30
0.0
0
VERTEX
8
0
10
819.9999999999995
20
6180.0
0
VERTEX
8
0
10
820.6698729810773
20
6177.5
0
VERTEX
8
0
10
822.4999999999995
20
6175.669872981078
0
VERTEX
8
0
10
824.9999999999995
20
6175.0
0
VERTEX
8
0
10
824.9999999999995
20
6180.0
0
VERTEX
8
0
10
824.9999999999995
20
6180.0
0
VERTEX
8
0
10
824.9999999999995
20
6180.0
0
VERTEX
8
0
10
824.9999999999995
20
6180.0
0
VERTEX
8
0
10
819.9999999999995
20
6180.0
0
SEQEND
0
POLYLINE
8
0
66
1
10
0.0
20
0.0
30
0.0
0
VERTEX
8
0
10
700.0
20
7250.0
0
VERTEX
8
0
10
725.0
20
7250.0
0
VERTEX
8
0
10
725.0
20
7287.5
0
VERTEX
8
0
10
750.0
20
7250.0
0
VERTEX
8
0
10
775.0
20
7250.0
0
VERTEX
8
0
10
737.5
20
7300.0
0
VERTEX
8
0
10
775.0
20
7350.0
0
VERTEX
8
0
10
750.0
20
7350.0
0
VERTEX
8
0
10
725.0
20
7312.5
0
VERTEX
8
0
10
725.0
20
7350.0
0
VERTEX
8
0
10
700.0
20
7350.0
0
VERTEX
8
0
10
700.0
20
7250.0
0
VERTEX
8
0
10
700.0
20
7250.0
0
SEQEND
0
POLYLINE
8
0
66
1
10
0.0
20
0.0
30
0.0
0
VERTEX
8
0
10
800.0
20
7250.0
0
VERTEX
8
0
10
875.0
20
7250.0
0
VERTEX
8
0
10
875.0
20
7262.5
0
VERTEX
8
0
10
825.0
20
7262.5
0
VERTEX
8
0
10
825.0
20
7275.0
0
VERTEX
8
0
10
875.0
20
7325.0
0
VERTEX
8
0
10
875.0
20
7350.0
0
VERTEX
8
0
10
800.0
20
7350.0
0
VERTEX
8
0
10
800.0
20
7337.5
0
VERTEX
8
0
10
850.0
20
7337.5
0
VERTEX
8
0
10
850.0
20
7325.0
0
VERTEX
8
0
10
800.0
20
7275.0
0
VERTEX
8
0
10
800.0
20
7250.0
0
VERTEX
8
0
10
800.0
20
7250.0
0
SEQEND
0
POLYLINE
8
0
66
1
10
0.0
20
0.0
30
0.0
0
VERTEX
8
0
10
400.0
20
9200.0
0
VERTEX
8
0
10
399.9999999999999
20
8400.0
0
VERTEX
8
0
10
1200.0
20
8400.0
0
VERTEX
8
0
10
1200.0
20
9200.0
0
VERTEX
8
0
10
400.0
20
9200.0
0
SEQEND
0
POLYLINE
8
0
66
1
10
0.0
20
0.0
30
0.0
0
VERTEX
8
0
10
784.9999999999999
20
8400.0
0
VERTEX
8
0
10
784.9999999999999
20
8300.0
0
VERTEX
8
0
10
814.9999999999999
20
8300.0
0
VERTEX
8
0
10
814.9999999999999
20
8400.0
0
VERTEX
8
0
10
784.9999999999999
20
8400.0
0
SEQEND
0
POLYLINE
8
0
66
1
10
0.0
20
0.0
30
0.0
0
VERTEX
8
0
10
802.4999999999999
20
8300.0
0
VERTEX
8
0
10
802.4999999999999
20
8305.0
0
VERTEX
8
0
10
797.4999999999999
20
8305.0
0
VERTEX
8
0
10
797.4999999999999
20
8300.0
0
VERTEX
8
0
10
802.4999999999999
20
8300.0
0
SEQEND
0
POLYLINE
8
0
66
1
10
0.0
20
0.0
30
0.0
0
VERTEX
8
0
10
807.4999999999999
20
8305.0
0
VERTEX
8
0
10
807.4999999999999
20
8310.0
0
VERTEX
8
0
10
792.4999999999999
20
8310.0
0
VERTEX
8
0
10
792.4999999999999
20
8305.0
0
VERTEX
8
0
10
807.4999999999999
20
8305.0
0
SEQEND
0
POLYLINE
8
0
66
1
10
0.0
20
0.0
30
0.0
0
VERTEX
8
0
10
797.4999999999999
20
8270.0
0
VERTEX
8
0
10
797.4999999999999
20
8265.0
0
VERTEX
8
0
10
802.4999999999999
20
8265.0
0
VERTEX
8
0
10
802.4999999999999
20
8270.0
0
VERTEX
8
0
10
797.4999999999999
20
8270.0
0
SEQEND
0
POLYLINE
8
0
66
1
10
0.0
20
0.0
30
0.0
0
VERTEX
8
0
10
792.4999999999999
20
8265.0
0
VERTEX
8
0
10
792.4999999999999
20
8260.0
0
VERTEX
8
0
10
807.4999999999999
20
8260.0
0
VERTEX
8
0
10
807.4999999999999
20
8265.0
0
VERTEX
8
0
10
792.4999999999999
20
8265.0
0
SEQEND
0
POLYLINE
8
0
66
1
10
0.0
20
0.0
30
0.0
0
VERTEX
8
0
10
784.9999999999999
20
8270.0
0
VERTEX
8
0
10
784.9999999999999
20
8170.0
0
VERTEX
8
0
10
814.9999999999999
20
8170.0
0
VERTEX
8
0
10
814.9999999999999
20
8270.0
0
VERTEX
8
0
10
784.9999999999999
20
8270.0
0
SEQEND
0
POLYLINE
8
0
66
1
10
0.0
20
0.0
30
0.0
0
VERTEX
8
0
10
399.9999999999999
20
8170.0
0
VERTEX
8
0
10
399.99999999999955
20
7370.0
0
VERTEX
8
0
10
1199.9999999999995
20
7370.0
0
VERTEX
8
0
10
1200.0
20
8170.0
0
VERTEX
8
0
10
399.9999999999999
20
8170.0
0
SEQEND
0
POLYLINE
8
0
66
1
10
0.0
20
0.0
30
0.0
0
VERTEX
8
0
10
1160.0
20
9200.0
0
VERTEX
8
0
10
1160.0
20
9160.0
0
VERTEX
8
0
10
1200.0
20
9160.0
0
VERTEX
8
0
10
1200.0
20
9200.0
0
VERTEX
8
0
10
1160.0
20
9200.0
0
SEQEND
0
POLYLINE
8
0
66
1
10
0.0
20
0.0
30
0.0
0
VERTEX
8
0
10
1200.0
20
9160.0
0
VERTEX
8
0
10
1194.6410161513775
20
9180.0
0
VERTEX
8
0
10
1180.0
20
9194.641016151378
0
VERTEX
8
0
10
1160.0
20
9200.0
0
VERTEX
8
0
10
1160.0
20
9180.0
0
VERTEX
8
0
10
1170.0
20
9177.320508075689
0
VERTEX
8
0
10
1177.3205080756888
20
9170.0
0
VERTEX
8
0
10
1180.0
20
9160.0
0
VERTEX
8
0
10
1200.0
20
9160.0
0
SEQEND
0
POLYLINE
8
0
66
1
10
0.0
20
0.0
30
0.0
0
VERTEX
8
0
10
1180.0
20
9160.0
0
VERTEX
8
0
10
1177.3205080756888
20
9170.0
0
VERTEX
8
0
10
1170.0
20
9177.320508075689
0
VERTEX
8
0
10
1160.0
20
9180.0
0
VERTEX
8
0
10
1160.0
20
9160.0
0
VERTEX
8
0
10
1160.0
20
9160.0
0
VERTEX
8
0
10
1160.0
20
9160.0
0
VERTEX
8
0
10
1160.0
20
9160.0
0
VERTEX
8
0
10
1180.0
20
9160.0
0
SEQEND
0
POLYLINE
8
0
66
1
10
0.0
20
0.0
30
0.0
0
VERTEX
8
0
10
400.0
20
9200.0
0
VERTEX
8
0
10
400.0
20
9160.0
0
VERTEX
8
0
10
440.0
20
9160.0
0
VERTEX
8
0
10
440.0
20
9200.0
0
VERTEX
8
0
10
400.0
20
9200.0
0
SEQEND
0
POLYLINE
8
0
66
1
10
0.0
20
0.0
30
0.0
0
VERTEX
8
0
10
400.0
20
9160.0
0
VERTEX
8
0
10
405.3589838486225
20
9180.0
0
VERTEX
8
0
10
420.0
20
9194.641016151378
0
VERTEX
8
0
10
440.0
20
9200.0
0
VERTEX
8
0
10
440.0
20
9180.0
0
VERTEX
8
0
10
430.0
20
9177.320508075689
0
VERTEX
8
0
10
422.6794919243112
20
9170.0
0
VERTEX
8
0
10
420.0
20
9160.0
0
VERTEX
8
0
10
400.0
20
9160.0
0
SEQEND
0
POLYLINE
8
0
66
1
10
0.0
20
0.0
30
0.0
0
VERTEX
8
0
10
420.0
20
9160.0
0
VERTEX
8
0
10
422.6794919243112
20
9170.0
0
VERTEX
8
0
10
430.0
20
9177.320508075689
0
VERTEX
8
0
10
440.0
20
9180.0
0
VERTEX
8
0
10
440.0
20
9160.0
0
VERTEX
8
0
10
440.0
20
9160.0
0
VERTEX
8
0
10
440.0
20
9160.0
0
VERTEX
8
0
10
440.0
20
9160.0
0
VERTEX
8
0
10
420.0
20
9160.0
0
SEQEND
0
POLYLINE
8
0
66
1
10
0.0
20
0.0
30
0.0
0
VERTEX
8
0
10
440.0
20
8400.0
0
VERTEX
8
0
10
440.0
20
8440.0
0
VERTEX
8
0
10
400.0
20
8440.0
0
VERTEX
8
0
10
400.0
20
8400.0
0
VERTEX
8
0
10
440.0
20
8400.0
0
SEQEND
0
POLYLINE
8
0
66
1
10
0.0
20
0.0
30
0.0
0
VERTEX
8
0
10
400.0
20
8440.0
0
VERTEX
8
0
10
405.3589838486225
20
8420.0
0
VERTEX
8
0
10
420.0
20
8405.358983848622
0
VERTEX
8
0
10
440.0
20
8400.0
0
VERTEX
8
0
10
440.0
20
8420.0
0
VERTEX
8
0
10
430.0
20
8422.679491924311
0
VERTEX
8
0
10
422.6794919243112
20
8430.0
0
VERTEX
8
0
10
420.0
20
8440.0
0
VERTEX
8
0
10
400.0
20
8440.0
0
SEQEND
0
POLYLINE
8
0
66
1
10
0.0
20
0.0
30
0.0
0
VERTEX
8
0
10
420.0
20
8440.0
0
VERTEX
8
0
10
422.6794919243112
20
8430.0
0
VERTEX
8
0
10
430.0
20
8422.679491924311
0
VERTEX
8
0
10
440.0
20
8420.0
0
VERTEX
8
0
10
440.0
20
8440.0
0
VERTEX
8
0
10
440.0
20
8440.0
0
VERTEX
8
0
10
440.0
20
8440.0
0
VERTEX
8
0
10
440.0
20
8440.0
0
VERTEX
8
0
10
420.0
20
8440.0
0
SEQEND
0
POLYLINE
8
0
66
1
10
0.0
20
0.0
30
0.0
0
VERTEX
8
0
10
1200.0
20
8400.0
0
VERTEX
8
0
10
1200.0
20
8440.0
0
VERTEX
8
0
10
1160.0
20
8440.0
0
VERTEX
8
0
10
1160.0
20
8400.0
0
VERTEX
8
0
10
1200.0
20
8400.0
0
SEQEND
0
POLYLINE
8
0
66
1
10
0.0
20
0.0
30
0.0
0
VERTEX
8
0
10
1200.0
20
8440.0
0
VERTEX
8
0
10
1194.6410161513775
20
8420.0
0
VERTEX
8
0
10
1180.0
20
8405.358983848622
0
VERTEX
8
0
10
1160.0
20
8400.0
0
VERTEX
8
0
10
1160.0
20
8420.0
0
VERTEX
8
0
10
1170.0
20
8422.679491924311
0
VERTEX
8
0
10
1177.3205080756888
20
8430.0
0
VERTEX
8
0
10
1180.0
20
8440.0
0
VERTEX
8
0
10
1200.0
20
8440.0
0
SEQEND
0
POLYLINE
8
0
66
1
10
0.0
20
0.0
30
0.0
0
VERTEX
8
0
10
1180.0
20
8440.0
0
VERTEX
8
0
10
1177.3205080756888
20
8430.0
0
VERTEX
8
0
10
1170.0
20
8422.679491924311
0
VERTEX
8
0
10
1160.0
20
8420.0
0
VERTEX
8
0
10
1160.0
20
8440.0
0
VERTEX
8
0
10
1160.0
20
8440.0
0
VERTEX
8
0
10
1160.0
20
8440.0
0
VERTEX
8
0
10
1160.0
20
8440.0
0
VERTEX
8
0
10
1180.0
20
8440.0
0
SEQEND
0
POLYLINE
8
0
66
1
10
0.0
20
0.0
30
0.0
0
VERTEX
8
0
10
775.0
20
8400.0
0
VERTEX
8
0
10
775.0
20
8390.0
0
VERTEX
8
0
10
785.0
20
8390.0
0
VERTEX
8
0
10
785.0
20
8400.0
0
VERTEX
8
0
10
775.0
20
8400.0
0
SEQEND
0
POLYLINE
8
0
66
1
10
0.0
20
0.0
30
0.0
0
VERTEX
8
0
10
785.0
20
8390.0
0
VERTEX
8
0
10
783.6602540378444
20
8395.0
0
VERTEX
8
0
10
780.0
20
8398.660254037844
0
VERTEX
8
0
10
775.0
20
8400.0
0
VERTEX
8
0
10
775.0
20
8395.0
0
VERTEX
8
0
10
777.5
20
8394.330127018922
0
VERTEX
8
0
10
779.3301270189222
20
8392.5
0
VERTEX
8
0
10
780.0
20
8390.0
0
VERTEX
8
0
10
785.0
20
8390.0
0
SEQEND
0
POLYLINE
8
0
66
1
10
0.0
20
0.0
30
0.0
0
VERTEX
8
0
10
780.0
20
8390.0
0
VERTEX
8
0
10
779.3301270189222
20
8392.5
0
VERTEX
8
0
10
777.5
20
8394.330127018922
0
VERTEX
8
0
10
775.0
20
8395.0
0
VERTEX
8
0
10
775.0
20
8390.0
0
VERTEX
8
0
10
775.0
20
8390.0
0
VERTEX
8
0
10
775.0
20
8390.0
0
VERTEX
8
0
10
775.0
20
8390.0
0
VERTEX
8
0
10
780.0
20
8390.0
0
SEQEND
0
POLYLINE
8
0
66
1
10
0.0
20
0.0
30
0.0
0
VERTEX
8
0
10
815.0
20
8400.0
0
VERTEX
8
0
10
815.0
20
8390.0
0
VERTEX
8
0
10
825.0
20
8390.0
0
VERTEX
8
0
10
825.0
20
8400.0
0
VERTEX
8
0
10
815.0
20
8400.0
0
SEQEND
0
POLYLINE
8
0
66
1
10
0.0
20
0.0
30
0.0
0
VERTEX
8
0
10
815.0
20
8390.0
0
VERTEX
8
0
10
816.3397459621556
20
8395.0
0
VERTEX
8
0
10
820.0
20
8398.660254037844
0
VERTEX
8
0
10
825.0
20
8400.0
0
VERTEX
8
0
10
825.0
20
8395.0
0
VERTEX
8
0
10
822.5
20
8394.330127018922
0
VERTEX
8
0
10
820.6698729810778
20
8392.5
0
VERTEX
8
0
10
820.0
20
8390.0
0
VERTEX
8
0
10
815.0
20
8390.0
0
SEQEND
0
POLYLINE
8
0
66
1
10
0.0
20
0.0
30
0.0
0
VERTEX
8
0
10
820.0
20
8390.0
0
VERTEX
8
0
10
820.6698729810778
20
8392.5
0
VERTEX
8
0
10
822.5
20
8394.330127018922
0
VERTEX
8
0
10
825.0
20
8395.0
0
VERTEX
8
0
10
825.0
20
8390.0
0
VERTEX
8
0
10
825.0
20
8390.0
0
VERTEX
8
0
10
825.0
20
8390.0
0
VERTEX
8
0
10
825.0
20
8390.0
0
VERTEX
8
0
10
820.0
20
8390.0
0
SEQEND
0
POLYLINE
8
0
66
1
10
0.0
20
0.0
30
0.0
0
VERTEX
8
0
10
1199.9999999999995
20
7370.0
0
VERTEX
8
0
10
1199.9999999999995
20
7410.0
0
VERTEX
8
0
10
1159.9999999999995
20
7410.0
0
VERTEX
8
0
10
1159.9999999999995
20
7370.0
0
VERTEX
8
0
10
1199.9999999999995
20
7370.0
0
SEQEND
0
POLYLINE
8
0
66
1
10
0.0
20
0.0
30
0.0
0
VERTEX
8
0
10
1199.9999999999995
20
7410.0
0
VERTEX
8
0
10
1194.641016151377
20
7390.0
0
VERTEX
8
0
10
1179.9999999999995
20
7375.358983848622
0
VERTEX
8
0
10
1159.9999999999995
20
7370.0
0
VERTEX
8
0
10
1159.9999999999995
20
7390.0
0
VERTEX
8
0
10
1169.9999999999995
20
7392.679491924311
0
VERTEX
8
0
10
1177.3205080756884
20
7400.0
0
VERTEX
8
0
10
1179.9999999999995
20
7410.0
0
VERTEX
8
0
10
1199.9999999999995
20
7410.0
0
SEQEND
0
POLYLINE
8
0
66
1
10
0.0
20
0.0
30
0.0
0
VERTEX
8
0
10
1179.9999999999995
20
7410.0
0
VERTEX
8
0
10
1177.3205080756884
20
7400.0
0
VERTEX
8
0
10
1169.9999999999995
20
7392.679491924311
0
VERTEX
8
0
10
1159.9999999999995
20
7390.0
0
VERTEX
8
0
10
1159.9999999999995
20
7410.0
0
VERTEX
8
0
10
1159.9999999999995
20
7410.0
0
VERTEX
8
0
10
1159.9999999999995
20
7410.0
0
VERTEX
8
0
10
1159.9999999999995
20
7410.0
0
VERTEX
8
0
10
1179.9999999999995
20
7410.0
0
SEQEND
0
POLYLINE
8
0
66
1
10
0.0
20
0.0
30
0.0
0
VERTEX
8
0
10
439.99999999999955
20
7370.0
0
VERTEX
8
0
10
439.99999999999955
20
7410.0
0
VERTEX
8
0
10
399.99999999999955
20
7410.0
0
VERTEX
8
0
10
399.99999999999955
20
7370.0
0
VERTEX
8
0
10
439.99999999999955
20
7370.0
0
SEQEND
0
POLYLINE
8
0
66
1
10
0.0
20
0.0
30
0.0
0
VERTEX
8
0
10
399.99999999999955
20
7410.0
0
VERTEX
8
0
10
405.358983848622
20
7390.0
0
VERTEX
8
0
10
419.99999999999955
20
7375.358983848622
0
VERTEX
8
0
10
439.99999999999955
20
7370.0
0
VERTEX
8
0
10
439.99999999999955
20
7390.0
0
VERTEX
8
0
10
429.99999999999955
20
7392.679491924311
0
VERTEX
8
0
10
422.67949192431075
20
7400.0
0
VERTEX
8
0
10
419.99999999999955
20
7410.0
0
VERTEX
8
0
10
399.99999999999955
20
7410.0
0
SEQEND
0
POLYLINE
8
0
66
1
10
0.0
20
0.0
30
0.0
0
VERTEX
8
0
10
419.99999999999955
20
7410.0
0
VERTEX
8
0
10
422.67949192431075
20
7400.0
0
VERTEX
8
0
10
429.99999999999955
20
7392.679491924311
0
VERTEX
8
0
10
439.99999999999955
20
7390.0
0
VERTEX
8
0
10
439.99999999999955
20
7410.0
0
VERTEX
8
0
10
439.99999999999955
20
7410.0
0
VERTEX
8
0
10
439.99999999999955
20
7410.0
0
VERTEX
8
0
10
439.99999999999955
20
7410.0
0
VERTEX
8
0
10
419.99999999999955
20
7410.0
0
SEQEND
0
POLYLINE
8
0
66
1
10
0.0
20
0.0
30
0.0
0
VERTEX
8
0
10
399.99999999999955
20
8170.0
0
VERTEX
8
0
10
399.99999999999955
20
8130.0
0
VERTEX
8
0
10
439.99999999999955
20
8130.0
0
VERTEX
8
0
10
439.99999999999955
20
8170.0
0
VERTEX
8
0
10
399.99999999999955
20
8170.0
0
SEQEND
0
POLYLINE
8
0
66
1
10
0.0
20
0.0
30
0.0
0
VERTEX
8
0
10
399.99999999999955
20
8130.0
0
VERTEX
8
0
10
405.358983848622
20
8150.0
0
VERTEX
8
0
10
419.99999999999955
20
8164.641016151378
0
VERTEX
8
0
10
439.99999999999955
20
8170.0
0
VERTEX
8
0
10
439.99999999999955
20
8150.0
0
VERTEX
8
0
10
429.99999999999955
20
8147.320508075689
0
VERTEX
8
0
10
422.67949192431075
20
8140.0
0
VERTEX
8
0
10
419.99999999999955
20
8130.0
0
VERTEX
8
0
10
399.99999999999955
20
8130.0
0
SEQEND
0
POLYLINE
8
0
66
1
10
0.0
20
0.0
30
0.0
0
VERTEX
8
0
10
419.99999999999955
20
8130.0
0
VERTEX
8
0
10
422.67949192431075
20
8140.0
0
VERTEX
8
0
10
429.99999999999955
20
8147.320508075689
0
VERTEX
8
0
10
439.99999999999955
20
8150.0
0
VERTEX
8
0
10
439.99999999999955
20
8130.0
0
VERTEX
8
0
10
439.99999999999955
20
8130.0
0
VERTEX
8
0
10
439.99999999999955
20
8130.0
0
VERTEX
8
0
10
439.99999999999955
20
8130.0
0
VERTEX
8
0
10
419.99999999999955
20
8130.0
0
SEQEND
0
POLYLINE
8
0
66
1
10
0.0
20
0.0
30
0.0
0
VERTEX
8
0
10
1159.9999999999995
20
8170.0
0
VERTEX
8
0
10
1159.9999999999995
20
8130.0
0
VERTEX
8
0
10
1199.9999999999995
20
8130.0
0
VERTEX
8
0
10
1199.9999999999995
20
8170.0
0
VERTEX
8
0
10
1159.9999999999995
20
8170.0
0
SEQEND
0
POLYLINE
8
0
66
1
10
0.0
20
0.0
30
0.0
0
VERTEX
8
0
10
1199.9999999999995
20
8130.0
0
VERTEX
8
0
10
1194.641016151377
20
8150.0
0
VERTEX
8
0
10
1179.9999999999995
20
8164.641016151378
0
VERTEX
8
0
10
1159.9999999999995
20
8170.0
0
VERTEX
8
0
10
1159.9999999999995
20
8150.0
0
VERTEX
8
0
10
1169.9999999999995
20
8147.320508075689
0
VERTEX
8
0
10
1177.3205080756884
20
8140.0
0
VERTEX
8
0
10
1179.9999999999995
20
8130.0
0
VERTEX
8
0
10
1199.9999999999995
20
8130.0
0
SEQEND
0
POLYLINE
8
0
66
1
10
0.0
20
0.0
30
0.0
0
VERTEX
8
0
10
1179.9999999999995
20
8130.0
0
VERTEX
8
0
10
1177.3205080756884
20
8140.0
0
VERTEX
8
0
10
1169.9999999999995
20
8147.320508075689
0
VERTEX
8
0
10
1159.9999999999995
20
8150.0
0
VERTEX
8
0
10
1159.9999999999995
20
8130.0
0
VERTEX
8
0
10
1159.9999999999995
20
8130.0
0
VERTEX
8
0
10
1159.9999999999995
20
8130.0
0
VERTEX
8
0
10
1159.9999999999995
20
8130.0
0
VERTEX
8
0
10
1179.9999999999995
20
8130.0
0
SEQEND
0
POLYLINE
8
0
66
1
10
0.0
20
0.0
30
0.0
0
VERTEX
8
0
10
784.9999999999995
20
8170.0
0
VERTEX
8
0
10
784.9999999999995
20
8180.0
0
VERTEX
8
0
10
774.9999999999995
20
8180.0
0
VERTEX
8
0
10
774.9999999999995
20
8170.0
0
VERTEX
8
0
10
784.9999999999995
20
8170.0
0
SEQEND
0
POLYLINE
8
0
66
1
10
0.0
20
0.0
30
0.0
0
VERTEX
8
0
10
784.9999999999995
20
8180.0
0
VERTEX
8
0
10
783.660254037844
20
8175.0
0
VERTEX
8
0
10
779.9999999999995
20
8171.339745962156
0
VERTEX
8
0
10
774.9999999999995
20
8170.0
0
VERTEX
8
0
10
774.9999999999995
20
8175.0
0
VERTEX
8
0
10
777.4999999999995
20
8175.669872981078
0
VERTEX
8
0
10
779.3301270189218
20
8177.5
0
VERTEX
8
0
10
779.9999999999995
20
8180.0
0
VERTEX
8
0
10
784.9999999999995
20
8180.0
0
SEQEND
0
POLYLINE
8
0
66
1
10
0.0
20
0.0
30
0.0
0
VERTEX
8
0
10
779.9999999999995
20
8180.0
0
VERTEX
8
0
10
779.3301270189218
20
8177.5
0
VERTEX
8
0
10
777.4999999999995
20
8175.669872981078
0
VERTEX
8
0
10
774.9999999999995
20
8175.0
0
VERTEX
8
0
10
774.9999999999995
20
8180.0
0
VERTEX
8
0
10
774.9999999999995
20
8180.0
0
VERTEX
8
0
10
774.9999999999995
20
8180.0
0
VERTEX
8
0
10
774.9999999999995
20
8180.0
0
VERTEX
8
0
10
779.9999999999995
20
8180.0
0
SEQEND
0
POLYLINE
8
0
66
1
10
0.0
20
0.0
30
0.0
0
VERTEX
8
0
10
824.9999999999995
20
8170.0
0
VERTEX
8
0
10
824.9999999999995
20
8180.0
0
VERTEX
8
0
10
814.9999999999995
20
8180.0
0
VERTEX
8
0
10
814.9999999999995
20
8170.0
0
VERTEX
8
0
10
824.9999999999995
20
8170.0
0
SEQEND
0
POLYLINE
8
0
66
1
10
0.0
20
0.0
30
0.0
0
VERTEX
8
0
10
814.9999999999995
20
8180.0
0
VERTEX
8
0
10
816.3397459621551
20
8175.0
0
VERTEX
8
0
10
819.9999999999995
20
8171.339745962156
0
VERTEX
8
0
10
824.9999999999995
20
8170.0
0
VERTEX
8
0
10
824.9999999999995
20
8175.0
0
VERTEX
8
0
10
822.4999999999995
20
8175.669872981078
0
VERTEX
8
0
10
820.6698729810773
20
8177.5
0
VERTEX
8
0
10
819.9999999999995
20
8180.0
0
VERTEX
8
0
10
814.9999999999995
20
8180.0
0
SEQEND
0
POLYLINE
8
0
66
1
10
0.0
20
0.0
30
0.0
0
VERTEX
8
0
10
819.9999999999995
20
8180.0
0
VERTEX
8
0
10
820.6698729810773
20
8177.5
0
VERTEX
8
0
10
822.4999999999995
20
8175.669872981078
0
VERTEX
8
0
10
824.9999999999995
20
8175.0
0
VERTEX
8
0
10
824.9999999999995
20
8180.0
0
VERTEX
8
0
10
824.9999999999995
20
8180.0
0
VERTEX
8
0
10
824.9999999999995
20
8180.0
0
VERTEX
8
0
10
824.9999999999995
20
8180.0
0
VERTEX
8
0
10
819.9999999999995
20
8180.0
0
SEQEND
0
POLYLINE
8
0
66
1
10
0.0
20
0.0
30
0.0
0
VERTEX
8
0
10
700.0
20
9250.0
0
VERTEX
8
0
10
725.0
20
9250.0
0
VERTEX
8
0
10
725.0
20
9287.5
0
VERTEX
8
0
10
750.0
20
9250.0
0
VERTEX
8
0
10
775.0
20
9250.0
0
VERTEX
8
0
10
737.5
20
9300.0
0
VERTEX
8
0
10
775.0
20
9350.0
0
VERTEX
8
0
10
750.0
20
9350.0
0
VERTEX
8
0
10
725.0
20
9312.5
0
VERTEX
8
0
10
725.0
20
9350.0
0
VERTEX
8
0
10
700.0
20
9350.0
0
VERTEX
8
0
10
700.0
20
9250.0
0
VERTEX
8
0
10
700.0
20
9250.0
0
SEQEND
0
POLYLINE
8
0
66
1
10
0.0
20
0.0
30
0.0
0
VERTEX
8
0
10
800.0
20
9250.0
0
VERTEX
8
0
10
875.0
20
9250.0
0
VERTEX
8
0
10
875.0
20
9350.0
0
VERTEX
8
0
10
800.0
20
9350.0
0
VERTEX
8
0
10
800.0
20
9337.5
0
VERTEX
8
0
10
850.0
20
9337.5
0
VERTEX
8
0
10
850.0
20
9306.25
0
VERTEX
8
0
10
825.0
20
9306.25
0
VERTEX
8
0
10
825.0
20
9293.75
0
VERTEX
8
0
10
850.0
20
9293.75
0
VERTEX
8
0
10
850.0
20
9262.5
0
VERTEX
8
0
10
800.0
20
9262.5
0
VERTEX
8
0
10
800.0
20
9250.0
0
VERTEX
8
0
10
800.0
20
9250.0
0
SEQEND
0
POLYLINE
8
0
66
1
10
0.0
20
0.0
30
0.0
0
VERTEX
8
0
10
500.0
20
120.0
0
VERTEX
8
0
10
575.0
20
120.0
0
VERTEX
8
0
10
575.0
20
232.5
0
VERTEX
8
0
10
650.0
20
120.0
0
VERTEX
8
0
10
725.0
20
120.0
0
VERTEX
8
0
10
612.5
20
270.0
0
VERTEX
8
0
10
725.0
20
420.0
0
VERTEX
8
0
10
650.0
20
420.0
0
VERTEX
8
0
10
575.0
20
307.5
0
VERTEX
8
0
10
575.0
20
420.0
0
VERTEX
8
0
10
500.0
20
420.0
0
VERTEX
8
0
10
500.0
20
120.0
0
VERTEX
8
0
10
500.0
20
120.0
0
SEQEND
0
ENDBLK
0
ENDSEC
0
SECTION
2
ENTITIES
0
INSERT
2
K
8
0
10
0
20
0
0
ENDSEC
0
EOF
