0
SECTION
2
HEADER
9
$ACADVER
1
AC1006
9
$INSBASE
10
0.0
20
0.0
30
0.0
9
$EXTMIN
10
0.0
20
0.0
9
$EXTMAX
10
0.0
20
0.0
0
ENDSEC
0
SECTION
2
TABLES
0
TABLE
2
LTYPE
70
1
0
LTYPE
2
CONTINUOUS
70
64
3
Solid line
72
65
73
0
40
0.0
0
ENDTAB
0
TABLE
2
LAYER
70
3
0
LAYER
2
PYDXF
70
64
62
7
6
continuous
0
LAYER
2
GAP
70
64
62
1
6
continuous
0
LAYER
2
PIN
70
64
62
3
6
continuous
0
ENDTAB
0
TABLE
2
STYLE
70
1
0
STYLE
2
STANDARD
70
0
40
0
41
40
50
50
71
0
42
1
3
ARIAL.TTF
4

0
ENDTAB
0
TABLE
2
VIEW
70
0
0
ENDTAB
0
ENDSEC
0
SECTION
2
BLOCKS
0
BLOCK
8
GAP
2
Q22GAP
70
0
10
0
20
0
30
0
3
Q22GAP
0
POLYLINE
8
0
66
1
10
0.0
20
0.0
30
0.0
0
VERTEX
8
0
10
810.7000000000007
20
21113.3
0
VERTEX
8
0
10
810.7000000000007
20
21114.0
0
VERTEX
8
0
10
789.2999999999993
20
21114.0
0
VERTEX
8
0
10
789.2999999999993
20
21113.3
0
VERTEX
8
0
10
810.7000000000007
20
21113.3
0
SEQEND
0
POLYLINE
8
0
66
1
10
0.0
20
0.0
30
0.0
0
VERTEX
8
0
10
790.0
20
21114.0
0
VERTEX
8
0
10
790.0
20
21131.0
0
VERTEX
8
0
10
789.2999999999993
20
21131.0
0
VERTEX
8
0
10
789.2999999999993
20
21114.0
0
VERTEX
8
0
10
790.0
20
21114.0
0
SEQEND
0
POLYLINE
8
0
66
1
10
0.0
20
0.0
30
0.0
0
VERTEX
8
0
10
810.0
20
21114.0
0
VERTEX
8
0
10
810.0
20
21131.0
0
VERTEX
8
0
10
810.7000000000007
20
21131.0
0
VERTEX
8
0
10
810.7000000000007
20
21114.0
0
VERTEX
8
0
10
810.0
20
21114.0
0
SEQEND
0
POLYLINE
8
0
66
1
10
0.0
20
0.0
30
0.0
0
VERTEX
8
0
10
790.0
20
21131.0
0
VERTEX
8
0
10
799.0
20
21136.0
0
VERTEX
8
0
10
798.2999999999993
20
21136.0
0
VERTEX
8
0
10
789.2999999999993
20
21131.0
0
VERTEX
8
0
10
790.0
20
21131.0
0
SEQEND
0
POLYLINE
8
0
66
1
10
0.0
20
0.0
30
0.0
0
VERTEX
8
0
10
810.0
20
21131.0
0
VERTEX
8
0
10
801.0
20
21136.0
0
VERTEX
8
0
10
801.7000000000007
20
21136.0
0
VERTEX
8
0
10
810.7000000000007
20
21131.0
0
VERTEX
8
0
10
810.0
20
21131.0
0
SEQEND
0
POLYLINE
8
0
66
1
10
0.0
20
0.0
30
0.0
0
VERTEX
8
0
10
799.0
20
21136.0
0
VERTEX
8
0
10
799.0
20
21137.0
0
VERTEX
8
0
10
798.2999999999993
20
21137.0
0
VERTEX
8
0
10
798.2999999999993
20
21136.0
0
VERTEX
8
0
10
799.0
20
21136.0
0
SEQEND
0
POLYLINE
8
0
66
1
10
0.0
20
0.0
30
0.0
0
VERTEX
8
0
10
801.0
20
21136.0
0
VERTEX
8
0
10
801.0
20
21137.0
0
VERTEX
8
0
10
801.7000000000007
20
21137.0
0
VERTEX
8
0
10
801.7000000000007
20
21136.0
0
VERTEX
8
0
10
801.0
20
21136.0
0
SEQEND
0
POLYLINE
8
0
66
1
10
0.0
20
0.0
30
0.0
0
VERTEX
8
0
10
799.0
20
21137.0
0
VERTEX
8
0
10
799.0
20
21138.5
0
VERTEX
8
0
10
798.7999999999993
20
21138.5
0
VERTEX
8
0
10
798.7999999999993
20
21137.0
0
VERTEX
8
0
10
799.0
20
21137.0
0
SEQEND
0
POLYLINE
8
0
66
1
10
0.0
20
0.0
30
0.0
0
VERTEX
8
0
10
801.0
20
21137.0
0
VERTEX
8
0
10
801.0
20
21138.5
0
VERTEX
8
0
10
801.2000000000007
20
21138.5
0
VERTEX
8
0
10
801.2000000000007
20
21137.0
0
VERTEX
8
0
10
801.0
20
21137.0
0
SEQEND
0
POLYLINE
8
0
66
1
10
0.0
20
0.0
30
0.0
0
VERTEX
8
0
10
799.0
20
21138.5
0
VERTEX
8
0
10
799.5750000000007
20
21143.5
0
VERTEX
8
0
10
799.375
20
21143.5
0
VERTEX
8
0
10
798.7999999999993
20
21138.5
0
VERTEX
8
0
10
799.0
20
21138.5
0
SEQEND
0
POLYLINE
8
0
66
1
10
0.0
20
0.0
30
0.0
0
VERTEX
8
0
10
801.0
20
21138.5
0
VERTEX
8
0
10
800.4249999999993
20
21143.5
0
VERTEX
8
0
10
800.625
20
21143.5
0
VERTEX
8
0
10
801.2000000000007
20
21138.5
0
VERTEX
8
0
10
801.0
20
21138.5
0
SEQEND
0
POLYLINE
8
0
66
1
10
0.0
20
0.0
30
0.0
0
VERTEX
8
0
10
799.5750000000007
20
21143.5
0
VERTEX
8
0
10
799.5750000000007
20
21146.0
0
VERTEX
8
0
10
799.375
20
21146.0
0
VERTEX
8
0
10
799.375
20
21143.5
0
VERTEX
8
0
10
799.5750000000007
20
21143.5
0
SEQEND
0
POLYLINE
8
0
66
1
10
0.0
20
0.0
30
0.0
0
VERTEX
8
0
10
800.4249999999993
20
21143.5
0
VERTEX
8
0
10
800.4249999999993
20
21146.0
0
VERTEX
8
0
10
800.625
20
21146.0
0
VERTEX
8
0
10
800.625
20
21143.5
0
VERTEX
8
0
10
800.4249999999993
20
21143.5
0
SEQEND
0
POLYLINE
8
0
66
1
10
0.0
20
0.0
30
0.0
0
VERTEX
8
0
10
801.2000000000007
20
21146.0
0
VERTEX
8
0
10
801.2000000000007
20
21146.2
0
VERTEX
8
0
10
798.7999999999993
20
21146.2
0
VERTEX
8
0
10
798.7999999999993
20
21146.0
0
VERTEX
8
0
10
801.2000000000007
20
21146.0
0
SEQEND
0
POLYLINE
8
0
66
1
10
0.0
20
0.0
30
0.0
0
VERTEX
8
0
10
799.0
20
21146.2
0
VERTEX
8
0
10
799.0
20
21153.2
0
VERTEX
8
0
10
798.7999999999993
20
21153.2
0
VERTEX
8
0
10
798.7999999999993
20
21146.2
0
VERTEX
8
0
10
799.0
20
21146.2
0
SEQEND
0
POLYLINE
8
0
66
1
10
0.0
20
0.0
30
0.0
0
VERTEX
8
0
10
801.0
20
21146.2
0
VERTEX
8
0
10
801.0
20
21153.2
0
VERTEX
8
0
10
801.2000000000007
20
21153.2
0
VERTEX
8
0
10
801.2000000000007
20
21146.2
0
VERTEX
8
0
10
801.0
20
21146.2
0
SEQEND
0
POLYLINE
8
0
66
1
10
0.0
20
0.0
30
0.0
0
VERTEX
8
0
10
799.0
20
21153.2
0
VERTEX
8
0
10
799.0
20
21154.2
0
VERTEX
8
0
10
798.2999999999993
20
21154.2
0
VERTEX
8
0
10
798.2999999999993
20
21153.2
0
VERTEX
8
0
10
799.0
20
21153.2
0
SEQEND
0
POLYLINE
8
0
66
1
10
0.0
20
0.0
30
0.0
0
VERTEX
8
0
10
801.0
20
21153.2
0
VERTEX
8
0
10
801.0
20
21154.2
0
VERTEX
8
0
10
801.7000000000007
20
21154.2
0
VERTEX
8
0
10
801.7000000000007
20
21153.2
0
VERTEX
8
0
10
801.0
20
21153.2
0
SEQEND
0
POLYLINE
8
0
66
1
10
0.0
20
0.0
30
0.0
0
VERTEX
8
0
10
799.0
20
21154.2
0
VERTEX
8
0
10
790.0
20
21159.2
0
VERTEX
8
0
10
789.2999999999993
20
21159.2
0
VERTEX
8
0
10
798.2999999999993
20
21154.2
0
VERTEX
8
0
10
799.0
20
21154.2
0
SEQEND
0
POLYLINE
8
0
66
1
10
0.0
20
0.0
30
0.0
0
VERTEX
8
0
10
801.0
20
21154.2
0
VERTEX
8
0
10
810.0
20
21159.2
0
VERTEX
8
0
10
810.7000000000007
20
21159.2
0
VERTEX
8
0
10
801.7000000000007
20
21154.2
0
VERTEX
8
0
10
801.0
20
21154.2
0
SEQEND
0
POLYLINE
8
0
66
1
10
0.0
20
0.0
30
0.0
0
VERTEX
8
0
10
790.0
20
21159.2
0
VERTEX
8
0
10
790.0
20
21176.2
0
VERTEX
8
0
10
789.2999999999993
20
21176.2
0
VERTEX
8
0
10
789.2999999999993
20
21159.2
0
VERTEX
8
0
10
790.0
20
21159.2
0
SEQEND
0
POLYLINE
8
0
66
1
10
0.0
20
0.0
30
0.0
0
VERTEX
8
0
10
810.0
20
21159.2
0
VERTEX
8
0
10
810.0
20
21176.2
0
VERTEX
8
0
10
810.7000000000007
20
21176.2
0
VERTEX
8
0
10
810.7000000000007
20
21159.2
0
VERTEX
8
0
10
810.0
20
21159.2
0
SEQEND
0
POLYLINE
8
0
66
1
10
0.0
20
0.0
30
0.0
0
VERTEX
8
0
10
810.7000000000007
20
21176.2
0
VERTEX
8
0
10
810.7000000000007
20
21176.9
0
VERTEX
8
0
10
789.2999999999993
20
21176.9
0
VERTEX
8
0
10
789.2999999999993
20
21176.2
0
VERTEX
8
0
10
810.7000000000007
20
21176.2
0
SEQEND
0
POLYLINE
8
0
66
1
10
0.0
20
0.0
30
0.0
0
VERTEX
8
0
10
810.6999999999998
20
2253.3
0
VERTEX
8
0
10
810.6999999999998
20
2254.0
0
VERTEX
8
0
10
789.3000000000002
20
2254.0
0
VERTEX
8
0
10
789.3000000000002
20
2253.3
0
VERTEX
8
0
10
810.6999999999998
20
2253.3
0
SEQEND
0
POLYLINE
8
0
66
1
10
0.0
20
0.0
30
0.0
0
VERTEX
8
0
10
790.0
20
2254.0
0
VERTEX
8
0
10
790.0
20
2271.0
0
VERTEX
8
0
10
789.3000000000002
20
2271.0
0
VERTEX
8
0
10
789.3000000000002
20
2254.0
0
VERTEX
8
0
10
790.0
20
2254.0
0
SEQEND
0
POLYLINE
8
0
66
1
10
0.0
20
0.0
30
0.0
0
VERTEX
8
0
10
810.0
20
2254.0
0
VERTEX
8
0
10
810.0
20
2271.0
0
VERTEX
8
0
10
810.6999999999998
20
2271.0
0
VERTEX
8
0
10
810.6999999999998
20
2254.0
0
VERTEX
8
0
10
810.0
20
2254.0
0
SEQEND
0
POLYLINE
8
0
66
1
10
0.0
20
0.0
30
0.0
0
VERTEX
8
0
10
810.6999999999998
20
2271.0
0
VERTEX
8
0
10
810.6999999999998
20
2271.7
0
VERTEX
8
0
10
789.3000000000002
20
2271.7
0
VERTEX
8
0
10
789.3000000000002
20
2271.0
0
VERTEX
8
0
10
810.6999999999998
20
2271.0
0
SEQEND
0
POLYLINE
8
0
66
1
10
0.0
20
0.0
30
0.0
0
VERTEX
8
0
10
810.6999999999998
20
2297.7999999999997
0
VERTEX
8
0
10
810.6999999999998
20
2298.5
0
VERTEX
8
0
10
789.3000000000002
20
2298.5
0
VERTEX
8
0
10
789.3000000000002
20
2297.7999999999997
0
VERTEX
8
0
10
810.6999999999998
20
2297.7999999999997
0
SEQEND
0
POLYLINE
8
0
66
1
10
0.0
20
0.0
30
0.0
0
VERTEX
8
0
10
790.0
20
2298.5
0
VERTEX
8
0
10
790.0
20
2315.5
0
VERTEX
8
0
10
789.3000000000002
20
2315.5
0
VERTEX
8
0
10
789.3000000000002
20
2298.5
0
VERTEX
8
0
10
790.0
20
2298.5
0
SEQEND
0
POLYLINE
8
0
66
1
10
0.0
20
0.0
30
0.0
0
VERTEX
8
0
10
810.0
20
2298.5
0
VERTEX
8
0
10
810.0
20
2315.5
0
VERTEX
8
0
10
810.6999999999998
20
2315.5
0
VERTEX
8
0
10
810.6999999999998
20
2298.5
0
VERTEX
8
0
10
810.0
20
2298.5
0
SEQEND
0
POLYLINE
8
0
66
1
10
0.0
20
0.0
30
0.0
0
VERTEX
8
0
10
810.6999999999998
20
2315.5
0
VERTEX
8
0
10
810.6999999999998
20
2316.2
0
VERTEX
8
0
10
789.3000000000002
20
2316.2
0
VERTEX
8
0
10
789.3000000000002
20
2315.5
0
VERTEX
8
0
10
810.6999999999998
20
2315.5
0
SEQEND
0
POLYLINE
8
0
66
1
10
0.0
20
0.0
30
0.0
0
VERTEX
8
0
10
810.6999999999998
20
4253.3
0
VERTEX
8
0
10
810.6999999999998
20
4254.0
0
VERTEX
8
0
10
789.3000000000002
20
4254.0
0
VERTEX
8
0
10
789.3000000000002
20
4253.3
0
VERTEX
8
0
10
810.6999999999998
20
4253.3
0
SEQEND
0
POLYLINE
8
0
66
1
10
0.0
20
0.0
30
0.0
0
VERTEX
8
0
10
790.0
20
4254.0
0
VERTEX
8
0
10
790.0
20
4271.0
0
VERTEX
8
0
10
789.3000000000002
20
4271.0
0
VERTEX
8
0
10
789.3000000000002
20
4254.0
0
VERTEX
8
0
10
790.0
20
4254.0
0
SEQEND
0
POLYLINE
8
0
66
1
10
0.0
20
0.0
30
0.0
0
VERTEX
8
0
10
810.0
20
4254.0
0
VERTEX
8
0
10
810.0
20
4271.0
0
VERTEX
8
0
10
810.6999999999998
20
4271.0
0
VERTEX
8
0
10
810.6999999999998
20
4254.0
0
VERTEX
8
0
10
810.0
20
4254.0
0
SEQEND
0
POLYLINE
8
0
66
1
10
0.0
20
0.0
30
0.0
0
VERTEX
8
0
10
790.0
20
4271.0
0
VERTEX
8
0
10
790.0
20
4299.2
0
VERTEX
8
0
10
789.3000000000002
20
4299.2
0
VERTEX
8
0
10
789.3000000000002
20
4271.0
0
VERTEX
8
0
10
790.0
20
4271.0
0
SEQEND
0
POLYLINE
8
0
66
1
10
0.0
20
0.0
30
0.0
0
VERTEX
8
0
10
810.0
20
4271.0
0
VERTEX
8
0
10
810.0
20
4299.2
0
VERTEX
8
0
10
810.6999999999998
20
4299.2
0
VERTEX
8
0
10
810.6999999999998
20
4271.0
0
VERTEX
8
0
10
810.0
20
4271.0
0
SEQEND
0
POLYLINE
8
0
66
1
10
0.0
20
0.0
30
0.0
0
VERTEX
8
0
10
790.0
20
4299.2
0
VERTEX
8
0
10
790.0
20
4316.2
0
VERTEX
8
0
10
789.3000000000002
20
4316.2
0
VERTEX
8
0
10
789.3000000000002
20
4299.2
0
VERTEX
8
0
10
790.0
20
4299.2
0
SEQEND
0
POLYLINE
8
0
66
1
10
0.0
20
0.0
30
0.0
0
VERTEX
8
0
10
810.0
20
4299.2
0
VERTEX
8
0
10
810.0
20
4316.2
0
VERTEX
8
0
10
810.6999999999998
20
4316.2
0
VERTEX
8
0
10
810.6999999999998
20
4299.2
0
VERTEX
8
0
10
810.0
20
4299.2
0
SEQEND
0
POLYLINE
8
0
66
1
10
0.0
20
0.0
30
0.0
0
VERTEX
8
0
10
810.6999999999998
20
4316.2
0
VERTEX
8
0
10
810.6999999999998
20
4316.9
0
VERTEX
8
0
10
789.3000000000002
20
4316.9
0
VERTEX
8
0
10
789.3000000000002
20
4316.2
0
VERTEX
8
0
10
810.6999999999998
20
4316.2
0
SEQEND
0
POLYLINE
8
0
66
1
10
0.0
20
0.0
30
0.0
0
VERTEX
8
0
10
810.6999999999998
20
6253.3
0
VERTEX
8
0
10
810.6999999999998
20
6254.0
0
VERTEX
8
0
10
789.3000000000002
20
6254.0
0
VERTEX
8
0
10
789.3000000000002
20
6253.3
0
VERTEX
8
0
10
810.6999999999998
20
6253.3
0
SEQEND
0
POLYLINE
8
0
66
1
10
0.0
20
0.0
30
0.0
0
VERTEX
8
0
10
790.0
20
6254.0
0
VERTEX
8
0
10
790.0
20
6271.0
0
VERTEX
8
0
10
789.3000000000002
20
6271.0
0
VERTEX
8
0
10
789.3000000000002
20
6254.0
0
VERTEX
8
0
10
790.0
20
6254.0
0
SEQEND
0
POLYLINE
8
0
66
1
10
0.0
20
0.0
30
0.0
0
VERTEX
8
0
10
810.0
20
6254.0
0
VERTEX
8
0
10
810.0
20
6271.0
0
VERTEX
8
0
10
810.6999999999998
20
6271.0
0
VERTEX
8
0
10
810.6999999999998
20
6254.0
0
VERTEX
8
0
10
810.0
20
6254.0
0
SEQEND
0
POLYLINE
8
0
66
1
10
0.0
20
0.0
30
0.0
0
VERTEX
8
0
10
790.0
20
6271.0
0
VERTEX
8
0
10
799.0
20
6276.0
0
VERTEX
8
0
10
798.3000000000002
20
6276.0
0
VERTEX
8
0
10
789.3000000000002
20
6271.0
0
VERTEX
8
0
10
790.0
20
6271.0
0
SEQEND
0
POLYLINE
8
0
66
1
10
0.0
20
0.0
30
0.0
0
VERTEX
8
0
10
810.0
20
6271.0
0
VERTEX
8
0
10
801.0
20
6276.0
0
VERTEX
8
0
10
801.6999999999998
20
6276.0
0
VERTEX
8
0
10
810.6999999999998
20
6271.0
0
VERTEX
8
0
10
810.0
20
6271.0
0
SEQEND
0
POLYLINE
8
0
66
1
10
0.0
20
0.0
30
0.0
0
VERTEX
8
0
10
799.0
20
6276.0
0
VERTEX
8
0
10
799.0
20
6277.0
0
VERTEX
8
0
10
798.3000000000002
20
6277.0
0
VERTEX
8
0
10
798.3000000000002
20
6276.0
0
VERTEX
8
0
10
799.0
20
6276.0
0
SEQEND
0
POLYLINE
8
0
66
1
10
0.0
20
0.0
30
0.0
0
VERTEX
8
0
10
801.0
20
6276.0
0
VERTEX
8
0
10
801.0
20
6277.0
0
VERTEX
8
0
10
801.6999999999998
20
6277.0
0
VERTEX
8
0
10
801.6999999999998
20
6276.0
0
VERTEX
8
0
10
801.0
20
6276.0
0
SEQEND
0
POLYLINE
8
0
66
1
10
0.0
20
0.0
30
0.0
0
VERTEX
8
0
10
799.0
20
6277.0
0
VERTEX
8
0
10
799.0
20
6278.5
0
VERTEX
8
0
10
798.8000000000002
20
6278.5
0
VERTEX
8
0
10
798.8000000000002
20
6277.0
0
VERTEX
8
0
10
799.0
20
6277.0
0
SEQEND
0
POLYLINE
8
0
66
1
10
0.0
20
0.0
30
0.0
0
VERTEX
8
0
10
801.0
20
6277.0
0
VERTEX
8
0
10
801.0
20
6278.5
0
VERTEX
8
0
10
801.1999999999998
20
6278.5
0
VERTEX
8
0
10
801.1999999999998
20
6277.0
0
VERTEX
8
0
10
801.0
20
6277.0
0
SEQEND
0
POLYLINE
8
0
66
1
10
0.0
20
0.0
30
0.0
0
VERTEX
8
0
10
799.0
20
6278.5
0
VERTEX
8
0
10
799.5749999999998
20
6283.5
0
VERTEX
8
0
10
799.375
20
6283.5
0
VERTEX
8
0
10
798.8000000000002
20
6278.5
0
VERTEX
8
0
10
799.0
20
6278.5
0
SEQEND
0
POLYLINE
8
0
66
1
10
0.0
20
0.0
30
0.0
0
VERTEX
8
0
10
801.0
20
6278.5
0
VERTEX
8
0
10
800.4250000000002
20
6283.5
0
VERTEX
8
0
10
800.625
20
6283.5
0
VERTEX
8
0
10
801.1999999999998
20
6278.5
0
VERTEX
8
0
10
801.0
20
6278.5
0
SEQEND
0
POLYLINE
8
0
66
1
10
0.0
20
0.0
30
0.0
0
VERTEX
8
0
10
799.5749999999998
20
6283.5
0
VERTEX
8
0
10
799.5749999999998
20
6286.0
0
VERTEX
8
0
10
799.375
20
6286.0
0
VERTEX
8
0
10
799.375
20
6283.5
0
VERTEX
8
0
10
799.5749999999998
20
6283.5
0
SEQEND
0
POLYLINE
8
0
66
1
10
0.0
20
0.0
30
0.0
0
VERTEX
8
0
10
800.4250000000002
20
6283.5
0
VERTEX
8
0
10
800.4250000000002
20
6286.0
0
VERTEX
8
0
10
800.625
20
6286.0
0
VERTEX
8
0
10
800.625
20
6283.5
0
VERTEX
8
0
10
800.4250000000002
20
6283.5
0
SEQEND
0
POLYLINE
8
0
66
1
10
0.0
20
0.0
30
0.0
0
VERTEX
8
0
10
801.1999999999998
20
6286.0
0
VERTEX
8
0
10
801.1999999999998
20
6286.2
0
VERTEX
8
0
10
798.8000000000002
20
6286.2
0
VERTEX
8
0
10
798.8000000000002
20
6286.0
0
VERTEX
8
0
10
801.1999999999998
20
6286.0
0
SEQEND
0
POLYLINE
8
0
66
1
10
0.0
20
0.0
30
0.0
0
VERTEX
8
0
10
799.0
20
6286.2
0
VERTEX
8
0
10
799.0
20
6293.2
0
VERTEX
8
0
10
798.8000000000002
20
6293.2
0
VERTEX
8
0
10
798.8000000000002
20
6286.2
0
VERTEX
8
0
10
799.0
20
6286.2
0
SEQEND
0
POLYLINE
8
0
66
1
10
0.0
20
0.0
30
0.0
0
VERTEX
8
0
10
801.0
20
6286.2
0
VERTEX
8
0
10
801.0
20
6293.2
0
VERTEX
8
0
10
801.1999999999998
20
6293.2
0
VERTEX
8
0
10
801.1999999999998
20
6286.2
0
VERTEX
8
0
10
801.0
20
6286.2
0
SEQEND
0
POLYLINE
8
0
66
1
10
0.0
20
0.0
30
0.0
0
VERTEX
8
0
10
799.0
20
6293.2
0
VERTEX
8
0
10
799.0
20
6294.2
0
VERTEX
8
0
10
798.3000000000002
20
6294.2
0
VERTEX
8
0
10
798.3000000000002
20
6293.2
0
VERTEX
8
0
10
799.0
20
6293.2
0
SEQEND
0
POLYLINE
8
0
66
1
10
0.0
20
0.0
30
0.0
0
VERTEX
8
0
10
801.0
20
6293.2
0
VERTEX
8
0
10
801.0
20
6294.2
0
VERTEX
8
0
10
801.6999999999998
20
6294.2
0
VERTEX
8
0
10
801.6999999999998
20
6293.2
0
VERTEX
8
0
10
801.0
20
6293.2
0
SEQEND
0
POLYLINE
8
0
66
1
10
0.0
20
0.0
30
0.0
0
VERTEX
8
0
10
799.0
20
6294.2
0
VERTEX
8
0
10
790.0
20
6299.2
0
VERTEX
8
0
10
789.3000000000002
20
6299.2
0
VERTEX
8
0
10
798.3000000000002
20
6294.2
0
VERTEX
8
0
10
799.0
20
6294.2
0
SEQEND
0
POLYLINE
8
0
66
1
10
0.0
20
0.0
30
0.0
0
VERTEX
8
0
10
801.0
20
6294.2
0
VERTEX
8
0
10
810.0
20
6299.2
0
VERTEX
8
0
10
810.6999999999998
20
6299.2
0
VERTEX
8
0
10
801.6999999999998
20
6294.2
0
VERTEX
8
0
10
801.0
20
6294.2
0
SEQEND
0
POLYLINE
8
0
66
1
10
0.0
20
0.0
30
0.0
0
VERTEX
8
0
10
790.0
20
6299.2
0
VERTEX
8
0
10
790.0
20
6316.2
0
VERTEX
8
0
10
789.3000000000002
20
6316.2
0
VERTEX
8
0
10
789.3000000000002
20
6299.2
0
VERTEX
8
0
10
790.0
20
6299.2
0
SEQEND
0
POLYLINE
8
0
66
1
10
0.0
20
0.0
30
0.0
0
VERTEX
8
0
10
810.0
20
6299.2
0
VERTEX
8
0
10
810.0
20
6316.2
0
VERTEX
8
0
10
810.6999999999998
20
6316.2
0
VERTEX
8
0
10
810.6999999999998
20
6299.2
0
VERTEX
8
0
10
810.0
20
6299.2
0
SEQEND
0
POLYLINE
8
0
66
1
10
0.0
20
0.0
30
0.0
0
VERTEX
8
0
10
810.6999999999998
20
6316.2
0
VERTEX
8
0
10
810.6999999999998
20
6316.9
0
VERTEX
8
0
10
789.3000000000002
20
6316.9
0
VERTEX
8
0
10
789.3000000000002
20
6316.2
0
VERTEX
8
0
10
810.6999999999998
20
6316.2
0
SEQEND
0
POLYLINE
8
0
66
1
10
0.0
20
0.0
30
0.0
0
VERTEX
8
0
10
810.7000000000007
20
8253.3
0
VERTEX
8
0
10
810.7000000000007
20
8254.0
0
VERTEX
8
0
10
789.2999999999993
20
8254.0
0
VERTEX
8
0
10
789.2999999999993
20
8253.3
0
VERTEX
8
0
10
810.7000000000007
20
8253.3
0
SEQEND
0
POLYLINE
8
0
66
1
10
0.0
20
0.0
30
0.0
0
VERTEX
8
0
10
790.0
20
8254.0
0
VERTEX
8
0
10
790.0
20
8271.0
0
VERTEX
8
0
10
789.2999999999993
20
8271.0
0
VERTEX
8
0
10
789.2999999999993
20
8254.0
0
VERTEX
8
0
10
790.0
20
8254.0
0
SEQEND
0
POLYLINE
8
0
66
1
10
0.0
20
0.0
30
0.0
0
VERTEX
8
0
10
810.0
20
8254.0
0
VERTEX
8
0
10
810.0
20
8271.0
0
VERTEX
8
0
10
810.7000000000007
20
8271.0
0
VERTEX
8
0
10
810.7000000000007
20
8254.0
0
VERTEX
8
0
10
810.0
20
8254.0
0
SEQEND
0
POLYLINE
8
0
66
1
10
0.0
20
0.0
30
0.0
0
VERTEX
8
0
10
790.0
20
8271.0
0
VERTEX
8
0
10
799.0
20
8276.0
0
VERTEX
8
0
10
798.2999999999993
20
8276.0
0
VERTEX
8
0
10
789.2999999999993
20
8271.0
0
VERTEX
8
0
10
790.0
20
8271.0
0
SEQEND
0
POLYLINE
8
0
66
1
10
0.0
20
0.0
30
0.0
0
VERTEX
8
0
10
810.0
20
8271.0
0
VERTEX
8
0
10
801.0
20
8276.0
0
VERTEX
8
0
10
801.7000000000007
20
8276.0
0
VERTEX
8
0
10
810.7000000000007
20
8271.0
0
VERTEX
8
0
10
810.0
20
8271.0
0
SEQEND
0
POLYLINE
8
0
66
1
10
0.0
20
0.0
30
0.0
0
VERTEX
8
0
10
799.0
20
8276.0
0
VERTEX
8
0
10
799.0
20
8277.0
0
VERTEX
8
0
10
798.2999999999993
20
8277.0
0
VERTEX
8
0
10
798.2999999999993
20
8276.0
0
VERTEX
8
0
10
799.0
20
8276.0
0
SEQEND
0
POLYLINE
8
0
66
1
10
0.0
20
0.0
30
0.0
0
VERTEX
8
0
10
801.0
20
8276.0
0
VERTEX
8
0
10
801.0
20
8277.0
0
VERTEX
8
0
10
801.7000000000007
20
8277.0
0
VERTEX
8
0
10
801.7000000000007
20
8276.0
0
VERTEX
8
0
10
801.0
20
8276.0
0
SEQEND
0
POLYLINE
8
0
66
1
10
0.0
20
0.0
30
0.0
0
VERTEX
8
0
10
799.0
20
8277.0
0
VERTEX
8
0
10
799.0
20
8278.5
0
VERTEX
8
0
10
798.7999999999993
20
8278.5
0
VERTEX
8
0
10
798.7999999999993
20
8277.0
0
VERTEX
8
0
10
799.0
20
8277.0
0
SEQEND
0
POLYLINE
8
0
66
1
10
0.0
20
0.0
30
0.0
0
VERTEX
8
0
10
801.0
20
8277.0
0
VERTEX
8
0
10
801.0
20
8278.5
0
VERTEX
8
0
10
801.2000000000007
20
8278.5
0
VERTEX
8
0
10
801.2000000000007
20
8277.0
0
VERTEX
8
0
10
801.0
20
8277.0
0
SEQEND
0
POLYLINE
8
0
66
1
10
0.0
20
0.0
30
0.0
0
VERTEX
8
0
10
799.0
20
8278.5
0
VERTEX
8
0
10
799.5750000000007
20
8283.5
0
VERTEX
8
0
10
799.375
20
8283.5
0
VERTEX
8
0
10
798.7999999999993
20
8278.5
0
VERTEX
8
0
10
799.0
20
8278.5
0
SEQEND
0
POLYLINE
8
0
66
1
10
0.0
20
0.0
30
0.0
0
VERTEX
8
0
10
801.0
20
8278.5
0
VERTEX
8
0
10
800.4249999999993
20
8283.5
0
VERTEX
8
0
10
800.625
20
8283.5
0
VERTEX
8
0
10
801.2000000000007
20
8278.5
0
VERTEX
8
0
10
801.0
20
8278.5
0
SEQEND
0
POLYLINE
8
0
66
1
10
0.0
20
0.0
30
0.0
0
VERTEX
8
0
10
799.5750000000007
20
8283.5
0
VERTEX
8
0
10
799.5750000000007
20
8286.0
0
VERTEX
8
0
10
799.375
20
8286.0
0
VERTEX
8
0
10
799.375
20
8283.5
0
VERTEX
8
0
10
799.5750000000007
20
8283.5
0
SEQEND
0
POLYLINE
8
0
66
1
10
0.0
20
0.0
30
0.0
0
VERTEX
8
0
10
800.4249999999993
20
8283.5
0
VERTEX
8
0
10
800.4249999999993
20
8286.0
0
VERTEX
8
0
10
800.625
20
8286.0
0
VERTEX
8
0
10
800.625
20
8283.5
0
VERTEX
8
0
10
800.4249999999993
20
8283.5
0
SEQEND
0
POLYLINE
8
0
66
1
10
0.0
20
0.0
30
0.0
0
VERTEX
8
0
10
801.2000000000007
20
8286.0
0
VERTEX
8
0
10
801.2000000000007
20
8286.2
0
VERTEX
8
0
10
798.7999999999993
20
8286.2
0
VERTEX
8
0
10
798.7999999999993
20
8286.0
0
VERTEX
8
0
10
801.2000000000007
20
8286.0
0
SEQEND
0
POLYLINE
8
0
66
1
10
0.0
20
0.0
30
0.0
0
VERTEX
8
0
10
799.0
20
8286.2
0
VERTEX
8
0
10
799.0
20
8293.2
0
VERTEX
8
0
10
798.7999999999993
20
8293.2
0
VERTEX
8
0
10
798.7999999999993
20
8286.2
0
VERTEX
8
0
10
799.0
20
8286.2
0
SEQEND
0
POLYLINE
8
0
66
1
10
0.0
20
0.0
30
0.0
0
VERTEX
8
0
10
801.0
20
8286.2
0
VERTEX
8
0
10
801.0
20
8293.2
0
VERTEX
8
0
10
801.2000000000007
20
8293.2
0
VERTEX
8
0
10
801.2000000000007
20
8286.2
0
VERTEX
8
0
10
801.0
20
8286.2
0
SEQEND
0
POLYLINE
8
0
66
1
10
0.0
20
0.0
30
0.0
0
VERTEX
8
0
10
799.0
20
8293.2
0
VERTEX
8
0
10
799.0
20
8294.2
0
VERTEX
8
0
10
798.2999999999993
20
8294.2
0
VERTEX
8
0
10
798.2999999999993
20
8293.2
0
VERTEX
8
0
10
799.0
20
8293.2
0
SEQEND
0
POLYLINE
8
0
66
1
10
0.0
20
0.0
30
0.0
0
VERTEX
8
0
10
801.0
20
8293.2
0
VERTEX
8
0
10
801.0
20
8294.2
0
VERTEX
8
0
10
801.7000000000007
20
8294.2
0
VERTEX
8
0
10
801.7000000000007
20
8293.2
0
VERTEX
8
0
10
801.0
20
8293.2
0
SEQEND
0
POLYLINE
8
0
66
1
10
0.0
20
0.0
30
0.0
0
VERTEX
8
0
10
799.0
20
8294.2
0
VERTEX
8
0
10
790.0
20
8299.2
0
VERTEX
8
0
10
789.2999999999993
20
8299.2
0
VERTEX
8
0
10
798.2999999999993
20
8294.2
0
VERTEX
8
0
10
799.0
20
8294.2
0
SEQEND
0
POLYLINE
8
0
66
1
10
0.0
20
0.0
30
0.0
0
VERTEX
8
0
10
801.0
20
8294.2
0
VERTEX
8
0
10
810.0
20
8299.2
0
VERTEX
8
0
10
810.7000000000007
20
8299.2
0
VERTEX
8
0
10
801.7000000000007
20
8294.2
0
VERTEX
8
0
10
801.0
20
8294.2
0
SEQEND
0
POLYLINE
8
0
66
1
10
0.0
20
0.0
30
0.0
0
VERTEX
8
0
10
790.0
20
8299.2
0
VERTEX
8
0
10
790.0
20
8316.2
0
VERTEX
8
0
10
789.2999999999993
20
8316.2
0
VERTEX
8
0
10
789.2999999999993
20
8299.2
0
VERTEX
8
0
10
790.0
20
8299.2
0
SEQEND
0
POLYLINE
8
0
66
1
10
0.0
20
0.0
30
0.0
0
VERTEX
8
0
10
810.0
20
8299.2
0
VERTEX
8
0
10
810.0
20
8316.2
0
VERTEX
8
0
10
810.7000000000007
20
8316.2
0
VERTEX
8
0
10
810.7000000000007
20
8299.2
0
VERTEX
8
0
10
810.0
20
8299.2
0
SEQEND
0
POLYLINE
8
0
66
1
10
0.0
20
0.0
30
0.0
0
VERTEX
8
0
10
810.7000000000007
20
8316.2
0
VERTEX
8
0
10
810.7000000000007
20
8316.900000000001
0
VERTEX
8
0
10
789.2999999999993
20
8316.900000000001
0
VERTEX
8
0
10
789.2999999999993
20
8316.2
0
VERTEX
8
0
10
810.7000000000007
20
8316.2
0
SEQEND
0
ENDBLK
0
BLOCK
8
PIN
2
Q22PIN
70
0
10
0
20
0
30
0
3
Q22PIN
0
POLYLINE
8
0
66
1
10
0.0
20
0.0
30
0.0
0
VERTEX
8
0
10
810.0
20
21114.0
0
VERTEX
8
0
10
810.0
20
21131.0
0
VERTEX
8
0
10
790.0
20
21131.0
0
VERTEX
8
0
10
790.0
20
21114.0
0
VERTEX
8
0
10
810.0
20
21114.0
0
SEQEND
0
POLYLINE
8
0
66
1
10
0.0
20
0.0
30
0.0
0
VERTEX
8
0
10
800.0
20
21131.0
0
VERTEX
8
0
10
800.0
20
21136.0
0
VERTEX
8
0
10
799.0
20
21136.0
0
VERTEX
8
0
10
790.0
20
21131.0
0
VERTEX
8
0
10
800.0
20
21131.0
0
SEQEND
0
POLYLINE
8
0
66
1
10
0.0
20
0.0
30
0.0
0
VERTEX
8
0
10
800.0
20
21131.0
0
VERTEX
8
0
10
800.0
20
21136.0
0
VERTEX
8
0
10
801.0
20
21136.0
0
VERTEX
8
0
10
810.0
20
21131.0
0
VERTEX
8
0
10
800.0
20
21131.0
0
SEQEND
0
POLYLINE
8
0
66
1
10
0.0
20
0.0
30
0.0
0
VERTEX
8
0
10
801.0
20
21136.0
0
VERTEX
8
0
10
801.0
20
21138.5
0
VERTEX
8
0
10
799.0
20
21138.5
0
VERTEX
8
0
10
799.0
20
21136.0
0
VERTEX
8
0
10
801.0
20
21136.0
0
SEQEND
0
POLYLINE
8
0
66
1
10
0.0
20
0.0
30
0.0
0
VERTEX
8
0
10
800.0
20
21138.5
0
VERTEX
8
0
10
800.0
20
21143.5
0
VERTEX
8
0
10
799.5750000000007
20
21143.5
0
VERTEX
8
0
10
799.0
20
21138.5
0
VERTEX
8
0
10
800.0
20
21138.5
0
SEQEND
0
POLYLINE
8
0
66
1
10
0.0
20
0.0
30
0.0
0
VERTEX
8
0
10
800.0
20
21138.5
0
VERTEX
8
0
10
800.0
20
21143.5
0
VERTEX
8
0
10
800.4249999999993
20
21143.5
0
VERTEX
8
0
10
801.0
20
21138.5
0
VERTEX
8
0
10
800.0
20
21138.5
0
SEQEND
0
POLYLINE
8
0
66
1
10
0.0
20
0.0
30
0.0
0
VERTEX
8
0
10
800.4249999999993
20
21143.5
0
VERTEX
8
0
10
800.4249999999993
20
21146.0
0
VERTEX
8
0
10
799.5750000000007
20
21146.0
0
VERTEX
8
0
10
799.5750000000007
20
21143.5
0
VERTEX
8
0
10
800.4249999999993
20
21143.5
0
SEQEND
0
POLYLINE
8
0
66
1
10
0.0
20
0.0
30
0.0
0
VERTEX
8
0
10
801.0
20
21146.2
0
VERTEX
8
0
10
801.0
20
21154.2
0
VERTEX
8
0
10
799.0
20
21154.2
0
VERTEX
8
0
10
799.0
20
21146.2
0
VERTEX
8
0
10
801.0
20
21146.2
0
SEQEND
0
POLYLINE
8
0
66
1
10
0.0
20
0.0
30
0.0
0
VERTEX
8
0
10
800.0
20
21154.2
0
VERTEX
8
0
10
800.0
20
21159.2
0
VERTEX
8
0
10
790.0
20
21159.2
0
VERTEX
8
0
10
799.0
20
21154.2
0
VERTEX
8
0
10
800.0
20
21154.2
0
SEQEND
0
POLYLINE
8
0
66
1
10
0.0
20
0.0
30
0.0
0
VERTEX
8
0
10
800.0
20
21154.2
0
VERTEX
8
0
10
800.0
20
21159.2
0
VERTEX
8
0
10
810.0
20
21159.2
0
VERTEX
8
0
10
801.0
20
21154.2
0
VERTEX
8
0
10
800.0
20
21154.2
0
SEQEND
0
POLYLINE
8
0
66
1
10
0.0
20
0.0
30
0.0
0
VERTEX
8
0
10
810.0
20
21159.2
0
VERTEX
8
0
10
810.0
20
21176.2
0
VERTEX
8
0
10
790.0
20
21176.2
0
VERTEX
8
0
10
790.0
20
21159.2
0
VERTEX
8
0
10
810.0
20
21159.2
0
SEQEND
0
POLYLINE
8
0
66
1
10
0.0
20
0.0
30
0.0
0
VERTEX
8
0
10
810.0
20
2254.0
0
VERTEX
8
0
10
810.0
20
2271.0
0
VERTEX
8
0
10
790.0
20
2271.0
0
VERTEX
8
0
10
790.0
20
2254.0
0
VERTEX
8
0
10
810.0
20
2254.0
0
SEQEND
0
POLYLINE
8
0
66
1
10
0.0
20
0.0
30
0.0
0
VERTEX
8
0
10
810.0
20
2299.2
0
VERTEX
8
0
10
810.0
20
2316.2
0
VERTEX
8
0
10
790.0
20
2316.2
0
VERTEX
8
0
10
790.0
20
2299.2
0
VERTEX
8
0
10
810.0
20
2299.2
0
SEQEND
0
POLYLINE
8
0
66
1
10
0.0
20
0.0
30
0.0
0
VERTEX
8
0
10
810.0
20
4254.0
0
VERTEX
8
0
10
810.0
20
4271.0
0
VERTEX
8
0
10
790.0
20
4271.0
0
VERTEX
8
0
10
790.0
20
4254.0
0
VERTEX
8
0
10
810.0
20
4254.0
0
SEQEND
0
POLYLINE
8
0
66
1
10
0.0
20
0.0
30
0.0
0
VERTEX
8
0
10
810.0
20
4271.0
0
VERTEX
8
0
10
810.0
20
4299.2
0
VERTEX
8
0
10
790.0
20
4299.2
0
VERTEX
8
0
10
790.0
20
4271.0
0
VERTEX
8
0
10
810.0
20
4271.0
0
SEQEND
0
POLYLINE
8
0
66
1
10
0.0
20
0.0
30
0.0
0
VERTEX
8
0
10
810.0
20
4299.2
0
VERTEX
8
0
10
810.0
20
4316.2
0
VERTEX
8
0
10
790.0
20
4316.2
0
VERTEX
8
0
10
790.0
20
4299.2
0
VERTEX
8
0
10
810.0
20
4299.2
0
SEQEND
0
POLYLINE
8
0
66
1
10
0.0
20
0.0
30
0.0
0
VERTEX
8
0
10
810.0
20
6254.0
0
VERTEX
8
0
10
810.0
20
6271.0
0
VERTEX
8
0
10
790.0
20
6271.0
0
VERTEX
8
0
10
790.0
20
6254.0
0
VERTEX
8
0
10
810.0
20
6254.0
0
SEQEND
0
POLYLINE
8
0
66
1
10
0.0
20
0.0
30
0.0
0
VERTEX
8
0
10
800.0
20
6271.0
0
VERTEX
8
0
10
800.0
20
6276.0
0
VERTEX
8
0
10
799.0
20
6276.0
0
VERTEX
8
0
10
790.0
20
6271.0
0
VERTEX
8
0
10
800.0
20
6271.0
0
SEQEND
0
POLYLINE
8
0
66
1
10
0.0
20
0.0
30
0.0
0
VERTEX
8
0
10
800.0
20
6271.0
0
VERTEX
8
0
10
800.0
20
6276.0
0
VERTEX
8
0
10
801.0
20
6276.0
0
VERTEX
8
0
10
810.0
20
6271.0
0
VERTEX
8
0
10
800.0
20
6271.0
0
SEQEND
0
POLYLINE
8
0
66
1
10
0.0
20
0.0
30
0.0
0
VERTEX
8
0
10
801.0
20
6276.0
0
VERTEX
8
0
10
801.0
20
6278.5
0
VERTEX
8
0
10
799.0
20
6278.5
0
VERTEX
8
0
10
799.0
20
6276.0
0
VERTEX
8
0
10
801.0
20
6276.0
0
SEQEND
0
POLYLINE
8
0
66
1
10
0.0
20
0.0
30
0.0
0
VERTEX
8
0
10
800.0
20
6278.5
0
VERTEX
8
0
10
800.0
20
6283.5
0
VERTEX
8
0
10
799.5749999999998
20
6283.5
0
VERTEX
8
0
10
799.0
20
6278.5
0
VERTEX
8
0
10
800.0
20
6278.5
0
SEQEND
0
POLYLINE
8
0
66
1
10
0.0
20
0.0
30
0.0
0
VERTEX
8
0
10
800.0
20
6278.5
0
VERTEX
8
0
10
800.0
20
6283.5
0
VERTEX
8
0
10
800.4250000000002
20
6283.5
0
VERTEX
8
0
10
801.0
20
6278.5
0
VERTEX
8
0
10
800.0
20
6278.5
0
SEQEND
0
POLYLINE
8
0
66
1
10
0.0
20
0.0
30
0.0
0
VERTEX
8
0
10
800.4250000000002
20
6283.5
0
VERTEX
8
0
10
800.4250000000002
20
6286.0
0
VERTEX
8
0
10
799.5749999999998
20
6286.0
0
VERTEX
8
0
10
799.5749999999998
20
6283.5
0
VERTEX
8
0
10
800.4250000000002
20
6283.5
0
SEQEND
0
POLYLINE
8
0
66
1
10
0.0
20
0.0
30
0.0
0
VERTEX
8
0
10
801.0
20
6286.2
0
VERTEX
8
0
10
801.0
20
6294.2
0
VERTEX
8
0
10
799.0
20
6294.2
0
VERTEX
8
0
10
799.0
20
6286.2
0
VERTEX
8
0
10
801.0
20
6286.2
0
SEQEND
0
POLYLINE
8
0
66
1
10
0.0
20
0.0
30
0.0
0
VERTEX
8
0
10
800.0
20
6294.2
0
VERTEX
8
0
10
800.0
20
6299.2
0
VERTEX
8
0
10
790.0
20
6299.2
0
VERTEX
8
0
10
799.0
20
6294.2
0
VERTEX
8
0
10
800.0
20
6294.2
0
SEQEND
0
POLYLINE
8
0
66
1
10
0.0
20
0.0
30
0.0
0
VERTEX
8
0
10
800.0
20
6294.2
0
VERTEX
8
0
10
800.0
20
6299.2
0
VERTEX
8
0
10
810.0
20
6299.2
0
VERTEX
8
0
10
801.0
20
6294.2
0
VERTEX
8
0
10
800.0
20
6294.2
0
SEQEND
0
POLYLINE
8
0
66
1
10
0.0
20
0.0
30
0.0
0
VERTEX
8
0
10
810.0
20
6299.2
0
VERTEX
8
0
10
810.0
20
6316.2
0
VERTEX
8
0
10
790.0
20
6316.2
0
VERTEX
8
0
10
790.0
20
6299.2
0
VERTEX
8
0
10
810.0
20
6299.2
0
SEQEND
0
POLYLINE
8
0
66
1
10
0.0
20
0.0
30
0.0
0
VERTEX
8
0
10
810.0
20
8254.0
0
VERTEX
8
0
10
810.0
20
8271.0
0
VERTEX
8
0
10
790.0
20
8271.0
0
VERTEX
8
0
10
790.0
20
8254.0
0
VERTEX
8
0
10
810.0
20
8254.0
0
SEQEND
0
POLYLINE
8
0
66
1
10
0.0
20
0.0
30
0.0
0
VERTEX
8
0
10
800.0
20
8271.0
0
VERTEX
8
0
10
800.0
20
8276.0
0
VERTEX
8
0
10
799.0
20
8276.0
0
VERTEX
8
0
10
790.0
20
8271.0
0
VERTEX
8
0
10
800.0
20
8271.0
0
SEQEND
0
POLYLINE
8
0
66
1
10
0.0
20
0.0
30
0.0
0
VERTEX
8
0
10
800.0
20
8271.0
0
VERTEX
8
0
10
800.0
20
8276.0
0
VERTEX
8
0
10
801.0
20
8276.0
0
VERTEX
8
0
10
810.0
20
8271.0
0
VERTEX
8
0
10
800.0
20
8271.0
0
SEQEND
0
POLYLINE
8
0
66
1
10
0.0
20
0.0
30
0.0
0
VERTEX
8
0
10
801.0
20
8276.0
0
VERTEX
8
0
10
801.0
20
8278.5
0
VERTEX
8
0
10
799.0
20
8278.5
0
VERTEX
8
0
10
799.0
20
8276.0
0
VERTEX
8
0
10
801.0
20
8276.0
0
SEQEND
0
POLYLINE
8
0
66
1
10
0.0
20
0.0
30
0.0
0
VERTEX
8
0
10
800.0
20
8278.5
0
VERTEX
8
0
10
800.0
20
8283.5
0
VERTEX
8
0
10
799.5750000000007
20
8283.5
0
VERTEX
8
0
10
799.0
20
8278.5
0
VERTEX
8
0
10
800.0
20
8278.5
0
SEQEND
0
POLYLINE
8
0
66
1
10
0.0
20
0.0
30
0.0
0
VERTEX
8
0
10
800.0
20
8278.5
0
VERTEX
8
0
10
800.0
20
8283.5
0
VERTEX
8
0
10
800.4249999999993
20
8283.5
0
VERTEX
8
0
10
801.0
20
8278.5
0
VERTEX
8
0
10
800.0
20
8278.5
0
SEQEND
0
POLYLINE
8
0
66
1
10
0.0
20
0.0
30
0.0
0
VERTEX
8
0
10
800.4249999999993
20
8283.5
0
VERTEX
8
0
10
800.4249999999993
20
8286.0
0
VERTEX
8
0
10
799.5750000000007
20
8286.0
0
VERTEX
8
0
10
799.5750000000007
20
8283.5
0
VERTEX
8
0
10
800.4249999999993
20
8283.5
0
SEQEND
0
POLYLINE
8
0
66
1
10
0.0
20
0.0
30
0.0
0
VERTEX
8
0
10
801.0
20
8286.2
0
VERTEX
8
0
10
801.0
20
8294.2
0
VERTEX
8
0
10
799.0
20
8294.2
0
VERTEX
8
0
10
799.0
20
8286.2
0
VERTEX
8
0
10
801.0
20
8286.2
0
SEQEND
0
POLYLINE
8
0
66
1
10
0.0
20
0.0
30
0.0
0
VERTEX
8
0
10
800.0
20
8294.2
0
VERTEX
8
0
10
800.0
20
8299.2
0
VERTEX
8
0
10
790.0
20
8299.2
0
VERTEX
8
0
10
799.0
20
8294.2
0
VERTEX
8
0
10
800.0
20
8294.2
0
SEQEND
0
POLYLINE
8
0
66
1
10
0.0
20
0.0
30
0.0
0
VERTEX
8
0
10
800.0
20
8294.2
0
VERTEX
8
0
10
800.0
20
8299.2
0
VERTEX
8
0
10
810.0
20
8299.2
0
VERTEX
8
0
10
801.0
20
8294.2
0
VERTEX
8
0
10
800.0
20
8294.2
0
SEQEND
0
POLYLINE
8
0
66
1
10
0.0
20
0.0
30
0.0
0
VERTEX
8
0
10
810.0
20
8299.2
0
VERTEX
8
0
10
810.0
20
8316.2
0
VERTEX
8
0
10
790.0
20
8316.2
0
VERTEX
8
0
10
790.0
20
8299.2
0
VERTEX
8
0
10
810.0
20
8299.2
0
SEQEND
0
ENDBLK
0
BLOCK
8
0
2
Q22
70
0
10
0
20
0
30
0
3
Q22
0
POLYLINE
8
GAP
66
1
10
0.0
20
0.0
30
0.0
0
VERTEX
8
GAP
10
23.636363636363654
20
26050.0
0
VERTEX
8
GAP
10
103.63636363636365
20
26050.0
0
VERTEX
8
GAP
10
103.63636363636365
20
26030.0
0
VERTEX
8
GAP
10
23.636363636363654
20
26030.0
0
VERTEX
8
GAP
10
23.636363636363654
20
26050.0
0
SEQEND
0
POLYLINE
8
GAP
66
1
10
0.0
20
0.0
30
0.0
0
VERTEX
8
GAP
10
23.636363636363654
20
-100.0
0
VERTEX
8
GAP
10
103.63636363636365
20
-100.0
0
VERTEX
8
GAP
10
103.63636363636365
20
-80.0
0
VERTEX
8
GAP
10
23.636363636363654
20
-80.0
0
VERTEX
8
GAP
10
23.636363636363654
20
-100.0
0
SEQEND
0
POLYLINE
8
GAP
66
1
10
0.0
20
0.0
30
0.0
0
VERTEX
8
GAP
10
-100.0
20
2237.2727272727275
0
VERTEX
8
GAP
10
-100.0
20
2317.2727272727275
0
VERTEX
8
GAP
10
-80.0
20
2317.2727272727275
0
VERTEX
8
GAP
10
-80.0
20
2237.2727272727275
0
VERTEX
8
GAP
10
-100.0
20
2237.2727272727275
0
SEQEND
0
POLYLINE
8
GAP
66
1
10
0.0
20
0.0
30
0.0
0
VERTEX
8
GAP
10
1700.0
20
2237.2727272727275
0
VERTEX
8
GAP
10
1700.0
20
2317.2727272727275
0
VERTEX
8
GAP
10
1680.0
20
2317.2727272727275
0
VERTEX
8
GAP
10
1680.0
20
2237.2727272727275
0
VERTEX
8
GAP
10
1700.0
20
2237.2727272727275
0
SEQEND
0
POLYLINE
8
GAP
66
1
10
0.0
20
0.0
30
0.0
0
VERTEX
8
GAP
10
187.2727272727273
20
26050.0
0
VERTEX
8
GAP
10
267.2727272727273
20
26050.0
0
VERTEX
8
GAP
10
267.2727272727273
20
26030.0
0
VERTEX
8
GAP
10
187.2727272727273
20
26030.0
0
VERTEX
8
GAP
10
187.2727272727273
20
26050.0
0
SEQEND
0
POLYLINE
8
GAP
66
1
10
0.0
20
0.0
30
0.0
0
VERTEX
8
GAP
10
187.2727272727273
20
-100.0
0
VERTEX
8
GAP
10
267.2727272727273
20
-100.0
0
VERTEX
8
GAP
10
267.2727272727273
20
-80.0
0
VERTEX
8
GAP
10
187.2727272727273
20
-80.0
0
VERTEX
8
GAP
10
187.2727272727273
20
-100.0
0
SEQEND
0
POLYLINE
8
GAP
66
1
10
0.0
20
0.0
30
0.0
0
VERTEX
8
GAP
10
-100.0
20
4614.545454545455
0
VERTEX
8
GAP
10
-100.0
20
4694.545454545455
0
VERTEX
8
GAP
10
-80.0
20
4694.545454545455
0
VERTEX
8
GAP
10
-80.0
20
4614.545454545455
0
VERTEX
8
GAP
10
-100.0
20
4614.545454545455
0
SEQEND
0
POLYLINE
8
GAP
66
1
10
0.0
20
0.0
30
0.0
0
VERTEX
8
GAP
10
1700.0
20
4614.545454545455
0
VERTEX
8
GAP
10
1700.0
20
4694.545454545455
0
VERTEX
8
GAP
10
1680.0
20
4694.545454545455
0
VERTEX
8
GAP
10
1680.0
20
4614.545454545455
0
VERTEX
8
GAP
10
1700.0
20
4614.545454545455
0
SEQEND
0
POLYLINE
8
GAP
66
1
10
0.0
20
0.0
30
0.0
0
VERTEX
8
GAP
10
350.9090909090909
20
26050.0
0
VERTEX
8
GAP
10
430.9090909090909
20
26050.0
0
VERTEX
8
GAP
10
430.9090909090909
20
26030.0
0
VERTEX
8
GAP
10
350.9090909090909
20
26030.0
0
VERTEX
8
GAP
10
350.9090909090909
20
26050.0
0
SEQEND
0
POLYLINE
8
GAP
66
1
10
0.0
20
0.0
30
0.0
0
VERTEX
8
GAP
10
350.9090909090909
20
-100.0
0
VERTEX
8
GAP
10
430.9090909090909
20
-100.0
0
VERTEX
8
GAP
10
430.9090909090909
20
-80.0
0
VERTEX
8
GAP
10
350.9090909090909
20
-80.0
0
VERTEX
8
GAP
10
350.9090909090909
20
-100.0
0
SEQEND
0
POLYLINE
8
GAP
66
1
10
0.0
20
0.0
30
0.0
0
VERTEX
8
GAP
10
-100.0
20
6991.818181818181
0
VERTEX
8
GAP
10
-100.0
20
7071.818181818181
0
VERTEX
8
GAP
10
-80.0
20
7071.818181818181
0
VERTEX
8
GAP
10
-80.0
20
6991.818181818181
0
VERTEX
8
GAP
10
-100.0
20
6991.818181818181
0
SEQEND
0
POLYLINE
8
GAP
66
1
10
0.0
20
0.0
30
0.0
0
VERTEX
8
GAP
10
1700.0
20
6991.818181818181
0
VERTEX
8
GAP
10
1700.0
20
7071.818181818181
0
VERTEX
8
GAP
10
1680.0
20
7071.818181818181
0
VERTEX
8
GAP
10
1680.0
20
6991.818181818181
0
VERTEX
8
GAP
10
1700.0
20
6991.818181818181
0
SEQEND
0
POLYLINE
8
GAP
66
1
10
0.0
20
0.0
30
0.0
0
VERTEX
8
GAP
10
514.5454545454546
20
26050.0
0
VERTEX
8
GAP
10
594.5454545454546
20
26050.0
0
VERTEX
8
GAP
10
594.5454545454546
20
26030.0
0
VERTEX
8
GAP
10
514.5454545454546
20
26030.0
0
VERTEX
8
GAP
10
514.5454545454546
20
26050.0
0
SEQEND
0
POLYLINE
8
GAP
66
1
10
0.0
20
0.0
30
0.0
0
VERTEX
8
GAP
10
514.5454545454546
20
-100.0
0
VERTEX
8
GAP
10
594.5454545454546
20
-100.0
0
VERTEX
8
GAP
10
594.5454545454546
20
-80.0
0
VERTEX
8
GAP
10
514.5454545454546
20
-80.0
0
VERTEX
8
GAP
10
514.5454545454546
20
-100.0
0
SEQEND
0
POLYLINE
8
GAP
66
1
10
0.0
20
0.0
30
0.0
0
VERTEX
8
GAP
10
-100.0
20
9369.09090909091
0
VERTEX
8
GAP
10
-100.0
20
9449.09090909091
0
VERTEX
8
GAP
10
-80.0
20
9449.09090909091
0
VERTEX
8
GAP
10
-80.0
20
9369.09090909091
0
VERTEX
8
GAP
10
-100.0
20
9369.09090909091
0
SEQEND
0
POLYLINE
8
GAP
66
1
10
0.0
20
0.0
30
0.0
0
VERTEX
8
GAP
10
1700.0
20
9369.09090909091
0
VERTEX
8
GAP
10
1700.0
20
9449.09090909091
0
VERTEX
8
GAP
10
1680.0
20
9449.09090909091
0
VERTEX
8
GAP
10
1680.0
20
9369.09090909091
0
VERTEX
8
GAP
10
1700.0
20
9369.09090909091
0
SEQEND
0
POLYLINE
8
GAP
66
1
10
0.0
20
0.0
30
0.0
0
VERTEX
8
GAP
10
678.1818181818181
20
26050.0
0
VERTEX
8
GAP
10
758.1818181818181
20
26050.0
0
VERTEX
8
GAP
10
758.1818181818181
20
26030.0
0
VERTEX
8
GAP
10
678.1818181818181
20
26030.0
0
VERTEX
8
GAP
10
678.1818181818181
20
26050.0
0
SEQEND
0
POLYLINE
8
GAP
66
1
10
0.0
20
0.0
30
0.0
0
VERTEX
8
GAP
10
678.1818181818181
20
-100.0
0
VERTEX
8
GAP
10
758.1818181818181
20
-100.0
0
VERTEX
8
GAP
10
758.1818181818181
20
-80.0
0
VERTEX
8
GAP
10
678.1818181818181
20
-80.0
0
VERTEX
8
GAP
10
678.1818181818181
20
-100.0
0
SEQEND
0
POLYLINE
8
GAP
66
1
10
0.0
20
0.0
30
0.0
0
VERTEX
8
GAP
10
-100.0
20
11746.363636363636
0
VERTEX
8
GAP
10
-100.0
20
11826.363636363636
0
VERTEX
8
GAP
10
-80.0
20
11826.363636363636
0
VERTEX
8
GAP
10
-80.0
20
11746.363636363636
0
VERTEX
8
GAP
10
-100.0
20
11746.363636363636
0
SEQEND
0
POLYLINE
8
GAP
66
1
10
0.0
20
0.0
30
0.0
0
VERTEX
8
GAP
10
1700.0
20
11746.363636363636
0
VERTEX
8
GAP
10
1700.0
20
11826.363636363636
0
VERTEX
8
GAP
10
1680.0
20
11826.363636363636
0
VERTEX
8
GAP
10
1680.0
20
11746.363636363636
0
VERTEX
8
GAP
10
1700.0
20
11746.363636363636
0
SEQEND
0
POLYLINE
8
GAP
66
1
10
0.0
20
0.0
30
0.0
0
VERTEX
8
GAP
10
841.8181818181818
20
26050.0
0
VERTEX
8
GAP
10
921.8181818181818
20
26050.0
0
VERTEX
8
GAP
10
921.8181818181818
20
26030.0
0
VERTEX
8
GAP
10
841.8181818181818
20
26030.0
0
VERTEX
8
GAP
10
841.8181818181818
20
26050.0
0
SEQEND
0
POLYLINE
8
GAP
66
1
10
0.0
20
0.0
30
0.0
0
VERTEX
8
GAP
10
841.8181818181818
20
-100.0
0
VERTEX
8
GAP
10
921.8181818181818
20
-100.0
0
VERTEX
8
GAP
10
921.8181818181818
20
-80.0
0
VERTEX
8
GAP
10
841.8181818181818
20
-80.0
0
VERTEX
8
GAP
10
841.8181818181818
20
-100.0
0
SEQEND
0
POLYLINE
8
GAP
66
1
10
0.0
20
0.0
30
0.0
0
VERTEX
8
GAP
10
-100.0
20
14123.636363636362
0
VERTEX
8
GAP
10
-100.0
20
14203.636363636362
0
VERTEX
8
GAP
10
-80.0
20
14203.636363636362
0
VERTEX
8
GAP
10
-80.0
20
14123.636363636362
0
VERTEX
8
GAP
10
-100.0
20
14123.636363636362
0
SEQEND
0
POLYLINE
8
GAP
66
1
10
0.0
20
0.0
30
0.0
0
VERTEX
8
GAP
10
1700.0
20
14123.636363636362
0
VERTEX
8
GAP
10
1700.0
20
14203.636363636362
0
VERTEX
8
GAP
10
1680.0
20
14203.636363636362
0
VERTEX
8
GAP
10
1680.0
20
14123.636363636362
0
VERTEX
8
GAP
10
1700.0
20
14123.636363636362
0
SEQEND
0
POLYLINE
8
GAP
66
1
10
0.0
20
0.0
30
0.0
0
VERTEX
8
GAP
10
1005.4545454545455
20
26050.0
0
VERTEX
8
GAP
10
1085.4545454545455
20
26050.0
0
VERTEX
8
GAP
10
1085.4545454545455
20
26030.0
0
VERTEX
8
GAP
10
1005.4545454545455
20
26030.0
0
VERTEX
8
GAP
10
1005.4545454545455
20
26050.0
0
SEQEND
0
POLYLINE
8
GAP
66
1
10
0.0
20
0.0
30
0.0
0
VERTEX
8
GAP
10
1005.4545454545455
20
-100.0
0
VERTEX
8
GAP
10
1085.4545454545455
20
-100.0
0
VERTEX
8
GAP
10
1085.4545454545455
20
-80.0
0
VERTEX
8
GAP
10
1005.4545454545455
20
-80.0
0
VERTEX
8
GAP
10
1005.4545454545455
20
-100.0
0
SEQEND
0
POLYLINE
8
GAP
66
1
10
0.0
20
0.0
30
0.0
0
VERTEX
8
GAP
10
-100.0
20
16500.909090909092
0
VERTEX
8
GAP
10
-100.0
20
16580.909090909092
0
VERTEX
8
GAP
10
-80.0
20
16580.909090909092
0
VERTEX
8
GAP
10
-80.0
20
16500.909090909092
0
VERTEX
8
GAP
10
-100.0
20
16500.909090909092
0
SEQEND
0
POLYLINE
8
GAP
66
1
10
0.0
20
0.0
30
0.0
0
VERTEX
8
GAP
10
1700.0
20
16500.909090909092
0
VERTEX
8
GAP
10
1700.0
20
16580.909090909092
0
VERTEX
8
GAP
10
1680.0
20
16580.909090909092
0
VERTEX
8
GAP
10
1680.0
20
16500.909090909092
0
VERTEX
8
GAP
10
1700.0
20
16500.909090909092
0
SEQEND
0
POLYLINE
8
GAP
66
1
10
0.0
20
0.0
30
0.0
0
VERTEX
8
GAP
10
1169.0909090909092
20
26050.0
0
VERTEX
8
GAP
10
1249.0909090909092
20
26050.0
0
VERTEX
8
GAP
10
1249.0909090909092
20
26030.0
0
VERTEX
8
GAP
10
1169.0909090909092
20
26030.0
0
VERTEX
8
GAP
10
1169.0909090909092
20
26050.0
0
SEQEND
0
POLYLINE
8
GAP
66
1
10
0.0
20
0.0
30
0.0
0
VERTEX
8
GAP
10
1169.0909090909092
20
-100.0
0
VERTEX
8
GAP
10
1249.0909090909092
20
-100.0
0
VERTEX
8
GAP
10
1249.0909090909092
20
-80.0
0
VERTEX
8
GAP
10
1169.0909090909092
20
-80.0
0
VERTEX
8
GAP
10
1169.0909090909092
20
-100.0
0
SEQEND
0
POLYLINE
8
GAP
66
1
10
0.0
20
0.0
30
0.0
0
VERTEX
8
GAP
10
-100.0
20
18878.18181818182
0
VERTEX
8
GAP
10
-100.0
20
18958.18181818182
0
VERTEX
8
GAP
10
-80.0
20
18958.18181818182
0
VERTEX
8
GAP
10
-80.0
20
18878.18181818182
0
VERTEX
8
GAP
10
-100.0
20
18878.18181818182
0
SEQEND
0
POLYLINE
8
GAP
66
1
10
0.0
20
0.0
30
0.0
0
VERTEX
8
GAP
10
1700.0
20
18878.18181818182
0
VERTEX
8
GAP
10
1700.0
20
18958.18181818182
0
VERTEX
8
GAP
10
1680.0
20
18958.18181818182
0
VERTEX
8
GAP
10
1680.0
20
18878.18181818182
0
VERTEX
8
GAP
10
1700.0
20
18878.18181818182
0
SEQEND
0
POLYLINE
8
GAP
66
1
10
0.0
20
0.0
30
0.0
0
VERTEX
8
GAP
10
1332.7272727272727
20
26050.0
0
VERTEX
8
GAP
10
1412.7272727272727
20
26050.0
0
VERTEX
8
GAP
10
1412.7272727272727
20
26030.0
0
VERTEX
8
GAP
10
1332.7272727272727
20
26030.0
0
VERTEX
8
GAP
10
1332.7272727272727
20
26050.0
0
SEQEND
0
POLYLINE
8
GAP
66
1
10
0.0
20
0.0
30
0.0
0
VERTEX
8
GAP
10
1332.7272727272727
20
-100.0
0
VERTEX
8
GAP
10
1412.7272727272727
20
-100.0
0
VERTEX
8
GAP
10
1412.7272727272727
20
-80.0
0
VERTEX
8
GAP
10
1332.7272727272727
20
-80.0
0
VERTEX
8
GAP
10
1332.7272727272727
20
-100.0
0
SEQEND
0
POLYLINE
8
GAP
66
1
10
0.0
20
0.0
30
0.0
0
VERTEX
8
GAP
10
-100.0
20
21255.454545454548
0
VERTEX
8
GAP
10
-100.0
20
21335.454545454548
0
VERTEX
8
GAP
10
-80.0
20
21335.454545454548
0
VERTEX
8
GAP
10
-80.0
20
21255.454545454548
0
VERTEX
8
GAP
10
-100.0
20
21255.454545454548
0
SEQEND
0
POLYLINE
8
GAP
66
1
10
0.0
20
0.0
30
0.0
0
VERTEX
8
GAP
10
1700.0
20
21255.454545454548
0
VERTEX
8
GAP
10
1700.0
20
21335.454545454548
0
VERTEX
8
GAP
10
1680.0
20
21335.454545454548
0
VERTEX
8
GAP
10
1680.0
20
21255.454545454548
0
VERTEX
8
GAP
10
1700.0
20
21255.454545454548
0
SEQEND
0
POLYLINE
8
GAP
66
1
10
0.0
20
0.0
30
0.0
0
VERTEX
8
GAP
10
1496.3636363636363
20
26050.0
0
VERTEX
8
GAP
10
1576.3636363636363
20
26050.0
0
VERTEX
8
GAP
10
1576.3636363636363
20
26030.0
0
VERTEX
8
GAP
10
1496.3636363636363
20
26030.0
0
VERTEX
8
GAP
10
1496.3636363636363
20
26050.0
0
SEQEND
0
POLYLINE
8
GAP
66
1
10
0.0
20
0.0
30
0.0
0
VERTEX
8
GAP
10
1496.3636363636363
20
-100.0
0
VERTEX
8
GAP
10
1576.3636363636363
20
-100.0
0
VERTEX
8
GAP
10
1576.3636363636363
20
-80.0
0
VERTEX
8
GAP
10
1496.3636363636363
20
-80.0
0
VERTEX
8
GAP
10
1496.3636363636363
20
-100.0
0
SEQEND
0
POLYLINE
8
GAP
66
1
10
0.0
20
0.0
30
0.0
0
VERTEX
8
GAP
10
-100.0
20
23632.727272727272
0
VERTEX
8
GAP
10
-100.0
20
23712.727272727272
0
VERTEX
8
GAP
10
-80.0
20
23712.727272727272
0
VERTEX
8
GAP
10
-80.0
20
23632.727272727272
0
VERTEX
8
GAP
10
-100.0
20
23632.727272727272
0
SEQEND
0
POLYLINE
8
GAP
66
1
10
0.0
20
0.0
30
0.0
0
VERTEX
8
GAP
10
1700.0
20
23632.727272727272
0
VERTEX
8
GAP
10
1700.0
20
23712.727272727272
0
VERTEX
8
GAP
10
1680.0
20
23712.727272727272
0
VERTEX
8
GAP
10
1680.0
20
23632.727272727272
0
VERTEX
8
GAP
10
1700.0
20
23632.727272727272
0
SEQEND
0
ENDBLK
0
ENDSEC
0
SECTION
2
ENTITIES
0
INSERT
2
Q22GAP
8
GAP
10
0
20
0
0
INSERT
2
Q22PIN
8
PIN
10
0
20
0
0
INSERT
2
Q22
8
0
10
0
20
0
0
ENDSEC
0
EOF
