0
SECTION
2
HEADER
9
$ACADVER
1
AC1006
9
$INSBASE
10
0.0
20
0.0
30
0.0
9
$EXTMIN
10
0.0
20
0.0
9
$EXTMAX
10
0.0
20
0.0
0
ENDSEC
0
SECTION
2
TABLES
0
TABLE
2
LTYPE
70
1
0
LTYPE
2
CONTINUOUS
70
64
3
Solid line
72
65
73
0
40
0.0
0
ENDTAB
0
TABLE
2
LAYER
70
3
0
LAYER
2
PYDXF
70
64
62
7
6
continuous
0
LAYER
2
GAP
70
64
62
1
6
continuous
0
LAYER
2
PIN
70
64
62
3
6
continuous
0
ENDTAB
0
TABLE
2
STYLE
70
1
0
STYLE
2
STANDARD
70
0
40
0
41
40
50
50
71
0
42
1
3
ARIAL.TTF
4

0
ENDTAB
0
TABLE
2
VIEW
70
0
0
ENDTAB
0
ENDSEC
0
SECTION
2
BLOCKS
0
BLOCK
8
GAP
2
Q14GAP
70
0
10
0
20
0
30
0
3
Q14GAP
0
POLYLINE
8
0
66
1
10
0.0
20
0.0
30
0.0
0
VERTEX
8
0
10
-1950.0
20
12170.0
0
VERTEX
8
0
10
-1950.0
20
12095.0
0
VERTEX
8
0
10
-1650.0
20
12095.0
0
VERTEX
8
0
10
-1650.0
20
12170.0
0
VERTEX
8
0
10
-1950.0
20
12170.0
0
SEQEND
0
POLYLINE
8
0
66
1
10
0.0
20
0.0
30
0.0
0
VERTEX
8
0
10
-1950.0
20
12095.0
0
VERTEX
8
0
10
-1950.0
20
11770.0
0
VERTEX
8
0
10
-1650.0
20
11770.0
0
VERTEX
8
0
10
-1650.0
20
12095.0
0
VERTEX
8
0
10
-1950.0
20
12095.0
0
SEQEND
0
POLYLINE
8
0
66
1
10
0.0
20
0.0
30
0.0
0
VERTEX
8
0
10
-1800.0
20
11770.0
0
VERTEX
8
0
10
-1800.0
20
11520.0
0
VERTEX
8
0
10
-1790.15831189058
20
11520.0
0
VERTEX
8
0
10
-1650.0
20
11770.0
0
VERTEX
8
0
10
-1800.0
20
11770.0
0
SEQEND
0
POLYLINE
8
0
66
1
10
0.0
20
0.0
30
0.0
0
VERTEX
8
0
10
-1800.0
20
11770.0
0
VERTEX
8
0
10
-1800.0
20
11520.0
0
VERTEX
8
0
10
-1809.84168810942
20
11520.0
0
VERTEX
8
0
10
-1950.0
20
11770.0
0
VERTEX
8
0
10
-1800.0
20
11770.0
0
SEQEND
0
POLYLINE
8
0
66
1
10
0.0
20
0.0
30
0.0
0
VERTEX
8
0
10
-1950.0
20
14425.0
0
VERTEX
8
0
10
-1950.0
20
14350.0
0
VERTEX
8
0
10
-1650.0
20
14350.0
0
VERTEX
8
0
10
-1650.0
20
14425.0
0
VERTEX
8
0
10
-1950.0
20
14425.0
0
SEQEND
0
POLYLINE
8
0
66
1
10
0.0
20
0.0
30
0.0
0
VERTEX
8
0
10
-1950.0
20
14350.0
0
VERTEX
8
0
10
-1950.0
20
14025.0
0
VERTEX
8
0
10
-1650.0
20
14025.0
0
VERTEX
8
0
10
-1650.0
20
14350.0
0
VERTEX
8
0
10
-1950.0
20
14350.0
0
SEQEND
0
POLYLINE
8
0
66
1
10
0.0
20
0.0
30
0.0
0
VERTEX
8
0
10
-1800.0
20
14025.0
0
VERTEX
8
0
10
-1800.0
20
13775.0
0
VERTEX
8
0
10
-1790.15831189058
20
13775.0
0
VERTEX
8
0
10
-1650.0
20
14025.0
0
VERTEX
8
0
10
-1800.0
20
14025.0
0
SEQEND
0
POLYLINE
8
0
66
1
10
0.0
20
0.0
30
0.0
0
VERTEX
8
0
10
-1800.0
20
14025.0
0
VERTEX
8
0
10
-1800.0
20
13775.0
0
VERTEX
8
0
10
-1809.84168810942
20
13775.0
0
VERTEX
8
0
10
-1950.0
20
14025.0
0
VERTEX
8
0
10
-1800.0
20
14025.0
0
SEQEND
0
POLYLINE
8
0
66
1
10
0.0
20
0.0
30
0.0
0
VERTEX
8
0
10
2900.0
20
25500.0
0
VERTEX
8
0
10
2825.0
20
25500.0
0
VERTEX
8
0
10
2825.0
20
25200.0
0
VERTEX
8
0
10
2900.0
20
25200.0
0
VERTEX
8
0
10
2900.0
20
25500.0
0
SEQEND
0
POLYLINE
8
0
66
1
10
0.0
20
0.0
30
0.0
0
VERTEX
8
0
10
2825.0
20
25500.0
0
VERTEX
8
0
10
2500.0
20
25500.0
0
VERTEX
8
0
10
2500.0
20
25200.0
0
VERTEX
8
0
10
2825.0
20
25200.0
0
VERTEX
8
0
10
2825.0
20
25500.0
0
SEQEND
0
POLYLINE
8
0
66
1
10
0.0
20
0.0
30
0.0
0
VERTEX
8
0
10
2500.0
20
25350.0
0
VERTEX
8
0
10
2250.0
20
25350.0
0
VERTEX
8
0
10
2250.0
20
25340.15831189058
0
VERTEX
8
0
10
2500.0
20
25200.0
0
VERTEX
8
0
10
2500.0
20
25350.0
0
SEQEND
0
POLYLINE
8
0
66
1
10
0.0
20
0.0
30
0.0
0
VERTEX
8
0
10
2500.0
20
25350.0
0
VERTEX
8
0
10
2250.0
20
25350.0
0
VERTEX
8
0
10
2250.0
20
25359.84168810942
0
VERTEX
8
0
10
2500.0
20
25500.0
0
VERTEX
8
0
10
2500.0
20
25350.0
0
SEQEND
0
POLYLINE
8
0
66
1
10
0.0
20
0.0
30
0.0
0
VERTEX
8
0
10
3250.0
20
14425.0
0
VERTEX
8
0
10
3250.0
20
14350.0
0
VERTEX
8
0
10
3550.0
20
14350.0
0
VERTEX
8
0
10
3550.0
20
14425.0
0
VERTEX
8
0
10
3250.0
20
14425.0
0
SEQEND
0
POLYLINE
8
0
66
1
10
0.0
20
0.0
30
0.0
0
VERTEX
8
0
10
3250.0
20
14350.0
0
VERTEX
8
0
10
3250.0
20
14025.0
0
VERTEX
8
0
10
3550.0
20
14025.0
0
VERTEX
8
0
10
3550.0
20
14350.0
0
VERTEX
8
0
10
3250.0
20
14350.0
0
SEQEND
0
POLYLINE
8
0
66
1
10
0.0
20
0.0
30
0.0
0
VERTEX
8
0
10
3400.0
20
14025.0
0
VERTEX
8
0
10
3400.0
20
13775.0
0
VERTEX
8
0
10
3409.84168810942
20
13775.0
0
VERTEX
8
0
10
3550.0
20
14025.0
0
VERTEX
8
0
10
3400.0
20
14025.0
0
SEQEND
0
POLYLINE
8
0
66
1
10
0.0
20
0.0
30
0.0
0
VERTEX
8
0
10
3400.0
20
14025.0
0
VERTEX
8
0
10
3400.0
20
13775.0
0
VERTEX
8
0
10
3390.15831189058
20
13775.0
0
VERTEX
8
0
10
3250.0
20
14025.0
0
VERTEX
8
0
10
3400.0
20
14025.0
0
SEQEND
0
POLYLINE
8
0
66
1
10
0.0
20
0.0
30
0.0
0
VERTEX
8
0
10
3250.0
20
12175.0
0
VERTEX
8
0
10
3250.0
20
12100.0
0
VERTEX
8
0
10
3550.0
20
12100.0
0
VERTEX
8
0
10
3550.0
20
12175.0
0
VERTEX
8
0
10
3250.0
20
12175.0
0
SEQEND
0
POLYLINE
8
0
66
1
10
0.0
20
0.0
30
0.0
0
VERTEX
8
0
10
3250.0
20
12100.0
0
VERTEX
8
0
10
3250.0
20
11775.0
0
VERTEX
8
0
10
3550.0
20
11775.0
0
VERTEX
8
0
10
3550.0
20
12100.0
0
VERTEX
8
0
10
3250.0
20
12100.0
0
SEQEND
0
POLYLINE
8
0
66
1
10
0.0
20
0.0
30
0.0
0
VERTEX
8
0
10
3400.0
20
11775.0
0
VERTEX
8
0
10
3400.0
20
11525.0
0
VERTEX
8
0
10
3409.84168810942
20
11525.0
0
VERTEX
8
0
10
3550.0
20
11775.0
0
VERTEX
8
0
10
3400.0
20
11775.0
0
SEQEND
0
POLYLINE
8
0
66
1
10
0.0
20
0.0
30
0.0
0
VERTEX
8
0
10
3400.0
20
11775.0
0
VERTEX
8
0
10
3400.0
20
11525.0
0
VERTEX
8
0
10
3390.15831189058
20
11525.0
0
VERTEX
8
0
10
3250.0
20
11775.0
0
VERTEX
8
0
10
3400.0
20
11775.0
0
SEQEND
0
POLYLINE
8
0
66
1
10
0.0
20
0.0
30
0.0
0
VERTEX
8
0
10
2900.0
20
950.0
0
VERTEX
8
0
10
2825.0
20
950.0
0
VERTEX
8
0
10
2825.0
20
650.0
0
VERTEX
8
0
10
2900.0
20
650.0
0
VERTEX
8
0
10
2900.0
20
950.0
0
SEQEND
0
POLYLINE
8
0
66
1
10
0.0
20
0.0
30
0.0
0
VERTEX
8
0
10
2825.0
20
950.0
0
VERTEX
8
0
10
2500.0
20
950.0
0
VERTEX
8
0
10
2500.0
20
650.0
0
VERTEX
8
0
10
2825.0
20
650.0
0
VERTEX
8
0
10
2825.0
20
950.0
0
SEQEND
0
POLYLINE
8
0
66
1
10
0.0
20
0.0
30
0.0
0
VERTEX
8
0
10
2500.0
20
800.0
0
VERTEX
8
0
10
2250.0
20
800.0
0
VERTEX
8
0
10
2250.0
20
790.1583118905806
0
VERTEX
8
0
10
2500.0
20
650.0
0
VERTEX
8
0
10
2500.0
20
800.0
0
SEQEND
0
POLYLINE
8
0
66
1
10
0.0
20
0.0
30
0.0
0
VERTEX
8
0
10
2500.0
20
800.0
0
VERTEX
8
0
10
2250.0
20
800.0
0
VERTEX
8
0
10
2250.0
20
809.8416881094194
0
VERTEX
8
0
10
2500.0
20
950.0
0
VERTEX
8
0
10
2500.0
20
800.0
0
SEQEND
0
POLYLINE
8
0
66
1
10
0.0
20
0.0
30
0.0
0
VERTEX
8
0
10
-1300.0
20
650.0
0
VERTEX
8
0
10
-1225.0
20
650.0
0
VERTEX
8
0
10
-1225.0
20
950.0
0
VERTEX
8
0
10
-1300.0
20
950.0
0
VERTEX
8
0
10
-1300.0
20
650.0
0
SEQEND
0
POLYLINE
8
0
66
1
10
0.0
20
0.0
30
0.0
0
VERTEX
8
0
10
-1225.0
20
650.0
0
VERTEX
8
0
10
-900.0
20
650.0
0
VERTEX
8
0
10
-900.0
20
950.0
0
VERTEX
8
0
10
-1225.0
20
950.0
0
VERTEX
8
0
10
-1225.0
20
650.0
0
SEQEND
0
POLYLINE
8
0
66
1
10
0.0
20
0.0
30
0.0
0
VERTEX
8
0
10
-900.0
20
800.0
0
VERTEX
8
0
10
-650.0
20
800.0
0
VERTEX
8
0
10
-650.0
20
809.8416881094194
0
VERTEX
8
0
10
-900.0
20
950.0
0
VERTEX
8
0
10
-900.0
20
800.0
0
SEQEND
0
POLYLINE
8
0
66
1
10
0.0
20
0.0
30
0.0
0
VERTEX
8
0
10
-900.0
20
800.0
0
VERTEX
8
0
10
-650.0
20
800.0
0
VERTEX
8
0
10
-650.0
20
790.1583118905806
0
VERTEX
8
0
10
-900.0
20
650.0
0
VERTEX
8
0
10
-900.0
20
800.0
0
SEQEND
0
POLYLINE
8
0
66
1
10
0.0
20
0.0
30
0.0
0
VERTEX
8
0
10
-1950.0
20
12170.0
0
VERTEX
8
0
10
-1950.0
20
12095.0
0
VERTEX
8
0
10
-1650.0
20
12095.0
0
VERTEX
8
0
10
-1650.0
20
12170.0
0
VERTEX
8
0
10
-1950.0
20
12170.0
0
SEQEND
0
POLYLINE
8
0
66
1
10
0.0
20
0.0
30
0.0
0
VERTEX
8
0
10
-1950.0
20
12095.0
0
VERTEX
8
0
10
-1950.0
20
11770.0
0
VERTEX
8
0
10
-1650.0
20
11770.0
0
VERTEX
8
0
10
-1650.0
20
12095.0
0
VERTEX
8
0
10
-1950.0
20
12095.0
0
SEQEND
0
POLYLINE
8
0
66
1
10
0.0
20
0.0
30
0.0
0
VERTEX
8
0
10
-1800.0
20
11770.0
0
VERTEX
8
0
10
-1800.0
20
11520.0
0
VERTEX
8
0
10
-1790.15831189058
20
11520.0
0
VERTEX
8
0
10
-1650.0
20
11770.0
0
VERTEX
8
0
10
-1800.0
20
11770.0
0
SEQEND
0
POLYLINE
8
0
66
1
10
0.0
20
0.0
30
0.0
0
VERTEX
8
0
10
-1800.0
20
11770.0
0
VERTEX
8
0
10
-1800.0
20
11520.0
0
VERTEX
8
0
10
-1809.84168810942
20
11520.0
0
VERTEX
8
0
10
-1950.0
20
11770.0
0
VERTEX
8
0
10
-1800.0
20
11770.0
0
SEQEND
0
POLYLINE
8
0
66
1
10
0.0
20
0.0
30
0.0
0
VERTEX
8
0
10
-1950.0
20
14425.0
0
VERTEX
8
0
10
-1950.0
20
14350.0
0
VERTEX
8
0
10
-1650.0
20
14350.0
0
VERTEX
8
0
10
-1650.0
20
14425.0
0
VERTEX
8
0
10
-1950.0
20
14425.0
0
SEQEND
0
POLYLINE
8
0
66
1
10
0.0
20
0.0
30
0.0
0
VERTEX
8
0
10
-1950.0
20
14350.0
0
VERTEX
8
0
10
-1950.0
20
14025.0
0
VERTEX
8
0
10
-1650.0
20
14025.0
0
VERTEX
8
0
10
-1650.0
20
14350.0
0
VERTEX
8
0
10
-1950.0
20
14350.0
0
SEQEND
0
POLYLINE
8
0
66
1
10
0.0
20
0.0
30
0.0
0
VERTEX
8
0
10
-1800.0
20
14025.0
0
VERTEX
8
0
10
-1800.0
20
13775.0
0
VERTEX
8
0
10
-1790.15831189058
20
13775.0
0
VERTEX
8
0
10
-1650.0
20
14025.0
0
VERTEX
8
0
10
-1800.0
20
14025.0
0
SEQEND
0
POLYLINE
8
0
66
1
10
0.0
20
0.0
30
0.0
0
VERTEX
8
0
10
-1800.0
20
14025.0
0
VERTEX
8
0
10
-1800.0
20
13775.0
0
VERTEX
8
0
10
-1809.84168810942
20
13775.0
0
VERTEX
8
0
10
-1950.0
20
14025.0
0
VERTEX
8
0
10
-1800.0
20
14025.0
0
SEQEND
0
POLYLINE
8
0
66
1
10
0.0
20
0.0
30
0.0
0
VERTEX
8
0
10
2900.0
20
25500.0
0
VERTEX
8
0
10
2825.0
20
25500.0
0
VERTEX
8
0
10
2825.0
20
25200.0
0
VERTEX
8
0
10
2900.0
20
25200.0
0
VERTEX
8
0
10
2900.0
20
25500.0
0
SEQEND
0
POLYLINE
8
0
66
1
10
0.0
20
0.0
30
0.0
0
VERTEX
8
0
10
2825.0
20
25500.0
0
VERTEX
8
0
10
2500.0
20
25500.0
0
VERTEX
8
0
10
2500.0
20
25200.0
0
VERTEX
8
0
10
2825.0
20
25200.0
0
VERTEX
8
0
10
2825.0
20
25500.0
0
SEQEND
0
POLYLINE
8
0
66
1
10
0.0
20
0.0
30
0.0
0
VERTEX
8
0
10
2500.0
20
25350.0
0
VERTEX
8
0
10
2250.0
20
25350.0
0
VERTEX
8
0
10
2250.0
20
25340.15831189058
0
VERTEX
8
0
10
2500.0
20
25200.0
0
VERTEX
8
0
10
2500.0
20
25350.0
0
SEQEND
0
POLYLINE
8
0
66
1
10
0.0
20
0.0
30
0.0
0
VERTEX
8
0
10
2500.0
20
25350.0
0
VERTEX
8
0
10
2250.0
20
25350.0
0
VERTEX
8
0
10
2250.0
20
25359.84168810942
0
VERTEX
8
0
10
2500.0
20
25500.0
0
VERTEX
8
0
10
2500.0
20
25350.0
0
SEQEND
0
POLYLINE
8
0
66
1
10
0.0
20
0.0
30
0.0
0
VERTEX
8
0
10
3250.0
20
14425.0
0
VERTEX
8
0
10
3250.0
20
14350.0
0
VERTEX
8
0
10
3550.0
20
14350.0
0
VERTEX
8
0
10
3550.0
20
14425.0
0
VERTEX
8
0
10
3250.0
20
14425.0
0
SEQEND
0
POLYLINE
8
0
66
1
10
0.0
20
0.0
30
0.0
0
VERTEX
8
0
10
3250.0
20
14350.0
0
VERTEX
8
0
10
3250.0
20
14025.0
0
VERTEX
8
0
10
3550.0
20
14025.0
0
VERTEX
8
0
10
3550.0
20
14350.0
0
VERTEX
8
0
10
3250.0
20
14350.0
0
SEQEND
0
POLYLINE
8
0
66
1
10
0.0
20
0.0
30
0.0
0
VERTEX
8
0
10
3400.0
20
14025.0
0
VERTEX
8
0
10
3400.0
20
13775.0
0
VERTEX
8
0
10
3409.84168810942
20
13775.0
0
VERTEX
8
0
10
3550.0
20
14025.0
0
VERTEX
8
0
10
3400.0
20
14025.0
0
SEQEND
0
POLYLINE
8
0
66
1
10
0.0
20
0.0
30
0.0
0
VERTEX
8
0
10
3400.0
20
14025.0
0
VERTEX
8
0
10
3400.0
20
13775.0
0
VERTEX
8
0
10
3390.15831189058
20
13775.0
0
VERTEX
8
0
10
3250.0
20
14025.0
0
VERTEX
8
0
10
3400.0
20
14025.0
0
SEQEND
0
POLYLINE
8
0
66
1
10
0.0
20
0.0
30
0.0
0
VERTEX
8
0
10
3250.0
20
12175.0
0
VERTEX
8
0
10
3250.0
20
12100.0
0
VERTEX
8
0
10
3550.0
20
12100.0
0
VERTEX
8
0
10
3550.0
20
12175.0
0
VERTEX
8
0
10
3250.0
20
12175.0
0
SEQEND
0
POLYLINE
8
0
66
1
10
0.0
20
0.0
30
0.0
0
VERTEX
8
0
10
3250.0
20
12100.0
0
VERTEX
8
0
10
3250.0
20
11775.0
0
VERTEX
8
0
10
3550.0
20
11775.0
0
VERTEX
8
0
10
3550.0
20
12100.0
0
VERTEX
8
0
10
3250.0
20
12100.0
0
SEQEND
0
POLYLINE
8
0
66
1
10
0.0
20
0.0
30
0.0
0
VERTEX
8
0
10
3400.0
20
11775.0
0
VERTEX
8
0
10
3400.0
20
11525.0
0
VERTEX
8
0
10
3409.84168810942
20
11525.0
0
VERTEX
8
0
10
3550.0
20
11775.0
0
VERTEX
8
0
10
3400.0
20
11775.0
0
SEQEND
0
POLYLINE
8
0
66
1
10
0.0
20
0.0
30
0.0
0
VERTEX
8
0
10
3400.0
20
11775.0
0
VERTEX
8
0
10
3400.0
20
11525.0
0
VERTEX
8
0
10
3390.15831189058
20
11525.0
0
VERTEX
8
0
10
3250.0
20
11775.0
0
VERTEX
8
0
10
3400.0
20
11775.0
0
SEQEND
0
POLYLINE
8
0
66
1
10
0.0
20
0.0
30
0.0
0
VERTEX
8
0
10
2900.0
20
950.0
0
VERTEX
8
0
10
2825.0
20
950.0
0
VERTEX
8
0
10
2825.0
20
650.0
0
VERTEX
8
0
10
2900.0
20
650.0
0
VERTEX
8
0
10
2900.0
20
950.0
0
SEQEND
0
POLYLINE
8
0
66
1
10
0.0
20
0.0
30
0.0
0
VERTEX
8
0
10
2825.0
20
950.0
0
VERTEX
8
0
10
2500.0
20
950.0
0
VERTEX
8
0
10
2500.0
20
650.0
0
VERTEX
8
0
10
2825.0
20
650.0
0
VERTEX
8
0
10
2825.0
20
950.0
0
SEQEND
0
POLYLINE
8
0
66
1
10
0.0
20
0.0
30
0.0
0
VERTEX
8
0
10
2500.0
20
800.0
0
VERTEX
8
0
10
2250.0
20
800.0
0
VERTEX
8
0
10
2250.0
20
790.1583118905806
0
VERTEX
8
0
10
2500.0
20
650.0
0
VERTEX
8
0
10
2500.0
20
800.0
0
SEQEND
0
POLYLINE
8
0
66
1
10
0.0
20
0.0
30
0.0
0
VERTEX
8
0
10
2500.0
20
800.0
0
VERTEX
8
0
10
2250.0
20
800.0
0
VERTEX
8
0
10
2250.0
20
809.8416881094194
0
VERTEX
8
0
10
2500.0
20
950.0
0
VERTEX
8
0
10
2500.0
20
800.0
0
SEQEND
0
POLYLINE
8
0
66
1
10
0.0
20
0.0
30
0.0
0
VERTEX
8
0
10
-1300.0
20
650.0
0
VERTEX
8
0
10
-1225.0
20
650.0
0
VERTEX
8
0
10
-1225.0
20
950.0
0
VERTEX
8
0
10
-1300.0
20
950.0
0
VERTEX
8
0
10
-1300.0
20
650.0
0
SEQEND
0
POLYLINE
8
0
66
1
10
0.0
20
0.0
30
0.0
0
VERTEX
8
0
10
-1225.0
20
650.0
0
VERTEX
8
0
10
-900.0
20
650.0
0
VERTEX
8
0
10
-900.0
20
950.0
0
VERTEX
8
0
10
-1225.0
20
950.0
0
VERTEX
8
0
10
-1225.0
20
650.0
0
SEQEND
0
POLYLINE
8
0
66
1
10
0.0
20
0.0
30
0.0
0
VERTEX
8
0
10
-900.0
20
800.0
0
VERTEX
8
0
10
-650.0
20
800.0
0
VERTEX
8
0
10
-650.0
20
809.8416881094194
0
VERTEX
8
0
10
-900.0
20
950.0
0
VERTEX
8
0
10
-900.0
20
800.0
0
SEQEND
0
POLYLINE
8
0
66
1
10
0.0
20
0.0
30
0.0
0
VERTEX
8
0
10
-900.0
20
800.0
0
VERTEX
8
0
10
-650.0
20
800.0
0
VERTEX
8
0
10
-650.0
20
790.1583118905806
0
VERTEX
8
0
10
-900.0
20
650.0
0
VERTEX
8
0
10
-900.0
20
800.0
0
SEQEND
0
POLYLINE
8
0
66
1
10
0.0
20
0.0
30
0.0
0
VERTEX
8
0
10
400.0
20
9750.0
0
VERTEX
8
0
10
400.0
20
9650.0
0
VERTEX
8
0
10
1600.0
20
9650.0
0
VERTEX
8
0
10
1600.0
20
9750.0
0
VERTEX
8
0
10
400.0
20
9750.0
0
SEQEND
0
POLYLINE
8
0
66
1
10
0.0
20
0.0
30
0.0
0
VERTEX
8
0
10
820.2000000000007
20
21113.8
0
VERTEX
8
0
10
820.2000000000007
20
21114.0
0
VERTEX
8
0
10
779.7999999999993
20
21114.0
0
VERTEX
8
0
10
779.7999999999993
20
21113.8
0
VERTEX
8
0
10
820.2000000000007
20
21113.8
0
SEQEND
0
POLYLINE
8
0
66
1
10
0.0
20
0.0
30
0.0
0
VERTEX
8
0
10
780.0
20
21114.0
0
VERTEX
8
0
10
780.0
20
21134.0
0
VERTEX
8
0
10
779.7999999999993
20
21134.0
0
VERTEX
8
0
10
779.7999999999993
20
21114.0
0
VERTEX
8
0
10
780.0
20
21114.0
0
SEQEND
0
POLYLINE
8
0
66
1
10
0.0
20
0.0
30
0.0
0
VERTEX
8
0
10
820.0
20
21114.0
0
VERTEX
8
0
10
820.0
20
21134.0
0
VERTEX
8
0
10
820.2000000000007
20
21134.0
0
VERTEX
8
0
10
820.2000000000007
20
21114.0
0
VERTEX
8
0
10
820.0
20
21114.0
0
SEQEND
0
POLYLINE
8
0
66
1
10
0.0
20
0.0
30
0.0
0
VERTEX
8
0
10
780.0
20
21134.0
0
VERTEX
8
0
10
799.6850000000013
20
21144.0
0
VERTEX
8
0
10
799.4850000000006
20
21144.0
0
VERTEX
8
0
10
779.7999999999993
20
21134.0
0
VERTEX
8
0
10
780.0
20
21134.0
0
SEQEND
0
POLYLINE
8
0
66
1
10
0.0
20
0.0
30
0.0
0
VERTEX
8
0
10
820.0
20
21134.0
0
VERTEX
8
0
10
800.3149999999987
20
21144.0
0
VERTEX
8
0
10
800.5149999999994
20
21144.0
0
VERTEX
8
0
10
820.2000000000007
20
21134.0
0
VERTEX
8
0
10
820.0
20
21134.0
0
SEQEND
0
POLYLINE
8
0
66
1
10
0.0
20
0.0
30
0.0
0
VERTEX
8
0
10
799.6850000000013
20
21144.0
0
VERTEX
8
0
10
799.6850000000013
20
21146.0
0
VERTEX
8
0
10
799.4850000000006
20
21146.0
0
VERTEX
8
0
10
799.4850000000006
20
21144.0
0
VERTEX
8
0
10
799.6850000000013
20
21144.0
0
SEQEND
0
POLYLINE
8
0
66
1
10
0.0
20
0.0
30
0.0
0
VERTEX
8
0
10
800.3149999999987
20
21144.0
0
VERTEX
8
0
10
800.3149999999987
20
21146.0
0
VERTEX
8
0
10
800.5149999999994
20
21146.0
0
VERTEX
8
0
10
800.5149999999994
20
21144.0
0
VERTEX
8
0
10
800.3149999999987
20
21144.0
0
SEQEND
0
POLYLINE
8
0
66
1
10
0.0
20
0.0
30
0.0
0
VERTEX
8
0
10
802.7000000000007
20
21146.0
0
VERTEX
8
0
10
802.7000000000007
20
21146.15
0
VERTEX
8
0
10
797.2999999999993
20
21146.15
0
VERTEX
8
0
10
797.2999999999993
20
21146.0
0
VERTEX
8
0
10
802.7000000000007
20
21146.0
0
SEQEND
0
POLYLINE
8
0
66
1
10
0.0
20
0.0
30
0.0
0
VERTEX
8
0
10
797.5
20
21146.15
0
VERTEX
8
0
10
780.0
20
21156.15
0
VERTEX
8
0
10
779.7999999999993
20
21156.15
0
VERTEX
8
0
10
797.2999999999993
20
21146.15
0
VERTEX
8
0
10
797.5
20
21146.15
0
SEQEND
0
POLYLINE
8
0
66
1
10
0.0
20
0.0
30
0.0
0
VERTEX
8
0
10
802.5
20
21146.15
0
VERTEX
8
0
10
820.0
20
21156.15
0
VERTEX
8
0
10
820.2000000000007
20
21156.15
0
VERTEX
8
0
10
802.7000000000007
20
21146.15
0
VERTEX
8
0
10
802.5
20
21146.15
0
SEQEND
0
POLYLINE
8
0
66
1
10
0.0
20
0.0
30
0.0
0
VERTEX
8
0
10
780.0
20
21156.15
0
VERTEX
8
0
10
780.0
20
21176.15
0
VERTEX
8
0
10
779.7999999999993
20
21176.15
0
VERTEX
8
0
10
779.7999999999993
20
21156.15
0
VERTEX
8
0
10
780.0
20
21156.15
0
SEQEND
0
POLYLINE
8
0
66
1
10
0.0
20
0.0
30
0.0
0
VERTEX
8
0
10
820.0
20
21156.15
0
VERTEX
8
0
10
820.0
20
21176.15
0
VERTEX
8
0
10
820.2000000000007
20
21176.15
0
VERTEX
8
0
10
820.2000000000007
20
21156.15
0
VERTEX
8
0
10
820.0
20
21156.15
0
SEQEND
0
POLYLINE
8
0
66
1
10
0.0
20
0.0
30
0.0
0
VERTEX
8
0
10
820.2000000000007
20
21176.15
0
VERTEX
8
0
10
820.2000000000007
20
21176.350000000002
0
VERTEX
8
0
10
779.7999999999993
20
21176.350000000002
0
VERTEX
8
0
10
779.7999999999993
20
21176.15
0
VERTEX
8
0
10
820.2000000000007
20
21176.15
0
SEQEND
0
POLYLINE
8
0
66
1
10
0.0
20
0.0
30
0.0
0
VERTEX
8
0
10
820.1999999999998
20
2253.8
0
VERTEX
8
0
10
820.1999999999998
20
2254.0
0
VERTEX
8
0
10
779.8000000000002
20
2254.0
0
VERTEX
8
0
10
779.8000000000002
20
2253.8
0
VERTEX
8
0
10
820.1999999999998
20
2253.8
0
SEQEND
0
POLYLINE
8
0
66
1
10
0.0
20
0.0
30
0.0
0
VERTEX
8
0
10
780.0
20
2254.0
0
VERTEX
8
0
10
780.0
20
2274.0
0
VERTEX
8
0
10
779.8000000000002
20
2274.0
0
VERTEX
8
0
10
779.8000000000002
20
2254.0
0
VERTEX
8
0
10
780.0
20
2254.0
0
SEQEND
0
POLYLINE
8
0
66
1
10
0.0
20
0.0
30
0.0
0
VERTEX
8
0
10
820.0
20
2254.0
0
VERTEX
8
0
10
820.0
20
2274.0
0
VERTEX
8
0
10
820.1999999999998
20
2274.0
0
VERTEX
8
0
10
820.1999999999998
20
2254.0
0
VERTEX
8
0
10
820.0
20
2254.0
0
SEQEND
0
POLYLINE
8
0
66
1
10
0.0
20
0.0
30
0.0
0
VERTEX
8
0
10
780.0
20
2274.0
0
VERTEX
8
0
10
799.685
20
2284.0
0
VERTEX
8
0
10
799.4850000000001
20
2284.0
0
VERTEX
8
0
10
779.8000000000002
20
2274.0
0
VERTEX
8
0
10
780.0
20
2274.0
0
SEQEND
0
POLYLINE
8
0
66
1
10
0.0
20
0.0
30
0.0
0
VERTEX
8
0
10
820.0
20
2274.0
0
VERTEX
8
0
10
800.315
20
2284.0
0
VERTEX
8
0
10
800.5149999999999
20
2284.0
0
VERTEX
8
0
10
820.1999999999998
20
2274.0
0
VERTEX
8
0
10
820.0
20
2274.0
0
SEQEND
0
POLYLINE
8
0
66
1
10
0.0
20
0.0
30
0.0
0
VERTEX
8
0
10
799.685
20
2284.0
0
VERTEX
8
0
10
799.685
20
2286.0
0
VERTEX
8
0
10
799.4850000000001
20
2286.0
0
VERTEX
8
0
10
799.4850000000001
20
2284.0
0
VERTEX
8
0
10
799.685
20
2284.0
0
SEQEND
0
POLYLINE
8
0
66
1
10
0.0
20
0.0
30
0.0
0
VERTEX
8
0
10
800.315
20
2284.0
0
VERTEX
8
0
10
800.315
20
2286.0
0
VERTEX
8
0
10
800.5149999999999
20
2286.0
0
VERTEX
8
0
10
800.5149999999999
20
2284.0
0
VERTEX
8
0
10
800.315
20
2284.0
0
SEQEND
0
POLYLINE
8
0
66
1
10
0.0
20
0.0
30
0.0
0
VERTEX
8
0
10
802.6999999999998
20
2286.0
0
VERTEX
8
0
10
802.6999999999998
20
2286.15
0
VERTEX
8
0
10
797.3000000000002
20
2286.15
0
VERTEX
8
0
10
797.3000000000002
20
2286.0
0
VERTEX
8
0
10
802.6999999999998
20
2286.0
0
SEQEND
0
POLYLINE
8
0
66
1
10
0.0
20
0.0
30
0.0
0
VERTEX
8
0
10
797.5
20
2286.15
0
VERTEX
8
0
10
780.0
20
2296.15
0
VERTEX
8
0
10
779.8000000000002
20
2296.15
0
VERTEX
8
0
10
797.3000000000002
20
2286.15
0
VERTEX
8
0
10
797.5
20
2286.15
0
SEQEND
0
POLYLINE
8
0
66
1
10
0.0
20
0.0
30
0.0
0
VERTEX
8
0
10
802.5
20
2286.15
0
VERTEX
8
0
10
820.0
20
2296.15
0
VERTEX
8
0
10
820.1999999999998
20
2296.15
0
VERTEX
8
0
10
802.6999999999998
20
2286.15
0
VERTEX
8
0
10
802.5
20
2286.15
0
SEQEND
0
POLYLINE
8
0
66
1
10
0.0
20
0.0
30
0.0
0
VERTEX
8
0
10
780.0
20
2296.15
0
VERTEX
8
0
10
780.0
20
2316.15
0
VERTEX
8
0
10
779.8000000000002
20
2316.15
0
VERTEX
8
0
10
779.8000000000002
20
2296.15
0
VERTEX
8
0
10
780.0
20
2296.15
0
SEQEND
0
POLYLINE
8
0
66
1
10
0.0
20
0.0
30
0.0
0
VERTEX
8
0
10
820.0
20
2296.15
0
VERTEX
8
0
10
820.0
20
2316.15
0
VERTEX
8
0
10
820.1999999999998
20
2316.15
0
VERTEX
8
0
10
820.1999999999998
20
2296.15
0
VERTEX
8
0
10
820.0
20
2296.15
0
SEQEND
0
POLYLINE
8
0
66
1
10
0.0
20
0.0
30
0.0
0
VERTEX
8
0
10
820.1999999999998
20
2316.15
0
VERTEX
8
0
10
820.1999999999998
20
2316.3500000000004
0
VERTEX
8
0
10
779.8000000000002
20
2316.3500000000004
0
VERTEX
8
0
10
779.8000000000002
20
2316.15
0
VERTEX
8
0
10
820.1999999999998
20
2316.15
0
SEQEND
0
POLYLINE
8
0
66
1
10
0.0
20
0.0
30
0.0
0
VERTEX
8
0
10
820.1999999999998
20
4753.8
0
VERTEX
8
0
10
820.1999999999998
20
4754.0
0
VERTEX
8
0
10
779.8000000000002
20
4754.0
0
VERTEX
8
0
10
779.8000000000002
20
4753.8
0
VERTEX
8
0
10
820.1999999999998
20
4753.8
0
SEQEND
0
POLYLINE
8
0
66
1
10
0.0
20
0.0
30
0.0
0
VERTEX
8
0
10
780.0
20
4754.0
0
VERTEX
8
0
10
780.0
20
4774.0
0
VERTEX
8
0
10
779.8000000000002
20
4774.0
0
VERTEX
8
0
10
779.8000000000002
20
4754.0
0
VERTEX
8
0
10
780.0
20
4754.0
0
SEQEND
0
POLYLINE
8
0
66
1
10
0.0
20
0.0
30
0.0
0
VERTEX
8
0
10
820.0
20
4754.0
0
VERTEX
8
0
10
820.0
20
4774.0
0
VERTEX
8
0
10
820.1999999999998
20
4774.0
0
VERTEX
8
0
10
820.1999999999998
20
4754.0
0
VERTEX
8
0
10
820.0
20
4754.0
0
SEQEND
0
POLYLINE
8
0
66
1
10
0.0
20
0.0
30
0.0
0
VERTEX
8
0
10
780.0
20
4774.0
0
VERTEX
8
0
10
799.6850000000004
20
4784.0
0
VERTEX
8
0
10
799.4850000000006
20
4784.0
0
VERTEX
8
0
10
779.8000000000002
20
4774.0
0
VERTEX
8
0
10
780.0
20
4774.0
0
SEQEND
0
POLYLINE
8
0
66
1
10
0.0
20
0.0
30
0.0
0
VERTEX
8
0
10
820.0
20
4774.0
0
VERTEX
8
0
10
800.3149999999996
20
4784.0
0
VERTEX
8
0
10
800.5149999999994
20
4784.0
0
VERTEX
8
0
10
820.1999999999998
20
4774.0
0
VERTEX
8
0
10
820.0
20
4774.0
0
SEQEND
0
POLYLINE
8
0
66
1
10
0.0
20
0.0
30
0.0
0
VERTEX
8
0
10
799.6850000000004
20
4784.0
0
VERTEX
8
0
10
799.6850000000004
20
4786.0
0
VERTEX
8
0
10
799.4850000000006
20
4786.0
0
VERTEX
8
0
10
799.4850000000006
20
4784.0
0
VERTEX
8
0
10
799.6850000000004
20
4784.0
0
SEQEND
0
POLYLINE
8
0
66
1
10
0.0
20
0.0
30
0.0
0
VERTEX
8
0
10
800.3149999999996
20
4784.0
0
VERTEX
8
0
10
800.3149999999996
20
4786.0
0
VERTEX
8
0
10
800.5149999999994
20
4786.0
0
VERTEX
8
0
10
800.5149999999994
20
4784.0
0
VERTEX
8
0
10
800.3149999999996
20
4784.0
0
SEQEND
0
POLYLINE
8
0
66
1
10
0.0
20
0.0
30
0.0
0
VERTEX
8
0
10
802.6999999999998
20
4786.0
0
VERTEX
8
0
10
802.6999999999998
20
4786.15
0
VERTEX
8
0
10
797.3000000000002
20
4786.15
0
VERTEX
8
0
10
797.3000000000002
20
4786.0
0
VERTEX
8
0
10
802.6999999999998
20
4786.0
0
SEQEND
0
POLYLINE
8
0
66
1
10
0.0
20
0.0
30
0.0
0
VERTEX
8
0
10
797.5
20
4786.15
0
VERTEX
8
0
10
780.0
20
4796.15
0
VERTEX
8
0
10
779.8000000000002
20
4796.15
0
VERTEX
8
0
10
797.3000000000002
20
4786.15
0
VERTEX
8
0
10
797.5
20
4786.15
0
SEQEND
0
POLYLINE
8
0
66
1
10
0.0
20
0.0
30
0.0
0
VERTEX
8
0
10
802.5
20
4786.15
0
VERTEX
8
0
10
820.0
20
4796.15
0
VERTEX
8
0
10
820.1999999999998
20
4796.15
0
VERTEX
8
0
10
802.6999999999998
20
4786.15
0
VERTEX
8
0
10
802.5
20
4786.15
0
SEQEND
0
POLYLINE
8
0
66
1
10
0.0
20
0.0
30
0.0
0
VERTEX
8
0
10
780.0
20
4796.15
0
VERTEX
8
0
10
780.0
20
4816.15
0
VERTEX
8
0
10
779.8000000000002
20
4816.15
0
VERTEX
8
0
10
779.8000000000002
20
4796.15
0
VERTEX
8
0
10
780.0
20
4796.15
0
SEQEND
0
POLYLINE
8
0
66
1
10
0.0
20
0.0
30
0.0
0
VERTEX
8
0
10
820.0
20
4796.15
0
VERTEX
8
0
10
820.0
20
4816.15
0
VERTEX
8
0
10
820.1999999999998
20
4816.15
0
VERTEX
8
0
10
820.1999999999998
20
4796.15
0
VERTEX
8
0
10
820.0
20
4796.15
0
SEQEND
0
POLYLINE
8
0
66
1
10
0.0
20
0.0
30
0.0
0
VERTEX
8
0
10
820.1999999999998
20
4816.15
0
VERTEX
8
0
10
820.1999999999998
20
4816.349999999999
0
VERTEX
8
0
10
779.8000000000002
20
4816.349999999999
0
VERTEX
8
0
10
779.8000000000002
20
4816.15
0
VERTEX
8
0
10
820.1999999999998
20
4816.15
0
SEQEND
0
POLYLINE
8
0
66
1
10
0.0
20
0.0
30
0.0
0
VERTEX
8
0
10
820.1999999999998
20
7253.8
0
VERTEX
8
0
10
820.1999999999998
20
7254.0
0
VERTEX
8
0
10
779.8000000000002
20
7254.0
0
VERTEX
8
0
10
779.8000000000002
20
7253.8
0
VERTEX
8
0
10
820.1999999999998
20
7253.8
0
SEQEND
0
POLYLINE
8
0
66
1
10
0.0
20
0.0
30
0.0
0
VERTEX
8
0
10
780.0
20
7254.0
0
VERTEX
8
0
10
780.0
20
7274.0
0
VERTEX
8
0
10
779.8000000000002
20
7274.0
0
VERTEX
8
0
10
779.8000000000002
20
7254.0
0
VERTEX
8
0
10
780.0
20
7254.0
0
SEQEND
0
POLYLINE
8
0
66
1
10
0.0
20
0.0
30
0.0
0
VERTEX
8
0
10
820.0
20
7254.0
0
VERTEX
8
0
10
820.0
20
7274.0
0
VERTEX
8
0
10
820.1999999999998
20
7274.0
0
VERTEX
8
0
10
820.1999999999998
20
7254.0
0
VERTEX
8
0
10
820.0
20
7254.0
0
SEQEND
0
POLYLINE
8
0
66
1
10
0.0
20
0.0
30
0.0
0
VERTEX
8
0
10
780.0
20
7274.0
0
VERTEX
8
0
10
799.6850000000004
20
7284.0
0
VERTEX
8
0
10
799.4850000000006
20
7284.0
0
VERTEX
8
0
10
779.8000000000002
20
7274.0
0
VERTEX
8
0
10
780.0
20
7274.0
0
SEQEND
0
POLYLINE
8
0
66
1
10
0.0
20
0.0
30
0.0
0
VERTEX
8
0
10
820.0
20
7274.0
0
VERTEX
8
0
10
800.3149999999996
20
7284.0
0
VERTEX
8
0
10
800.5149999999994
20
7284.0
0
VERTEX
8
0
10
820.1999999999998
20
7274.0
0
VERTEX
8
0
10
820.0
20
7274.0
0
SEQEND
0
POLYLINE
8
0
66
1
10
0.0
20
0.0
30
0.0
0
VERTEX
8
0
10
799.6850000000004
20
7284.0
0
VERTEX
8
0
10
799.6850000000004
20
7286.0
0
VERTEX
8
0
10
799.4850000000006
20
7286.0
0
VERTEX
8
0
10
799.4850000000006
20
7284.0
0
VERTEX
8
0
10
799.6850000000004
20
7284.0
0
SEQEND
0
POLYLINE
8
0
66
1
10
0.0
20
0.0
30
0.0
0
VERTEX
8
0
10
800.3149999999996
20
7284.0
0
VERTEX
8
0
10
800.3149999999996
20
7286.0
0
VERTEX
8
0
10
800.5149999999994
20
7286.0
0
VERTEX
8
0
10
800.5149999999994
20
7284.0
0
VERTEX
8
0
10
800.3149999999996
20
7284.0
0
SEQEND
0
POLYLINE
8
0
66
1
10
0.0
20
0.0
30
0.0
0
VERTEX
8
0
10
802.6999999999998
20
7286.0
0
VERTEX
8
0
10
802.6999999999998
20
7286.15
0
VERTEX
8
0
10
797.3000000000002
20
7286.15
0
VERTEX
8
0
10
797.3000000000002
20
7286.0
0
VERTEX
8
0
10
802.6999999999998
20
7286.0
0
SEQEND
0
POLYLINE
8
0
66
1
10
0.0
20
0.0
30
0.0
0
VERTEX
8
0
10
797.5
20
7286.15
0
VERTEX
8
0
10
780.0
20
7296.15
0
VERTEX
8
0
10
779.8000000000002
20
7296.15
0
VERTEX
8
0
10
797.3000000000002
20
7286.15
0
VERTEX
8
0
10
797.5
20
7286.15
0
SEQEND
0
POLYLINE
8
0
66
1
10
0.0
20
0.0
30
0.0
0
VERTEX
8
0
10
802.5
20
7286.15
0
VERTEX
8
0
10
820.0
20
7296.15
0
VERTEX
8
0
10
820.1999999999998
20
7296.15
0
VERTEX
8
0
10
802.6999999999998
20
7286.15
0
VERTEX
8
0
10
802.5
20
7286.15
0
SEQEND
0
POLYLINE
8
0
66
1
10
0.0
20
0.0
30
0.0
0
VERTEX
8
0
10
780.0
20
7296.15
0
VERTEX
8
0
10
780.0
20
7316.15
0
VERTEX
8
0
10
779.8000000000002
20
7316.15
0
VERTEX
8
0
10
779.8000000000002
20
7296.15
0
VERTEX
8
0
10
780.0
20
7296.15
0
SEQEND
0
POLYLINE
8
0
66
1
10
0.0
20
0.0
30
0.0
0
VERTEX
8
0
10
820.0
20
7296.15
0
VERTEX
8
0
10
820.0
20
7316.15
0
VERTEX
8
0
10
820.1999999999998
20
7316.15
0
VERTEX
8
0
10
820.1999999999998
20
7296.15
0
VERTEX
8
0
10
820.0
20
7296.15
0
SEQEND
0
POLYLINE
8
0
66
1
10
0.0
20
0.0
30
0.0
0
VERTEX
8
0
10
820.1999999999998
20
7316.15
0
VERTEX
8
0
10
820.1999999999998
20
7316.349999999999
0
VERTEX
8
0
10
779.8000000000002
20
7316.349999999999
0
VERTEX
8
0
10
779.8000000000002
20
7316.15
0
VERTEX
8
0
10
820.1999999999998
20
7316.15
0
SEQEND
0
POLYLINE
8
GAP
66
1
10
0.0
20
0.0
30
0.0
0
VERTEX
8
GAP
10
200.0
20
100.0
0
VERTEX
8
GAP
10
217.5
20
100.0
0
VERTEX
8
GAP
10
217.5
20
170.0
0
VERTEX
8
GAP
10
200.0
20
170.0
0
VERTEX
8
GAP
10
200.0
20
100.0
0
SEQEND
0
POLYLINE
8
GAP
66
1
10
0.0
20
0.0
30
0.0
0
VERTEX
8
GAP
10
217.5
20
108.75
0
VERTEX
8
GAP
10
226.25
20
108.75
0
VERTEX
8
GAP
10
226.25
20
117.5
0
VERTEX
8
GAP
10
235.0
20
117.5
0
VERTEX
8
GAP
10
235.0
20
161.25
0
VERTEX
8
GAP
10
217.5
20
161.25
0
VERTEX
8
GAP
10
217.5
20
170.0
0
VERTEX
8
GAP
10
252.5
20
170.0
0
VERTEX
8
GAP
10
252.5
20
95.625
0
VERTEX
8
GAP
10
235.0
20
95.625
0
VERTEX
8
GAP
10
235.0
20
100.0
0
VERTEX
8
GAP
10
217.5
20
100.0
0
VERTEX
8
GAP
10
217.5
20
108.75
0
SEQEND
0
POLYLINE
8
GAP
66
1
10
0.0
20
0.0
30
0.0
0
VERTEX
8
GAP
10
270.0
20
100.0
0
VERTEX
8
GAP
10
322.5
20
100.0
0
VERTEX
8
GAP
10
322.5
20
108.75
0
VERTEX
8
GAP
10
305.0
20
108.75
0
VERTEX
8
GAP
10
305.0
20
170.0
0
VERTEX
8
GAP
10
287.5
20
170.0
0
VERTEX
8
GAP
10
270.0
20
161.25
0
VERTEX
8
GAP
10
270.0
20
152.5
0
VERTEX
8
GAP
10
287.5
20
152.5
0
VERTEX
8
GAP
10
287.5
20
108.75
0
VERTEX
8
GAP
10
270.0
20
108.75
0
VERTEX
8
GAP
10
270.0
20
100.0
0
VERTEX
8
GAP
10
270.0
20
100.0
0
SEQEND
0
POLYLINE
8
GAP
66
1
10
0.0
20
0.0
30
0.0
0
VERTEX
8
GAP
10
375.0
20
100.0
0
VERTEX
8
GAP
10
392.5
20
100.0
0
VERTEX
8
GAP
10
392.5
20
170.0
0
VERTEX
8
GAP
10
375.0
20
170.0
0
VERTEX
8
GAP
10
375.0
20
143.75
0
VERTEX
8
GAP
10
357.5
20
143.75
0
VERTEX
8
GAP
10
357.5
20
170.0
0
VERTEX
8
GAP
10
340.0
20
170.0
0
VERTEX
8
GAP
10
340.0
20
135.0
0
VERTEX
8
GAP
10
375.0
20
135.0
0
VERTEX
8
GAP
10
375.0
20
100.0
0
VERTEX
8
GAP
10
375.0
20
100.0
0
SEQEND
0
ENDBLK
0
BLOCK
8
PIN
2
Q14PIN
70
0
10
0
20
0
30
0
3
Q14PIN
0
POLYLINE
8
0
66
1
10
0.0
20
0.0
30
0.0
0
VERTEX
8
0
10
-1875.0
20
12095.0
0
VERTEX
8
0
10
-1875.0
20
11770.0
0
VERTEX
8
0
10
-1725.0
20
11770.0
0
VERTEX
8
0
10
-1725.0
20
12095.0
0
VERTEX
8
0
10
-1875.0
20
12095.0
0
SEQEND
0
POLYLINE
8
0
66
1
10
0.0
20
0.0
30
0.0
0
VERTEX
8
0
10
-1800.0
20
11770.0
0
VERTEX
8
0
10
-1800.0
20
11520.0
0
VERTEX
8
0
10
-1795.0
20
11520.0
0
VERTEX
8
0
10
-1725.0
20
11770.0
0
VERTEX
8
0
10
-1800.0
20
11770.0
0
SEQEND
0
POLYLINE
8
0
66
1
10
0.0
20
0.0
30
0.0
0
VERTEX
8
0
10
-1800.0
20
11770.0
0
VERTEX
8
0
10
-1800.0
20
11520.0
0
VERTEX
8
0
10
-1805.0
20
11520.0
0
VERTEX
8
0
10
-1875.0
20
11770.0
0
VERTEX
8
0
10
-1800.0
20
11770.0
0
SEQEND
0
POLYLINE
8
0
66
1
10
0.0
20
0.0
30
0.0
0
VERTEX
8
0
10
-1875.0
20
14350.0
0
VERTEX
8
0
10
-1875.0
20
14025.0
0
VERTEX
8
0
10
-1725.0
20
14025.0
0
VERTEX
8
0
10
-1725.0
20
14350.0
0
VERTEX
8
0
10
-1875.0
20
14350.0
0
SEQEND
0
POLYLINE
8
0
66
1
10
0.0
20
0.0
30
0.0
0
VERTEX
8
0
10
-1800.0
20
14025.0
0
VERTEX
8
0
10
-1800.0
20
13775.0
0
VERTEX
8
0
10
-1795.0
20
13775.0
0
VERTEX
8
0
10
-1725.0
20
14025.0
0
VERTEX
8
0
10
-1800.0
20
14025.0
0
SEQEND
0
POLYLINE
8
0
66
1
10
0.0
20
0.0
30
0.0
0
VERTEX
8
0
10
-1800.0
20
14025.0
0
VERTEX
8
0
10
-1800.0
20
13775.0
0
VERTEX
8
0
10
-1805.0
20
13775.0
0
VERTEX
8
0
10
-1875.0
20
14025.0
0
VERTEX
8
0
10
-1800.0
20
14025.0
0
SEQEND
0
POLYLINE
8
0
66
1
10
0.0
20
0.0
30
0.0
0
VERTEX
8
0
10
2825.0
20
25425.0
0
VERTEX
8
0
10
2500.0
20
25425.0
0
VERTEX
8
0
10
2500.0
20
25275.0
0
VERTEX
8
0
10
2825.0
20
25275.0
0
VERTEX
8
0
10
2825.0
20
25425.0
0
SEQEND
0
POLYLINE
8
0
66
1
10
0.0
20
0.0
30
0.0
0
VERTEX
8
0
10
2500.0
20
25350.0
0
VERTEX
8
0
10
2250.0
20
25350.0
0
VERTEX
8
0
10
2250.0
20
25345.0
0
VERTEX
8
0
10
2500.0
20
25275.0
0
VERTEX
8
0
10
2500.0
20
25350.0
0
SEQEND
0
POLYLINE
8
0
66
1
10
0.0
20
0.0
30
0.0
0
VERTEX
8
0
10
2500.0
20
25350.0
0
VERTEX
8
0
10
2250.0
20
25350.0
0
VERTEX
8
0
10
2250.0
20
25355.0
0
VERTEX
8
0
10
2500.0
20
25425.0
0
VERTEX
8
0
10
2500.0
20
25350.0
0
SEQEND
0
POLYLINE
8
0
66
1
10
0.0
20
0.0
30
0.0
0
VERTEX
8
0
10
3325.0
20
14350.0
0
VERTEX
8
0
10
3325.0
20
14025.0
0
VERTEX
8
0
10
3475.0
20
14025.0
0
VERTEX
8
0
10
3475.0
20
14350.0
0
VERTEX
8
0
10
3325.0
20
14350.0
0
SEQEND
0
POLYLINE
8
0
66
1
10
0.0
20
0.0
30
0.0
0
VERTEX
8
0
10
3400.0
20
14025.0
0
VERTEX
8
0
10
3400.0
20
13775.0
0
VERTEX
8
0
10
3405.0
20
13775.0
0
VERTEX
8
0
10
3475.0
20
14025.0
0
VERTEX
8
0
10
3400.0
20
14025.0
0
SEQEND
0
POLYLINE
8
0
66
1
10
0.0
20
0.0
30
0.0
0
VERTEX
8
0
10
3400.0
20
14025.0
0
VERTEX
8
0
10
3400.0
20
13775.0
0
VERTEX
8
0
10
3395.0
20
13775.0
0
VERTEX
8
0
10
3325.0
20
14025.0
0
VERTEX
8
0
10
3400.0
20
14025.0
0
SEQEND
0
POLYLINE
8
0
66
1
10
0.0
20
0.0
30
0.0
0
VERTEX
8
0
10
3325.0
20
12100.0
0
VERTEX
8
0
10
3325.0
20
11775.0
0
VERTEX
8
0
10
3475.0
20
11775.0
0
VERTEX
8
0
10
3475.0
20
12100.0
0
VERTEX
8
0
10
3325.0
20
12100.0
0
SEQEND
0
POLYLINE
8
0
66
1
10
0.0
20
0.0
30
0.0
0
VERTEX
8
0
10
3400.0
20
11775.0
0
VERTEX
8
0
10
3400.0
20
11525.0
0
VERTEX
8
0
10
3405.0
20
11525.0
0
VERTEX
8
0
10
3475.0
20
11775.0
0
VERTEX
8
0
10
3400.0
20
11775.0
0
SEQEND
0
POLYLINE
8
0
66
1
10
0.0
20
0.0
30
0.0
0
VERTEX
8
0
10
3400.0
20
11775.0
0
VERTEX
8
0
10
3400.0
20
11525.0
0
VERTEX
8
0
10
3395.0
20
11525.0
0
VERTEX
8
0
10
3325.0
20
11775.0
0
VERTEX
8
0
10
3400.0
20
11775.0
0
SEQEND
0
POLYLINE
8
0
66
1
10
0.0
20
0.0
30
0.0
0
VERTEX
8
0
10
2825.0
20
875.0
0
VERTEX
8
0
10
2500.0
20
875.0
0
VERTEX
8
0
10
2500.0
20
725.0
0
VERTEX
8
0
10
2825.0
20
725.0
0
VERTEX
8
0
10
2825.0
20
875.0
0
SEQEND
0
POLYLINE
8
0
66
1
10
0.0
20
0.0
30
0.0
0
VERTEX
8
0
10
2500.0
20
800.0
0
VERTEX
8
0
10
2250.0
20
800.0
0
VERTEX
8
0
10
2250.0
20
795.0
0
VERTEX
8
0
10
2500.0
20
725.0
0
VERTEX
8
0
10
2500.0
20
800.0
0
SEQEND
0
POLYLINE
8
0
66
1
10
0.0
20
0.0
30
0.0
0
VERTEX
8
0
10
2500.0
20
800.0
0
VERTEX
8
0
10
2250.0
20
800.0
0
VERTEX
8
0
10
2250.0
20
805.0
0
VERTEX
8
0
10
2500.0
20
875.0
0
VERTEX
8
0
10
2500.0
20
800.0
0
SEQEND
0
POLYLINE
8
0
66
1
10
0.0
20
0.0
30
0.0
0
VERTEX
8
0
10
-1225.0
20
725.0
0
VERTEX
8
0
10
-900.0
20
725.0
0
VERTEX
8
0
10
-900.0
20
875.0
0
VERTEX
8
0
10
-1225.0
20
875.0
0
VERTEX
8
0
10
-1225.0
20
725.0
0
SEQEND
0
POLYLINE
8
0
66
1
10
0.0
20
0.0
30
0.0
0
VERTEX
8
0
10
-900.0
20
800.0
0
VERTEX
8
0
10
-650.0
20
800.0
0
VERTEX
8
0
10
-650.0
20
805.0
0
VERTEX
8
0
10
-900.0
20
875.0
0
VERTEX
8
0
10
-900.0
20
800.0
0
SEQEND
0
POLYLINE
8
0
66
1
10
0.0
20
0.0
30
0.0
0
VERTEX
8
0
10
-900.0
20
800.0
0
VERTEX
8
0
10
-650.0
20
800.0
0
VERTEX
8
0
10
-650.0
20
795.0
0
VERTEX
8
0
10
-900.0
20
725.0
0
VERTEX
8
0
10
-900.0
20
800.0
0
SEQEND
0
POLYLINE
8
0
66
1
10
0.0
20
0.0
30
0.0
0
VERTEX
8
0
10
-1875.0
20
12095.0
0
VERTEX
8
0
10
-1875.0
20
11770.0
0
VERTEX
8
0
10
-1725.0
20
11770.0
0
VERTEX
8
0
10
-1725.0
20
12095.0
0
VERTEX
8
0
10
-1875.0
20
12095.0
0
SEQEND
0
POLYLINE
8
0
66
1
10
0.0
20
0.0
30
0.0
0
VERTEX
8
0
10
-1800.0
20
11770.0
0
VERTEX
8
0
10
-1800.0
20
11520.0
0
VERTEX
8
0
10
-1795.0
20
11520.0
0
VERTEX
8
0
10
-1725.0
20
11770.0
0
VERTEX
8
0
10
-1800.0
20
11770.0
0
SEQEND
0
POLYLINE
8
0
66
1
10
0.0
20
0.0
30
0.0
0
VERTEX
8
0
10
-1800.0
20
11770.0
0
VERTEX
8
0
10
-1800.0
20
11520.0
0
VERTEX
8
0
10
-1805.0
20
11520.0
0
VERTEX
8
0
10
-1875.0
20
11770.0
0
VERTEX
8
0
10
-1800.0
20
11770.0
0
SEQEND
0
POLYLINE
8
0
66
1
10
0.0
20
0.0
30
0.0
0
VERTEX
8
0
10
-1875.0
20
14350.0
0
VERTEX
8
0
10
-1875.0
20
14025.0
0
VERTEX
8
0
10
-1725.0
20
14025.0
0
VERTEX
8
0
10
-1725.0
20
14350.0
0
VERTEX
8
0
10
-1875.0
20
14350.0
0
SEQEND
0
POLYLINE
8
0
66
1
10
0.0
20
0.0
30
0.0
0
VERTEX
8
0
10
-1800.0
20
14025.0
0
VERTEX
8
0
10
-1800.0
20
13775.0
0
VERTEX
8
0
10
-1795.0
20
13775.0
0
VERTEX
8
0
10
-1725.0
20
14025.0
0
VERTEX
8
0
10
-1800.0
20
14025.0
0
SEQEND
0
POLYLINE
8
0
66
1
10
0.0
20
0.0
30
0.0
0
VERTEX
8
0
10
-1800.0
20
14025.0
0
VERTEX
8
0
10
-1800.0
20
13775.0
0
VERTEX
8
0
10
-1805.0
20
13775.0
0
VERTEX
8
0
10
-1875.0
20
14025.0
0
VERTEX
8
0
10
-1800.0
20
14025.0
0
SEQEND
0
POLYLINE
8
0
66
1
10
0.0
20
0.0
30
0.0
0
VERTEX
8
0
10
2825.0
20
25425.0
0
VERTEX
8
0
10
2500.0
20
25425.0
0
VERTEX
8
0
10
2500.0
20
25275.0
0
VERTEX
8
0
10
2825.0
20
25275.0
0
VERTEX
8
0
10
2825.0
20
25425.0
0
SEQEND
0
POLYLINE
8
0
66
1
10
0.0
20
0.0
30
0.0
0
VERTEX
8
0
10
2500.0
20
25350.0
0
VERTEX
8
0
10
2250.0
20
25350.0
0
VERTEX
8
0
10
2250.0
20
25345.0
0
VERTEX
8
0
10
2500.0
20
25275.0
0
VERTEX
8
0
10
2500.0
20
25350.0
0
SEQEND
0
POLYLINE
8
0
66
1
10
0.0
20
0.0
30
0.0
0
VERTEX
8
0
10
2500.0
20
25350.0
0
VERTEX
8
0
10
2250.0
20
25350.0
0
VERTEX
8
0
10
2250.0
20
25355.0
0
VERTEX
8
0
10
2500.0
20
25425.0
0
VERTEX
8
0
10
2500.0
20
25350.0
0
SEQEND
0
POLYLINE
8
0
66
1
10
0.0
20
0.0
30
0.0
0
VERTEX
8
0
10
3325.0
20
14350.0
0
VERTEX
8
0
10
3325.0
20
14025.0
0
VERTEX
8
0
10
3475.0
20
14025.0
0
VERTEX
8
0
10
3475.0
20
14350.0
0
VERTEX
8
0
10
3325.0
20
14350.0
0
SEQEND
0
POLYLINE
8
0
66
1
10
0.0
20
0.0
30
0.0
0
VERTEX
8
0
10
3400.0
20
14025.0
0
VERTEX
8
0
10
3400.0
20
13775.0
0
VERTEX
8
0
10
3405.0
20
13775.0
0
VERTEX
8
0
10
3475.0
20
14025.0
0
VERTEX
8
0
10
3400.0
20
14025.0
0
SEQEND
0
POLYLINE
8
0
66
1
10
0.0
20
0.0
30
0.0
0
VERTEX
8
0
10
3400.0
20
14025.0
0
VERTEX
8
0
10
3400.0
20
13775.0
0
VERTEX
8
0
10
3395.0
20
13775.0
0
VERTEX
8
0
10
3325.0
20
14025.0
0
VERTEX
8
0
10
3400.0
20
14025.0
0
SEQEND
0
POLYLINE
8
0
66
1
10
0.0
20
0.0
30
0.0
0
VERTEX
8
0
10
3325.0
20
12100.0
0
VERTEX
8
0
10
3325.0
20
11775.0
0
VERTEX
8
0
10
3475.0
20
11775.0
0
VERTEX
8
0
10
3475.0
20
12100.0
0
VERTEX
8
0
10
3325.0
20
12100.0
0
SEQEND
0
POLYLINE
8
0
66
1
10
0.0
20
0.0
30
0.0
0
VERTEX
8
0
10
3400.0
20
11775.0
0
VERTEX
8
0
10
3400.0
20
11525.0
0
VERTEX
8
0
10
3405.0
20
11525.0
0
VERTEX
8
0
10
3475.0
20
11775.0
0
VERTEX
8
0
10
3400.0
20
11775.0
0
SEQEND
0
POLYLINE
8
0
66
1
10
0.0
20
0.0
30
0.0
0
VERTEX
8
0
10
3400.0
20
11775.0
0
VERTEX
8
0
10
3400.0
20
11525.0
0
VERTEX
8
0
10
3395.0
20
11525.0
0
VERTEX
8
0
10
3325.0
20
11775.0
0
VERTEX
8
0
10
3400.0
20
11775.0
0
SEQEND
0
POLYLINE
8
0
66
1
10
0.0
20
0.0
30
0.0
0
VERTEX
8
0
10
2825.0
20
875.0
0
VERTEX
8
0
10
2500.0
20
875.0
0
VERTEX
8
0
10
2500.0
20
725.0
0
VERTEX
8
0
10
2825.0
20
725.0
0
VERTEX
8
0
10
2825.0
20
875.0
0
SEQEND
0
POLYLINE
8
0
66
1
10
0.0
20
0.0
30
0.0
0
VERTEX
8
0
10
2500.0
20
800.0
0
VERTEX
8
0
10
2250.0
20
800.0
0
VERTEX
8
0
10
2250.0
20
795.0
0
VERTEX
8
0
10
2500.0
20
725.0
0
VERTEX
8
0
10
2500.0
20
800.0
0
SEQEND
0
POLYLINE
8
0
66
1
10
0.0
20
0.0
30
0.0
0
VERTEX
8
0
10
2500.0
20
800.0
0
VERTEX
8
0
10
2250.0
20
800.0
0
VERTEX
8
0
10
2250.0
20
805.0
0
VERTEX
8
0
10
2500.0
20
875.0
0
VERTEX
8
0
10
2500.0
20
800.0
0
SEQEND
0
POLYLINE
8
0
66
1
10
0.0
20
0.0
30
0.0
0
VERTEX
8
0
10
-1225.0
20
725.0
0
VERTEX
8
0
10
-900.0
20
725.0
0
VERTEX
8
0
10
-900.0
20
875.0
0
VERTEX
8
0
10
-1225.0
20
875.0
0
VERTEX
8
0
10
-1225.0
20
725.0
0
SEQEND
0
POLYLINE
8
0
66
1
10
0.0
20
0.0
30
0.0
0
VERTEX
8
0
10
-900.0
20
800.0
0
VERTEX
8
0
10
-650.0
20
800.0
0
VERTEX
8
0
10
-650.0
20
805.0
0
VERTEX
8
0
10
-900.0
20
875.0
0
VERTEX
8
0
10
-900.0
20
800.0
0
SEQEND
0
POLYLINE
8
0
66
1
10
0.0
20
0.0
30
0.0
0
VERTEX
8
0
10
-900.0
20
800.0
0
VERTEX
8
0
10
-650.0
20
800.0
0
VERTEX
8
0
10
-650.0
20
795.0
0
VERTEX
8
0
10
-900.0
20
725.0
0
VERTEX
8
0
10
-900.0
20
800.0
0
SEQEND
0
POLYLINE
8
0
66
1
10
0.0
20
0.0
30
0.0
0
VERTEX
8
0
10
820.0
20
21114.0
0
VERTEX
8
0
10
820.0
20
21134.0
0
VERTEX
8
0
10
780.0
20
21134.0
0
VERTEX
8
0
10
780.0
20
21114.0
0
VERTEX
8
0
10
820.0
20
21114.0
0
SEQEND
0
POLYLINE
8
0
66
1
10
0.0
20
0.0
30
0.0
0
VERTEX
8
0
10
800.0
20
21134.0
0
VERTEX
8
0
10
800.0
20
21144.0
0
VERTEX
8
0
10
799.6850000000013
20
21144.0
0
VERTEX
8
0
10
780.0
20
21134.0
0
VERTEX
8
0
10
800.0
20
21134.0
0
SEQEND
0
POLYLINE
8
0
66
1
10
0.0
20
0.0
30
0.0
0
VERTEX
8
0
10
800.0
20
21134.0
0
VERTEX
8
0
10
800.0
20
21144.0
0
VERTEX
8
0
10
800.3149999999987
20
21144.0
0
VERTEX
8
0
10
820.0
20
21134.0
0
VERTEX
8
0
10
800.0
20
21134.0
0
SEQEND
0
POLYLINE
8
0
66
1
10
0.0
20
0.0
30
0.0
0
VERTEX
8
0
10
800.3149999999987
20
21144.0
0
VERTEX
8
0
10
800.3149999999987
20
21146.0
0
VERTEX
8
0
10
799.6850000000013
20
21146.0
0
VERTEX
8
0
10
799.6850000000013
20
21144.0
0
VERTEX
8
0
10
800.3149999999987
20
21144.0
0
SEQEND
0
POLYLINE
8
0
66
1
10
0.0
20
0.0
30
0.0
0
VERTEX
8
0
10
800.0
20
21146.15
0
VERTEX
8
0
10
800.0
20
21156.15
0
VERTEX
8
0
10
780.0
20
21156.15
0
VERTEX
8
0
10
797.5
20
21146.15
0
VERTEX
8
0
10
800.0
20
21146.15
0
SEQEND
0
POLYLINE
8
0
66
1
10
0.0
20
0.0
30
0.0
0
VERTEX
8
0
10
800.0
20
21146.15
0
VERTEX
8
0
10
800.0
20
21156.15
0
VERTEX
8
0
10
820.0
20
21156.15
0
VERTEX
8
0
10
802.5
20
21146.15
0
VERTEX
8
0
10
800.0
20
21146.15
0
SEQEND
0
POLYLINE
8
0
66
1
10
0.0
20
0.0
30
0.0
0
VERTEX
8
0
10
820.0
20
21156.15
0
VERTEX
8
0
10
820.0
20
21176.15
0
VERTEX
8
0
10
780.0
20
21176.15
0
VERTEX
8
0
10
780.0
20
21156.15
0
VERTEX
8
0
10
820.0
20
21156.15
0
SEQEND
0
POLYLINE
8
0
66
1
10
0.0
20
0.0
30
0.0
0
VERTEX
8
0
10
820.0
20
2254.0
0
VERTEX
8
0
10
820.0
20
2274.0
0
VERTEX
8
0
10
780.0
20
2274.0
0
VERTEX
8
0
10
780.0
20
2254.0
0
VERTEX
8
0
10
820.0
20
2254.0
0
SEQEND
0
POLYLINE
8
0
66
1
10
0.0
20
0.0
30
0.0
0
VERTEX
8
0
10
800.0
20
2274.0
0
VERTEX
8
0
10
800.0
20
2284.0
0
VERTEX
8
0
10
799.685
20
2284.0
0
VERTEX
8
0
10
780.0
20
2274.0
0
VERTEX
8
0
10
800.0
20
2274.0
0
SEQEND
0
POLYLINE
8
0
66
1
10
0.0
20
0.0
30
0.0
0
VERTEX
8
0
10
800.0
20
2274.0
0
VERTEX
8
0
10
800.0
20
2284.0
0
VERTEX
8
0
10
800.315
20
2284.0
0
VERTEX
8
0
10
820.0
20
2274.0
0
VERTEX
8
0
10
800.0
20
2274.0
0
SEQEND
0
POLYLINE
8
0
66
1
10
0.0
20
0.0
30
0.0
0
VERTEX
8
0
10
800.315
20
2284.0
0
VERTEX
8
0
10
800.315
20
2286.0
0
VERTEX
8
0
10
799.685
20
2286.0
0
VERTEX
8
0
10
799.685
20
2284.0
0
VERTEX
8
0
10
800.315
20
2284.0
0
SEQEND
0
POLYLINE
8
0
66
1
10
0.0
20
0.0
30
0.0
0
VERTEX
8
0
10
800.0
20
2286.15
0
VERTEX
8
0
10
800.0
20
2296.15
0
VERTEX
8
0
10
780.0
20
2296.15
0
VERTEX
8
0
10
797.5
20
2286.15
0
VERTEX
8
0
10
800.0
20
2286.15
0
SEQEND
0
POLYLINE
8
0
66
1
10
0.0
20
0.0
30
0.0
0
VERTEX
8
0
10
800.0
20
2286.15
0
VERTEX
8
0
10
800.0
20
2296.15
0
VERTEX
8
0
10
820.0
20
2296.15
0
VERTEX
8
0
10
802.5
20
2286.15
0
VERTEX
8
0
10
800.0
20
2286.15
0
SEQEND
0
POLYLINE
8
0
66
1
10
0.0
20
0.0
30
0.0
0
VERTEX
8
0
10
820.0
20
2296.15
0
VERTEX
8
0
10
820.0
20
2316.15
0
VERTEX
8
0
10
780.0
20
2316.15
0
VERTEX
8
0
10
780.0
20
2296.15
0
VERTEX
8
0
10
820.0
20
2296.15
0
SEQEND
0
POLYLINE
8
0
66
1
10
0.0
20
0.0
30
0.0
0
VERTEX
8
0
10
820.0
20
4754.0
0
VERTEX
8
0
10
820.0
20
4774.0
0
VERTEX
8
0
10
780.0
20
4774.0
0
VERTEX
8
0
10
780.0
20
4754.0
0
VERTEX
8
0
10
820.0
20
4754.0
0
SEQEND
0
POLYLINE
8
0
66
1
10
0.0
20
0.0
30
0.0
0
VERTEX
8
0
10
800.0
20
4774.0
0
VERTEX
8
0
10
800.0
20
4784.0
0
VERTEX
8
0
10
799.6850000000004
20
4784.0
0
VERTEX
8
0
10
780.0
20
4774.0
0
VERTEX
8
0
10
800.0
20
4774.0
0
SEQEND
0
POLYLINE
8
0
66
1
10
0.0
20
0.0
30
0.0
0
VERTEX
8
0
10
800.0
20
4774.0
0
VERTEX
8
0
10
800.0
20
4784.0
0
VERTEX
8
0
10
800.3149999999996
20
4784.0
0
VERTEX
8
0
10
820.0
20
4774.0
0
VERTEX
8
0
10
800.0
20
4774.0
0
SEQEND
0
POLYLINE
8
0
66
1
10
0.0
20
0.0
30
0.0
0
VERTEX
8
0
10
800.3149999999996
20
4784.0
0
VERTEX
8
0
10
800.3149999999996
20
4786.0
0
VERTEX
8
0
10
799.6850000000004
20
4786.0
0
VERTEX
8
0
10
799.6850000000004
20
4784.0
0
VERTEX
8
0
10
800.3149999999996
20
4784.0
0
SEQEND
0
POLYLINE
8
0
66
1
10
0.0
20
0.0
30
0.0
0
VERTEX
8
0
10
800.0
20
4786.15
0
VERTEX
8
0
10
800.0
20
4796.15
0
VERTEX
8
0
10
780.0
20
4796.15
0
VERTEX
8
0
10
797.5
20
4786.15
0
VERTEX
8
0
10
800.0
20
4786.15
0
SEQEND
0
POLYLINE
8
0
66
1
10
0.0
20
0.0
30
0.0
0
VERTEX
8
0
10
800.0
20
4786.15
0
VERTEX
8
0
10
800.0
20
4796.15
0
VERTEX
8
0
10
820.0
20
4796.15
0
VERTEX
8
0
10
802.5
20
4786.15
0
VERTEX
8
0
10
800.0
20
4786.15
0
SEQEND
0
POLYLINE
8
0
66
1
10
0.0
20
0.0
30
0.0
0
VERTEX
8
0
10
820.0
20
4796.15
0
VERTEX
8
0
10
820.0
20
4816.15
0
VERTEX
8
0
10
780.0
20
4816.15
0
VERTEX
8
0
10
780.0
20
4796.15
0
VERTEX
8
0
10
820.0
20
4796.15
0
SEQEND
0
POLYLINE
8
0
66
1
10
0.0
20
0.0
30
0.0
0
VERTEX
8
0
10
820.0
20
7254.0
0
VERTEX
8
0
10
820.0
20
7274.0
0
VERTEX
8
0
10
780.0
20
7274.0
0
VERTEX
8
0
10
780.0
20
7254.0
0
VERTEX
8
0
10
820.0
20
7254.0
0
SEQEND
0
POLYLINE
8
0
66
1
10
0.0
20
0.0
30
0.0
0
VERTEX
8
0
10
800.0
20
7274.0
0
VERTEX
8
0
10
800.0
20
7284.0
0
VERTEX
8
0
10
799.6850000000004
20
7284.0
0
VERTEX
8
0
10
780.0
20
7274.0
0
VERTEX
8
0
10
800.0
20
7274.0
0
SEQEND
0
POLYLINE
8
0
66
1
10
0.0
20
0.0
30
0.0
0
VERTEX
8
0
10
800.0
20
7274.0
0
VERTEX
8
0
10
800.0
20
7284.0
0
VERTEX
8
0
10
800.3149999999996
20
7284.0
0
VERTEX
8
0
10
820.0
20
7274.0
0
VERTEX
8
0
10
800.0
20
7274.0
0
SEQEND
0
POLYLINE
8
0
66
1
10
0.0
20
0.0
30
0.0
0
VERTEX
8
0
10
800.3149999999996
20
7284.0
0
VERTEX
8
0
10
800.3149999999996
20
7286.0
0
VERTEX
8
0
10
799.6850000000004
20
7286.0
0
VERTEX
8
0
10
799.6850000000004
20
7284.0
0
VERTEX
8
0
10
800.3149999999996
20
7284.0
0
SEQEND
0
POLYLINE
8
0
66
1
10
0.0
20
0.0
30
0.0
0
VERTEX
8
0
10
800.0
20
7286.15
0
VERTEX
8
0
10
800.0
20
7296.15
0
VERTEX
8
0
10
780.0
20
7296.15
0
VERTEX
8
0
10
797.5
20
7286.15
0
VERTEX
8
0
10
800.0
20
7286.15
0
SEQEND
0
POLYLINE
8
0
66
1
10
0.0
20
0.0
30
0.0
0
VERTEX
8
0
10
800.0
20
7286.15
0
VERTEX
8
0
10
800.0
20
7296.15
0
VERTEX
8
0
10
820.0
20
7296.15
0
VERTEX
8
0
10
802.5
20
7286.15
0
VERTEX
8
0
10
800.0
20
7286.15
0
SEQEND
0
POLYLINE
8
0
66
1
10
0.0
20
0.0
30
0.0
0
VERTEX
8
0
10
820.0
20
7296.15
0
VERTEX
8
0
10
820.0
20
7316.15
0
VERTEX
8
0
10
780.0
20
7316.15
0
VERTEX
8
0
10
780.0
20
7296.15
0
VERTEX
8
0
10
820.0
20
7296.15
0
SEQEND
0
ENDBLK
0
BLOCK
8
0
2
Q14
70
0
10
0
20
0
30
0
3
Q14
0
POLYLINE
8
GAP
66
1
10
0.0
20
0.0
30
0.0
0
VERTEX
8
GAP
10
-100.0
20
26050.0
0
VERTEX
8
GAP
10
0.0
20
26050.0
0
VERTEX
8
GAP
10
0.0
20
26030.0
0
VERTEX
8
GAP
10
-80.0
20
26030.0
0
VERTEX
8
GAP
10
-80.0
20
25950.0
0
VERTEX
8
GAP
10
-100.0
20
25950.0
0
VERTEX
8
GAP
10
-100.0
20
26050.0
0
SEQEND
0
POLYLINE
8
GAP
66
1
10
0.0
20
0.0
30
0.0
0
VERTEX
8
GAP
10
-100.0
20
-100.0
0
VERTEX
8
GAP
10
0.0
20
-100.0
0
VERTEX
8
GAP
10
0.0
20
-80.0
0
VERTEX
8
GAP
10
-80.0
20
-80.0
0
VERTEX
8
GAP
10
-80.0
20
0.0
0
VERTEX
8
GAP
10
-100.0
20
0.0
0
VERTEX
8
GAP
10
-100.0
20
-100.0
0
SEQEND
0
POLYLINE
8
GAP
66
1
10
0.0
20
0.0
30
0.0
0
VERTEX
8
GAP
10
1700.0
20
-100.0
0
VERTEX
8
GAP
10
1600.0
20
-100.0
0
VERTEX
8
GAP
10
1600.0
20
-80.0
0
VERTEX
8
GAP
10
1680.0
20
-80.0
0
VERTEX
8
GAP
10
1680.0
20
0.0
0
VERTEX
8
GAP
10
1700.0
20
0.0
0
VERTEX
8
GAP
10
1700.0
20
-100.0
0
SEQEND
0
POLYLINE
8
GAP
66
1
10
0.0
20
0.0
30
0.0
0
VERTEX
8
GAP
10
1700.0
20
26050.0
0
VERTEX
8
GAP
10
1600.0
20
26050.0
0
VERTEX
8
GAP
10
1600.0
20
26030.0
0
VERTEX
8
GAP
10
1680.0
20
26030.0
0
VERTEX
8
GAP
10
1680.0
20
25950.0
0
VERTEX
8
GAP
10
1700.0
20
25950.0
0
VERTEX
8
GAP
10
1700.0
20
26050.0
0
SEQEND
0
POLYLINE
8
GAP
66
1
10
0.0
20
0.0
30
0.0
0
VERTEX
8
GAP
10
117.14285714285711
20
26050.0
0
VERTEX
8
GAP
10
197.1428571428571
20
26050.0
0
VERTEX
8
GAP
10
197.1428571428571
20
26030.0
0
VERTEX
8
GAP
10
117.14285714285711
20
26030.0
0
VERTEX
8
GAP
10
117.14285714285711
20
26050.0
0
SEQEND
0
POLYLINE
8
GAP
66
1
10
0.0
20
0.0
30
0.0
0
VERTEX
8
GAP
10
117.14285714285711
20
-100.0
0
VERTEX
8
GAP
10
197.1428571428571
20
-100.0
0
VERTEX
8
GAP
10
197.1428571428571
20
-80.0
0
VERTEX
8
GAP
10
117.14285714285711
20
-80.0
0
VERTEX
8
GAP
10
117.14285714285711
20
-100.0
0
SEQEND
0
POLYLINE
8
GAP
66
1
10
0.0
20
0.0
30
0.0
0
VERTEX
8
GAP
10
-100.0
20
3595.7142857142853
0
VERTEX
8
GAP
10
-100.0
20
3675.7142857142853
0
VERTEX
8
GAP
10
-80.0
20
3675.7142857142853
0
VERTEX
8
GAP
10
-80.0
20
3595.7142857142853
0
VERTEX
8
GAP
10
-100.0
20
3595.7142857142853
0
SEQEND
0
POLYLINE
8
GAP
66
1
10
0.0
20
0.0
30
0.0
0
VERTEX
8
GAP
10
1700.0
20
3595.7142857142853
0
VERTEX
8
GAP
10
1700.0
20
3675.7142857142853
0
VERTEX
8
GAP
10
1680.0
20
3675.7142857142853
0
VERTEX
8
GAP
10
1680.0
20
3595.7142857142853
0
VERTEX
8
GAP
10
1700.0
20
3595.7142857142853
0
SEQEND
0
POLYLINE
8
GAP
66
1
10
0.0
20
0.0
30
0.0
0
VERTEX
8
GAP
10
374.2857142857142
20
26050.0
0
VERTEX
8
GAP
10
454.2857142857142
20
26050.0
0
VERTEX
8
GAP
10
454.2857142857142
20
26030.0
0
VERTEX
8
GAP
10
374.2857142857142
20
26030.0
0
VERTEX
8
GAP
10
374.2857142857142
20
26050.0
0
SEQEND
0
POLYLINE
8
GAP
66
1
10
0.0
20
0.0
30
0.0
0
VERTEX
8
GAP
10
374.2857142857142
20
-100.0
0
VERTEX
8
GAP
10
454.2857142857142
20
-100.0
0
VERTEX
8
GAP
10
454.2857142857142
20
-80.0
0
VERTEX
8
GAP
10
374.2857142857142
20
-80.0
0
VERTEX
8
GAP
10
374.2857142857142
20
-100.0
0
SEQEND
0
POLYLINE
8
GAP
66
1
10
0.0
20
0.0
30
0.0
0
VERTEX
8
GAP
10
-100.0
20
7331.428571428571
0
VERTEX
8
GAP
10
-100.0
20
7411.428571428571
0
VERTEX
8
GAP
10
-80.0
20
7411.428571428571
0
VERTEX
8
GAP
10
-80.0
20
7331.428571428571
0
VERTEX
8
GAP
10
-100.0
20
7331.428571428571
0
SEQEND
0
POLYLINE
8
GAP
66
1
10
0.0
20
0.0
30
0.0
0
VERTEX
8
GAP
10
1700.0
20
7331.428571428571
0
VERTEX
8
GAP
10
1700.0
20
7411.428571428571
0
VERTEX
8
GAP
10
1680.0
20
7411.428571428571
0
VERTEX
8
GAP
10
1680.0
20
7331.428571428571
0
VERTEX
8
GAP
10
1700.0
20
7331.428571428571
0
SEQEND
0
POLYLINE
8
GAP
66
1
10
0.0
20
0.0
30
0.0
0
VERTEX
8
GAP
10
631.4285714285713
20
26050.0
0
VERTEX
8
GAP
10
711.4285714285713
20
26050.0
0
VERTEX
8
GAP
10
711.4285714285713
20
26030.0
0
VERTEX
8
GAP
10
631.4285714285713
20
26030.0
0
VERTEX
8
GAP
10
631.4285714285713
20
26050.0
0
SEQEND
0
POLYLINE
8
GAP
66
1
10
0.0
20
0.0
30
0.0
0
VERTEX
8
GAP
10
631.4285714285713
20
-100.0
0
VERTEX
8
GAP
10
711.4285714285713
20
-100.0
0
VERTEX
8
GAP
10
711.4285714285713
20
-80.0
0
VERTEX
8
GAP
10
631.4285714285713
20
-80.0
0
VERTEX
8
GAP
10
631.4285714285713
20
-100.0
0
SEQEND
0
POLYLINE
8
GAP
66
1
10
0.0
20
0.0
30
0.0
0
VERTEX
8
GAP
10
-100.0
20
11067.142857142857
0
VERTEX
8
GAP
10
-100.0
20
11147.142857142857
0
VERTEX
8
GAP
10
-80.0
20
11147.142857142857
0
VERTEX
8
GAP
10
-80.0
20
11067.142857142857
0
VERTEX
8
GAP
10
-100.0
20
11067.142857142857
0
SEQEND
0
POLYLINE
8
GAP
66
1
10
0.0
20
0.0
30
0.0
0
VERTEX
8
GAP
10
1700.0
20
11067.142857142857
0
VERTEX
8
GAP
10
1700.0
20
11147.142857142857
0
VERTEX
8
GAP
10
1680.0
20
11147.142857142857
0
VERTEX
8
GAP
10
1680.0
20
11067.142857142857
0
VERTEX
8
GAP
10
1700.0
20
11067.142857142857
0
SEQEND
0
POLYLINE
8
GAP
66
1
10
0.0
20
0.0
30
0.0
0
VERTEX
8
GAP
10
888.5714285714284
20
26050.0
0
VERTEX
8
GAP
10
968.5714285714284
20
26050.0
0
VERTEX
8
GAP
10
968.5714285714284
20
26030.0
0
VERTEX
8
GAP
10
888.5714285714284
20
26030.0
0
VERTEX
8
GAP
10
888.5714285714284
20
26050.0
0
SEQEND
0
POLYLINE
8
GAP
66
1
10
0.0
20
0.0
30
0.0
0
VERTEX
8
GAP
10
888.5714285714284
20
-100.0
0
VERTEX
8
GAP
10
968.5714285714284
20
-100.0
0
VERTEX
8
GAP
10
968.5714285714284
20
-80.0
0
VERTEX
8
GAP
10
888.5714285714284
20
-80.0
0
VERTEX
8
GAP
10
888.5714285714284
20
-100.0
0
SEQEND
0
POLYLINE
8
GAP
66
1
10
0.0
20
0.0
30
0.0
0
VERTEX
8
GAP
10
-100.0
20
14802.857142857141
0
VERTEX
8
GAP
10
-100.0
20
14882.857142857141
0
VERTEX
8
GAP
10
-80.0
20
14882.857142857141
0
VERTEX
8
GAP
10
-80.0
20
14802.857142857141
0
VERTEX
8
GAP
10
-100.0
20
14802.857142857141
0
SEQEND
0
POLYLINE
8
GAP
66
1
10
0.0
20
0.0
30
0.0
0
VERTEX
8
GAP
10
1700.0
20
14802.857142857141
0
VERTEX
8
GAP
10
1700.0
20
14882.857142857141
0
VERTEX
8
GAP
10
1680.0
20
14882.857142857141
0
VERTEX
8
GAP
10
1680.0
20
14802.857142857141
0
VERTEX
8
GAP
10
1700.0
20
14802.857142857141
0
SEQEND
0
POLYLINE
8
GAP
66
1
10
0.0
20
0.0
30
0.0
0
VERTEX
8
GAP
10
1145.7142857142858
20
26050.0
0
VERTEX
8
GAP
10
1225.7142857142858
20
26050.0
0
VERTEX
8
GAP
10
1225.7142857142858
20
26030.0
0
VERTEX
8
GAP
10
1145.7142857142858
20
26030.0
0
VERTEX
8
GAP
10
1145.7142857142858
20
26050.0
0
SEQEND
0
POLYLINE
8
GAP
66
1
10
0.0
20
0.0
30
0.0
0
VERTEX
8
GAP
10
1145.7142857142858
20
-100.0
0
VERTEX
8
GAP
10
1225.7142857142858
20
-100.0
0
VERTEX
8
GAP
10
1225.7142857142858
20
-80.0
0
VERTEX
8
GAP
10
1145.7142857142858
20
-80.0
0
VERTEX
8
GAP
10
1145.7142857142858
20
-100.0
0
SEQEND
0
POLYLINE
8
GAP
66
1
10
0.0
20
0.0
30
0.0
0
VERTEX
8
GAP
10
-100.0
20
18538.571428571428
0
VERTEX
8
GAP
10
-100.0
20
18618.571428571428
0
VERTEX
8
GAP
10
-80.0
20
18618.571428571428
0
VERTEX
8
GAP
10
-80.0
20
18538.571428571428
0
VERTEX
8
GAP
10
-100.0
20
18538.571428571428
0
SEQEND
0
POLYLINE
8
GAP
66
1
10
0.0
20
0.0
30
0.0
0
VERTEX
8
GAP
10
1700.0
20
18538.571428571428
0
VERTEX
8
GAP
10
1700.0
20
18618.571428571428
0
VERTEX
8
GAP
10
1680.0
20
18618.571428571428
0
VERTEX
8
GAP
10
1680.0
20
18538.571428571428
0
VERTEX
8
GAP
10
1700.0
20
18538.571428571428
0
SEQEND
0
POLYLINE
8
GAP
66
1
10
0.0
20
0.0
30
0.0
0
VERTEX
8
GAP
10
1402.8571428571427
20
26050.0
0
VERTEX
8
GAP
10
1482.8571428571427
20
26050.0
0
VERTEX
8
GAP
10
1482.8571428571427
20
26030.0
0
VERTEX
8
GAP
10
1402.8571428571427
20
26030.0
0
VERTEX
8
GAP
10
1402.8571428571427
20
26050.0
0
SEQEND
0
POLYLINE
8
GAP
66
1
10
0.0
20
0.0
30
0.0
0
VERTEX
8
GAP
10
1402.8571428571427
20
-100.0
0
VERTEX
8
GAP
10
1482.8571428571427
20
-100.0
0
VERTEX
8
GAP
10
1482.8571428571427
20
-80.0
0
VERTEX
8
GAP
10
1402.8571428571427
20
-80.0
0
VERTEX
8
GAP
10
1402.8571428571427
20
-100.0
0
SEQEND
0
POLYLINE
8
GAP
66
1
10
0.0
20
0.0
30
0.0
0
VERTEX
8
GAP
10
-100.0
20
22274.285714285714
0
VERTEX
8
GAP
10
-100.0
20
22354.285714285714
0
VERTEX
8
GAP
10
-80.0
20
22354.285714285714
0
VERTEX
8
GAP
10
-80.0
20
22274.285714285714
0
VERTEX
8
GAP
10
-100.0
20
22274.285714285714
0
SEQEND
0
POLYLINE
8
GAP
66
1
10
0.0
20
0.0
30
0.0
0
VERTEX
8
GAP
10
1700.0
20
22274.285714285714
0
VERTEX
8
GAP
10
1700.0
20
22354.285714285714
0
VERTEX
8
GAP
10
1680.0
20
22354.285714285714
0
VERTEX
8
GAP
10
1680.0
20
22274.285714285714
0
VERTEX
8
GAP
10
1700.0
20
22274.285714285714
0
SEQEND
0
ENDBLK
0
ENDSEC
0
SECTION
2
ENTITIES
0
INSERT
2
Q14GAP
8
GAP
10
0
20
0
0
INSERT
2
Q14PIN
8
PIN
10
0
20
0
0
INSERT
2
Q14
8
0
10
0
20
0
0
ENDSEC
0
EOF
