0
SECTION
2
HEADER
9
$ACADVER
1
AC1006
9
$INSBASE
10
0.0
20
0.0
30
0.0
9
$EXTMIN
10
0.0
20
0.0
9
$EXTMAX
10
0.0
20
0.0
0
ENDSEC
0
SECTION
2
TABLES
0
TABLE
2
LTYPE
70
1
0
LTYPE
2
CONTINUOUS
70
64
3
Solid line
72
65
73
0
40
0.0
0
ENDTAB
0
TABLE
2
LAYER
70
3
0
LAYER
2
PYDXF
70
64
62
7
6
continuous
0
LAYER
2
GAP
70
64
62
1
6
continuous
0
LAYER
2
PIN
70
64
62
3
6
continuous
0
ENDTAB
0
TABLE
2
STYLE
70
1
0
STYLE
2
STANDARD
70
0
40
0
41
40
50
50
71
0
42
1
3
ARIAL.TTF
4

0
ENDTAB
0
TABLE
2
VIEW
70
0
0
ENDTAB
0
ENDSEC
0
SECTION
2
BLOCKS
0
BLOCK
8
GAP
2
C1DGAP
70
0
10
0
20
0
30
0
3
C1DGAP
0
POLYLINE
8
0
66
1
10
0.0
20
0.0
30
0.0
0
VERTEX
8
0
10
2685.8499999999985
20
46050.2
0
VERTEX
8
0
10
2685.8499999999985
20
46050.0
0
VERTEX
8
0
10
2764.1500000000015
20
46050.0
0
VERTEX
8
0
10
2764.1500000000015
20
46050.2
0
VERTEX
8
0
10
2685.8499999999985
20
46050.2
0
SEQEND
0
POLYLINE
8
0
66
1
10
0.0
20
0.0
30
0.0
0
VERTEX
8
0
10
2708.8499999999985
20
46046.0
0
VERTEX
8
0
10
2708.8499999999985
20
46045.8
0
VERTEX
8
0
10
2741.1500000000015
20
46045.8
0
VERTEX
8
0
10
2741.1500000000015
20
46046.0
0
VERTEX
8
0
10
2708.8499999999985
20
46046.0
0
SEQEND
0
POLYLINE
8
0
66
1
10
0.0
20
0.0
30
0.0
0
VERTEX
8
0
10
2708.8499999999985
20
46032.200000000004
0
VERTEX
8
0
10
2708.8499999999985
20
46032.00000000001
0
VERTEX
8
0
10
2741.1500000000015
20
46032.00000000001
0
VERTEX
8
0
10
2741.1500000000015
20
46032.200000000004
0
VERTEX
8
0
10
2708.8499999999985
20
46032.200000000004
0
SEQEND
0
POLYLINE
8
0
66
1
10
0.0
20
0.0
30
0.0
0
VERTEX
8
0
10
2685.8499999999985
20
46028.00000000001
0
VERTEX
8
0
10
2685.8499999999985
20
46027.80000000001
0
VERTEX
8
0
10
2764.1500000000015
20
46027.80000000001
0
VERTEX
8
0
10
2764.1500000000015
20
46028.00000000001
0
VERTEX
8
0
10
2685.8499999999985
20
46028.00000000001
0
SEQEND
0
POLYLINE
8
0
66
1
10
0.0
20
0.0
30
0.0
0
VERTEX
8
0
10
2764.1500000000015
20
46050.0
0
VERTEX
8
0
10
2764.1500000000015
20
46028.0
0
VERTEX
8
0
10
2764.8499999999985
20
46028.0
0
VERTEX
8
0
10
2764.8499999999985
20
46050.0
0
VERTEX
8
0
10
2764.1500000000015
20
46050.0
0
SEQEND
0
POLYLINE
8
0
66
1
10
0.0
20
0.0
30
0.0
0
VERTEX
8
0
10
2685.8499999999985
20
46050.0
0
VERTEX
8
0
10
2685.8499999999985
20
46028.0
0
VERTEX
8
0
10
2685.1500000000015
20
46028.0
0
VERTEX
8
0
10
2685.1500000000015
20
46050.0
0
VERTEX
8
0
10
2685.8499999999985
20
46050.0
0
SEQEND
0
POLYLINE
8
0
66
1
10
0.0
20
0.0
30
0.0
0
VERTEX
8
0
10
2740.449999999997
20
46045.8
0
VERTEX
8
0
10
2740.449999999997
20
46032.200000000004
0
VERTEX
8
0
10
2741.149999999994
20
46032.200000000004
0
VERTEX
8
0
10
2741.149999999994
20
46045.8
0
VERTEX
8
0
10
2740.449999999997
20
46045.8
0
SEQEND
0
POLYLINE
8
0
66
1
10
0.0
20
0.0
30
0.0
0
VERTEX
8
0
10
2709.550000000003
20
46045.8
0
VERTEX
8
0
10
2709.550000000003
20
46032.200000000004
0
VERTEX
8
0
10
2708.850000000006
20
46032.200000000004
0
VERTEX
8
0
10
2708.850000000006
20
46045.8
0
VERTEX
8
0
10
2709.550000000003
20
46045.8
0
SEQEND
0
POLYLINE
8
0
66
1
10
0.0
20
0.0
30
0.0
0
VERTEX
8
0
10
2721.0
20
46050.2
0
VERTEX
8
0
10
2721.0
20
46050.0
0
VERTEX
8
0
10
2729.0
20
46050.0
0
VERTEX
8
0
10
2729.0
20
46050.2
0
VERTEX
8
0
10
2721.0
20
46050.2
0
SEQEND
0
POLYLINE
8
0
66
1
10
0.0
20
0.0
30
0.0
0
VERTEX
8
0
10
2721.0
20
46046.0
0
VERTEX
8
0
10
2721.0
20
46045.8
0
VERTEX
8
0
10
2729.0
20
46045.8
0
VERTEX
8
0
10
2729.0
20
46046.0
0
VERTEX
8
0
10
2721.0
20
46046.0
0
SEQEND
0
POLYLINE
8
0
66
1
10
0.0
20
0.0
30
0.0
0
VERTEX
8
0
10
2721.0
20
46050.0
0
VERTEX
8
0
10
2723.0
20
46050.0
0
VERTEX
8
0
10
2723.0
20
46050.2
0
VERTEX
8
0
10
2721.0
20
46050.2
0
VERTEX
8
0
10
2721.0
20
46050.0
0
SEQEND
0
POLYLINE
8
0
66
1
10
0.0
20
0.0
30
0.0
0
VERTEX
8
0
10
2721.0
20
46046.0
0
VERTEX
8
0
10
2723.0
20
46046.0
0
VERTEX
8
0
10
2723.0
20
46045.8
0
VERTEX
8
0
10
2721.0
20
46045.8
0
VERTEX
8
0
10
2721.0
20
46046.0
0
SEQEND
0
POLYLINE
8
0
66
1
10
0.0
20
0.0
30
0.0
0
VERTEX
8
0
10
2723.0
20
46050.0
0
VERTEX
8
0
10
2726.0
20
46048.45
0
VERTEX
8
0
10
2726.0
20
46048.649999999994
0
VERTEX
8
0
10
2723.0
20
46050.2
0
VERTEX
8
0
10
2723.0
20
46050.0
0
SEQEND
0
POLYLINE
8
0
66
1
10
0.0
20
0.0
30
0.0
0
VERTEX
8
0
10
2723.0
20
46046.0
0
VERTEX
8
0
10
2726.0
20
46047.55
0
VERTEX
8
0
10
2726.0
20
46047.350000000006
0
VERTEX
8
0
10
2723.0
20
46045.8
0
VERTEX
8
0
10
2723.0
20
46046.0
0
SEQEND
0
POLYLINE
8
0
66
1
10
0.0
20
0.0
30
0.0
0
VERTEX
8
0
10
2726.0
20
46048.45
0
VERTEX
8
0
10
2726.8
20
46048.45
0
VERTEX
8
0
10
2726.8
20
46048.649999999994
0
VERTEX
8
0
10
2726.0
20
46048.649999999994
0
VERTEX
8
0
10
2726.0
20
46048.45
0
SEQEND
0
POLYLINE
8
0
66
1
10
0.0
20
0.0
30
0.0
0
VERTEX
8
0
10
2726.0
20
46047.55
0
VERTEX
8
0
10
2726.8
20
46047.55
0
VERTEX
8
0
10
2726.8
20
46047.350000000006
0
VERTEX
8
0
10
2726.0
20
46047.350000000006
0
VERTEX
8
0
10
2726.0
20
46047.55
0
SEQEND
0
POLYLINE
8
0
66
1
10
0.0
20
0.0
30
0.0
0
VERTEX
8
0
10
2726.8
20
46046.8
0
VERTEX
8
0
10
2727.0
20
46046.8
0
VERTEX
8
0
10
2727.0
20
46049.2
0
VERTEX
8
0
10
2726.8
20
46049.2
0
VERTEX
8
0
10
2726.8
20
46046.8
0
SEQEND
0
POLYLINE
8
0
66
1
10
0.0
20
0.0
30
0.0
0
VERTEX
8
0
10
2727.0
20
46049.0
0
VERTEX
8
0
10
2729.0
20
46050.0
0
VERTEX
8
0
10
2729.0
20
46050.2
0
VERTEX
8
0
10
2727.0
20
46049.2
0
VERTEX
8
0
10
2727.0
20
46049.0
0
SEQEND
0
POLYLINE
8
0
66
1
10
0.0
20
0.0
30
0.0
0
VERTEX
8
0
10
2727.0
20
46047.0
0
VERTEX
8
0
10
2729.0
20
46046.0
0
VERTEX
8
0
10
2729.0
20
46045.8
0
VERTEX
8
0
10
2727.0
20
46046.8
0
VERTEX
8
0
10
2727.0
20
46047.0
0
SEQEND
0
POLYLINE
8
0
66
1
10
0.0
20
0.0
30
0.0
0
VERTEX
8
0
10
2721.0
20
46032.2
0
VERTEX
8
0
10
2721.0
20
46032.0
0
VERTEX
8
0
10
2729.0
20
46032.0
0
VERTEX
8
0
10
2729.0
20
46032.2
0
VERTEX
8
0
10
2721.0
20
46032.2
0
SEQEND
0
POLYLINE
8
0
66
1
10
0.0
20
0.0
30
0.0
0
VERTEX
8
0
10
2721.0
20
46028.0
0
VERTEX
8
0
10
2721.0
20
46027.8
0
VERTEX
8
0
10
2729.0
20
46027.8
0
VERTEX
8
0
10
2729.0
20
46028.0
0
VERTEX
8
0
10
2721.0
20
46028.0
0
SEQEND
0
POLYLINE
8
0
66
1
10
0.0
20
0.0
30
0.0
0
VERTEX
8
0
10
2721.0
20
46032.0
0
VERTEX
8
0
10
2723.0
20
46032.0
0
VERTEX
8
0
10
2723.0
20
46032.2
0
VERTEX
8
0
10
2721.0
20
46032.2
0
VERTEX
8
0
10
2721.0
20
46032.0
0
SEQEND
0
POLYLINE
8
0
66
1
10
0.0
20
0.0
30
0.0
0
VERTEX
8
0
10
2721.0
20
46028.0
0
VERTEX
8
0
10
2723.0
20
46028.0
0
VERTEX
8
0
10
2723.0
20
46027.8
0
VERTEX
8
0
10
2721.0
20
46027.8
0
VERTEX
8
0
10
2721.0
20
46028.0
0
SEQEND
0
POLYLINE
8
0
66
1
10
0.0
20
0.0
30
0.0
0
VERTEX
8
0
10
2723.0
20
46032.0
0
VERTEX
8
0
10
2726.0
20
46030.45
0
VERTEX
8
0
10
2726.0
20
46030.649999999994
0
VERTEX
8
0
10
2723.0
20
46032.2
0
VERTEX
8
0
10
2723.0
20
46032.0
0
SEQEND
0
POLYLINE
8
0
66
1
10
0.0
20
0.0
30
0.0
0
VERTEX
8
0
10
2723.0
20
46028.0
0
VERTEX
8
0
10
2726.0
20
46029.55
0
VERTEX
8
0
10
2726.0
20
46029.350000000006
0
VERTEX
8
0
10
2723.0
20
46027.8
0
VERTEX
8
0
10
2723.0
20
46028.0
0
SEQEND
0
POLYLINE
8
0
66
1
10
0.0
20
0.0
30
0.0
0
VERTEX
8
0
10
2726.0
20
46030.45
0
VERTEX
8
0
10
2726.8
20
46030.45
0
VERTEX
8
0
10
2726.8
20
46030.649999999994
0
VERTEX
8
0
10
2726.0
20
46030.649999999994
0
VERTEX
8
0
10
2726.0
20
46030.45
0
SEQEND
0
POLYLINE
8
0
66
1
10
0.0
20
0.0
30
0.0
0
VERTEX
8
0
10
2726.0
20
46029.55
0
VERTEX
8
0
10
2726.8
20
46029.55
0
VERTEX
8
0
10
2726.8
20
46029.350000000006
0
VERTEX
8
0
10
2726.0
20
46029.350000000006
0
VERTEX
8
0
10
2726.0
20
46029.55
0
SEQEND
0
POLYLINE
8
0
66
1
10
0.0
20
0.0
30
0.0
0
VERTEX
8
0
10
2726.8
20
46028.8
0
VERTEX
8
0
10
2727.0
20
46028.8
0
VERTEX
8
0
10
2727.0
20
46031.2
0
VERTEX
8
0
10
2726.8
20
46031.2
0
VERTEX
8
0
10
2726.8
20
46028.8
0
SEQEND
0
POLYLINE
8
0
66
1
10
0.0
20
0.0
30
0.0
0
VERTEX
8
0
10
2727.0
20
46031.0
0
VERTEX
8
0
10
2729.0
20
46032.0
0
VERTEX
8
0
10
2729.0
20
46032.2
0
VERTEX
8
0
10
2727.0
20
46031.2
0
VERTEX
8
0
10
2727.0
20
46031.0
0
SEQEND
0
POLYLINE
8
0
66
1
10
0.0
20
0.0
30
0.0
0
VERTEX
8
0
10
2727.0
20
46029.0
0
VERTEX
8
0
10
2729.0
20
46028.0
0
VERTEX
8
0
10
2729.0
20
46027.8
0
VERTEX
8
0
10
2727.0
20
46028.8
0
VERTEX
8
0
10
2727.0
20
46029.0
0
SEQEND
0
POLYLINE
8
0
66
1
10
0.0
20
0.0
30
0.0
0
VERTEX
8
0
10
1323.3499999999985
20
51611.2
0
VERTEX
8
0
10
1323.3499999999985
20
51611.0
0
VERTEX
8
0
10
1401.6500000000015
20
51611.0
0
VERTEX
8
0
10
1401.6500000000015
20
51611.2
0
VERTEX
8
0
10
1323.3499999999985
20
51611.2
0
SEQEND
0
POLYLINE
8
0
66
1
10
0.0
20
0.0
30
0.0
0
VERTEX
8
0
10
1346.3499999999985
20
51607.0
0
VERTEX
8
0
10
1346.3499999999985
20
51606.8
0
VERTEX
8
0
10
1378.6500000000015
20
51606.8
0
VERTEX
8
0
10
1378.6500000000015
20
51607.0
0
VERTEX
8
0
10
1346.3499999999985
20
51607.0
0
SEQEND
0
POLYLINE
8
0
66
1
10
0.0
20
0.0
30
0.0
0
VERTEX
8
0
10
1346.3499999999985
20
51593.200000000004
0
VERTEX
8
0
10
1346.3499999999985
20
51593.00000000001
0
VERTEX
8
0
10
1378.6500000000015
20
51593.00000000001
0
VERTEX
8
0
10
1378.6500000000015
20
51593.200000000004
0
VERTEX
8
0
10
1346.3499999999985
20
51593.200000000004
0
SEQEND
0
POLYLINE
8
0
66
1
10
0.0
20
0.0
30
0.0
0
VERTEX
8
0
10
1323.3499999999985
20
51589.00000000001
0
VERTEX
8
0
10
1323.3499999999985
20
51588.80000000001
0
VERTEX
8
0
10
1401.6500000000015
20
51588.80000000001
0
VERTEX
8
0
10
1401.6500000000015
20
51589.00000000001
0
VERTEX
8
0
10
1323.3499999999985
20
51589.00000000001
0
SEQEND
0
POLYLINE
8
0
66
1
10
0.0
20
0.0
30
0.0
0
VERTEX
8
0
10
1401.6500000000015
20
51611.0
0
VERTEX
8
0
10
1401.6500000000015
20
51589.0
0
VERTEX
8
0
10
1402.3499999999985
20
51589.0
0
VERTEX
8
0
10
1402.3499999999985
20
51611.0
0
VERTEX
8
0
10
1401.6500000000015
20
51611.0
0
SEQEND
0
POLYLINE
8
0
66
1
10
0.0
20
0.0
30
0.0
0
VERTEX
8
0
10
1323.3499999999985
20
51611.0
0
VERTEX
8
0
10
1323.3499999999985
20
51589.0
0
VERTEX
8
0
10
1322.6500000000015
20
51589.0
0
VERTEX
8
0
10
1322.6500000000015
20
51611.0
0
VERTEX
8
0
10
1323.3499999999985
20
51611.0
0
SEQEND
0
POLYLINE
8
0
66
1
10
0.0
20
0.0
30
0.0
0
VERTEX
8
0
10
1377.949999999997
20
51606.8
0
VERTEX
8
0
10
1377.949999999997
20
51593.200000000004
0
VERTEX
8
0
10
1378.6499999999942
20
51593.200000000004
0
VERTEX
8
0
10
1378.6499999999942
20
51606.8
0
VERTEX
8
0
10
1377.949999999997
20
51606.8
0
SEQEND
0
POLYLINE
8
0
66
1
10
0.0
20
0.0
30
0.0
0
VERTEX
8
0
10
1347.050000000003
20
51606.8
0
VERTEX
8
0
10
1347.050000000003
20
51593.200000000004
0
VERTEX
8
0
10
1346.3500000000058
20
51593.200000000004
0
VERTEX
8
0
10
1346.3500000000058
20
51606.8
0
VERTEX
8
0
10
1347.050000000003
20
51606.8
0
SEQEND
0
POLYLINE
8
0
66
1
10
0.0
20
0.0
30
0.0
0
VERTEX
8
0
10
1358.5
20
51611.2
0
VERTEX
8
0
10
1358.5
20
51611.0
0
VERTEX
8
0
10
1366.5
20
51611.0
0
VERTEX
8
0
10
1366.5
20
51611.2
0
VERTEX
8
0
10
1358.5
20
51611.2
0
SEQEND
0
POLYLINE
8
0
66
1
10
0.0
20
0.0
30
0.0
0
VERTEX
8
0
10
1358.5
20
51607.0
0
VERTEX
8
0
10
1358.5
20
51606.8
0
VERTEX
8
0
10
1366.5
20
51606.8
0
VERTEX
8
0
10
1366.5
20
51607.0
0
VERTEX
8
0
10
1358.5
20
51607.0
0
SEQEND
0
POLYLINE
8
0
66
1
10
0.0
20
0.0
30
0.0
0
VERTEX
8
0
10
1358.5
20
51611.0
0
VERTEX
8
0
10
1360.5
20
51611.0
0
VERTEX
8
0
10
1360.5
20
51611.2
0
VERTEX
8
0
10
1358.5
20
51611.2
0
VERTEX
8
0
10
1358.5
20
51611.0
0
SEQEND
0
POLYLINE
8
0
66
1
10
0.0
20
0.0
30
0.0
0
VERTEX
8
0
10
1358.5
20
51607.0
0
VERTEX
8
0
10
1360.5
20
51607.0
0
VERTEX
8
0
10
1360.5
20
51606.8
0
VERTEX
8
0
10
1358.5
20
51606.8
0
VERTEX
8
0
10
1358.5
20
51607.0
0
SEQEND
0
POLYLINE
8
0
66
1
10
0.0
20
0.0
30
0.0
0
VERTEX
8
0
10
1360.5
20
51611.0
0
VERTEX
8
0
10
1363.5
20
51609.45
0
VERTEX
8
0
10
1363.5
20
51609.649999999994
0
VERTEX
8
0
10
1360.5
20
51611.2
0
VERTEX
8
0
10
1360.5
20
51611.0
0
SEQEND
0
POLYLINE
8
0
66
1
10
0.0
20
0.0
30
0.0
0
VERTEX
8
0
10
1360.5
20
51607.0
0
VERTEX
8
0
10
1363.5
20
51608.55
0
VERTEX
8
0
10
1363.5
20
51608.350000000006
0
VERTEX
8
0
10
1360.5
20
51606.8
0
VERTEX
8
0
10
1360.5
20
51607.0
0
SEQEND
0
POLYLINE
8
0
66
1
10
0.0
20
0.0
30
0.0
0
VERTEX
8
0
10
1363.5
20
51609.45
0
VERTEX
8
0
10
1364.3
20
51609.45
0
VERTEX
8
0
10
1364.3
20
51609.649999999994
0
VERTEX
8
0
10
1363.5
20
51609.649999999994
0
VERTEX
8
0
10
1363.5
20
51609.45
0
SEQEND
0
POLYLINE
8
0
66
1
10
0.0
20
0.0
30
0.0
0
VERTEX
8
0
10
1363.5
20
51608.55
0
VERTEX
8
0
10
1364.3
20
51608.55
0
VERTEX
8
0
10
1364.3
20
51608.350000000006
0
VERTEX
8
0
10
1363.5
20
51608.350000000006
0
VERTEX
8
0
10
1363.5
20
51608.55
0
SEQEND
0
POLYLINE
8
0
66
1
10
0.0
20
0.0
30
0.0
0
VERTEX
8
0
10
1364.3
20
51607.8
0
VERTEX
8
0
10
1364.5
20
51607.8
0
VERTEX
8
0
10
1364.5
20
51610.2
0
VERTEX
8
0
10
1364.3
20
51610.2
0
VERTEX
8
0
10
1364.3
20
51607.8
0
SEQEND
0
POLYLINE
8
0
66
1
10
0.0
20
0.0
30
0.0
0
VERTEX
8
0
10
1364.5
20
51610.0
0
VERTEX
8
0
10
1366.5
20
51611.0
0
VERTEX
8
0
10
1366.5
20
51611.2
0
VERTEX
8
0
10
1364.5
20
51610.2
0
VERTEX
8
0
10
1364.5
20
51610.0
0
SEQEND
0
POLYLINE
8
0
66
1
10
0.0
20
0.0
30
0.0
0
VERTEX
8
0
10
1364.5
20
51608.0
0
VERTEX
8
0
10
1366.5
20
51607.0
0
VERTEX
8
0
10
1366.5
20
51606.8
0
VERTEX
8
0
10
1364.5
20
51607.8
0
VERTEX
8
0
10
1364.5
20
51608.0
0
SEQEND
0
POLYLINE
8
0
66
1
10
0.0
20
0.0
30
0.0
0
VERTEX
8
0
10
1358.5
20
51593.2
0
VERTEX
8
0
10
1358.5
20
51593.0
0
VERTEX
8
0
10
1366.5
20
51593.0
0
VERTEX
8
0
10
1366.5
20
51593.2
0
VERTEX
8
0
10
1358.5
20
51593.2
0
SEQEND
0
POLYLINE
8
0
66
1
10
0.0
20
0.0
30
0.0
0
VERTEX
8
0
10
1358.5
20
51589.0
0
VERTEX
8
0
10
1358.5
20
51588.8
0
VERTEX
8
0
10
1366.5
20
51588.8
0
VERTEX
8
0
10
1366.5
20
51589.0
0
VERTEX
8
0
10
1358.5
20
51589.0
0
SEQEND
0
POLYLINE
8
0
66
1
10
0.0
20
0.0
30
0.0
0
VERTEX
8
0
10
1358.5
20
51593.0
0
VERTEX
8
0
10
1360.5
20
51593.0
0
VERTEX
8
0
10
1360.5
20
51593.2
0
VERTEX
8
0
10
1358.5
20
51593.2
0
VERTEX
8
0
10
1358.5
20
51593.0
0
SEQEND
0
POLYLINE
8
0
66
1
10
0.0
20
0.0
30
0.0
0
VERTEX
8
0
10
1358.5
20
51589.0
0
VERTEX
8
0
10
1360.5
20
51589.0
0
VERTEX
8
0
10
1360.5
20
51588.8
0
VERTEX
8
0
10
1358.5
20
51588.8
0
VERTEX
8
0
10
1358.5
20
51589.0
0
SEQEND
0
POLYLINE
8
0
66
1
10
0.0
20
0.0
30
0.0
0
VERTEX
8
0
10
1360.5
20
51593.0
0
VERTEX
8
0
10
1363.5
20
51591.45
0
VERTEX
8
0
10
1363.5
20
51591.649999999994
0
VERTEX
8
0
10
1360.5
20
51593.2
0
VERTEX
8
0
10
1360.5
20
51593.0
0
SEQEND
0
POLYLINE
8
0
66
1
10
0.0
20
0.0
30
0.0
0
VERTEX
8
0
10
1360.5
20
51589.0
0
VERTEX
8
0
10
1363.5
20
51590.55
0
VERTEX
8
0
10
1363.5
20
51590.350000000006
0
VERTEX
8
0
10
1360.5
20
51588.8
0
VERTEX
8
0
10
1360.5
20
51589.0
0
SEQEND
0
POLYLINE
8
0
66
1
10
0.0
20
0.0
30
0.0
0
VERTEX
8
0
10
1363.5
20
51591.45
0
VERTEX
8
0
10
1364.3
20
51591.45
0
VERTEX
8
0
10
1364.3
20
51591.649999999994
0
VERTEX
8
0
10
1363.5
20
51591.649999999994
0
VERTEX
8
0
10
1363.5
20
51591.45
0
SEQEND
0
POLYLINE
8
0
66
1
10
0.0
20
0.0
30
0.0
0
VERTEX
8
0
10
1363.5
20
51590.55
0
VERTEX
8
0
10
1364.3
20
51590.55
0
VERTEX
8
0
10
1364.3
20
51590.350000000006
0
VERTEX
8
0
10
1363.5
20
51590.350000000006
0
VERTEX
8
0
10
1363.5
20
51590.55
0
SEQEND
0
POLYLINE
8
0
66
1
10
0.0
20
0.0
30
0.0
0
VERTEX
8
0
10
1364.3
20
51589.8
0
VERTEX
8
0
10
1364.5
20
51589.8
0
VERTEX
8
0
10
1364.5
20
51592.2
0
VERTEX
8
0
10
1364.3
20
51592.2
0
VERTEX
8
0
10
1364.3
20
51589.8
0
SEQEND
0
POLYLINE
8
0
66
1
10
0.0
20
0.0
30
0.0
0
VERTEX
8
0
10
1364.5
20
51592.0
0
VERTEX
8
0
10
1366.5
20
51593.0
0
VERTEX
8
0
10
1366.5
20
51593.2
0
VERTEX
8
0
10
1364.5
20
51592.2
0
VERTEX
8
0
10
1364.5
20
51592.0
0
SEQEND
0
POLYLINE
8
0
66
1
10
0.0
20
0.0
30
0.0
0
VERTEX
8
0
10
1364.5
20
51590.0
0
VERTEX
8
0
10
1366.5
20
51589.0
0
VERTEX
8
0
10
1366.5
20
51588.8
0
VERTEX
8
0
10
1364.5
20
51589.8
0
VERTEX
8
0
10
1364.5
20
51590.0
0
SEQEND
0
POLYLINE
8
0
66
1
10
0.0
20
0.0
30
0.0
0
VERTEX
8
0
10
1323.3499999999985
20
50111.2
0
VERTEX
8
0
10
1323.3499999999985
20
50111.0
0
VERTEX
8
0
10
1401.6500000000015
20
50111.0
0
VERTEX
8
0
10
1401.6500000000015
20
50111.2
0
VERTEX
8
0
10
1323.3499999999985
20
50111.2
0
SEQEND
0
POLYLINE
8
0
66
1
10
0.0
20
0.0
30
0.0
0
VERTEX
8
0
10
1346.3499999999985
20
50107.0
0
VERTEX
8
0
10
1346.3499999999985
20
50106.8
0
VERTEX
8
0
10
1378.6500000000015
20
50106.8
0
VERTEX
8
0
10
1378.6500000000015
20
50107.0
0
VERTEX
8
0
10
1346.3499999999985
20
50107.0
0
SEQEND
0
POLYLINE
8
0
66
1
10
0.0
20
0.0
30
0.0
0
VERTEX
8
0
10
1346.3499999999985
20
50093.200000000004
0
VERTEX
8
0
10
1346.3499999999985
20
50093.00000000001
0
VERTEX
8
0
10
1378.6500000000015
20
50093.00000000001
0
VERTEX
8
0
10
1378.6500000000015
20
50093.200000000004
0
VERTEX
8
0
10
1346.3499999999985
20
50093.200000000004
0
SEQEND
0
POLYLINE
8
0
66
1
10
0.0
20
0.0
30
0.0
0
VERTEX
8
0
10
1323.3499999999985
20
50089.00000000001
0
VERTEX
8
0
10
1323.3499999999985
20
50088.80000000001
0
VERTEX
8
0
10
1401.6500000000015
20
50088.80000000001
0
VERTEX
8
0
10
1401.6500000000015
20
50089.00000000001
0
VERTEX
8
0
10
1323.3499999999985
20
50089.00000000001
0
SEQEND
0
POLYLINE
8
0
66
1
10
0.0
20
0.0
30
0.0
0
VERTEX
8
0
10
1401.6500000000015
20
50111.0
0
VERTEX
8
0
10
1401.6500000000015
20
50089.0
0
VERTEX
8
0
10
1402.3499999999985
20
50089.0
0
VERTEX
8
0
10
1402.3499999999985
20
50111.0
0
VERTEX
8
0
10
1401.6500000000015
20
50111.0
0
SEQEND
0
POLYLINE
8
0
66
1
10
0.0
20
0.0
30
0.0
0
VERTEX
8
0
10
1323.3499999999985
20
50111.0
0
VERTEX
8
0
10
1323.3499999999985
20
50089.0
0
VERTEX
8
0
10
1322.6500000000015
20
50089.0
0
VERTEX
8
0
10
1322.6500000000015
20
50111.0
0
VERTEX
8
0
10
1323.3499999999985
20
50111.0
0
SEQEND
0
POLYLINE
8
0
66
1
10
0.0
20
0.0
30
0.0
0
VERTEX
8
0
10
1377.949999999997
20
50106.8
0
VERTEX
8
0
10
1377.949999999997
20
50093.200000000004
0
VERTEX
8
0
10
1378.6499999999942
20
50093.200000000004
0
VERTEX
8
0
10
1378.6499999999942
20
50106.8
0
VERTEX
8
0
10
1377.949999999997
20
50106.8
0
SEQEND
0
POLYLINE
8
0
66
1
10
0.0
20
0.0
30
0.0
0
VERTEX
8
0
10
1347.050000000003
20
50106.8
0
VERTEX
8
0
10
1347.050000000003
20
50093.200000000004
0
VERTEX
8
0
10
1346.3500000000058
20
50093.200000000004
0
VERTEX
8
0
10
1346.3500000000058
20
50106.8
0
VERTEX
8
0
10
1347.050000000003
20
50106.8
0
SEQEND
0
POLYLINE
8
0
66
1
10
0.0
20
0.0
30
0.0
0
VERTEX
8
0
10
1358.5
20
50111.2
0
VERTEX
8
0
10
1358.5
20
50111.0
0
VERTEX
8
0
10
1366.5
20
50111.0
0
VERTEX
8
0
10
1366.5
20
50111.2
0
VERTEX
8
0
10
1358.5
20
50111.2
0
SEQEND
0
POLYLINE
8
0
66
1
10
0.0
20
0.0
30
0.0
0
VERTEX
8
0
10
1358.5
20
50107.0
0
VERTEX
8
0
10
1358.5
20
50106.8
0
VERTEX
8
0
10
1366.5
20
50106.8
0
VERTEX
8
0
10
1366.5
20
50107.0
0
VERTEX
8
0
10
1358.5
20
50107.0
0
SEQEND
0
POLYLINE
8
0
66
1
10
0.0
20
0.0
30
0.0
0
VERTEX
8
0
10
1358.5
20
50111.0
0
VERTEX
8
0
10
1360.5
20
50111.0
0
VERTEX
8
0
10
1360.5
20
50111.2
0
VERTEX
8
0
10
1358.5
20
50111.2
0
VERTEX
8
0
10
1358.5
20
50111.0
0
SEQEND
0
POLYLINE
8
0
66
1
10
0.0
20
0.0
30
0.0
0
VERTEX
8
0
10
1358.5
20
50107.0
0
VERTEX
8
0
10
1360.5
20
50107.0
0
VERTEX
8
0
10
1360.5
20
50106.8
0
VERTEX
8
0
10
1358.5
20
50106.8
0
VERTEX
8
0
10
1358.5
20
50107.0
0
SEQEND
0
POLYLINE
8
0
66
1
10
0.0
20
0.0
30
0.0
0
VERTEX
8
0
10
1360.5
20
50111.0
0
VERTEX
8
0
10
1363.5
20
50109.45
0
VERTEX
8
0
10
1363.5
20
50109.649999999994
0
VERTEX
8
0
10
1360.5
20
50111.2
0
VERTEX
8
0
10
1360.5
20
50111.0
0
SEQEND
0
POLYLINE
8
0
66
1
10
0.0
20
0.0
30
0.0
0
VERTEX
8
0
10
1360.5
20
50107.0
0
VERTEX
8
0
10
1363.5
20
50108.55
0
VERTEX
8
0
10
1363.5
20
50108.350000000006
0
VERTEX
8
0
10
1360.5
20
50106.8
0
VERTEX
8
0
10
1360.5
20
50107.0
0
SEQEND
0
POLYLINE
8
0
66
1
10
0.0
20
0.0
30
0.0
0
VERTEX
8
0
10
1363.5
20
50109.45
0
VERTEX
8
0
10
1364.3
20
50109.45
0
VERTEX
8
0
10
1364.3
20
50109.649999999994
0
VERTEX
8
0
10
1363.5
20
50109.649999999994
0
VERTEX
8
0
10
1363.5
20
50109.45
0
SEQEND
0
POLYLINE
8
0
66
1
10
0.0
20
0.0
30
0.0
0
VERTEX
8
0
10
1363.5
20
50108.55
0
VERTEX
8
0
10
1364.3
20
50108.55
0
VERTEX
8
0
10
1364.3
20
50108.350000000006
0
VERTEX
8
0
10
1363.5
20
50108.350000000006
0
VERTEX
8
0
10
1363.5
20
50108.55
0
SEQEND
0
POLYLINE
8
0
66
1
10
0.0
20
0.0
30
0.0
0
VERTEX
8
0
10
1364.3
20
50107.8
0
VERTEX
8
0
10
1364.5
20
50107.8
0
VERTEX
8
0
10
1364.5
20
50110.2
0
VERTEX
8
0
10
1364.3
20
50110.2
0
VERTEX
8
0
10
1364.3
20
50107.8
0
SEQEND
0
POLYLINE
8
0
66
1
10
0.0
20
0.0
30
0.0
0
VERTEX
8
0
10
1364.5
20
50110.0
0
VERTEX
8
0
10
1366.5
20
50111.0
0
VERTEX
8
0
10
1366.5
20
50111.2
0
VERTEX
8
0
10
1364.5
20
50110.2
0
VERTEX
8
0
10
1364.5
20
50110.0
0
SEQEND
0
POLYLINE
8
0
66
1
10
0.0
20
0.0
30
0.0
0
VERTEX
8
0
10
1364.5
20
50108.0
0
VERTEX
8
0
10
1366.5
20
50107.0
0
VERTEX
8
0
10
1366.5
20
50106.8
0
VERTEX
8
0
10
1364.5
20
50107.8
0
VERTEX
8
0
10
1364.5
20
50108.0
0
SEQEND
0
POLYLINE
8
0
66
1
10
0.0
20
0.0
30
0.0
0
VERTEX
8
0
10
1358.5
20
50093.2
0
VERTEX
8
0
10
1358.5
20
50093.0
0
VERTEX
8
0
10
1366.5
20
50093.0
0
VERTEX
8
0
10
1366.5
20
50093.2
0
VERTEX
8
0
10
1358.5
20
50093.2
0
SEQEND
0
POLYLINE
8
0
66
1
10
0.0
20
0.0
30
0.0
0
VERTEX
8
0
10
1358.5
20
50089.0
0
VERTEX
8
0
10
1358.5
20
50088.8
0
VERTEX
8
0
10
1366.5
20
50088.8
0
VERTEX
8
0
10
1366.5
20
50089.0
0
VERTEX
8
0
10
1358.5
20
50089.0
0
SEQEND
0
POLYLINE
8
0
66
1
10
0.0
20
0.0
30
0.0
0
VERTEX
8
0
10
1358.5
20
50093.0
0
VERTEX
8
0
10
1360.5
20
50093.0
0
VERTEX
8
0
10
1360.5
20
50093.2
0
VERTEX
8
0
10
1358.5
20
50093.2
0
VERTEX
8
0
10
1358.5
20
50093.0
0
SEQEND
0
POLYLINE
8
0
66
1
10
0.0
20
0.0
30
0.0
0
VERTEX
8
0
10
1358.5
20
50089.0
0
VERTEX
8
0
10
1360.5
20
50089.0
0
VERTEX
8
0
10
1360.5
20
50088.8
0
VERTEX
8
0
10
1358.5
20
50088.8
0
VERTEX
8
0
10
1358.5
20
50089.0
0
SEQEND
0
POLYLINE
8
0
66
1
10
0.0
20
0.0
30
0.0
0
VERTEX
8
0
10
1360.5
20
50093.0
0
VERTEX
8
0
10
1363.5
20
50091.45
0
VERTEX
8
0
10
1363.5
20
50091.649999999994
0
VERTEX
8
0
10
1360.5
20
50093.2
0
VERTEX
8
0
10
1360.5
20
50093.0
0
SEQEND
0
POLYLINE
8
0
66
1
10
0.0
20
0.0
30
0.0
0
VERTEX
8
0
10
1360.5
20
50089.0
0
VERTEX
8
0
10
1363.5
20
50090.55
0
VERTEX
8
0
10
1363.5
20
50090.350000000006
0
VERTEX
8
0
10
1360.5
20
50088.8
0
VERTEX
8
0
10
1360.5
20
50089.0
0
SEQEND
0
POLYLINE
8
0
66
1
10
0.0
20
0.0
30
0.0
0
VERTEX
8
0
10
1363.5
20
50091.45
0
VERTEX
8
0
10
1364.3
20
50091.45
0
VERTEX
8
0
10
1364.3
20
50091.649999999994
0
VERTEX
8
0
10
1363.5
20
50091.649999999994
0
VERTEX
8
0
10
1363.5
20
50091.45
0
SEQEND
0
POLYLINE
8
0
66
1
10
0.0
20
0.0
30
0.0
0
VERTEX
8
0
10
1363.5
20
50090.55
0
VERTEX
8
0
10
1364.3
20
50090.55
0
VERTEX
8
0
10
1364.3
20
50090.350000000006
0
VERTEX
8
0
10
1363.5
20
50090.350000000006
0
VERTEX
8
0
10
1363.5
20
50090.55
0
SEQEND
0
POLYLINE
8
0
66
1
10
0.0
20
0.0
30
0.0
0
VERTEX
8
0
10
1364.3
20
50089.8
0
VERTEX
8
0
10
1364.5
20
50089.8
0
VERTEX
8
0
10
1364.5
20
50092.2
0
VERTEX
8
0
10
1364.3
20
50092.2
0
VERTEX
8
0
10
1364.3
20
50089.8
0
SEQEND
0
POLYLINE
8
0
66
1
10
0.0
20
0.0
30
0.0
0
VERTEX
8
0
10
1364.5
20
50092.0
0
VERTEX
8
0
10
1366.5
20
50093.0
0
VERTEX
8
0
10
1366.5
20
50093.2
0
VERTEX
8
0
10
1364.5
20
50092.2
0
VERTEX
8
0
10
1364.5
20
50092.0
0
SEQEND
0
POLYLINE
8
0
66
1
10
0.0
20
0.0
30
0.0
0
VERTEX
8
0
10
1364.5
20
50090.0
0
VERTEX
8
0
10
1366.5
20
50089.0
0
VERTEX
8
0
10
1366.5
20
50088.8
0
VERTEX
8
0
10
1364.5
20
50089.8
0
VERTEX
8
0
10
1364.5
20
50090.0
0
SEQEND
0
POLYLINE
8
0
66
1
10
0.0
20
0.0
30
0.0
0
VERTEX
8
0
10
4048.3499999999985
20
51611.2
0
VERTEX
8
0
10
4048.3499999999985
20
51611.0
0
VERTEX
8
0
10
4126.6500000000015
20
51611.0
0
VERTEX
8
0
10
4126.6500000000015
20
51611.2
0
VERTEX
8
0
10
4048.3499999999985
20
51611.2
0
SEQEND
0
POLYLINE
8
0
66
1
10
0.0
20
0.0
30
0.0
0
VERTEX
8
0
10
4071.3499999999985
20
51607.0
0
VERTEX
8
0
10
4071.3499999999985
20
51606.8
0
VERTEX
8
0
10
4103.6500000000015
20
51606.8
0
VERTEX
8
0
10
4103.6500000000015
20
51607.0
0
VERTEX
8
0
10
4071.3499999999985
20
51607.0
0
SEQEND
0
POLYLINE
8
0
66
1
10
0.0
20
0.0
30
0.0
0
VERTEX
8
0
10
4071.3499999999985
20
51593.200000000004
0
VERTEX
8
0
10
4071.3499999999985
20
51593.00000000001
0
VERTEX
8
0
10
4103.6500000000015
20
51593.00000000001
0
VERTEX
8
0
10
4103.6500000000015
20
51593.200000000004
0
VERTEX
8
0
10
4071.3499999999985
20
51593.200000000004
0
SEQEND
0
POLYLINE
8
0
66
1
10
0.0
20
0.0
30
0.0
0
VERTEX
8
0
10
4048.3499999999985
20
51589.00000000001
0
VERTEX
8
0
10
4048.3499999999985
20
51588.80000000001
0
VERTEX
8
0
10
4126.6500000000015
20
51588.80000000001
0
VERTEX
8
0
10
4126.6500000000015
20
51589.00000000001
0
VERTEX
8
0
10
4048.3499999999985
20
51589.00000000001
0
SEQEND
0
POLYLINE
8
0
66
1
10
0.0
20
0.0
30
0.0
0
VERTEX
8
0
10
4126.6500000000015
20
51611.0
0
VERTEX
8
0
10
4126.6500000000015
20
51589.0
0
VERTEX
8
0
10
4127.3499999999985
20
51589.0
0
VERTEX
8
0
10
4127.3499999999985
20
51611.0
0
VERTEX
8
0
10
4126.6500000000015
20
51611.0
0
SEQEND
0
POLYLINE
8
0
66
1
10
0.0
20
0.0
30
0.0
0
VERTEX
8
0
10
4048.3499999999985
20
51611.0
0
VERTEX
8
0
10
4048.3499999999985
20
51589.0
0
VERTEX
8
0
10
4047.6500000000015
20
51589.0
0
VERTEX
8
0
10
4047.6500000000015
20
51611.0
0
VERTEX
8
0
10
4048.3499999999985
20
51611.0
0
SEQEND
0
POLYLINE
8
0
66
1
10
0.0
20
0.0
30
0.0
0
VERTEX
8
0
10
4102.949999999997
20
51606.8
0
VERTEX
8
0
10
4102.949999999997
20
51593.200000000004
0
VERTEX
8
0
10
4103.649999999994
20
51593.200000000004
0
VERTEX
8
0
10
4103.649999999994
20
51606.8
0
VERTEX
8
0
10
4102.949999999997
20
51606.8
0
SEQEND
0
POLYLINE
8
0
66
1
10
0.0
20
0.0
30
0.0
0
VERTEX
8
0
10
4072.050000000003
20
51606.8
0
VERTEX
8
0
10
4072.050000000003
20
51593.200000000004
0
VERTEX
8
0
10
4071.350000000006
20
51593.200000000004
0
VERTEX
8
0
10
4071.350000000006
20
51606.8
0
VERTEX
8
0
10
4072.050000000003
20
51606.8
0
SEQEND
0
POLYLINE
8
0
66
1
10
0.0
20
0.0
30
0.0
0
VERTEX
8
0
10
4083.5
20
51611.2
0
VERTEX
8
0
10
4083.5
20
51611.0
0
VERTEX
8
0
10
4091.5
20
51611.0
0
VERTEX
8
0
10
4091.5
20
51611.2
0
VERTEX
8
0
10
4083.5
20
51611.2
0
SEQEND
0
POLYLINE
8
0
66
1
10
0.0
20
0.0
30
0.0
0
VERTEX
8
0
10
4083.5
20
51607.0
0
VERTEX
8
0
10
4083.5
20
51606.8
0
VERTEX
8
0
10
4091.5
20
51606.8
0
VERTEX
8
0
10
4091.5
20
51607.0
0
VERTEX
8
0
10
4083.5
20
51607.0
0
SEQEND
0
POLYLINE
8
0
66
1
10
0.0
20
0.0
30
0.0
0
VERTEX
8
0
10
4083.5
20
51611.0
0
VERTEX
8
0
10
4085.5
20
51611.0
0
VERTEX
8
0
10
4085.5
20
51611.2
0
VERTEX
8
0
10
4083.5
20
51611.2
0
VERTEX
8
0
10
4083.5
20
51611.0
0
SEQEND
0
POLYLINE
8
0
66
1
10
0.0
20
0.0
30
0.0
0
VERTEX
8
0
10
4083.5
20
51607.0
0
VERTEX
8
0
10
4085.5
20
51607.0
0
VERTEX
8
0
10
4085.5
20
51606.8
0
VERTEX
8
0
10
4083.5
20
51606.8
0
VERTEX
8
0
10
4083.5
20
51607.0
0
SEQEND
0
POLYLINE
8
0
66
1
10
0.0
20
0.0
30
0.0
0
VERTEX
8
0
10
4085.5
20
51611.0
0
VERTEX
8
0
10
4088.5
20
51609.45
0
VERTEX
8
0
10
4088.5
20
51609.649999999994
0
VERTEX
8
0
10
4085.5
20
51611.2
0
VERTEX
8
0
10
4085.5
20
51611.0
0
SEQEND
0
POLYLINE
8
0
66
1
10
0.0
20
0.0
30
0.0
0
VERTEX
8
0
10
4085.5
20
51607.0
0
VERTEX
8
0
10
4088.5
20
51608.55
0
VERTEX
8
0
10
4088.5
20
51608.350000000006
0
VERTEX
8
0
10
4085.5
20
51606.8
0
VERTEX
8
0
10
4085.5
20
51607.0
0
SEQEND
0
POLYLINE
8
0
66
1
10
0.0
20
0.0
30
0.0
0
VERTEX
8
0
10
4088.5
20
51609.45
0
VERTEX
8
0
10
4089.3
20
51609.45
0
VERTEX
8
0
10
4089.3
20
51609.649999999994
0
VERTEX
8
0
10
4088.5
20
51609.649999999994
0
VERTEX
8
0
10
4088.5
20
51609.45
0
SEQEND
0
POLYLINE
8
0
66
1
10
0.0
20
0.0
30
0.0
0
VERTEX
8
0
10
4088.5
20
51608.55
0
VERTEX
8
0
10
4089.3
20
51608.55
0
VERTEX
8
0
10
4089.3
20
51608.350000000006
0
VERTEX
8
0
10
4088.5
20
51608.350000000006
0
VERTEX
8
0
10
4088.5
20
51608.55
0
SEQEND
0
POLYLINE
8
0
66
1
10
0.0
20
0.0
30
0.0
0
VERTEX
8
0
10
4089.3
20
51607.8
0
VERTEX
8
0
10
4089.5
20
51607.8
0
VERTEX
8
0
10
4089.5
20
51610.2
0
VERTEX
8
0
10
4089.3
20
51610.2
0
VERTEX
8
0
10
4089.3
20
51607.8
0
SEQEND
0
POLYLINE
8
0
66
1
10
0.0
20
0.0
30
0.0
0
VERTEX
8
0
10
4089.5
20
51610.0
0
VERTEX
8
0
10
4091.5
20
51611.0
0
VERTEX
8
0
10
4091.5
20
51611.2
0
VERTEX
8
0
10
4089.5
20
51610.2
0
VERTEX
8
0
10
4089.5
20
51610.0
0
SEQEND
0
POLYLINE
8
0
66
1
10
0.0
20
0.0
30
0.0
0
VERTEX
8
0
10
4089.5
20
51608.0
0
VERTEX
8
0
10
4091.5
20
51607.0
0
VERTEX
8
0
10
4091.5
20
51606.8
0
VERTEX
8
0
10
4089.5
20
51607.8
0
VERTEX
8
0
10
4089.5
20
51608.0
0
SEQEND
0
POLYLINE
8
0
66
1
10
0.0
20
0.0
30
0.0
0
VERTEX
8
0
10
4083.5
20
51593.2
0
VERTEX
8
0
10
4083.5
20
51593.0
0
VERTEX
8
0
10
4091.5
20
51593.0
0
VERTEX
8
0
10
4091.5
20
51593.2
0
VERTEX
8
0
10
4083.5
20
51593.2
0
SEQEND
0
POLYLINE
8
0
66
1
10
0.0
20
0.0
30
0.0
0
VERTEX
8
0
10
4083.5
20
51589.0
0
VERTEX
8
0
10
4083.5
20
51588.8
0
VERTEX
8
0
10
4091.5
20
51588.8
0
VERTEX
8
0
10
4091.5
20
51589.0
0
VERTEX
8
0
10
4083.5
20
51589.0
0
SEQEND
0
POLYLINE
8
0
66
1
10
0.0
20
0.0
30
0.0
0
VERTEX
8
0
10
4083.5
20
51593.0
0
VERTEX
8
0
10
4085.5
20
51593.0
0
VERTEX
8
0
10
4085.5
20
51593.2
0
VERTEX
8
0
10
4083.5
20
51593.2
0
VERTEX
8
0
10
4083.5
20
51593.0
0
SEQEND
0
POLYLINE
8
0
66
1
10
0.0
20
0.0
30
0.0
0
VERTEX
8
0
10
4083.5
20
51589.0
0
VERTEX
8
0
10
4085.5
20
51589.0
0
VERTEX
8
0
10
4085.5
20
51588.8
0
VERTEX
8
0
10
4083.5
20
51588.8
0
VERTEX
8
0
10
4083.5
20
51589.0
0
SEQEND
0
POLYLINE
8
0
66
1
10
0.0
20
0.0
30
0.0
0
VERTEX
8
0
10
4085.5
20
51593.0
0
VERTEX
8
0
10
4088.5
20
51591.45
0
VERTEX
8
0
10
4088.5
20
51591.649999999994
0
VERTEX
8
0
10
4085.5
20
51593.2
0
VERTEX
8
0
10
4085.5
20
51593.0
0
SEQEND
0
POLYLINE
8
0
66
1
10
0.0
20
0.0
30
0.0
0
VERTEX
8
0
10
4085.5
20
51589.0
0
VERTEX
8
0
10
4088.5
20
51590.55
0
VERTEX
8
0
10
4088.5
20
51590.350000000006
0
VERTEX
8
0
10
4085.5
20
51588.8
0
VERTEX
8
0
10
4085.5
20
51589.0
0
SEQEND
0
POLYLINE
8
0
66
1
10
0.0
20
0.0
30
0.0
0
VERTEX
8
0
10
4088.5
20
51591.45
0
VERTEX
8
0
10
4089.3
20
51591.45
0
VERTEX
8
0
10
4089.3
20
51591.649999999994
0
VERTEX
8
0
10
4088.5
20
51591.649999999994
0
VERTEX
8
0
10
4088.5
20
51591.45
0
SEQEND
0
POLYLINE
8
0
66
1
10
0.0
20
0.0
30
0.0
0
VERTEX
8
0
10
4088.5
20
51590.55
0
VERTEX
8
0
10
4089.3
20
51590.55
0
VERTEX
8
0
10
4089.3
20
51590.350000000006
0
VERTEX
8
0
10
4088.5
20
51590.350000000006
0
VERTEX
8
0
10
4088.5
20
51590.55
0
SEQEND
0
POLYLINE
8
0
66
1
10
0.0
20
0.0
30
0.0
0
VERTEX
8
0
10
4089.3
20
51589.8
0
VERTEX
8
0
10
4089.5
20
51589.8
0
VERTEX
8
0
10
4089.5
20
51592.2
0
VERTEX
8
0
10
4089.3
20
51592.2
0
VERTEX
8
0
10
4089.3
20
51589.8
0
SEQEND
0
POLYLINE
8
0
66
1
10
0.0
20
0.0
30
0.0
0
VERTEX
8
0
10
4089.5
20
51592.0
0
VERTEX
8
0
10
4091.5
20
51593.0
0
VERTEX
8
0
10
4091.5
20
51593.2
0
VERTEX
8
0
10
4089.5
20
51592.2
0
VERTEX
8
0
10
4089.5
20
51592.0
0
SEQEND
0
POLYLINE
8
0
66
1
10
0.0
20
0.0
30
0.0
0
VERTEX
8
0
10
4089.5
20
51590.0
0
VERTEX
8
0
10
4091.5
20
51589.0
0
VERTEX
8
0
10
4091.5
20
51588.8
0
VERTEX
8
0
10
4089.5
20
51589.8
0
VERTEX
8
0
10
4089.5
20
51590.0
0
SEQEND
0
POLYLINE
8
0
66
1
10
0.0
20
0.0
30
0.0
0
VERTEX
8
0
10
4048.3499999999985
20
50111.2
0
VERTEX
8
0
10
4048.3499999999985
20
50111.0
0
VERTEX
8
0
10
4126.6500000000015
20
50111.0
0
VERTEX
8
0
10
4126.6500000000015
20
50111.2
0
VERTEX
8
0
10
4048.3499999999985
20
50111.2
0
SEQEND
0
POLYLINE
8
0
66
1
10
0.0
20
0.0
30
0.0
0
VERTEX
8
0
10
4071.3499999999985
20
50107.0
0
VERTEX
8
0
10
4071.3499999999985
20
50106.8
0
VERTEX
8
0
10
4103.6500000000015
20
50106.8
0
VERTEX
8
0
10
4103.6500000000015
20
50107.0
0
VERTEX
8
0
10
4071.3499999999985
20
50107.0
0
SEQEND
0
POLYLINE
8
0
66
1
10
0.0
20
0.0
30
0.0
0
VERTEX
8
0
10
4071.3499999999985
20
50093.200000000004
0
VERTEX
8
0
10
4071.3499999999985
20
50093.00000000001
0
VERTEX
8
0
10
4103.6500000000015
20
50093.00000000001
0
VERTEX
8
0
10
4103.6500000000015
20
50093.200000000004
0
VERTEX
8
0
10
4071.3499999999985
20
50093.200000000004
0
SEQEND
0
POLYLINE
8
0
66
1
10
0.0
20
0.0
30
0.0
0
VERTEX
8
0
10
4048.3499999999985
20
50089.00000000001
0
VERTEX
8
0
10
4048.3499999999985
20
50088.80000000001
0
VERTEX
8
0
10
4126.6500000000015
20
50088.80000000001
0
VERTEX
8
0
10
4126.6500000000015
20
50089.00000000001
0
VERTEX
8
0
10
4048.3499999999985
20
50089.00000000001
0
SEQEND
0
POLYLINE
8
0
66
1
10
0.0
20
0.0
30
0.0
0
VERTEX
8
0
10
4126.6500000000015
20
50111.0
0
VERTEX
8
0
10
4126.6500000000015
20
50089.0
0
VERTEX
8
0
10
4127.3499999999985
20
50089.0
0
VERTEX
8
0
10
4127.3499999999985
20
50111.0
0
VERTEX
8
0
10
4126.6500000000015
20
50111.0
0
SEQEND
0
POLYLINE
8
0
66
1
10
0.0
20
0.0
30
0.0
0
VERTEX
8
0
10
4048.3499999999985
20
50111.0
0
VERTEX
8
0
10
4048.3499999999985
20
50089.0
0
VERTEX
8
0
10
4047.6500000000015
20
50089.0
0
VERTEX
8
0
10
4047.6500000000015
20
50111.0
0
VERTEX
8
0
10
4048.3499999999985
20
50111.0
0
SEQEND
0
POLYLINE
8
0
66
1
10
0.0
20
0.0
30
0.0
0
VERTEX
8
0
10
4102.949999999997
20
50106.8
0
VERTEX
8
0
10
4102.949999999997
20
50093.200000000004
0
VERTEX
8
0
10
4103.649999999994
20
50093.200000000004
0
VERTEX
8
0
10
4103.649999999994
20
50106.8
0
VERTEX
8
0
10
4102.949999999997
20
50106.8
0
SEQEND
0
POLYLINE
8
0
66
1
10
0.0
20
0.0
30
0.0
0
VERTEX
8
0
10
4072.050000000003
20
50106.8
0
VERTEX
8
0
10
4072.050000000003
20
50093.200000000004
0
VERTEX
8
0
10
4071.350000000006
20
50093.200000000004
0
VERTEX
8
0
10
4071.350000000006
20
50106.8
0
VERTEX
8
0
10
4072.050000000003
20
50106.8
0
SEQEND
0
POLYLINE
8
0
66
1
10
0.0
20
0.0
30
0.0
0
VERTEX
8
0
10
4083.5
20
50111.2
0
VERTEX
8
0
10
4083.5
20
50111.0
0
VERTEX
8
0
10
4091.5
20
50111.0
0
VERTEX
8
0
10
4091.5
20
50111.2
0
VERTEX
8
0
10
4083.5
20
50111.2
0
SEQEND
0
POLYLINE
8
0
66
1
10
0.0
20
0.0
30
0.0
0
VERTEX
8
0
10
4083.5
20
50107.0
0
VERTEX
8
0
10
4083.5
20
50106.8
0
VERTEX
8
0
10
4091.5
20
50106.8
0
VERTEX
8
0
10
4091.5
20
50107.0
0
VERTEX
8
0
10
4083.5
20
50107.0
0
SEQEND
0
POLYLINE
8
0
66
1
10
0.0
20
0.0
30
0.0
0
VERTEX
8
0
10
4083.5
20
50111.0
0
VERTEX
8
0
10
4085.5
20
50111.0
0
VERTEX
8
0
10
4085.5
20
50111.2
0
VERTEX
8
0
10
4083.5
20
50111.2
0
VERTEX
8
0
10
4083.5
20
50111.0
0
SEQEND
0
POLYLINE
8
0
66
1
10
0.0
20
0.0
30
0.0
0
VERTEX
8
0
10
4083.5
20
50107.0
0
VERTEX
8
0
10
4085.5
20
50107.0
0
VERTEX
8
0
10
4085.5
20
50106.8
0
VERTEX
8
0
10
4083.5
20
50106.8
0
VERTEX
8
0
10
4083.5
20
50107.0
0
SEQEND
0
POLYLINE
8
0
66
1
10
0.0
20
0.0
30
0.0
0
VERTEX
8
0
10
4085.5
20
50111.0
0
VERTEX
8
0
10
4088.5
20
50109.45
0
VERTEX
8
0
10
4088.5
20
50109.649999999994
0
VERTEX
8
0
10
4085.5
20
50111.2
0
VERTEX
8
0
10
4085.5
20
50111.0
0
SEQEND
0
POLYLINE
8
0
66
1
10
0.0
20
0.0
30
0.0
0
VERTEX
8
0
10
4085.5
20
50107.0
0
VERTEX
8
0
10
4088.5
20
50108.55
0
VERTEX
8
0
10
4088.5
20
50108.350000000006
0
VERTEX
8
0
10
4085.5
20
50106.8
0
VERTEX
8
0
10
4085.5
20
50107.0
0
SEQEND
0
POLYLINE
8
0
66
1
10
0.0
20
0.0
30
0.0
0
VERTEX
8
0
10
4088.5
20
50109.45
0
VERTEX
8
0
10
4089.3
20
50109.45
0
VERTEX
8
0
10
4089.3
20
50109.649999999994
0
VERTEX
8
0
10
4088.5
20
50109.649999999994
0
VERTEX
8
0
10
4088.5
20
50109.45
0
SEQEND
0
POLYLINE
8
0
66
1
10
0.0
20
0.0
30
0.0
0
VERTEX
8
0
10
4088.5
20
50108.55
0
VERTEX
8
0
10
4089.3
20
50108.55
0
VERTEX
8
0
10
4089.3
20
50108.350000000006
0
VERTEX
8
0
10
4088.5
20
50108.350000000006
0
VERTEX
8
0
10
4088.5
20
50108.55
0
SEQEND
0
POLYLINE
8
0
66
1
10
0.0
20
0.0
30
0.0
0
VERTEX
8
0
10
4089.3
20
50107.8
0
VERTEX
8
0
10
4089.5
20
50107.8
0
VERTEX
8
0
10
4089.5
20
50110.2
0
VERTEX
8
0
10
4089.3
20
50110.2
0
VERTEX
8
0
10
4089.3
20
50107.8
0
SEQEND
0
POLYLINE
8
0
66
1
10
0.0
20
0.0
30
0.0
0
VERTEX
8
0
10
4089.5
20
50110.0
0
VERTEX
8
0
10
4091.5
20
50111.0
0
VERTEX
8
0
10
4091.5
20
50111.2
0
VERTEX
8
0
10
4089.5
20
50110.2
0
VERTEX
8
0
10
4089.5
20
50110.0
0
SEQEND
0
POLYLINE
8
0
66
1
10
0.0
20
0.0
30
0.0
0
VERTEX
8
0
10
4089.5
20
50108.0
0
VERTEX
8
0
10
4091.5
20
50107.0
0
VERTEX
8
0
10
4091.5
20
50106.8
0
VERTEX
8
0
10
4089.5
20
50107.8
0
VERTEX
8
0
10
4089.5
20
50108.0
0
SEQEND
0
POLYLINE
8
0
66
1
10
0.0
20
0.0
30
0.0
0
VERTEX
8
0
10
4083.5
20
50093.2
0
VERTEX
8
0
10
4083.5
20
50093.0
0
VERTEX
8
0
10
4091.5
20
50093.0
0
VERTEX
8
0
10
4091.5
20
50093.2
0
VERTEX
8
0
10
4083.5
20
50093.2
0
SEQEND
0
POLYLINE
8
0
66
1
10
0.0
20
0.0
30
0.0
0
VERTEX
8
0
10
4083.5
20
50089.0
0
VERTEX
8
0
10
4083.5
20
50088.8
0
VERTEX
8
0
10
4091.5
20
50088.8
0
VERTEX
8
0
10
4091.5
20
50089.0
0
VERTEX
8
0
10
4083.5
20
50089.0
0
SEQEND
0
POLYLINE
8
0
66
1
10
0.0
20
0.0
30
0.0
0
VERTEX
8
0
10
4083.5
20
50093.0
0
VERTEX
8
0
10
4085.5
20
50093.0
0
VERTEX
8
0
10
4085.5
20
50093.2
0
VERTEX
8
0
10
4083.5
20
50093.2
0
VERTEX
8
0
10
4083.5
20
50093.0
0
SEQEND
0
POLYLINE
8
0
66
1
10
0.0
20
0.0
30
0.0
0
VERTEX
8
0
10
4083.5
20
50089.0
0
VERTEX
8
0
10
4085.5
20
50089.0
0
VERTEX
8
0
10
4085.5
20
50088.8
0
VERTEX
8
0
10
4083.5
20
50088.8
0
VERTEX
8
0
10
4083.5
20
50089.0
0
SEQEND
0
POLYLINE
8
0
66
1
10
0.0
20
0.0
30
0.0
0
VERTEX
8
0
10
4085.5
20
50093.0
0
VERTEX
8
0
10
4088.5
20
50091.45
0
VERTEX
8
0
10
4088.5
20
50091.649999999994
0
VERTEX
8
0
10
4085.5
20
50093.2
0
VERTEX
8
0
10
4085.5
20
50093.0
0
SEQEND
0
POLYLINE
8
0
66
1
10
0.0
20
0.0
30
0.0
0
VERTEX
8
0
10
4085.5
20
50089.0
0
VERTEX
8
0
10
4088.5
20
50090.55
0
VERTEX
8
0
10
4088.5
20
50090.350000000006
0
VERTEX
8
0
10
4085.5
20
50088.8
0
VERTEX
8
0
10
4085.5
20
50089.0
0
SEQEND
0
POLYLINE
8
0
66
1
10
0.0
20
0.0
30
0.0
0
VERTEX
8
0
10
4088.5
20
50091.45
0
VERTEX
8
0
10
4089.3
20
50091.45
0
VERTEX
8
0
10
4089.3
20
50091.649999999994
0
VERTEX
8
0
10
4088.5
20
50091.649999999994
0
VERTEX
8
0
10
4088.5
20
50091.45
0
SEQEND
0
POLYLINE
8
0
66
1
10
0.0
20
0.0
30
0.0
0
VERTEX
8
0
10
4088.5
20
50090.55
0
VERTEX
8
0
10
4089.3
20
50090.55
0
VERTEX
8
0
10
4089.3
20
50090.350000000006
0
VERTEX
8
0
10
4088.5
20
50090.350000000006
0
VERTEX
8
0
10
4088.5
20
50090.55
0
SEQEND
0
POLYLINE
8
0
66
1
10
0.0
20
0.0
30
0.0
0
VERTEX
8
0
10
4089.3
20
50089.8
0
VERTEX
8
0
10
4089.5
20
50089.8
0
VERTEX
8
0
10
4089.5
20
50092.2
0
VERTEX
8
0
10
4089.3
20
50092.2
0
VERTEX
8
0
10
4089.3
20
50089.8
0
SEQEND
0
POLYLINE
8
0
66
1
10
0.0
20
0.0
30
0.0
0
VERTEX
8
0
10
4089.5
20
50092.0
0
VERTEX
8
0
10
4091.5
20
50093.0
0
VERTEX
8
0
10
4091.5
20
50093.2
0
VERTEX
8
0
10
4089.5
20
50092.2
0
VERTEX
8
0
10
4089.5
20
50092.0
0
SEQEND
0
POLYLINE
8
0
66
1
10
0.0
20
0.0
30
0.0
0
VERTEX
8
0
10
4089.5
20
50090.0
0
VERTEX
8
0
10
4091.5
20
50089.0
0
VERTEX
8
0
10
4091.5
20
50088.8
0
VERTEX
8
0
10
4089.5
20
50089.8
0
VERTEX
8
0
10
4089.5
20
50090.0
0
SEQEND
0
ENDBLK
0
BLOCK
8
PIN
2
C1DPIN
70
0
10
0
20
0
30
0
3
C1DPIN
0
POLYLINE
8
0
66
1
10
0.0
20
0.0
30
0.0
0
VERTEX
8
0
10
2708.8499999999985
20
46050.0
0
VERTEX
8
0
10
2708.8499999999985
20
46046.0
0
VERTEX
8
0
10
2741.1500000000015
20
46046.0
0
VERTEX
8
0
10
2741.1500000000015
20
46050.0
0
VERTEX
8
0
10
2708.8499999999985
20
46050.0
0
SEQEND
0
POLYLINE
8
0
66
1
10
0.0
20
0.0
30
0.0
0
VERTEX
8
0
10
2708.8499999999985
20
46032.0
0
VERTEX
8
0
10
2708.8499999999985
20
46028.0
0
VERTEX
8
0
10
2741.1500000000015
20
46028.0
0
VERTEX
8
0
10
2741.1500000000015
20
46032.0
0
VERTEX
8
0
10
2708.8499999999985
20
46032.0
0
SEQEND
0
POLYLINE
8
0
66
1
10
0.0
20
0.0
30
0.0
0
VERTEX
8
0
10
2741.1500000000015
20
46050.0
0
VERTEX
8
0
10
2741.1500000000015
20
46028.0
0
VERTEX
8
0
10
2764.1500000000015
20
46028.0
0
VERTEX
8
0
10
2764.1500000000015
20
46050.0
0
VERTEX
8
0
10
2741.1500000000015
20
46050.0
0
SEQEND
0
POLYLINE
8
0
66
1
10
0.0
20
0.0
30
0.0
0
VERTEX
8
0
10
2708.8499999999985
20
46050.0
0
VERTEX
8
0
10
2708.8499999999985
20
46028.0
0
VERTEX
8
0
10
2685.8499999999985
20
46028.0
0
VERTEX
8
0
10
2685.8499999999985
20
46050.0
0
VERTEX
8
0
10
2708.8499999999985
20
46050.0
0
SEQEND
0
POLYLINE
8
0
66
1
10
0.0
20
0.0
30
0.0
0
VERTEX
8
0
10
2721.0
20
46050.0
0
VERTEX
8
0
10
2721.0
20
46046.0
0
VERTEX
8
0
10
2729.0
20
46046.0
0
VERTEX
8
0
10
2729.0
20
46050.0
0
VERTEX
8
0
10
2721.0
20
46050.0
0
SEQEND
0
POLYLINE
8
0
66
1
10
0.0
20
0.0
30
0.0
0
VERTEX
8
0
10
2721.0
20
46046.0
0
VERTEX
8
0
10
2723.0
20
46046.0
0
VERTEX
8
0
10
2723.0
20
46050.0
0
VERTEX
8
0
10
2721.0
20
46050.0
0
VERTEX
8
0
10
2721.0
20
46046.0
0
SEQEND
0
POLYLINE
8
0
66
1
10
0.0
20
0.0
30
0.0
0
VERTEX
8
0
10
2723.0
20
46048.0
0
VERTEX
8
0
10
2726.0
20
46048.0
0
VERTEX
8
0
10
2726.0
20
46048.45
0
VERTEX
8
0
10
2723.0
20
46050.0
0
VERTEX
8
0
10
2723.0
20
46048.0
0
SEQEND
0
POLYLINE
8
0
66
1
10
0.0
20
0.0
30
0.0
0
VERTEX
8
0
10
2723.0
20
46048.0
0
VERTEX
8
0
10
2726.0
20
46048.0
0
VERTEX
8
0
10
2726.0
20
46047.55
0
VERTEX
8
0
10
2723.0
20
46046.0
0
VERTEX
8
0
10
2723.0
20
46048.0
0
SEQEND
0
POLYLINE
8
0
66
1
10
0.0
20
0.0
30
0.0
0
VERTEX
8
0
10
2726.0
20
46047.55
0
VERTEX
8
0
10
2726.8
20
46047.55
0
VERTEX
8
0
10
2726.8
20
46048.45
0
VERTEX
8
0
10
2726.0
20
46048.45
0
VERTEX
8
0
10
2726.0
20
46047.55
0
SEQEND
0
POLYLINE
8
0
66
1
10
0.0
20
0.0
30
0.0
0
VERTEX
8
0
10
2727.0
20
46048.0
0
VERTEX
8
0
10
2729.0
20
46048.0
0
VERTEX
8
0
10
2729.0
20
46050.0
0
VERTEX
8
0
10
2727.0
20
46049.0
0
VERTEX
8
0
10
2727.0
20
46048.0
0
SEQEND
0
POLYLINE
8
0
66
1
10
0.0
20
0.0
30
0.0
0
VERTEX
8
0
10
2727.0
20
46048.0
0
VERTEX
8
0
10
2729.0
20
46048.0
0
VERTEX
8
0
10
2729.0
20
46046.0
0
VERTEX
8
0
10
2727.0
20
46047.0
0
VERTEX
8
0
10
2727.0
20
46048.0
0
SEQEND
0
POLYLINE
8
0
66
1
10
0.0
20
0.0
30
0.0
0
VERTEX
8
0
10
2721.0
20
46032.0
0
VERTEX
8
0
10
2721.0
20
46028.0
0
VERTEX
8
0
10
2729.0
20
46028.0
0
VERTEX
8
0
10
2729.0
20
46032.0
0
VERTEX
8
0
10
2721.0
20
46032.0
0
SEQEND
0
POLYLINE
8
0
66
1
10
0.0
20
0.0
30
0.0
0
VERTEX
8
0
10
2721.0
20
46028.0
0
VERTEX
8
0
10
2723.0
20
46028.0
0
VERTEX
8
0
10
2723.0
20
46032.0
0
VERTEX
8
0
10
2721.0
20
46032.0
0
VERTEX
8
0
10
2721.0
20
46028.0
0
SEQEND
0
POLYLINE
8
0
66
1
10
0.0
20
0.0
30
0.0
0
VERTEX
8
0
10
2723.0
20
46030.0
0
VERTEX
8
0
10
2726.0
20
46030.0
0
VERTEX
8
0
10
2726.0
20
46030.45
0
VERTEX
8
0
10
2723.0
20
46032.0
0
VERTEX
8
0
10
2723.0
20
46030.0
0
SEQEND
0
POLYLINE
8
0
66
1
10
0.0
20
0.0
30
0.0
0
VERTEX
8
0
10
2723.0
20
46030.0
0
VERTEX
8
0
10
2726.0
20
46030.0
0
VERTEX
8
0
10
2726.0
20
46029.55
0
VERTEX
8
0
10
2723.0
20
46028.0
0
VERTEX
8
0
10
2723.0
20
46030.0
0
SEQEND
0
POLYLINE
8
0
66
1
10
0.0
20
0.0
30
0.0
0
VERTEX
8
0
10
2726.0
20
46029.55
0
VERTEX
8
0
10
2726.8
20
46029.55
0
VERTEX
8
0
10
2726.8
20
46030.45
0
VERTEX
8
0
10
2726.0
20
46030.45
0
VERTEX
8
0
10
2726.0
20
46029.55
0
SEQEND
0
POLYLINE
8
0
66
1
10
0.0
20
0.0
30
0.0
0
VERTEX
8
0
10
2727.0
20
46030.0
0
VERTEX
8
0
10
2729.0
20
46030.0
0
VERTEX
8
0
10
2729.0
20
46032.0
0
VERTEX
8
0
10
2727.0
20
46031.0
0
VERTEX
8
0
10
2727.0
20
46030.0
0
SEQEND
0
POLYLINE
8
0
66
1
10
0.0
20
0.0
30
0.0
0
VERTEX
8
0
10
2727.0
20
46030.0
0
VERTEX
8
0
10
2729.0
20
46030.0
0
VERTEX
8
0
10
2729.0
20
46028.0
0
VERTEX
8
0
10
2727.0
20
46029.0
0
VERTEX
8
0
10
2727.0
20
46030.0
0
SEQEND
0
POLYLINE
8
0
66
1
10
0.0
20
0.0
30
0.0
0
VERTEX
8
0
10
1346.3499999999985
20
51611.0
0
VERTEX
8
0
10
1346.3499999999985
20
51607.0
0
VERTEX
8
0
10
1378.6500000000015
20
51607.0
0
VERTEX
8
0
10
1378.6500000000015
20
51611.0
0
VERTEX
8
0
10
1346.3499999999985
20
51611.0
0
SEQEND
0
POLYLINE
8
0
66
1
10
0.0
20
0.0
30
0.0
0
VERTEX
8
0
10
1346.3499999999985
20
51593.0
0
VERTEX
8
0
10
1346.3499999999985
20
51589.0
0
VERTEX
8
0
10
1378.6500000000015
20
51589.0
0
VERTEX
8
0
10
1378.6500000000015
20
51593.0
0
VERTEX
8
0
10
1346.3499999999985
20
51593.0
0
SEQEND
0
POLYLINE
8
0
66
1
10
0.0
20
0.0
30
0.0
0
VERTEX
8
0
10
1378.6500000000015
20
51611.0
0
VERTEX
8
0
10
1378.6500000000015
20
51589.0
0
VERTEX
8
0
10
1401.6500000000015
20
51589.0
0
VERTEX
8
0
10
1401.6500000000015
20
51611.0
0
VERTEX
8
0
10
1378.6500000000015
20
51611.0
0
SEQEND
0
POLYLINE
8
0
66
1
10
0.0
20
0.0
30
0.0
0
VERTEX
8
0
10
1346.3499999999985
20
51611.0
0
VERTEX
8
0
10
1346.3499999999985
20
51589.0
0
VERTEX
8
0
10
1323.3499999999985
20
51589.0
0
VERTEX
8
0
10
1323.3499999999985
20
51611.0
0
VERTEX
8
0
10
1346.3499999999985
20
51611.0
0
SEQEND
0
POLYLINE
8
0
66
1
10
0.0
20
0.0
30
0.0
0
VERTEX
8
0
10
1358.5
20
51611.0
0
VERTEX
8
0
10
1358.5
20
51607.0
0
VERTEX
8
0
10
1366.5
20
51607.0
0
VERTEX
8
0
10
1366.5
20
51611.0
0
VERTEX
8
0
10
1358.5
20
51611.0
0
SEQEND
0
POLYLINE
8
0
66
1
10
0.0
20
0.0
30
0.0
0
VERTEX
8
0
10
1358.5
20
51607.0
0
VERTEX
8
0
10
1360.5
20
51607.0
0
VERTEX
8
0
10
1360.5
20
51611.0
0
VERTEX
8
0
10
1358.5
20
51611.0
0
VERTEX
8
0
10
1358.5
20
51607.0
0
SEQEND
0
POLYLINE
8
0
66
1
10
0.0
20
0.0
30
0.0
0
VERTEX
8
0
10
1360.5
20
51609.0
0
VERTEX
8
0
10
1363.5
20
51609.0
0
VERTEX
8
0
10
1363.5
20
51609.45
0
VERTEX
8
0
10
1360.5
20
51611.0
0
VERTEX
8
0
10
1360.5
20
51609.0
0
SEQEND
0
POLYLINE
8
0
66
1
10
0.0
20
0.0
30
0.0
0
VERTEX
8
0
10
1360.5
20
51609.0
0
VERTEX
8
0
10
1363.5
20
51609.0
0
VERTEX
8
0
10
1363.5
20
51608.55
0
VERTEX
8
0
10
1360.5
20
51607.0
0
VERTEX
8
0
10
1360.5
20
51609.0
0
SEQEND
0
POLYLINE
8
0
66
1
10
0.0
20
0.0
30
0.0
0
VERTEX
8
0
10
1363.5
20
51608.55
0
VERTEX
8
0
10
1364.3
20
51608.55
0
VERTEX
8
0
10
1364.3
20
51609.45
0
VERTEX
8
0
10
1363.5
20
51609.45
0
VERTEX
8
0
10
1363.5
20
51608.55
0
SEQEND
0
POLYLINE
8
0
66
1
10
0.0
20
0.0
30
0.0
0
VERTEX
8
0
10
1364.5
20
51609.0
0
VERTEX
8
0
10
1366.5
20
51609.0
0
VERTEX
8
0
10
1366.5
20
51611.0
0
VERTEX
8
0
10
1364.5
20
51610.0
0
VERTEX
8
0
10
1364.5
20
51609.0
0
SEQEND
0
POLYLINE
8
0
66
1
10
0.0
20
0.0
30
0.0
0
VERTEX
8
0
10
1364.5
20
51609.0
0
VERTEX
8
0
10
1366.5
20
51609.0
0
VERTEX
8
0
10
1366.5
20
51607.0
0
VERTEX
8
0
10
1364.5
20
51608.0
0
VERTEX
8
0
10
1364.5
20
51609.0
0
SEQEND
0
POLYLINE
8
0
66
1
10
0.0
20
0.0
30
0.0
0
VERTEX
8
0
10
1358.5
20
51593.0
0
VERTEX
8
0
10
1358.5
20
51589.0
0
VERTEX
8
0
10
1366.5
20
51589.0
0
VERTEX
8
0
10
1366.5
20
51593.0
0
VERTEX
8
0
10
1358.5
20
51593.0
0
SEQEND
0
POLYLINE
8
0
66
1
10
0.0
20
0.0
30
0.0
0
VERTEX
8
0
10
1358.5
20
51589.0
0
VERTEX
8
0
10
1360.5
20
51589.0
0
VERTEX
8
0
10
1360.5
20
51593.0
0
VERTEX
8
0
10
1358.5
20
51593.0
0
VERTEX
8
0
10
1358.5
20
51589.0
0
SEQEND
0
POLYLINE
8
0
66
1
10
0.0
20
0.0
30
0.0
0
VERTEX
8
0
10
1360.5
20
51591.0
0
VERTEX
8
0
10
1363.5
20
51591.0
0
VERTEX
8
0
10
1363.5
20
51591.45
0
VERTEX
8
0
10
1360.5
20
51593.0
0
VERTEX
8
0
10
1360.5
20
51591.0
0
SEQEND
0
POLYLINE
8
0
66
1
10
0.0
20
0.0
30
0.0
0
VERTEX
8
0
10
1360.5
20
51591.0
0
VERTEX
8
0
10
1363.5
20
51591.0
0
VERTEX
8
0
10
1363.5
20
51590.55
0
VERTEX
8
0
10
1360.5
20
51589.0
0
VERTEX
8
0
10
1360.5
20
51591.0
0
SEQEND
0
POLYLINE
8
0
66
1
10
0.0
20
0.0
30
0.0
0
VERTEX
8
0
10
1363.5
20
51590.55
0
VERTEX
8
0
10
1364.3
20
51590.55
0
VERTEX
8
0
10
1364.3
20
51591.45
0
VERTEX
8
0
10
1363.5
20
51591.45
0
VERTEX
8
0
10
1363.5
20
51590.55
0
SEQEND
0
POLYLINE
8
0
66
1
10
0.0
20
0.0
30
0.0
0
VERTEX
8
0
10
1364.5
20
51591.0
0
VERTEX
8
0
10
1366.5
20
51591.0
0
VERTEX
8
0
10
1366.5
20
51593.0
0
VERTEX
8
0
10
1364.5
20
51592.0
0
VERTEX
8
0
10
1364.5
20
51591.0
0
SEQEND
0
POLYLINE
8
0
66
1
10
0.0
20
0.0
30
0.0
0
VERTEX
8
0
10
1364.5
20
51591.0
0
VERTEX
8
0
10
1366.5
20
51591.0
0
VERTEX
8
0
10
1366.5
20
51589.0
0
VERTEX
8
0
10
1364.5
20
51590.0
0
VERTEX
8
0
10
1364.5
20
51591.0
0
SEQEND
0
POLYLINE
8
0
66
1
10
0.0
20
0.0
30
0.0
0
VERTEX
8
0
10
1346.3499999999985
20
50111.0
0
VERTEX
8
0
10
1346.3499999999985
20
50107.0
0
VERTEX
8
0
10
1378.6500000000015
20
50107.0
0
VERTEX
8
0
10
1378.6500000000015
20
50111.0
0
VERTEX
8
0
10
1346.3499999999985
20
50111.0
0
SEQEND
0
POLYLINE
8
0
66
1
10
0.0
20
0.0
30
0.0
0
VERTEX
8
0
10
1346.3499999999985
20
50093.0
0
VERTEX
8
0
10
1346.3499999999985
20
50089.0
0
VERTEX
8
0
10
1378.6500000000015
20
50089.0
0
VERTEX
8
0
10
1378.6500000000015
20
50093.0
0
VERTEX
8
0
10
1346.3499999999985
20
50093.0
0
SEQEND
0
POLYLINE
8
0
66
1
10
0.0
20
0.0
30
0.0
0
VERTEX
8
0
10
1378.6500000000015
20
50111.0
0
VERTEX
8
0
10
1378.6500000000015
20
50089.0
0
VERTEX
8
0
10
1401.6500000000015
20
50089.0
0
VERTEX
8
0
10
1401.6500000000015
20
50111.0
0
VERTEX
8
0
10
1378.6500000000015
20
50111.0
0
SEQEND
0
POLYLINE
8
0
66
1
10
0.0
20
0.0
30
0.0
0
VERTEX
8
0
10
1346.3499999999985
20
50111.0
0
VERTEX
8
0
10
1346.3499999999985
20
50089.0
0
VERTEX
8
0
10
1323.3499999999985
20
50089.0
0
VERTEX
8
0
10
1323.3499999999985
20
50111.0
0
VERTEX
8
0
10
1346.3499999999985
20
50111.0
0
SEQEND
0
POLYLINE
8
0
66
1
10
0.0
20
0.0
30
0.0
0
VERTEX
8
0
10
1358.5
20
50111.0
0
VERTEX
8
0
10
1358.5
20
50107.0
0
VERTEX
8
0
10
1366.5
20
50107.0
0
VERTEX
8
0
10
1366.5
20
50111.0
0
VERTEX
8
0
10
1358.5
20
50111.0
0
SEQEND
0
POLYLINE
8
0
66
1
10
0.0
20
0.0
30
0.0
0
VERTEX
8
0
10
1358.5
20
50107.0
0
VERTEX
8
0
10
1360.5
20
50107.0
0
VERTEX
8
0
10
1360.5
20
50111.0
0
VERTEX
8
0
10
1358.5
20
50111.0
0
VERTEX
8
0
10
1358.5
20
50107.0
0
SEQEND
0
POLYLINE
8
0
66
1
10
0.0
20
0.0
30
0.0
0
VERTEX
8
0
10
1360.5
20
50109.0
0
VERTEX
8
0
10
1363.5
20
50109.0
0
VERTEX
8
0
10
1363.5
20
50109.45
0
VERTEX
8
0
10
1360.5
20
50111.0
0
VERTEX
8
0
10
1360.5
20
50109.0
0
SEQEND
0
POLYLINE
8
0
66
1
10
0.0
20
0.0
30
0.0
0
VERTEX
8
0
10
1360.5
20
50109.0
0
VERTEX
8
0
10
1363.5
20
50109.0
0
VERTEX
8
0
10
1363.5
20
50108.55
0
VERTEX
8
0
10
1360.5
20
50107.0
0
VERTEX
8
0
10
1360.5
20
50109.0
0
SEQEND
0
POLYLINE
8
0
66
1
10
0.0
20
0.0
30
0.0
0
VERTEX
8
0
10
1363.5
20
50108.55
0
VERTEX
8
0
10
1364.3
20
50108.55
0
VERTEX
8
0
10
1364.3
20
50109.45
0
VERTEX
8
0
10
1363.5
20
50109.45
0
VERTEX
8
0
10
1363.5
20
50108.55
0
SEQEND
0
POLYLINE
8
0
66
1
10
0.0
20
0.0
30
0.0
0
VERTEX
8
0
10
1364.5
20
50109.0
0
VERTEX
8
0
10
1366.5
20
50109.0
0
VERTEX
8
0
10
1366.5
20
50111.0
0
VERTEX
8
0
10
1364.5
20
50110.0
0
VERTEX
8
0
10
1364.5
20
50109.0
0
SEQEND
0
POLYLINE
8
0
66
1
10
0.0
20
0.0
30
0.0
0
VERTEX
8
0
10
1364.5
20
50109.0
0
VERTEX
8
0
10
1366.5
20
50109.0
0
VERTEX
8
0
10
1366.5
20
50107.0
0
VERTEX
8
0
10
1364.5
20
50108.0
0
VERTEX
8
0
10
1364.5
20
50109.0
0
SEQEND
0
POLYLINE
8
0
66
1
10
0.0
20
0.0
30
0.0
0
VERTEX
8
0
10
1358.5
20
50093.0
0
VERTEX
8
0
10
1358.5
20
50089.0
0
VERTEX
8
0
10
1366.5
20
50089.0
0
VERTEX
8
0
10
1366.5
20
50093.0
0
VERTEX
8
0
10
1358.5
20
50093.0
0
SEQEND
0
POLYLINE
8
0
66
1
10
0.0
20
0.0
30
0.0
0
VERTEX
8
0
10
1358.5
20
50089.0
0
VERTEX
8
0
10
1360.5
20
50089.0
0
VERTEX
8
0
10
1360.5
20
50093.0
0
VERTEX
8
0
10
1358.5
20
50093.0
0
VERTEX
8
0
10
1358.5
20
50089.0
0
SEQEND
0
POLYLINE
8
0
66
1
10
0.0
20
0.0
30
0.0
0
VERTEX
8
0
10
1360.5
20
50091.0
0
VERTEX
8
0
10
1363.5
20
50091.0
0
VERTEX
8
0
10
1363.5
20
50091.45
0
VERTEX
8
0
10
1360.5
20
50093.0
0
VERTEX
8
0
10
1360.5
20
50091.0
0
SEQEND
0
POLYLINE
8
0
66
1
10
0.0
20
0.0
30
0.0
0
VERTEX
8
0
10
1360.5
20
50091.0
0
VERTEX
8
0
10
1363.5
20
50091.0
0
VERTEX
8
0
10
1363.5
20
50090.55
0
VERTEX
8
0
10
1360.5
20
50089.0
0
VERTEX
8
0
10
1360.5
20
50091.0
0
SEQEND
0
POLYLINE
8
0
66
1
10
0.0
20
0.0
30
0.0
0
VERTEX
8
0
10
1363.5
20
50090.55
0
VERTEX
8
0
10
1364.3
20
50090.55
0
VERTEX
8
0
10
1364.3
20
50091.45
0
VERTEX
8
0
10
1363.5
20
50091.45
0
VERTEX
8
0
10
1363.5
20
50090.55
0
SEQEND
0
POLYLINE
8
0
66
1
10
0.0
20
0.0
30
0.0
0
VERTEX
8
0
10
1364.5
20
50091.0
0
VERTEX
8
0
10
1366.5
20
50091.0
0
VERTEX
8
0
10
1366.5
20
50093.0
0
VERTEX
8
0
10
1364.5
20
50092.0
0
VERTEX
8
0
10
1364.5
20
50091.0
0
SEQEND
0
POLYLINE
8
0
66
1
10
0.0
20
0.0
30
0.0
0
VERTEX
8
0
10
1364.5
20
50091.0
0
VERTEX
8
0
10
1366.5
20
50091.0
0
VERTEX
8
0
10
1366.5
20
50089.0
0
VERTEX
8
0
10
1364.5
20
50090.0
0
VERTEX
8
0
10
1364.5
20
50091.0
0
SEQEND
0
POLYLINE
8
0
66
1
10
0.0
20
0.0
30
0.0
0
VERTEX
8
0
10
4071.3499999999985
20
51611.0
0
VERTEX
8
0
10
4071.3499999999985
20
51607.0
0
VERTEX
8
0
10
4103.6500000000015
20
51607.0
0
VERTEX
8
0
10
4103.6500000000015
20
51611.0
0
VERTEX
8
0
10
4071.3499999999985
20
51611.0
0
SEQEND
0
POLYLINE
8
0
66
1
10
0.0
20
0.0
30
0.0
0
VERTEX
8
0
10
4071.3499999999985
20
51593.0
0
VERTEX
8
0
10
4071.3499999999985
20
51589.0
0
VERTEX
8
0
10
4103.6500000000015
20
51589.0
0
VERTEX
8
0
10
4103.6500000000015
20
51593.0
0
VERTEX
8
0
10
4071.3499999999985
20
51593.0
0
SEQEND
0
POLYLINE
8
0
66
1
10
0.0
20
0.0
30
0.0
0
VERTEX
8
0
10
4103.6500000000015
20
51611.0
0
VERTEX
8
0
10
4103.6500000000015
20
51589.0
0
VERTEX
8
0
10
4126.6500000000015
20
51589.0
0
VERTEX
8
0
10
4126.6500000000015
20
51611.0
0
VERTEX
8
0
10
4103.6500000000015
20
51611.0
0
SEQEND
0
POLYLINE
8
0
66
1
10
0.0
20
0.0
30
0.0
0
VERTEX
8
0
10
4071.3499999999985
20
51611.0
0
VERTEX
8
0
10
4071.3499999999985
20
51589.0
0
VERTEX
8
0
10
4048.3499999999985
20
51589.0
0
VERTEX
8
0
10
4048.3499999999985
20
51611.0
0
VERTEX
8
0
10
4071.3499999999985
20
51611.0
0
SEQEND
0
POLYLINE
8
0
66
1
10
0.0
20
0.0
30
0.0
0
VERTEX
8
0
10
4083.5
20
51611.0
0
VERTEX
8
0
10
4083.5
20
51607.0
0
VERTEX
8
0
10
4091.5
20
51607.0
0
VERTEX
8
0
10
4091.5
20
51611.0
0
VERTEX
8
0
10
4083.5
20
51611.0
0
SEQEND
0
POLYLINE
8
0
66
1
10
0.0
20
0.0
30
0.0
0
VERTEX
8
0
10
4083.5
20
51607.0
0
VERTEX
8
0
10
4085.5
20
51607.0
0
VERTEX
8
0
10
4085.5
20
51611.0
0
VERTEX
8
0
10
4083.5
20
51611.0
0
VERTEX
8
0
10
4083.5
20
51607.0
0
SEQEND
0
POLYLINE
8
0
66
1
10
0.0
20
0.0
30
0.0
0
VERTEX
8
0
10
4085.5
20
51609.0
0
VERTEX
8
0
10
4088.5
20
51609.0
0
VERTEX
8
0
10
4088.5
20
51609.45
0
VERTEX
8
0
10
4085.5
20
51611.0
0
VERTEX
8
0
10
4085.5
20
51609.0
0
SEQEND
0
POLYLINE
8
0
66
1
10
0.0
20
0.0
30
0.0
0
VERTEX
8
0
10
4085.5
20
51609.0
0
VERTEX
8
0
10
4088.5
20
51609.0
0
VERTEX
8
0
10
4088.5
20
51608.55
0
VERTEX
8
0
10
4085.5
20
51607.0
0
VERTEX
8
0
10
4085.5
20
51609.0
0
SEQEND
0
POLYLINE
8
0
66
1
10
0.0
20
0.0
30
0.0
0
VERTEX
8
0
10
4088.5
20
51608.55
0
VERTEX
8
0
10
4089.3
20
51608.55
0
VERTEX
8
0
10
4089.3
20
51609.45
0
VERTEX
8
0
10
4088.5
20
51609.45
0
VERTEX
8
0
10
4088.5
20
51608.55
0
SEQEND
0
POLYLINE
8
0
66
1
10
0.0
20
0.0
30
0.0
0
VERTEX
8
0
10
4089.5
20
51609.0
0
VERTEX
8
0
10
4091.5
20
51609.0
0
VERTEX
8
0
10
4091.5
20
51611.0
0
VERTEX
8
0
10
4089.5
20
51610.0
0
VERTEX
8
0
10
4089.5
20
51609.0
0
SEQEND
0
POLYLINE
8
0
66
1
10
0.0
20
0.0
30
0.0
0
VERTEX
8
0
10
4089.5
20
51609.0
0
VERTEX
8
0
10
4091.5
20
51609.0
0
VERTEX
8
0
10
4091.5
20
51607.0
0
VERTEX
8
0
10
4089.5
20
51608.0
0
VERTEX
8
0
10
4089.5
20
51609.0
0
SEQEND
0
POLYLINE
8
0
66
1
10
0.0
20
0.0
30
0.0
0
VERTEX
8
0
10
4083.5
20
51593.0
0
VERTEX
8
0
10
4083.5
20
51589.0
0
VERTEX
8
0
10
4091.5
20
51589.0
0
VERTEX
8
0
10
4091.5
20
51593.0
0
VERTEX
8
0
10
4083.5
20
51593.0
0
SEQEND
0
POLYLINE
8
0
66
1
10
0.0
20
0.0
30
0.0
0
VERTEX
8
0
10
4083.5
20
51589.0
0
VERTEX
8
0
10
4085.5
20
51589.0
0
VERTEX
8
0
10
4085.5
20
51593.0
0
VERTEX
8
0
10
4083.5
20
51593.0
0
VERTEX
8
0
10
4083.5
20
51589.0
0
SEQEND
0
POLYLINE
8
0
66
1
10
0.0
20
0.0
30
0.0
0
VERTEX
8
0
10
4085.5
20
51591.0
0
VERTEX
8
0
10
4088.5
20
51591.0
0
VERTEX
8
0
10
4088.5
20
51591.45
0
VERTEX
8
0
10
4085.5
20
51593.0
0
VERTEX
8
0
10
4085.5
20
51591.0
0
SEQEND
0
POLYLINE
8
0
66
1
10
0.0
20
0.0
30
0.0
0
VERTEX
8
0
10
4085.5
20
51591.0
0
VERTEX
8
0
10
4088.5
20
51591.0
0
VERTEX
8
0
10
4088.5
20
51590.55
0
VERTEX
8
0
10
4085.5
20
51589.0
0
VERTEX
8
0
10
4085.5
20
51591.0
0
SEQEND
0
POLYLINE
8
0
66
1
10
0.0
20
0.0
30
0.0
0
VERTEX
8
0
10
4088.5
20
51590.55
0
VERTEX
8
0
10
4089.3
20
51590.55
0
VERTEX
8
0
10
4089.3
20
51591.45
0
VERTEX
8
0
10
4088.5
20
51591.45
0
VERTEX
8
0
10
4088.5
20
51590.55
0
SEQEND
0
POLYLINE
8
0
66
1
10
0.0
20
0.0
30
0.0
0
VERTEX
8
0
10
4089.5
20
51591.0
0
VERTEX
8
0
10
4091.5
20
51591.0
0
VERTEX
8
0
10
4091.5
20
51593.0
0
VERTEX
8
0
10
4089.5
20
51592.0
0
VERTEX
8
0
10
4089.5
20
51591.0
0
SEQEND
0
POLYLINE
8
0
66
1
10
0.0
20
0.0
30
0.0
0
VERTEX
8
0
10
4089.5
20
51591.0
0
VERTEX
8
0
10
4091.5
20
51591.0
0
VERTEX
8
0
10
4091.5
20
51589.0
0
VERTEX
8
0
10
4089.5
20
51590.0
0
VERTEX
8
0
10
4089.5
20
51591.0
0
SEQEND
0
POLYLINE
8
0
66
1
10
0.0
20
0.0
30
0.0
0
VERTEX
8
0
10
4071.3499999999985
20
50111.0
0
VERTEX
8
0
10
4071.3499999999985
20
50107.0
0
VERTEX
8
0
10
4103.6500000000015
20
50107.0
0
VERTEX
8
0
10
4103.6500000000015
20
50111.0
0
VERTEX
8
0
10
4071.3499999999985
20
50111.0
0
SEQEND
0
POLYLINE
8
0
66
1
10
0.0
20
0.0
30
0.0
0
VERTEX
8
0
10
4071.3499999999985
20
50093.0
0
VERTEX
8
0
10
4071.3499999999985
20
50089.0
0
VERTEX
8
0
10
4103.6500000000015
20
50089.0
0
VERTEX
8
0
10
4103.6500000000015
20
50093.0
0
VERTEX
8
0
10
4071.3499999999985
20
50093.0
0
SEQEND
0
POLYLINE
8
0
66
1
10
0.0
20
0.0
30
0.0
0
VERTEX
8
0
10
4103.6500000000015
20
50111.0
0
VERTEX
8
0
10
4103.6500000000015
20
50089.0
0
VERTEX
8
0
10
4126.6500000000015
20
50089.0
0
VERTEX
8
0
10
4126.6500000000015
20
50111.0
0
VERTEX
8
0
10
4103.6500000000015
20
50111.0
0
SEQEND
0
POLYLINE
8
0
66
1
10
0.0
20
0.0
30
0.0
0
VERTEX
8
0
10
4071.3499999999985
20
50111.0
0
VERTEX
8
0
10
4071.3499999999985
20
50089.0
0
VERTEX
8
0
10
4048.3499999999985
20
50089.0
0
VERTEX
8
0
10
4048.3499999999985
20
50111.0
0
VERTEX
8
0
10
4071.3499999999985
20
50111.0
0
SEQEND
0
POLYLINE
8
0
66
1
10
0.0
20
0.0
30
0.0
0
VERTEX
8
0
10
4083.5
20
50111.0
0
VERTEX
8
0
10
4083.5
20
50107.0
0
VERTEX
8
0
10
4091.5
20
50107.0
0
VERTEX
8
0
10
4091.5
20
50111.0
0
VERTEX
8
0
10
4083.5
20
50111.0
0
SEQEND
0
POLYLINE
8
0
66
1
10
0.0
20
0.0
30
0.0
0
VERTEX
8
0
10
4083.5
20
50107.0
0
VERTEX
8
0
10
4085.5
20
50107.0
0
VERTEX
8
0
10
4085.5
20
50111.0
0
VERTEX
8
0
10
4083.5
20
50111.0
0
VERTEX
8
0
10
4083.5
20
50107.0
0
SEQEND
0
POLYLINE
8
0
66
1
10
0.0
20
0.0
30
0.0
0
VERTEX
8
0
10
4085.5
20
50109.0
0
VERTEX
8
0
10
4088.5
20
50109.0
0
VERTEX
8
0
10
4088.5
20
50109.45
0
VERTEX
8
0
10
4085.5
20
50111.0
0
VERTEX
8
0
10
4085.5
20
50109.0
0
SEQEND
0
POLYLINE
8
0
66
1
10
0.0
20
0.0
30
0.0
0
VERTEX
8
0
10
4085.5
20
50109.0
0
VERTEX
8
0
10
4088.5
20
50109.0
0
VERTEX
8
0
10
4088.5
20
50108.55
0
VERTEX
8
0
10
4085.5
20
50107.0
0
VERTEX
8
0
10
4085.5
20
50109.0
0
SEQEND
0
POLYLINE
8
0
66
1
10
0.0
20
0.0
30
0.0
0
VERTEX
8
0
10
4088.5
20
50108.55
0
VERTEX
8
0
10
4089.3
20
50108.55
0
VERTEX
8
0
10
4089.3
20
50109.45
0
VERTEX
8
0
10
4088.5
20
50109.45
0
VERTEX
8
0
10
4088.5
20
50108.55
0
SEQEND
0
POLYLINE
8
0
66
1
10
0.0
20
0.0
30
0.0
0
VERTEX
8
0
10
4089.5
20
50109.0
0
VERTEX
8
0
10
4091.5
20
50109.0
0
VERTEX
8
0
10
4091.5
20
50111.0
0
VERTEX
8
0
10
4089.5
20
50110.0
0
VERTEX
8
0
10
4089.5
20
50109.0
0
SEQEND
0
POLYLINE
8
0
66
1
10
0.0
20
0.0
30
0.0
0
VERTEX
8
0
10
4089.5
20
50109.0
0
VERTEX
8
0
10
4091.5
20
50109.0
0
VERTEX
8
0
10
4091.5
20
50107.0
0
VERTEX
8
0
10
4089.5
20
50108.0
0
VERTEX
8
0
10
4089.5
20
50109.0
0
SEQEND
0
POLYLINE
8
0
66
1
10
0.0
20
0.0
30
0.0
0
VERTEX
8
0
10
4083.5
20
50093.0
0
VERTEX
8
0
10
4083.5
20
50089.0
0
VERTEX
8
0
10
4091.5
20
50089.0
0
VERTEX
8
0
10
4091.5
20
50093.0
0
VERTEX
8
0
10
4083.5
20
50093.0
0
SEQEND
0
POLYLINE
8
0
66
1
10
0.0
20
0.0
30
0.0
0
VERTEX
8
0
10
4083.5
20
50089.0
0
VERTEX
8
0
10
4085.5
20
50089.0
0
VERTEX
8
0
10
4085.5
20
50093.0
0
VERTEX
8
0
10
4083.5
20
50093.0
0
VERTEX
8
0
10
4083.5
20
50089.0
0
SEQEND
0
POLYLINE
8
0
66
1
10
0.0
20
0.0
30
0.0
0
VERTEX
8
0
10
4085.5
20
50091.0
0
VERTEX
8
0
10
4088.5
20
50091.0
0
VERTEX
8
0
10
4088.5
20
50091.45
0
VERTEX
8
0
10
4085.5
20
50093.0
0
VERTEX
8
0
10
4085.5
20
50091.0
0
SEQEND
0
POLYLINE
8
0
66
1
10
0.0
20
0.0
30
0.0
0
VERTEX
8
0
10
4085.5
20
50091.0
0
VERTEX
8
0
10
4088.5
20
50091.0
0
VERTEX
8
0
10
4088.5
20
50090.55
0
VERTEX
8
0
10
4085.5
20
50089.0
0
VERTEX
8
0
10
4085.5
20
50091.0
0
SEQEND
0
POLYLINE
8
0
66
1
10
0.0
20
0.0
30
0.0
0
VERTEX
8
0
10
4088.5
20
50090.55
0
VERTEX
8
0
10
4089.3
20
50090.55
0
VERTEX
8
0
10
4089.3
20
50091.45
0
VERTEX
8
0
10
4088.5
20
50091.45
0
VERTEX
8
0
10
4088.5
20
50090.55
0
SEQEND
0
POLYLINE
8
0
66
1
10
0.0
20
0.0
30
0.0
0
VERTEX
8
0
10
4089.5
20
50091.0
0
VERTEX
8
0
10
4091.5
20
50091.0
0
VERTEX
8
0
10
4091.5
20
50093.0
0
VERTEX
8
0
10
4089.5
20
50092.0
0
VERTEX
8
0
10
4089.5
20
50091.0
0
SEQEND
0
POLYLINE
8
0
66
1
10
0.0
20
0.0
30
0.0
0
VERTEX
8
0
10
4089.5
20
50091.0
0
VERTEX
8
0
10
4091.5
20
50091.0
0
VERTEX
8
0
10
4091.5
20
50089.0
0
VERTEX
8
0
10
4089.5
20
50090.0
0
VERTEX
8
0
10
4089.5
20
50091.0
0
SEQEND
0
ENDBLK
0
BLOCK
8
0
2
C1D
70
0
10
0
20
0
30
0
3
C1D

0
ENDBLK
0
ENDSEC
0
SECTION
2
ENTITIES
0
INSERT
2
C1DGAP
8
GAP
10
0
20
0
0
INSERT
2
C1DPIN
8
PIN
10
0
20
0
0
INSERT
2
C1D
8
0
10
0
20
0
0
ENDSEC
0
EOF
