0
SECTION
2
HEADER
9
$ACADVER
1
AC1006
9
$INSBASE
10
0.0
20
0.0
30
0.0
9
$EXTMIN
10
0.0
20
0.0
9
$EXTMAX
10
0.0
20
0.0
0
ENDSEC
0
SECTION
2
TABLES
0
TABLE
2
LTYPE
70
1
0
LTYPE
2
CONTINUOUS
70
64
3
Solid line
72
65
73
0
40
0.0
0
ENDTAB
0
TABLE
2
LAYER
70
3
0
LAYER
2
PYDXF
70
64
62
7
6
continuous
0
LAYER
2
GAP
70
64
62
1
6
continuous
0
LAYER
2
PIN
70
64
62
3
6
continuous
0
ENDTAB
0
TABLE
2
STYLE
70
1
0
STYLE
2
STANDARD
70
0
40
0
41
40
50
50
71
0
42
1
3
ARIAL.TTF
4

0
ENDTAB
0
TABLE
2
VIEW
70
0
0
ENDTAB
0
ENDSEC
0
SECTION
2
BLOCKS
0
BLOCK
8
GAP
2
C1BGAP
70
0
10
0
20
0
30
0
3
C1BGAP
0
POLYLINE
8
0
66
1
10
0.0
20
0.0
30
0.0
0
VERTEX
8
0
10
-25.0
20
23345.0
0
VERTEX
8
0
10
-25.0
20
23270.0
0
VERTEX
8
0
10
275.0
20
23270.0
0
VERTEX
8
0
10
275.0
20
23345.0
0
VERTEX
8
0
10
-25.0
20
23345.0
0
SEQEND
0
POLYLINE
8
0
66
1
10
0.0
20
0.0
30
0.0
0
VERTEX
8
0
10
-25.0
20
23270.0
0
VERTEX
8
0
10
-24.999999999999986
20
22945.0
0
VERTEX
8
0
10
275.0
20
22945.0
0
VERTEX
8
0
10
275.0
20
23270.0
0
VERTEX
8
0
10
-25.0
20
23270.0
0
SEQEND
0
POLYLINE
8
0
66
1
10
0.0
20
0.0
30
0.0
0
VERTEX
8
0
10
125.00000000000001
20
22945.0
0
VERTEX
8
0
10
125.00000000000003
20
22695.0
0
VERTEX
8
0
10
134.84168810941995
20
22695.0
0
VERTEX
8
0
10
275.0
20
22945.0
0
VERTEX
8
0
10
125.00000000000001
20
22945.0
0
SEQEND
0
POLYLINE
8
0
66
1
10
0.0
20
0.0
30
0.0
0
VERTEX
8
0
10
125.00000000000001
20
22945.0
0
VERTEX
8
0
10
125.00000000000003
20
22695.0
0
VERTEX
8
0
10
115.15831189058011
20
22695.0
0
VERTEX
8
0
10
-24.999999999999986
20
22945.0
0
VERTEX
8
0
10
125.00000000000001
20
22945.0
0
SEQEND
0
POLYLINE
8
0
66
1
10
0.0
20
0.0
30
0.0
0
VERTEX
8
0
10
-25.0
20
25600.0
0
VERTEX
8
0
10
-25.0
20
25525.0
0
VERTEX
8
0
10
275.0
20
25525.0
0
VERTEX
8
0
10
275.0
20
25600.0
0
VERTEX
8
0
10
-25.0
20
25600.0
0
SEQEND
0
POLYLINE
8
0
66
1
10
0.0
20
0.0
30
0.0
0
VERTEX
8
0
10
-25.0
20
25525.0
0
VERTEX
8
0
10
-24.999999999999986
20
25200.0
0
VERTEX
8
0
10
275.0
20
25200.0
0
VERTEX
8
0
10
275.0
20
25525.0
0
VERTEX
8
0
10
-25.0
20
25525.0
0
SEQEND
0
POLYLINE
8
0
66
1
10
0.0
20
0.0
30
0.0
0
VERTEX
8
0
10
125.00000000000001
20
25200.0
0
VERTEX
8
0
10
125.00000000000003
20
24950.0
0
VERTEX
8
0
10
134.84168810941995
20
24950.0
0
VERTEX
8
0
10
275.0
20
25200.0
0
VERTEX
8
0
10
125.00000000000001
20
25200.0
0
SEQEND
0
POLYLINE
8
0
66
1
10
0.0
20
0.0
30
0.0
0
VERTEX
8
0
10
125.00000000000001
20
25200.0
0
VERTEX
8
0
10
125.00000000000003
20
24950.0
0
VERTEX
8
0
10
115.15831189058011
20
24950.0
0
VERTEX
8
0
10
-24.999999999999986
20
25200.0
0
VERTEX
8
0
10
125.00000000000001
20
25200.0
0
SEQEND
0
POLYLINE
8
0
66
1
10
0.0
20
0.0
30
0.0
0
VERTEX
8
0
10
4825.0
20
47850.0
0
VERTEX
8
0
10
4750.0
20
47850.0
0
VERTEX
8
0
10
4750.0
20
47550.0
0
VERTEX
8
0
10
4825.0
20
47550.0
0
VERTEX
8
0
10
4825.0
20
47850.0
0
SEQEND
0
POLYLINE
8
0
66
1
10
0.0
20
0.0
30
0.0
0
VERTEX
8
0
10
4750.0
20
47850.0
0
VERTEX
8
0
10
4425.0
20
47850.0
0
VERTEX
8
0
10
4425.0
20
47550.0
0
VERTEX
8
0
10
4750.0
20
47550.0
0
VERTEX
8
0
10
4750.0
20
47850.0
0
SEQEND
0
POLYLINE
8
0
66
1
10
0.0
20
0.0
30
0.0
0
VERTEX
8
0
10
4425.0
20
47700.0
0
VERTEX
8
0
10
4175.0
20
47700.0
0
VERTEX
8
0
10
4175.0
20
47690.158311890584
0
VERTEX
8
0
10
4425.0
20
47550.0
0
VERTEX
8
0
10
4425.0
20
47700.0
0
SEQEND
0
POLYLINE
8
0
66
1
10
0.0
20
0.0
30
0.0
0
VERTEX
8
0
10
4425.0
20
47700.0
0
VERTEX
8
0
10
4175.0
20
47700.0
0
VERTEX
8
0
10
4175.0
20
47709.841688109416
0
VERTEX
8
0
10
4425.0
20
47850.0
0
VERTEX
8
0
10
4425.0
20
47700.0
0
SEQEND
0
POLYLINE
8
0
66
1
10
0.0
20
0.0
30
0.0
0
VERTEX
8
0
10
5175.0
20
25600.0
0
VERTEX
8
0
10
5175.0
20
25525.0
0
VERTEX
8
0
10
5475.0
20
25525.0
0
VERTEX
8
0
10
5475.0
20
25600.0
0
VERTEX
8
0
10
5175.0
20
25600.0
0
SEQEND
0
POLYLINE
8
0
66
1
10
0.0
20
0.0
30
0.0
0
VERTEX
8
0
10
5175.0
20
25525.0
0
VERTEX
8
0
10
5175.0
20
25200.0
0
VERTEX
8
0
10
5475.0
20
25200.0
0
VERTEX
8
0
10
5475.0
20
25525.0
0
VERTEX
8
0
10
5175.0
20
25525.0
0
SEQEND
0
POLYLINE
8
0
66
1
10
0.0
20
0.0
30
0.0
0
VERTEX
8
0
10
5325.0
20
25200.0
0
VERTEX
8
0
10
5325.0
20
24950.0
0
VERTEX
8
0
10
5334.84168810942
20
24950.0
0
VERTEX
8
0
10
5475.0
20
25200.0
0
VERTEX
8
0
10
5325.0
20
25200.0
0
SEQEND
0
POLYLINE
8
0
66
1
10
0.0
20
0.0
30
0.0
0
VERTEX
8
0
10
5325.0
20
25200.0
0
VERTEX
8
0
10
5325.0
20
24950.0
0
VERTEX
8
0
10
5315.15831189058
20
24950.0
0
VERTEX
8
0
10
5175.0
20
25200.0
0
VERTEX
8
0
10
5325.0
20
25200.0
0
SEQEND
0
POLYLINE
8
0
66
1
10
0.0
20
0.0
30
0.0
0
VERTEX
8
0
10
5175.0
20
23350.0
0
VERTEX
8
0
10
5175.0
20
23275.0
0
VERTEX
8
0
10
5475.0
20
23275.0
0
VERTEX
8
0
10
5475.0
20
23350.0
0
VERTEX
8
0
10
5175.0
20
23350.0
0
SEQEND
0
POLYLINE
8
0
66
1
10
0.0
20
0.0
30
0.0
0
VERTEX
8
0
10
5175.0
20
23275.0
0
VERTEX
8
0
10
5175.0
20
22950.0
0
VERTEX
8
0
10
5475.0
20
22950.0
0
VERTEX
8
0
10
5475.0
20
23275.0
0
VERTEX
8
0
10
5175.0
20
23275.0
0
SEQEND
0
POLYLINE
8
0
66
1
10
0.0
20
0.0
30
0.0
0
VERTEX
8
0
10
5325.0
20
22950.0
0
VERTEX
8
0
10
5325.0
20
22700.0
0
VERTEX
8
0
10
5334.84168810942
20
22700.0
0
VERTEX
8
0
10
5475.0
20
22950.0
0
VERTEX
8
0
10
5325.0
20
22950.0
0
SEQEND
0
POLYLINE
8
0
66
1
10
0.0
20
0.0
30
0.0
0
VERTEX
8
0
10
5325.0
20
22950.0
0
VERTEX
8
0
10
5325.0
20
22700.0
0
VERTEX
8
0
10
5315.15831189058
20
22700.0
0
VERTEX
8
0
10
5175.0
20
22950.0
0
VERTEX
8
0
10
5325.0
20
22950.0
0
SEQEND
0
POLYLINE
8
0
66
1
10
0.0
20
0.0
30
0.0
0
VERTEX
8
0
10
4825.0
20
950.0
0
VERTEX
8
0
10
4750.0
20
950.0
0
VERTEX
8
0
10
4750.0
20
650.0
0
VERTEX
8
0
10
4825.0
20
650.0
0
VERTEX
8
0
10
4825.0
20
950.0
0
SEQEND
0
POLYLINE
8
0
66
1
10
0.0
20
0.0
30
0.0
0
VERTEX
8
0
10
4750.0
20
950.0
0
VERTEX
8
0
10
4425.0
20
950.0
0
VERTEX
8
0
10
4425.0
20
650.0
0
VERTEX
8
0
10
4750.0
20
650.0
0
VERTEX
8
0
10
4750.0
20
950.0
0
SEQEND
0
POLYLINE
8
0
66
1
10
0.0
20
0.0
30
0.0
0
VERTEX
8
0
10
4425.0
20
800.0
0
VERTEX
8
0
10
4175.0
20
800.0
0
VERTEX
8
0
10
4175.0
20
790.1583118905806
0
VERTEX
8
0
10
4425.0
20
650.0
0
VERTEX
8
0
10
4425.0
20
800.0
0
SEQEND
0
POLYLINE
8
0
66
1
10
0.0
20
0.0
30
0.0
0
VERTEX
8
0
10
4425.0
20
800.0
0
VERTEX
8
0
10
4175.0
20
800.0
0
VERTEX
8
0
10
4175.0
20
809.8416881094194
0
VERTEX
8
0
10
4425.0
20
950.0
0
VERTEX
8
0
10
4425.0
20
800.0
0
SEQEND
0
POLYLINE
8
0
66
1
10
0.0
20
0.0
30
0.0
0
VERTEX
8
0
10
625.0
20
650.0
0
VERTEX
8
0
10
700.0
20
650.0
0
VERTEX
8
0
10
700.0
20
950.0
0
VERTEX
8
0
10
625.0
20
950.0
0
VERTEX
8
0
10
625.0
20
650.0
0
SEQEND
0
POLYLINE
8
0
66
1
10
0.0
20
0.0
30
0.0
0
VERTEX
8
0
10
700.0
20
650.0
0
VERTEX
8
0
10
1025.0
20
650.0
0
VERTEX
8
0
10
1025.0
20
950.0
0
VERTEX
8
0
10
700.0
20
950.0
0
VERTEX
8
0
10
700.0
20
650.0
0
SEQEND
0
POLYLINE
8
0
66
1
10
0.0
20
0.0
30
0.0
0
VERTEX
8
0
10
1025.0
20
800.0
0
VERTEX
8
0
10
1275.0
20
800.0
0
VERTEX
8
0
10
1275.0
20
809.8416881094194
0
VERTEX
8
0
10
1025.0
20
950.0
0
VERTEX
8
0
10
1025.0
20
800.0
0
SEQEND
0
POLYLINE
8
0
66
1
10
0.0
20
0.0
30
0.0
0
VERTEX
8
0
10
1025.0
20
800.0
0
VERTEX
8
0
10
1275.0
20
800.0
0
VERTEX
8
0
10
1275.0
20
790.1583118905806
0
VERTEX
8
0
10
1025.0
20
650.0
0
VERTEX
8
0
10
1025.0
20
800.0
0
SEQEND
0
POLYLINE
8
0
66
1
10
0.0
20
0.0
30
0.0
0
VERTEX
8
0
10
-25.0
20
23345.0
0
VERTEX
8
0
10
-25.0
20
23270.0
0
VERTEX
8
0
10
275.0
20
23270.0
0
VERTEX
8
0
10
275.0
20
23345.0
0
VERTEX
8
0
10
-25.0
20
23345.0
0
SEQEND
0
POLYLINE
8
0
66
1
10
0.0
20
0.0
30
0.0
0
VERTEX
8
0
10
-25.0
20
23270.0
0
VERTEX
8
0
10
-24.999999999999986
20
22945.0
0
VERTEX
8
0
10
275.0
20
22945.0
0
VERTEX
8
0
10
275.0
20
23270.0
0
VERTEX
8
0
10
-25.0
20
23270.0
0
SEQEND
0
POLYLINE
8
0
66
1
10
0.0
20
0.0
30
0.0
0
VERTEX
8
0
10
125.00000000000001
20
22945.0
0
VERTEX
8
0
10
125.00000000000003
20
22695.0
0
VERTEX
8
0
10
134.84168810941995
20
22695.0
0
VERTEX
8
0
10
275.0
20
22945.0
0
VERTEX
8
0
10
125.00000000000001
20
22945.0
0
SEQEND
0
POLYLINE
8
0
66
1
10
0.0
20
0.0
30
0.0
0
VERTEX
8
0
10
125.00000000000001
20
22945.0
0
VERTEX
8
0
10
125.00000000000003
20
22695.0
0
VERTEX
8
0
10
115.15831189058011
20
22695.0
0
VERTEX
8
0
10
-24.999999999999986
20
22945.0
0
VERTEX
8
0
10
125.00000000000001
20
22945.0
0
SEQEND
0
POLYLINE
8
0
66
1
10
0.0
20
0.0
30
0.0
0
VERTEX
8
0
10
-25.0
20
25600.0
0
VERTEX
8
0
10
-25.0
20
25525.0
0
VERTEX
8
0
10
275.0
20
25525.0
0
VERTEX
8
0
10
275.0
20
25600.0
0
VERTEX
8
0
10
-25.0
20
25600.0
0
SEQEND
0
POLYLINE
8
0
66
1
10
0.0
20
0.0
30
0.0
0
VERTEX
8
0
10
-25.0
20
25525.0
0
VERTEX
8
0
10
-24.999999999999986
20
25200.0
0
VERTEX
8
0
10
275.0
20
25200.0
0
VERTEX
8
0
10
275.0
20
25525.0
0
VERTEX
8
0
10
-25.0
20
25525.0
0
SEQEND
0
POLYLINE
8
0
66
1
10
0.0
20
0.0
30
0.0
0
VERTEX
8
0
10
125.00000000000001
20
25200.0
0
VERTEX
8
0
10
125.00000000000003
20
24950.0
0
VERTEX
8
0
10
134.84168810941995
20
24950.0
0
VERTEX
8
0
10
275.0
20
25200.0
0
VERTEX
8
0
10
125.00000000000001
20
25200.0
0
SEQEND
0
POLYLINE
8
0
66
1
10
0.0
20
0.0
30
0.0
0
VERTEX
8
0
10
125.00000000000001
20
25200.0
0
VERTEX
8
0
10
125.00000000000003
20
24950.0
0
VERTEX
8
0
10
115.15831189058011
20
24950.0
0
VERTEX
8
0
10
-24.999999999999986
20
25200.0
0
VERTEX
8
0
10
125.00000000000001
20
25200.0
0
SEQEND
0
POLYLINE
8
0
66
1
10
0.0
20
0.0
30
0.0
0
VERTEX
8
0
10
4825.0
20
47850.0
0
VERTEX
8
0
10
4750.0
20
47850.0
0
VERTEX
8
0
10
4750.0
20
47550.0
0
VERTEX
8
0
10
4825.0
20
47550.0
0
VERTEX
8
0
10
4825.0
20
47850.0
0
SEQEND
0
POLYLINE
8
0
66
1
10
0.0
20
0.0
30
0.0
0
VERTEX
8
0
10
4750.0
20
47850.0
0
VERTEX
8
0
10
4425.0
20
47850.0
0
VERTEX
8
0
10
4425.0
20
47550.0
0
VERTEX
8
0
10
4750.0
20
47550.0
0
VERTEX
8
0
10
4750.0
20
47850.0
0
SEQEND
0
POLYLINE
8
0
66
1
10
0.0
20
0.0
30
0.0
0
VERTEX
8
0
10
4425.0
20
47700.0
0
VERTEX
8
0
10
4175.0
20
47700.0
0
VERTEX
8
0
10
4175.0
20
47690.158311890584
0
VERTEX
8
0
10
4425.0
20
47550.0
0
VERTEX
8
0
10
4425.0
20
47700.0
0
SEQEND
0
POLYLINE
8
0
66
1
10
0.0
20
0.0
30
0.0
0
VERTEX
8
0
10
4425.0
20
47700.0
0
VERTEX
8
0
10
4175.0
20
47700.0
0
VERTEX
8
0
10
4175.0
20
47709.841688109416
0
VERTEX
8
0
10
4425.0
20
47850.0
0
VERTEX
8
0
10
4425.0
20
47700.0
0
SEQEND
0
POLYLINE
8
0
66
1
10
0.0
20
0.0
30
0.0
0
VERTEX
8
0
10
5175.0
20
25600.0
0
VERTEX
8
0
10
5175.0
20
25525.0
0
VERTEX
8
0
10
5475.0
20
25525.0
0
VERTEX
8
0
10
5475.0
20
25600.0
0
VERTEX
8
0
10
5175.0
20
25600.0
0
SEQEND
0
POLYLINE
8
0
66
1
10
0.0
20
0.0
30
0.0
0
VERTEX
8
0
10
5175.0
20
25525.0
0
VERTEX
8
0
10
5175.0
20
25200.0
0
VERTEX
8
0
10
5475.0
20
25200.0
0
VERTEX
8
0
10
5475.0
20
25525.0
0
VERTEX
8
0
10
5175.0
20
25525.0
0
SEQEND
0
POLYLINE
8
0
66
1
10
0.0
20
0.0
30
0.0
0
VERTEX
8
0
10
5325.0
20
25200.0
0
VERTEX
8
0
10
5325.0
20
24950.0
0
VERTEX
8
0
10
5334.84168810942
20
24950.0
0
VERTEX
8
0
10
5475.0
20
25200.0
0
VERTEX
8
0
10
5325.0
20
25200.0
0
SEQEND
0
POLYLINE
8
0
66
1
10
0.0
20
0.0
30
0.0
0
VERTEX
8
0
10
5325.0
20
25200.0
0
VERTEX
8
0
10
5325.0
20
24950.0
0
VERTEX
8
0
10
5315.15831189058
20
24950.0
0
VERTEX
8
0
10
5175.0
20
25200.0
0
VERTEX
8
0
10
5325.0
20
25200.0
0
SEQEND
0
POLYLINE
8
0
66
1
10
0.0
20
0.0
30
0.0
0
VERTEX
8
0
10
5175.0
20
23350.0
0
VERTEX
8
0
10
5175.0
20
23275.0
0
VERTEX
8
0
10
5475.0
20
23275.0
0
VERTEX
8
0
10
5475.0
20
23350.0
0
VERTEX
8
0
10
5175.0
20
23350.0
0
SEQEND
0
POLYLINE
8
0
66
1
10
0.0
20
0.0
30
0.0
0
VERTEX
8
0
10
5175.0
20
23275.0
0
VERTEX
8
0
10
5175.0
20
22950.0
0
VERTEX
8
0
10
5475.0
20
22950.0
0
VERTEX
8
0
10
5475.0
20
23275.0
0
VERTEX
8
0
10
5175.0
20
23275.0
0
SEQEND
0
POLYLINE
8
0
66
1
10
0.0
20
0.0
30
0.0
0
VERTEX
8
0
10
5325.0
20
22950.0
0
VERTEX
8
0
10
5325.0
20
22700.0
0
VERTEX
8
0
10
5334.84168810942
20
22700.0
0
VERTEX
8
0
10
5475.0
20
22950.0
0
VERTEX
8
0
10
5325.0
20
22950.0
0
SEQEND
0
POLYLINE
8
0
66
1
10
0.0
20
0.0
30
0.0
0
VERTEX
8
0
10
5325.0
20
22950.0
0
VERTEX
8
0
10
5325.0
20
22700.0
0
VERTEX
8
0
10
5315.15831189058
20
22700.0
0
VERTEX
8
0
10
5175.0
20
22950.0
0
VERTEX
8
0
10
5325.0
20
22950.0
0
SEQEND
0
POLYLINE
8
0
66
1
10
0.0
20
0.0
30
0.0
0
VERTEX
8
0
10
4825.0
20
950.0
0
VERTEX
8
0
10
4750.0
20
950.0
0
VERTEX
8
0
10
4750.0
20
650.0
0
VERTEX
8
0
10
4825.0
20
650.0
0
VERTEX
8
0
10
4825.0
20
950.0
0
SEQEND
0
POLYLINE
8
0
66
1
10
0.0
20
0.0
30
0.0
0
VERTEX
8
0
10
4750.0
20
950.0
0
VERTEX
8
0
10
4425.0
20
950.0
0
VERTEX
8
0
10
4425.0
20
650.0
0
VERTEX
8
0
10
4750.0
20
650.0
0
VERTEX
8
0
10
4750.0
20
950.0
0
SEQEND
0
POLYLINE
8
0
66
1
10
0.0
20
0.0
30
0.0
0
VERTEX
8
0
10
4425.0
20
800.0
0
VERTEX
8
0
10
4175.0
20
800.0
0
VERTEX
8
0
10
4175.0
20
790.1583118905806
0
VERTEX
8
0
10
4425.0
20
650.0
0
VERTEX
8
0
10
4425.0
20
800.0
0
SEQEND
0
POLYLINE
8
0
66
1
10
0.0
20
0.0
30
0.0
0
VERTEX
8
0
10
4425.0
20
800.0
0
VERTEX
8
0
10
4175.0
20
800.0
0
VERTEX
8
0
10
4175.0
20
809.8416881094194
0
VERTEX
8
0
10
4425.0
20
950.0
0
VERTEX
8
0
10
4425.0
20
800.0
0
SEQEND
0
POLYLINE
8
0
66
1
10
0.0
20
0.0
30
0.0
0
VERTEX
8
0
10
625.0
20
650.0
0
VERTEX
8
0
10
700.0
20
650.0
0
VERTEX
8
0
10
700.0
20
950.0
0
VERTEX
8
0
10
625.0
20
950.0
0
VERTEX
8
0
10
625.0
20
650.0
0
SEQEND
0
POLYLINE
8
0
66
1
10
0.0
20
0.0
30
0.0
0
VERTEX
8
0
10
700.0
20
650.0
0
VERTEX
8
0
10
1025.0
20
650.0
0
VERTEX
8
0
10
1025.0
20
950.0
0
VERTEX
8
0
10
700.0
20
950.0
0
VERTEX
8
0
10
700.0
20
650.0
0
SEQEND
0
POLYLINE
8
0
66
1
10
0.0
20
0.0
30
0.0
0
VERTEX
8
0
10
1025.0
20
800.0
0
VERTEX
8
0
10
1275.0
20
800.0
0
VERTEX
8
0
10
1275.0
20
809.8416881094194
0
VERTEX
8
0
10
1025.0
20
950.0
0
VERTEX
8
0
10
1025.0
20
800.0
0
SEQEND
0
POLYLINE
8
0
66
1
10
0.0
20
0.0
30
0.0
0
VERTEX
8
0
10
1025.0
20
800.0
0
VERTEX
8
0
10
1275.0
20
800.0
0
VERTEX
8
0
10
1275.0
20
790.1583118905806
0
VERTEX
8
0
10
1025.0
20
650.0
0
VERTEX
8
0
10
1025.0
20
800.0
0
SEQEND
0
POLYLINE
8
0
66
1
10
0.0
20
0.0
30
0.0
0
VERTEX
8
0
10
2685.8499999999985
20
46050.2
0
VERTEX
8
0
10
2685.8499999999985
20
46050.0
0
VERTEX
8
0
10
2764.1500000000015
20
46050.0
0
VERTEX
8
0
10
2764.1500000000015
20
46050.2
0
VERTEX
8
0
10
2685.8499999999985
20
46050.2
0
SEQEND
0
POLYLINE
8
0
66
1
10
0.0
20
0.0
30
0.0
0
VERTEX
8
0
10
2708.8499999999985
20
46046.0
0
VERTEX
8
0
10
2708.8499999999985
20
46045.8
0
VERTEX
8
0
10
2741.1500000000015
20
46045.8
0
VERTEX
8
0
10
2741.1500000000015
20
46046.0
0
VERTEX
8
0
10
2708.8499999999985
20
46046.0
0
SEQEND
0
POLYLINE
8
0
66
1
10
0.0
20
0.0
30
0.0
0
VERTEX
8
0
10
2708.8499999999985
20
46032.200000000004
0
VERTEX
8
0
10
2708.8499999999985
20
46032.00000000001
0
VERTEX
8
0
10
2741.1500000000015
20
46032.00000000001
0
VERTEX
8
0
10
2741.1500000000015
20
46032.200000000004
0
VERTEX
8
0
10
2708.8499999999985
20
46032.200000000004
0
SEQEND
0
POLYLINE
8
0
66
1
10
0.0
20
0.0
30
0.0
0
VERTEX
8
0
10
2685.8499999999985
20
46028.00000000001
0
VERTEX
8
0
10
2685.8499999999985
20
46027.80000000001
0
VERTEX
8
0
10
2764.1500000000015
20
46027.80000000001
0
VERTEX
8
0
10
2764.1500000000015
20
46028.00000000001
0
VERTEX
8
0
10
2685.8499999999985
20
46028.00000000001
0
SEQEND
0
POLYLINE
8
0
66
1
10
0.0
20
0.0
30
0.0
0
VERTEX
8
0
10
2764.1500000000015
20
46050.0
0
VERTEX
8
0
10
2764.1500000000015
20
46028.0
0
VERTEX
8
0
10
2764.8499999999985
20
46028.0
0
VERTEX
8
0
10
2764.8499999999985
20
46050.0
0
VERTEX
8
0
10
2764.1500000000015
20
46050.0
0
SEQEND
0
POLYLINE
8
0
66
1
10
0.0
20
0.0
30
0.0
0
VERTEX
8
0
10
2685.8499999999985
20
46050.0
0
VERTEX
8
0
10
2685.8499999999985
20
46028.0
0
VERTEX
8
0
10
2685.1500000000015
20
46028.0
0
VERTEX
8
0
10
2685.1500000000015
20
46050.0
0
VERTEX
8
0
10
2685.8499999999985
20
46050.0
0
SEQEND
0
POLYLINE
8
0
66
1
10
0.0
20
0.0
30
0.0
0
VERTEX
8
0
10
2740.449999999997
20
46045.8
0
VERTEX
8
0
10
2740.449999999997
20
46032.200000000004
0
VERTEX
8
0
10
2741.149999999994
20
46032.200000000004
0
VERTEX
8
0
10
2741.149999999994
20
46045.8
0
VERTEX
8
0
10
2740.449999999997
20
46045.8
0
SEQEND
0
POLYLINE
8
0
66
1
10
0.0
20
0.0
30
0.0
0
VERTEX
8
0
10
2709.550000000003
20
46045.8
0
VERTEX
8
0
10
2709.550000000003
20
46032.200000000004
0
VERTEX
8
0
10
2708.850000000006
20
46032.200000000004
0
VERTEX
8
0
10
2708.850000000006
20
46045.8
0
VERTEX
8
0
10
2709.550000000003
20
46045.8
0
SEQEND
0
POLYLINE
8
0
66
1
10
0.0
20
0.0
30
0.0
0
VERTEX
8
0
10
2721.0
20
46050.2
0
VERTEX
8
0
10
2721.0
20
46050.0
0
VERTEX
8
0
10
2729.0
20
46050.0
0
VERTEX
8
0
10
2729.0
20
46050.2
0
VERTEX
8
0
10
2721.0
20
46050.2
0
SEQEND
0
POLYLINE
8
0
66
1
10
0.0
20
0.0
30
0.0
0
VERTEX
8
0
10
2721.0
20
46046.0
0
VERTEX
8
0
10
2721.0
20
46045.8
0
VERTEX
8
0
10
2729.0
20
46045.8
0
VERTEX
8
0
10
2729.0
20
46046.0
0
VERTEX
8
0
10
2721.0
20
46046.0
0
SEQEND
0
POLYLINE
8
0
66
1
10
0.0
20
0.0
30
0.0
0
VERTEX
8
0
10
2721.0
20
46050.0
0
VERTEX
8
0
10
2723.0
20
46050.0
0
VERTEX
8
0
10
2723.0
20
46050.2
0
VERTEX
8
0
10
2721.0
20
46050.2
0
VERTEX
8
0
10
2721.0
20
46050.0
0
SEQEND
0
POLYLINE
8
0
66
1
10
0.0
20
0.0
30
0.0
0
VERTEX
8
0
10
2721.0
20
46046.0
0
VERTEX
8
0
10
2723.0
20
46046.0
0
VERTEX
8
0
10
2723.0
20
46045.8
0
VERTEX
8
0
10
2721.0
20
46045.8
0
VERTEX
8
0
10
2721.0
20
46046.0
0
SEQEND
0
POLYLINE
8
0
66
1
10
0.0
20
0.0
30
0.0
0
VERTEX
8
0
10
2723.0
20
46050.0
0
VERTEX
8
0
10
2726.0
20
46048.45
0
VERTEX
8
0
10
2726.0
20
46048.649999999994
0
VERTEX
8
0
10
2723.0
20
46050.2
0
VERTEX
8
0
10
2723.0
20
46050.0
0
SEQEND
0
POLYLINE
8
0
66
1
10
0.0
20
0.0
30
0.0
0
VERTEX
8
0
10
2723.0
20
46046.0
0
VERTEX
8
0
10
2726.0
20
46047.55
0
VERTEX
8
0
10
2726.0
20
46047.350000000006
0
VERTEX
8
0
10
2723.0
20
46045.8
0
VERTEX
8
0
10
2723.0
20
46046.0
0
SEQEND
0
POLYLINE
8
0
66
1
10
0.0
20
0.0
30
0.0
0
VERTEX
8
0
10
2726.0
20
46048.45
0
VERTEX
8
0
10
2726.8
20
46048.45
0
VERTEX
8
0
10
2726.8
20
46048.649999999994
0
VERTEX
8
0
10
2726.0
20
46048.649999999994
0
VERTEX
8
0
10
2726.0
20
46048.45
0
SEQEND
0
POLYLINE
8
0
66
1
10
0.0
20
0.0
30
0.0
0
VERTEX
8
0
10
2726.0
20
46047.55
0
VERTEX
8
0
10
2726.8
20
46047.55
0
VERTEX
8
0
10
2726.8
20
46047.350000000006
0
VERTEX
8
0
10
2726.0
20
46047.350000000006
0
VERTEX
8
0
10
2726.0
20
46047.55
0
SEQEND
0
POLYLINE
8
0
66
1
10
0.0
20
0.0
30
0.0
0
VERTEX
8
0
10
2726.8
20
46046.8
0
VERTEX
8
0
10
2727.0
20
46046.8
0
VERTEX
8
0
10
2727.0
20
46049.2
0
VERTEX
8
0
10
2726.8
20
46049.2
0
VERTEX
8
0
10
2726.8
20
46046.8
0
SEQEND
0
POLYLINE
8
0
66
1
10
0.0
20
0.0
30
0.0
0
VERTEX
8
0
10
2727.0
20
46049.0
0
VERTEX
8
0
10
2729.0
20
46050.0
0
VERTEX
8
0
10
2729.0
20
46050.2
0
VERTEX
8
0
10
2727.0
20
46049.2
0
VERTEX
8
0
10
2727.0
20
46049.0
0
SEQEND
0
POLYLINE
8
0
66
1
10
0.0
20
0.0
30
0.0
0
VERTEX
8
0
10
2727.0
20
46047.0
0
VERTEX
8
0
10
2729.0
20
46046.0
0
VERTEX
8
0
10
2729.0
20
46045.8
0
VERTEX
8
0
10
2727.0
20
46046.8
0
VERTEX
8
0
10
2727.0
20
46047.0
0
SEQEND
0
POLYLINE
8
0
66
1
10
0.0
20
0.0
30
0.0
0
VERTEX
8
0
10
2721.0
20
46032.2
0
VERTEX
8
0
10
2721.0
20
46032.0
0
VERTEX
8
0
10
2729.0
20
46032.0
0
VERTEX
8
0
10
2729.0
20
46032.2
0
VERTEX
8
0
10
2721.0
20
46032.2
0
SEQEND
0
POLYLINE
8
0
66
1
10
0.0
20
0.0
30
0.0
0
VERTEX
8
0
10
2721.0
20
46028.0
0
VERTEX
8
0
10
2721.0
20
46027.8
0
VERTEX
8
0
10
2729.0
20
46027.8
0
VERTEX
8
0
10
2729.0
20
46028.0
0
VERTEX
8
0
10
2721.0
20
46028.0
0
SEQEND
0
POLYLINE
8
0
66
1
10
0.0
20
0.0
30
0.0
0
VERTEX
8
0
10
2721.0
20
46032.0
0
VERTEX
8
0
10
2723.0
20
46032.0
0
VERTEX
8
0
10
2723.0
20
46032.2
0
VERTEX
8
0
10
2721.0
20
46032.2
0
VERTEX
8
0
10
2721.0
20
46032.0
0
SEQEND
0
POLYLINE
8
0
66
1
10
0.0
20
0.0
30
0.0
0
VERTEX
8
0
10
2721.0
20
46028.0
0
VERTEX
8
0
10
2723.0
20
46028.0
0
VERTEX
8
0
10
2723.0
20
46027.8
0
VERTEX
8
0
10
2721.0
20
46027.8
0
VERTEX
8
0
10
2721.0
20
46028.0
0
SEQEND
0
POLYLINE
8
0
66
1
10
0.0
20
0.0
30
0.0
0
VERTEX
8
0
10
2723.0
20
46032.0
0
VERTEX
8
0
10
2726.0
20
46030.45
0
VERTEX
8
0
10
2726.0
20
46030.649999999994
0
VERTEX
8
0
10
2723.0
20
46032.2
0
VERTEX
8
0
10
2723.0
20
46032.0
0
SEQEND
0
POLYLINE
8
0
66
1
10
0.0
20
0.0
30
0.0
0
VERTEX
8
0
10
2723.0
20
46028.0
0
VERTEX
8
0
10
2726.0
20
46029.55
0
VERTEX
8
0
10
2726.0
20
46029.350000000006
0
VERTEX
8
0
10
2723.0
20
46027.8
0
VERTEX
8
0
10
2723.0
20
46028.0
0
SEQEND
0
POLYLINE
8
0
66
1
10
0.0
20
0.0
30
0.0
0
VERTEX
8
0
10
2726.0
20
46030.45
0
VERTEX
8
0
10
2726.8
20
46030.45
0
VERTEX
8
0
10
2726.8
20
46030.649999999994
0
VERTEX
8
0
10
2726.0
20
46030.649999999994
0
VERTEX
8
0
10
2726.0
20
46030.45
0
SEQEND
0
POLYLINE
8
0
66
1
10
0.0
20
0.0
30
0.0
0
VERTEX
8
0
10
2726.0
20
46029.55
0
VERTEX
8
0
10
2726.8
20
46029.55
0
VERTEX
8
0
10
2726.8
20
46029.350000000006
0
VERTEX
8
0
10
2726.0
20
46029.350000000006
0
VERTEX
8
0
10
2726.0
20
46029.55
0
SEQEND
0
POLYLINE
8
0
66
1
10
0.0
20
0.0
30
0.0
0
VERTEX
8
0
10
2726.8
20
46028.8
0
VERTEX
8
0
10
2727.0
20
46028.8
0
VERTEX
8
0
10
2727.0
20
46031.2
0
VERTEX
8
0
10
2726.8
20
46031.2
0
VERTEX
8
0
10
2726.8
20
46028.8
0
SEQEND
0
POLYLINE
8
0
66
1
10
0.0
20
0.0
30
0.0
0
VERTEX
8
0
10
2727.0
20
46031.0
0
VERTEX
8
0
10
2729.0
20
46032.0
0
VERTEX
8
0
10
2729.0
20
46032.2
0
VERTEX
8
0
10
2727.0
20
46031.2
0
VERTEX
8
0
10
2727.0
20
46031.0
0
SEQEND
0
POLYLINE
8
0
66
1
10
0.0
20
0.0
30
0.0
0
VERTEX
8
0
10
2727.0
20
46029.0
0
VERTEX
8
0
10
2729.0
20
46028.0
0
VERTEX
8
0
10
2729.0
20
46027.8
0
VERTEX
8
0
10
2727.0
20
46028.8
0
VERTEX
8
0
10
2727.0
20
46029.0
0
SEQEND
0
POLYLINE
8
0
66
1
10
0.0
20
0.0
30
0.0
0
VERTEX
8
0
10
1323.3499999999985
20
51611.2
0
VERTEX
8
0
10
1323.3499999999985
20
51611.0
0
VERTEX
8
0
10
1401.6500000000015
20
51611.0
0
VERTEX
8
0
10
1401.6500000000015
20
51611.2
0
VERTEX
8
0
10
1323.3499999999985
20
51611.2
0
SEQEND
0
POLYLINE
8
0
66
1
10
0.0
20
0.0
30
0.0
0
VERTEX
8
0
10
1346.3499999999985
20
51607.0
0
VERTEX
8
0
10
1346.3499999999985
20
51606.8
0
VERTEX
8
0
10
1378.6500000000015
20
51606.8
0
VERTEX
8
0
10
1378.6500000000015
20
51607.0
0
VERTEX
8
0
10
1346.3499999999985
20
51607.0
0
SEQEND
0
POLYLINE
8
0
66
1
10
0.0
20
0.0
30
0.0
0
VERTEX
8
0
10
1346.3499999999985
20
51593.200000000004
0
VERTEX
8
0
10
1346.3499999999985
20
51593.00000000001
0
VERTEX
8
0
10
1378.6500000000015
20
51593.00000000001
0
VERTEX
8
0
10
1378.6500000000015
20
51593.200000000004
0
VERTEX
8
0
10
1346.3499999999985
20
51593.200000000004
0
SEQEND
0
POLYLINE
8
0
66
1
10
0.0
20
0.0
30
0.0
0
VERTEX
8
0
10
1323.3499999999985
20
51589.00000000001
0
VERTEX
8
0
10
1323.3499999999985
20
51588.80000000001
0
VERTEX
8
0
10
1401.6500000000015
20
51588.80000000001
0
VERTEX
8
0
10
1401.6500000000015
20
51589.00000000001
0
VERTEX
8
0
10
1323.3499999999985
20
51589.00000000001
0
SEQEND
0
POLYLINE
8
0
66
1
10
0.0
20
0.0
30
0.0
0
VERTEX
8
0
10
1401.6500000000015
20
51611.0
0
VERTEX
8
0
10
1401.6500000000015
20
51589.0
0
VERTEX
8
0
10
1402.3499999999985
20
51589.0
0
VERTEX
8
0
10
1402.3499999999985
20
51611.0
0
VERTEX
8
0
10
1401.6500000000015
20
51611.0
0
SEQEND
0
POLYLINE
8
0
66
1
10
0.0
20
0.0
30
0.0
0
VERTEX
8
0
10
1323.3499999999985
20
51611.0
0
VERTEX
8
0
10
1323.3499999999985
20
51589.0
0
VERTEX
8
0
10
1322.6500000000015
20
51589.0
0
VERTEX
8
0
10
1322.6500000000015
20
51611.0
0
VERTEX
8
0
10
1323.3499999999985
20
51611.0
0
SEQEND
0
POLYLINE
8
0
66
1
10
0.0
20
0.0
30
0.0
0
VERTEX
8
0
10
1377.949999999997
20
51606.8
0
VERTEX
8
0
10
1377.949999999997
20
51593.200000000004
0
VERTEX
8
0
10
1378.6499999999942
20
51593.200000000004
0
VERTEX
8
0
10
1378.6499999999942
20
51606.8
0
VERTEX
8
0
10
1377.949999999997
20
51606.8
0
SEQEND
0
POLYLINE
8
0
66
1
10
0.0
20
0.0
30
0.0
0
VERTEX
8
0
10
1347.050000000003
20
51606.8
0
VERTEX
8
0
10
1347.050000000003
20
51593.200000000004
0
VERTEX
8
0
10
1346.3500000000058
20
51593.200000000004
0
VERTEX
8
0
10
1346.3500000000058
20
51606.8
0
VERTEX
8
0
10
1347.050000000003
20
51606.8
0
SEQEND
0
POLYLINE
8
0
66
1
10
0.0
20
0.0
30
0.0
0
VERTEX
8
0
10
1358.5
20
51611.2
0
VERTEX
8
0
10
1358.5
20
51611.0
0
VERTEX
8
0
10
1366.5
20
51611.0
0
VERTEX
8
0
10
1366.5
20
51611.2
0
VERTEX
8
0
10
1358.5
20
51611.2
0
SEQEND
0
POLYLINE
8
0
66
1
10
0.0
20
0.0
30
0.0
0
VERTEX
8
0
10
1358.5
20
51607.0
0
VERTEX
8
0
10
1358.5
20
51606.8
0
VERTEX
8
0
10
1366.5
20
51606.8
0
VERTEX
8
0
10
1366.5
20
51607.0
0
VERTEX
8
0
10
1358.5
20
51607.0
0
SEQEND
0
POLYLINE
8
0
66
1
10
0.0
20
0.0
30
0.0
0
VERTEX
8
0
10
1358.5
20
51611.0
0
VERTEX
8
0
10
1360.5
20
51611.0
0
VERTEX
8
0
10
1360.5
20
51611.2
0
VERTEX
8
0
10
1358.5
20
51611.2
0
VERTEX
8
0
10
1358.5
20
51611.0
0
SEQEND
0
POLYLINE
8
0
66
1
10
0.0
20
0.0
30
0.0
0
VERTEX
8
0
10
1358.5
20
51607.0
0
VERTEX
8
0
10
1360.5
20
51607.0
0
VERTEX
8
0
10
1360.5
20
51606.8
0
VERTEX
8
0
10
1358.5
20
51606.8
0
VERTEX
8
0
10
1358.5
20
51607.0
0
SEQEND
0
POLYLINE
8
0
66
1
10
0.0
20
0.0
30
0.0
0
VERTEX
8
0
10
1360.5
20
51611.0
0
VERTEX
8
0
10
1363.5
20
51609.45
0
VERTEX
8
0
10
1363.5
20
51609.649999999994
0
VERTEX
8
0
10
1360.5
20
51611.2
0
VERTEX
8
0
10
1360.5
20
51611.0
0
SEQEND
0
POLYLINE
8
0
66
1
10
0.0
20
0.0
30
0.0
0
VERTEX
8
0
10
1360.5
20
51607.0
0
VERTEX
8
0
10
1363.5
20
51608.55
0
VERTEX
8
0
10
1363.5
20
51608.350000000006
0
VERTEX
8
0
10
1360.5
20
51606.8
0
VERTEX
8
0
10
1360.5
20
51607.0
0
SEQEND
0
POLYLINE
8
0
66
1
10
0.0
20
0.0
30
0.0
0
VERTEX
8
0
10
1363.5
20
51609.45
0
VERTEX
8
0
10
1364.3
20
51609.45
0
VERTEX
8
0
10
1364.3
20
51609.649999999994
0
VERTEX
8
0
10
1363.5
20
51609.649999999994
0
VERTEX
8
0
10
1363.5
20
51609.45
0
SEQEND
0
POLYLINE
8
0
66
1
10
0.0
20
0.0
30
0.0
0
VERTEX
8
0
10
1363.5
20
51608.55
0
VERTEX
8
0
10
1364.3
20
51608.55
0
VERTEX
8
0
10
1364.3
20
51608.350000000006
0
VERTEX
8
0
10
1363.5
20
51608.350000000006
0
VERTEX
8
0
10
1363.5
20
51608.55
0
SEQEND
0
POLYLINE
8
0
66
1
10
0.0
20
0.0
30
0.0
0
VERTEX
8
0
10
1364.3
20
51607.8
0
VERTEX
8
0
10
1364.5
20
51607.8
0
VERTEX
8
0
10
1364.5
20
51610.2
0
VERTEX
8
0
10
1364.3
20
51610.2
0
VERTEX
8
0
10
1364.3
20
51607.8
0
SEQEND
0
POLYLINE
8
0
66
1
10
0.0
20
0.0
30
0.0
0
VERTEX
8
0
10
1364.5
20
51610.0
0
VERTEX
8
0
10
1366.5
20
51611.0
0
VERTEX
8
0
10
1366.5
20
51611.2
0
VERTEX
8
0
10
1364.5
20
51610.2
0
VERTEX
8
0
10
1364.5
20
51610.0
0
SEQEND
0
POLYLINE
8
0
66
1
10
0.0
20
0.0
30
0.0
0
VERTEX
8
0
10
1364.5
20
51608.0
0
VERTEX
8
0
10
1366.5
20
51607.0
0
VERTEX
8
0
10
1366.5
20
51606.8
0
VERTEX
8
0
10
1364.5
20
51607.8
0
VERTEX
8
0
10
1364.5
20
51608.0
0
SEQEND
0
POLYLINE
8
0
66
1
10
0.0
20
0.0
30
0.0
0
VERTEX
8
0
10
1358.5
20
51593.2
0
VERTEX
8
0
10
1358.5
20
51593.0
0
VERTEX
8
0
10
1366.5
20
51593.0
0
VERTEX
8
0
10
1366.5
20
51593.2
0
VERTEX
8
0
10
1358.5
20
51593.2
0
SEQEND
0
POLYLINE
8
0
66
1
10
0.0
20
0.0
30
0.0
0
VERTEX
8
0
10
1358.5
20
51589.0
0
VERTEX
8
0
10
1358.5
20
51588.8
0
VERTEX
8
0
10
1366.5
20
51588.8
0
VERTEX
8
0
10
1366.5
20
51589.0
0
VERTEX
8
0
10
1358.5
20
51589.0
0
SEQEND
0
POLYLINE
8
0
66
1
10
0.0
20
0.0
30
0.0
0
VERTEX
8
0
10
1358.5
20
51593.0
0
VERTEX
8
0
10
1360.5
20
51593.0
0
VERTEX
8
0
10
1360.5
20
51593.2
0
VERTEX
8
0
10
1358.5
20
51593.2
0
VERTEX
8
0
10
1358.5
20
51593.0
0
SEQEND
0
POLYLINE
8
0
66
1
10
0.0
20
0.0
30
0.0
0
VERTEX
8
0
10
1358.5
20
51589.0
0
VERTEX
8
0
10
1360.5
20
51589.0
0
VERTEX
8
0
10
1360.5
20
51588.8
0
VERTEX
8
0
10
1358.5
20
51588.8
0
VERTEX
8
0
10
1358.5
20
51589.0
0
SEQEND
0
POLYLINE
8
0
66
1
10
0.0
20
0.0
30
0.0
0
VERTEX
8
0
10
1360.5
20
51593.0
0
VERTEX
8
0
10
1363.5
20
51591.45
0
VERTEX
8
0
10
1363.5
20
51591.649999999994
0
VERTEX
8
0
10
1360.5
20
51593.2
0
VERTEX
8
0
10
1360.5
20
51593.0
0
SEQEND
0
POLYLINE
8
0
66
1
10
0.0
20
0.0
30
0.0
0
VERTEX
8
0
10
1360.5
20
51589.0
0
VERTEX
8
0
10
1363.5
20
51590.55
0
VERTEX
8
0
10
1363.5
20
51590.350000000006
0
VERTEX
8
0
10
1360.5
20
51588.8
0
VERTEX
8
0
10
1360.5
20
51589.0
0
SEQEND
0
POLYLINE
8
0
66
1
10
0.0
20
0.0
30
0.0
0
VERTEX
8
0
10
1363.5
20
51591.45
0
VERTEX
8
0
10
1364.3
20
51591.45
0
VERTEX
8
0
10
1364.3
20
51591.649999999994
0
VERTEX
8
0
10
1363.5
20
51591.649999999994
0
VERTEX
8
0
10
1363.5
20
51591.45
0
SEQEND
0
POLYLINE
8
0
66
1
10
0.0
20
0.0
30
0.0
0
VERTEX
8
0
10
1363.5
20
51590.55
0
VERTEX
8
0
10
1364.3
20
51590.55
0
VERTEX
8
0
10
1364.3
20
51590.350000000006
0
VERTEX
8
0
10
1363.5
20
51590.350000000006
0
VERTEX
8
0
10
1363.5
20
51590.55
0
SEQEND
0
POLYLINE
8
0
66
1
10
0.0
20
0.0
30
0.0
0
VERTEX
8
0
10
1364.3
20
51589.8
0
VERTEX
8
0
10
1364.5
20
51589.8
0
VERTEX
8
0
10
1364.5
20
51592.2
0
VERTEX
8
0
10
1364.3
20
51592.2
0
VERTEX
8
0
10
1364.3
20
51589.8
0
SEQEND
0
POLYLINE
8
0
66
1
10
0.0
20
0.0
30
0.0
0
VERTEX
8
0
10
1364.5
20
51592.0
0
VERTEX
8
0
10
1366.5
20
51593.0
0
VERTEX
8
0
10
1366.5
20
51593.2
0
VERTEX
8
0
10
1364.5
20
51592.2
0
VERTEX
8
0
10
1364.5
20
51592.0
0
SEQEND
0
POLYLINE
8
0
66
1
10
0.0
20
0.0
30
0.0
0
VERTEX
8
0
10
1364.5
20
51590.0
0
VERTEX
8
0
10
1366.5
20
51589.0
0
VERTEX
8
0
10
1366.5
20
51588.8
0
VERTEX
8
0
10
1364.5
20
51589.8
0
VERTEX
8
0
10
1364.5
20
51590.0
0
SEQEND
0
POLYLINE
8
0
66
1
10
0.0
20
0.0
30
0.0
0
VERTEX
8
0
10
1323.3499999999985
20
50111.2
0
VERTEX
8
0
10
1323.3499999999985
20
50111.0
0
VERTEX
8
0
10
1401.6500000000015
20
50111.0
0
VERTEX
8
0
10
1401.6500000000015
20
50111.2
0
VERTEX
8
0
10
1323.3499999999985
20
50111.2
0
SEQEND
0
POLYLINE
8
0
66
1
10
0.0
20
0.0
30
0.0
0
VERTEX
8
0
10
1346.3499999999985
20
50107.0
0
VERTEX
8
0
10
1346.3499999999985
20
50106.8
0
VERTEX
8
0
10
1378.6500000000015
20
50106.8
0
VERTEX
8
0
10
1378.6500000000015
20
50107.0
0
VERTEX
8
0
10
1346.3499999999985
20
50107.0
0
SEQEND
0
POLYLINE
8
0
66
1
10
0.0
20
0.0
30
0.0
0
VERTEX
8
0
10
1346.3499999999985
20
50093.200000000004
0
VERTEX
8
0
10
1346.3499999999985
20
50093.00000000001
0
VERTEX
8
0
10
1378.6500000000015
20
50093.00000000001
0
VERTEX
8
0
10
1378.6500000000015
20
50093.200000000004
0
VERTEX
8
0
10
1346.3499999999985
20
50093.200000000004
0
SEQEND
0
POLYLINE
8
0
66
1
10
0.0
20
0.0
30
0.0
0
VERTEX
8
0
10
1323.3499999999985
20
50089.00000000001
0
VERTEX
8
0
10
1323.3499999999985
20
50088.80000000001
0
VERTEX
8
0
10
1401.6500000000015
20
50088.80000000001
0
VERTEX
8
0
10
1401.6500000000015
20
50089.00000000001
0
VERTEX
8
0
10
1323.3499999999985
20
50089.00000000001
0
SEQEND
0
POLYLINE
8
0
66
1
10
0.0
20
0.0
30
0.0
0
VERTEX
8
0
10
1401.6500000000015
20
50111.0
0
VERTEX
8
0
10
1401.6500000000015
20
50089.0
0
VERTEX
8
0
10
1402.3499999999985
20
50089.0
0
VERTEX
8
0
10
1402.3499999999985
20
50111.0
0
VERTEX
8
0
10
1401.6500000000015
20
50111.0
0
SEQEND
0
POLYLINE
8
0
66
1
10
0.0
20
0.0
30
0.0
0
VERTEX
8
0
10
1323.3499999999985
20
50111.0
0
VERTEX
8
0
10
1323.3499999999985
20
50089.0
0
VERTEX
8
0
10
1322.6500000000015
20
50089.0
0
VERTEX
8
0
10
1322.6500000000015
20
50111.0
0
VERTEX
8
0
10
1323.3499999999985
20
50111.0
0
SEQEND
0
POLYLINE
8
0
66
1
10
0.0
20
0.0
30
0.0
0
VERTEX
8
0
10
1377.949999999997
20
50106.8
0
VERTEX
8
0
10
1377.949999999997
20
50093.200000000004
0
VERTEX
8
0
10
1378.6499999999942
20
50093.200000000004
0
VERTEX
8
0
10
1378.6499999999942
20
50106.8
0
VERTEX
8
0
10
1377.949999999997
20
50106.8
0
SEQEND
0
POLYLINE
8
0
66
1
10
0.0
20
0.0
30
0.0
0
VERTEX
8
0
10
1347.050000000003
20
50106.8
0
VERTEX
8
0
10
1347.050000000003
20
50093.200000000004
0
VERTEX
8
0
10
1346.3500000000058
20
50093.200000000004
0
VERTEX
8
0
10
1346.3500000000058
20
50106.8
0
VERTEX
8
0
10
1347.050000000003
20
50106.8
0
SEQEND
0
POLYLINE
8
0
66
1
10
0.0
20
0.0
30
0.0
0
VERTEX
8
0
10
1358.5
20
50111.2
0
VERTEX
8
0
10
1358.5
20
50111.0
0
VERTEX
8
0
10
1366.5
20
50111.0
0
VERTEX
8
0
10
1366.5
20
50111.2
0
VERTEX
8
0
10
1358.5
20
50111.2
0
SEQEND
0
POLYLINE
8
0
66
1
10
0.0
20
0.0
30
0.0
0
VERTEX
8
0
10
1358.5
20
50107.0
0
VERTEX
8
0
10
1358.5
20
50106.8
0
VERTEX
8
0
10
1366.5
20
50106.8
0
VERTEX
8
0
10
1366.5
20
50107.0
0
VERTEX
8
0
10
1358.5
20
50107.0
0
SEQEND
0
POLYLINE
8
0
66
1
10
0.0
20
0.0
30
0.0
0
VERTEX
8
0
10
1358.5
20
50111.0
0
VERTEX
8
0
10
1360.5
20
50111.0
0
VERTEX
8
0
10
1360.5
20
50111.2
0
VERTEX
8
0
10
1358.5
20
50111.2
0
VERTEX
8
0
10
1358.5
20
50111.0
0
SEQEND
0
POLYLINE
8
0
66
1
10
0.0
20
0.0
30
0.0
0
VERTEX
8
0
10
1358.5
20
50107.0
0
VERTEX
8
0
10
1360.5
20
50107.0
0
VERTEX
8
0
10
1360.5
20
50106.8
0
VERTEX
8
0
10
1358.5
20
50106.8
0
VERTEX
8
0
10
1358.5
20
50107.0
0
SEQEND
0
POLYLINE
8
0
66
1
10
0.0
20
0.0
30
0.0
0
VERTEX
8
0
10
1360.5
20
50111.0
0
VERTEX
8
0
10
1363.5
20
50109.45
0
VERTEX
8
0
10
1363.5
20
50109.649999999994
0
VERTEX
8
0
10
1360.5
20
50111.2
0
VERTEX
8
0
10
1360.5
20
50111.0
0
SEQEND
0
POLYLINE
8
0
66
1
10
0.0
20
0.0
30
0.0
0
VERTEX
8
0
10
1360.5
20
50107.0
0
VERTEX
8
0
10
1363.5
20
50108.55
0
VERTEX
8
0
10
1363.5
20
50108.350000000006
0
VERTEX
8
0
10
1360.5
20
50106.8
0
VERTEX
8
0
10
1360.5
20
50107.0
0
SEQEND
0
POLYLINE
8
0
66
1
10
0.0
20
0.0
30
0.0
0
VERTEX
8
0
10
1363.5
20
50109.45
0
VERTEX
8
0
10
1364.3
20
50109.45
0
VERTEX
8
0
10
1364.3
20
50109.649999999994
0
VERTEX
8
0
10
1363.5
20
50109.649999999994
0
VERTEX
8
0
10
1363.5
20
50109.45
0
SEQEND
0
POLYLINE
8
0
66
1
10
0.0
20
0.0
30
0.0
0
VERTEX
8
0
10
1363.5
20
50108.55
0
VERTEX
8
0
10
1364.3
20
50108.55
0
VERTEX
8
0
10
1364.3
20
50108.350000000006
0
VERTEX
8
0
10
1363.5
20
50108.350000000006
0
VERTEX
8
0
10
1363.5
20
50108.55
0
SEQEND
0
POLYLINE
8
0
66
1
10
0.0
20
0.0
30
0.0
0
VERTEX
8
0
10
1364.3
20
50107.8
0
VERTEX
8
0
10
1364.5
20
50107.8
0
VERTEX
8
0
10
1364.5
20
50110.2
0
VERTEX
8
0
10
1364.3
20
50110.2
0
VERTEX
8
0
10
1364.3
20
50107.8
0
SEQEND
0
POLYLINE
8
0
66
1
10
0.0
20
0.0
30
0.0
0
VERTEX
8
0
10
1364.5
20
50110.0
0
VERTEX
8
0
10
1366.5
20
50111.0
0
VERTEX
8
0
10
1366.5
20
50111.2
0
VERTEX
8
0
10
1364.5
20
50110.2
0
VERTEX
8
0
10
1364.5
20
50110.0
0
SEQEND
0
POLYLINE
8
0
66
1
10
0.0
20
0.0
30
0.0
0
VERTEX
8
0
10
1364.5
20
50108.0
0
VERTEX
8
0
10
1366.5
20
50107.0
0
VERTEX
8
0
10
1366.5
20
50106.8
0
VERTEX
8
0
10
1364.5
20
50107.8
0
VERTEX
8
0
10
1364.5
20
50108.0
0
SEQEND
0
POLYLINE
8
0
66
1
10
0.0
20
0.0
30
0.0
0
VERTEX
8
0
10
1358.5
20
50093.2
0
VERTEX
8
0
10
1358.5
20
50093.0
0
VERTEX
8
0
10
1366.5
20
50093.0
0
VERTEX
8
0
10
1366.5
20
50093.2
0
VERTEX
8
0
10
1358.5
20
50093.2
0
SEQEND
0
POLYLINE
8
0
66
1
10
0.0
20
0.0
30
0.0
0
VERTEX
8
0
10
1358.5
20
50089.0
0
VERTEX
8
0
10
1358.5
20
50088.8
0
VERTEX
8
0
10
1366.5
20
50088.8
0
VERTEX
8
0
10
1366.5
20
50089.0
0
VERTEX
8
0
10
1358.5
20
50089.0
0
SEQEND
0
POLYLINE
8
0
66
1
10
0.0
20
0.0
30
0.0
0
VERTEX
8
0
10
1358.5
20
50093.0
0
VERTEX
8
0
10
1360.5
20
50093.0
0
VERTEX
8
0
10
1360.5
20
50093.2
0
VERTEX
8
0
10
1358.5
20
50093.2
0
VERTEX
8
0
10
1358.5
20
50093.0
0
SEQEND
0
POLYLINE
8
0
66
1
10
0.0
20
0.0
30
0.0
0
VERTEX
8
0
10
1358.5
20
50089.0
0
VERTEX
8
0
10
1360.5
20
50089.0
0
VERTEX
8
0
10
1360.5
20
50088.8
0
VERTEX
8
0
10
1358.5
20
50088.8
0
VERTEX
8
0
10
1358.5
20
50089.0
0
SEQEND
0
POLYLINE
8
0
66
1
10
0.0
20
0.0
30
0.0
0
VERTEX
8
0
10
1360.5
20
50093.0
0
VERTEX
8
0
10
1363.5
20
50091.45
0
VERTEX
8
0
10
1363.5
20
50091.649999999994
0
VERTEX
8
0
10
1360.5
20
50093.2
0
VERTEX
8
0
10
1360.5
20
50093.0
0
SEQEND
0
POLYLINE
8
0
66
1
10
0.0
20
0.0
30
0.0
0
VERTEX
8
0
10
1360.5
20
50089.0
0
VERTEX
8
0
10
1363.5
20
50090.55
0
VERTEX
8
0
10
1363.5
20
50090.350000000006
0
VERTEX
8
0
10
1360.5
20
50088.8
0
VERTEX
8
0
10
1360.5
20
50089.0
0
SEQEND
0
POLYLINE
8
0
66
1
10
0.0
20
0.0
30
0.0
0
VERTEX
8
0
10
1363.5
20
50091.45
0
VERTEX
8
0
10
1364.3
20
50091.45
0
VERTEX
8
0
10
1364.3
20
50091.649999999994
0
VERTEX
8
0
10
1363.5
20
50091.649999999994
0
VERTEX
8
0
10
1363.5
20
50091.45
0
SEQEND
0
POLYLINE
8
0
66
1
10
0.0
20
0.0
30
0.0
0
VERTEX
8
0
10
1363.5
20
50090.55
0
VERTEX
8
0
10
1364.3
20
50090.55
0
VERTEX
8
0
10
1364.3
20
50090.350000000006
0
VERTEX
8
0
10
1363.5
20
50090.350000000006
0
VERTEX
8
0
10
1363.5
20
50090.55
0
SEQEND
0
POLYLINE
8
0
66
1
10
0.0
20
0.0
30
0.0
0
VERTEX
8
0
10
1364.3
20
50089.8
0
VERTEX
8
0
10
1364.5
20
50089.8
0
VERTEX
8
0
10
1364.5
20
50092.2
0
VERTEX
8
0
10
1364.3
20
50092.2
0
VERTEX
8
0
10
1364.3
20
50089.8
0
SEQEND
0
POLYLINE
8
0
66
1
10
0.0
20
0.0
30
0.0
0
VERTEX
8
0
10
1364.5
20
50092.0
0
VERTEX
8
0
10
1366.5
20
50093.0
0
VERTEX
8
0
10
1366.5
20
50093.2
0
VERTEX
8
0
10
1364.5
20
50092.2
0
VERTEX
8
0
10
1364.5
20
50092.0
0
SEQEND
0
POLYLINE
8
0
66
1
10
0.0
20
0.0
30
0.0
0
VERTEX
8
0
10
1364.5
20
50090.0
0
VERTEX
8
0
10
1366.5
20
50089.0
0
VERTEX
8
0
10
1366.5
20
50088.8
0
VERTEX
8
0
10
1364.5
20
50089.8
0
VERTEX
8
0
10
1364.5
20
50090.0
0
SEQEND
0
POLYLINE
8
0
66
1
10
0.0
20
0.0
30
0.0
0
VERTEX
8
0
10
4048.3499999999985
20
51611.2
0
VERTEX
8
0
10
4048.3499999999985
20
51611.0
0
VERTEX
8
0
10
4126.6500000000015
20
51611.0
0
VERTEX
8
0
10
4126.6500000000015
20
51611.2
0
VERTEX
8
0
10
4048.3499999999985
20
51611.2
0
SEQEND
0
POLYLINE
8
0
66
1
10
0.0
20
0.0
30
0.0
0
VERTEX
8
0
10
4071.3499999999985
20
51607.0
0
VERTEX
8
0
10
4071.3499999999985
20
51606.8
0
VERTEX
8
0
10
4103.6500000000015
20
51606.8
0
VERTEX
8
0
10
4103.6500000000015
20
51607.0
0
VERTEX
8
0
10
4071.3499999999985
20
51607.0
0
SEQEND
0
POLYLINE
8
0
66
1
10
0.0
20
0.0
30
0.0
0
VERTEX
8
0
10
4071.3499999999985
20
51593.200000000004
0
VERTEX
8
0
10
4071.3499999999985
20
51593.00000000001
0
VERTEX
8
0
10
4103.6500000000015
20
51593.00000000001
0
VERTEX
8
0
10
4103.6500000000015
20
51593.200000000004
0
VERTEX
8
0
10
4071.3499999999985
20
51593.200000000004
0
SEQEND
0
POLYLINE
8
0
66
1
10
0.0
20
0.0
30
0.0
0
VERTEX
8
0
10
4048.3499999999985
20
51589.00000000001
0
VERTEX
8
0
10
4048.3499999999985
20
51588.80000000001
0
VERTEX
8
0
10
4126.6500000000015
20
51588.80000000001
0
VERTEX
8
0
10
4126.6500000000015
20
51589.00000000001
0
VERTEX
8
0
10
4048.3499999999985
20
51589.00000000001
0
SEQEND
0
POLYLINE
8
0
66
1
10
0.0
20
0.0
30
0.0
0
VERTEX
8
0
10
4126.6500000000015
20
51611.0
0
VERTEX
8
0
10
4126.6500000000015
20
51589.0
0
VERTEX
8
0
10
4127.3499999999985
20
51589.0
0
VERTEX
8
0
10
4127.3499999999985
20
51611.0
0
VERTEX
8
0
10
4126.6500000000015
20
51611.0
0
SEQEND
0
POLYLINE
8
0
66
1
10
0.0
20
0.0
30
0.0
0
VERTEX
8
0
10
4048.3499999999985
20
51611.0
0
VERTEX
8
0
10
4048.3499999999985
20
51589.0
0
VERTEX
8
0
10
4047.6500000000015
20
51589.0
0
VERTEX
8
0
10
4047.6500000000015
20
51611.0
0
VERTEX
8
0
10
4048.3499999999985
20
51611.0
0
SEQEND
0
POLYLINE
8
0
66
1
10
0.0
20
0.0
30
0.0
0
VERTEX
8
0
10
4102.949999999997
20
51606.8
0
VERTEX
8
0
10
4102.949999999997
20
51593.200000000004
0
VERTEX
8
0
10
4103.649999999994
20
51593.200000000004
0
VERTEX
8
0
10
4103.649999999994
20
51606.8
0
VERTEX
8
0
10
4102.949999999997
20
51606.8
0
SEQEND
0
POLYLINE
8
0
66
1
10
0.0
20
0.0
30
0.0
0
VERTEX
8
0
10
4072.050000000003
20
51606.8
0
VERTEX
8
0
10
4072.050000000003
20
51593.200000000004
0
VERTEX
8
0
10
4071.350000000006
20
51593.200000000004
0
VERTEX
8
0
10
4071.350000000006
20
51606.8
0
VERTEX
8
0
10
4072.050000000003
20
51606.8
0
SEQEND
0
POLYLINE
8
0
66
1
10
0.0
20
0.0
30
0.0
0
VERTEX
8
0
10
4083.5
20
51611.2
0
VERTEX
8
0
10
4083.5
20
51611.0
0
VERTEX
8
0
10
4091.5
20
51611.0
0
VERTEX
8
0
10
4091.5
20
51611.2
0
VERTEX
8
0
10
4083.5
20
51611.2
0
SEQEND
0
POLYLINE
8
0
66
1
10
0.0
20
0.0
30
0.0
0
VERTEX
8
0
10
4083.5
20
51607.0
0
VERTEX
8
0
10
4083.5
20
51606.8
0
VERTEX
8
0
10
4091.5
20
51606.8
0
VERTEX
8
0
10
4091.5
20
51607.0
0
VERTEX
8
0
10
4083.5
20
51607.0
0
SEQEND
0
POLYLINE
8
0
66
1
10
0.0
20
0.0
30
0.0
0
VERTEX
8
0
10
4083.5
20
51611.0
0
VERTEX
8
0
10
4085.5
20
51611.0
0
VERTEX
8
0
10
4085.5
20
51611.2
0
VERTEX
8
0
10
4083.5
20
51611.2
0
VERTEX
8
0
10
4083.5
20
51611.0
0
SEQEND
0
POLYLINE
8
0
66
1
10
0.0
20
0.0
30
0.0
0
VERTEX
8
0
10
4083.5
20
51607.0
0
VERTEX
8
0
10
4085.5
20
51607.0
0
VERTEX
8
0
10
4085.5
20
51606.8
0
VERTEX
8
0
10
4083.5
20
51606.8
0
VERTEX
8
0
10
4083.5
20
51607.0
0
SEQEND
0
POLYLINE
8
0
66
1
10
0.0
20
0.0
30
0.0
0
VERTEX
8
0
10
4085.5
20
51611.0
0
VERTEX
8
0
10
4088.5
20
51609.45
0
VERTEX
8
0
10
4088.5
20
51609.649999999994
0
VERTEX
8
0
10
4085.5
20
51611.2
0
VERTEX
8
0
10
4085.5
20
51611.0
0
SEQEND
0
POLYLINE
8
0
66
1
10
0.0
20
0.0
30
0.0
0
VERTEX
8
0
10
4085.5
20
51607.0
0
VERTEX
8
0
10
4088.5
20
51608.55
0
VERTEX
8
0
10
4088.5
20
51608.350000000006
0
VERTEX
8
0
10
4085.5
20
51606.8
0
VERTEX
8
0
10
4085.5
20
51607.0
0
SEQEND
0
POLYLINE
8
0
66
1
10
0.0
20
0.0
30
0.0
0
VERTEX
8
0
10
4088.5
20
51609.45
0
VERTEX
8
0
10
4089.3
20
51609.45
0
VERTEX
8
0
10
4089.3
20
51609.649999999994
0
VERTEX
8
0
10
4088.5
20
51609.649999999994
0
VERTEX
8
0
10
4088.5
20
51609.45
0
SEQEND
0
POLYLINE
8
0
66
1
10
0.0
20
0.0
30
0.0
0
VERTEX
8
0
10
4088.5
20
51608.55
0
VERTEX
8
0
10
4089.3
20
51608.55
0
VERTEX
8
0
10
4089.3
20
51608.350000000006
0
VERTEX
8
0
10
4088.5
20
51608.350000000006
0
VERTEX
8
0
10
4088.5
20
51608.55
0
SEQEND
0
POLYLINE
8
0
66
1
10
0.0
20
0.0
30
0.0
0
VERTEX
8
0
10
4089.3
20
51607.8
0
VERTEX
8
0
10
4089.5
20
51607.8
0
VERTEX
8
0
10
4089.5
20
51610.2
0
VERTEX
8
0
10
4089.3
20
51610.2
0
VERTEX
8
0
10
4089.3
20
51607.8
0
SEQEND
0
POLYLINE
8
0
66
1
10
0.0
20
0.0
30
0.0
0
VERTEX
8
0
10
4089.5
20
51610.0
0
VERTEX
8
0
10
4091.5
20
51611.0
0
VERTEX
8
0
10
4091.5
20
51611.2
0
VERTEX
8
0
10
4089.5
20
51610.2
0
VERTEX
8
0
10
4089.5
20
51610.0
0
SEQEND
0
POLYLINE
8
0
66
1
10
0.0
20
0.0
30
0.0
0
VERTEX
8
0
10
4089.5
20
51608.0
0
VERTEX
8
0
10
4091.5
20
51607.0
0
VERTEX
8
0
10
4091.5
20
51606.8
0
VERTEX
8
0
10
4089.5
20
51607.8
0
VERTEX
8
0
10
4089.5
20
51608.0
0
SEQEND
0
POLYLINE
8
0
66
1
10
0.0
20
0.0
30
0.0
0
VERTEX
8
0
10
4083.5
20
51593.2
0
VERTEX
8
0
10
4083.5
20
51593.0
0
VERTEX
8
0
10
4091.5
20
51593.0
0
VERTEX
8
0
10
4091.5
20
51593.2
0
VERTEX
8
0
10
4083.5
20
51593.2
0
SEQEND
0
POLYLINE
8
0
66
1
10
0.0
20
0.0
30
0.0
0
VERTEX
8
0
10
4083.5
20
51589.0
0
VERTEX
8
0
10
4083.5
20
51588.8
0
VERTEX
8
0
10
4091.5
20
51588.8
0
VERTEX
8
0
10
4091.5
20
51589.0
0
VERTEX
8
0
10
4083.5
20
51589.0
0
SEQEND
0
POLYLINE
8
0
66
1
10
0.0
20
0.0
30
0.0
0
VERTEX
8
0
10
4083.5
20
51593.0
0
VERTEX
8
0
10
4085.5
20
51593.0
0
VERTEX
8
0
10
4085.5
20
51593.2
0
VERTEX
8
0
10
4083.5
20
51593.2
0
VERTEX
8
0
10
4083.5
20
51593.0
0
SEQEND
0
POLYLINE
8
0
66
1
10
0.0
20
0.0
30
0.0
0
VERTEX
8
0
10
4083.5
20
51589.0
0
VERTEX
8
0
10
4085.5
20
51589.0
0
VERTEX
8
0
10
4085.5
20
51588.8
0
VERTEX
8
0
10
4083.5
20
51588.8
0
VERTEX
8
0
10
4083.5
20
51589.0
0
SEQEND
0
POLYLINE
8
0
66
1
10
0.0
20
0.0
30
0.0
0
VERTEX
8
0
10
4085.5
20
51593.0
0
VERTEX
8
0
10
4088.5
20
51591.45
0
VERTEX
8
0
10
4088.5
20
51591.649999999994
0
VERTEX
8
0
10
4085.5
20
51593.2
0
VERTEX
8
0
10
4085.5
20
51593.0
0
SEQEND
0
POLYLINE
8
0
66
1
10
0.0
20
0.0
30
0.0
0
VERTEX
8
0
10
4085.5
20
51589.0
0
VERTEX
8
0
10
4088.5
20
51590.55
0
VERTEX
8
0
10
4088.5
20
51590.350000000006
0
VERTEX
8
0
10
4085.5
20
51588.8
0
VERTEX
8
0
10
4085.5
20
51589.0
0
SEQEND
0
POLYLINE
8
0
66
1
10
0.0
20
0.0
30
0.0
0
VERTEX
8
0
10
4088.5
20
51591.45
0
VERTEX
8
0
10
4089.3
20
51591.45
0
VERTEX
8
0
10
4089.3
20
51591.649999999994
0
VERTEX
8
0
10
4088.5
20
51591.649999999994
0
VERTEX
8
0
10
4088.5
20
51591.45
0
SEQEND
0
POLYLINE
8
0
66
1
10
0.0
20
0.0
30
0.0
0
VERTEX
8
0
10
4088.5
20
51590.55
0
VERTEX
8
0
10
4089.3
20
51590.55
0
VERTEX
8
0
10
4089.3
20
51590.350000000006
0
VERTEX
8
0
10
4088.5
20
51590.350000000006
0
VERTEX
8
0
10
4088.5
20
51590.55
0
SEQEND
0
POLYLINE
8
0
66
1
10
0.0
20
0.0
30
0.0
0
VERTEX
8
0
10
4089.3
20
51589.8
0
VERTEX
8
0
10
4089.5
20
51589.8
0
VERTEX
8
0
10
4089.5
20
51592.2
0
VERTEX
8
0
10
4089.3
20
51592.2
0
VERTEX
8
0
10
4089.3
20
51589.8
0
SEQEND
0
POLYLINE
8
0
66
1
10
0.0
20
0.0
30
0.0
0
VERTEX
8
0
10
4089.5
20
51592.0
0
VERTEX
8
0
10
4091.5
20
51593.0
0
VERTEX
8
0
10
4091.5
20
51593.2
0
VERTEX
8
0
10
4089.5
20
51592.2
0
VERTEX
8
0
10
4089.5
20
51592.0
0
SEQEND
0
POLYLINE
8
0
66
1
10
0.0
20
0.0
30
0.0
0
VERTEX
8
0
10
4089.5
20
51590.0
0
VERTEX
8
0
10
4091.5
20
51589.0
0
VERTEX
8
0
10
4091.5
20
51588.8
0
VERTEX
8
0
10
4089.5
20
51589.8
0
VERTEX
8
0
10
4089.5
20
51590.0
0
SEQEND
0
POLYLINE
8
0
66
1
10
0.0
20
0.0
30
0.0
0
VERTEX
8
0
10
4048.3499999999985
20
50111.2
0
VERTEX
8
0
10
4048.3499999999985
20
50111.0
0
VERTEX
8
0
10
4126.6500000000015
20
50111.0
0
VERTEX
8
0
10
4126.6500000000015
20
50111.2
0
VERTEX
8
0
10
4048.3499999999985
20
50111.2
0
SEQEND
0
POLYLINE
8
0
66
1
10
0.0
20
0.0
30
0.0
0
VERTEX
8
0
10
4071.3499999999985
20
50107.0
0
VERTEX
8
0
10
4071.3499999999985
20
50106.8
0
VERTEX
8
0
10
4103.6500000000015
20
50106.8
0
VERTEX
8
0
10
4103.6500000000015
20
50107.0
0
VERTEX
8
0
10
4071.3499999999985
20
50107.0
0
SEQEND
0
POLYLINE
8
0
66
1
10
0.0
20
0.0
30
0.0
0
VERTEX
8
0
10
4071.3499999999985
20
50093.200000000004
0
VERTEX
8
0
10
4071.3499999999985
20
50093.00000000001
0
VERTEX
8
0
10
4103.6500000000015
20
50093.00000000001
0
VERTEX
8
0
10
4103.6500000000015
20
50093.200000000004
0
VERTEX
8
0
10
4071.3499999999985
20
50093.200000000004
0
SEQEND
0
POLYLINE
8
0
66
1
10
0.0
20
0.0
30
0.0
0
VERTEX
8
0
10
4048.3499999999985
20
50089.00000000001
0
VERTEX
8
0
10
4048.3499999999985
20
50088.80000000001
0
VERTEX
8
0
10
4126.6500000000015
20
50088.80000000001
0
VERTEX
8
0
10
4126.6500000000015
20
50089.00000000001
0
VERTEX
8
0
10
4048.3499999999985
20
50089.00000000001
0
SEQEND
0
POLYLINE
8
0
66
1
10
0.0
20
0.0
30
0.0
0
VERTEX
8
0
10
4126.6500000000015
20
50111.0
0
VERTEX
8
0
10
4126.6500000000015
20
50089.0
0
VERTEX
8
0
10
4127.3499999999985
20
50089.0
0
VERTEX
8
0
10
4127.3499999999985
20
50111.0
0
VERTEX
8
0
10
4126.6500000000015
20
50111.0
0
SEQEND
0
POLYLINE
8
0
66
1
10
0.0
20
0.0
30
0.0
0
VERTEX
8
0
10
4048.3499999999985
20
50111.0
0
VERTEX
8
0
10
4048.3499999999985
20
50089.0
0
VERTEX
8
0
10
4047.6500000000015
20
50089.0
0
VERTEX
8
0
10
4047.6500000000015
20
50111.0
0
VERTEX
8
0
10
4048.3499999999985
20
50111.0
0
SEQEND
0
POLYLINE
8
0
66
1
10
0.0
20
0.0
30
0.0
0
VERTEX
8
0
10
4102.949999999997
20
50106.8
0
VERTEX
8
0
10
4102.949999999997
20
50093.200000000004
0
VERTEX
8
0
10
4103.649999999994
20
50093.200000000004
0
VERTEX
8
0
10
4103.649999999994
20
50106.8
0
VERTEX
8
0
10
4102.949999999997
20
50106.8
0
SEQEND
0
POLYLINE
8
0
66
1
10
0.0
20
0.0
30
0.0
0
VERTEX
8
0
10
4072.050000000003
20
50106.8
0
VERTEX
8
0
10
4072.050000000003
20
50093.200000000004
0
VERTEX
8
0
10
4071.350000000006
20
50093.200000000004
0
VERTEX
8
0
10
4071.350000000006
20
50106.8
0
VERTEX
8
0
10
4072.050000000003
20
50106.8
0
SEQEND
0
POLYLINE
8
0
66
1
10
0.0
20
0.0
30
0.0
0
VERTEX
8
0
10
4083.5
20
50111.2
0
VERTEX
8
0
10
4083.5
20
50111.0
0
VERTEX
8
0
10
4091.5
20
50111.0
0
VERTEX
8
0
10
4091.5
20
50111.2
0
VERTEX
8
0
10
4083.5
20
50111.2
0
SEQEND
0
POLYLINE
8
0
66
1
10
0.0
20
0.0
30
0.0
0
VERTEX
8
0
10
4083.5
20
50107.0
0
VERTEX
8
0
10
4083.5
20
50106.8
0
VERTEX
8
0
10
4091.5
20
50106.8
0
VERTEX
8
0
10
4091.5
20
50107.0
0
VERTEX
8
0
10
4083.5
20
50107.0
0
SEQEND
0
POLYLINE
8
0
66
1
10
0.0
20
0.0
30
0.0
0
VERTEX
8
0
10
4083.5
20
50111.0
0
VERTEX
8
0
10
4085.5
20
50111.0
0
VERTEX
8
0
10
4085.5
20
50111.2
0
VERTEX
8
0
10
4083.5
20
50111.2
0
VERTEX
8
0
10
4083.5
20
50111.0
0
SEQEND
0
POLYLINE
8
0
66
1
10
0.0
20
0.0
30
0.0
0
VERTEX
8
0
10
4083.5
20
50107.0
0
VERTEX
8
0
10
4085.5
20
50107.0
0
VERTEX
8
0
10
4085.5
20
50106.8
0
VERTEX
8
0
10
4083.5
20
50106.8
0
VERTEX
8
0
10
4083.5
20
50107.0
0
SEQEND
0
POLYLINE
8
0
66
1
10
0.0
20
0.0
30
0.0
0
VERTEX
8
0
10
4085.5
20
50111.0
0
VERTEX
8
0
10
4088.5
20
50109.45
0
VERTEX
8
0
10
4088.5
20
50109.649999999994
0
VERTEX
8
0
10
4085.5
20
50111.2
0
VERTEX
8
0
10
4085.5
20
50111.0
0
SEQEND
0
POLYLINE
8
0
66
1
10
0.0
20
0.0
30
0.0
0
VERTEX
8
0
10
4085.5
20
50107.0
0
VERTEX
8
0
10
4088.5
20
50108.55
0
VERTEX
8
0
10
4088.5
20
50108.350000000006
0
VERTEX
8
0
10
4085.5
20
50106.8
0
VERTEX
8
0
10
4085.5
20
50107.0
0
SEQEND
0
POLYLINE
8
0
66
1
10
0.0
20
0.0
30
0.0
0
VERTEX
8
0
10
4088.5
20
50109.45
0
VERTEX
8
0
10
4089.3
20
50109.45
0
VERTEX
8
0
10
4089.3
20
50109.649999999994
0
VERTEX
8
0
10
4088.5
20
50109.649999999994
0
VERTEX
8
0
10
4088.5
20
50109.45
0
SEQEND
0
POLYLINE
8
0
66
1
10
0.0
20
0.0
30
0.0
0
VERTEX
8
0
10
4088.5
20
50108.55
0
VERTEX
8
0
10
4089.3
20
50108.55
0
VERTEX
8
0
10
4089.3
20
50108.350000000006
0
VERTEX
8
0
10
4088.5
20
50108.350000000006
0
VERTEX
8
0
10
4088.5
20
50108.55
0
SEQEND
0
POLYLINE
8
0
66
1
10
0.0
20
0.0
30
0.0
0
VERTEX
8
0
10
4089.3
20
50107.8
0
VERTEX
8
0
10
4089.5
20
50107.8
0
VERTEX
8
0
10
4089.5
20
50110.2
0
VERTEX
8
0
10
4089.3
20
50110.2
0
VERTEX
8
0
10
4089.3
20
50107.8
0
SEQEND
0
POLYLINE
8
0
66
1
10
0.0
20
0.0
30
0.0
0
VERTEX
8
0
10
4089.5
20
50110.0
0
VERTEX
8
0
10
4091.5
20
50111.0
0
VERTEX
8
0
10
4091.5
20
50111.2
0
VERTEX
8
0
10
4089.5
20
50110.2
0
VERTEX
8
0
10
4089.5
20
50110.0
0
SEQEND
0
POLYLINE
8
0
66
1
10
0.0
20
0.0
30
0.0
0
VERTEX
8
0
10
4089.5
20
50108.0
0
VERTEX
8
0
10
4091.5
20
50107.0
0
VERTEX
8
0
10
4091.5
20
50106.8
0
VERTEX
8
0
10
4089.5
20
50107.8
0
VERTEX
8
0
10
4089.5
20
50108.0
0
SEQEND
0
POLYLINE
8
0
66
1
10
0.0
20
0.0
30
0.0
0
VERTEX
8
0
10
4083.5
20
50093.2
0
VERTEX
8
0
10
4083.5
20
50093.0
0
VERTEX
8
0
10
4091.5
20
50093.0
0
VERTEX
8
0
10
4091.5
20
50093.2
0
VERTEX
8
0
10
4083.5
20
50093.2
0
SEQEND
0
POLYLINE
8
0
66
1
10
0.0
20
0.0
30
0.0
0
VERTEX
8
0
10
4083.5
20
50089.0
0
VERTEX
8
0
10
4083.5
20
50088.8
0
VERTEX
8
0
10
4091.5
20
50088.8
0
VERTEX
8
0
10
4091.5
20
50089.0
0
VERTEX
8
0
10
4083.5
20
50089.0
0
SEQEND
0
POLYLINE
8
0
66
1
10
0.0
20
0.0
30
0.0
0
VERTEX
8
0
10
4083.5
20
50093.0
0
VERTEX
8
0
10
4085.5
20
50093.0
0
VERTEX
8
0
10
4085.5
20
50093.2
0
VERTEX
8
0
10
4083.5
20
50093.2
0
VERTEX
8
0
10
4083.5
20
50093.0
0
SEQEND
0
POLYLINE
8
0
66
1
10
0.0
20
0.0
30
0.0
0
VERTEX
8
0
10
4083.5
20
50089.0
0
VERTEX
8
0
10
4085.5
20
50089.0
0
VERTEX
8
0
10
4085.5
20
50088.8
0
VERTEX
8
0
10
4083.5
20
50088.8
0
VERTEX
8
0
10
4083.5
20
50089.0
0
SEQEND
0
POLYLINE
8
0
66
1
10
0.0
20
0.0
30
0.0
0
VERTEX
8
0
10
4085.5
20
50093.0
0
VERTEX
8
0
10
4088.5
20
50091.45
0
VERTEX
8
0
10
4088.5
20
50091.649999999994
0
VERTEX
8
0
10
4085.5
20
50093.2
0
VERTEX
8
0
10
4085.5
20
50093.0
0
SEQEND
0
POLYLINE
8
0
66
1
10
0.0
20
0.0
30
0.0
0
VERTEX
8
0
10
4085.5
20
50089.0
0
VERTEX
8
0
10
4088.5
20
50090.55
0
VERTEX
8
0
10
4088.5
20
50090.350000000006
0
VERTEX
8
0
10
4085.5
20
50088.8
0
VERTEX
8
0
10
4085.5
20
50089.0
0
SEQEND
0
POLYLINE
8
0
66
1
10
0.0
20
0.0
30
0.0
0
VERTEX
8
0
10
4088.5
20
50091.45
0
VERTEX
8
0
10
4089.3
20
50091.45
0
VERTEX
8
0
10
4089.3
20
50091.649999999994
0
VERTEX
8
0
10
4088.5
20
50091.649999999994
0
VERTEX
8
0
10
4088.5
20
50091.45
0
SEQEND
0
POLYLINE
8
0
66
1
10
0.0
20
0.0
30
0.0
0
VERTEX
8
0
10
4088.5
20
50090.55
0
VERTEX
8
0
10
4089.3
20
50090.55
0
VERTEX
8
0
10
4089.3
20
50090.350000000006
0
VERTEX
8
0
10
4088.5
20
50090.350000000006
0
VERTEX
8
0
10
4088.5
20
50090.55
0
SEQEND
0
POLYLINE
8
0
66
1
10
0.0
20
0.0
30
0.0
0
VERTEX
8
0
10
4089.3
20
50089.8
0
VERTEX
8
0
10
4089.5
20
50089.8
0
VERTEX
8
0
10
4089.5
20
50092.2
0
VERTEX
8
0
10
4089.3
20
50092.2
0
VERTEX
8
0
10
4089.3
20
50089.8
0
SEQEND
0
POLYLINE
8
0
66
1
10
0.0
20
0.0
30
0.0
0
VERTEX
8
0
10
4089.5
20
50092.0
0
VERTEX
8
0
10
4091.5
20
50093.0
0
VERTEX
8
0
10
4091.5
20
50093.2
0
VERTEX
8
0
10
4089.5
20
50092.2
0
VERTEX
8
0
10
4089.5
20
50092.0
0
SEQEND
0
POLYLINE
8
0
66
1
10
0.0
20
0.0
30
0.0
0
VERTEX
8
0
10
4089.5
20
50090.0
0
VERTEX
8
0
10
4091.5
20
50089.0
0
VERTEX
8
0
10
4091.5
20
50088.8
0
VERTEX
8
0
10
4089.5
20
50089.8
0
VERTEX
8
0
10
4089.5
20
50090.0
0
SEQEND
0
POLYLINE
8
GAP
66
1
10
0.0
20
0.0
30
0.0
0
VERTEX
8
GAP
10
100.0
20
100.0
0
VERTEX
8
GAP
10
100.0
20
170.0
0
VERTEX
8
GAP
10
152.5
20
170.0
0
VERTEX
8
GAP
10
152.5
20
161.25
0
VERTEX
8
GAP
10
117.5
20
161.25
0
VERTEX
8
GAP
10
117.5
20
108.75
0
VERTEX
8
GAP
10
152.5
20
108.75
0
VERTEX
8
GAP
10
152.5
20
100.0
0
VERTEX
8
GAP
10
100.0
20
100.0
0
VERTEX
8
GAP
10
100.0
20
100.0
0
SEQEND
0
POLYLINE
8
GAP
66
1
10
0.0
20
0.0
30
0.0
0
VERTEX
8
GAP
10
170.0
20
100.0
0
VERTEX
8
GAP
10
222.5
20
100.0
0
VERTEX
8
GAP
10
222.5
20
108.75
0
VERTEX
8
GAP
10
205.0
20
108.75
0
VERTEX
8
GAP
10
205.0
20
170.0
0
VERTEX
8
GAP
10
187.5
20
170.0
0
VERTEX
8
GAP
10
170.0
20
161.25
0
VERTEX
8
GAP
10
170.0
20
152.5
0
VERTEX
8
GAP
10
187.5
20
152.5
0
VERTEX
8
GAP
10
187.5
20
108.75
0
VERTEX
8
GAP
10
170.0
20
108.75
0
VERTEX
8
GAP
10
170.0
20
100.0
0
VERTEX
8
GAP
10
170.0
20
100.0
0
SEQEND
0
POLYLINE
8
GAP
66
1
10
0.0
20
0.0
30
0.0
0
VERTEX
8
GAP
10
240.0
20
100.0
0
VERTEX
8
GAP
10
257.5
20
100.0
0
VERTEX
8
GAP
10
257.5
20
170.0
0
VERTEX
8
GAP
10
240.0
20
170.0
0
VERTEX
8
GAP
10
240.0
20
100.0
0
SEQEND
0
POLYLINE
8
GAP
66
1
10
0.0
20
0.0
30
0.0
0
VERTEX
8
GAP
10
257.5
20
100.0
0
VERTEX
8
GAP
10
275.0
20
100.0
0
VERTEX
8
GAP
10
292.5
20
108.75
0
VERTEX
8
GAP
10
292.5
20
126.25
0
VERTEX
8
GAP
10
275.0
20
135.0
0
VERTEX
8
GAP
10
292.5
20
143.75
0
VERTEX
8
GAP
10
292.5
20
161.25
0
VERTEX
8
GAP
10
275.0
20
170.0
0
VERTEX
8
GAP
10
257.5
20
170.0
0
VERTEX
8
GAP
10
257.5
20
161.25
0
VERTEX
8
GAP
10
275.0
20
161.25
0
VERTEX
8
GAP
10
275.0
20
143.75
0
VERTEX
8
GAP
10
257.5
20
143.75
0
VERTEX
8
GAP
10
257.5
20
126.25
0
VERTEX
8
GAP
10
275.0
20
126.25
0
VERTEX
8
GAP
10
275.0
20
108.75
0
VERTEX
8
GAP
10
257.5
20
108.75
0
VERTEX
8
GAP
10
257.5
20
100.0
0
SEQEND
0
ENDBLK
0
BLOCK
8
PIN
2
C1BPIN
70
0
10
0
20
0
30
0
3
C1BPIN
0
POLYLINE
8
0
66
1
10
0.0
20
0.0
30
0.0
0
VERTEX
8
0
10
50.0
20
23270.0
0
VERTEX
8
0
10
50.000000000000014
20
22945.0
0
VERTEX
8
0
10
200.0
20
22945.0
0
VERTEX
8
0
10
200.0
20
23270.0
0
VERTEX
8
0
10
50.0
20
23270.0
0
SEQEND
0
POLYLINE
8
0
66
1
10
0.0
20
0.0
30
0.0
0
VERTEX
8
0
10
125.00000000000001
20
22945.0
0
VERTEX
8
0
10
125.00000000000003
20
22695.0
0
VERTEX
8
0
10
130.00000000000003
20
22695.0
0
VERTEX
8
0
10
200.0
20
22945.0
0
VERTEX
8
0
10
125.00000000000001
20
22945.0
0
SEQEND
0
POLYLINE
8
0
66
1
10
0.0
20
0.0
30
0.0
0
VERTEX
8
0
10
125.00000000000001
20
22945.0
0
VERTEX
8
0
10
125.00000000000003
20
22695.0
0
VERTEX
8
0
10
120.00000000000003
20
22695.0
0
VERTEX
8
0
10
50.000000000000014
20
22945.0
0
VERTEX
8
0
10
125.00000000000001
20
22945.0
0
SEQEND
0
POLYLINE
8
0
66
1
10
0.0
20
0.0
30
0.0
0
VERTEX
8
0
10
50.0
20
25525.0
0
VERTEX
8
0
10
50.000000000000014
20
25200.0
0
VERTEX
8
0
10
200.0
20
25200.0
0
VERTEX
8
0
10
200.0
20
25525.0
0
VERTEX
8
0
10
50.0
20
25525.0
0
SEQEND
0
POLYLINE
8
0
66
1
10
0.0
20
0.0
30
0.0
0
VERTEX
8
0
10
125.00000000000001
20
25200.0
0
VERTEX
8
0
10
125.00000000000003
20
24950.0
0
VERTEX
8
0
10
130.00000000000003
20
24950.0
0
VERTEX
8
0
10
200.0
20
25200.0
0
VERTEX
8
0
10
125.00000000000001
20
25200.0
0
SEQEND
0
POLYLINE
8
0
66
1
10
0.0
20
0.0
30
0.0
0
VERTEX
8
0
10
125.00000000000001
20
25200.0
0
VERTEX
8
0
10
125.00000000000003
20
24950.0
0
VERTEX
8
0
10
120.00000000000003
20
24950.0
0
VERTEX
8
0
10
50.000000000000014
20
25200.0
0
VERTEX
8
0
10
125.00000000000001
20
25200.0
0
SEQEND
0
POLYLINE
8
0
66
1
10
0.0
20
0.0
30
0.0
0
VERTEX
8
0
10
4750.0
20
47775.0
0
VERTEX
8
0
10
4425.0
20
47775.0
0
VERTEX
8
0
10
4425.0
20
47625.0
0
VERTEX
8
0
10
4750.0
20
47625.0
0
VERTEX
8
0
10
4750.0
20
47775.0
0
SEQEND
0
POLYLINE
8
0
66
1
10
0.0
20
0.0
30
0.0
0
VERTEX
8
0
10
4425.0
20
47700.0
0
VERTEX
8
0
10
4175.0
20
47700.0
0
VERTEX
8
0
10
4175.0
20
47695.0
0
VERTEX
8
0
10
4425.0
20
47625.0
0
VERTEX
8
0
10
4425.0
20
47700.0
0
SEQEND
0
POLYLINE
8
0
66
1
10
0.0
20
0.0
30
0.0
0
VERTEX
8
0
10
4425.0
20
47700.0
0
VERTEX
8
0
10
4175.0
20
47700.0
0
VERTEX
8
0
10
4175.0
20
47705.0
0
VERTEX
8
0
10
4425.0
20
47775.0
0
VERTEX
8
0
10
4425.0
20
47700.0
0
SEQEND
0
POLYLINE
8
0
66
1
10
0.0
20
0.0
30
0.0
0
VERTEX
8
0
10
5250.0
20
25525.0
0
VERTEX
8
0
10
5250.0
20
25200.0
0
VERTEX
8
0
10
5400.0
20
25200.0
0
VERTEX
8
0
10
5400.0
20
25525.0
0
VERTEX
8
0
10
5250.0
20
25525.0
0
SEQEND
0
POLYLINE
8
0
66
1
10
0.0
20
0.0
30
0.0
0
VERTEX
8
0
10
5325.0
20
25200.0
0
VERTEX
8
0
10
5325.0
20
24950.0
0
VERTEX
8
0
10
5330.0
20
24950.0
0
VERTEX
8
0
10
5400.0
20
25200.0
0
VERTEX
8
0
10
5325.0
20
25200.0
0
SEQEND
0
POLYLINE
8
0
66
1
10
0.0
20
0.0
30
0.0
0
VERTEX
8
0
10
5325.0
20
25200.0
0
VERTEX
8
0
10
5325.0
20
24950.0
0
VERTEX
8
0
10
5320.0
20
24950.0
0
VERTEX
8
0
10
5250.0
20
25200.0
0
VERTEX
8
0
10
5325.0
20
25200.0
0
SEQEND
0
POLYLINE
8
0
66
1
10
0.0
20
0.0
30
0.0
0
VERTEX
8
0
10
5250.0
20
23275.0
0
VERTEX
8
0
10
5250.0
20
22950.0
0
VERTEX
8
0
10
5400.0
20
22950.0
0
VERTEX
8
0
10
5400.0
20
23275.0
0
VERTEX
8
0
10
5250.0
20
23275.0
0
SEQEND
0
POLYLINE
8
0
66
1
10
0.0
20
0.0
30
0.0
0
VERTEX
8
0
10
5325.0
20
22950.0
0
VERTEX
8
0
10
5325.0
20
22700.0
0
VERTEX
8
0
10
5330.0
20
22700.0
0
VERTEX
8
0
10
5400.0
20
22950.0
0
VERTEX
8
0
10
5325.0
20
22950.0
0
SEQEND
0
POLYLINE
8
0
66
1
10
0.0
20
0.0
30
0.0
0
VERTEX
8
0
10
5325.0
20
22950.0
0
VERTEX
8
0
10
5325.0
20
22700.0
0
VERTEX
8
0
10
5320.0
20
22700.0
0
VERTEX
8
0
10
5250.0
20
22950.0
0
VERTEX
8
0
10
5325.0
20
22950.0
0
SEQEND
0
POLYLINE
8
0
66
1
10
0.0
20
0.0
30
0.0
0
VERTEX
8
0
10
4750.0
20
875.0
0
VERTEX
8
0
10
4425.0
20
875.0
0
VERTEX
8
0
10
4425.0
20
725.0
0
VERTEX
8
0
10
4750.0
20
725.0
0
VERTEX
8
0
10
4750.0
20
875.0
0
SEQEND
0
POLYLINE
8
0
66
1
10
0.0
20
0.0
30
0.0
0
VERTEX
8
0
10
4425.0
20
800.0
0
VERTEX
8
0
10
4175.0
20
800.0
0
VERTEX
8
0
10
4175.0
20
795.0
0
VERTEX
8
0
10
4425.0
20
725.0
0
VERTEX
8
0
10
4425.0
20
800.0
0
SEQEND
0
POLYLINE
8
0
66
1
10
0.0
20
0.0
30
0.0
0
VERTEX
8
0
10
4425.0
20
800.0
0
VERTEX
8
0
10
4175.0
20
800.0
0
VERTEX
8
0
10
4175.0
20
805.0
0
VERTEX
8
0
10
4425.0
20
875.0
0
VERTEX
8
0
10
4425.0
20
800.0
0
SEQEND
0
POLYLINE
8
0
66
1
10
0.0
20
0.0
30
0.0
0
VERTEX
8
0
10
700.0
20
725.0
0
VERTEX
8
0
10
1025.0
20
725.0
0
VERTEX
8
0
10
1025.0
20
875.0
0
VERTEX
8
0
10
700.0
20
875.0
0
VERTEX
8
0
10
700.0
20
725.0
0
SEQEND
0
POLYLINE
8
0
66
1
10
0.0
20
0.0
30
0.0
0
VERTEX
8
0
10
1025.0
20
800.0
0
VERTEX
8
0
10
1275.0
20
800.0
0
VERTEX
8
0
10
1275.0
20
805.0
0
VERTEX
8
0
10
1025.0
20
875.0
0
VERTEX
8
0
10
1025.0
20
800.0
0
SEQEND
0
POLYLINE
8
0
66
1
10
0.0
20
0.0
30
0.0
0
VERTEX
8
0
10
1025.0
20
800.0
0
VERTEX
8
0
10
1275.0
20
800.0
0
VERTEX
8
0
10
1275.0
20
795.0
0
VERTEX
8
0
10
1025.0
20
725.0
0
VERTEX
8
0
10
1025.0
20
800.0
0
SEQEND
0
POLYLINE
8
0
66
1
10
0.0
20
0.0
30
0.0
0
VERTEX
8
0
10
50.0
20
23270.0
0
VERTEX
8
0
10
50.000000000000014
20
22945.0
0
VERTEX
8
0
10
200.0
20
22945.0
0
VERTEX
8
0
10
200.0
20
23270.0
0
VERTEX
8
0
10
50.0
20
23270.0
0
SEQEND
0
POLYLINE
8
0
66
1
10
0.0
20
0.0
30
0.0
0
VERTEX
8
0
10
125.00000000000001
20
22945.0
0
VERTEX
8
0
10
125.00000000000003
20
22695.0
0
VERTEX
8
0
10
130.00000000000003
20
22695.0
0
VERTEX
8
0
10
200.0
20
22945.0
0
VERTEX
8
0
10
125.00000000000001
20
22945.0
0
SEQEND
0
POLYLINE
8
0
66
1
10
0.0
20
0.0
30
0.0
0
VERTEX
8
0
10
125.00000000000001
20
22945.0
0
VERTEX
8
0
10
125.00000000000003
20
22695.0
0
VERTEX
8
0
10
120.00000000000003
20
22695.0
0
VERTEX
8
0
10
50.000000000000014
20
22945.0
0
VERTEX
8
0
10
125.00000000000001
20
22945.0
0
SEQEND
0
POLYLINE
8
0
66
1
10
0.0
20
0.0
30
0.0
0
VERTEX
8
0
10
50.0
20
25525.0
0
VERTEX
8
0
10
50.000000000000014
20
25200.0
0
VERTEX
8
0
10
200.0
20
25200.0
0
VERTEX
8
0
10
200.0
20
25525.0
0
VERTEX
8
0
10
50.0
20
25525.0
0
SEQEND
0
POLYLINE
8
0
66
1
10
0.0
20
0.0
30
0.0
0
VERTEX
8
0
10
125.00000000000001
20
25200.0
0
VERTEX
8
0
10
125.00000000000003
20
24950.0
0
VERTEX
8
0
10
130.00000000000003
20
24950.0
0
VERTEX
8
0
10
200.0
20
25200.0
0
VERTEX
8
0
10
125.00000000000001
20
25200.0
0
SEQEND
0
POLYLINE
8
0
66
1
10
0.0
20
0.0
30
0.0
0
VERTEX
8
0
10
125.00000000000001
20
25200.0
0
VERTEX
8
0
10
125.00000000000003
20
24950.0
0
VERTEX
8
0
10
120.00000000000003
20
24950.0
0
VERTEX
8
0
10
50.000000000000014
20
25200.0
0
VERTEX
8
0
10
125.00000000000001
20
25200.0
0
SEQEND
0
POLYLINE
8
0
66
1
10
0.0
20
0.0
30
0.0
0
VERTEX
8
0
10
4750.0
20
47775.0
0
VERTEX
8
0
10
4425.0
20
47775.0
0
VERTEX
8
0
10
4425.0
20
47625.0
0
VERTEX
8
0
10
4750.0
20
47625.0
0
VERTEX
8
0
10
4750.0
20
47775.0
0
SEQEND
0
POLYLINE
8
0
66
1
10
0.0
20
0.0
30
0.0
0
VERTEX
8
0
10
4425.0
20
47700.0
0
VERTEX
8
0
10
4175.0
20
47700.0
0
VERTEX
8
0
10
4175.0
20
47695.0
0
VERTEX
8
0
10
4425.0
20
47625.0
0
VERTEX
8
0
10
4425.0
20
47700.0
0
SEQEND
0
POLYLINE
8
0
66
1
10
0.0
20
0.0
30
0.0
0
VERTEX
8
0
10
4425.0
20
47700.0
0
VERTEX
8
0
10
4175.0
20
47700.0
0
VERTEX
8
0
10
4175.0
20
47705.0
0
VERTEX
8
0
10
4425.0
20
47775.0
0
VERTEX
8
0
10
4425.0
20
47700.0
0
SEQEND
0
POLYLINE
8
0
66
1
10
0.0
20
0.0
30
0.0
0
VERTEX
8
0
10
5250.0
20
25525.0
0
VERTEX
8
0
10
5250.0
20
25200.0
0
VERTEX
8
0
10
5400.0
20
25200.0
0
VERTEX
8
0
10
5400.0
20
25525.0
0
VERTEX
8
0
10
5250.0
20
25525.0
0
SEQEND
0
POLYLINE
8
0
66
1
10
0.0
20
0.0
30
0.0
0
VERTEX
8
0
10
5325.0
20
25200.0
0
VERTEX
8
0
10
5325.0
20
24950.0
0
VERTEX
8
0
10
5330.0
20
24950.0
0
VERTEX
8
0
10
5400.0
20
25200.0
0
VERTEX
8
0
10
5325.0
20
25200.0
0
SEQEND
0
POLYLINE
8
0
66
1
10
0.0
20
0.0
30
0.0
0
VERTEX
8
0
10
5325.0
20
25200.0
0
VERTEX
8
0
10
5325.0
20
24950.0
0
VERTEX
8
0
10
5320.0
20
24950.0
0
VERTEX
8
0
10
5250.0
20
25200.0
0
VERTEX
8
0
10
5325.0
20
25200.0
0
SEQEND
0
POLYLINE
8
0
66
1
10
0.0
20
0.0
30
0.0
0
VERTEX
8
0
10
5250.0
20
23275.0
0
VERTEX
8
0
10
5250.0
20
22950.0
0
VERTEX
8
0
10
5400.0
20
22950.0
0
VERTEX
8
0
10
5400.0
20
23275.0
0
VERTEX
8
0
10
5250.0
20
23275.0
0
SEQEND
0
POLYLINE
8
0
66
1
10
0.0
20
0.0
30
0.0
0
VERTEX
8
0
10
5325.0
20
22950.0
0
VERTEX
8
0
10
5325.0
20
22700.0
0
VERTEX
8
0
10
5330.0
20
22700.0
0
VERTEX
8
0
10
5400.0
20
22950.0
0
VERTEX
8
0
10
5325.0
20
22950.0
0
SEQEND
0
POLYLINE
8
0
66
1
10
0.0
20
0.0
30
0.0
0
VERTEX
8
0
10
5325.0
20
22950.0
0
VERTEX
8
0
10
5325.0
20
22700.0
0
VERTEX
8
0
10
5320.0
20
22700.0
0
VERTEX
8
0
10
5250.0
20
22950.0
0
VERTEX
8
0
10
5325.0
20
22950.0
0
SEQEND
0
POLYLINE
8
0
66
1
10
0.0
20
0.0
30
0.0
0
VERTEX
8
0
10
4750.0
20
875.0
0
VERTEX
8
0
10
4425.0
20
875.0
0
VERTEX
8
0
10
4425.0
20
725.0
0
VERTEX
8
0
10
4750.0
20
725.0
0
VERTEX
8
0
10
4750.0
20
875.0
0
SEQEND
0
POLYLINE
8
0
66
1
10
0.0
20
0.0
30
0.0
0
VERTEX
8
0
10
4425.0
20
800.0
0
VERTEX
8
0
10
4175.0
20
800.0
0
VERTEX
8
0
10
4175.0
20
795.0
0
VERTEX
8
0
10
4425.0
20
725.0
0
VERTEX
8
0
10
4425.0
20
800.0
0
SEQEND
0
POLYLINE
8
0
66
1
10
0.0
20
0.0
30
0.0
0
VERTEX
8
0
10
4425.0
20
800.0
0
VERTEX
8
0
10
4175.0
20
800.0
0
VERTEX
8
0
10
4175.0
20
805.0
0
VERTEX
8
0
10
4425.0
20
875.0
0
VERTEX
8
0
10
4425.0
20
800.0
0
SEQEND
0
POLYLINE
8
0
66
1
10
0.0
20
0.0
30
0.0
0
VERTEX
8
0
10
700.0
20
725.0
0
VERTEX
8
0
10
1025.0
20
725.0
0
VERTEX
8
0
10
1025.0
20
875.0
0
VERTEX
8
0
10
700.0
20
875.0
0
VERTEX
8
0
10
700.0
20
725.0
0
SEQEND
0
POLYLINE
8
0
66
1
10
0.0
20
0.0
30
0.0
0
VERTEX
8
0
10
1025.0
20
800.0
0
VERTEX
8
0
10
1275.0
20
800.0
0
VERTEX
8
0
10
1275.0
20
805.0
0
VERTEX
8
0
10
1025.0
20
875.0
0
VERTEX
8
0
10
1025.0
20
800.0
0
SEQEND
0
POLYLINE
8
0
66
1
10
0.0
20
0.0
30
0.0
0
VERTEX
8
0
10
1025.0
20
800.0
0
VERTEX
8
0
10
1275.0
20
800.0
0
VERTEX
8
0
10
1275.0
20
795.0
0
VERTEX
8
0
10
1025.0
20
725.0
0
VERTEX
8
0
10
1025.0
20
800.0
0
SEQEND
0
POLYLINE
8
0
66
1
10
0.0
20
0.0
30
0.0
0
VERTEX
8
0
10
2708.8499999999985
20
46050.0
0
VERTEX
8
0
10
2708.8499999999985
20
46046.0
0
VERTEX
8
0
10
2741.1500000000015
20
46046.0
0
VERTEX
8
0
10
2741.1500000000015
20
46050.0
0
VERTEX
8
0
10
2708.8499999999985
20
46050.0
0
SEQEND
0
POLYLINE
8
0
66
1
10
0.0
20
0.0
30
0.0
0
VERTEX
8
0
10
2708.8499999999985
20
46032.0
0
VERTEX
8
0
10
2708.8499999999985
20
46028.0
0
VERTEX
8
0
10
2741.1500000000015
20
46028.0
0
VERTEX
8
0
10
2741.1500000000015
20
46032.0
0
VERTEX
8
0
10
2708.8499999999985
20
46032.0
0
SEQEND
0
POLYLINE
8
0
66
1
10
0.0
20
0.0
30
0.0
0
VERTEX
8
0
10
2741.1500000000015
20
46050.0
0
VERTEX
8
0
10
2741.1500000000015
20
46028.0
0
VERTEX
8
0
10
2764.1500000000015
20
46028.0
0
VERTEX
8
0
10
2764.1500000000015
20
46050.0
0
VERTEX
8
0
10
2741.1500000000015
20
46050.0
0
SEQEND
0
POLYLINE
8
0
66
1
10
0.0
20
0.0
30
0.0
0
VERTEX
8
0
10
2708.8499999999985
20
46050.0
0
VERTEX
8
0
10
2708.8499999999985
20
46028.0
0
VERTEX
8
0
10
2685.8499999999985
20
46028.0
0
VERTEX
8
0
10
2685.8499999999985
20
46050.0
0
VERTEX
8
0
10
2708.8499999999985
20
46050.0
0
SEQEND
0
POLYLINE
8
0
66
1
10
0.0
20
0.0
30
0.0
0
VERTEX
8
0
10
2721.0
20
46050.0
0
VERTEX
8
0
10
2721.0
20
46046.0
0
VERTEX
8
0
10
2729.0
20
46046.0
0
VERTEX
8
0
10
2729.0
20
46050.0
0
VERTEX
8
0
10
2721.0
20
46050.0
0
SEQEND
0
POLYLINE
8
0
66
1
10
0.0
20
0.0
30
0.0
0
VERTEX
8
0
10
2721.0
20
46046.0
0
VERTEX
8
0
10
2723.0
20
46046.0
0
VERTEX
8
0
10
2723.0
20
46050.0
0
VERTEX
8
0
10
2721.0
20
46050.0
0
VERTEX
8
0
10
2721.0
20
46046.0
0
SEQEND
0
POLYLINE
8
0
66
1
10
0.0
20
0.0
30
0.0
0
VERTEX
8
0
10
2723.0
20
46048.0
0
VERTEX
8
0
10
2726.0
20
46048.0
0
VERTEX
8
0
10
2726.0
20
46048.45
0
VERTEX
8
0
10
2723.0
20
46050.0
0
VERTEX
8
0
10
2723.0
20
46048.0
0
SEQEND
0
POLYLINE
8
0
66
1
10
0.0
20
0.0
30
0.0
0
VERTEX
8
0
10
2723.0
20
46048.0
0
VERTEX
8
0
10
2726.0
20
46048.0
0
VERTEX
8
0
10
2726.0
20
46047.55
0
VERTEX
8
0
10
2723.0
20
46046.0
0
VERTEX
8
0
10
2723.0
20
46048.0
0
SEQEND
0
POLYLINE
8
0
66
1
10
0.0
20
0.0
30
0.0
0
VERTEX
8
0
10
2726.0
20
46047.55
0
VERTEX
8
0
10
2726.8
20
46047.55
0
VERTEX
8
0
10
2726.8
20
46048.45
0
VERTEX
8
0
10
2726.0
20
46048.45
0
VERTEX
8
0
10
2726.0
20
46047.55
0
SEQEND
0
POLYLINE
8
0
66
1
10
0.0
20
0.0
30
0.0
0
VERTEX
8
0
10
2727.0
20
46048.0
0
VERTEX
8
0
10
2729.0
20
46048.0
0
VERTEX
8
0
10
2729.0
20
46050.0
0
VERTEX
8
0
10
2727.0
20
46049.0
0
VERTEX
8
0
10
2727.0
20
46048.0
0
SEQEND
0
POLYLINE
8
0
66
1
10
0.0
20
0.0
30
0.0
0
VERTEX
8
0
10
2727.0
20
46048.0
0
VERTEX
8
0
10
2729.0
20
46048.0
0
VERTEX
8
0
10
2729.0
20
46046.0
0
VERTEX
8
0
10
2727.0
20
46047.0
0
VERTEX
8
0
10
2727.0
20
46048.0
0
SEQEND
0
POLYLINE
8
0
66
1
10
0.0
20
0.0
30
0.0
0
VERTEX
8
0
10
2721.0
20
46032.0
0
VERTEX
8
0
10
2721.0
20
46028.0
0
VERTEX
8
0
10
2729.0
20
46028.0
0
VERTEX
8
0
10
2729.0
20
46032.0
0
VERTEX
8
0
10
2721.0
20
46032.0
0
SEQEND
0
POLYLINE
8
0
66
1
10
0.0
20
0.0
30
0.0
0
VERTEX
8
0
10
2721.0
20
46028.0
0
VERTEX
8
0
10
2723.0
20
46028.0
0
VERTEX
8
0
10
2723.0
20
46032.0
0
VERTEX
8
0
10
2721.0
20
46032.0
0
VERTEX
8
0
10
2721.0
20
46028.0
0
SEQEND
0
POLYLINE
8
0
66
1
10
0.0
20
0.0
30
0.0
0
VERTEX
8
0
10
2723.0
20
46030.0
0
VERTEX
8
0
10
2726.0
20
46030.0
0
VERTEX
8
0
10
2726.0
20
46030.45
0
VERTEX
8
0
10
2723.0
20
46032.0
0
VERTEX
8
0
10
2723.0
20
46030.0
0
SEQEND
0
POLYLINE
8
0
66
1
10
0.0
20
0.0
30
0.0
0
VERTEX
8
0
10
2723.0
20
46030.0
0
VERTEX
8
0
10
2726.0
20
46030.0
0
VERTEX
8
0
10
2726.0
20
46029.55
0
VERTEX
8
0
10
2723.0
20
46028.0
0
VERTEX
8
0
10
2723.0
20
46030.0
0
SEQEND
0
POLYLINE
8
0
66
1
10
0.0
20
0.0
30
0.0
0
VERTEX
8
0
10
2726.0
20
46029.55
0
VERTEX
8
0
10
2726.8
20
46029.55
0
VERTEX
8
0
10
2726.8
20
46030.45
0
VERTEX
8
0
10
2726.0
20
46030.45
0
VERTEX
8
0
10
2726.0
20
46029.55
0
SEQEND
0
POLYLINE
8
0
66
1
10
0.0
20
0.0
30
0.0
0
VERTEX
8
0
10
2727.0
20
46030.0
0
VERTEX
8
0
10
2729.0
20
46030.0
0
VERTEX
8
0
10
2729.0
20
46032.0
0
VERTEX
8
0
10
2727.0
20
46031.0
0
VERTEX
8
0
10
2727.0
20
46030.0
0
SEQEND
0
POLYLINE
8
0
66
1
10
0.0
20
0.0
30
0.0
0
VERTEX
8
0
10
2727.0
20
46030.0
0
VERTEX
8
0
10
2729.0
20
46030.0
0
VERTEX
8
0
10
2729.0
20
46028.0
0
VERTEX
8
0
10
2727.0
20
46029.0
0
VERTEX
8
0
10
2727.0
20
46030.0
0
SEQEND
0
POLYLINE
8
0
66
1
10
0.0
20
0.0
30
0.0
0
VERTEX
8
0
10
1346.3499999999985
20
51611.0
0
VERTEX
8
0
10
1346.3499999999985
20
51607.0
0
VERTEX
8
0
10
1378.6500000000015
20
51607.0
0
VERTEX
8
0
10
1378.6500000000015
20
51611.0
0
VERTEX
8
0
10
1346.3499999999985
20
51611.0
0
SEQEND
0
POLYLINE
8
0
66
1
10
0.0
20
0.0
30
0.0
0
VERTEX
8
0
10
1346.3499999999985
20
51593.0
0
VERTEX
8
0
10
1346.3499999999985
20
51589.0
0
VERTEX
8
0
10
1378.6500000000015
20
51589.0
0
VERTEX
8
0
10
1378.6500000000015
20
51593.0
0
VERTEX
8
0
10
1346.3499999999985
20
51593.0
0
SEQEND
0
POLYLINE
8
0
66
1
10
0.0
20
0.0
30
0.0
0
VERTEX
8
0
10
1378.6500000000015
20
51611.0
0
VERTEX
8
0
10
1378.6500000000015
20
51589.0
0
VERTEX
8
0
10
1401.6500000000015
20
51589.0
0
VERTEX
8
0
10
1401.6500000000015
20
51611.0
0
VERTEX
8
0
10
1378.6500000000015
20
51611.0
0
SEQEND
0
POLYLINE
8
0
66
1
10
0.0
20
0.0
30
0.0
0
VERTEX
8
0
10
1346.3499999999985
20
51611.0
0
VERTEX
8
0
10
1346.3499999999985
20
51589.0
0
VERTEX
8
0
10
1323.3499999999985
20
51589.0
0
VERTEX
8
0
10
1323.3499999999985
20
51611.0
0
VERTEX
8
0
10
1346.3499999999985
20
51611.0
0
SEQEND
0
POLYLINE
8
0
66
1
10
0.0
20
0.0
30
0.0
0
VERTEX
8
0
10
1358.5
20
51611.0
0
VERTEX
8
0
10
1358.5
20
51607.0
0
VERTEX
8
0
10
1366.5
20
51607.0
0
VERTEX
8
0
10
1366.5
20
51611.0
0
VERTEX
8
0
10
1358.5
20
51611.0
0
SEQEND
0
POLYLINE
8
0
66
1
10
0.0
20
0.0
30
0.0
0
VERTEX
8
0
10
1358.5
20
51607.0
0
VERTEX
8
0
10
1360.5
20
51607.0
0
VERTEX
8
0
10
1360.5
20
51611.0
0
VERTEX
8
0
10
1358.5
20
51611.0
0
VERTEX
8
0
10
1358.5
20
51607.0
0
SEQEND
0
POLYLINE
8
0
66
1
10
0.0
20
0.0
30
0.0
0
VERTEX
8
0
10
1360.5
20
51609.0
0
VERTEX
8
0
10
1363.5
20
51609.0
0
VERTEX
8
0
10
1363.5
20
51609.45
0
VERTEX
8
0
10
1360.5
20
51611.0
0
VERTEX
8
0
10
1360.5
20
51609.0
0
SEQEND
0
POLYLINE
8
0
66
1
10
0.0
20
0.0
30
0.0
0
VERTEX
8
0
10
1360.5
20
51609.0
0
VERTEX
8
0
10
1363.5
20
51609.0
0
VERTEX
8
0
10
1363.5
20
51608.55
0
VERTEX
8
0
10
1360.5
20
51607.0
0
VERTEX
8
0
10
1360.5
20
51609.0
0
SEQEND
0
POLYLINE
8
0
66
1
10
0.0
20
0.0
30
0.0
0
VERTEX
8
0
10
1363.5
20
51608.55
0
VERTEX
8
0
10
1364.3
20
51608.55
0
VERTEX
8
0
10
1364.3
20
51609.45
0
VERTEX
8
0
10
1363.5
20
51609.45
0
VERTEX
8
0
10
1363.5
20
51608.55
0
SEQEND
0
POLYLINE
8
0
66
1
10
0.0
20
0.0
30
0.0
0
VERTEX
8
0
10
1364.5
20
51609.0
0
VERTEX
8
0
10
1366.5
20
51609.0
0
VERTEX
8
0
10
1366.5
20
51611.0
0
VERTEX
8
0
10
1364.5
20
51610.0
0
VERTEX
8
0
10
1364.5
20
51609.0
0
SEQEND
0
POLYLINE
8
0
66
1
10
0.0
20
0.0
30
0.0
0
VERTEX
8
0
10
1364.5
20
51609.0
0
VERTEX
8
0
10
1366.5
20
51609.0
0
VERTEX
8
0
10
1366.5
20
51607.0
0
VERTEX
8
0
10
1364.5
20
51608.0
0
VERTEX
8
0
10
1364.5
20
51609.0
0
SEQEND
0
POLYLINE
8
0
66
1
10
0.0
20
0.0
30
0.0
0
VERTEX
8
0
10
1358.5
20
51593.0
0
VERTEX
8
0
10
1358.5
20
51589.0
0
VERTEX
8
0
10
1366.5
20
51589.0
0
VERTEX
8
0
10
1366.5
20
51593.0
0
VERTEX
8
0
10
1358.5
20
51593.0
0
SEQEND
0
POLYLINE
8
0
66
1
10
0.0
20
0.0
30
0.0
0
VERTEX
8
0
10
1358.5
20
51589.0
0
VERTEX
8
0
10
1360.5
20
51589.0
0
VERTEX
8
0
10
1360.5
20
51593.0
0
VERTEX
8
0
10
1358.5
20
51593.0
0
VERTEX
8
0
10
1358.5
20
51589.0
0
SEQEND
0
POLYLINE
8
0
66
1
10
0.0
20
0.0
30
0.0
0
VERTEX
8
0
10
1360.5
20
51591.0
0
VERTEX
8
0
10
1363.5
20
51591.0
0
VERTEX
8
0
10
1363.5
20
51591.45
0
VERTEX
8
0
10
1360.5
20
51593.0
0
VERTEX
8
0
10
1360.5
20
51591.0
0
SEQEND
0
POLYLINE
8
0
66
1
10
0.0
20
0.0
30
0.0
0
VERTEX
8
0
10
1360.5
20
51591.0
0
VERTEX
8
0
10
1363.5
20
51591.0
0
VERTEX
8
0
10
1363.5
20
51590.55
0
VERTEX
8
0
10
1360.5
20
51589.0
0
VERTEX
8
0
10
1360.5
20
51591.0
0
SEQEND
0
POLYLINE
8
0
66
1
10
0.0
20
0.0
30
0.0
0
VERTEX
8
0
10
1363.5
20
51590.55
0
VERTEX
8
0
10
1364.3
20
51590.55
0
VERTEX
8
0
10
1364.3
20
51591.45
0
VERTEX
8
0
10
1363.5
20
51591.45
0
VERTEX
8
0
10
1363.5
20
51590.55
0
SEQEND
0
POLYLINE
8
0
66
1
10
0.0
20
0.0
30
0.0
0
VERTEX
8
0
10
1364.5
20
51591.0
0
VERTEX
8
0
10
1366.5
20
51591.0
0
VERTEX
8
0
10
1366.5
20
51593.0
0
VERTEX
8
0
10
1364.5
20
51592.0
0
VERTEX
8
0
10
1364.5
20
51591.0
0
SEQEND
0
POLYLINE
8
0
66
1
10
0.0
20
0.0
30
0.0
0
VERTEX
8
0
10
1364.5
20
51591.0
0
VERTEX
8
0
10
1366.5
20
51591.0
0
VERTEX
8
0
10
1366.5
20
51589.0
0
VERTEX
8
0
10
1364.5
20
51590.0
0
VERTEX
8
0
10
1364.5
20
51591.0
0
SEQEND
0
POLYLINE
8
0
66
1
10
0.0
20
0.0
30
0.0
0
VERTEX
8
0
10
1346.3499999999985
20
50111.0
0
VERTEX
8
0
10
1346.3499999999985
20
50107.0
0
VERTEX
8
0
10
1378.6500000000015
20
50107.0
0
VERTEX
8
0
10
1378.6500000000015
20
50111.0
0
VERTEX
8
0
10
1346.3499999999985
20
50111.0
0
SEQEND
0
POLYLINE
8
0
66
1
10
0.0
20
0.0
30
0.0
0
VERTEX
8
0
10
1346.3499999999985
20
50093.0
0
VERTEX
8
0
10
1346.3499999999985
20
50089.0
0
VERTEX
8
0
10
1378.6500000000015
20
50089.0
0
VERTEX
8
0
10
1378.6500000000015
20
50093.0
0
VERTEX
8
0
10
1346.3499999999985
20
50093.0
0
SEQEND
0
POLYLINE
8
0
66
1
10
0.0
20
0.0
30
0.0
0
VERTEX
8
0
10
1378.6500000000015
20
50111.0
0
VERTEX
8
0
10
1378.6500000000015
20
50089.0
0
VERTEX
8
0
10
1401.6500000000015
20
50089.0
0
VERTEX
8
0
10
1401.6500000000015
20
50111.0
0
VERTEX
8
0
10
1378.6500000000015
20
50111.0
0
SEQEND
0
POLYLINE
8
0
66
1
10
0.0
20
0.0
30
0.0
0
VERTEX
8
0
10
1346.3499999999985
20
50111.0
0
VERTEX
8
0
10
1346.3499999999985
20
50089.0
0
VERTEX
8
0
10
1323.3499999999985
20
50089.0
0
VERTEX
8
0
10
1323.3499999999985
20
50111.0
0
VERTEX
8
0
10
1346.3499999999985
20
50111.0
0
SEQEND
0
POLYLINE
8
0
66
1
10
0.0
20
0.0
30
0.0
0
VERTEX
8
0
10
1358.5
20
50111.0
0
VERTEX
8
0
10
1358.5
20
50107.0
0
VERTEX
8
0
10
1366.5
20
50107.0
0
VERTEX
8
0
10
1366.5
20
50111.0
0
VERTEX
8
0
10
1358.5
20
50111.0
0
SEQEND
0
POLYLINE
8
0
66
1
10
0.0
20
0.0
30
0.0
0
VERTEX
8
0
10
1358.5
20
50107.0
0
VERTEX
8
0
10
1360.5
20
50107.0
0
VERTEX
8
0
10
1360.5
20
50111.0
0
VERTEX
8
0
10
1358.5
20
50111.0
0
VERTEX
8
0
10
1358.5
20
50107.0
0
SEQEND
0
POLYLINE
8
0
66
1
10
0.0
20
0.0
30
0.0
0
VERTEX
8
0
10
1360.5
20
50109.0
0
VERTEX
8
0
10
1363.5
20
50109.0
0
VERTEX
8
0
10
1363.5
20
50109.45
0
VERTEX
8
0
10
1360.5
20
50111.0
0
VERTEX
8
0
10
1360.5
20
50109.0
0
SEQEND
0
POLYLINE
8
0
66
1
10
0.0
20
0.0
30
0.0
0
VERTEX
8
0
10
1360.5
20
50109.0
0
VERTEX
8
0
10
1363.5
20
50109.0
0
VERTEX
8
0
10
1363.5
20
50108.55
0
VERTEX
8
0
10
1360.5
20
50107.0
0
VERTEX
8
0
10
1360.5
20
50109.0
0
SEQEND
0
POLYLINE
8
0
66
1
10
0.0
20
0.0
30
0.0
0
VERTEX
8
0
10
1363.5
20
50108.55
0
VERTEX
8
0
10
1364.3
20
50108.55
0
VERTEX
8
0
10
1364.3
20
50109.45
0
VERTEX
8
0
10
1363.5
20
50109.45
0
VERTEX
8
0
10
1363.5
20
50108.55
0
SEQEND
0
POLYLINE
8
0
66
1
10
0.0
20
0.0
30
0.0
0
VERTEX
8
0
10
1364.5
20
50109.0
0
VERTEX
8
0
10
1366.5
20
50109.0
0
VERTEX
8
0
10
1366.5
20
50111.0
0
VERTEX
8
0
10
1364.5
20
50110.0
0
VERTEX
8
0
10
1364.5
20
50109.0
0
SEQEND
0
POLYLINE
8
0
66
1
10
0.0
20
0.0
30
0.0
0
VERTEX
8
0
10
1364.5
20
50109.0
0
VERTEX
8
0
10
1366.5
20
50109.0
0
VERTEX
8
0
10
1366.5
20
50107.0
0
VERTEX
8
0
10
1364.5
20
50108.0
0
VERTEX
8
0
10
1364.5
20
50109.0
0
SEQEND
0
POLYLINE
8
0
66
1
10
0.0
20
0.0
30
0.0
0
VERTEX
8
0
10
1358.5
20
50093.0
0
VERTEX
8
0
10
1358.5
20
50089.0
0
VERTEX
8
0
10
1366.5
20
50089.0
0
VERTEX
8
0
10
1366.5
20
50093.0
0
VERTEX
8
0
10
1358.5
20
50093.0
0
SEQEND
0
POLYLINE
8
0
66
1
10
0.0
20
0.0
30
0.0
0
VERTEX
8
0
10
1358.5
20
50089.0
0
VERTEX
8
0
10
1360.5
20
50089.0
0
VERTEX
8
0
10
1360.5
20
50093.0
0
VERTEX
8
0
10
1358.5
20
50093.0
0
VERTEX
8
0
10
1358.5
20
50089.0
0
SEQEND
0
POLYLINE
8
0
66
1
10
0.0
20
0.0
30
0.0
0
VERTEX
8
0
10
1360.5
20
50091.0
0
VERTEX
8
0
10
1363.5
20
50091.0
0
VERTEX
8
0
10
1363.5
20
50091.45
0
VERTEX
8
0
10
1360.5
20
50093.0
0
VERTEX
8
0
10
1360.5
20
50091.0
0
SEQEND
0
POLYLINE
8
0
66
1
10
0.0
20
0.0
30
0.0
0
VERTEX
8
0
10
1360.5
20
50091.0
0
VERTEX
8
0
10
1363.5
20
50091.0
0
VERTEX
8
0
10
1363.5
20
50090.55
0
VERTEX
8
0
10
1360.5
20
50089.0
0
VERTEX
8
0
10
1360.5
20
50091.0
0
SEQEND
0
POLYLINE
8
0
66
1
10
0.0
20
0.0
30
0.0
0
VERTEX
8
0
10
1363.5
20
50090.55
0
VERTEX
8
0
10
1364.3
20
50090.55
0
VERTEX
8
0
10
1364.3
20
50091.45
0
VERTEX
8
0
10
1363.5
20
50091.45
0
VERTEX
8
0
10
1363.5
20
50090.55
0
SEQEND
0
POLYLINE
8
0
66
1
10
0.0
20
0.0
30
0.0
0
VERTEX
8
0
10
1364.5
20
50091.0
0
VERTEX
8
0
10
1366.5
20
50091.0
0
VERTEX
8
0
10
1366.5
20
50093.0
0
VERTEX
8
0
10
1364.5
20
50092.0
0
VERTEX
8
0
10
1364.5
20
50091.0
0
SEQEND
0
POLYLINE
8
0
66
1
10
0.0
20
0.0
30
0.0
0
VERTEX
8
0
10
1364.5
20
50091.0
0
VERTEX
8
0
10
1366.5
20
50091.0
0
VERTEX
8
0
10
1366.5
20
50089.0
0
VERTEX
8
0
10
1364.5
20
50090.0
0
VERTEX
8
0
10
1364.5
20
50091.0
0
SEQEND
0
POLYLINE
8
0
66
1
10
0.0
20
0.0
30
0.0
0
VERTEX
8
0
10
4071.3499999999985
20
51611.0
0
VERTEX
8
0
10
4071.3499999999985
20
51607.0
0
VERTEX
8
0
10
4103.6500000000015
20
51607.0
0
VERTEX
8
0
10
4103.6500000000015
20
51611.0
0
VERTEX
8
0
10
4071.3499999999985
20
51611.0
0
SEQEND
0
POLYLINE
8
0
66
1
10
0.0
20
0.0
30
0.0
0
VERTEX
8
0
10
4071.3499999999985
20
51593.0
0
VERTEX
8
0
10
4071.3499999999985
20
51589.0
0
VERTEX
8
0
10
4103.6500000000015
20
51589.0
0
VERTEX
8
0
10
4103.6500000000015
20
51593.0
0
VERTEX
8
0
10
4071.3499999999985
20
51593.0
0
SEQEND
0
POLYLINE
8
0
66
1
10
0.0
20
0.0
30
0.0
0
VERTEX
8
0
10
4103.6500000000015
20
51611.0
0
VERTEX
8
0
10
4103.6500000000015
20
51589.0
0
VERTEX
8
0
10
4126.6500000000015
20
51589.0
0
VERTEX
8
0
10
4126.6500000000015
20
51611.0
0
VERTEX
8
0
10
4103.6500000000015
20
51611.0
0
SEQEND
0
POLYLINE
8
0
66
1
10
0.0
20
0.0
30
0.0
0
VERTEX
8
0
10
4071.3499999999985
20
51611.0
0
VERTEX
8
0
10
4071.3499999999985
20
51589.0
0
VERTEX
8
0
10
4048.3499999999985
20
51589.0
0
VERTEX
8
0
10
4048.3499999999985
20
51611.0
0
VERTEX
8
0
10
4071.3499999999985
20
51611.0
0
SEQEND
0
POLYLINE
8
0
66
1
10
0.0
20
0.0
30
0.0
0
VERTEX
8
0
10
4083.5
20
51611.0
0
VERTEX
8
0
10
4083.5
20
51607.0
0
VERTEX
8
0
10
4091.5
20
51607.0
0
VERTEX
8
0
10
4091.5
20
51611.0
0
VERTEX
8
0
10
4083.5
20
51611.0
0
SEQEND
0
POLYLINE
8
0
66
1
10
0.0
20
0.0
30
0.0
0
VERTEX
8
0
10
4083.5
20
51607.0
0
VERTEX
8
0
10
4085.5
20
51607.0
0
VERTEX
8
0
10
4085.5
20
51611.0
0
VERTEX
8
0
10
4083.5
20
51611.0
0
VERTEX
8
0
10
4083.5
20
51607.0
0
SEQEND
0
POLYLINE
8
0
66
1
10
0.0
20
0.0
30
0.0
0
VERTEX
8
0
10
4085.5
20
51609.0
0
VERTEX
8
0
10
4088.5
20
51609.0
0
VERTEX
8
0
10
4088.5
20
51609.45
0
VERTEX
8
0
10
4085.5
20
51611.0
0
VERTEX
8
0
10
4085.5
20
51609.0
0
SEQEND
0
POLYLINE
8
0
66
1
10
0.0
20
0.0
30
0.0
0
VERTEX
8
0
10
4085.5
20
51609.0
0
VERTEX
8
0
10
4088.5
20
51609.0
0
VERTEX
8
0
10
4088.5
20
51608.55
0
VERTEX
8
0
10
4085.5
20
51607.0
0
VERTEX
8
0
10
4085.5
20
51609.0
0
SEQEND
0
POLYLINE
8
0
66
1
10
0.0
20
0.0
30
0.0
0
VERTEX
8
0
10
4088.5
20
51608.55
0
VERTEX
8
0
10
4089.3
20
51608.55
0
VERTEX
8
0
10
4089.3
20
51609.45
0
VERTEX
8
0
10
4088.5
20
51609.45
0
VERTEX
8
0
10
4088.5
20
51608.55
0
SEQEND
0
POLYLINE
8
0
66
1
10
0.0
20
0.0
30
0.0
0
VERTEX
8
0
10
4089.5
20
51609.0
0
VERTEX
8
0
10
4091.5
20
51609.0
0
VERTEX
8
0
10
4091.5
20
51611.0
0
VERTEX
8
0
10
4089.5
20
51610.0
0
VERTEX
8
0
10
4089.5
20
51609.0
0
SEQEND
0
POLYLINE
8
0
66
1
10
0.0
20
0.0
30
0.0
0
VERTEX
8
0
10
4089.5
20
51609.0
0
VERTEX
8
0
10
4091.5
20
51609.0
0
VERTEX
8
0
10
4091.5
20
51607.0
0
VERTEX
8
0
10
4089.5
20
51608.0
0
VERTEX
8
0
10
4089.5
20
51609.0
0
SEQEND
0
POLYLINE
8
0
66
1
10
0.0
20
0.0
30
0.0
0
VERTEX
8
0
10
4083.5
20
51593.0
0
VERTEX
8
0
10
4083.5
20
51589.0
0
VERTEX
8
0
10
4091.5
20
51589.0
0
VERTEX
8
0
10
4091.5
20
51593.0
0
VERTEX
8
0
10
4083.5
20
51593.0
0
SEQEND
0
POLYLINE
8
0
66
1
10
0.0
20
0.0
30
0.0
0
VERTEX
8
0
10
4083.5
20
51589.0
0
VERTEX
8
0
10
4085.5
20
51589.0
0
VERTEX
8
0
10
4085.5
20
51593.0
0
VERTEX
8
0
10
4083.5
20
51593.0
0
VERTEX
8
0
10
4083.5
20
51589.0
0
SEQEND
0
POLYLINE
8
0
66
1
10
0.0
20
0.0
30
0.0
0
VERTEX
8
0
10
4085.5
20
51591.0
0
VERTEX
8
0
10
4088.5
20
51591.0
0
VERTEX
8
0
10
4088.5
20
51591.45
0
VERTEX
8
0
10
4085.5
20
51593.0
0
VERTEX
8
0
10
4085.5
20
51591.0
0
SEQEND
0
POLYLINE
8
0
66
1
10
0.0
20
0.0
30
0.0
0
VERTEX
8
0
10
4085.5
20
51591.0
0
VERTEX
8
0
10
4088.5
20
51591.0
0
VERTEX
8
0
10
4088.5
20
51590.55
0
VERTEX
8
0
10
4085.5
20
51589.0
0
VERTEX
8
0
10
4085.5
20
51591.0
0
SEQEND
0
POLYLINE
8
0
66
1
10
0.0
20
0.0
30
0.0
0
VERTEX
8
0
10
4088.5
20
51590.55
0
VERTEX
8
0
10
4089.3
20
51590.55
0
VERTEX
8
0
10
4089.3
20
51591.45
0
VERTEX
8
0
10
4088.5
20
51591.45
0
VERTEX
8
0
10
4088.5
20
51590.55
0
SEQEND
0
POLYLINE
8
0
66
1
10
0.0
20
0.0
30
0.0
0
VERTEX
8
0
10
4089.5
20
51591.0
0
VERTEX
8
0
10
4091.5
20
51591.0
0
VERTEX
8
0
10
4091.5
20
51593.0
0
VERTEX
8
0
10
4089.5
20
51592.0
0
VERTEX
8
0
10
4089.5
20
51591.0
0
SEQEND
0
POLYLINE
8
0
66
1
10
0.0
20
0.0
30
0.0
0
VERTEX
8
0
10
4089.5
20
51591.0
0
VERTEX
8
0
10
4091.5
20
51591.0
0
VERTEX
8
0
10
4091.5
20
51589.0
0
VERTEX
8
0
10
4089.5
20
51590.0
0
VERTEX
8
0
10
4089.5
20
51591.0
0
SEQEND
0
POLYLINE
8
0
66
1
10
0.0
20
0.0
30
0.0
0
VERTEX
8
0
10
4071.3499999999985
20
50111.0
0
VERTEX
8
0
10
4071.3499999999985
20
50107.0
0
VERTEX
8
0
10
4103.6500000000015
20
50107.0
0
VERTEX
8
0
10
4103.6500000000015
20
50111.0
0
VERTEX
8
0
10
4071.3499999999985
20
50111.0
0
SEQEND
0
POLYLINE
8
0
66
1
10
0.0
20
0.0
30
0.0
0
VERTEX
8
0
10
4071.3499999999985
20
50093.0
0
VERTEX
8
0
10
4071.3499999999985
20
50089.0
0
VERTEX
8
0
10
4103.6500000000015
20
50089.0
0
VERTEX
8
0
10
4103.6500000000015
20
50093.0
0
VERTEX
8
0
10
4071.3499999999985
20
50093.0
0
SEQEND
0
POLYLINE
8
0
66
1
10
0.0
20
0.0
30
0.0
0
VERTEX
8
0
10
4103.6500000000015
20
50111.0
0
VERTEX
8
0
10
4103.6500000000015
20
50089.0
0
VERTEX
8
0
10
4126.6500000000015
20
50089.0
0
VERTEX
8
0
10
4126.6500000000015
20
50111.0
0
VERTEX
8
0
10
4103.6500000000015
20
50111.0
0
SEQEND
0
POLYLINE
8
0
66
1
10
0.0
20
0.0
30
0.0
0
VERTEX
8
0
10
4071.3499999999985
20
50111.0
0
VERTEX
8
0
10
4071.3499999999985
20
50089.0
0
VERTEX
8
0
10
4048.3499999999985
20
50089.0
0
VERTEX
8
0
10
4048.3499999999985
20
50111.0
0
VERTEX
8
0
10
4071.3499999999985
20
50111.0
0
SEQEND
0
POLYLINE
8
0
66
1
10
0.0
20
0.0
30
0.0
0
VERTEX
8
0
10
4083.5
20
50111.0
0
VERTEX
8
0
10
4083.5
20
50107.0
0
VERTEX
8
0
10
4091.5
20
50107.0
0
VERTEX
8
0
10
4091.5
20
50111.0
0
VERTEX
8
0
10
4083.5
20
50111.0
0
SEQEND
0
POLYLINE
8
0
66
1
10
0.0
20
0.0
30
0.0
0
VERTEX
8
0
10
4083.5
20
50107.0
0
VERTEX
8
0
10
4085.5
20
50107.0
0
VERTEX
8
0
10
4085.5
20
50111.0
0
VERTEX
8
0
10
4083.5
20
50111.0
0
VERTEX
8
0
10
4083.5
20
50107.0
0
SEQEND
0
POLYLINE
8
0
66
1
10
0.0
20
0.0
30
0.0
0
VERTEX
8
0
10
4085.5
20
50109.0
0
VERTEX
8
0
10
4088.5
20
50109.0
0
VERTEX
8
0
10
4088.5
20
50109.45
0
VERTEX
8
0
10
4085.5
20
50111.0
0
VERTEX
8
0
10
4085.5
20
50109.0
0
SEQEND
0
POLYLINE
8
0
66
1
10
0.0
20
0.0
30
0.0
0
VERTEX
8
0
10
4085.5
20
50109.0
0
VERTEX
8
0
10
4088.5
20
50109.0
0
VERTEX
8
0
10
4088.5
20
50108.55
0
VERTEX
8
0
10
4085.5
20
50107.0
0
VERTEX
8
0
10
4085.5
20
50109.0
0
SEQEND
0
POLYLINE
8
0
66
1
10
0.0
20
0.0
30
0.0
0
VERTEX
8
0
10
4088.5
20
50108.55
0
VERTEX
8
0
10
4089.3
20
50108.55
0
VERTEX
8
0
10
4089.3
20
50109.45
0
VERTEX
8
0
10
4088.5
20
50109.45
0
VERTEX
8
0
10
4088.5
20
50108.55
0
SEQEND
0
POLYLINE
8
0
66
1
10
0.0
20
0.0
30
0.0
0
VERTEX
8
0
10
4089.5
20
50109.0
0
VERTEX
8
0
10
4091.5
20
50109.0
0
VERTEX
8
0
10
4091.5
20
50111.0
0
VERTEX
8
0
10
4089.5
20
50110.0
0
VERTEX
8
0
10
4089.5
20
50109.0
0
SEQEND
0
POLYLINE
8
0
66
1
10
0.0
20
0.0
30
0.0
0
VERTEX
8
0
10
4089.5
20
50109.0
0
VERTEX
8
0
10
4091.5
20
50109.0
0
VERTEX
8
0
10
4091.5
20
50107.0
0
VERTEX
8
0
10
4089.5
20
50108.0
0
VERTEX
8
0
10
4089.5
20
50109.0
0
SEQEND
0
POLYLINE
8
0
66
1
10
0.0
20
0.0
30
0.0
0
VERTEX
8
0
10
4083.5
20
50093.0
0
VERTEX
8
0
10
4083.5
20
50089.0
0
VERTEX
8
0
10
4091.5
20
50089.0
0
VERTEX
8
0
10
4091.5
20
50093.0
0
VERTEX
8
0
10
4083.5
20
50093.0
0
SEQEND
0
POLYLINE
8
0
66
1
10
0.0
20
0.0
30
0.0
0
VERTEX
8
0
10
4083.5
20
50089.0
0
VERTEX
8
0
10
4085.5
20
50089.0
0
VERTEX
8
0
10
4085.5
20
50093.0
0
VERTEX
8
0
10
4083.5
20
50093.0
0
VERTEX
8
0
10
4083.5
20
50089.0
0
SEQEND
0
POLYLINE
8
0
66
1
10
0.0
20
0.0
30
0.0
0
VERTEX
8
0
10
4085.5
20
50091.0
0
VERTEX
8
0
10
4088.5
20
50091.0
0
VERTEX
8
0
10
4088.5
20
50091.45
0
VERTEX
8
0
10
4085.5
20
50093.0
0
VERTEX
8
0
10
4085.5
20
50091.0
0
SEQEND
0
POLYLINE
8
0
66
1
10
0.0
20
0.0
30
0.0
0
VERTEX
8
0
10
4085.5
20
50091.0
0
VERTEX
8
0
10
4088.5
20
50091.0
0
VERTEX
8
0
10
4088.5
20
50090.55
0
VERTEX
8
0
10
4085.5
20
50089.0
0
VERTEX
8
0
10
4085.5
20
50091.0
0
SEQEND
0
POLYLINE
8
0
66
1
10
0.0
20
0.0
30
0.0
0
VERTEX
8
0
10
4088.5
20
50090.55
0
VERTEX
8
0
10
4089.3
20
50090.55
0
VERTEX
8
0
10
4089.3
20
50091.45
0
VERTEX
8
0
10
4088.5
20
50091.45
0
VERTEX
8
0
10
4088.5
20
50090.55
0
SEQEND
0
POLYLINE
8
0
66
1
10
0.0
20
0.0
30
0.0
0
VERTEX
8
0
10
4089.5
20
50091.0
0
VERTEX
8
0
10
4091.5
20
50091.0
0
VERTEX
8
0
10
4091.5
20
50093.0
0
VERTEX
8
0
10
4089.5
20
50092.0
0
VERTEX
8
0
10
4089.5
20
50091.0
0
SEQEND
0
POLYLINE
8
0
66
1
10
0.0
20
0.0
30
0.0
0
VERTEX
8
0
10
4089.5
20
50091.0
0
VERTEX
8
0
10
4091.5
20
50091.0
0
VERTEX
8
0
10
4091.5
20
50089.0
0
VERTEX
8
0
10
4089.5
20
50090.0
0
VERTEX
8
0
10
4089.5
20
50091.0
0
SEQEND
0
ENDBLK
0
BLOCK
8
0
2
C1B
70
0
10
0
20
0
30
0
3
C1B
0
POLYLINE
8
GAP
66
1
10
0.0
20
0.0
30
0.0
0
VERTEX
8
GAP
10
-100.0
20
48400.0
0
VERTEX
8
GAP
10
0.0
20
48400.0
0
VERTEX
8
GAP
10
0.0
20
48380.0
0
VERTEX
8
GAP
10
-80.0
20
48380.0
0
VERTEX
8
GAP
10
-80.0
20
48300.0
0
VERTEX
8
GAP
10
-100.0
20
48300.0
0
VERTEX
8
GAP
10
-100.0
20
48400.0
0
SEQEND
0
POLYLINE
8
GAP
66
1
10
0.0
20
0.0
30
0.0
0
VERTEX
8
GAP
10
-100.0
20
-100.0
0
VERTEX
8
GAP
10
0.0
20
-100.0
0
VERTEX
8
GAP
10
0.0
20
-80.0
0
VERTEX
8
GAP
10
-80.0
20
-80.0
0
VERTEX
8
GAP
10
-80.0
20
0.0
0
VERTEX
8
GAP
10
-100.0
20
0.0
0
VERTEX
8
GAP
10
-100.0
20
-100.0
0
SEQEND
0
POLYLINE
8
GAP
66
1
10
0.0
20
0.0
30
0.0
0
VERTEX
8
GAP
10
5550.0
20
-100.0
0
VERTEX
8
GAP
10
5450.0
20
-100.0
0
VERTEX
8
GAP
10
5450.0
20
-80.0
0
VERTEX
8
GAP
10
5530.0
20
-80.0
0
VERTEX
8
GAP
10
5530.0
20
0.0
0
VERTEX
8
GAP
10
5550.0
20
0.0
0
VERTEX
8
GAP
10
5550.0
20
-100.0
0
SEQEND
0
POLYLINE
8
GAP
66
1
10
0.0
20
0.0
30
0.0
0
VERTEX
8
GAP
10
5550.0
20
48400.0
0
VERTEX
8
GAP
10
5450.0
20
48400.0
0
VERTEX
8
GAP
10
5450.0
20
48380.0
0
VERTEX
8
GAP
10
5530.0
20
48380.0
0
VERTEX
8
GAP
10
5530.0
20
48300.0
0
VERTEX
8
GAP
10
5550.0
20
48300.0
0
VERTEX
8
GAP
10
5550.0
20
48400.0
0
SEQEND
0
POLYLINE
8
GAP
66
1
10
0.0
20
0.0
30
0.0
0
VERTEX
8
GAP
10
667.1428571428571
20
48400.0
0
VERTEX
8
GAP
10
747.1428571428571
20
48400.0
0
VERTEX
8
GAP
10
747.1428571428571
20
48380.0
0
VERTEX
8
GAP
10
667.1428571428571
20
48380.0
0
VERTEX
8
GAP
10
667.1428571428571
20
48400.0
0
SEQEND
0
POLYLINE
8
GAP
66
1
10
0.0
20
0.0
30
0.0
0
VERTEX
8
GAP
10
667.1428571428571
20
-100.0
0
VERTEX
8
GAP
10
747.1428571428571
20
-100.0
0
VERTEX
8
GAP
10
747.1428571428571
20
-80.0
0
VERTEX
8
GAP
10
667.1428571428571
20
-80.0
0
VERTEX
8
GAP
10
667.1428571428571
20
-100.0
0
SEQEND
0
POLYLINE
8
GAP
66
1
10
0.0
20
0.0
30
0.0
0
VERTEX
8
GAP
10
-100.0
20
6788.571428571428
0
VERTEX
8
GAP
10
-100.0
20
6868.571428571428
0
VERTEX
8
GAP
10
-80.0
20
6868.571428571428
0
VERTEX
8
GAP
10
-80.0
20
6788.571428571428
0
VERTEX
8
GAP
10
-100.0
20
6788.571428571428
0
SEQEND
0
POLYLINE
8
GAP
66
1
10
0.0
20
0.0
30
0.0
0
VERTEX
8
GAP
10
5550.0
20
6788.571428571428
0
VERTEX
8
GAP
10
5550.0
20
6868.571428571428
0
VERTEX
8
GAP
10
5530.0
20
6868.571428571428
0
VERTEX
8
GAP
10
5530.0
20
6788.571428571428
0
VERTEX
8
GAP
10
5550.0
20
6788.571428571428
0
SEQEND
0
POLYLINE
8
GAP
66
1
10
0.0
20
0.0
30
0.0
0
VERTEX
8
GAP
10
1474.2857142857142
20
48400.0
0
VERTEX
8
GAP
10
1554.2857142857142
20
48400.0
0
VERTEX
8
GAP
10
1554.2857142857142
20
48380.0
0
VERTEX
8
GAP
10
1474.2857142857142
20
48380.0
0
VERTEX
8
GAP
10
1474.2857142857142
20
48400.0
0
SEQEND
0
POLYLINE
8
GAP
66
1
10
0.0
20
0.0
30
0.0
0
VERTEX
8
GAP
10
1474.2857142857142
20
-100.0
0
VERTEX
8
GAP
10
1554.2857142857142
20
-100.0
0
VERTEX
8
GAP
10
1554.2857142857142
20
-80.0
0
VERTEX
8
GAP
10
1474.2857142857142
20
-80.0
0
VERTEX
8
GAP
10
1474.2857142857142
20
-100.0
0
SEQEND
0
POLYLINE
8
GAP
66
1
10
0.0
20
0.0
30
0.0
0
VERTEX
8
GAP
10
-100.0
20
13717.142857142857
0
VERTEX
8
GAP
10
-100.0
20
13797.142857142857
0
VERTEX
8
GAP
10
-80.0
20
13797.142857142857
0
VERTEX
8
GAP
10
-80.0
20
13717.142857142857
0
VERTEX
8
GAP
10
-100.0
20
13717.142857142857
0
SEQEND
0
POLYLINE
8
GAP
66
1
10
0.0
20
0.0
30
0.0
0
VERTEX
8
GAP
10
5550.0
20
13717.142857142857
0
VERTEX
8
GAP
10
5550.0
20
13797.142857142857
0
VERTEX
8
GAP
10
5530.0
20
13797.142857142857
0
VERTEX
8
GAP
10
5530.0
20
13717.142857142857
0
VERTEX
8
GAP
10
5550.0
20
13717.142857142857
0
SEQEND
0
POLYLINE
8
GAP
66
1
10
0.0
20
0.0
30
0.0
0
VERTEX
8
GAP
10
2281.428571428571
20
48400.0
0
VERTEX
8
GAP
10
2361.428571428571
20
48400.0
0
VERTEX
8
GAP
10
2361.428571428571
20
48380.0
0
VERTEX
8
GAP
10
2281.428571428571
20
48380.0
0
VERTEX
8
GAP
10
2281.428571428571
20
48400.0
0
SEQEND
0
POLYLINE
8
GAP
66
1
10
0.0
20
0.0
30
0.0
0
VERTEX
8
GAP
10
2281.428571428571
20
-100.0
0
VERTEX
8
GAP
10
2361.428571428571
20
-100.0
0
VERTEX
8
GAP
10
2361.428571428571
20
-80.0
0
VERTEX
8
GAP
10
2281.428571428571
20
-80.0
0
VERTEX
8
GAP
10
2281.428571428571
20
-100.0
0
SEQEND
0
POLYLINE
8
GAP
66
1
10
0.0
20
0.0
30
0.0
0
VERTEX
8
GAP
10
-100.0
20
20645.714285714286
0
VERTEX
8
GAP
10
-100.0
20
20725.714285714286
0
VERTEX
8
GAP
10
-80.0
20
20725.714285714286
0
VERTEX
8
GAP
10
-80.0
20
20645.714285714286
0
VERTEX
8
GAP
10
-100.0
20
20645.714285714286
0
SEQEND
0
POLYLINE
8
GAP
66
1
10
0.0
20
0.0
30
0.0
0
VERTEX
8
GAP
10
5550.0
20
20645.714285714286
0
VERTEX
8
GAP
10
5550.0
20
20725.714285714286
0
VERTEX
8
GAP
10
5530.0
20
20725.714285714286
0
VERTEX
8
GAP
10
5530.0
20
20645.714285714286
0
VERTEX
8
GAP
10
5550.0
20
20645.714285714286
0
SEQEND
0
POLYLINE
8
GAP
66
1
10
0.0
20
0.0
30
0.0
0
VERTEX
8
GAP
10
3088.5714285714284
20
48400.0
0
VERTEX
8
GAP
10
3168.5714285714284
20
48400.0
0
VERTEX
8
GAP
10
3168.5714285714284
20
48380.0
0
VERTEX
8
GAP
10
3088.5714285714284
20
48380.0
0
VERTEX
8
GAP
10
3088.5714285714284
20
48400.0
0
SEQEND
0
POLYLINE
8
GAP
66
1
10
0.0
20
0.0
30
0.0
0
VERTEX
8
GAP
10
3088.5714285714284
20
-100.0
0
VERTEX
8
GAP
10
3168.5714285714284
20
-100.0
0
VERTEX
8
GAP
10
3168.5714285714284
20
-80.0
0
VERTEX
8
GAP
10
3088.5714285714284
20
-80.0
0
VERTEX
8
GAP
10
3088.5714285714284
20
-100.0
0
SEQEND
0
POLYLINE
8
GAP
66
1
10
0.0
20
0.0
30
0.0
0
VERTEX
8
GAP
10
-100.0
20
27574.285714285714
0
VERTEX
8
GAP
10
-100.0
20
27654.285714285714
0
VERTEX
8
GAP
10
-80.0
20
27654.285714285714
0
VERTEX
8
GAP
10
-80.0
20
27574.285714285714
0
VERTEX
8
GAP
10
-100.0
20
27574.285714285714
0
SEQEND
0
POLYLINE
8
GAP
66
1
10
0.0
20
0.0
30
0.0
0
VERTEX
8
GAP
10
5550.0
20
27574.285714285714
0
VERTEX
8
GAP
10
5550.0
20
27654.285714285714
0
VERTEX
8
GAP
10
5530.0
20
27654.285714285714
0
VERTEX
8
GAP
10
5530.0
20
27574.285714285714
0
VERTEX
8
GAP
10
5550.0
20
27574.285714285714
0
SEQEND
0
POLYLINE
8
GAP
66
1
10
0.0
20
0.0
30
0.0
0
VERTEX
8
GAP
10
3895.714285714286
20
48400.0
0
VERTEX
8
GAP
10
3975.714285714286
20
48400.0
0
VERTEX
8
GAP
10
3975.714285714286
20
48380.0
0
VERTEX
8
GAP
10
3895.714285714286
20
48380.0
0
VERTEX
8
GAP
10
3895.714285714286
20
48400.0
0
SEQEND
0
POLYLINE
8
GAP
66
1
10
0.0
20
0.0
30
0.0
0
VERTEX
8
GAP
10
3895.714285714286
20
-100.0
0
VERTEX
8
GAP
10
3975.714285714286
20
-100.0
0
VERTEX
8
GAP
10
3975.714285714286
20
-80.0
0
VERTEX
8
GAP
10
3895.714285714286
20
-80.0
0
VERTEX
8
GAP
10
3895.714285714286
20
-100.0
0
SEQEND
0
POLYLINE
8
GAP
66
1
10
0.0
20
0.0
30
0.0
0
VERTEX
8
GAP
10
-100.0
20
34502.857142857145
0
VERTEX
8
GAP
10
-100.0
20
34582.857142857145
0
VERTEX
8
GAP
10
-80.0
20
34582.857142857145
0
VERTEX
8
GAP
10
-80.0
20
34502.857142857145
0
VERTEX
8
GAP
10
-100.0
20
34502.857142857145
0
SEQEND
0
POLYLINE
8
GAP
66
1
10
0.0
20
0.0
30
0.0
0
VERTEX
8
GAP
10
5550.0
20
34502.857142857145
0
VERTEX
8
GAP
10
5550.0
20
34582.857142857145
0
VERTEX
8
GAP
10
5530.0
20
34582.857142857145
0
VERTEX
8
GAP
10
5530.0
20
34502.857142857145
0
VERTEX
8
GAP
10
5550.0
20
34502.857142857145
0
SEQEND
0
POLYLINE
8
GAP
66
1
10
0.0
20
0.0
30
0.0
0
VERTEX
8
GAP
10
4702.857142857142
20
48400.0
0
VERTEX
8
GAP
10
4782.857142857142
20
48400.0
0
VERTEX
8
GAP
10
4782.857142857142
20
48380.0
0
VERTEX
8
GAP
10
4702.857142857142
20
48380.0
0
VERTEX
8
GAP
10
4702.857142857142
20
48400.0
0
SEQEND
0
POLYLINE
8
GAP
66
1
10
0.0
20
0.0
30
0.0
0
VERTEX
8
GAP
10
4702.857142857142
20
-100.0
0
VERTEX
8
GAP
10
4782.857142857142
20
-100.0
0
VERTEX
8
GAP
10
4782.857142857142
20
-80.0
0
VERTEX
8
GAP
10
4702.857142857142
20
-80.0
0
VERTEX
8
GAP
10
4702.857142857142
20
-100.0
0
SEQEND
0
POLYLINE
8
GAP
66
1
10
0.0
20
0.0
30
0.0
0
VERTEX
8
GAP
10
-100.0
20
41431.42857142857
0
VERTEX
8
GAP
10
-100.0
20
41511.42857142857
0
VERTEX
8
GAP
10
-80.0
20
41511.42857142857
0
VERTEX
8
GAP
10
-80.0
20
41431.42857142857
0
VERTEX
8
GAP
10
-100.0
20
41431.42857142857
0
SEQEND
0
POLYLINE
8
GAP
66
1
10
0.0
20
0.0
30
0.0
0
VERTEX
8
GAP
10
5550.0
20
41431.42857142857
0
VERTEX
8
GAP
10
5550.0
20
41511.42857142857
0
VERTEX
8
GAP
10
5530.0
20
41511.42857142857
0
VERTEX
8
GAP
10
5530.0
20
41431.42857142857
0
VERTEX
8
GAP
10
5550.0
20
41431.42857142857
0
SEQEND
0
ENDBLK
0
ENDSEC
0
SECTION
2
ENTITIES
0
INSERT
2
C1BGAP
8
GAP
10
0
20
0
0
INSERT
2
C1BPIN
8
PIN
10
0
20
0
0
INSERT
2
C1B
8
0
10
0
20
0
0
ENDSEC
0
EOF
