0
SECTION
2
HEADER
9
$ACADVER
1
AC1006
9
$INSBASE
10
0.0
20
0.0
30
0.0
9
$EXTMIN
10
0.0
20
0.0
9
$EXTMAX
10
0.0
20
0.0
0
ENDSEC
0
SECTION
2
TABLES
0
TABLE
2
LTYPE
70
1
0
LTYPE
2
CONTINUOUS
70
64
3
Solid line
72
65
73
0
40
0.0
0
ENDTAB
0
TABLE
2
LAYER
70
3
0
LAYER
2
PYDXF
70
64
62
7
6
continuous
0
LAYER
2
GAP
70
64
62
1
6
continuous
0
LAYER
2
PIN
70
64
62
3
6
continuous
0
ENDTAB
0
TABLE
2
STYLE
70
1
0
STYLE
2
STANDARD
70
0
40
0
41
40
50
50
71
0
42
1
3
ARIAL.TTF
4

0
ENDTAB
0
TABLE
2
VIEW
70
0
0
ENDTAB
0
ENDSEC
0
SECTION
2
BLOCKS
0
BLOCK
8
GAP
2
C1DGAP
70
0
10
0
20
0
30
0
3
C1DGAP
0
POLYLINE
8
0
66
1
10
0.0
20
0.0
30
0.0
0
VERTEX
8
0
10
-1950.0
20
12170.0
0
VERTEX
8
0
10
-1950.0
20
12095.0
0
VERTEX
8
0
10
-1650.0
20
12095.0
0
VERTEX
8
0
10
-1650.0
20
12170.0
0
VERTEX
8
0
10
-1950.0
20
12170.0
0
SEQEND
0
POLYLINE
8
0
66
1
10
0.0
20
0.0
30
0.0
0
VERTEX
8
0
10
-1950.0
20
12095.0
0
VERTEX
8
0
10
-1950.0
20
11770.0
0
VERTEX
8
0
10
-1650.0
20
11770.0
0
VERTEX
8
0
10
-1650.0
20
12095.0
0
VERTEX
8
0
10
-1950.0
20
12095.0
0
SEQEND
0
POLYLINE
8
0
66
1
10
0.0
20
0.0
30
0.0
0
VERTEX
8
0
10
-1800.0
20
11770.0
0
VERTEX
8
0
10
-1800.0
20
11520.0
0
VERTEX
8
0
10
-1790.15831189058
20
11520.0
0
VERTEX
8
0
10
-1650.0
20
11770.0
0
VERTEX
8
0
10
-1800.0
20
11770.0
0
SEQEND
0
POLYLINE
8
0
66
1
10
0.0
20
0.0
30
0.0
0
VERTEX
8
0
10
-1800.0
20
11770.0
0
VERTEX
8
0
10
-1800.0
20
11520.0
0
VERTEX
8
0
10
-1809.84168810942
20
11520.0
0
VERTEX
8
0
10
-1950.0
20
11770.0
0
VERTEX
8
0
10
-1800.0
20
11770.0
0
SEQEND
0
POLYLINE
8
0
66
1
10
0.0
20
0.0
30
0.0
0
VERTEX
8
0
10
-1950.0
20
14425.0
0
VERTEX
8
0
10
-1950.0
20
14350.0
0
VERTEX
8
0
10
-1650.0
20
14350.0
0
VERTEX
8
0
10
-1650.0
20
14425.0
0
VERTEX
8
0
10
-1950.0
20
14425.0
0
SEQEND
0
POLYLINE
8
0
66
1
10
0.0
20
0.0
30
0.0
0
VERTEX
8
0
10
-1950.0
20
14350.0
0
VERTEX
8
0
10
-1950.0
20
14025.0
0
VERTEX
8
0
10
-1650.0
20
14025.0
0
VERTEX
8
0
10
-1650.0
20
14350.0
0
VERTEX
8
0
10
-1950.0
20
14350.0
0
SEQEND
0
POLYLINE
8
0
66
1
10
0.0
20
0.0
30
0.0
0
VERTEX
8
0
10
-1800.0
20
14025.0
0
VERTEX
8
0
10
-1800.0
20
13775.0
0
VERTEX
8
0
10
-1790.15831189058
20
13775.0
0
VERTEX
8
0
10
-1650.0
20
14025.0
0
VERTEX
8
0
10
-1800.0
20
14025.0
0
SEQEND
0
POLYLINE
8
0
66
1
10
0.0
20
0.0
30
0.0
0
VERTEX
8
0
10
-1800.0
20
14025.0
0
VERTEX
8
0
10
-1800.0
20
13775.0
0
VERTEX
8
0
10
-1809.84168810942
20
13775.0
0
VERTEX
8
0
10
-1950.0
20
14025.0
0
VERTEX
8
0
10
-1800.0
20
14025.0
0
SEQEND
0
POLYLINE
8
0
66
1
10
0.0
20
0.0
30
0.0
0
VERTEX
8
0
10
2900.0
20
25500.0
0
VERTEX
8
0
10
2825.0
20
25500.0
0
VERTEX
8
0
10
2825.0
20
25200.0
0
VERTEX
8
0
10
2900.0
20
25200.0
0
VERTEX
8
0
10
2900.0
20
25500.0
0
SEQEND
0
POLYLINE
8
0
66
1
10
0.0
20
0.0
30
0.0
0
VERTEX
8
0
10
2825.0
20
25500.0
0
VERTEX
8
0
10
2500.0
20
25500.0
0
VERTEX
8
0
10
2500.0
20
25200.0
0
VERTEX
8
0
10
2825.0
20
25200.0
0
VERTEX
8
0
10
2825.0
20
25500.0
0
SEQEND
0
POLYLINE
8
0
66
1
10
0.0
20
0.0
30
0.0
0
VERTEX
8
0
10
2500.0
20
25350.0
0
VERTEX
8
0
10
2250.0
20
25350.0
0
VERTEX
8
0
10
2250.0
20
25340.15831189058
0
VERTEX
8
0
10
2500.0
20
25200.0
0
VERTEX
8
0
10
2500.0
20
25350.0
0
SEQEND
0
POLYLINE
8
0
66
1
10
0.0
20
0.0
30
0.0
0
VERTEX
8
0
10
2500.0
20
25350.0
0
VERTEX
8
0
10
2250.0
20
25350.0
0
VERTEX
8
0
10
2250.0
20
25359.84168810942
0
VERTEX
8
0
10
2500.0
20
25500.0
0
VERTEX
8
0
10
2500.0
20
25350.0
0
SEQEND
0
POLYLINE
8
0
66
1
10
0.0
20
0.0
30
0.0
0
VERTEX
8
0
10
3250.0
20
14425.0
0
VERTEX
8
0
10
3250.0
20
14350.0
0
VERTEX
8
0
10
3550.0
20
14350.0
0
VERTEX
8
0
10
3550.0
20
14425.0
0
VERTEX
8
0
10
3250.0
20
14425.0
0
SEQEND
0
POLYLINE
8
0
66
1
10
0.0
20
0.0
30
0.0
0
VERTEX
8
0
10
3250.0
20
14350.0
0
VERTEX
8
0
10
3250.0
20
14025.0
0
VERTEX
8
0
10
3550.0
20
14025.0
0
VERTEX
8
0
10
3550.0
20
14350.0
0
VERTEX
8
0
10
3250.0
20
14350.0
0
SEQEND
0
POLYLINE
8
0
66
1
10
0.0
20
0.0
30
0.0
0
VERTEX
8
0
10
3400.0
20
14025.0
0
VERTEX
8
0
10
3400.0
20
13775.0
0
VERTEX
8
0
10
3409.84168810942
20
13775.0
0
VERTEX
8
0
10
3550.0
20
14025.0
0
VERTEX
8
0
10
3400.0
20
14025.0
0
SEQEND
0
POLYLINE
8
0
66
1
10
0.0
20
0.0
30
0.0
0
VERTEX
8
0
10
3400.0
20
14025.0
0
VERTEX
8
0
10
3400.0
20
13775.0
0
VERTEX
8
0
10
3390.15831189058
20
13775.0
0
VERTEX
8
0
10
3250.0
20
14025.0
0
VERTEX
8
0
10
3400.0
20
14025.0
0
SEQEND
0
POLYLINE
8
0
66
1
10
0.0
20
0.0
30
0.0
0
VERTEX
8
0
10
3250.0
20
12175.0
0
VERTEX
8
0
10
3250.0
20
12100.0
0
VERTEX
8
0
10
3550.0
20
12100.0
0
VERTEX
8
0
10
3550.0
20
12175.0
0
VERTEX
8
0
10
3250.0
20
12175.0
0
SEQEND
0
POLYLINE
8
0
66
1
10
0.0
20
0.0
30
0.0
0
VERTEX
8
0
10
3250.0
20
12100.0
0
VERTEX
8
0
10
3250.0
20
11775.0
0
VERTEX
8
0
10
3550.0
20
11775.0
0
VERTEX
8
0
10
3550.0
20
12100.0
0
VERTEX
8
0
10
3250.0
20
12100.0
0
SEQEND
0
POLYLINE
8
0
66
1
10
0.0
20
0.0
30
0.0
0
VERTEX
8
0
10
3400.0
20
11775.0
0
VERTEX
8
0
10
3400.0
20
11525.0
0
VERTEX
8
0
10
3409.84168810942
20
11525.0
0
VERTEX
8
0
10
3550.0
20
11775.0
0
VERTEX
8
0
10
3400.0
20
11775.0
0
SEQEND
0
POLYLINE
8
0
66
1
10
0.0
20
0.0
30
0.0
0
VERTEX
8
0
10
3400.0
20
11775.0
0
VERTEX
8
0
10
3400.0
20
11525.0
0
VERTEX
8
0
10
3390.15831189058
20
11525.0
0
VERTEX
8
0
10
3250.0
20
11775.0
0
VERTEX
8
0
10
3400.0
20
11775.0
0
SEQEND
0
POLYLINE
8
0
66
1
10
0.0
20
0.0
30
0.0
0
VERTEX
8
0
10
2900.0
20
950.0
0
VERTEX
8
0
10
2825.0
20
950.0
0
VERTEX
8
0
10
2825.0
20
650.0
0
VERTEX
8
0
10
2900.0
20
650.0
0
VERTEX
8
0
10
2900.0
20
950.0
0
SEQEND
0
POLYLINE
8
0
66
1
10
0.0
20
0.0
30
0.0
0
VERTEX
8
0
10
2825.0
20
950.0
0
VERTEX
8
0
10
2500.0
20
950.0
0
VERTEX
8
0
10
2500.0
20
650.0
0
VERTEX
8
0
10
2825.0
20
650.0
0
VERTEX
8
0
10
2825.0
20
950.0
0
SEQEND
0
POLYLINE
8
0
66
1
10
0.0
20
0.0
30
0.0
0
VERTEX
8
0
10
2500.0
20
800.0
0
VERTEX
8
0
10
2250.0
20
800.0
0
VERTEX
8
0
10
2250.0
20
790.1583118905806
0
VERTEX
8
0
10
2500.0
20
650.0
0
VERTEX
8
0
10
2500.0
20
800.0
0
SEQEND
0
POLYLINE
8
0
66
1
10
0.0
20
0.0
30
0.0
0
VERTEX
8
0
10
2500.0
20
800.0
0
VERTEX
8
0
10
2250.0
20
800.0
0
VERTEX
8
0
10
2250.0
20
809.8416881094194
0
VERTEX
8
0
10
2500.0
20
950.0
0
VERTEX
8
0
10
2500.0
20
800.0
0
SEQEND
0
POLYLINE
8
0
66
1
10
0.0
20
0.0
30
0.0
0
VERTEX
8
0
10
-1300.0
20
650.0
0
VERTEX
8
0
10
-1225.0
20
650.0
0
VERTEX
8
0
10
-1225.0
20
950.0
0
VERTEX
8
0
10
-1300.0
20
950.0
0
VERTEX
8
0
10
-1300.0
20
650.0
0
SEQEND
0
POLYLINE
8
0
66
1
10
0.0
20
0.0
30
0.0
0
VERTEX
8
0
10
-1225.0
20
650.0
0
VERTEX
8
0
10
-900.0
20
650.0
0
VERTEX
8
0
10
-900.0
20
950.0
0
VERTEX
8
0
10
-1225.0
20
950.0
0
VERTEX
8
0
10
-1225.0
20
650.0
0
SEQEND
0
POLYLINE
8
0
66
1
10
0.0
20
0.0
30
0.0
0
VERTEX
8
0
10
-900.0
20
800.0
0
VERTEX
8
0
10
-650.0
20
800.0
0
VERTEX
8
0
10
-650.0
20
809.8416881094194
0
VERTEX
8
0
10
-900.0
20
950.0
0
VERTEX
8
0
10
-900.0
20
800.0
0
SEQEND
0
POLYLINE
8
0
66
1
10
0.0
20
0.0
30
0.0
0
VERTEX
8
0
10
-900.0
20
800.0
0
VERTEX
8
0
10
-650.0
20
800.0
0
VERTEX
8
0
10
-650.0
20
790.1583118905806
0
VERTEX
8
0
10
-900.0
20
650.0
0
VERTEX
8
0
10
-900.0
20
800.0
0
SEQEND
0
POLYLINE
8
0
66
1
10
0.0
20
0.0
30
0.0
0
VERTEX
8
0
10
-1950.0
20
12170.0
0
VERTEX
8
0
10
-1950.0
20
12095.0
0
VERTEX
8
0
10
-1650.0
20
12095.0
0
VERTEX
8
0
10
-1650.0
20
12170.0
0
VERTEX
8
0
10
-1950.0
20
12170.0
0
SEQEND
0
POLYLINE
8
0
66
1
10
0.0
20
0.0
30
0.0
0
VERTEX
8
0
10
-1950.0
20
12095.0
0
VERTEX
8
0
10
-1950.0
20
11770.0
0
VERTEX
8
0
10
-1650.0
20
11770.0
0
VERTEX
8
0
10
-1650.0
20
12095.0
0
VERTEX
8
0
10
-1950.0
20
12095.0
0
SEQEND
0
POLYLINE
8
0
66
1
10
0.0
20
0.0
30
0.0
0
VERTEX
8
0
10
-1800.0
20
11770.0
0
VERTEX
8
0
10
-1800.0
20
11520.0
0
VERTEX
8
0
10
-1790.15831189058
20
11520.0
0
VERTEX
8
0
10
-1650.0
20
11770.0
0
VERTEX
8
0
10
-1800.0
20
11770.0
0
SEQEND
0
POLYLINE
8
0
66
1
10
0.0
20
0.0
30
0.0
0
VERTEX
8
0
10
-1800.0
20
11770.0
0
VERTEX
8
0
10
-1800.0
20
11520.0
0
VERTEX
8
0
10
-1809.84168810942
20
11520.0
0
VERTEX
8
0
10
-1950.0
20
11770.0
0
VERTEX
8
0
10
-1800.0
20
11770.0
0
SEQEND
0
POLYLINE
8
0
66
1
10
0.0
20
0.0
30
0.0
0
VERTEX
8
0
10
-1950.0
20
14425.0
0
VERTEX
8
0
10
-1950.0
20
14350.0
0
VERTEX
8
0
10
-1650.0
20
14350.0
0
VERTEX
8
0
10
-1650.0
20
14425.0
0
VERTEX
8
0
10
-1950.0
20
14425.0
0
SEQEND
0
POLYLINE
8
0
66
1
10
0.0
20
0.0
30
0.0
0
VERTEX
8
0
10
-1950.0
20
14350.0
0
VERTEX
8
0
10
-1950.0
20
14025.0
0
VERTEX
8
0
10
-1650.0
20
14025.0
0
VERTEX
8
0
10
-1650.0
20
14350.0
0
VERTEX
8
0
10
-1950.0
20
14350.0
0
SEQEND
0
POLYLINE
8
0
66
1
10
0.0
20
0.0
30
0.0
0
VERTEX
8
0
10
-1800.0
20
14025.0
0
VERTEX
8
0
10
-1800.0
20
13775.0
0
VERTEX
8
0
10
-1790.15831189058
20
13775.0
0
VERTEX
8
0
10
-1650.0
20
14025.0
0
VERTEX
8
0
10
-1800.0
20
14025.0
0
SEQEND
0
POLYLINE
8
0
66
1
10
0.0
20
0.0
30
0.0
0
VERTEX
8
0
10
-1800.0
20
14025.0
0
VERTEX
8
0
10
-1800.0
20
13775.0
0
VERTEX
8
0
10
-1809.84168810942
20
13775.0
0
VERTEX
8
0
10
-1950.0
20
14025.0
0
VERTEX
8
0
10
-1800.0
20
14025.0
0
SEQEND
0
POLYLINE
8
0
66
1
10
0.0
20
0.0
30
0.0
0
VERTEX
8
0
10
2900.0
20
25500.0
0
VERTEX
8
0
10
2825.0
20
25500.0
0
VERTEX
8
0
10
2825.0
20
25200.0
0
VERTEX
8
0
10
2900.0
20
25200.0
0
VERTEX
8
0
10
2900.0
20
25500.0
0
SEQEND
0
POLYLINE
8
0
66
1
10
0.0
20
0.0
30
0.0
0
VERTEX
8
0
10
2825.0
20
25500.0
0
VERTEX
8
0
10
2500.0
20
25500.0
0
VERTEX
8
0
10
2500.0
20
25200.0
0
VERTEX
8
0
10
2825.0
20
25200.0
0
VERTEX
8
0
10
2825.0
20
25500.0
0
SEQEND
0
POLYLINE
8
0
66
1
10
0.0
20
0.0
30
0.0
0
VERTEX
8
0
10
2500.0
20
25350.0
0
VERTEX
8
0
10
2250.0
20
25350.0
0
VERTEX
8
0
10
2250.0
20
25340.15831189058
0
VERTEX
8
0
10
2500.0
20
25200.0
0
VERTEX
8
0
10
2500.0
20
25350.0
0
SEQEND
0
POLYLINE
8
0
66
1
10
0.0
20
0.0
30
0.0
0
VERTEX
8
0
10
2500.0
20
25350.0
0
VERTEX
8
0
10
2250.0
20
25350.0
0
VERTEX
8
0
10
2250.0
20
25359.84168810942
0
VERTEX
8
0
10
2500.0
20
25500.0
0
VERTEX
8
0
10
2500.0
20
25350.0
0
SEQEND
0
POLYLINE
8
0
66
1
10
0.0
20
0.0
30
0.0
0
VERTEX
8
0
10
3250.0
20
14425.0
0
VERTEX
8
0
10
3250.0
20
14350.0
0
VERTEX
8
0
10
3550.0
20
14350.0
0
VERTEX
8
0
10
3550.0
20
14425.0
0
VERTEX
8
0
10
3250.0
20
14425.0
0
SEQEND
0
POLYLINE
8
0
66
1
10
0.0
20
0.0
30
0.0
0
VERTEX
8
0
10
3250.0
20
14350.0
0
VERTEX
8
0
10
3250.0
20
14025.0
0
VERTEX
8
0
10
3550.0
20
14025.0
0
VERTEX
8
0
10
3550.0
20
14350.0
0
VERTEX
8
0
10
3250.0
20
14350.0
0
SEQEND
0
POLYLINE
8
0
66
1
10
0.0
20
0.0
30
0.0
0
VERTEX
8
0
10
3400.0
20
14025.0
0
VERTEX
8
0
10
3400.0
20
13775.0
0
VERTEX
8
0
10
3409.84168810942
20
13775.0
0
VERTEX
8
0
10
3550.0
20
14025.0
0
VERTEX
8
0
10
3400.0
20
14025.0
0
SEQEND
0
POLYLINE
8
0
66
1
10
0.0
20
0.0
30
0.0
0
VERTEX
8
0
10
3400.0
20
14025.0
0
VERTEX
8
0
10
3400.0
20
13775.0
0
VERTEX
8
0
10
3390.15831189058
20
13775.0
0
VERTEX
8
0
10
3250.0
20
14025.0
0
VERTEX
8
0
10
3400.0
20
14025.0
0
SEQEND
0
POLYLINE
8
0
66
1
10
0.0
20
0.0
30
0.0
0
VERTEX
8
0
10
3250.0
20
12175.0
0
VERTEX
8
0
10
3250.0
20
12100.0
0
VERTEX
8
0
10
3550.0
20
12100.0
0
VERTEX
8
0
10
3550.0
20
12175.0
0
VERTEX
8
0
10
3250.0
20
12175.0
0
SEQEND
0
POLYLINE
8
0
66
1
10
0.0
20
0.0
30
0.0
0
VERTEX
8
0
10
3250.0
20
12100.0
0
VERTEX
8
0
10
3250.0
20
11775.0
0
VERTEX
8
0
10
3550.0
20
11775.0
0
VERTEX
8
0
10
3550.0
20
12100.0
0
VERTEX
8
0
10
3250.0
20
12100.0
0
SEQEND
0
POLYLINE
8
0
66
1
10
0.0
20
0.0
30
0.0
0
VERTEX
8
0
10
3400.0
20
11775.0
0
VERTEX
8
0
10
3400.0
20
11525.0
0
VERTEX
8
0
10
3409.84168810942
20
11525.0
0
VERTEX
8
0
10
3550.0
20
11775.0
0
VERTEX
8
0
10
3400.0
20
11775.0
0
SEQEND
0
POLYLINE
8
0
66
1
10
0.0
20
0.0
30
0.0
0
VERTEX
8
0
10
3400.0
20
11775.0
0
VERTEX
8
0
10
3400.0
20
11525.0
0
VERTEX
8
0
10
3390.15831189058
20
11525.0
0
VERTEX
8
0
10
3250.0
20
11775.0
0
VERTEX
8
0
10
3400.0
20
11775.0
0
SEQEND
0
POLYLINE
8
0
66
1
10
0.0
20
0.0
30
0.0
0
VERTEX
8
0
10
2900.0
20
950.0
0
VERTEX
8
0
10
2825.0
20
950.0
0
VERTEX
8
0
10
2825.0
20
650.0
0
VERTEX
8
0
10
2900.0
20
650.0
0
VERTEX
8
0
10
2900.0
20
950.0
0
SEQEND
0
POLYLINE
8
0
66
1
10
0.0
20
0.0
30
0.0
0
VERTEX
8
0
10
2825.0
20
950.0
0
VERTEX
8
0
10
2500.0
20
950.0
0
VERTEX
8
0
10
2500.0
20
650.0
0
VERTEX
8
0
10
2825.0
20
650.0
0
VERTEX
8
0
10
2825.0
20
950.0
0
SEQEND
0
POLYLINE
8
0
66
1
10
0.0
20
0.0
30
0.0
0
VERTEX
8
0
10
2500.0
20
800.0
0
VERTEX
8
0
10
2250.0
20
800.0
0
VERTEX
8
0
10
2250.0
20
790.1583118905806
0
VERTEX
8
0
10
2500.0
20
650.0
0
VERTEX
8
0
10
2500.0
20
800.0
0
SEQEND
0
POLYLINE
8
0
66
1
10
0.0
20
0.0
30
0.0
0
VERTEX
8
0
10
2500.0
20
800.0
0
VERTEX
8
0
10
2250.0
20
800.0
0
VERTEX
8
0
10
2250.0
20
809.8416881094194
0
VERTEX
8
0
10
2500.0
20
950.0
0
VERTEX
8
0
10
2500.0
20
800.0
0
SEQEND
0
POLYLINE
8
0
66
1
10
0.0
20
0.0
30
0.0
0
VERTEX
8
0
10
-1300.0
20
650.0
0
VERTEX
8
0
10
-1225.0
20
650.0
0
VERTEX
8
0
10
-1225.0
20
950.0
0
VERTEX
8
0
10
-1300.0
20
950.0
0
VERTEX
8
0
10
-1300.0
20
650.0
0
SEQEND
0
POLYLINE
8
0
66
1
10
0.0
20
0.0
30
0.0
0
VERTEX
8
0
10
-1225.0
20
650.0
0
VERTEX
8
0
10
-900.0
20
650.0
0
VERTEX
8
0
10
-900.0
20
950.0
0
VERTEX
8
0
10
-1225.0
20
950.0
0
VERTEX
8
0
10
-1225.0
20
650.0
0
SEQEND
0
POLYLINE
8
0
66
1
10
0.0
20
0.0
30
0.0
0
VERTEX
8
0
10
-900.0
20
800.0
0
VERTEX
8
0
10
-650.0
20
800.0
0
VERTEX
8
0
10
-650.0
20
809.8416881094194
0
VERTEX
8
0
10
-900.0
20
950.0
0
VERTEX
8
0
10
-900.0
20
800.0
0
SEQEND
0
POLYLINE
8
0
66
1
10
0.0
20
0.0
30
0.0
0
VERTEX
8
0
10
-900.0
20
800.0
0
VERTEX
8
0
10
-650.0
20
800.0
0
VERTEX
8
0
10
-650.0
20
790.1583118905806
0
VERTEX
8
0
10
-900.0
20
650.0
0
VERTEX
8
0
10
-900.0
20
800.0
0
SEQEND
0
POLYLINE
8
0
66
1
10
0.0
20
0.0
30
0.0
0
VERTEX
8
0
10
810.2000000000007
20
21164.8
0
VERTEX
8
0
10
810.2000000000007
20
21165.0
0
VERTEX
8
0
10
769.7999999999993
20
21165.0
0
VERTEX
8
0
10
769.7999999999993
20
21164.8
0
VERTEX
8
0
10
810.2000000000007
20
21164.8
0
SEQEND
0
POLYLINE
8
0
66
1
10
0.0
20
0.0
30
0.0
0
VERTEX
8
0
10
770.0
20
21165.0
0
VERTEX
8
0
10
770.0
20
21180.0
0
VERTEX
8
0
10
769.7999999999993
20
21180.0
0
VERTEX
8
0
10
769.7999999999993
20
21165.0
0
VERTEX
8
0
10
770.0
20
21165.0
0
SEQEND
0
POLYLINE
8
0
66
1
10
0.0
20
0.0
30
0.0
0
VERTEX
8
0
10
810.0
20
21165.0
0
VERTEX
8
0
10
810.0
20
21180.0
0
VERTEX
8
0
10
810.2000000000007
20
21180.0
0
VERTEX
8
0
10
810.2000000000007
20
21165.0
0
VERTEX
8
0
10
810.0
20
21165.0
0
SEQEND
0
POLYLINE
8
0
66
1
10
0.0
20
0.0
30
0.0
0
VERTEX
8
0
10
770.0
20
21180.0
0
VERTEX
8
0
10
787.5
20
21190.0
0
VERTEX
8
0
10
787.2999999999993
20
21190.0
0
VERTEX
8
0
10
769.7999999999993
20
21180.0
0
VERTEX
8
0
10
770.0
20
21180.0
0
SEQEND
0
POLYLINE
8
0
66
1
10
0.0
20
0.0
30
0.0
0
VERTEX
8
0
10
810.0
20
21180.0
0
VERTEX
8
0
10
792.5
20
21190.0
0
VERTEX
8
0
10
792.7000000000007
20
21190.0
0
VERTEX
8
0
10
810.2000000000007
20
21180.0
0
VERTEX
8
0
10
810.0
20
21180.0
0
SEQEND
0
POLYLINE
8
0
66
1
10
0.0
20
0.0
30
0.0
0
VERTEX
8
0
10
787.5
20
21190.0
0
VERTEX
8
0
10
787.5
20
21192.0
0
VERTEX
8
0
10
787.2999999999993
20
21192.0
0
VERTEX
8
0
10
787.2999999999993
20
21190.0
0
VERTEX
8
0
10
787.5
20
21190.0
0
SEQEND
0
POLYLINE
8
0
66
1
10
0.0
20
0.0
30
0.0
0
VERTEX
8
0
10
792.5
20
21190.0
0
VERTEX
8
0
10
792.5
20
21192.0
0
VERTEX
8
0
10
792.7000000000007
20
21192.0
0
VERTEX
8
0
10
792.7000000000007
20
21190.0
0
VERTEX
8
0
10
792.5
20
21190.0
0
SEQEND
0
POLYLINE
8
0
66
1
10
0.0
20
0.0
30
0.0
0
VERTEX
8
0
10
787.3
20
21192.0
0
VERTEX
8
0
10
788.3316043908599
20
21195.85
0
VERTEX
8
0
10
791.15
20
21198.66839560914
0
VERTEX
8
0
10
795.0
20
21199.7
0
VERTEX
8
0
10
795.0
20
21199.5
0
VERTEX
8
0
10
791.25
20
21198.49519052838
0
VERTEX
8
0
10
788.5048094716167
20
21195.75
0
VERTEX
8
0
10
787.5
20
21192.0
0
VERTEX
8
0
10
787.3
20
21192.0
0
SEQEND
0
POLYLINE
8
0
66
1
10
0.0
20
0.0
30
0.0
0
VERTEX
8
0
10
792.5
20
21192.0
0
VERTEX
8
0
10
792.8349364905389
20
21193.25
0
VERTEX
8
0
10
793.75
20
21194.16506350946
0
VERTEX
8
0
10
795.0
20
21194.5
0
VERTEX
8
0
10
795.0
20
21194.3
0
VERTEX
8
0
10
793.85
20
21193.991858428704
0
VERTEX
8
0
10
793.0081415712958
20
21193.15
0
VERTEX
8
0
10
792.7
20
21192.0
0
VERTEX
8
0
10
792.5
20
21192.0
0
SEQEND
0
POLYLINE
8
0
66
1
10
0.0
20
0.0
30
0.0
0
VERTEX
8
0
10
795.0
20
21199.5
0
VERTEX
8
0
10
797.0
20
21199.5
0
VERTEX
8
0
10
797.0
20
21199.7
0
VERTEX
8
0
10
795.0
20
21199.7
0
VERTEX
8
0
10
795.0
20
21199.5
0
SEQEND
0
POLYLINE
8
0
66
1
10
0.0
20
0.0
30
0.0
0
VERTEX
8
0
10
795.0
20
21194.5
0
VERTEX
8
0
10
797.0
20
21194.5
0
VERTEX
8
0
10
797.0
20
21194.3
0
VERTEX
8
0
10
795.0
20
21194.3
0
VERTEX
8
0
10
795.0
20
21194.5
0
SEQEND
0
POLYLINE
8
0
66
1
10
0.0
20
0.0
30
0.0
0
VERTEX
8
0
10
797.0
20
21199.5
0
VERTEX
8
0
10
799.0
20
21197.125
0
VERTEX
8
0
10
799.0
20
21197.325
0
VERTEX
8
0
10
797.0
20
21199.7
0
VERTEX
8
0
10
797.0
20
21199.5
0
SEQEND
0
POLYLINE
8
0
66
1
10
0.0
20
0.0
30
0.0
0
VERTEX
8
0
10
797.0
20
21194.5
0
VERTEX
8
0
10
799.0
20
21196.875
0
VERTEX
8
0
10
799.0
20
21196.675
0
VERTEX
8
0
10
797.0
20
21194.3
0
VERTEX
8
0
10
797.0
20
21194.5
0
SEQEND
0
POLYLINE
8
0
66
1
10
0.0
20
0.0
30
0.0
0
VERTEX
8
0
10
799.0
20
21197.125
0
VERTEX
8
0
10
801.0
20
21197.125
0
VERTEX
8
0
10
801.0
20
21197.325
0
VERTEX
8
0
10
799.0
20
21197.325
0
VERTEX
8
0
10
799.0
20
21197.125
0
SEQEND
0
POLYLINE
8
0
66
1
10
0.0
20
0.0
30
0.0
0
VERTEX
8
0
10
799.0
20
21196.875
0
VERTEX
8
0
10
801.0
20
21196.875
0
VERTEX
8
0
10
801.0
20
21196.675
0
VERTEX
8
0
10
799.0
20
21196.675
0
VERTEX
8
0
10
799.0
20
21196.875
0
SEQEND
0
POLYLINE
8
0
66
1
10
0.0
20
0.0
30
0.0
0
VERTEX
8
0
10
801.0
20
21194.3
0
VERTEX
8
0
10
801.15
20
21194.3
0
VERTEX
8
0
10
801.15
20
21199.7
0
VERTEX
8
0
10
801.0
20
21199.7
0
VERTEX
8
0
10
801.0
20
21194.3
0
SEQEND
0
POLYLINE
8
0
66
1
10
0.0
20
0.0
30
0.0
0
VERTEX
8
0
10
801.15
20
21199.5
0
VERTEX
8
0
10
803.15
20
21199.5
0
VERTEX
8
0
10
803.15
20
21199.7
0
VERTEX
8
0
10
801.15
20
21199.7
0
VERTEX
8
0
10
801.15
20
21199.5
0
SEQEND
0
POLYLINE
8
0
66
1
10
0.0
20
0.0
30
0.0
0
VERTEX
8
0
10
801.15
20
21194.5
0
VERTEX
8
0
10
803.15
20
21194.5
0
VERTEX
8
0
10
803.15
20
21194.3
0
VERTEX
8
0
10
801.15
20
21194.3
0
VERTEX
8
0
10
801.15
20
21194.5
0
SEQEND
0
POLYLINE
8
0
66
1
10
0.0
20
0.0
30
0.0
0
VERTEX
8
0
10
803.15
20
21194.3
0
VERTEX
8
0
10
807.0
20
21195.33160439086
0
VERTEX
8
0
10
809.8183956091401
20
21198.15
0
VERTEX
8
0
10
810.85
20
21202.0
0
VERTEX
8
0
10
810.65
20
21202.0
0
VERTEX
8
0
10
809.6451905283833
20
21198.25
0
VERTEX
8
0
10
806.9
20
21195.50480947162
0
VERTEX
8
0
10
803.15
20
21194.5
0
VERTEX
8
0
10
803.15
20
21194.3
0
SEQEND
0
POLYLINE
8
0
66
1
10
0.0
20
0.0
30
0.0
0
VERTEX
8
0
10
803.15
20
21199.5
0
VERTEX
8
0
10
804.4
20
21199.83493649054
0
VERTEX
8
0
10
805.3150635094611
20
21200.75
0
VERTEX
8
0
10
805.65
20
21202.0
0
VERTEX
8
0
10
805.4499999999999
20
21202.0
0
VERTEX
8
0
10
805.1418584287042
20
21200.85
0
VERTEX
8
0
10
804.3
20
21200.008141571296
0
VERTEX
8
0
10
803.15
20
21199.7
0
VERTEX
8
0
10
803.15
20
21199.5
0
SEQEND
0
POLYLINE
8
0
66
1
10
0.0
20
0.0
30
0.0
0
VERTEX
8
0
10
805.65
20
21202.0
0
VERTEX
8
0
10
805.65
20
21204.0
0
VERTEX
8
0
10
805.4499999999992
20
21204.0
0
VERTEX
8
0
10
805.4499999999992
20
21202.0
0
VERTEX
8
0
10
805.65
20
21202.0
0
SEQEND
0
POLYLINE
8
0
66
1
10
0.0
20
0.0
30
0.0
0
VERTEX
8
0
10
810.65
20
21202.0
0
VERTEX
8
0
10
810.65
20
21204.0
0
VERTEX
8
0
10
810.8500000000007
20
21204.0
0
VERTEX
8
0
10
810.8500000000007
20
21202.0
0
VERTEX
8
0
10
810.65
20
21202.0
0
SEQEND
0
POLYLINE
8
0
66
1
10
0.0
20
0.0
30
0.0
0
VERTEX
8
0
10
805.65
20
21204.0
0
VERTEX
8
0
10
788.15
20
21214.0
0
VERTEX
8
0
10
787.9499999999992
20
21214.0
0
VERTEX
8
0
10
805.4499999999992
20
21204.0
0
VERTEX
8
0
10
805.65
20
21204.0
0
SEQEND
0
POLYLINE
8
0
66
1
10
0.0
20
0.0
30
0.0
0
VERTEX
8
0
10
810.65
20
21204.0
0
VERTEX
8
0
10
828.15
20
21214.0
0
VERTEX
8
0
10
828.3500000000007
20
21214.0
0
VERTEX
8
0
10
810.8500000000007
20
21204.0
0
VERTEX
8
0
10
810.65
20
21204.0
0
SEQEND
0
POLYLINE
8
0
66
1
10
0.0
20
0.0
30
0.0
0
VERTEX
8
0
10
788.15
20
21214.0
0
VERTEX
8
0
10
788.15
20
21229.0
0
VERTEX
8
0
10
787.9499999999992
20
21229.0
0
VERTEX
8
0
10
787.9499999999992
20
21214.0
0
VERTEX
8
0
10
788.15
20
21214.0
0
SEQEND
0
POLYLINE
8
0
66
1
10
0.0
20
0.0
30
0.0
0
VERTEX
8
0
10
828.15
20
21214.0
0
VERTEX
8
0
10
828.15
20
21229.0
0
VERTEX
8
0
10
828.3500000000007
20
21229.0
0
VERTEX
8
0
10
828.3500000000007
20
21214.0
0
VERTEX
8
0
10
828.15
20
21214.0
0
SEQEND
0
POLYLINE
8
0
66
1
10
0.0
20
0.0
30
0.0
0
VERTEX
8
0
10
828.3500000000007
20
21229.0
0
VERTEX
8
0
10
828.3500000000007
20
21229.2
0
VERTEX
8
0
10
787.9499999999992
20
21229.2
0
VERTEX
8
0
10
787.9499999999992
20
21229.0
0
VERTEX
8
0
10
828.3500000000007
20
21229.0
0
SEQEND
0
POLYLINE
8
0
66
1
10
0.0
20
0.0
30
0.0
0
VERTEX
8
0
10
810.1999999999998
20
2254.8
0
VERTEX
8
0
10
810.1999999999998
20
2255.0
0
VERTEX
8
0
10
769.8000000000002
20
2255.0
0
VERTEX
8
0
10
769.8000000000002
20
2254.8
0
VERTEX
8
0
10
810.1999999999998
20
2254.8
0
SEQEND
0
POLYLINE
8
0
66
1
10
0.0
20
0.0
30
0.0
0
VERTEX
8
0
10
770.0
20
2255.0
0
VERTEX
8
0
10
770.0
20
2270.0
0
VERTEX
8
0
10
769.8000000000002
20
2270.0
0
VERTEX
8
0
10
769.8000000000002
20
2255.0
0
VERTEX
8
0
10
770.0
20
2255.0
0
SEQEND
0
POLYLINE
8
0
66
1
10
0.0
20
0.0
30
0.0
0
VERTEX
8
0
10
810.0
20
2255.0
0
VERTEX
8
0
10
810.0
20
2270.0
0
VERTEX
8
0
10
810.1999999999998
20
2270.0
0
VERTEX
8
0
10
810.1999999999998
20
2255.0
0
VERTEX
8
0
10
810.0
20
2255.0
0
SEQEND
0
POLYLINE
8
0
66
1
10
0.0
20
0.0
30
0.0
0
VERTEX
8
0
10
770.0
20
2270.0
0
VERTEX
8
0
10
787.5
20
2280.0
0
VERTEX
8
0
10
787.3000000000002
20
2280.0
0
VERTEX
8
0
10
769.8000000000002
20
2270.0
0
VERTEX
8
0
10
770.0
20
2270.0
0
SEQEND
0
POLYLINE
8
0
66
1
10
0.0
20
0.0
30
0.0
0
VERTEX
8
0
10
810.0
20
2270.0
0
VERTEX
8
0
10
792.5
20
2280.0
0
VERTEX
8
0
10
792.6999999999998
20
2280.0
0
VERTEX
8
0
10
810.1999999999998
20
2270.0
0
VERTEX
8
0
10
810.0
20
2270.0
0
SEQEND
0
POLYLINE
8
0
66
1
10
0.0
20
0.0
30
0.0
0
VERTEX
8
0
10
787.5
20
2280.0
0
VERTEX
8
0
10
787.5
20
2282.0
0
VERTEX
8
0
10
787.3000000000002
20
2282.0
0
VERTEX
8
0
10
787.3000000000002
20
2280.0
0
VERTEX
8
0
10
787.5
20
2280.0
0
SEQEND
0
POLYLINE
8
0
66
1
10
0.0
20
0.0
30
0.0
0
VERTEX
8
0
10
792.5
20
2280.0
0
VERTEX
8
0
10
792.5
20
2282.0
0
VERTEX
8
0
10
792.6999999999998
20
2282.0
0
VERTEX
8
0
10
792.6999999999998
20
2280.0
0
VERTEX
8
0
10
792.5
20
2280.0
0
SEQEND
0
POLYLINE
8
0
66
1
10
0.0
20
0.0
30
0.0
0
VERTEX
8
0
10
787.3
20
2282.0
0
VERTEX
8
0
10
788.3316043908599
20
2285.85
0
VERTEX
8
0
10
791.15
20
2288.66839560914
0
VERTEX
8
0
10
795.0
20
2289.7
0
VERTEX
8
0
10
795.0
20
2289.5
0
VERTEX
8
0
10
791.25
20
2288.4951905283833
0
VERTEX
8
0
10
788.5048094716167
20
2285.75
0
VERTEX
8
0
10
787.5
20
2282.0
0
VERTEX
8
0
10
787.3
20
2282.0
0
SEQEND
0
POLYLINE
8
0
66
1
10
0.0
20
0.0
30
0.0
0
VERTEX
8
0
10
792.5
20
2282.0
0
VERTEX
8
0
10
792.8349364905389
20
2283.25
0
VERTEX
8
0
10
793.75
20
2284.165063509461
0
VERTEX
8
0
10
795.0
20
2284.5
0
VERTEX
8
0
10
795.0
20
2284.3
0
VERTEX
8
0
10
793.85
20
2283.9918584287043
0
VERTEX
8
0
10
793.0081415712958
20
2283.15
0
VERTEX
8
0
10
792.7
20
2282.0
0
VERTEX
8
0
10
792.5
20
2282.0
0
SEQEND
0
POLYLINE
8
0
66
1
10
0.0
20
0.0
30
0.0
0
VERTEX
8
0
10
795.0
20
2289.5
0
VERTEX
8
0
10
797.0
20
2289.5
0
VERTEX
8
0
10
797.0
20
2289.7
0
VERTEX
8
0
10
795.0
20
2289.7
0
VERTEX
8
0
10
795.0
20
2289.5
0
SEQEND
0
POLYLINE
8
0
66
1
10
0.0
20
0.0
30
0.0
0
VERTEX
8
0
10
795.0
20
2284.5
0
VERTEX
8
0
10
797.0
20
2284.5
0
VERTEX
8
0
10
797.0
20
2284.3
0
VERTEX
8
0
10
795.0
20
2284.3
0
VERTEX
8
0
10
795.0
20
2284.5
0
SEQEND
0
POLYLINE
8
0
66
1
10
0.0
20
0.0
30
0.0
0
VERTEX
8
0
10
797.0
20
2289.5
0
VERTEX
8
0
10
799.0
20
2287.125
0
VERTEX
8
0
10
799.0
20
2287.325
0
VERTEX
8
0
10
797.0
20
2289.7
0
VERTEX
8
0
10
797.0
20
2289.5
0
SEQEND
0
POLYLINE
8
0
66
1
10
0.0
20
0.0
30
0.0
0
VERTEX
8
0
10
797.0
20
2284.5
0
VERTEX
8
0
10
799.0
20
2286.875
0
VERTEX
8
0
10
799.0
20
2286.675
0
VERTEX
8
0
10
797.0
20
2284.3
0
VERTEX
8
0
10
797.0
20
2284.5
0
SEQEND
0
POLYLINE
8
0
66
1
10
0.0
20
0.0
30
0.0
0
VERTEX
8
0
10
799.0
20
2287.125
0
VERTEX
8
0
10
801.0
20
2287.125
0
VERTEX
8
0
10
801.0
20
2287.325
0
VERTEX
8
0
10
799.0
20
2287.325
0
VERTEX
8
0
10
799.0
20
2287.125
0
SEQEND
0
POLYLINE
8
0
66
1
10
0.0
20
0.0
30
0.0
0
VERTEX
8
0
10
799.0
20
2286.875
0
VERTEX
8
0
10
801.0
20
2286.875
0
VERTEX
8
0
10
801.0
20
2286.675
0
VERTEX
8
0
10
799.0
20
2286.675
0
VERTEX
8
0
10
799.0
20
2286.875
0
SEQEND
0
POLYLINE
8
0
66
1
10
0.0
20
0.0
30
0.0
0
VERTEX
8
0
10
801.0
20
2284.3
0
VERTEX
8
0
10
801.15
20
2284.3
0
VERTEX
8
0
10
801.15
20
2289.7
0
VERTEX
8
0
10
801.0
20
2289.7
0
VERTEX
8
0
10
801.0
20
2284.3
0
SEQEND
0
POLYLINE
8
0
66
1
10
0.0
20
0.0
30
0.0
0
VERTEX
8
0
10
801.15
20
2289.5
0
VERTEX
8
0
10
803.15
20
2289.5
0
VERTEX
8
0
10
803.15
20
2289.7
0
VERTEX
8
0
10
801.15
20
2289.7
0
VERTEX
8
0
10
801.15
20
2289.5
0
SEQEND
0
POLYLINE
8
0
66
1
10
0.0
20
0.0
30
0.0
0
VERTEX
8
0
10
801.15
20
2284.5
0
VERTEX
8
0
10
803.15
20
2284.5
0
VERTEX
8
0
10
803.15
20
2284.3
0
VERTEX
8
0
10
801.15
20
2284.3
0
VERTEX
8
0
10
801.15
20
2284.5
0
SEQEND
0
POLYLINE
8
0
66
1
10
0.0
20
0.0
30
0.0
0
VERTEX
8
0
10
803.15
20
2284.3
0
VERTEX
8
0
10
807.0
20
2285.33160439086
0
VERTEX
8
0
10
809.8183956091401
20
2288.15
0
VERTEX
8
0
10
810.85
20
2292.0
0
VERTEX
8
0
10
810.65
20
2292.0
0
VERTEX
8
0
10
809.6451905283833
20
2288.25
0
VERTEX
8
0
10
806.9
20
2285.5048094716167
0
VERTEX
8
0
10
803.15
20
2284.5
0
VERTEX
8
0
10
803.15
20
2284.3
0
SEQEND
0
POLYLINE
8
0
66
1
10
0.0
20
0.0
30
0.0
0
VERTEX
8
0
10
803.15
20
2289.5
0
VERTEX
8
0
10
804.4
20
2289.834936490539
0
VERTEX
8
0
10
805.3150635094611
20
2290.75
0
VERTEX
8
0
10
805.65
20
2292.0
0
VERTEX
8
0
10
805.4499999999999
20
2292.0
0
VERTEX
8
0
10
805.1418584287042
20
2290.85
0
VERTEX
8
0
10
804.3
20
2290.0081415712957
0
VERTEX
8
0
10
803.15
20
2289.7
0
VERTEX
8
0
10
803.15
20
2289.5
0
SEQEND
0
POLYLINE
8
0
66
1
10
0.0
20
0.0
30
0.0
0
VERTEX
8
0
10
805.65
20
2292.0
0
VERTEX
8
0
10
805.65
20
2294.0
0
VERTEX
8
0
10
805.4500000000002
20
2294.0
0
VERTEX
8
0
10
805.4500000000002
20
2292.0
0
VERTEX
8
0
10
805.65
20
2292.0
0
SEQEND
0
POLYLINE
8
0
66
1
10
0.0
20
0.0
30
0.0
0
VERTEX
8
0
10
810.65
20
2292.0
0
VERTEX
8
0
10
810.65
20
2294.0
0
VERTEX
8
0
10
810.8499999999998
20
2294.0
0
VERTEX
8
0
10
810.8499999999998
20
2292.0
0
VERTEX
8
0
10
810.65
20
2292.0
0
SEQEND
0
POLYLINE
8
0
66
1
10
0.0
20
0.0
30
0.0
0
VERTEX
8
0
10
805.65
20
2294.0
0
VERTEX
8
0
10
788.15
20
2304.0
0
VERTEX
8
0
10
787.9500000000002
20
2304.0
0
VERTEX
8
0
10
805.4500000000002
20
2294.0
0
VERTEX
8
0
10
805.65
20
2294.0
0
SEQEND
0
POLYLINE
8
0
66
1
10
0.0
20
0.0
30
0.0
0
VERTEX
8
0
10
810.65
20
2294.0
0
VERTEX
8
0
10
828.15
20
2304.0
0
VERTEX
8
0
10
828.3499999999998
20
2304.0
0
VERTEX
8
0
10
810.8499999999998
20
2294.0
0
VERTEX
8
0
10
810.65
20
2294.0
0
SEQEND
0
POLYLINE
8
0
66
1
10
0.0
20
0.0
30
0.0
0
VERTEX
8
0
10
788.15
20
2304.0
0
VERTEX
8
0
10
788.15
20
2319.0
0
VERTEX
8
0
10
787.9500000000002
20
2319.0
0
VERTEX
8
0
10
787.9500000000002
20
2304.0
0
VERTEX
8
0
10
788.15
20
2304.0
0
SEQEND
0
POLYLINE
8
0
66
1
10
0.0
20
0.0
30
0.0
0
VERTEX
8
0
10
828.15
20
2304.0
0
VERTEX
8
0
10
828.15
20
2319.0
0
VERTEX
8
0
10
828.3499999999998
20
2319.0
0
VERTEX
8
0
10
828.3499999999998
20
2304.0
0
VERTEX
8
0
10
828.15
20
2304.0
0
SEQEND
0
POLYLINE
8
0
66
1
10
0.0
20
0.0
30
0.0
0
VERTEX
8
0
10
828.3499999999998
20
2319.0
0
VERTEX
8
0
10
828.3499999999998
20
2319.2
0
VERTEX
8
0
10
787.9500000000002
20
2319.2
0
VERTEX
8
0
10
787.9500000000002
20
2319.0
0
VERTEX
8
0
10
828.3499999999998
20
2319.0
0
SEQEND
0
POLYLINE
8
0
66
1
10
0.0
20
0.0
30
0.0
0
VERTEX
8
0
10
810.1999999999998
20
4754.8
0
VERTEX
8
0
10
810.1999999999998
20
4755.0
0
VERTEX
8
0
10
769.8000000000002
20
4755.0
0
VERTEX
8
0
10
769.8000000000002
20
4754.8
0
VERTEX
8
0
10
810.1999999999998
20
4754.8
0
SEQEND
0
POLYLINE
8
0
66
1
10
0.0
20
0.0
30
0.0
0
VERTEX
8
0
10
770.0
20
4755.0
0
VERTEX
8
0
10
770.0
20
4770.0
0
VERTEX
8
0
10
769.8000000000002
20
4770.0
0
VERTEX
8
0
10
769.8000000000002
20
4755.0
0
VERTEX
8
0
10
770.0
20
4755.0
0
SEQEND
0
POLYLINE
8
0
66
1
10
0.0
20
0.0
30
0.0
0
VERTEX
8
0
10
810.0
20
4755.0
0
VERTEX
8
0
10
810.0
20
4770.0
0
VERTEX
8
0
10
810.1999999999998
20
4770.0
0
VERTEX
8
0
10
810.1999999999998
20
4755.0
0
VERTEX
8
0
10
810.0
20
4755.0
0
SEQEND
0
POLYLINE
8
0
66
1
10
0.0
20
0.0
30
0.0
0
VERTEX
8
0
10
770.0
20
4770.0
0
VERTEX
8
0
10
787.5
20
4780.0
0
VERTEX
8
0
10
787.3000000000002
20
4780.0
0
VERTEX
8
0
10
769.8000000000002
20
4770.0
0
VERTEX
8
0
10
770.0
20
4770.0
0
SEQEND
0
POLYLINE
8
0
66
1
10
0.0
20
0.0
30
0.0
0
VERTEX
8
0
10
810.0
20
4770.0
0
VERTEX
8
0
10
792.5
20
4780.0
0
VERTEX
8
0
10
792.6999999999998
20
4780.0
0
VERTEX
8
0
10
810.1999999999998
20
4770.0
0
VERTEX
8
0
10
810.0
20
4770.0
0
SEQEND
0
POLYLINE
8
0
66
1
10
0.0
20
0.0
30
0.0
0
VERTEX
8
0
10
787.5
20
4780.0
0
VERTEX
8
0
10
787.5
20
4782.0
0
VERTEX
8
0
10
787.3000000000002
20
4782.0
0
VERTEX
8
0
10
787.3000000000002
20
4780.0
0
VERTEX
8
0
10
787.5
20
4780.0
0
SEQEND
0
POLYLINE
8
0
66
1
10
0.0
20
0.0
30
0.0
0
VERTEX
8
0
10
792.5
20
4780.0
0
VERTEX
8
0
10
792.5
20
4782.0
0
VERTEX
8
0
10
792.6999999999998
20
4782.0
0
VERTEX
8
0
10
792.6999999999998
20
4780.0
0
VERTEX
8
0
10
792.5
20
4780.0
0
SEQEND
0
POLYLINE
8
0
66
1
10
0.0
20
0.0
30
0.0
0
VERTEX
8
0
10
787.3
20
4782.0
0
VERTEX
8
0
10
788.3316043908599
20
4785.85
0
VERTEX
8
0
10
791.15
20
4788.66839560914
0
VERTEX
8
0
10
795.0
20
4789.7
0
VERTEX
8
0
10
795.0
20
4789.5
0
VERTEX
8
0
10
791.25
20
4788.495190528383
0
VERTEX
8
0
10
788.5048094716167
20
4785.75
0
VERTEX
8
0
10
787.5
20
4782.0
0
VERTEX
8
0
10
787.3
20
4782.0
0
SEQEND
0
POLYLINE
8
0
66
1
10
0.0
20
0.0
30
0.0
0
VERTEX
8
0
10
792.5
20
4782.0
0
VERTEX
8
0
10
792.8349364905389
20
4783.25
0
VERTEX
8
0
10
793.75
20
4784.165063509461
0
VERTEX
8
0
10
795.0
20
4784.5
0
VERTEX
8
0
10
795.0
20
4784.3
0
VERTEX
8
0
10
793.85
20
4783.991858428704
0
VERTEX
8
0
10
793.0081415712958
20
4783.15
0
VERTEX
8
0
10
792.7
20
4782.0
0
VERTEX
8
0
10
792.5
20
4782.0
0
SEQEND
0
POLYLINE
8
0
66
1
10
0.0
20
0.0
30
0.0
0
VERTEX
8
0
10
795.0
20
4789.5
0
VERTEX
8
0
10
797.0
20
4789.5
0
VERTEX
8
0
10
797.0
20
4789.7
0
VERTEX
8
0
10
795.0
20
4789.7
0
VERTEX
8
0
10
795.0
20
4789.5
0
SEQEND
0
POLYLINE
8
0
66
1
10
0.0
20
0.0
30
0.0
0
VERTEX
8
0
10
795.0
20
4784.5
0
VERTEX
8
0
10
797.0
20
4784.5
0
VERTEX
8
0
10
797.0
20
4784.3
0
VERTEX
8
0
10
795.0
20
4784.3
0
VERTEX
8
0
10
795.0
20
4784.5
0
SEQEND
0
POLYLINE
8
0
66
1
10
0.0
20
0.0
30
0.0
0
VERTEX
8
0
10
797.0
20
4789.5
0
VERTEX
8
0
10
799.0
20
4787.125
0
VERTEX
8
0
10
799.0
20
4787.325
0
VERTEX
8
0
10
797.0
20
4789.7
0
VERTEX
8
0
10
797.0
20
4789.5
0
SEQEND
0
POLYLINE
8
0
66
1
10
0.0
20
0.0
30
0.0
0
VERTEX
8
0
10
797.0
20
4784.5
0
VERTEX
8
0
10
799.0
20
4786.875
0
VERTEX
8
0
10
799.0
20
4786.675
0
VERTEX
8
0
10
797.0
20
4784.3
0
VERTEX
8
0
10
797.0
20
4784.5
0
SEQEND
0
POLYLINE
8
0
66
1
10
0.0
20
0.0
30
0.0
0
VERTEX
8
0
10
799.0
20
4787.125
0
VERTEX
8
0
10
801.0
20
4787.125
0
VERTEX
8
0
10
801.0
20
4787.325
0
VERTEX
8
0
10
799.0
20
4787.325
0
VERTEX
8
0
10
799.0
20
4787.125
0
SEQEND
0
POLYLINE
8
0
66
1
10
0.0
20
0.0
30
0.0
0
VERTEX
8
0
10
799.0
20
4786.875
0
VERTEX
8
0
10
801.0
20
4786.875
0
VERTEX
8
0
10
801.0
20
4786.675
0
VERTEX
8
0
10
799.0
20
4786.675
0
VERTEX
8
0
10
799.0
20
4786.875
0
SEQEND
0
POLYLINE
8
0
66
1
10
0.0
20
0.0
30
0.0
0
VERTEX
8
0
10
801.0
20
4784.3
0
VERTEX
8
0
10
801.15
20
4784.3
0
VERTEX
8
0
10
801.15
20
4789.7
0
VERTEX
8
0
10
801.0
20
4789.7
0
VERTEX
8
0
10
801.0
20
4784.3
0
SEQEND
0
POLYLINE
8
0
66
1
10
0.0
20
0.0
30
0.0
0
VERTEX
8
0
10
801.15
20
4789.5
0
VERTEX
8
0
10
803.15
20
4789.5
0
VERTEX
8
0
10
803.15
20
4789.7
0
VERTEX
8
0
10
801.15
20
4789.7
0
VERTEX
8
0
10
801.15
20
4789.5
0
SEQEND
0
POLYLINE
8
0
66
1
10
0.0
20
0.0
30
0.0
0
VERTEX
8
0
10
801.15
20
4784.5
0
VERTEX
8
0
10
803.15
20
4784.5
0
VERTEX
8
0
10
803.15
20
4784.3
0
VERTEX
8
0
10
801.15
20
4784.3
0
VERTEX
8
0
10
801.15
20
4784.5
0
SEQEND
0
POLYLINE
8
0
66
1
10
0.0
20
0.0
30
0.0
0
VERTEX
8
0
10
803.15
20
4784.3
0
VERTEX
8
0
10
807.0
20
4785.33160439086
0
VERTEX
8
0
10
809.8183956091401
20
4788.15
0
VERTEX
8
0
10
810.85
20
4792.0
0
VERTEX
8
0
10
810.65
20
4792.0
0
VERTEX
8
0
10
809.6451905283833
20
4788.25
0
VERTEX
8
0
10
806.9
20
4785.504809471617
0
VERTEX
8
0
10
803.15
20
4784.5
0
VERTEX
8
0
10
803.15
20
4784.3
0
SEQEND
0
POLYLINE
8
0
66
1
10
0.0
20
0.0
30
0.0
0
VERTEX
8
0
10
803.15
20
4789.5
0
VERTEX
8
0
10
804.4
20
4789.834936490539
0
VERTEX
8
0
10
805.3150635094611
20
4790.75
0
VERTEX
8
0
10
805.65
20
4792.0
0
VERTEX
8
0
10
805.4499999999999
20
4792.0
0
VERTEX
8
0
10
805.1418584287042
20
4790.85
0
VERTEX
8
0
10
804.3
20
4790.008141571296
0
VERTEX
8
0
10
803.15
20
4789.7
0
VERTEX
8
0
10
803.15
20
4789.5
0
SEQEND
0
POLYLINE
8
0
66
1
10
0.0
20
0.0
30
0.0
0
VERTEX
8
0
10
805.65
20
4792.0
0
VERTEX
8
0
10
805.65
20
4794.0
0
VERTEX
8
0
10
805.4500000000002
20
4794.0
0
VERTEX
8
0
10
805.4500000000002
20
4792.0
0
VERTEX
8
0
10
805.65
20
4792.0
0
SEQEND
0
POLYLINE
8
0
66
1
10
0.0
20
0.0
30
0.0
0
VERTEX
8
0
10
810.65
20
4792.0
0
VERTEX
8
0
10
810.65
20
4794.0
0
VERTEX
8
0
10
810.8499999999998
20
4794.0
0
VERTEX
8
0
10
810.8499999999998
20
4792.0
0
VERTEX
8
0
10
810.65
20
4792.0
0
SEQEND
0
POLYLINE
8
0
66
1
10
0.0
20
0.0
30
0.0
0
VERTEX
8
0
10
805.65
20
4794.0
0
VERTEX
8
0
10
788.15
20
4804.0
0
VERTEX
8
0
10
787.9500000000002
20
4804.0
0
VERTEX
8
0
10
805.4500000000002
20
4794.0
0
VERTEX
8
0
10
805.65
20
4794.0
0
SEQEND
0
POLYLINE
8
0
66
1
10
0.0
20
0.0
30
0.0
0
VERTEX
8
0
10
810.65
20
4794.0
0
VERTEX
8
0
10
828.15
20
4804.0
0
VERTEX
8
0
10
828.3499999999998
20
4804.0
0
VERTEX
8
0
10
810.8499999999998
20
4794.0
0
VERTEX
8
0
10
810.65
20
4794.0
0
SEQEND
0
POLYLINE
8
0
66
1
10
0.0
20
0.0
30
0.0
0
VERTEX
8
0
10
788.15
20
4804.0
0
VERTEX
8
0
10
788.15
20
4819.0
0
VERTEX
8
0
10
787.9500000000002
20
4819.0
0
VERTEX
8
0
10
787.9500000000002
20
4804.0
0
VERTEX
8
0
10
788.15
20
4804.0
0
SEQEND
0
POLYLINE
8
0
66
1
10
0.0
20
0.0
30
0.0
0
VERTEX
8
0
10
828.15
20
4804.0
0
VERTEX
8
0
10
828.15
20
4819.0
0
VERTEX
8
0
10
828.3499999999998
20
4819.0
0
VERTEX
8
0
10
828.3499999999998
20
4804.0
0
VERTEX
8
0
10
828.15
20
4804.0
0
SEQEND
0
POLYLINE
8
0
66
1
10
0.0
20
0.0
30
0.0
0
VERTEX
8
0
10
828.3499999999998
20
4819.0
0
VERTEX
8
0
10
828.3499999999998
20
4819.2
0
VERTEX
8
0
10
787.9500000000002
20
4819.2
0
VERTEX
8
0
10
787.9500000000002
20
4819.0
0
VERTEX
8
0
10
828.3499999999998
20
4819.0
0
SEQEND
0
POLYLINE
8
0
66
1
10
0.0
20
0.0
30
0.0
0
VERTEX
8
0
10
810.1999999999998
20
7254.8
0
VERTEX
8
0
10
810.1999999999998
20
7255.0
0
VERTEX
8
0
10
769.8000000000002
20
7255.0
0
VERTEX
8
0
10
769.8000000000002
20
7254.8
0
VERTEX
8
0
10
810.1999999999998
20
7254.8
0
SEQEND
0
POLYLINE
8
0
66
1
10
0.0
20
0.0
30
0.0
0
VERTEX
8
0
10
770.0
20
7255.0
0
VERTEX
8
0
10
770.0
20
7270.0
0
VERTEX
8
0
10
769.8000000000002
20
7270.0
0
VERTEX
8
0
10
769.8000000000002
20
7255.0
0
VERTEX
8
0
10
770.0
20
7255.0
0
SEQEND
0
POLYLINE
8
0
66
1
10
0.0
20
0.0
30
0.0
0
VERTEX
8
0
10
810.0
20
7255.0
0
VERTEX
8
0
10
810.0
20
7270.0
0
VERTEX
8
0
10
810.1999999999998
20
7270.0
0
VERTEX
8
0
10
810.1999999999998
20
7255.0
0
VERTEX
8
0
10
810.0
20
7255.0
0
SEQEND
0
POLYLINE
8
0
66
1
10
0.0
20
0.0
30
0.0
0
VERTEX
8
0
10
770.0
20
7270.0
0
VERTEX
8
0
10
787.5
20
7280.0
0
VERTEX
8
0
10
787.3000000000002
20
7280.0
0
VERTEX
8
0
10
769.8000000000002
20
7270.0
0
VERTEX
8
0
10
770.0
20
7270.0
0
SEQEND
0
POLYLINE
8
0
66
1
10
0.0
20
0.0
30
0.0
0
VERTEX
8
0
10
810.0
20
7270.0
0
VERTEX
8
0
10
792.5
20
7280.0
0
VERTEX
8
0
10
792.6999999999998
20
7280.0
0
VERTEX
8
0
10
810.1999999999998
20
7270.0
0
VERTEX
8
0
10
810.0
20
7270.0
0
SEQEND
0
POLYLINE
8
0
66
1
10
0.0
20
0.0
30
0.0
0
VERTEX
8
0
10
787.5
20
7280.0
0
VERTEX
8
0
10
787.5
20
7282.0
0
VERTEX
8
0
10
787.3000000000002
20
7282.0
0
VERTEX
8
0
10
787.3000000000002
20
7280.0
0
VERTEX
8
0
10
787.5
20
7280.0
0
SEQEND
0
POLYLINE
8
0
66
1
10
0.0
20
0.0
30
0.0
0
VERTEX
8
0
10
792.5
20
7280.0
0
VERTEX
8
0
10
792.5
20
7282.0
0
VERTEX
8
0
10
792.6999999999998
20
7282.0
0
VERTEX
8
0
10
792.6999999999998
20
7280.0
0
VERTEX
8
0
10
792.5
20
7280.0
0
SEQEND
0
POLYLINE
8
0
66
1
10
0.0
20
0.0
30
0.0
0
VERTEX
8
0
10
787.3
20
7282.0
0
VERTEX
8
0
10
788.3316043908599
20
7285.85
0
VERTEX
8
0
10
791.15
20
7288.66839560914
0
VERTEX
8
0
10
795.0
20
7289.7
0
VERTEX
8
0
10
795.0
20
7289.5
0
VERTEX
8
0
10
791.25
20
7288.495190528383
0
VERTEX
8
0
10
788.5048094716167
20
7285.75
0
VERTEX
8
0
10
787.5
20
7282.0
0
VERTEX
8
0
10
787.3
20
7282.0
0
SEQEND
0
POLYLINE
8
0
66
1
10
0.0
20
0.0
30
0.0
0
VERTEX
8
0
10
792.5
20
7282.0
0
VERTEX
8
0
10
792.8349364905389
20
7283.25
0
VERTEX
8
0
10
793.75
20
7284.165063509461
0
VERTEX
8
0
10
795.0
20
7284.5
0
VERTEX
8
0
10
795.0
20
7284.3
0
VERTEX
8
0
10
793.85
20
7283.991858428704
0
VERTEX
8
0
10
793.0081415712958
20
7283.15
0
VERTEX
8
0
10
792.7
20
7282.0
0
VERTEX
8
0
10
792.5
20
7282.0
0
SEQEND
0
POLYLINE
8
0
66
1
10
0.0
20
0.0
30
0.0
0
VERTEX
8
0
10
795.0
20
7289.5
0
VERTEX
8
0
10
797.0
20
7289.5
0
VERTEX
8
0
10
797.0
20
7289.7
0
VERTEX
8
0
10
795.0
20
7289.7
0
VERTEX
8
0
10
795.0
20
7289.5
0
SEQEND
0
POLYLINE
8
0
66
1
10
0.0
20
0.0
30
0.0
0
VERTEX
8
0
10
795.0
20
7284.5
0
VERTEX
8
0
10
797.0
20
7284.5
0
VERTEX
8
0
10
797.0
20
7284.3
0
VERTEX
8
0
10
795.0
20
7284.3
0
VERTEX
8
0
10
795.0
20
7284.5
0
SEQEND
0
POLYLINE
8
0
66
1
10
0.0
20
0.0
30
0.0
0
VERTEX
8
0
10
797.0
20
7289.5
0
VERTEX
8
0
10
799.0
20
7287.125
0
VERTEX
8
0
10
799.0
20
7287.325
0
VERTEX
8
0
10
797.0
20
7289.7
0
VERTEX
8
0
10
797.0
20
7289.5
0
SEQEND
0
POLYLINE
8
0
66
1
10
0.0
20
0.0
30
0.0
0
VERTEX
8
0
10
797.0
20
7284.5
0
VERTEX
8
0
10
799.0
20
7286.875
0
VERTEX
8
0
10
799.0
20
7286.675
0
VERTEX
8
0
10
797.0
20
7284.3
0
VERTEX
8
0
10
797.0
20
7284.5
0
SEQEND
0
POLYLINE
8
0
66
1
10
0.0
20
0.0
30
0.0
0
VERTEX
8
0
10
799.0
20
7287.125
0
VERTEX
8
0
10
801.0
20
7287.125
0
VERTEX
8
0
10
801.0
20
7287.325
0
VERTEX
8
0
10
799.0
20
7287.325
0
VERTEX
8
0
10
799.0
20
7287.125
0
SEQEND
0
POLYLINE
8
0
66
1
10
0.0
20
0.0
30
0.0
0
VERTEX
8
0
10
799.0
20
7286.875
0
VERTEX
8
0
10
801.0
20
7286.875
0
VERTEX
8
0
10
801.0
20
7286.675
0
VERTEX
8
0
10
799.0
20
7286.675
0
VERTEX
8
0
10
799.0
20
7286.875
0
SEQEND
0
POLYLINE
8
0
66
1
10
0.0
20
0.0
30
0.0
0
VERTEX
8
0
10
801.0
20
7284.3
0
VERTEX
8
0
10
801.15
20
7284.3
0
VERTEX
8
0
10
801.15
20
7289.7
0
VERTEX
8
0
10
801.0
20
7289.7
0
VERTEX
8
0
10
801.0
20
7284.3
0
SEQEND
0
POLYLINE
8
0
66
1
10
0.0
20
0.0
30
0.0
0
VERTEX
8
0
10
801.15
20
7289.5
0
VERTEX
8
0
10
803.15
20
7289.5
0
VERTEX
8
0
10
803.15
20
7289.7
0
VERTEX
8
0
10
801.15
20
7289.7
0
VERTEX
8
0
10
801.15
20
7289.5
0
SEQEND
0
POLYLINE
8
0
66
1
10
0.0
20
0.0
30
0.0
0
VERTEX
8
0
10
801.15
20
7284.5
0
VERTEX
8
0
10
803.15
20
7284.5
0
VERTEX
8
0
10
803.15
20
7284.3
0
VERTEX
8
0
10
801.15
20
7284.3
0
VERTEX
8
0
10
801.15
20
7284.5
0
SEQEND
0
POLYLINE
8
0
66
1
10
0.0
20
0.0
30
0.0
0
VERTEX
8
0
10
803.15
20
7284.3
0
VERTEX
8
0
10
807.0
20
7285.33160439086
0
VERTEX
8
0
10
809.8183956091401
20
7288.15
0
VERTEX
8
0
10
810.85
20
7292.0
0
VERTEX
8
0
10
810.65
20
7292.0
0
VERTEX
8
0
10
809.6451905283833
20
7288.25
0
VERTEX
8
0
10
806.9
20
7285.504809471617
0
VERTEX
8
0
10
803.15
20
7284.5
0
VERTEX
8
0
10
803.15
20
7284.3
0
SEQEND
0
POLYLINE
8
0
66
1
10
0.0
20
0.0
30
0.0
0
VERTEX
8
0
10
803.15
20
7289.5
0
VERTEX
8
0
10
804.4
20
7289.834936490539
0
VERTEX
8
0
10
805.3150635094611
20
7290.75
0
VERTEX
8
0
10
805.65
20
7292.0
0
VERTEX
8
0
10
805.4499999999999
20
7292.0
0
VERTEX
8
0
10
805.1418584287042
20
7290.85
0
VERTEX
8
0
10
804.3
20
7290.008141571296
0
VERTEX
8
0
10
803.15
20
7289.7
0
VERTEX
8
0
10
803.15
20
7289.5
0
SEQEND
0
POLYLINE
8
0
66
1
10
0.0
20
0.0
30
0.0
0
VERTEX
8
0
10
805.65
20
7292.0
0
VERTEX
8
0
10
805.65
20
7294.0
0
VERTEX
8
0
10
805.4500000000002
20
7294.0
0
VERTEX
8
0
10
805.4500000000002
20
7292.0
0
VERTEX
8
0
10
805.65
20
7292.0
0
SEQEND
0
POLYLINE
8
0
66
1
10
0.0
20
0.0
30
0.0
0
VERTEX
8
0
10
810.65
20
7292.0
0
VERTEX
8
0
10
810.65
20
7294.0
0
VERTEX
8
0
10
810.8499999999998
20
7294.0
0
VERTEX
8
0
10
810.8499999999998
20
7292.0
0
VERTEX
8
0
10
810.65
20
7292.0
0
SEQEND
0
POLYLINE
8
0
66
1
10
0.0
20
0.0
30
0.0
0
VERTEX
8
0
10
805.65
20
7294.0
0
VERTEX
8
0
10
788.15
20
7304.0
0
VERTEX
8
0
10
787.9500000000002
20
7304.0
0
VERTEX
8
0
10
805.4500000000002
20
7294.0
0
VERTEX
8
0
10
805.65
20
7294.0
0
SEQEND
0
POLYLINE
8
0
66
1
10
0.0
20
0.0
30
0.0
0
VERTEX
8
0
10
810.65
20
7294.0
0
VERTEX
8
0
10
828.15
20
7304.0
0
VERTEX
8
0
10
828.3499999999998
20
7304.0
0
VERTEX
8
0
10
810.8499999999998
20
7294.0
0
VERTEX
8
0
10
810.65
20
7294.0
0
SEQEND
0
POLYLINE
8
0
66
1
10
0.0
20
0.0
30
0.0
0
VERTEX
8
0
10
788.15
20
7304.0
0
VERTEX
8
0
10
788.15
20
7319.0
0
VERTEX
8
0
10
787.9500000000002
20
7319.0
0
VERTEX
8
0
10
787.9500000000002
20
7304.0
0
VERTEX
8
0
10
788.15
20
7304.0
0
SEQEND
0
POLYLINE
8
0
66
1
10
0.0
20
0.0
30
0.0
0
VERTEX
8
0
10
828.15
20
7304.0
0
VERTEX
8
0
10
828.15
20
7319.0
0
VERTEX
8
0
10
828.3499999999998
20
7319.0
0
VERTEX
8
0
10
828.3499999999998
20
7304.0
0
VERTEX
8
0
10
828.15
20
7304.0
0
SEQEND
0
POLYLINE
8
0
66
1
10
0.0
20
0.0
30
0.0
0
VERTEX
8
0
10
828.3499999999998
20
7319.0
0
VERTEX
8
0
10
828.3499999999998
20
7319.2
0
VERTEX
8
0
10
787.9500000000002
20
7319.2
0
VERTEX
8
0
10
787.9500000000002
20
7319.0
0
VERTEX
8
0
10
828.3499999999998
20
7319.0
0
SEQEND
0
POLYLINE
8
GAP
66
1
10
0.0
20
0.0
30
0.0
0
VERTEX
8
GAP
10
200.0
20
100.0
0
VERTEX
8
GAP
10
200.0
20
170.0
0
VERTEX
8
GAP
10
252.5
20
170.0
0
VERTEX
8
GAP
10
252.5
20
161.25
0
VERTEX
8
GAP
10
217.5
20
161.25
0
VERTEX
8
GAP
10
217.5
20
108.75
0
VERTEX
8
GAP
10
252.5
20
108.75
0
VERTEX
8
GAP
10
252.5
20
100.0
0
VERTEX
8
GAP
10
200.0
20
100.0
0
VERTEX
8
GAP
10
200.0
20
100.0
0
SEQEND
0
POLYLINE
8
GAP
66
1
10
0.0
20
0.0
30
0.0
0
VERTEX
8
GAP
10
270.0
20
100.0
0
VERTEX
8
GAP
10
322.5
20
100.0
0
VERTEX
8
GAP
10
322.5
20
108.75
0
VERTEX
8
GAP
10
305.0
20
108.75
0
VERTEX
8
GAP
10
305.0
20
170.0
0
VERTEX
8
GAP
10
287.5
20
170.0
0
VERTEX
8
GAP
10
270.0
20
161.25
0
VERTEX
8
GAP
10
270.0
20
152.5
0
VERTEX
8
GAP
10
287.5
20
152.5
0
VERTEX
8
GAP
10
287.5
20
108.75
0
VERTEX
8
GAP
10
270.0
20
108.75
0
VERTEX
8
GAP
10
270.0
20
100.0
0
VERTEX
8
GAP
10
270.0
20
100.0
0
SEQEND
0
POLYLINE
8
GAP
66
1
10
0.0
20
0.0
30
0.0
0
VERTEX
8
GAP
10
340.0
20
100.0
0
VERTEX
8
GAP
10
357.5
20
100.0
0
VERTEX
8
GAP
10
357.5
20
170.0
0
VERTEX
8
GAP
10
340.0
20
170.0
0
VERTEX
8
GAP
10
340.0
20
100.0
0
SEQEND
0
POLYLINE
8
GAP
66
1
10
0.0
20
0.0
30
0.0
0
VERTEX
8
GAP
10
357.5
20
100.0
0
VERTEX
8
GAP
10
375.0
20
100.0
0
VERTEX
8
GAP
10
392.5
20
108.75
0
VERTEX
8
GAP
10
392.5
20
161.25
0
VERTEX
8
GAP
10
375.0
20
170.0
0
VERTEX
8
GAP
10
357.5
20
170.0
0
VERTEX
8
GAP
10
357.5
20
161.25
0
VERTEX
8
GAP
10
375.0
20
161.25
0
VERTEX
8
GAP
10
375.0
20
108.75
0
VERTEX
8
GAP
10
357.5
20
108.75
0
VERTEX
8
GAP
10
357.5
20
100.0
0
SEQEND
0
ENDBLK
0
BLOCK
8
PIN
2
C1DPIN
70
0
10
0
20
0
30
0
3
C1DPIN
0
POLYLINE
8
0
66
1
10
0.0
20
0.0
30
0.0
0
VERTEX
8
0
10
-1875.0
20
12095.0
0
VERTEX
8
0
10
-1875.0
20
11770.0
0
VERTEX
8
0
10
-1725.0
20
11770.0
0
VERTEX
8
0
10
-1725.0
20
12095.0
0
VERTEX
8
0
10
-1875.0
20
12095.0
0
SEQEND
0
POLYLINE
8
0
66
1
10
0.0
20
0.0
30
0.0
0
VERTEX
8
0
10
-1800.0
20
11770.0
0
VERTEX
8
0
10
-1800.0
20
11520.0
0
VERTEX
8
0
10
-1795.0
20
11520.0
0
VERTEX
8
0
10
-1725.0
20
11770.0
0
VERTEX
8
0
10
-1800.0
20
11770.0
0
SEQEND
0
POLYLINE
8
0
66
1
10
0.0
20
0.0
30
0.0
0
VERTEX
8
0
10
-1800.0
20
11770.0
0
VERTEX
8
0
10
-1800.0
20
11520.0
0
VERTEX
8
0
10
-1805.0
20
11520.0
0
VERTEX
8
0
10
-1875.0
20
11770.0
0
VERTEX
8
0
10
-1800.0
20
11770.0
0
SEQEND
0
POLYLINE
8
0
66
1
10
0.0
20
0.0
30
0.0
0
VERTEX
8
0
10
-1875.0
20
14350.0
0
VERTEX
8
0
10
-1875.0
20
14025.0
0
VERTEX
8
0
10
-1725.0
20
14025.0
0
VERTEX
8
0
10
-1725.0
20
14350.0
0
VERTEX
8
0
10
-1875.0
20
14350.0
0
SEQEND
0
POLYLINE
8
0
66
1
10
0.0
20
0.0
30
0.0
0
VERTEX
8
0
10
-1800.0
20
14025.0
0
VERTEX
8
0
10
-1800.0
20
13775.0
0
VERTEX
8
0
10
-1795.0
20
13775.0
0
VERTEX
8
0
10
-1725.0
20
14025.0
0
VERTEX
8
0
10
-1800.0
20
14025.0
0
SEQEND
0
POLYLINE
8
0
66
1
10
0.0
20
0.0
30
0.0
0
VERTEX
8
0
10
-1800.0
20
14025.0
0
VERTEX
8
0
10
-1800.0
20
13775.0
0
VERTEX
8
0
10
-1805.0
20
13775.0
0
VERTEX
8
0
10
-1875.0
20
14025.0
0
VERTEX
8
0
10
-1800.0
20
14025.0
0
SEQEND
0
POLYLINE
8
0
66
1
10
0.0
20
0.0
30
0.0
0
VERTEX
8
0
10
2825.0
20
25425.0
0
VERTEX
8
0
10
2500.0
20
25425.0
0
VERTEX
8
0
10
2500.0
20
25275.0
0
VERTEX
8
0
10
2825.0
20
25275.0
0
VERTEX
8
0
10
2825.0
20
25425.0
0
SEQEND
0
POLYLINE
8
0
66
1
10
0.0
20
0.0
30
0.0
0
VERTEX
8
0
10
2500.0
20
25350.0
0
VERTEX
8
0
10
2250.0
20
25350.0
0
VERTEX
8
0
10
2250.0
20
25345.0
0
VERTEX
8
0
10
2500.0
20
25275.0
0
VERTEX
8
0
10
2500.0
20
25350.0
0
SEQEND
0
POLYLINE
8
0
66
1
10
0.0
20
0.0
30
0.0
0
VERTEX
8
0
10
2500.0
20
25350.0
0
VERTEX
8
0
10
2250.0
20
25350.0
0
VERTEX
8
0
10
2250.0
20
25355.0
0
VERTEX
8
0
10
2500.0
20
25425.0
0
VERTEX
8
0
10
2500.0
20
25350.0
0
SEQEND
0
POLYLINE
8
0
66
1
10
0.0
20
0.0
30
0.0
0
VERTEX
8
0
10
3325.0
20
14350.0
0
VERTEX
8
0
10
3325.0
20
14025.0
0
VERTEX
8
0
10
3475.0
20
14025.0
0
VERTEX
8
0
10
3475.0
20
14350.0
0
VERTEX
8
0
10
3325.0
20
14350.0
0
SEQEND
0
POLYLINE
8
0
66
1
10
0.0
20
0.0
30
0.0
0
VERTEX
8
0
10
3400.0
20
14025.0
0
VERTEX
8
0
10
3400.0
20
13775.0
0
VERTEX
8
0
10
3405.0
20
13775.0
0
VERTEX
8
0
10
3475.0
20
14025.0
0
VERTEX
8
0
10
3400.0
20
14025.0
0
SEQEND
0
POLYLINE
8
0
66
1
10
0.0
20
0.0
30
0.0
0
VERTEX
8
0
10
3400.0
20
14025.0
0
VERTEX
8
0
10
3400.0
20
13775.0
0
VERTEX
8
0
10
3395.0
20
13775.0
0
VERTEX
8
0
10
3325.0
20
14025.0
0
VERTEX
8
0
10
3400.0
20
14025.0
0
SEQEND
0
POLYLINE
8
0
66
1
10
0.0
20
0.0
30
0.0
0
VERTEX
8
0
10
3325.0
20
12100.0
0
VERTEX
8
0
10
3325.0
20
11775.0
0
VERTEX
8
0
10
3475.0
20
11775.0
0
VERTEX
8
0
10
3475.0
20
12100.0
0
VERTEX
8
0
10
3325.0
20
12100.0
0
SEQEND
0
POLYLINE
8
0
66
1
10
0.0
20
0.0
30
0.0
0
VERTEX
8
0
10
3400.0
20
11775.0
0
VERTEX
8
0
10
3400.0
20
11525.0
0
VERTEX
8
0
10
3405.0
20
11525.0
0
VERTEX
8
0
10
3475.0
20
11775.0
0
VERTEX
8
0
10
3400.0
20
11775.0
0
SEQEND
0
POLYLINE
8
0
66
1
10
0.0
20
0.0
30
0.0
0
VERTEX
8
0
10
3400.0
20
11775.0
0
VERTEX
8
0
10
3400.0
20
11525.0
0
VERTEX
8
0
10
3395.0
20
11525.0
0
VERTEX
8
0
10
3325.0
20
11775.0
0
VERTEX
8
0
10
3400.0
20
11775.0
0
SEQEND
0
POLYLINE
8
0
66
1
10
0.0
20
0.0
30
0.0
0
VERTEX
8
0
10
2825.0
20
875.0
0
VERTEX
8
0
10
2500.0
20
875.0
0
VERTEX
8
0
10
2500.0
20
725.0
0
VERTEX
8
0
10
2825.0
20
725.0
0
VERTEX
8
0
10
2825.0
20
875.0
0
SEQEND
0
POLYLINE
8
0
66
1
10
0.0
20
0.0
30
0.0
0
VERTEX
8
0
10
2500.0
20
800.0
0
VERTEX
8
0
10
2250.0
20
800.0
0
VERTEX
8
0
10
2250.0
20
795.0
0
VERTEX
8
0
10
2500.0
20
725.0
0
VERTEX
8
0
10
2500.0
20
800.0
0
SEQEND
0
POLYLINE
8
0
66
1
10
0.0
20
0.0
30
0.0
0
VERTEX
8
0
10
2500.0
20
800.0
0
VERTEX
8
0
10
2250.0
20
800.0
0
VERTEX
8
0
10
2250.0
20
805.0
0
VERTEX
8
0
10
2500.0
20
875.0
0
VERTEX
8
0
10
2500.0
20
800.0
0
SEQEND
0
POLYLINE
8
0
66
1
10
0.0
20
0.0
30
0.0
0
VERTEX
8
0
10
-1225.0
20
725.0
0
VERTEX
8
0
10
-900.0
20
725.0
0
VERTEX
8
0
10
-900.0
20
875.0
0
VERTEX
8
0
10
-1225.0
20
875.0
0
VERTEX
8
0
10
-1225.0
20
725.0
0
SEQEND
0
POLYLINE
8
0
66
1
10
0.0
20
0.0
30
0.0
0
VERTEX
8
0
10
-900.0
20
800.0
0
VERTEX
8
0
10
-650.0
20
800.0
0
VERTEX
8
0
10
-650.0
20
805.0
0
VERTEX
8
0
10
-900.0
20
875.0
0
VERTEX
8
0
10
-900.0
20
800.0
0
SEQEND
0
POLYLINE
8
0
66
1
10
0.0
20
0.0
30
0.0
0
VERTEX
8
0
10
-900.0
20
800.0
0
VERTEX
8
0
10
-650.0
20
800.0
0
VERTEX
8
0
10
-650.0
20
795.0
0
VERTEX
8
0
10
-900.0
20
725.0
0
VERTEX
8
0
10
-900.0
20
800.0
0
SEQEND
0
POLYLINE
8
0
66
1
10
0.0
20
0.0
30
0.0
0
VERTEX
8
0
10
-1875.0
20
12095.0
0
VERTEX
8
0
10
-1875.0
20
11770.0
0
VERTEX
8
0
10
-1725.0
20
11770.0
0
VERTEX
8
0
10
-1725.0
20
12095.0
0
VERTEX
8
0
10
-1875.0
20
12095.0
0
SEQEND
0
POLYLINE
8
0
66
1
10
0.0
20
0.0
30
0.0
0
VERTEX
8
0
10
-1800.0
20
11770.0
0
VERTEX
8
0
10
-1800.0
20
11520.0
0
VERTEX
8
0
10
-1795.0
20
11520.0
0
VERTEX
8
0
10
-1725.0
20
11770.0
0
VERTEX
8
0
10
-1800.0
20
11770.0
0
SEQEND
0
POLYLINE
8
0
66
1
10
0.0
20
0.0
30
0.0
0
VERTEX
8
0
10
-1800.0
20
11770.0
0
VERTEX
8
0
10
-1800.0
20
11520.0
0
VERTEX
8
0
10
-1805.0
20
11520.0
0
VERTEX
8
0
10
-1875.0
20
11770.0
0
VERTEX
8
0
10
-1800.0
20
11770.0
0
SEQEND
0
POLYLINE
8
0
66
1
10
0.0
20
0.0
30
0.0
0
VERTEX
8
0
10
-1875.0
20
14350.0
0
VERTEX
8
0
10
-1875.0
20
14025.0
0
VERTEX
8
0
10
-1725.0
20
14025.0
0
VERTEX
8
0
10
-1725.0
20
14350.0
0
VERTEX
8
0
10
-1875.0
20
14350.0
0
SEQEND
0
POLYLINE
8
0
66
1
10
0.0
20
0.0
30
0.0
0
VERTEX
8
0
10
-1800.0
20
14025.0
0
VERTEX
8
0
10
-1800.0
20
13775.0
0
VERTEX
8
0
10
-1795.0
20
13775.0
0
VERTEX
8
0
10
-1725.0
20
14025.0
0
VERTEX
8
0
10
-1800.0
20
14025.0
0
SEQEND
0
POLYLINE
8
0
66
1
10
0.0
20
0.0
30
0.0
0
VERTEX
8
0
10
-1800.0
20
14025.0
0
VERTEX
8
0
10
-1800.0
20
13775.0
0
VERTEX
8
0
10
-1805.0
20
13775.0
0
VERTEX
8
0
10
-1875.0
20
14025.0
0
VERTEX
8
0
10
-1800.0
20
14025.0
0
SEQEND
0
POLYLINE
8
0
66
1
10
0.0
20
0.0
30
0.0
0
VERTEX
8
0
10
2825.0
20
25425.0
0
VERTEX
8
0
10
2500.0
20
25425.0
0
VERTEX
8
0
10
2500.0
20
25275.0
0
VERTEX
8
0
10
2825.0
20
25275.0
0
VERTEX
8
0
10
2825.0
20
25425.0
0
SEQEND
0
POLYLINE
8
0
66
1
10
0.0
20
0.0
30
0.0
0
VERTEX
8
0
10
2500.0
20
25350.0
0
VERTEX
8
0
10
2250.0
20
25350.0
0
VERTEX
8
0
10
2250.0
20
25345.0
0
VERTEX
8
0
10
2500.0
20
25275.0
0
VERTEX
8
0
10
2500.0
20
25350.0
0
SEQEND
0
POLYLINE
8
0
66
1
10
0.0
20
0.0
30
0.0
0
VERTEX
8
0
10
2500.0
20
25350.0
0
VERTEX
8
0
10
2250.0
20
25350.0
0
VERTEX
8
0
10
2250.0
20
25355.0
0
VERTEX
8
0
10
2500.0
20
25425.0
0
VERTEX
8
0
10
2500.0
20
25350.0
0
SEQEND
0
POLYLINE
8
0
66
1
10
0.0
20
0.0
30
0.0
0
VERTEX
8
0
10
3325.0
20
14350.0
0
VERTEX
8
0
10
3325.0
20
14025.0
0
VERTEX
8
0
10
3475.0
20
14025.0
0
VERTEX
8
0
10
3475.0
20
14350.0
0
VERTEX
8
0
10
3325.0
20
14350.0
0
SEQEND
0
POLYLINE
8
0
66
1
10
0.0
20
0.0
30
0.0
0
VERTEX
8
0
10
3400.0
20
14025.0
0
VERTEX
8
0
10
3400.0
20
13775.0
0
VERTEX
8
0
10
3405.0
20
13775.0
0
VERTEX
8
0
10
3475.0
20
14025.0
0
VERTEX
8
0
10
3400.0
20
14025.0
0
SEQEND
0
POLYLINE
8
0
66
1
10
0.0
20
0.0
30
0.0
0
VERTEX
8
0
10
3400.0
20
14025.0
0
VERTEX
8
0
10
3400.0
20
13775.0
0
VERTEX
8
0
10
3395.0
20
13775.0
0
VERTEX
8
0
10
3325.0
20
14025.0
0
VERTEX
8
0
10
3400.0
20
14025.0
0
SEQEND
0
POLYLINE
8
0
66
1
10
0.0
20
0.0
30
0.0
0
VERTEX
8
0
10
3325.0
20
12100.0
0
VERTEX
8
0
10
3325.0
20
11775.0
0
VERTEX
8
0
10
3475.0
20
11775.0
0
VERTEX
8
0
10
3475.0
20
12100.0
0
VERTEX
8
0
10
3325.0
20
12100.0
0
SEQEND
0
POLYLINE
8
0
66
1
10
0.0
20
0.0
30
0.0
0
VERTEX
8
0
10
3400.0
20
11775.0
0
VERTEX
8
0
10
3400.0
20
11525.0
0
VERTEX
8
0
10
3405.0
20
11525.0
0
VERTEX
8
0
10
3475.0
20
11775.0
0
VERTEX
8
0
10
3400.0
20
11775.0
0
SEQEND
0
POLYLINE
8
0
66
1
10
0.0
20
0.0
30
0.0
0
VERTEX
8
0
10
3400.0
20
11775.0
0
VERTEX
8
0
10
3400.0
20
11525.0
0
VERTEX
8
0
10
3395.0
20
11525.0
0
VERTEX
8
0
10
3325.0
20
11775.0
0
VERTEX
8
0
10
3400.0
20
11775.0
0
SEQEND
0
POLYLINE
8
0
66
1
10
0.0
20
0.0
30
0.0
0
VERTEX
8
0
10
2825.0
20
875.0
0
VERTEX
8
0
10
2500.0
20
875.0
0
VERTEX
8
0
10
2500.0
20
725.0
0
VERTEX
8
0
10
2825.0
20
725.0
0
VERTEX
8
0
10
2825.0
20
875.0
0
SEQEND
0
POLYLINE
8
0
66
1
10
0.0
20
0.0
30
0.0
0
VERTEX
8
0
10
2500.0
20
800.0
0
VERTEX
8
0
10
2250.0
20
800.0
0
VERTEX
8
0
10
2250.0
20
795.0
0
VERTEX
8
0
10
2500.0
20
725.0
0
VERTEX
8
0
10
2500.0
20
800.0
0
SEQEND
0
POLYLINE
8
0
66
1
10
0.0
20
0.0
30
0.0
0
VERTEX
8
0
10
2500.0
20
800.0
0
VERTEX
8
0
10
2250.0
20
800.0
0
VERTEX
8
0
10
2250.0
20
805.0
0
VERTEX
8
0
10
2500.0
20
875.0
0
VERTEX
8
0
10
2500.0
20
800.0
0
SEQEND
0
POLYLINE
8
0
66
1
10
0.0
20
0.0
30
0.0
0
VERTEX
8
0
10
-1225.0
20
725.0
0
VERTEX
8
0
10
-900.0
20
725.0
0
VERTEX
8
0
10
-900.0
20
875.0
0
VERTEX
8
0
10
-1225.0
20
875.0
0
VERTEX
8
0
10
-1225.0
20
725.0
0
SEQEND
0
POLYLINE
8
0
66
1
10
0.0
20
0.0
30
0.0
0
VERTEX
8
0
10
-900.0
20
800.0
0
VERTEX
8
0
10
-650.0
20
800.0
0
VERTEX
8
0
10
-650.0
20
805.0
0
VERTEX
8
0
10
-900.0
20
875.0
0
VERTEX
8
0
10
-900.0
20
800.0
0
SEQEND
0
POLYLINE
8
0
66
1
10
0.0
20
0.0
30
0.0
0
VERTEX
8
0
10
-900.0
20
800.0
0
VERTEX
8
0
10
-650.0
20
800.0
0
VERTEX
8
0
10
-650.0
20
795.0
0
VERTEX
8
0
10
-900.0
20
725.0
0
VERTEX
8
0
10
-900.0
20
800.0
0
SEQEND
0
POLYLINE
8
0
66
1
10
0.0
20
0.0
30
0.0
0
VERTEX
8
0
10
810.0
20
21165.0
0
VERTEX
8
0
10
810.0
20
21180.0
0
VERTEX
8
0
10
770.0
20
21180.0
0
VERTEX
8
0
10
770.0
20
21165.0
0
VERTEX
8
0
10
810.0
20
21165.0
0
SEQEND
0
POLYLINE
8
0
66
1
10
0.0
20
0.0
30
0.0
0
VERTEX
8
0
10
790.0
20
21180.0
0
VERTEX
8
0
10
790.0
20
21190.0
0
VERTEX
8
0
10
787.5
20
21190.0
0
VERTEX
8
0
10
770.0
20
21180.0
0
VERTEX
8
0
10
790.0
20
21180.0
0
SEQEND
0
POLYLINE
8
0
66
1
10
0.0
20
0.0
30
0.0
0
VERTEX
8
0
10
790.0
20
21180.0
0
VERTEX
8
0
10
790.0
20
21190.0
0
VERTEX
8
0
10
792.5
20
21190.0
0
VERTEX
8
0
10
810.0
20
21180.0
0
VERTEX
8
0
10
790.0
20
21180.0
0
SEQEND
0
POLYLINE
8
0
66
1
10
0.0
20
0.0
30
0.0
0
VERTEX
8
0
10
792.5
20
21190.0
0
VERTEX
8
0
10
792.5
20
21192.0
0
VERTEX
8
0
10
787.5
20
21192.0
0
VERTEX
8
0
10
787.5
20
21190.0
0
VERTEX
8
0
10
792.5
20
21190.0
0
SEQEND
0
POLYLINE
8
0
66
1
10
0.0
20
0.0
30
0.0
0
VERTEX
8
0
10
787.5
20
21192.0
0
VERTEX
8
0
10
788.5048094716167
20
21195.75
0
VERTEX
8
0
10
791.25
20
21198.49519052838
0
VERTEX
8
0
10
795.0
20
21199.5
0
VERTEX
8
0
10
795.0
20
21197.0
0
VERTEX
8
0
10
792.5
20
21196.330127018922
0
VERTEX
8
0
10
790.6698729810778
20
21194.5
0
VERTEX
8
0
10
790.0
20
21192.0
0
VERTEX
8
0
10
787.5
20
21192.0
0
SEQEND
0
POLYLINE
8
0
66
1
10
0.0
20
0.0
30
0.0
0
VERTEX
8
0
10
790.0
20
21192.0
0
VERTEX
8
0
10
790.6698729810778
20
21194.5
0
VERTEX
8
0
10
792.5
20
21196.330127018922
0
VERTEX
8
0
10
795.0
20
21197.0
0
VERTEX
8
0
10
795.0
20
21194.5
0
VERTEX
8
0
10
793.75
20
21194.16506350946
0
VERTEX
8
0
10
792.8349364905389
20
21193.25
0
VERTEX
8
0
10
792.5
20
21192.0
0
VERTEX
8
0
10
790.0
20
21192.0
0
SEQEND
0
POLYLINE
8
0
66
1
10
0.0
20
0.0
30
0.0
0
VERTEX
8
0
10
795.0
20
21194.5
0
VERTEX
8
0
10
797.0
20
21194.5
0
VERTEX
8
0
10
797.0
20
21199.5
0
VERTEX
8
0
10
795.0
20
21199.5
0
VERTEX
8
0
10
795.0
20
21194.5
0
SEQEND
0
POLYLINE
8
0
66
1
10
0.0
20
0.0
30
0.0
0
VERTEX
8
0
10
797.0
20
21197.0
0
VERTEX
8
0
10
799.0
20
21197.0
0
VERTEX
8
0
10
799.0
20
21197.125
0
VERTEX
8
0
10
797.0
20
21199.5
0
VERTEX
8
0
10
797.0
20
21197.0
0
SEQEND
0
POLYLINE
8
0
66
1
10
0.0
20
0.0
30
0.0
0
VERTEX
8
0
10
797.0
20
21197.0
0
VERTEX
8
0
10
799.0
20
21197.0
0
VERTEX
8
0
10
799.0
20
21196.875
0
VERTEX
8
0
10
797.0
20
21194.5
0
VERTEX
8
0
10
797.0
20
21197.0
0
SEQEND
0
POLYLINE
8
0
66
1
10
0.0
20
0.0
30
0.0
0
VERTEX
8
0
10
799.0
20
21196.875
0
VERTEX
8
0
10
801.0
20
21196.875
0
VERTEX
8
0
10
801.0
20
21197.125
0
VERTEX
8
0
10
799.0
20
21197.125
0
VERTEX
8
0
10
799.0
20
21196.875
0
SEQEND
0
POLYLINE
8
0
66
1
10
0.0
20
0.0
30
0.0
0
VERTEX
8
0
10
801.15
20
21194.5
0
VERTEX
8
0
10
803.15
20
21194.5
0
VERTEX
8
0
10
803.15
20
21199.5
0
VERTEX
8
0
10
801.15
20
21199.5
0
VERTEX
8
0
10
801.15
20
21194.5
0
SEQEND
0
POLYLINE
8
0
66
1
10
0.0
20
0.0
30
0.0
0
VERTEX
8
0
10
803.15
20
21194.5
0
VERTEX
8
0
10
806.9
20
21195.50480947162
0
VERTEX
8
0
10
809.6451905283833
20
21198.25
0
VERTEX
8
0
10
810.65
20
21202.0
0
VERTEX
8
0
10
808.15
20
21202.0
0
VERTEX
8
0
10
807.4801270189222
20
21199.5
0
VERTEX
8
0
10
805.65
20
21197.669872981078
0
VERTEX
8
0
10
803.15
20
21197.0
0
VERTEX
8
0
10
803.15
20
21194.5
0
SEQEND
0
POLYLINE
8
0
66
1
10
0.0
20
0.0
30
0.0
0
VERTEX
8
0
10
803.15
20
21197.0
0
VERTEX
8
0
10
805.65
20
21197.669872981078
0
VERTEX
8
0
10
807.4801270189222
20
21199.5
0
VERTEX
8
0
10
808.15
20
21202.0
0
VERTEX
8
0
10
805.65
20
21202.0
0
VERTEX
8
0
10
805.3150635094611
20
21200.75
0
VERTEX
8
0
10
804.4
20
21199.83493649054
0
VERTEX
8
0
10
803.15
20
21199.5
0
VERTEX
8
0
10
803.15
20
21197.0
0
SEQEND
0
POLYLINE
8
0
66
1
10
0.0
20
0.0
30
0.0
0
VERTEX
8
0
10
810.65
20
21202.0
0
VERTEX
8
0
10
810.65
20
21204.0
0
VERTEX
8
0
10
805.65
20
21204.0
0
VERTEX
8
0
10
805.65
20
21202.0
0
VERTEX
8
0
10
810.65
20
21202.0
0
SEQEND
0
POLYLINE
8
0
66
1
10
0.0
20
0.0
30
0.0
0
VERTEX
8
0
10
808.15
20
21204.0
0
VERTEX
8
0
10
808.15
20
21214.0
0
VERTEX
8
0
10
788.15
20
21214.0
0
VERTEX
8
0
10
805.65
20
21204.0
0
VERTEX
8
0
10
808.15
20
21204.0
0
SEQEND
0
POLYLINE
8
0
66
1
10
0.0
20
0.0
30
0.0
0
VERTEX
8
0
10
808.15
20
21204.0
0
VERTEX
8
0
10
808.15
20
21214.0
0
VERTEX
8
0
10
828.15
20
21214.0
0
VERTEX
8
0
10
810.65
20
21204.0
0
VERTEX
8
0
10
808.15
20
21204.0
0
SEQEND
0
POLYLINE
8
0
66
1
10
0.0
20
0.0
30
0.0
0
VERTEX
8
0
10
828.15
20
21214.0
0
VERTEX
8
0
10
828.15
20
21229.0
0
VERTEX
8
0
10
788.15
20
21229.0
0
VERTEX
8
0
10
788.15
20
21214.0
0
VERTEX
8
0
10
828.15
20
21214.0
0
SEQEND
0
POLYLINE
8
0
66
1
10
0.0
20
0.0
30
0.0
0
VERTEX
8
0
10
810.0
20
2255.0
0
VERTEX
8
0
10
810.0
20
2270.0
0
VERTEX
8
0
10
770.0
20
2270.0
0
VERTEX
8
0
10
770.0
20
2255.0
0
VERTEX
8
0
10
810.0
20
2255.0
0
SEQEND
0
POLYLINE
8
0
66
1
10
0.0
20
0.0
30
0.0
0
VERTEX
8
0
10
790.0
20
2270.0
0
VERTEX
8
0
10
790.0
20
2280.0
0
VERTEX
8
0
10
787.5
20
2280.0
0
VERTEX
8
0
10
770.0
20
2270.0
0
VERTEX
8
0
10
790.0
20
2270.0
0
SEQEND
0
POLYLINE
8
0
66
1
10
0.0
20
0.0
30
0.0
0
VERTEX
8
0
10
790.0
20
2270.0
0
VERTEX
8
0
10
790.0
20
2280.0
0
VERTEX
8
0
10
792.5
20
2280.0
0
VERTEX
8
0
10
810.0
20
2270.0
0
VERTEX
8
0
10
790.0
20
2270.0
0
SEQEND
0
POLYLINE
8
0
66
1
10
0.0
20
0.0
30
0.0
0
VERTEX
8
0
10
792.5
20
2280.0
0
VERTEX
8
0
10
792.5
20
2282.0
0
VERTEX
8
0
10
787.5
20
2282.0
0
VERTEX
8
0
10
787.5
20
2280.0
0
VERTEX
8
0
10
792.5
20
2280.0
0
SEQEND
0
POLYLINE
8
0
66
1
10
0.0
20
0.0
30
0.0
0
VERTEX
8
0
10
787.5
20
2282.0
0
VERTEX
8
0
10
788.5048094716167
20
2285.75
0
VERTEX
8
0
10
791.25
20
2288.4951905283833
0
VERTEX
8
0
10
795.0
20
2289.5
0
VERTEX
8
0
10
795.0
20
2287.0
0
VERTEX
8
0
10
792.5
20
2286.330127018922
0
VERTEX
8
0
10
790.6698729810778
20
2284.5
0
VERTEX
8
0
10
790.0
20
2282.0
0
VERTEX
8
0
10
787.5
20
2282.0
0
SEQEND
0
POLYLINE
8
0
66
1
10
0.0
20
0.0
30
0.0
0
VERTEX
8
0
10
790.0
20
2282.0
0
VERTEX
8
0
10
790.6698729810778
20
2284.5
0
VERTEX
8
0
10
792.5
20
2286.330127018922
0
VERTEX
8
0
10
795.0
20
2287.0
0
VERTEX
8
0
10
795.0
20
2284.5
0
VERTEX
8
0
10
793.75
20
2284.165063509461
0
VERTEX
8
0
10
792.8349364905389
20
2283.25
0
VERTEX
8
0
10
792.5
20
2282.0
0
VERTEX
8
0
10
790.0
20
2282.0
0
SEQEND
0
POLYLINE
8
0
66
1
10
0.0
20
0.0
30
0.0
0
VERTEX
8
0
10
795.0
20
2284.5
0
VERTEX
8
0
10
797.0
20
2284.5
0
VERTEX
8
0
10
797.0
20
2289.5
0
VERTEX
8
0
10
795.0
20
2289.5
0
VERTEX
8
0
10
795.0
20
2284.5
0
SEQEND
0
POLYLINE
8
0
66
1
10
0.0
20
0.0
30
0.0
0
VERTEX
8
0
10
797.0
20
2287.0
0
VERTEX
8
0
10
799.0
20
2287.0
0
VERTEX
8
0
10
799.0
20
2287.125
0
VERTEX
8
0
10
797.0
20
2289.5
0
VERTEX
8
0
10
797.0
20
2287.0
0
SEQEND
0
POLYLINE
8
0
66
1
10
0.0
20
0.0
30
0.0
0
VERTEX
8
0
10
797.0
20
2287.0
0
VERTEX
8
0
10
799.0
20
2287.0
0
VERTEX
8
0
10
799.0
20
2286.875
0
VERTEX
8
0
10
797.0
20
2284.5
0
VERTEX
8
0
10
797.0
20
2287.0
0
SEQEND
0
POLYLINE
8
0
66
1
10
0.0
20
0.0
30
0.0
0
VERTEX
8
0
10
799.0
20
2286.875
0
VERTEX
8
0
10
801.0
20
2286.875
0
VERTEX
8
0
10
801.0
20
2287.125
0
VERTEX
8
0
10
799.0
20
2287.125
0
VERTEX
8
0
10
799.0
20
2286.875
0
SEQEND
0
POLYLINE
8
0
66
1
10
0.0
20
0.0
30
0.0
0
VERTEX
8
0
10
801.15
20
2284.5
0
VERTEX
8
0
10
803.15
20
2284.5
0
VERTEX
8
0
10
803.15
20
2289.5
0
VERTEX
8
0
10
801.15
20
2289.5
0
VERTEX
8
0
10
801.15
20
2284.5
0
SEQEND
0
POLYLINE
8
0
66
1
10
0.0
20
0.0
30
0.0
0
VERTEX
8
0
10
803.15
20
2284.5
0
VERTEX
8
0
10
806.9
20
2285.5048094716167
0
VERTEX
8
0
10
809.6451905283833
20
2288.25
0
VERTEX
8
0
10
810.65
20
2292.0
0
VERTEX
8
0
10
808.15
20
2292.0
0
VERTEX
8
0
10
807.4801270189222
20
2289.5
0
VERTEX
8
0
10
805.65
20
2287.669872981078
0
VERTEX
8
0
10
803.15
20
2287.0
0
VERTEX
8
0
10
803.15
20
2284.5
0
SEQEND
0
POLYLINE
8
0
66
1
10
0.0
20
0.0
30
0.0
0
VERTEX
8
0
10
803.15
20
2287.0
0
VERTEX
8
0
10
805.65
20
2287.669872981078
0
VERTEX
8
0
10
807.4801270189222
20
2289.5
0
VERTEX
8
0
10
808.15
20
2292.0
0
VERTEX
8
0
10
805.65
20
2292.0
0
VERTEX
8
0
10
805.3150635094611
20
2290.75
0
VERTEX
8
0
10
804.4
20
2289.834936490539
0
VERTEX
8
0
10
803.15
20
2289.5
0
VERTEX
8
0
10
803.15
20
2287.0
0
SEQEND
0
POLYLINE
8
0
66
1
10
0.0
20
0.0
30
0.0
0
VERTEX
8
0
10
810.65
20
2292.0
0
VERTEX
8
0
10
810.65
20
2294.0
0
VERTEX
8
0
10
805.65
20
2294.0
0
VERTEX
8
0
10
805.65
20
2292.0
0
VERTEX
8
0
10
810.65
20
2292.0
0
SEQEND
0
POLYLINE
8
0
66
1
10
0.0
20
0.0
30
0.0
0
VERTEX
8
0
10
808.15
20
2294.0
0
VERTEX
8
0
10
808.15
20
2304.0
0
VERTEX
8
0
10
788.15
20
2304.0
0
VERTEX
8
0
10
805.65
20
2294.0
0
VERTEX
8
0
10
808.15
20
2294.0
0
SEQEND
0
POLYLINE
8
0
66
1
10
0.0
20
0.0
30
0.0
0
VERTEX
8
0
10
808.15
20
2294.0
0
VERTEX
8
0
10
808.15
20
2304.0
0
VERTEX
8
0
10
828.15
20
2304.0
0
VERTEX
8
0
10
810.65
20
2294.0
0
VERTEX
8
0
10
808.15
20
2294.0
0
SEQEND
0
POLYLINE
8
0
66
1
10
0.0
20
0.0
30
0.0
0
VERTEX
8
0
10
828.15
20
2304.0
0
VERTEX
8
0
10
828.15
20
2319.0
0
VERTEX
8
0
10
788.15
20
2319.0
0
VERTEX
8
0
10
788.15
20
2304.0
0
VERTEX
8
0
10
828.15
20
2304.0
0
SEQEND
0
POLYLINE
8
0
66
1
10
0.0
20
0.0
30
0.0
0
VERTEX
8
0
10
810.0
20
4755.0
0
VERTEX
8
0
10
810.0
20
4770.0
0
VERTEX
8
0
10
770.0
20
4770.0
0
VERTEX
8
0
10
770.0
20
4755.0
0
VERTEX
8
0
10
810.0
20
4755.0
0
SEQEND
0
POLYLINE
8
0
66
1
10
0.0
20
0.0
30
0.0
0
VERTEX
8
0
10
790.0
20
4770.0
0
VERTEX
8
0
10
790.0
20
4780.0
0
VERTEX
8
0
10
787.5
20
4780.0
0
VERTEX
8
0
10
770.0
20
4770.0
0
VERTEX
8
0
10
790.0
20
4770.0
0
SEQEND
0
POLYLINE
8
0
66
1
10
0.0
20
0.0
30
0.0
0
VERTEX
8
0
10
790.0
20
4770.0
0
VERTEX
8
0
10
790.0
20
4780.0
0
VERTEX
8
0
10
792.5
20
4780.0
0
VERTEX
8
0
10
810.0
20
4770.0
0
VERTEX
8
0
10
790.0
20
4770.0
0
SEQEND
0
POLYLINE
8
0
66
1
10
0.0
20
0.0
30
0.0
0
VERTEX
8
0
10
792.5
20
4780.0
0
VERTEX
8
0
10
792.5
20
4782.0
0
VERTEX
8
0
10
787.5
20
4782.0
0
VERTEX
8
0
10
787.5
20
4780.0
0
VERTEX
8
0
10
792.5
20
4780.0
0
SEQEND
0
POLYLINE
8
0
66
1
10
0.0
20
0.0
30
0.0
0
VERTEX
8
0
10
787.5
20
4782.0
0
VERTEX
8
0
10
788.5048094716167
20
4785.75
0
VERTEX
8
0
10
791.25
20
4788.495190528383
0
VERTEX
8
0
10
795.0
20
4789.5
0
VERTEX
8
0
10
795.0
20
4787.0
0
VERTEX
8
0
10
792.5
20
4786.330127018922
0
VERTEX
8
0
10
790.6698729810778
20
4784.5
0
VERTEX
8
0
10
790.0
20
4782.0
0
VERTEX
8
0
10
787.5
20
4782.0
0
SEQEND
0
POLYLINE
8
0
66
1
10
0.0
20
0.0
30
0.0
0
VERTEX
8
0
10
790.0
20
4782.0
0
VERTEX
8
0
10
790.6698729810778
20
4784.5
0
VERTEX
8
0
10
792.5
20
4786.330127018922
0
VERTEX
8
0
10
795.0
20
4787.0
0
VERTEX
8
0
10
795.0
20
4784.5
0
VERTEX
8
0
10
793.75
20
4784.165063509461
0
VERTEX
8
0
10
792.8349364905389
20
4783.25
0
VERTEX
8
0
10
792.5
20
4782.0
0
VERTEX
8
0
10
790.0
20
4782.0
0
SEQEND
0
POLYLINE
8
0
66
1
10
0.0
20
0.0
30
0.0
0
VERTEX
8
0
10
795.0
20
4784.5
0
VERTEX
8
0
10
797.0
20
4784.5
0
VERTEX
8
0
10
797.0
20
4789.5
0
VERTEX
8
0
10
795.0
20
4789.5
0
VERTEX
8
0
10
795.0
20
4784.5
0
SEQEND
0
POLYLINE
8
0
66
1
10
0.0
20
0.0
30
0.0
0
VERTEX
8
0
10
797.0
20
4787.0
0
VERTEX
8
0
10
799.0
20
4787.0
0
VERTEX
8
0
10
799.0
20
4787.125
0
VERTEX
8
0
10
797.0
20
4789.5
0
VERTEX
8
0
10
797.0
20
4787.0
0
SEQEND
0
POLYLINE
8
0
66
1
10
0.0
20
0.0
30
0.0
0
VERTEX
8
0
10
797.0
20
4787.0
0
VERTEX
8
0
10
799.0
20
4787.0
0
VERTEX
8
0
10
799.0
20
4786.875
0
VERTEX
8
0
10
797.0
20
4784.5
0
VERTEX
8
0
10
797.0
20
4787.0
0
SEQEND
0
POLYLINE
8
0
66
1
10
0.0
20
0.0
30
0.0
0
VERTEX
8
0
10
799.0
20
4786.875
0
VERTEX
8
0
10
801.0
20
4786.875
0
VERTEX
8
0
10
801.0
20
4787.125
0
VERTEX
8
0
10
799.0
20
4787.125
0
VERTEX
8
0
10
799.0
20
4786.875
0
SEQEND
0
POLYLINE
8
0
66
1
10
0.0
20
0.0
30
0.0
0
VERTEX
8
0
10
801.15
20
4784.5
0
VERTEX
8
0
10
803.15
20
4784.5
0
VERTEX
8
0
10
803.15
20
4789.5
0
VERTEX
8
0
10
801.15
20
4789.5
0
VERTEX
8
0
10
801.15
20
4784.5
0
SEQEND
0
POLYLINE
8
0
66
1
10
0.0
20
0.0
30
0.0
0
VERTEX
8
0
10
803.15
20
4784.5
0
VERTEX
8
0
10
806.9
20
4785.504809471617
0
VERTEX
8
0
10
809.6451905283833
20
4788.25
0
VERTEX
8
0
10
810.65
20
4792.0
0
VERTEX
8
0
10
808.15
20
4792.0
0
VERTEX
8
0
10
807.4801270189222
20
4789.5
0
VERTEX
8
0
10
805.65
20
4787.669872981078
0
VERTEX
8
0
10
803.15
20
4787.0
0
VERTEX
8
0
10
803.15
20
4784.5
0
SEQEND
0
POLYLINE
8
0
66
1
10
0.0
20
0.0
30
0.0
0
VERTEX
8
0
10
803.15
20
4787.0
0
VERTEX
8
0
10
805.65
20
4787.669872981078
0
VERTEX
8
0
10
807.4801270189222
20
4789.5
0
VERTEX
8
0
10
808.15
20
4792.0
0
VERTEX
8
0
10
805.65
20
4792.0
0
VERTEX
8
0
10
805.3150635094611
20
4790.75
0
VERTEX
8
0
10
804.4
20
4789.834936490539
0
VERTEX
8
0
10
803.15
20
4789.5
0
VERTEX
8
0
10
803.15
20
4787.0
0
SEQEND
0
POLYLINE
8
0
66
1
10
0.0
20
0.0
30
0.0
0
VERTEX
8
0
10
810.65
20
4792.0
0
VERTEX
8
0
10
810.65
20
4794.0
0
VERTEX
8
0
10
805.65
20
4794.0
0
VERTEX
8
0
10
805.65
20
4792.0
0
VERTEX
8
0
10
810.65
20
4792.0
0
SEQEND
0
POLYLINE
8
0
66
1
10
0.0
20
0.0
30
0.0
0
VERTEX
8
0
10
808.15
20
4794.0
0
VERTEX
8
0
10
808.15
20
4804.0
0
VERTEX
8
0
10
788.15
20
4804.0
0
VERTEX
8
0
10
805.65
20
4794.0
0
VERTEX
8
0
10
808.15
20
4794.0
0
SEQEND
0
POLYLINE
8
0
66
1
10
0.0
20
0.0
30
0.0
0
VERTEX
8
0
10
808.15
20
4794.0
0
VERTEX
8
0
10
808.15
20
4804.0
0
VERTEX
8
0
10
828.15
20
4804.0
0
VERTEX
8
0
10
810.65
20
4794.0
0
VERTEX
8
0
10
808.15
20
4794.0
0
SEQEND
0
POLYLINE
8
0
66
1
10
0.0
20
0.0
30
0.0
0
VERTEX
8
0
10
828.15
20
4804.0
0
VERTEX
8
0
10
828.15
20
4819.0
0
VERTEX
8
0
10
788.15
20
4819.0
0
VERTEX
8
0
10
788.15
20
4804.0
0
VERTEX
8
0
10
828.15
20
4804.0
0
SEQEND
0
POLYLINE
8
0
66
1
10
0.0
20
0.0
30
0.0
0
VERTEX
8
0
10
810.0
20
7255.0
0
VERTEX
8
0
10
810.0
20
7270.0
0
VERTEX
8
0
10
770.0
20
7270.0
0
VERTEX
8
0
10
770.0
20
7255.0
0
VERTEX
8
0
10
810.0
20
7255.0
0
SEQEND
0
POLYLINE
8
0
66
1
10
0.0
20
0.0
30
0.0
0
VERTEX
8
0
10
790.0
20
7270.0
0
VERTEX
8
0
10
790.0
20
7280.0
0
VERTEX
8
0
10
787.5
20
7280.0
0
VERTEX
8
0
10
770.0
20
7270.0
0
VERTEX
8
0
10
790.0
20
7270.0
0
SEQEND
0
POLYLINE
8
0
66
1
10
0.0
20
0.0
30
0.0
0
VERTEX
8
0
10
790.0
20
7270.0
0
VERTEX
8
0
10
790.0
20
7280.0
0
VERTEX
8
0
10
792.5
20
7280.0
0
VERTEX
8
0
10
810.0
20
7270.0
0
VERTEX
8
0
10
790.0
20
7270.0
0
SEQEND
0
POLYLINE
8
0
66
1
10
0.0
20
0.0
30
0.0
0
VERTEX
8
0
10
792.5
20
7280.0
0
VERTEX
8
0
10
792.5
20
7282.0
0
VERTEX
8
0
10
787.5
20
7282.0
0
VERTEX
8
0
10
787.5
20
7280.0
0
VERTEX
8
0
10
792.5
20
7280.0
0
SEQEND
0
POLYLINE
8
0
66
1
10
0.0
20
0.0
30
0.0
0
VERTEX
8
0
10
787.5
20
7282.0
0
VERTEX
8
0
10
788.5048094716167
20
7285.75
0
VERTEX
8
0
10
791.25
20
7288.495190528383
0
VERTEX
8
0
10
795.0
20
7289.5
0
VERTEX
8
0
10
795.0
20
7287.0
0
VERTEX
8
0
10
792.5
20
7286.330127018922
0
VERTEX
8
0
10
790.6698729810778
20
7284.5
0
VERTEX
8
0
10
790.0
20
7282.0
0
VERTEX
8
0
10
787.5
20
7282.0
0
SEQEND
0
POLYLINE
8
0
66
1
10
0.0
20
0.0
30
0.0
0
VERTEX
8
0
10
790.0
20
7282.0
0
VERTEX
8
0
10
790.6698729810778
20
7284.5
0
VERTEX
8
0
10
792.5
20
7286.330127018922
0
VERTEX
8
0
10
795.0
20
7287.0
0
VERTEX
8
0
10
795.0
20
7284.5
0
VERTEX
8
0
10
793.75
20
7284.165063509461
0
VERTEX
8
0
10
792.8349364905389
20
7283.25
0
VERTEX
8
0
10
792.5
20
7282.0
0
VERTEX
8
0
10
790.0
20
7282.0
0
SEQEND
0
POLYLINE
8
0
66
1
10
0.0
20
0.0
30
0.0
0
VERTEX
8
0
10
795.0
20
7284.5
0
VERTEX
8
0
10
797.0
20
7284.5
0
VERTEX
8
0
10
797.0
20
7289.5
0
VERTEX
8
0
10
795.0
20
7289.5
0
VERTEX
8
0
10
795.0
20
7284.5
0
SEQEND
0
POLYLINE
8
0
66
1
10
0.0
20
0.0
30
0.0
0
VERTEX
8
0
10
797.0
20
7287.0
0
VERTEX
8
0
10
799.0
20
7287.0
0
VERTEX
8
0
10
799.0
20
7287.125
0
VERTEX
8
0
10
797.0
20
7289.5
0
VERTEX
8
0
10
797.0
20
7287.0
0
SEQEND
0
POLYLINE
8
0
66
1
10
0.0
20
0.0
30
0.0
0
VERTEX
8
0
10
797.0
20
7287.0
0
VERTEX
8
0
10
799.0
20
7287.0
0
VERTEX
8
0
10
799.0
20
7286.875
0
VERTEX
8
0
10
797.0
20
7284.5
0
VERTEX
8
0
10
797.0
20
7287.0
0
SEQEND
0
POLYLINE
8
0
66
1
10
0.0
20
0.0
30
0.0
0
VERTEX
8
0
10
799.0
20
7286.875
0
VERTEX
8
0
10
801.0
20
7286.875
0
VERTEX
8
0
10
801.0
20
7287.125
0
VERTEX
8
0
10
799.0
20
7287.125
0
VERTEX
8
0
10
799.0
20
7286.875
0
SEQEND
0
POLYLINE
8
0
66
1
10
0.0
20
0.0
30
0.0
0
VERTEX
8
0
10
801.15
20
7284.5
0
VERTEX
8
0
10
803.15
20
7284.5
0
VERTEX
8
0
10
803.15
20
7289.5
0
VERTEX
8
0
10
801.15
20
7289.5
0
VERTEX
8
0
10
801.15
20
7284.5
0
SEQEND
0
POLYLINE
8
0
66
1
10
0.0
20
0.0
30
0.0
0
VERTEX
8
0
10
803.15
20
7284.5
0
VERTEX
8
0
10
806.9
20
7285.504809471617
0
VERTEX
8
0
10
809.6451905283833
20
7288.25
0
VERTEX
8
0
10
810.65
20
7292.0
0
VERTEX
8
0
10
808.15
20
7292.0
0
VERTEX
8
0
10
807.4801270189222
20
7289.5
0
VERTEX
8
0
10
805.65
20
7287.669872981078
0
VERTEX
8
0
10
803.15
20
7287.0
0
VERTEX
8
0
10
803.15
20
7284.5
0
SEQEND
0
POLYLINE
8
0
66
1
10
0.0
20
0.0
30
0.0
0
VERTEX
8
0
10
803.15
20
7287.0
0
VERTEX
8
0
10
805.65
20
7287.669872981078
0
VERTEX
8
0
10
807.4801270189222
20
7289.5
0
VERTEX
8
0
10
808.15
20
7292.0
0
VERTEX
8
0
10
805.65
20
7292.0
0
VERTEX
8
0
10
805.3150635094611
20
7290.75
0
VERTEX
8
0
10
804.4
20
7289.834936490539
0
VERTEX
8
0
10
803.15
20
7289.5
0
VERTEX
8
0
10
803.15
20
7287.0
0
SEQEND
0
POLYLINE
8
0
66
1
10
0.0
20
0.0
30
0.0
0
VERTEX
8
0
10
810.65
20
7292.0
0
VERTEX
8
0
10
810.65
20
7294.0
0
VERTEX
8
0
10
805.65
20
7294.0
0
VERTEX
8
0
10
805.65
20
7292.0
0
VERTEX
8
0
10
810.65
20
7292.0
0
SEQEND
0
POLYLINE
8
0
66
1
10
0.0
20
0.0
30
0.0
0
VERTEX
8
0
10
808.15
20
7294.0
0
VERTEX
8
0
10
808.15
20
7304.0
0
VERTEX
8
0
10
788.15
20
7304.0
0
VERTEX
8
0
10
805.65
20
7294.0
0
VERTEX
8
0
10
808.15
20
7294.0
0
SEQEND
0
POLYLINE
8
0
66
1
10
0.0
20
0.0
30
0.0
0
VERTEX
8
0
10
808.15
20
7294.0
0
VERTEX
8
0
10
808.15
20
7304.0
0
VERTEX
8
0
10
828.15
20
7304.0
0
VERTEX
8
0
10
810.65
20
7294.0
0
VERTEX
8
0
10
808.15
20
7294.0
0
SEQEND
0
POLYLINE
8
0
66
1
10
0.0
20
0.0
30
0.0
0
VERTEX
8
0
10
828.15
20
7304.0
0
VERTEX
8
0
10
828.15
20
7319.0
0
VERTEX
8
0
10
788.15
20
7319.0
0
VERTEX
8
0
10
788.15
20
7304.0
0
VERTEX
8
0
10
828.15
20
7304.0
0
SEQEND
0
ENDBLK
0
BLOCK
8
0
2
C1D
70
0
10
0
20
0
30
0
3
C1D
0
POLYLINE
8
GAP
66
1
10
0.0
20
0.0
30
0.0
0
VERTEX
8
GAP
10
-200.0
20
26150.0
0
VERTEX
8
GAP
10
-100.0
20
26150.0
0
VERTEX
8
GAP
10
-100.0
20
26130.0
0
VERTEX
8
GAP
10
-180.0
20
26130.0
0
VERTEX
8
GAP
10
-180.0
20
26050.0
0
VERTEX
8
GAP
10
-200.0
20
26050.0
0
VERTEX
8
GAP
10
-200.0
20
26150.0
0
SEQEND
0
POLYLINE
8
GAP
66
1
10
0.0
20
0.0
30
0.0
0
VERTEX
8
GAP
10
-200.0
20
-200.0
0
VERTEX
8
GAP
10
-100.0
20
-200.0
0
VERTEX
8
GAP
10
-100.0
20
-180.0
0
VERTEX
8
GAP
10
-180.0
20
-180.0
0
VERTEX
8
GAP
10
-180.0
20
-100.0
0
VERTEX
8
GAP
10
-200.0
20
-100.0
0
VERTEX
8
GAP
10
-200.0
20
-200.0
0
SEQEND
0
POLYLINE
8
GAP
66
1
10
0.0
20
0.0
30
0.0
0
VERTEX
8
GAP
10
1800.0
20
-200.0
0
VERTEX
8
GAP
10
1700.0
20
-200.0
0
VERTEX
8
GAP
10
1700.0
20
-180.0
0
VERTEX
8
GAP
10
1780.0
20
-180.0
0
VERTEX
8
GAP
10
1780.0
20
-100.0
0
VERTEX
8
GAP
10
1800.0
20
-100.0
0
VERTEX
8
GAP
10
1800.0
20
-200.0
0
SEQEND
0
POLYLINE
8
GAP
66
1
10
0.0
20
0.0
30
0.0
0
VERTEX
8
GAP
10
1800.0
20
26150.0
0
VERTEX
8
GAP
10
1700.0
20
26150.0
0
VERTEX
8
GAP
10
1700.0
20
26130.0
0
VERTEX
8
GAP
10
1780.0
20
26130.0
0
VERTEX
8
GAP
10
1780.0
20
26050.0
0
VERTEX
8
GAP
10
1800.0
20
26050.0
0
VERTEX
8
GAP
10
1800.0
20
26150.0
0
SEQEND
0
POLYLINE
8
GAP
66
1
10
0.0
20
0.0
30
0.0
0
VERTEX
8
GAP
10
260.0
20
26150.0
0
VERTEX
8
GAP
10
340.0
20
26150.0
0
VERTEX
8
GAP
10
340.0
20
26130.0
0
VERTEX
8
GAP
10
260.0
20
26130.0
0
VERTEX
8
GAP
10
260.0
20
26150.0
0
SEQEND
0
POLYLINE
8
GAP
66
1
10
0.0
20
0.0
30
0.0
0
VERTEX
8
GAP
10
260.0
20
-200.0
0
VERTEX
8
GAP
10
340.0
20
-200.0
0
VERTEX
8
GAP
10
340.0
20
-180.0
0
VERTEX
8
GAP
10
260.0
20
-180.0
0
VERTEX
8
GAP
10
260.0
20
-200.0
0
SEQEND
0
POLYLINE
8
GAP
66
1
10
0.0
20
0.0
30
0.0
0
VERTEX
8
GAP
10
-200.0
20
6347.5
0
VERTEX
8
GAP
10
-200.0
20
6427.5
0
VERTEX
8
GAP
10
-180.0
20
6427.5
0
VERTEX
8
GAP
10
-180.0
20
6347.5
0
VERTEX
8
GAP
10
-200.0
20
6347.5
0
SEQEND
0
POLYLINE
8
GAP
66
1
10
0.0
20
0.0
30
0.0
0
VERTEX
8
GAP
10
1800.0
20
6347.5
0
VERTEX
8
GAP
10
1800.0
20
6427.5
0
VERTEX
8
GAP
10
1780.0
20
6427.5
0
VERTEX
8
GAP
10
1780.0
20
6347.5
0
VERTEX
8
GAP
10
1800.0
20
6347.5
0
SEQEND
0
POLYLINE
8
GAP
66
1
10
0.0
20
0.0
30
0.0
0
VERTEX
8
GAP
10
760.0
20
26150.0
0
VERTEX
8
GAP
10
840.0
20
26150.0
0
VERTEX
8
GAP
10
840.0
20
26130.0
0
VERTEX
8
GAP
10
760.0
20
26130.0
0
VERTEX
8
GAP
10
760.0
20
26150.0
0
SEQEND
0
POLYLINE
8
GAP
66
1
10
0.0
20
0.0
30
0.0
0
VERTEX
8
GAP
10
760.0
20
-200.0
0
VERTEX
8
GAP
10
840.0
20
-200.0
0
VERTEX
8
GAP
10
840.0
20
-180.0
0
VERTEX
8
GAP
10
760.0
20
-180.0
0
VERTEX
8
GAP
10
760.0
20
-200.0
0
SEQEND
0
POLYLINE
8
GAP
66
1
10
0.0
20
0.0
30
0.0
0
VERTEX
8
GAP
10
-200.0
20
12935.0
0
VERTEX
8
GAP
10
-200.0
20
13015.0
0
VERTEX
8
GAP
10
-180.0
20
13015.0
0
VERTEX
8
GAP
10
-180.0
20
12935.0
0
VERTEX
8
GAP
10
-200.0
20
12935.0
0
SEQEND
0
POLYLINE
8
GAP
66
1
10
0.0
20
0.0
30
0.0
0
VERTEX
8
GAP
10
1800.0
20
12935.0
0
VERTEX
8
GAP
10
1800.0
20
13015.0
0
VERTEX
8
GAP
10
1780.0
20
13015.0
0
VERTEX
8
GAP
10
1780.0
20
12935.0
0
VERTEX
8
GAP
10
1800.0
20
12935.0
0
SEQEND
0
POLYLINE
8
GAP
66
1
10
0.0
20
0.0
30
0.0
0
VERTEX
8
GAP
10
1260.0
20
26150.0
0
VERTEX
8
GAP
10
1340.0
20
26150.0
0
VERTEX
8
GAP
10
1340.0
20
26130.0
0
VERTEX
8
GAP
10
1260.0
20
26130.0
0
VERTEX
8
GAP
10
1260.0
20
26150.0
0
SEQEND
0
POLYLINE
8
GAP
66
1
10
0.0
20
0.0
30
0.0
0
VERTEX
8
GAP
10
1260.0
20
-200.0
0
VERTEX
8
GAP
10
1340.0
20
-200.0
0
VERTEX
8
GAP
10
1340.0
20
-180.0
0
VERTEX
8
GAP
10
1260.0
20
-180.0
0
VERTEX
8
GAP
10
1260.0
20
-200.0
0
SEQEND
0
POLYLINE
8
GAP
66
1
10
0.0
20
0.0
30
0.0
0
VERTEX
8
GAP
10
-200.0
20
19522.5
0
VERTEX
8
GAP
10
-200.0
20
19602.5
0
VERTEX
8
GAP
10
-180.0
20
19602.5
0
VERTEX
8
GAP
10
-180.0
20
19522.5
0
VERTEX
8
GAP
10
-200.0
20
19522.5
0
SEQEND
0
POLYLINE
8
GAP
66
1
10
0.0
20
0.0
30
0.0
0
VERTEX
8
GAP
10
1800.0
20
19522.5
0
VERTEX
8
GAP
10
1800.0
20
19602.5
0
VERTEX
8
GAP
10
1780.0
20
19602.5
0
VERTEX
8
GAP
10
1780.0
20
19522.5
0
VERTEX
8
GAP
10
1800.0
20
19522.5
0
SEQEND
0
ENDBLK
0
ENDSEC
0
SECTION
2
ENTITIES
0
INSERT
2
C1DGAP
8
GAP
10
0
20
0
0
INSERT
2
C1DPIN
8
PIN
10
0
20
0
0
INSERT
2
C1D
8
0
10
0
20
0
0
ENDSEC
0
EOF
