0
SECTION
2
HEADER
9
$ACADVER
1
AC1006
9
$INSBASE
10
0.0
20
0.0
30
0.0
9
$EXTMIN
10
0.0
20
0.0
9
$EXTMAX
10
0.0
20
0.0
0
ENDSEC
0
SECTION
2
TABLES
0
TABLE
2
LTYPE
70
1
0
LTYPE
2
CONTINUOUS
70
64
3
Solid line
72
65
73
0
40
0.0
0
ENDTAB
0
TABLE
2
LAYER
70
3
0
LAYER
2
PYDXF
70
64
62
7
6
continuous
0
LAYER
2
GAP
70
64
62
1
6
continuous
0
LAYER
2
PIN
70
64
62
3
6
continuous
0
ENDTAB
0
TABLE
2
STYLE
70
1
0
STYLE
2
STANDARD
70
0
40
0
41
40
50
50
71
0
42
1
3
ARIAL.TTF
4

0
ENDTAB
0
TABLE
2
VIEW
70
0
0
ENDTAB
0
ENDSEC
0
SECTION
2
BLOCKS
0
BLOCK
8
GAP
2
CHIPPLAYGAP
70
0
10
0
20
0
30
0
3
CHIPPLAYGAP
0
POLYLINE
8
0
66
1
10
0.0
20
0.0
30
0.0
0
VERTEX
8
0
10
1075.0
20
48133.01270189222
0
VERTEX
8
0
10
325.0
20
48566.02540378444
0
VERTEX
8
0
10
-174.99999999999997
20
47700.0
0
VERTEX
8
0
10
575.0
20
47266.98729810778
0
VERTEX
8
0
10
1075.0
20
48133.01270189222
0
SEQEND
0
POLYLINE
8
0
66
1
10
0.0
20
0.0
30
0.0
0
VERTEX
8
0
10
325.0
20
48566.02540378444
0
VERTEX
8
0
10
-175.00000000000009
20
48854.70053837926
0
VERTEX
8
0
10
-675.0
20
47988.675134594814
0
VERTEX
8
0
10
-174.99999999999997
20
47700.0
0
VERTEX
8
0
10
325.0
20
48566.02540378444
0
SEQEND
0
POLYLINE
8
0
66
1
10
0.0
20
0.0
30
0.0
0
VERTEX
8
0
10
75.0
20
48133.01270189222
0
VERTEX
8
0
10
-25.0
20
48190.747728811184
0
VERTEX
8
0
10
-874.9999999999999
20
46718.50454237764
0
VERTEX
8
0
10
-674.9999999999999
20
46833.974596215565
0
VERTEX
8
0
10
75.0
20
48133.01270189222
0
SEQEND
0
POLYLINE
8
0
66
1
10
0.0
20
0.0
30
0.0
0
VERTEX
8
0
10
75.0
20
48133.01270189222
0
VERTEX
8
0
10
-25.0
20
48190.747728811184
0
VERTEX
8
0
10
824.9999999999999
20
49662.99091524473
0
VERTEX
8
0
10
824.9999999999999
20
49432.05080756888
0
VERTEX
8
0
10
75.0
20
48133.01270189222
0
SEQEND
0
POLYLINE
8
GAP
66
1
10
0.0
20
0.0
30
0.0
0
VERTEX
8
GAP
10
5800.0
20
6430.0
0
VERTEX
8
GAP
10
5817.5
20
6430.0
0
VERTEX
8
GAP
10
5817.5
20
6465.0
0
VERTEX
8
GAP
10
5826.25
20
6438.75
0
VERTEX
8
GAP
10
5835.0
20
6465.0
0
VERTEX
8
GAP
10
5835.0
20
6430.0
0
VERTEX
8
GAP
10
5852.5
20
6430.0
0
VERTEX
8
GAP
10
5852.5
20
6500.0
0
VERTEX
8
GAP
10
5835.0
20
6500.0
0
VERTEX
8
GAP
10
5826.25
20
6473.75
0
VERTEX
8
GAP
10
5817.5
20
6500.0
0
VERTEX
8
GAP
10
5800.0
20
6500.0
0
VERTEX
8
GAP
10
5800.0
20
6430.0
0
VERTEX
8
GAP
10
5800.0
20
6430.0
0
SEQEND
0
POLYLINE
8
GAP
66
1
10
0.0
20
0.0
30
0.0
0
VERTEX
8
GAP
10
5870.0
20
6430.0
0
VERTEX
8
GAP
10
5870.0
20
6500.0
0
VERTEX
8
GAP
10
5922.5
20
6500.0
0
VERTEX
8
GAP
10
5922.5
20
6430.0
0
VERTEX
8
GAP
10
5905.0
20
6430.0
0
VERTEX
8
GAP
10
5905.0
20
6491.25
0
VERTEX
8
GAP
10
5887.5
20
6491.25
0
VERTEX
8
GAP
10
5887.5
20
6430.0
0
VERTEX
8
GAP
10
5870.0
20
6430.0
0
SEQEND
0
POLYLINE
8
GAP
66
1
10
0.0
20
0.0
30
0.0
0
VERTEX
8
GAP
10
5887.5
20
6465.0
0
VERTEX
8
GAP
10
5887.5
20
6473.75
0
VERTEX
8
GAP
10
5905.0
20
6473.75
0
VERTEX
8
GAP
10
5905.0
20
6465.0
0
VERTEX
8
GAP
10
5887.5
20
6465.0
0
SEQEND
0
POLYLINE
8
GAP
66
1
10
0.0
20
0.0
30
0.0
0
VERTEX
8
GAP
10
5940.0
20
6430.0
0
VERTEX
8
GAP
10
5992.5
20
6430.0
0
VERTEX
8
GAP
10
5992.5
20
6473.75
0
VERTEX
8
GAP
10
5957.5
20
6473.75
0
VERTEX
8
GAP
10
5957.5
20
6491.25
0
VERTEX
8
GAP
10
5992.5
20
6491.25
0
VERTEX
8
GAP
10
5992.5
20
6500.0
0
VERTEX
8
GAP
10
5940.0
20
6500.0
0
VERTEX
8
GAP
10
5940.0
20
6465.0
0
VERTEX
8
GAP
10
5975.0
20
6465.0
0
VERTEX
8
GAP
10
5975.0
20
6438.75
0
VERTEX
8
GAP
10
5940.0
20
6438.75
0
VERTEX
8
GAP
10
5940.0
20
6430.0
0
VERTEX
8
GAP
10
5940.0
20
6430.0
0
SEQEND
0
POLYLINE
8
GAP
66
1
10
0.0
20
0.0
30
0.0
0
VERTEX
8
GAP
10
6010.0
20
6430.0
0
VERTEX
8
GAP
10
6027.5
20
6430.0
0
VERTEX
8
GAP
10
6027.5
20
6456.25
0
VERTEX
8
GAP
10
6045.0
20
6430.0
0
VERTEX
8
GAP
10
6062.5
20
6430.0
0
VERTEX
8
GAP
10
6036.25
20
6465.0
0
VERTEX
8
GAP
10
6062.5
20
6500.0
0
VERTEX
8
GAP
10
6045.0
20
6500.0
0
VERTEX
8
GAP
10
6027.5
20
6473.75
0
VERTEX
8
GAP
10
6027.5
20
6500.0
0
VERTEX
8
GAP
10
6010.0
20
6500.0
0
VERTEX
8
GAP
10
6010.0
20
6430.0
0
VERTEX
8
GAP
10
6010.0
20
6430.0
0
SEQEND
0
POLYLINE
8
GAP
66
1
10
0.0
20
0.0
30
0.0
0
VERTEX
8
GAP
10
6080.0
20
6430.0
0
VERTEX
8
GAP
10
6097.5
20
6430.0
0
VERTEX
8
GAP
10
6097.5
20
6500.0
0
VERTEX
8
GAP
10
6080.0
20
6500.0
0
VERTEX
8
GAP
10
6080.0
20
6430.0
0
SEQEND
0
POLYLINE
8
GAP
66
1
10
0.0
20
0.0
30
0.0
0
VERTEX
8
GAP
10
6097.5
20
6465.0
0
VERTEX
8
GAP
10
6132.5
20
6465.0
0
VERTEX
8
GAP
10
6132.5
20
6500.0
0
VERTEX
8
GAP
10
6097.5
20
6500.0
0
VERTEX
8
GAP
10
6097.5
20
6491.25
0
VERTEX
8
GAP
10
6115.0
20
6491.25
0
VERTEX
8
GAP
10
6115.0
20
6473.75
0
VERTEX
8
GAP
10
6097.5
20
6473.75
0
VERTEX
8
GAP
10
6097.5
20
6465.0
0
SEQEND
0
POLYLINE
8
GAP
66
1
10
0.0
20
0.0
30
0.0
0
VERTEX
8
GAP
10
6150.0
20
6430.0
0
VERTEX
8
GAP
10
6150.0
20
6500.0
0
VERTEX
8
GAP
10
6167.5
20
6500.0
0
VERTEX
8
GAP
10
6167.5
20
6438.75
0
VERTEX
8
GAP
10
6202.5
20
6438.75
0
VERTEX
8
GAP
10
6202.5
20
6430.0
0
VERTEX
8
GAP
10
6150.0
20
6430.0
0
VERTEX
8
GAP
10
6150.0
20
6430.0
0
SEQEND
0
POLYLINE
8
GAP
66
1
10
0.0
20
0.0
30
0.0
0
VERTEX
8
GAP
10
6220.0
20
6430.0
0
VERTEX
8
GAP
10
6220.0
20
6500.0
0
VERTEX
8
GAP
10
6272.5
20
6500.0
0
VERTEX
8
GAP
10
6272.5
20
6430.0
0
VERTEX
8
GAP
10
6255.0
20
6430.0
0
VERTEX
8
GAP
10
6255.0
20
6491.25
0
VERTEX
8
GAP
10
6237.5
20
6491.25
0
VERTEX
8
GAP
10
6237.5
20
6430.0
0
VERTEX
8
GAP
10
6220.0
20
6430.0
0
SEQEND
0
POLYLINE
8
GAP
66
1
10
0.0
20
0.0
30
0.0
0
VERTEX
8
GAP
10
6237.5
20
6465.0
0
VERTEX
8
GAP
10
6237.5
20
6473.75
0
VERTEX
8
GAP
10
6255.0
20
6473.75
0
VERTEX
8
GAP
10
6255.0
20
6465.0
0
VERTEX
8
GAP
10
6237.5
20
6465.0
0
SEQEND
0
POLYLINE
8
GAP
66
1
10
0.0
20
0.0
30
0.0
0
VERTEX
8
GAP
10
6307.5
20
6430.0
0
VERTEX
8
GAP
10
6325.0
20
6430.0
0
VERTEX
8
GAP
10
6325.0
20
6456.25
0
VERTEX
8
GAP
10
6342.5
20
6500.0
0
VERTEX
8
GAP
10
6325.0
20
6500.0
0
VERTEX
8
GAP
10
6316.25
20
6465.0
0
VERTEX
8
GAP
10
6307.5
20
6500.0
0
VERTEX
8
GAP
10
6290.0
20
6500.0
0
VERTEX
8
GAP
10
6307.5
20
6456.25
0
VERTEX
8
GAP
10
6307.5
20
6430.0
0
VERTEX
8
GAP
10
6307.5
20
6430.0
0
SEQEND
0
POLYLINE
8
GAP
66
1
10
0.0
20
0.0
30
0.0
0
VERTEX
8
GAP
10
200.0
20
100.0
0
VERTEX
8
GAP
10
200.0
20
170.0
0
VERTEX
8
GAP
10
252.5
20
170.0
0
VERTEX
8
GAP
10
252.5
20
161.25
0
VERTEX
8
GAP
10
217.5
20
161.25
0
VERTEX
8
GAP
10
217.5
20
108.75
0
VERTEX
8
GAP
10
252.5
20
108.75
0
VERTEX
8
GAP
10
252.5
20
100.0
0
VERTEX
8
GAP
10
200.0
20
100.0
0
VERTEX
8
GAP
10
200.0
20
100.0
0
SEQEND
0
POLYLINE
8
GAP
66
1
10
0.0
20
0.0
30
0.0
0
VERTEX
8
GAP
10
270.0
20
100.0
0
VERTEX
8
GAP
10
287.5
20
100.0
0
VERTEX
8
GAP
10
287.5
20
135.0
0
VERTEX
8
GAP
10
305.0
20
135.0
0
VERTEX
8
GAP
10
305.0
20
100.0
0
VERTEX
8
GAP
10
322.5
20
100.0
0
VERTEX
8
GAP
10
322.5
20
170.0
0
VERTEX
8
GAP
10
305.0
20
170.0
0
VERTEX
8
GAP
10
305.0
20
143.75
0
VERTEX
8
GAP
10
287.5
20
143.75
0
VERTEX
8
GAP
10
287.5
20
170.0
0
VERTEX
8
GAP
10
270.0
20
170.0
0
VERTEX
8
GAP
10
270.0
20
100.0
0
VERTEX
8
GAP
10
270.0
20
100.0
0
SEQEND
0
POLYLINE
8
GAP
66
1
10
0.0
20
0.0
30
0.0
0
VERTEX
8
GAP
10
340.0
20
100.0
0
VERTEX
8
GAP
10
392.5
20
100.0
0
VERTEX
8
GAP
10
392.5
20
108.75
0
VERTEX
8
GAP
10
375.0
20
108.75
0
VERTEX
8
GAP
10
375.0
20
161.25
0
VERTEX
8
GAP
10
392.5
20
161.25
0
VERTEX
8
GAP
10
392.5
20
170.0
0
VERTEX
8
GAP
10
340.0
20
170.0
0
VERTEX
8
GAP
10
340.0
20
161.25
0
VERTEX
8
GAP
10
357.5
20
161.25
0
VERTEX
8
GAP
10
357.5
20
108.75
0
VERTEX
8
GAP
10
340.0
20
108.75
0
VERTEX
8
GAP
10
340.0
20
100.0
0
VERTEX
8
GAP
10
340.0
20
100.0
0
SEQEND
0
POLYLINE
8
GAP
66
1
10
0.0
20
0.0
30
0.0
0
VERTEX
8
GAP
10
410.0
20
100.0
0
VERTEX
8
GAP
10
427.5
20
100.0
0
VERTEX
8
GAP
10
427.5
20
170.0
0
VERTEX
8
GAP
10
410.0
20
170.0
0
VERTEX
8
GAP
10
410.0
20
100.0
0
SEQEND
0
POLYLINE
8
GAP
66
1
10
0.0
20
0.0
30
0.0
0
VERTEX
8
GAP
10
427.5
20
135.0
0
VERTEX
8
GAP
10
462.5
20
135.0
0
VERTEX
8
GAP
10
462.5
20
170.0
0
VERTEX
8
GAP
10
427.5
20
170.0
0
VERTEX
8
GAP
10
427.5
20
161.25
0
VERTEX
8
GAP
10
445.0
20
161.25
0
VERTEX
8
GAP
10
445.0
20
143.75
0
VERTEX
8
GAP
10
427.5
20
143.75
0
VERTEX
8
GAP
10
427.5
20
135.0
0
SEQEND
0
POLYLINE
8
GAP
66
1
10
0.0
20
0.0
30
0.0
0
VERTEX
8
GAP
10
480.0
20
100.0
0
VERTEX
8
GAP
10
497.5
20
100.0
0
VERTEX
8
GAP
10
497.5
20
170.0
0
VERTEX
8
GAP
10
480.0
20
170.0
0
VERTEX
8
GAP
10
480.0
20
100.0
0
SEQEND
0
POLYLINE
8
GAP
66
1
10
0.0
20
0.0
30
0.0
0
VERTEX
8
GAP
10
497.5
20
135.0
0
VERTEX
8
GAP
10
532.5
20
135.0
0
VERTEX
8
GAP
10
532.5
20
170.0
0
VERTEX
8
GAP
10
497.5
20
170.0
0
VERTEX
8
GAP
10
497.5
20
161.25
0
VERTEX
8
GAP
10
515.0
20
161.25
0
VERTEX
8
GAP
10
515.0
20
143.75
0
VERTEX
8
GAP
10
497.5
20
143.75
0
VERTEX
8
GAP
10
497.5
20
135.0
0
SEQEND
0
POLYLINE
8
GAP
66
1
10
0.0
20
0.0
30
0.0
0
VERTEX
8
GAP
10
550.0
20
100.0
0
VERTEX
8
GAP
10
550.0
20
170.0
0
VERTEX
8
GAP
10
567.5
20
170.0
0
VERTEX
8
GAP
10
567.5
20
108.75
0
VERTEX
8
GAP
10
602.5
20
108.75
0
VERTEX
8
GAP
10
602.5
20
100.0
0
VERTEX
8
GAP
10
550.0
20
100.0
0
VERTEX
8
GAP
10
550.0
20
100.0
0
SEQEND
0
POLYLINE
8
GAP
66
1
10
0.0
20
0.0
30
0.0
0
VERTEX
8
GAP
10
620.0
20
100.0
0
VERTEX
8
GAP
10
620.0
20
170.0
0
VERTEX
8
GAP
10
672.5
20
170.0
0
VERTEX
8
GAP
10
672.5
20
100.0
0
VERTEX
8
GAP
10
655.0
20
100.0
0
VERTEX
8
GAP
10
655.0
20
161.25
0
VERTEX
8
GAP
10
637.5
20
161.25
0
VERTEX
8
GAP
10
637.5
20
100.0
0
VERTEX
8
GAP
10
620.0
20
100.0
0
SEQEND
0
POLYLINE
8
GAP
66
1
10
0.0
20
0.0
30
0.0
0
VERTEX
8
GAP
10
637.5
20
135.0
0
VERTEX
8
GAP
10
637.5
20
143.75
0
VERTEX
8
GAP
10
655.0
20
143.75
0
VERTEX
8
GAP
10
655.0
20
135.0
0
VERTEX
8
GAP
10
637.5
20
135.0
0
SEQEND
0
POLYLINE
8
GAP
66
1
10
0.0
20
0.0
30
0.0
0
VERTEX
8
GAP
10
707.5
20
100.0
0
VERTEX
8
GAP
10
725.0
20
100.0
0
VERTEX
8
GAP
10
725.0
20
126.25
0
VERTEX
8
GAP
10
742.5
20
170.0
0
VERTEX
8
GAP
10
725.0
20
170.0
0
VERTEX
8
GAP
10
716.25
20
135.0
0
VERTEX
8
GAP
10
707.5
20
170.0
0
VERTEX
8
GAP
10
690.0
20
170.0
0
VERTEX
8
GAP
10
707.5
20
126.25
0
VERTEX
8
GAP
10
707.5
20
100.0
0
VERTEX
8
GAP
10
707.5
20
100.0
0
SEQEND
0
POLYLINE
8
GAP
66
1
10
0.0
20
0.0
30
0.0
0
VERTEX
8
GAP
10
6620.0
20
100.0
0
VERTEX
8
GAP
10
6620.0
20
170.0
0
VERTEX
8
GAP
10
6672.5
20
170.0
0
VERTEX
8
GAP
10
6672.5
20
161.25
0
VERTEX
8
GAP
10
6637.5
20
161.25
0
VERTEX
8
GAP
10
6637.5
20
143.75
0
VERTEX
8
GAP
10
6655.0
20
143.75
0
VERTEX
8
GAP
10
6655.0
20
135.0
0
VERTEX
8
GAP
10
6637.5
20
135.0
0
VERTEX
8
GAP
10
6637.5
20
108.75
0
VERTEX
8
GAP
10
6672.5
20
108.75
0
VERTEX
8
GAP
10
6672.5
20
100.0
0
VERTEX
8
GAP
10
6620.0
20
100.0
0
VERTEX
8
GAP
10
6620.0
20
100.0
0
SEQEND
0
POLYLINE
8
GAP
66
1
10
0.0
20
0.0
30
0.0
0
VERTEX
8
GAP
10
6690.0
20
100.0
0
VERTEX
8
GAP
10
6690.0
20
170.0
0
VERTEX
8
GAP
10
6742.5
20
170.0
0
VERTEX
8
GAP
10
6742.5
20
161.25
0
VERTEX
8
GAP
10
6707.5
20
161.25
0
VERTEX
8
GAP
10
6707.5
20
143.75
0
VERTEX
8
GAP
10
6725.0
20
143.75
0
VERTEX
8
GAP
10
6725.0
20
135.0
0
VERTEX
8
GAP
10
6707.5
20
135.0
0
VERTEX
8
GAP
10
6707.5
20
108.75
0
VERTEX
8
GAP
10
6742.5
20
108.75
0
VERTEX
8
GAP
10
6742.5
20
100.0
0
VERTEX
8
GAP
10
6690.0
20
100.0
0
VERTEX
8
GAP
10
6690.0
20
100.0
0
SEQEND
0
POLYLINE
8
GAP
66
1
10
0.0
20
0.0
30
0.0
0
VERTEX
8
GAP
10
6760.0
20
100.0
0
VERTEX
8
GAP
10
6812.5
20
100.0
0
VERTEX
8
GAP
10
6812.5
20
143.75
0
VERTEX
8
GAP
10
6777.5
20
143.75
0
VERTEX
8
GAP
10
6777.5
20
161.25
0
VERTEX
8
GAP
10
6812.5
20
161.25
0
VERTEX
8
GAP
10
6812.5
20
170.0
0
VERTEX
8
GAP
10
6760.0
20
170.0
0
VERTEX
8
GAP
10
6760.0
20
135.0
0
VERTEX
8
GAP
10
6795.0
20
135.0
0
VERTEX
8
GAP
10
6795.0
20
108.75
0
VERTEX
8
GAP
10
6760.0
20
108.75
0
VERTEX
8
GAP
10
6760.0
20
100.0
0
VERTEX
8
GAP
10
6760.0
20
100.0
0
SEQEND
0
POLYLINE
8
GAP
66
1
10
0.0
20
0.0
30
0.0
0
VERTEX
8
GAP
10
6830.0
20
100.0
0
VERTEX
8
GAP
10
6847.5
20
100.0
0
VERTEX
8
GAP
10
6847.5
20
135.0
0
VERTEX
8
GAP
10
6865.0
20
135.0
0
VERTEX
8
GAP
10
6865.0
20
100.0
0
VERTEX
8
GAP
10
6882.5
20
100.0
0
VERTEX
8
GAP
10
6882.5
20
170.0
0
VERTEX
8
GAP
10
6865.0
20
170.0
0
VERTEX
8
GAP
10
6865.0
20
143.75
0
VERTEX
8
GAP
10
6847.5
20
143.75
0
VERTEX
8
GAP
10
6847.5
20
170.0
0
VERTEX
8
GAP
10
6830.0
20
170.0
0
VERTEX
8
GAP
10
6830.0
20
100.0
0
VERTEX
8
GAP
10
6830.0
20
100.0
0
SEQEND
0
ENDBLK
0
BLOCK
8
PIN
2
CHIPPLAYPIN
70
0
10
0
20
0
30
0
3
CHIPPLAYPIN
0
POLYLINE
8
0
66
1
10
0.0
20
0.0
30
0.0
0
VERTEX
8
0
10
75.0
20
48133.01270189222
0
VERTEX
8
0
10
-25.0
20
48190.747728811184
0
VERTEX
8
0
10
-774.9999999999999
20
46891.70962313453
0
VERTEX
8
0
10
-674.9999999999999
20
46833.974596215565
0
VERTEX
8
0
10
75.0
20
48133.01270189222
0
SEQEND
0
POLYLINE
8
0
66
1
10
0.0
20
0.0
30
0.0
0
VERTEX
8
0
10
75.0
20
48133.01270189222
0
VERTEX
8
0
10
-25.0
20
48190.747728811184
0
VERTEX
8
0
10
724.9999999999999
20
49489.78583448784
0
VERTEX
8
0
10
824.9999999999999
20
49432.05080756888
0
VERTEX
8
0
10
75.0
20
48133.01270189222
0
SEQEND
0
ENDBLK
0
BLOCK
8
0
2
CHIPPLAY
70
0
10
0
20
0
30
0
3
CHIPPLAY
0
POLYLINE
8
GAP
66
1
10
0.0
20
0.0
30
0.0
0
VERTEX
8
GAP
10
-100.0
20
48400.0
0
VERTEX
8
GAP
10
0.0
20
48400.0
0
VERTEX
8
GAP
10
0.0
20
48380.0
0
VERTEX
8
GAP
10
-80.0
20
48380.0
0
VERTEX
8
GAP
10
-80.0
20
48300.0
0
VERTEX
8
GAP
10
-100.0
20
48300.0
0
VERTEX
8
GAP
10
-100.0
20
48400.0
0
SEQEND
0
POLYLINE
8
GAP
66
1
10
0.0
20
0.0
30
0.0
0
VERTEX
8
GAP
10
-100.0
20
-100.0
0
VERTEX
8
GAP
10
0.0
20
-100.0
0
VERTEX
8
GAP
10
0.0
20
-80.0
0
VERTEX
8
GAP
10
-80.0
20
-80.0
0
VERTEX
8
GAP
10
-80.0
20
0.0
0
VERTEX
8
GAP
10
-100.0
20
0.0
0
VERTEX
8
GAP
10
-100.0
20
-100.0
0
SEQEND
0
POLYLINE
8
GAP
66
1
10
0.0
20
0.0
30
0.0
0
VERTEX
8
GAP
10
5550.0
20
-100.0
0
VERTEX
8
GAP
10
5450.0
20
-100.0
0
VERTEX
8
GAP
10
5450.0
20
-80.0
0
VERTEX
8
GAP
10
5530.0
20
-80.0
0
VERTEX
8
GAP
10
5530.0
20
0.0
0
VERTEX
8
GAP
10
5550.0
20
0.0
0
VERTEX
8
GAP
10
5550.0
20
-100.0
0
SEQEND
0
POLYLINE
8
GAP
66
1
10
0.0
20
0.0
30
0.0
0
VERTEX
8
GAP
10
5550.0
20
48400.0
0
VERTEX
8
GAP
10
5450.0
20
48400.0
0
VERTEX
8
GAP
10
5450.0
20
48380.0
0
VERTEX
8
GAP
10
5530.0
20
48380.0
0
VERTEX
8
GAP
10
5530.0
20
48300.0
0
VERTEX
8
GAP
10
5550.0
20
48300.0
0
VERTEX
8
GAP
10
5550.0
20
48400.0
0
SEQEND
0
POLYLINE
8
GAP
66
1
10
0.0
20
0.0
30
0.0
0
VERTEX
8
GAP
10
667.1428571428571
20
48400.0
0
VERTEX
8
GAP
10
747.1428571428571
20
48400.0
0
VERTEX
8
GAP
10
747.1428571428571
20
48380.0
0
VERTEX
8
GAP
10
667.1428571428571
20
48380.0
0
VERTEX
8
GAP
10
667.1428571428571
20
48400.0
0
SEQEND
0
POLYLINE
8
GAP
66
1
10
0.0
20
0.0
30
0.0
0
VERTEX
8
GAP
10
667.1428571428571
20
-100.0
0
VERTEX
8
GAP
10
747.1428571428571
20
-100.0
0
VERTEX
8
GAP
10
747.1428571428571
20
-80.0
0
VERTEX
8
GAP
10
667.1428571428571
20
-80.0
0
VERTEX
8
GAP
10
667.1428571428571
20
-100.0
0
SEQEND
0
POLYLINE
8
GAP
66
1
10
0.0
20
0.0
30
0.0
0
VERTEX
8
GAP
10
-100.0
20
6788.571428571428
0
VERTEX
8
GAP
10
-100.0
20
6868.571428571428
0
VERTEX
8
GAP
10
-80.0
20
6868.571428571428
0
VERTEX
8
GAP
10
-80.0
20
6788.571428571428
0
VERTEX
8
GAP
10
-100.0
20
6788.571428571428
0
SEQEND
0
POLYLINE
8
GAP
66
1
10
0.0
20
0.0
30
0.0
0
VERTEX
8
GAP
10
5550.0
20
6788.571428571428
0
VERTEX
8
GAP
10
5550.0
20
6868.571428571428
0
VERTEX
8
GAP
10
5530.0
20
6868.571428571428
0
VERTEX
8
GAP
10
5530.0
20
6788.571428571428
0
VERTEX
8
GAP
10
5550.0
20
6788.571428571428
0
SEQEND
0
POLYLINE
8
GAP
66
1
10
0.0
20
0.0
30
0.0
0
VERTEX
8
GAP
10
1474.2857142857142
20
48400.0
0
VERTEX
8
GAP
10
1554.2857142857142
20
48400.0
0
VERTEX
8
GAP
10
1554.2857142857142
20
48380.0
0
VERTEX
8
GAP
10
1474.2857142857142
20
48380.0
0
VERTEX
8
GAP
10
1474.2857142857142
20
48400.0
0
SEQEND
0
POLYLINE
8
GAP
66
1
10
0.0
20
0.0
30
0.0
0
VERTEX
8
GAP
10
1474.2857142857142
20
-100.0
0
VERTEX
8
GAP
10
1554.2857142857142
20
-100.0
0
VERTEX
8
GAP
10
1554.2857142857142
20
-80.0
0
VERTEX
8
GAP
10
1474.2857142857142
20
-80.0
0
VERTEX
8
GAP
10
1474.2857142857142
20
-100.0
0
SEQEND
0
POLYLINE
8
GAP
66
1
10
0.0
20
0.0
30
0.0
0
VERTEX
8
GAP
10
-100.0
20
13717.142857142857
0
VERTEX
8
GAP
10
-100.0
20
13797.142857142857
0
VERTEX
8
GAP
10
-80.0
20
13797.142857142857
0
VERTEX
8
GAP
10
-80.0
20
13717.142857142857
0
VERTEX
8
GAP
10
-100.0
20
13717.142857142857
0
SEQEND
0
POLYLINE
8
GAP
66
1
10
0.0
20
0.0
30
0.0
0
VERTEX
8
GAP
10
5550.0
20
13717.142857142857
0
VERTEX
8
GAP
10
5550.0
20
13797.142857142857
0
VERTEX
8
GAP
10
5530.0
20
13797.142857142857
0
VERTEX
8
GAP
10
5530.0
20
13717.142857142857
0
VERTEX
8
GAP
10
5550.0
20
13717.142857142857
0
SEQEND
0
POLYLINE
8
GAP
66
1
10
0.0
20
0.0
30
0.0
0
VERTEX
8
GAP
10
2281.428571428571
20
48400.0
0
VERTEX
8
GAP
10
2361.428571428571
20
48400.0
0
VERTEX
8
GAP
10
2361.428571428571
20
48380.0
0
VERTEX
8
GAP
10
2281.428571428571
20
48380.0
0
VERTEX
8
GAP
10
2281.428571428571
20
48400.0
0
SEQEND
0
POLYLINE
8
GAP
66
1
10
0.0
20
0.0
30
0.0
0
VERTEX
8
GAP
10
2281.428571428571
20
-100.0
0
VERTEX
8
GAP
10
2361.428571428571
20
-100.0
0
VERTEX
8
GAP
10
2361.428571428571
20
-80.0
0
VERTEX
8
GAP
10
2281.428571428571
20
-80.0
0
VERTEX
8
GAP
10
2281.428571428571
20
-100.0
0
SEQEND
0
POLYLINE
8
GAP
66
1
10
0.0
20
0.0
30
0.0
0
VERTEX
8
GAP
10
-100.0
20
20645.714285714286
0
VERTEX
8
GAP
10
-100.0
20
20725.714285714286
0
VERTEX
8
GAP
10
-80.0
20
20725.714285714286
0
VERTEX
8
GAP
10
-80.0
20
20645.714285714286
0
VERTEX
8
GAP
10
-100.0
20
20645.714285714286
0
SEQEND
0
POLYLINE
8
GAP
66
1
10
0.0
20
0.0
30
0.0
0
VERTEX
8
GAP
10
5550.0
20
20645.714285714286
0
VERTEX
8
GAP
10
5550.0
20
20725.714285714286
0
VERTEX
8
GAP
10
5530.0
20
20725.714285714286
0
VERTEX
8
GAP
10
5530.0
20
20645.714285714286
0
VERTEX
8
GAP
10
5550.0
20
20645.714285714286
0
SEQEND
0
POLYLINE
8
GAP
66
1
10
0.0
20
0.0
30
0.0
0
VERTEX
8
GAP
10
3088.5714285714284
20
48400.0
0
VERTEX
8
GAP
10
3168.5714285714284
20
48400.0
0
VERTEX
8
GAP
10
3168.5714285714284
20
48380.0
0
VERTEX
8
GAP
10
3088.5714285714284
20
48380.0
0
VERTEX
8
GAP
10
3088.5714285714284
20
48400.0
0
SEQEND
0
POLYLINE
8
GAP
66
1
10
0.0
20
0.0
30
0.0
0
VERTEX
8
GAP
10
3088.5714285714284
20
-100.0
0
VERTEX
8
GAP
10
3168.5714285714284
20
-100.0
0
VERTEX
8
GAP
10
3168.5714285714284
20
-80.0
0
VERTEX
8
GAP
10
3088.5714285714284
20
-80.0
0
VERTEX
8
GAP
10
3088.5714285714284
20
-100.0
0
SEQEND
0
POLYLINE
8
GAP
66
1
10
0.0
20
0.0
30
0.0
0
VERTEX
8
GAP
10
-100.0
20
27574.285714285714
0
VERTEX
8
GAP
10
-100.0
20
27654.285714285714
0
VERTEX
8
GAP
10
-80.0
20
27654.285714285714
0
VERTEX
8
GAP
10
-80.0
20
27574.285714285714
0
VERTEX
8
GAP
10
-100.0
20
27574.285714285714
0
SEQEND
0
POLYLINE
8
GAP
66
1
10
0.0
20
0.0
30
0.0
0
VERTEX
8
GAP
10
5550.0
20
27574.285714285714
0
VERTEX
8
GAP
10
5550.0
20
27654.285714285714
0
VERTEX
8
GAP
10
5530.0
20
27654.285714285714
0
VERTEX
8
GAP
10
5530.0
20
27574.285714285714
0
VERTEX
8
GAP
10
5550.0
20
27574.285714285714
0
SEQEND
0
POLYLINE
8
GAP
66
1
10
0.0
20
0.0
30
0.0
0
VERTEX
8
GAP
10
3895.714285714286
20
48400.0
0
VERTEX
8
GAP
10
3975.714285714286
20
48400.0
0
VERTEX
8
GAP
10
3975.714285714286
20
48380.0
0
VERTEX
8
GAP
10
3895.714285714286
20
48380.0
0
VERTEX
8
GAP
10
3895.714285714286
20
48400.0
0
SEQEND
0
POLYLINE
8
GAP
66
1
10
0.0
20
0.0
30
0.0
0
VERTEX
8
GAP
10
3895.714285714286
20
-100.0
0
VERTEX
8
GAP
10
3975.714285714286
20
-100.0
0
VERTEX
8
GAP
10
3975.714285714286
20
-80.0
0
VERTEX
8
GAP
10
3895.714285714286
20
-80.0
0
VERTEX
8
GAP
10
3895.714285714286
20
-100.0
0
SEQEND
0
POLYLINE
8
GAP
66
1
10
0.0
20
0.0
30
0.0
0
VERTEX
8
GAP
10
-100.0
20
34502.857142857145
0
VERTEX
8
GAP
10
-100.0
20
34582.857142857145
0
VERTEX
8
GAP
10
-80.0
20
34582.857142857145
0
VERTEX
8
GAP
10
-80.0
20
34502.857142857145
0
VERTEX
8
GAP
10
-100.0
20
34502.857142857145
0
SEQEND
0
POLYLINE
8
GAP
66
1
10
0.0
20
0.0
30
0.0
0
VERTEX
8
GAP
10
5550.0
20
34502.857142857145
0
VERTEX
8
GAP
10
5550.0
20
34582.857142857145
0
VERTEX
8
GAP
10
5530.0
20
34582.857142857145
0
VERTEX
8
GAP
10
5530.0
20
34502.857142857145
0
VERTEX
8
GAP
10
5550.0
20
34502.857142857145
0
SEQEND
0
POLYLINE
8
GAP
66
1
10
0.0
20
0.0
30
0.0
0
VERTEX
8
GAP
10
4702.857142857142
20
48400.0
0
VERTEX
8
GAP
10
4782.857142857142
20
48400.0
0
VERTEX
8
GAP
10
4782.857142857142
20
48380.0
0
VERTEX
8
GAP
10
4702.857142857142
20
48380.0
0
VERTEX
8
GAP
10
4702.857142857142
20
48400.0
0
SEQEND
0
POLYLINE
8
GAP
66
1
10
0.0
20
0.0
30
0.0
0
VERTEX
8
GAP
10
4702.857142857142
20
-100.0
0
VERTEX
8
GAP
10
4782.857142857142
20
-100.0
0
VERTEX
8
GAP
10
4782.857142857142
20
-80.0
0
VERTEX
8
GAP
10
4702.857142857142
20
-80.0
0
VERTEX
8
GAP
10
4702.857142857142
20
-100.0
0
SEQEND
0
POLYLINE
8
GAP
66
1
10
0.0
20
0.0
30
0.0
0
VERTEX
8
GAP
10
-100.0
20
41431.42857142857
0
VERTEX
8
GAP
10
-100.0
20
41511.42857142857
0
VERTEX
8
GAP
10
-80.0
20
41511.42857142857
0
VERTEX
8
GAP
10
-80.0
20
41431.42857142857
0
VERTEX
8
GAP
10
-100.0
20
41431.42857142857
0
SEQEND
0
POLYLINE
8
GAP
66
1
10
0.0
20
0.0
30
0.0
0
VERTEX
8
GAP
10
5550.0
20
41431.42857142857
0
VERTEX
8
GAP
10
5550.0
20
41511.42857142857
0
VERTEX
8
GAP
10
5530.0
20
41511.42857142857
0
VERTEX
8
GAP
10
5530.0
20
41431.42857142857
0
VERTEX
8
GAP
10
5550.0
20
41431.42857142857
0
SEQEND
0
ENDBLK
0
ENDSEC
0
SECTION
2
ENTITIES
0
INSERT
2
CHIPPLAYGAP
8
GAP
10
0
20
0
0
INSERT
2
CHIPPLAYPIN
8
PIN
10
0
20
0
0
INSERT
2
CHIPPLAY
8
0
10
0
20
0
0
ENDSEC
0
EOF
