0
SECTION
2
HEADER
9
$ACADVER
1
AC1006
9
$INSBASE
10
0.0
20
0.0
30
0.0
9
$EXTMIN
10
0.0
20
0.0
9
$EXTMAX
10
0.0
20
0.0
0
ENDSEC
0
SECTION
2
TABLES
0
TABLE
2
LTYPE
70
1
0
LTYPE
2
CONTINUOUS
70
64
3
Solid line
72
65
73
0
40
0.0
0
ENDTAB
0
TABLE
2
LAYER
70
3
0
LAYER
2
PYDXF
70
64
62
7
6
continuous
0
LAYER
2
GAP
70
64
62
1
6
continuous
0
LAYER
2
PIN
70
64
62
3
6
continuous
0
ENDTAB
0
TABLE
2
STYLE
70
1
0
STYLE
2
STANDARD
70
0
40
0
41
40
50
50
71
0
42
1
3
ARIAL.TTF
4

0
ENDTAB
0
TABLE
2
VIEW
70
0
0
ENDTAB
0
ENDSEC
0
SECTION
2
BLOCKS
0
BLOCK
8
GAP
2
Q4GAP
70
0
10
0
20
0
30
0
3
Q4GAP
0
POLYLINE
8
0
66
1
10
0.0
20
0.0
30
0.0
0
VERTEX
8
0
10
810.7000000000007
20
21113.3
0
VERTEX
8
0
10
810.7000000000007
20
21114.0
0
VERTEX
8
0
10
789.2999999999993
20
21114.0
0
VERTEX
8
0
10
789.2999999999993
20
21113.3
0
VERTEX
8
0
10
810.7000000000007
20
21113.3
0
SEQEND
0
POLYLINE
8
0
66
1
10
0.0
20
0.0
30
0.0
0
VERTEX
8
0
10
790.0
20
21114.0
0
VERTEX
8
0
10
790.0
20
21131.0
0
VERTEX
8
0
10
789.2999999999993
20
21131.0
0
VERTEX
8
0
10
789.2999999999993
20
21114.0
0
VERTEX
8
0
10
790.0
20
21114.0
0
SEQEND
0
POLYLINE
8
0
66
1
10
0.0
20
0.0
30
0.0
0
VERTEX
8
0
10
810.0
20
21114.0
0
VERTEX
8
0
10
810.0
20
21131.0
0
VERTEX
8
0
10
810.7000000000007
20
21131.0
0
VERTEX
8
0
10
810.7000000000007
20
21114.0
0
VERTEX
8
0
10
810.0
20
21114.0
0
SEQEND
0
POLYLINE
8
0
66
1
10
0.0
20
0.0
30
0.0
0
VERTEX
8
0
10
790.0
20
21131.0
0
VERTEX
8
0
10
799.8250000000007
20
21136.0
0
VERTEX
8
0
10
799.125
20
21136.0
0
VERTEX
8
0
10
789.2999999999993
20
21131.0
0
VERTEX
8
0
10
790.0
20
21131.0
0
SEQEND
0
POLYLINE
8
0
66
1
10
0.0
20
0.0
30
0.0
0
VERTEX
8
0
10
810.0
20
21131.0
0
VERTEX
8
0
10
800.1749999999993
20
21136.0
0
VERTEX
8
0
10
800.875
20
21136.0
0
VERTEX
8
0
10
810.7000000000007
20
21131.0
0
VERTEX
8
0
10
810.0
20
21131.0
0
SEQEND
0
POLYLINE
8
0
66
1
10
0.0
20
0.0
30
0.0
0
VERTEX
8
0
10
799.8250000000007
20
21136.0
0
VERTEX
8
0
10
799.8250000000007
20
21144.0
0
VERTEX
8
0
10
799.625
20
21144.0
0
VERTEX
8
0
10
799.625
20
21136.0
0
VERTEX
8
0
10
799.8250000000007
20
21136.0
0
SEQEND
0
POLYLINE
8
0
66
1
10
0.0
20
0.0
30
0.0
0
VERTEX
8
0
10
800.1749999999993
20
21136.0
0
VERTEX
8
0
10
800.1749999999993
20
21144.0
0
VERTEX
8
0
10
800.375
20
21144.0
0
VERTEX
8
0
10
800.375
20
21136.0
0
VERTEX
8
0
10
800.1749999999993
20
21136.0
0
SEQEND
0
POLYLINE
8
0
66
1
10
0.0
20
0.0
30
0.0
0
VERTEX
8
0
10
801.2000000000007
20
21144.0
0
VERTEX
8
0
10
801.2000000000007
20
21144.15
0
VERTEX
8
0
10
798.7999999999993
20
21144.15
0
VERTEX
8
0
10
798.7999999999993
20
21144.0
0
VERTEX
8
0
10
801.2000000000007
20
21144.0
0
SEQEND
0
POLYLINE
8
0
66
1
10
0.0
20
0.0
30
0.0
0
VERTEX
8
0
10
799.0
20
21144.15
0
VERTEX
8
0
10
799.0
20
21152.15
0
VERTEX
8
0
10
798.7999999999993
20
21152.15
0
VERTEX
8
0
10
798.7999999999993
20
21144.15
0
VERTEX
8
0
10
799.0
20
21144.15
0
SEQEND
0
POLYLINE
8
0
66
1
10
0.0
20
0.0
30
0.0
0
VERTEX
8
0
10
801.0
20
21144.15
0
VERTEX
8
0
10
801.0
20
21152.15
0
VERTEX
8
0
10
801.2000000000007
20
21152.15
0
VERTEX
8
0
10
801.2000000000007
20
21144.15
0
VERTEX
8
0
10
801.0
20
21144.15
0
SEQEND
0
POLYLINE
8
0
66
1
10
0.0
20
0.0
30
0.0
0
VERTEX
8
0
10
799.0
20
21152.15
0
VERTEX
8
0
10
790.0
20
21157.15
0
VERTEX
8
0
10
789.2999999999993
20
21157.15
0
VERTEX
8
0
10
798.2999999999993
20
21152.15
0
VERTEX
8
0
10
799.0
20
21152.15
0
SEQEND
0
POLYLINE
8
0
66
1
10
0.0
20
0.0
30
0.0
0
VERTEX
8
0
10
801.0
20
21152.15
0
VERTEX
8
0
10
810.0
20
21157.15
0
VERTEX
8
0
10
810.7000000000007
20
21157.15
0
VERTEX
8
0
10
801.7000000000007
20
21152.15
0
VERTEX
8
0
10
801.0
20
21152.15
0
SEQEND
0
POLYLINE
8
0
66
1
10
0.0
20
0.0
30
0.0
0
VERTEX
8
0
10
790.0
20
21157.15
0
VERTEX
8
0
10
790.0
20
21174.15
0
VERTEX
8
0
10
789.2999999999993
20
21174.15
0
VERTEX
8
0
10
789.2999999999993
20
21157.15
0
VERTEX
8
0
10
790.0
20
21157.15
0
SEQEND
0
POLYLINE
8
0
66
1
10
0.0
20
0.0
30
0.0
0
VERTEX
8
0
10
810.0
20
21157.15
0
VERTEX
8
0
10
810.0
20
21174.15
0
VERTEX
8
0
10
810.7000000000007
20
21174.15
0
VERTEX
8
0
10
810.7000000000007
20
21157.15
0
VERTEX
8
0
10
810.0
20
21157.15
0
SEQEND
0
POLYLINE
8
0
66
1
10
0.0
20
0.0
30
0.0
0
VERTEX
8
0
10
810.7000000000007
20
21174.15
0
VERTEX
8
0
10
810.7000000000007
20
21174.850000000002
0
VERTEX
8
0
10
789.2999999999993
20
21174.850000000002
0
VERTEX
8
0
10
789.2999999999993
20
21174.15
0
VERTEX
8
0
10
810.7000000000007
20
21174.15
0
SEQEND
0
POLYLINE
8
0
66
1
10
0.0
20
0.0
30
0.0
0
VERTEX
8
0
10
810.6999999999998
20
2253.3
0
VERTEX
8
0
10
810.6999999999998
20
2254.0
0
VERTEX
8
0
10
789.3000000000002
20
2254.0
0
VERTEX
8
0
10
789.3000000000002
20
2253.3
0
VERTEX
8
0
10
810.6999999999998
20
2253.3
0
SEQEND
0
POLYLINE
8
0
66
1
10
0.0
20
0.0
30
0.0
0
VERTEX
8
0
10
790.0
20
2254.0
0
VERTEX
8
0
10
790.0
20
2271.0
0
VERTEX
8
0
10
789.3000000000002
20
2271.0
0
VERTEX
8
0
10
789.3000000000002
20
2254.0
0
VERTEX
8
0
10
790.0
20
2254.0
0
SEQEND
0
POLYLINE
8
0
66
1
10
0.0
20
0.0
30
0.0
0
VERTEX
8
0
10
810.0
20
2254.0
0
VERTEX
8
0
10
810.0
20
2271.0
0
VERTEX
8
0
10
810.6999999999998
20
2271.0
0
VERTEX
8
0
10
810.6999999999998
20
2254.0
0
VERTEX
8
0
10
810.0
20
2254.0
0
SEQEND
0
POLYLINE
8
0
66
1
10
0.0
20
0.0
30
0.0
0
VERTEX
8
0
10
790.0
20
2271.0
0
VERTEX
8
0
10
799.8249999999998
20
2276.0
0
VERTEX
8
0
10
799.125
20
2276.0
0
VERTEX
8
0
10
789.3000000000002
20
2271.0
0
VERTEX
8
0
10
790.0
20
2271.0
0
SEQEND
0
POLYLINE
8
0
66
1
10
0.0
20
0.0
30
0.0
0
VERTEX
8
0
10
810.0
20
2271.0
0
VERTEX
8
0
10
800.1750000000002
20
2276.0
0
VERTEX
8
0
10
800.875
20
2276.0
0
VERTEX
8
0
10
810.6999999999998
20
2271.0
0
VERTEX
8
0
10
810.0
20
2271.0
0
SEQEND
0
POLYLINE
8
0
66
1
10
0.0
20
0.0
30
0.0
0
VERTEX
8
0
10
799.8249999999998
20
2276.0
0
VERTEX
8
0
10
799.8249999999998
20
2284.0
0
VERTEX
8
0
10
799.625
20
2284.0
0
VERTEX
8
0
10
799.625
20
2276.0
0
VERTEX
8
0
10
799.8249999999998
20
2276.0
0
SEQEND
0
POLYLINE
8
0
66
1
10
0.0
20
0.0
30
0.0
0
VERTEX
8
0
10
800.1750000000002
20
2276.0
0
VERTEX
8
0
10
800.1750000000002
20
2284.0
0
VERTEX
8
0
10
800.375
20
2284.0
0
VERTEX
8
0
10
800.375
20
2276.0
0
VERTEX
8
0
10
800.1750000000002
20
2276.0
0
SEQEND
0
POLYLINE
8
0
66
1
10
0.0
20
0.0
30
0.0
0
VERTEX
8
0
10
801.1999999999998
20
2284.0
0
VERTEX
8
0
10
801.1999999999998
20
2284.15
0
VERTEX
8
0
10
798.8000000000002
20
2284.15
0
VERTEX
8
0
10
798.8000000000002
20
2284.0
0
VERTEX
8
0
10
801.1999999999998
20
2284.0
0
SEQEND
0
POLYLINE
8
0
66
1
10
0.0
20
0.0
30
0.0
0
VERTEX
8
0
10
799.0
20
2284.15
0
VERTEX
8
0
10
799.0
20
2292.15
0
VERTEX
8
0
10
798.8000000000002
20
2292.15
0
VERTEX
8
0
10
798.8000000000002
20
2284.15
0
VERTEX
8
0
10
799.0
20
2284.15
0
SEQEND
0
POLYLINE
8
0
66
1
10
0.0
20
0.0
30
0.0
0
VERTEX
8
0
10
801.0
20
2284.15
0
VERTEX
8
0
10
801.0
20
2292.15
0
VERTEX
8
0
10
801.1999999999998
20
2292.15
0
VERTEX
8
0
10
801.1999999999998
20
2284.15
0
VERTEX
8
0
10
801.0
20
2284.15
0
SEQEND
0
POLYLINE
8
0
66
1
10
0.0
20
0.0
30
0.0
0
VERTEX
8
0
10
799.0
20
2292.15
0
VERTEX
8
0
10
790.0
20
2297.15
0
VERTEX
8
0
10
789.3000000000002
20
2297.15
0
VERTEX
8
0
10
798.3000000000002
20
2292.15
0
VERTEX
8
0
10
799.0
20
2292.15
0
SEQEND
0
POLYLINE
8
0
66
1
10
0.0
20
0.0
30
0.0
0
VERTEX
8
0
10
801.0
20
2292.15
0
VERTEX
8
0
10
810.0
20
2297.15
0
VERTEX
8
0
10
810.6999999999998
20
2297.15
0
VERTEX
8
0
10
801.6999999999998
20
2292.15
0
VERTEX
8
0
10
801.0
20
2292.15
0
SEQEND
0
POLYLINE
8
0
66
1
10
0.0
20
0.0
30
0.0
0
VERTEX
8
0
10
790.0
20
2297.15
0
VERTEX
8
0
10
790.0
20
2314.15
0
VERTEX
8
0
10
789.3000000000002
20
2314.15
0
VERTEX
8
0
10
789.3000000000002
20
2297.15
0
VERTEX
8
0
10
790.0
20
2297.15
0
SEQEND
0
POLYLINE
8
0
66
1
10
0.0
20
0.0
30
0.0
0
VERTEX
8
0
10
810.0
20
2297.15
0
VERTEX
8
0
10
810.0
20
2314.15
0
VERTEX
8
0
10
810.6999999999998
20
2314.15
0
VERTEX
8
0
10
810.6999999999998
20
2297.15
0
VERTEX
8
0
10
810.0
20
2297.15
0
SEQEND
0
POLYLINE
8
0
66
1
10
0.0
20
0.0
30
0.0
0
VERTEX
8
0
10
810.6999999999998
20
2314.15
0
VERTEX
8
0
10
810.6999999999998
20
2314.8500000000004
0
VERTEX
8
0
10
789.3000000000002
20
2314.8500000000004
0
VERTEX
8
0
10
789.3000000000002
20
2314.15
0
VERTEX
8
0
10
810.6999999999998
20
2314.15
0
SEQEND
0
POLYLINE
8
0
66
1
10
0.0
20
0.0
30
0.0
0
VERTEX
8
0
10
810.6999999999998
20
4753.3
0
VERTEX
8
0
10
810.6999999999998
20
4754.0
0
VERTEX
8
0
10
789.3000000000002
20
4754.0
0
VERTEX
8
0
10
789.3000000000002
20
4753.3
0
VERTEX
8
0
10
810.6999999999998
20
4753.3
0
SEQEND
0
POLYLINE
8
0
66
1
10
0.0
20
0.0
30
0.0
0
VERTEX
8
0
10
790.0
20
4754.0
0
VERTEX
8
0
10
790.0
20
4771.0
0
VERTEX
8
0
10
789.3000000000002
20
4771.0
0
VERTEX
8
0
10
789.3000000000002
20
4754.0
0
VERTEX
8
0
10
790.0
20
4754.0
0
SEQEND
0
POLYLINE
8
0
66
1
10
0.0
20
0.0
30
0.0
0
VERTEX
8
0
10
810.0
20
4754.0
0
VERTEX
8
0
10
810.0
20
4771.0
0
VERTEX
8
0
10
810.6999999999998
20
4771.0
0
VERTEX
8
0
10
810.6999999999998
20
4754.0
0
VERTEX
8
0
10
810.0
20
4754.0
0
SEQEND
0
POLYLINE
8
0
66
1
10
0.0
20
0.0
30
0.0
0
VERTEX
8
0
10
790.0
20
4771.0
0
VERTEX
8
0
10
799.8249999999998
20
4776.0
0
VERTEX
8
0
10
799.125
20
4776.0
0
VERTEX
8
0
10
789.3000000000002
20
4771.0
0
VERTEX
8
0
10
790.0
20
4771.0
0
SEQEND
0
POLYLINE
8
0
66
1
10
0.0
20
0.0
30
0.0
0
VERTEX
8
0
10
810.0
20
4771.0
0
VERTEX
8
0
10
800.1750000000002
20
4776.0
0
VERTEX
8
0
10
800.875
20
4776.0
0
VERTEX
8
0
10
810.6999999999998
20
4771.0
0
VERTEX
8
0
10
810.0
20
4771.0
0
SEQEND
0
POLYLINE
8
0
66
1
10
0.0
20
0.0
30
0.0
0
VERTEX
8
0
10
799.8249999999998
20
4776.0
0
VERTEX
8
0
10
799.8249999999998
20
4784.0
0
VERTEX
8
0
10
799.625
20
4784.0
0
VERTEX
8
0
10
799.625
20
4776.0
0
VERTEX
8
0
10
799.8249999999998
20
4776.0
0
SEQEND
0
POLYLINE
8
0
66
1
10
0.0
20
0.0
30
0.0
0
VERTEX
8
0
10
800.1750000000002
20
4776.0
0
VERTEX
8
0
10
800.1750000000002
20
4784.0
0
VERTEX
8
0
10
800.375
20
4784.0
0
VERTEX
8
0
10
800.375
20
4776.0
0
VERTEX
8
0
10
800.1750000000002
20
4776.0
0
SEQEND
0
POLYLINE
8
0
66
1
10
0.0
20
0.0
30
0.0
0
VERTEX
8
0
10
801.1999999999998
20
4784.0
0
VERTEX
8
0
10
801.1999999999998
20
4784.15
0
VERTEX
8
0
10
798.8000000000002
20
4784.15
0
VERTEX
8
0
10
798.8000000000002
20
4784.0
0
VERTEX
8
0
10
801.1999999999998
20
4784.0
0
SEQEND
0
POLYLINE
8
0
66
1
10
0.0
20
0.0
30
0.0
0
VERTEX
8
0
10
799.0
20
4784.15
0
VERTEX
8
0
10
799.0
20
4792.15
0
VERTEX
8
0
10
798.8000000000002
20
4792.15
0
VERTEX
8
0
10
798.8000000000002
20
4784.15
0
VERTEX
8
0
10
799.0
20
4784.15
0
SEQEND
0
POLYLINE
8
0
66
1
10
0.0
20
0.0
30
0.0
0
VERTEX
8
0
10
801.0
20
4784.15
0
VERTEX
8
0
10
801.0
20
4792.15
0
VERTEX
8
0
10
801.1999999999998
20
4792.15
0
VERTEX
8
0
10
801.1999999999998
20
4784.15
0
VERTEX
8
0
10
801.0
20
4784.15
0
SEQEND
0
POLYLINE
8
0
66
1
10
0.0
20
0.0
30
0.0
0
VERTEX
8
0
10
799.0
20
4792.15
0
VERTEX
8
0
10
790.0
20
4797.15
0
VERTEX
8
0
10
789.3000000000002
20
4797.15
0
VERTEX
8
0
10
798.3000000000002
20
4792.15
0
VERTEX
8
0
10
799.0
20
4792.15
0
SEQEND
0
POLYLINE
8
0
66
1
10
0.0
20
0.0
30
0.0
0
VERTEX
8
0
10
801.0
20
4792.15
0
VERTEX
8
0
10
810.0
20
4797.15
0
VERTEX
8
0
10
810.6999999999998
20
4797.15
0
VERTEX
8
0
10
801.6999999999998
20
4792.15
0
VERTEX
8
0
10
801.0
20
4792.15
0
SEQEND
0
POLYLINE
8
0
66
1
10
0.0
20
0.0
30
0.0
0
VERTEX
8
0
10
790.0
20
4797.15
0
VERTEX
8
0
10
790.0
20
4814.15
0
VERTEX
8
0
10
789.3000000000002
20
4814.15
0
VERTEX
8
0
10
789.3000000000002
20
4797.15
0
VERTEX
8
0
10
790.0
20
4797.15
0
SEQEND
0
POLYLINE
8
0
66
1
10
0.0
20
0.0
30
0.0
0
VERTEX
8
0
10
810.0
20
4797.15
0
VERTEX
8
0
10
810.0
20
4814.15
0
VERTEX
8
0
10
810.6999999999998
20
4814.15
0
VERTEX
8
0
10
810.6999999999998
20
4797.15
0
VERTEX
8
0
10
810.0
20
4797.15
0
SEQEND
0
POLYLINE
8
0
66
1
10
0.0
20
0.0
30
0.0
0
VERTEX
8
0
10
810.6999999999998
20
4814.15
0
VERTEX
8
0
10
810.6999999999998
20
4814.849999999999
0
VERTEX
8
0
10
789.3000000000002
20
4814.849999999999
0
VERTEX
8
0
10
789.3000000000002
20
4814.15
0
VERTEX
8
0
10
810.6999999999998
20
4814.15
0
SEQEND
0
POLYLINE
8
0
66
1
10
0.0
20
0.0
30
0.0
0
VERTEX
8
0
10
810.6999999999998
20
7253.3
0
VERTEX
8
0
10
810.6999999999998
20
7254.0
0
VERTEX
8
0
10
789.3000000000002
20
7254.0
0
VERTEX
8
0
10
789.3000000000002
20
7253.3
0
VERTEX
8
0
10
810.6999999999998
20
7253.3
0
SEQEND
0
POLYLINE
8
0
66
1
10
0.0
20
0.0
30
0.0
0
VERTEX
8
0
10
790.0
20
7254.0
0
VERTEX
8
0
10
790.0
20
7271.0
0
VERTEX
8
0
10
789.3000000000002
20
7271.0
0
VERTEX
8
0
10
789.3000000000002
20
7254.0
0
VERTEX
8
0
10
790.0
20
7254.0
0
SEQEND
0
POLYLINE
8
0
66
1
10
0.0
20
0.0
30
0.0
0
VERTEX
8
0
10
810.0
20
7254.0
0
VERTEX
8
0
10
810.0
20
7271.0
0
VERTEX
8
0
10
810.6999999999998
20
7271.0
0
VERTEX
8
0
10
810.6999999999998
20
7254.0
0
VERTEX
8
0
10
810.0
20
7254.0
0
SEQEND
0
POLYLINE
8
0
66
1
10
0.0
20
0.0
30
0.0
0
VERTEX
8
0
10
790.0
20
7271.0
0
VERTEX
8
0
10
799.8249999999998
20
7276.0
0
VERTEX
8
0
10
799.125
20
7276.0
0
VERTEX
8
0
10
789.3000000000002
20
7271.0
0
VERTEX
8
0
10
790.0
20
7271.0
0
SEQEND
0
POLYLINE
8
0
66
1
10
0.0
20
0.0
30
0.0
0
VERTEX
8
0
10
810.0
20
7271.0
0
VERTEX
8
0
10
800.1750000000002
20
7276.0
0
VERTEX
8
0
10
800.875
20
7276.0
0
VERTEX
8
0
10
810.6999999999998
20
7271.0
0
VERTEX
8
0
10
810.0
20
7271.0
0
SEQEND
0
POLYLINE
8
0
66
1
10
0.0
20
0.0
30
0.0
0
VERTEX
8
0
10
799.8249999999998
20
7276.0
0
VERTEX
8
0
10
799.8249999999998
20
7284.0
0
VERTEX
8
0
10
799.625
20
7284.0
0
VERTEX
8
0
10
799.625
20
7276.0
0
VERTEX
8
0
10
799.8249999999998
20
7276.0
0
SEQEND
0
POLYLINE
8
0
66
1
10
0.0
20
0.0
30
0.0
0
VERTEX
8
0
10
800.1750000000002
20
7276.0
0
VERTEX
8
0
10
800.1750000000002
20
7284.0
0
VERTEX
8
0
10
800.375
20
7284.0
0
VERTEX
8
0
10
800.375
20
7276.0
0
VERTEX
8
0
10
800.1750000000002
20
7276.0
0
SEQEND
0
POLYLINE
8
0
66
1
10
0.0
20
0.0
30
0.0
0
VERTEX
8
0
10
801.1999999999998
20
7284.0
0
VERTEX
8
0
10
801.1999999999998
20
7284.15
0
VERTEX
8
0
10
798.8000000000002
20
7284.15
0
VERTEX
8
0
10
798.8000000000002
20
7284.0
0
VERTEX
8
0
10
801.1999999999998
20
7284.0
0
SEQEND
0
POLYLINE
8
0
66
1
10
0.0
20
0.0
30
0.0
0
VERTEX
8
0
10
799.0
20
7284.15
0
VERTEX
8
0
10
799.0
20
7292.15
0
VERTEX
8
0
10
798.8000000000002
20
7292.15
0
VERTEX
8
0
10
798.8000000000002
20
7284.15
0
VERTEX
8
0
10
799.0
20
7284.15
0
SEQEND
0
POLYLINE
8
0
66
1
10
0.0
20
0.0
30
0.0
0
VERTEX
8
0
10
801.0
20
7284.15
0
VERTEX
8
0
10
801.0
20
7292.15
0
VERTEX
8
0
10
801.1999999999998
20
7292.15
0
VERTEX
8
0
10
801.1999999999998
20
7284.15
0
VERTEX
8
0
10
801.0
20
7284.15
0
SEQEND
0
POLYLINE
8
0
66
1
10
0.0
20
0.0
30
0.0
0
VERTEX
8
0
10
799.0
20
7292.15
0
VERTEX
8
0
10
790.0
20
7297.15
0
VERTEX
8
0
10
789.3000000000002
20
7297.15
0
VERTEX
8
0
10
798.3000000000002
20
7292.15
0
VERTEX
8
0
10
799.0
20
7292.15
0
SEQEND
0
POLYLINE
8
0
66
1
10
0.0
20
0.0
30
0.0
0
VERTEX
8
0
10
801.0
20
7292.15
0
VERTEX
8
0
10
810.0
20
7297.15
0
VERTEX
8
0
10
810.6999999999998
20
7297.15
0
VERTEX
8
0
10
801.6999999999998
20
7292.15
0
VERTEX
8
0
10
801.0
20
7292.15
0
SEQEND
0
POLYLINE
8
0
66
1
10
0.0
20
0.0
30
0.0
0
VERTEX
8
0
10
790.0
20
7297.15
0
VERTEX
8
0
10
790.0
20
7314.15
0
VERTEX
8
0
10
789.3000000000002
20
7314.15
0
VERTEX
8
0
10
789.3000000000002
20
7297.15
0
VERTEX
8
0
10
790.0
20
7297.15
0
SEQEND
0
POLYLINE
8
0
66
1
10
0.0
20
0.0
30
0.0
0
VERTEX
8
0
10
810.0
20
7297.15
0
VERTEX
8
0
10
810.0
20
7314.15
0
VERTEX
8
0
10
810.6999999999998
20
7314.15
0
VERTEX
8
0
10
810.6999999999998
20
7297.15
0
VERTEX
8
0
10
810.0
20
7297.15
0
SEQEND
0
POLYLINE
8
0
66
1
10
0.0
20
0.0
30
0.0
0
VERTEX
8
0
10
810.6999999999998
20
7314.15
0
VERTEX
8
0
10
810.6999999999998
20
7314.849999999999
0
VERTEX
8
0
10
789.3000000000002
20
7314.849999999999
0
VERTEX
8
0
10
789.3000000000002
20
7314.15
0
VERTEX
8
0
10
810.6999999999998
20
7314.15
0
SEQEND
0
ENDBLK
0
BLOCK
8
PIN
2
Q4PIN
70
0
10
0
20
0
30
0
3
Q4PIN
0
POLYLINE
8
0
66
1
10
0.0
20
0.0
30
0.0
0
VERTEX
8
0
10
810.0
20
21114.0
0
VERTEX
8
0
10
810.0
20
21131.0
0
VERTEX
8
0
10
790.0
20
21131.0
0
VERTEX
8
0
10
790.0
20
21114.0
0
VERTEX
8
0
10
810.0
20
21114.0
0
SEQEND
0
POLYLINE
8
0
66
1
10
0.0
20
0.0
30
0.0
0
VERTEX
8
0
10
800.0
20
21131.0
0
VERTEX
8
0
10
800.0
20
21136.0
0
VERTEX
8
0
10
799.8250000000007
20
21136.0
0
VERTEX
8
0
10
790.0
20
21131.0
0
VERTEX
8
0
10
800.0
20
21131.0
0
SEQEND
0
POLYLINE
8
0
66
1
10
0.0
20
0.0
30
0.0
0
VERTEX
8
0
10
800.0
20
21131.0
0
VERTEX
8
0
10
800.0
20
21136.0
0
VERTEX
8
0
10
800.1749999999993
20
21136.0
0
VERTEX
8
0
10
810.0
20
21131.0
0
VERTEX
8
0
10
800.0
20
21131.0
0
SEQEND
0
POLYLINE
8
0
66
1
10
0.0
20
0.0
30
0.0
0
VERTEX
8
0
10
800.1749999999993
20
21136.0
0
VERTEX
8
0
10
800.1749999999993
20
21144.0
0
VERTEX
8
0
10
799.8250000000007
20
21144.0
0
VERTEX
8
0
10
799.8250000000007
20
21136.0
0
VERTEX
8
0
10
800.1749999999993
20
21136.0
0
SEQEND
0
POLYLINE
8
0
66
1
10
0.0
20
0.0
30
0.0
0
VERTEX
8
0
10
801.0
20
21144.15
0
VERTEX
8
0
10
801.0
20
21152.15
0
VERTEX
8
0
10
799.0
20
21152.15
0
VERTEX
8
0
10
799.0
20
21144.15
0
VERTEX
8
0
10
801.0
20
21144.15
0
SEQEND
0
POLYLINE
8
0
66
1
10
0.0
20
0.0
30
0.0
0
VERTEX
8
0
10
800.0
20
21152.15
0
VERTEX
8
0
10
800.0
20
21157.15
0
VERTEX
8
0
10
790.0
20
21157.15
0
VERTEX
8
0
10
799.0
20
21152.15
0
VERTEX
8
0
10
800.0
20
21152.15
0
SEQEND
0
POLYLINE
8
0
66
1
10
0.0
20
0.0
30
0.0
0
VERTEX
8
0
10
800.0
20
21152.15
0
VERTEX
8
0
10
800.0
20
21157.15
0
VERTEX
8
0
10
810.0
20
21157.15
0
VERTEX
8
0
10
801.0
20
21152.15
0
VERTEX
8
0
10
800.0
20
21152.15
0
SEQEND
0
POLYLINE
8
0
66
1
10
0.0
20
0.0
30
0.0
0
VERTEX
8
0
10
810.0
20
21157.15
0
VERTEX
8
0
10
810.0
20
21174.15
0
VERTEX
8
0
10
790.0
20
21174.15
0
VERTEX
8
0
10
790.0
20
21157.15
0
VERTEX
8
0
10
810.0
20
21157.15
0
SEQEND
0
POLYLINE
8
0
66
1
10
0.0
20
0.0
30
0.0
0
VERTEX
8
0
10
810.0
20
2254.0
0
VERTEX
8
0
10
810.0
20
2271.0
0
VERTEX
8
0
10
790.0
20
2271.0
0
VERTEX
8
0
10
790.0
20
2254.0
0
VERTEX
8
0
10
810.0
20
2254.0
0
SEQEND
0
POLYLINE
8
0
66
1
10
0.0
20
0.0
30
0.0
0
VERTEX
8
0
10
800.0
20
2271.0
0
VERTEX
8
0
10
800.0
20
2276.0
0
VERTEX
8
0
10
799.8249999999998
20
2276.0
0
VERTEX
8
0
10
790.0
20
2271.0
0
VERTEX
8
0
10
800.0
20
2271.0
0
SEQEND
0
POLYLINE
8
0
66
1
10
0.0
20
0.0
30
0.0
0
VERTEX
8
0
10
800.0
20
2271.0
0
VERTEX
8
0
10
800.0
20
2276.0
0
VERTEX
8
0
10
800.1750000000002
20
2276.0
0
VERTEX
8
0
10
810.0
20
2271.0
0
VERTEX
8
0
10
800.0
20
2271.0
0
SEQEND
0
POLYLINE
8
0
66
1
10
0.0
20
0.0
30
0.0
0
VERTEX
8
0
10
800.1750000000002
20
2276.0
0
VERTEX
8
0
10
800.1750000000002
20
2284.0
0
VERTEX
8
0
10
799.8249999999998
20
2284.0
0
VERTEX
8
0
10
799.8249999999998
20
2276.0
0
VERTEX
8
0
10
800.1750000000002
20
2276.0
0
SEQEND
0
POLYLINE
8
0
66
1
10
0.0
20
0.0
30
0.0
0
VERTEX
8
0
10
801.0
20
2284.15
0
VERTEX
8
0
10
801.0
20
2292.15
0
VERTEX
8
0
10
799.0
20
2292.15
0
VERTEX
8
0
10
799.0
20
2284.15
0
VERTEX
8
0
10
801.0
20
2284.15
0
SEQEND
0
POLYLINE
8
0
66
1
10
0.0
20
0.0
30
0.0
0
VERTEX
8
0
10
800.0
20
2292.15
0
VERTEX
8
0
10
800.0
20
2297.15
0
VERTEX
8
0
10
790.0
20
2297.15
0
VERTEX
8
0
10
799.0
20
2292.15
0
VERTEX
8
0
10
800.0
20
2292.15
0
SEQEND
0
POLYLINE
8
0
66
1
10
0.0
20
0.0
30
0.0
0
VERTEX
8
0
10
800.0
20
2292.15
0
VERTEX
8
0
10
800.0
20
2297.15
0
VERTEX
8
0
10
810.0
20
2297.15
0
VERTEX
8
0
10
801.0
20
2292.15
0
VERTEX
8
0
10
800.0
20
2292.15
0
SEQEND
0
POLYLINE
8
0
66
1
10
0.0
20
0.0
30
0.0
0
VERTEX
8
0
10
810.0
20
2297.15
0
VERTEX
8
0
10
810.0
20
2314.15
0
VERTEX
8
0
10
790.0
20
2314.15
0
VERTEX
8
0
10
790.0
20
2297.15
0
VERTEX
8
0
10
810.0
20
2297.15
0
SEQEND
0
POLYLINE
8
0
66
1
10
0.0
20
0.0
30
0.0
0
VERTEX
8
0
10
810.0
20
4754.0
0
VERTEX
8
0
10
810.0
20
4771.0
0
VERTEX
8
0
10
790.0
20
4771.0
0
VERTEX
8
0
10
790.0
20
4754.0
0
VERTEX
8
0
10
810.0
20
4754.0
0
SEQEND
0
POLYLINE
8
0
66
1
10
0.0
20
0.0
30
0.0
0
VERTEX
8
0
10
800.0
20
4771.0
0
VERTEX
8
0
10
800.0
20
4776.0
0
VERTEX
8
0
10
799.8249999999998
20
4776.0
0
VERTEX
8
0
10
790.0
20
4771.0
0
VERTEX
8
0
10
800.0
20
4771.0
0
SEQEND
0
POLYLINE
8
0
66
1
10
0.0
20
0.0
30
0.0
0
VERTEX
8
0
10
800.0
20
4771.0
0
VERTEX
8
0
10
800.0
20
4776.0
0
VERTEX
8
0
10
800.1750000000002
20
4776.0
0
VERTEX
8
0
10
810.0
20
4771.0
0
VERTEX
8
0
10
800.0
20
4771.0
0
SEQEND
0
POLYLINE
8
0
66
1
10
0.0
20
0.0
30
0.0
0
VERTEX
8
0
10
800.1750000000002
20
4776.0
0
VERTEX
8
0
10
800.1750000000002
20
4784.0
0
VERTEX
8
0
10
799.8249999999998
20
4784.0
0
VERTEX
8
0
10
799.8249999999998
20
4776.0
0
VERTEX
8
0
10
800.1750000000002
20
4776.0
0
SEQEND
0
POLYLINE
8
0
66
1
10
0.0
20
0.0
30
0.0
0
VERTEX
8
0
10
801.0
20
4784.15
0
VERTEX
8
0
10
801.0
20
4792.15
0
VERTEX
8
0
10
799.0
20
4792.15
0
VERTEX
8
0
10
799.0
20
4784.15
0
VERTEX
8
0
10
801.0
20
4784.15
0
SEQEND
0
POLYLINE
8
0
66
1
10
0.0
20
0.0
30
0.0
0
VERTEX
8
0
10
800.0
20
4792.15
0
VERTEX
8
0
10
800.0
20
4797.15
0
VERTEX
8
0
10
790.0
20
4797.15
0
VERTEX
8
0
10
799.0
20
4792.15
0
VERTEX
8
0
10
800.0
20
4792.15
0
SEQEND
0
POLYLINE
8
0
66
1
10
0.0
20
0.0
30
0.0
0
VERTEX
8
0
10
800.0
20
4792.15
0
VERTEX
8
0
10
800.0
20
4797.15
0
VERTEX
8
0
10
810.0
20
4797.15
0
VERTEX
8
0
10
801.0
20
4792.15
0
VERTEX
8
0
10
800.0
20
4792.15
0
SEQEND
0
POLYLINE
8
0
66
1
10
0.0
20
0.0
30
0.0
0
VERTEX
8
0
10
810.0
20
4797.15
0
VERTEX
8
0
10
810.0
20
4814.15
0
VERTEX
8
0
10
790.0
20
4814.15
0
VERTEX
8
0
10
790.0
20
4797.15
0
VERTEX
8
0
10
810.0
20
4797.15
0
SEQEND
0
POLYLINE
8
0
66
1
10
0.0
20
0.0
30
0.0
0
VERTEX
8
0
10
810.0
20
7254.0
0
VERTEX
8
0
10
810.0
20
7271.0
0
VERTEX
8
0
10
790.0
20
7271.0
0
VERTEX
8
0
10
790.0
20
7254.0
0
VERTEX
8
0
10
810.0
20
7254.0
0
SEQEND
0
POLYLINE
8
0
66
1
10
0.0
20
0.0
30
0.0
0
VERTEX
8
0
10
800.0
20
7271.0
0
VERTEX
8
0
10
800.0
20
7276.0
0
VERTEX
8
0
10
799.8249999999998
20
7276.0
0
VERTEX
8
0
10
790.0
20
7271.0
0
VERTEX
8
0
10
800.0
20
7271.0
0
SEQEND
0
POLYLINE
8
0
66
1
10
0.0
20
0.0
30
0.0
0
VERTEX
8
0
10
800.0
20
7271.0
0
VERTEX
8
0
10
800.0
20
7276.0
0
VERTEX
8
0
10
800.1750000000002
20
7276.0
0
VERTEX
8
0
10
810.0
20
7271.0
0
VERTEX
8
0
10
800.0
20
7271.0
0
SEQEND
0
POLYLINE
8
0
66
1
10
0.0
20
0.0
30
0.0
0
VERTEX
8
0
10
800.1750000000002
20
7276.0
0
VERTEX
8
0
10
800.1750000000002
20
7284.0
0
VERTEX
8
0
10
799.8249999999998
20
7284.0
0
VERTEX
8
0
10
799.8249999999998
20
7276.0
0
VERTEX
8
0
10
800.1750000000002
20
7276.0
0
SEQEND
0
POLYLINE
8
0
66
1
10
0.0
20
0.0
30
0.0
0
VERTEX
8
0
10
801.0
20
7284.15
0
VERTEX
8
0
10
801.0
20
7292.15
0
VERTEX
8
0
10
799.0
20
7292.15
0
VERTEX
8
0
10
799.0
20
7284.15
0
VERTEX
8
0
10
801.0
20
7284.15
0
SEQEND
0
POLYLINE
8
0
66
1
10
0.0
20
0.0
30
0.0
0
VERTEX
8
0
10
800.0
20
7292.15
0
VERTEX
8
0
10
800.0
20
7297.15
0
VERTEX
8
0
10
790.0
20
7297.15
0
VERTEX
8
0
10
799.0
20
7292.15
0
VERTEX
8
0
10
800.0
20
7292.15
0
SEQEND
0
POLYLINE
8
0
66
1
10
0.0
20
0.0
30
0.0
0
VERTEX
8
0
10
800.0
20
7292.15
0
VERTEX
8
0
10
800.0
20
7297.15
0
VERTEX
8
0
10
810.0
20
7297.15
0
VERTEX
8
0
10
801.0
20
7292.15
0
VERTEX
8
0
10
800.0
20
7292.15
0
SEQEND
0
POLYLINE
8
0
66
1
10
0.0
20
0.0
30
0.0
0
VERTEX
8
0
10
810.0
20
7297.15
0
VERTEX
8
0
10
810.0
20
7314.15
0
VERTEX
8
0
10
790.0
20
7314.15
0
VERTEX
8
0
10
790.0
20
7297.15
0
VERTEX
8
0
10
810.0
20
7297.15
0
SEQEND
0
ENDBLK
0
BLOCK
8
0
2
Q4
70
0
10
0
20
0
30
0
3
Q4

0
ENDBLK
0
ENDSEC
0
SECTION
2
ENTITIES
0
INSERT
2
Q4GAP
8
GAP
10
0
20
0
0
INSERT
2
Q4PIN
8
PIN
10
0
20
0
0
INSERT
2
Q4
8
0
10
0
20
0
0
ENDSEC
0
EOF
