0
SECTION
2
HEADER
9
$ACADVER
1
AC1006
9
$INSBASE
10
0.0
20
0.0
30
0.0
9
$EXTMIN
10
0.0
20
0.0
9
$EXTMAX
10
0.0
20
0.0
0
ENDSEC
0
SECTION
2
TABLES
0
TABLE
2
LTYPE
70
1
0
LTYPE
2
CONTINUOUS
70
64
3
Solid line
72
65
73
0
40
0.0
0
ENDTAB
0
TABLE
2
LAYER
70
1
0
LAYER
2
PYDXF
70
64
62
7
6
continuous
0
ENDTAB
0
TABLE
2
STYLE
70
1
0
STYLE
2
STANDARD
70
0
40
0
41
40
50
50
71
0
42
1
3
ARIAL.TTF
4

0
ENDTAB
0
TABLE
2
VIEW
70
0
0
ENDTAB
0
ENDSEC
0
SECTION
2
BLOCKS
0
BLOCK
8
0
2
Q10
70
0
10
0
20
0
30
0
3
Q10
0
POLYLINE
8
0
66
1
10
0.0
20
0.0
30
0.0
0
VERTEX
8
0
10
-1950.0
20
12170.0
0
VERTEX
8
0
10
-1950.0
20
12095.0
0
VERTEX
8
0
10
-1650.0
20
12095.0
0
VERTEX
8
0
10
-1650.0
20
12170.0
0
VERTEX
8
0
10
-1950.0
20
12170.0
0
SEQEND
0
POLYLINE
8
0
66
1
10
0.0
20
0.0
30
0.0
0
VERTEX
8
0
10
-1725.0
20
12095.0
0
VERTEX
8
0
10
-1725.0
20
11770.0
0
VERTEX
8
0
10
-1650.0
20
11770.0
0
VERTEX
8
0
10
-1650.0
20
12095.0
0
VERTEX
8
0
10
-1725.0
20
12095.0
0
SEQEND
0
POLYLINE
8
0
66
1
10
0.0
20
0.0
30
0.0
0
VERTEX
8
0
10
-1875.0
20
12095.0
0
VERTEX
8
0
10
-1875.0
20
11770.0
0
VERTEX
8
0
10
-1950.0
20
11770.0
0
VERTEX
8
0
10
-1950.0
20
12095.0
0
VERTEX
8
0
10
-1875.0
20
12095.0
0
SEQEND
0
POLYLINE
8
0
66
1
10
0.0
20
0.0
30
0.0
0
VERTEX
8
0
10
-1725.0
20
11770.0
0
VERTEX
8
0
10
-1795.0
20
11520.0
0
VERTEX
8
0
10
-1790.15831189058
20
11520.0
0
VERTEX
8
0
10
-1650.0
20
11770.0
0
VERTEX
8
0
10
-1725.0
20
11770.0
0
SEQEND
0
POLYLINE
8
0
66
1
10
0.0
20
0.0
30
0.0
0
VERTEX
8
0
10
-1875.0
20
11770.0
0
VERTEX
8
0
10
-1805.0
20
11520.0
0
VERTEX
8
0
10
-1809.84168810942
20
11520.0
0
VERTEX
8
0
10
-1950.0
20
11770.0
0
VERTEX
8
0
10
-1875.0
20
11770.0
0
SEQEND
0
POLYLINE
8
0
66
1
10
0.0
20
0.0
30
0.0
0
VERTEX
8
0
10
-1950.0
20
14425.0
0
VERTEX
8
0
10
-1950.0
20
14350.0
0
VERTEX
8
0
10
-1650.0
20
14350.0
0
VERTEX
8
0
10
-1650.0
20
14425.0
0
VERTEX
8
0
10
-1950.0
20
14425.0
0
SEQEND
0
POLYLINE
8
0
66
1
10
0.0
20
0.0
30
0.0
0
VERTEX
8
0
10
-1725.0
20
14350.0
0
VERTEX
8
0
10
-1725.0
20
14025.0
0
VERTEX
8
0
10
-1650.0
20
14025.0
0
VERTEX
8
0
10
-1650.0
20
14350.0
0
VERTEX
8
0
10
-1725.0
20
14350.0
0
SEQEND
0
POLYLINE
8
0
66
1
10
0.0
20
0.0
30
0.0
0
VERTEX
8
0
10
-1875.0
20
14350.0
0
VERTEX
8
0
10
-1875.0
20
14025.0
0
VERTEX
8
0
10
-1950.0
20
14025.0
0
VERTEX
8
0
10
-1950.0
20
14350.0
0
VERTEX
8
0
10
-1875.0
20
14350.0
0
SEQEND
0
POLYLINE
8
0
66
1
10
0.0
20
0.0
30
0.0
0
VERTEX
8
0
10
-1725.0
20
14025.0
0
VERTEX
8
0
10
-1795.0
20
13775.0
0
VERTEX
8
0
10
-1790.15831189058
20
13775.0
0
VERTEX
8
0
10
-1650.0
20
14025.0
0
VERTEX
8
0
10
-1725.0
20
14025.0
0
SEQEND
0
POLYLINE
8
0
66
1
10
0.0
20
0.0
30
0.0
0
VERTEX
8
0
10
-1875.0
20
14025.0
0
VERTEX
8
0
10
-1805.0
20
13775.0
0
VERTEX
8
0
10
-1809.84168810942
20
13775.0
0
VERTEX
8
0
10
-1950.0
20
14025.0
0
VERTEX
8
0
10
-1875.0
20
14025.0
0
SEQEND
0
POLYLINE
8
0
66
1
10
0.0
20
0.0
30
0.0
0
VERTEX
8
0
10
2900.0
20
25500.0
0
VERTEX
8
0
10
2825.0
20
25500.0
0
VERTEX
8
0
10
2825.0
20
25200.0
0
VERTEX
8
0
10
2900.0
20
25200.0
0
VERTEX
8
0
10
2900.0
20
25500.0
0
SEQEND
0
POLYLINE
8
0
66
1
10
0.0
20
0.0
30
0.0
0
VERTEX
8
0
10
2825.0
20
25275.0
0
VERTEX
8
0
10
2500.0
20
25275.0
0
VERTEX
8
0
10
2500.0
20
25200.0
0
VERTEX
8
0
10
2825.0
20
25200.0
0
VERTEX
8
0
10
2825.0
20
25275.0
0
SEQEND
0
POLYLINE
8
0
66
1
10
0.0
20
0.0
30
0.0
0
VERTEX
8
0
10
2825.0
20
25425.0
0
VERTEX
8
0
10
2500.0
20
25425.0
0
VERTEX
8
0
10
2500.0
20
25500.0
0
VERTEX
8
0
10
2825.0
20
25500.0
0
VERTEX
8
0
10
2825.0
20
25425.0
0
SEQEND
0
POLYLINE
8
0
66
1
10
0.0
20
0.0
30
0.0
0
VERTEX
8
0
10
2500.0
20
25275.0
0
VERTEX
8
0
10
2250.0
20
25345.0
0
VERTEX
8
0
10
2250.0
20
25340.15831189058
0
VERTEX
8
0
10
2500.0
20
25200.0
0
VERTEX
8
0
10
2500.0
20
25275.0
0
SEQEND
0
POLYLINE
8
0
66
1
10
0.0
20
0.0
30
0.0
0
VERTEX
8
0
10
2500.0
20
25425.0
0
VERTEX
8
0
10
2250.0
20
25355.0
0
VERTEX
8
0
10
2250.0
20
25359.84168810942
0
VERTEX
8
0
10
2500.0
20
25500.0
0
VERTEX
8
0
10
2500.0
20
25425.0
0
SEQEND
0
POLYLINE
8
0
66
1
10
0.0
20
0.0
30
0.0
0
VERTEX
8
0
10
3250.0
20
14425.0
0
VERTEX
8
0
10
3250.0
20
14350.0
0
VERTEX
8
0
10
3550.0
20
14350.0
0
VERTEX
8
0
10
3550.0
20
14425.0
0
VERTEX
8
0
10
3250.0
20
14425.0
0
SEQEND
0
POLYLINE
8
0
66
1
10
0.0
20
0.0
30
0.0
0
VERTEX
8
0
10
3475.0
20
14350.0
0
VERTEX
8
0
10
3475.0
20
14025.0
0
VERTEX
8
0
10
3550.0
20
14025.0
0
VERTEX
8
0
10
3550.0
20
14350.0
0
VERTEX
8
0
10
3475.0
20
14350.0
0
SEQEND
0
POLYLINE
8
0
66
1
10
0.0
20
0.0
30
0.0
0
VERTEX
8
0
10
3325.0
20
14350.0
0
VERTEX
8
0
10
3325.0
20
14025.0
0
VERTEX
8
0
10
3250.0
20
14025.0
0
VERTEX
8
0
10
3250.0
20
14350.0
0
VERTEX
8
0
10
3325.0
20
14350.0
0
SEQEND
0
POLYLINE
8
0
66
1
10
0.0
20
0.0
30
0.0
0
VERTEX
8
0
10
3475.0
20
14025.0
0
VERTEX
8
0
10
3405.0
20
13775.0
0
VERTEX
8
0
10
3409.84168810942
20
13775.0
0
VERTEX
8
0
10
3550.0
20
14025.0
0
VERTEX
8
0
10
3475.0
20
14025.0
0
SEQEND
0
POLYLINE
8
0
66
1
10
0.0
20
0.0
30
0.0
0
VERTEX
8
0
10
3325.0
20
14025.0
0
VERTEX
8
0
10
3395.0
20
13775.0
0
VERTEX
8
0
10
3390.15831189058
20
13775.0
0
VERTEX
8
0
10
3250.0
20
14025.0
0
VERTEX
8
0
10
3325.0
20
14025.0
0
SEQEND
0
POLYLINE
8
0
66
1
10
0.0
20
0.0
30
0.0
0
VERTEX
8
0
10
3250.0
20
12175.0
0
VERTEX
8
0
10
3250.0
20
12100.0
0
VERTEX
8
0
10
3550.0
20
12100.0
0
VERTEX
8
0
10
3550.0
20
12175.0
0
VERTEX
8
0
10
3250.0
20
12175.0
0
SEQEND
0
POLYLINE
8
0
66
1
10
0.0
20
0.0
30
0.0
0
VERTEX
8
0
10
3475.0
20
12100.0
0
VERTEX
8
0
10
3475.0
20
11775.0
0
VERTEX
8
0
10
3550.0
20
11775.0
0
VERTEX
8
0
10
3550.0
20
12100.0
0
VERTEX
8
0
10
3475.0
20
12100.0
0
SEQEND
0
POLYLINE
8
0
66
1
10
0.0
20
0.0
30
0.0
0
VERTEX
8
0
10
3325.0
20
12100.0
0
VERTEX
8
0
10
3325.0
20
11775.0
0
VERTEX
8
0
10
3250.0
20
11775.0
0
VERTEX
8
0
10
3250.0
20
12100.0
0
VERTEX
8
0
10
3325.0
20
12100.0
0
SEQEND
0
POLYLINE
8
0
66
1
10
0.0
20
0.0
30
0.0
0
VERTEX
8
0
10
3475.0
20
11775.0
0
VERTEX
8
0
10
3405.0
20
11525.0
0
VERTEX
8
0
10
3409.84168810942
20
11525.0
0
VERTEX
8
0
10
3550.0
20
11775.0
0
VERTEX
8
0
10
3475.0
20
11775.0
0
SEQEND
0
POLYLINE
8
0
66
1
10
0.0
20
0.0
30
0.0
0
VERTEX
8
0
10
3325.0
20
11775.0
0
VERTEX
8
0
10
3395.0
20
11525.0
0
VERTEX
8
0
10
3390.15831189058
20
11525.0
0
VERTEX
8
0
10
3250.0
20
11775.0
0
VERTEX
8
0
10
3325.0
20
11775.0
0
SEQEND
0
POLYLINE
8
0
66
1
10
0.0
20
0.0
30
0.0
0
VERTEX
8
0
10
2900.0
20
950.0
0
VERTEX
8
0
10
2825.0
20
950.0
0
VERTEX
8
0
10
2825.0
20
650.0
0
VERTEX
8
0
10
2900.0
20
650.0
0
VERTEX
8
0
10
2900.0
20
950.0
0
SEQEND
0
POLYLINE
8
0
66
1
10
0.0
20
0.0
30
0.0
0
VERTEX
8
0
10
2825.0
20
725.0
0
VERTEX
8
0
10
2500.0
20
725.0
0
VERTEX
8
0
10
2500.0
20
650.0
0
VERTEX
8
0
10
2825.0
20
650.0
0
VERTEX
8
0
10
2825.0
20
725.0
0
SEQEND
0
POLYLINE
8
0
66
1
10
0.0
20
0.0
30
0.0
0
VERTEX
8
0
10
2825.0
20
875.0
0
VERTEX
8
0
10
2500.0
20
875.0
0
VERTEX
8
0
10
2500.0
20
950.0
0
VERTEX
8
0
10
2825.0
20
950.0
0
VERTEX
8
0
10
2825.0
20
875.0
0
SEQEND
0
POLYLINE
8
0
66
1
10
0.0
20
0.0
30
0.0
0
VERTEX
8
0
10
2500.0
20
725.0
0
VERTEX
8
0
10
2250.0
20
795.0
0
VERTEX
8
0
10
2250.0
20
790.1583118905806
0
VERTEX
8
0
10
2500.0
20
650.0
0
VERTEX
8
0
10
2500.0
20
725.0
0
SEQEND
0
POLYLINE
8
0
66
1
10
0.0
20
0.0
30
0.0
0
VERTEX
8
0
10
2500.0
20
875.0
0
VERTEX
8
0
10
2250.0
20
805.0
0
VERTEX
8
0
10
2250.0
20
809.8416881094194
0
VERTEX
8
0
10
2500.0
20
950.0
0
VERTEX
8
0
10
2500.0
20
875.0
0
SEQEND
0
POLYLINE
8
0
66
1
10
0.0
20
0.0
30
0.0
0
VERTEX
8
0
10
-1300.0
20
650.0
0
VERTEX
8
0
10
-1225.0
20
650.0
0
VERTEX
8
0
10
-1225.0
20
950.0
0
VERTEX
8
0
10
-1300.0
20
950.0
0
VERTEX
8
0
10
-1300.0
20
650.0
0
SEQEND
0
POLYLINE
8
0
66
1
10
0.0
20
0.0
30
0.0
0
VERTEX
8
0
10
-1225.0
20
875.0
0
VERTEX
8
0
10
-900.0
20
875.0
0
VERTEX
8
0
10
-900.0
20
950.0
0
VERTEX
8
0
10
-1225.0
20
950.0
0
VERTEX
8
0
10
-1225.0
20
875.0
0
SEQEND
0
POLYLINE
8
0
66
1
10
0.0
20
0.0
30
0.0
0
VERTEX
8
0
10
-1225.0
20
725.0
0
VERTEX
8
0
10
-900.0
20
725.0
0
VERTEX
8
0
10
-900.0
20
650.0
0
VERTEX
8
0
10
-1225.0
20
650.0
0
VERTEX
8
0
10
-1225.0
20
725.0
0
SEQEND
0
POLYLINE
8
0
66
1
10
0.0
20
0.0
30
0.0
0
VERTEX
8
0
10
-900.0
20
875.0
0
VERTEX
8
0
10
-650.0
20
805.0
0
VERTEX
8
0
10
-650.0
20
809.8416881094194
0
VERTEX
8
0
10
-900.0
20
950.0
0
VERTEX
8
0
10
-900.0
20
875.0
0
SEQEND
0
POLYLINE
8
0
66
1
10
0.0
20
0.0
30
0.0
0
VERTEX
8
0
10
-900.0
20
725.0
0
VERTEX
8
0
10
-650.0
20
795.0
0
VERTEX
8
0
10
-650.0
20
790.1583118905806
0
VERTEX
8
0
10
-900.0
20
650.0
0
VERTEX
8
0
10
-900.0
20
725.0
0
SEQEND
0
POLYLINE
8
0
66
1
10
0.0
20
0.0
30
0.0
0
VERTEX
8
0
10
-1950.0
20
12170.0
0
VERTEX
8
0
10
-1950.0
20
12095.0
0
VERTEX
8
0
10
-1650.0
20
12095.0
0
VERTEX
8
0
10
-1650.0
20
12170.0
0
VERTEX
8
0
10
-1950.0
20
12170.0
0
SEQEND
0
POLYLINE
8
0
66
1
10
0.0
20
0.0
30
0.0
0
VERTEX
8
0
10
-1725.0
20
12095.0
0
VERTEX
8
0
10
-1725.0
20
11770.0
0
VERTEX
8
0
10
-1650.0
20
11770.0
0
VERTEX
8
0
10
-1650.0
20
12095.0
0
VERTEX
8
0
10
-1725.0
20
12095.0
0
SEQEND
0
POLYLINE
8
0
66
1
10
0.0
20
0.0
30
0.0
0
VERTEX
8
0
10
-1875.0
20
12095.0
0
VERTEX
8
0
10
-1875.0
20
11770.0
0
VERTEX
8
0
10
-1950.0
20
11770.0
0
VERTEX
8
0
10
-1950.0
20
12095.0
0
VERTEX
8
0
10
-1875.0
20
12095.0
0
SEQEND
0
POLYLINE
8
0
66
1
10
0.0
20
0.0
30
0.0
0
VERTEX
8
0
10
-1725.0
20
11770.0
0
VERTEX
8
0
10
-1795.0
20
11520.0
0
VERTEX
8
0
10
-1790.15831189058
20
11520.0
0
VERTEX
8
0
10
-1650.0
20
11770.0
0
VERTEX
8
0
10
-1725.0
20
11770.0
0
SEQEND
0
POLYLINE
8
0
66
1
10
0.0
20
0.0
30
0.0
0
VERTEX
8
0
10
-1875.0
20
11770.0
0
VERTEX
8
0
10
-1805.0
20
11520.0
0
VERTEX
8
0
10
-1809.84168810942
20
11520.0
0
VERTEX
8
0
10
-1950.0
20
11770.0
0
VERTEX
8
0
10
-1875.0
20
11770.0
0
SEQEND
0
POLYLINE
8
0
66
1
10
0.0
20
0.0
30
0.0
0
VERTEX
8
0
10
-1950.0
20
14425.0
0
VERTEX
8
0
10
-1950.0
20
14350.0
0
VERTEX
8
0
10
-1650.0
20
14350.0
0
VERTEX
8
0
10
-1650.0
20
14425.0
0
VERTEX
8
0
10
-1950.0
20
14425.0
0
SEQEND
0
POLYLINE
8
0
66
1
10
0.0
20
0.0
30
0.0
0
VERTEX
8
0
10
-1725.0
20
14350.0
0
VERTEX
8
0
10
-1725.0
20
14025.0
0
VERTEX
8
0
10
-1650.0
20
14025.0
0
VERTEX
8
0
10
-1650.0
20
14350.0
0
VERTEX
8
0
10
-1725.0
20
14350.0
0
SEQEND
0
POLYLINE
8
0
66
1
10
0.0
20
0.0
30
0.0
0
VERTEX
8
0
10
-1875.0
20
14350.0
0
VERTEX
8
0
10
-1875.0
20
14025.0
0
VERTEX
8
0
10
-1950.0
20
14025.0
0
VERTEX
8
0
10
-1950.0
20
14350.0
0
VERTEX
8
0
10
-1875.0
20
14350.0
0
SEQEND
0
POLYLINE
8
0
66
1
10
0.0
20
0.0
30
0.0
0
VERTEX
8
0
10
-1725.0
20
14025.0
0
VERTEX
8
0
10
-1795.0
20
13775.0
0
VERTEX
8
0
10
-1790.15831189058
20
13775.0
0
VERTEX
8
0
10
-1650.0
20
14025.0
0
VERTEX
8
0
10
-1725.0
20
14025.0
0
SEQEND
0
POLYLINE
8
0
66
1
10
0.0
20
0.0
30
0.0
0
VERTEX
8
0
10
-1875.0
20
14025.0
0
VERTEX
8
0
10
-1805.0
20
13775.0
0
VERTEX
8
0
10
-1809.84168810942
20
13775.0
0
VERTEX
8
0
10
-1950.0
20
14025.0
0
VERTEX
8
0
10
-1875.0
20
14025.0
0
SEQEND
0
POLYLINE
8
0
66
1
10
0.0
20
0.0
30
0.0
0
VERTEX
8
0
10
2900.0
20
25500.0
0
VERTEX
8
0
10
2825.0
20
25500.0
0
VERTEX
8
0
10
2825.0
20
25200.0
0
VERTEX
8
0
10
2900.0
20
25200.0
0
VERTEX
8
0
10
2900.0
20
25500.0
0
SEQEND
0
POLYLINE
8
0
66
1
10
0.0
20
0.0
30
0.0
0
VERTEX
8
0
10
2825.0
20
25275.0
0
VERTEX
8
0
10
2500.0
20
25275.0
0
VERTEX
8
0
10
2500.0
20
25200.0
0
VERTEX
8
0
10
2825.0
20
25200.0
0
VERTEX
8
0
10
2825.0
20
25275.0
0
SEQEND
0
POLYLINE
8
0
66
1
10
0.0
20
0.0
30
0.0
0
VERTEX
8
0
10
2825.0
20
25425.0
0
VERTEX
8
0
10
2500.0
20
25425.0
0
VERTEX
8
0
10
2500.0
20
25500.0
0
VERTEX
8
0
10
2825.0
20
25500.0
0
VERTEX
8
0
10
2825.0
20
25425.0
0
SEQEND
0
POLYLINE
8
0
66
1
10
0.0
20
0.0
30
0.0
0
VERTEX
8
0
10
2500.0
20
25275.0
0
VERTEX
8
0
10
2250.0
20
25345.0
0
VERTEX
8
0
10
2250.0
20
25340.15831189058
0
VERTEX
8
0
10
2500.0
20
25200.0
0
VERTEX
8
0
10
2500.0
20
25275.0
0
SEQEND
0
POLYLINE
8
0
66
1
10
0.0
20
0.0
30
0.0
0
VERTEX
8
0
10
2500.0
20
25425.0
0
VERTEX
8
0
10
2250.0
20
25355.0
0
VERTEX
8
0
10
2250.0
20
25359.84168810942
0
VERTEX
8
0
10
2500.0
20
25500.0
0
VERTEX
8
0
10
2500.0
20
25425.0
0
SEQEND
0
POLYLINE
8
0
66
1
10
0.0
20
0.0
30
0.0
0
VERTEX
8
0
10
3250.0
20
14425.0
0
VERTEX
8
0
10
3250.0
20
14350.0
0
VERTEX
8
0
10
3550.0
20
14350.0
0
VERTEX
8
0
10
3550.0
20
14425.0
0
VERTEX
8
0
10
3250.0
20
14425.0
0
SEQEND
0
POLYLINE
8
0
66
1
10
0.0
20
0.0
30
0.0
0
VERTEX
8
0
10
3475.0
20
14350.0
0
VERTEX
8
0
10
3475.0
20
14025.0
0
VERTEX
8
0
10
3550.0
20
14025.0
0
VERTEX
8
0
10
3550.0
20
14350.0
0
VERTEX
8
0
10
3475.0
20
14350.0
0
SEQEND
0
POLYLINE
8
0
66
1
10
0.0
20
0.0
30
0.0
0
VERTEX
8
0
10
3325.0
20
14350.0
0
VERTEX
8
0
10
3325.0
20
14025.0
0
VERTEX
8
0
10
3250.0
20
14025.0
0
VERTEX
8
0
10
3250.0
20
14350.0
0
VERTEX
8
0
10
3325.0
20
14350.0
0
SEQEND
0
POLYLINE
8
0
66
1
10
0.0
20
0.0
30
0.0
0
VERTEX
8
0
10
3475.0
20
14025.0
0
VERTEX
8
0
10
3405.0
20
13775.0
0
VERTEX
8
0
10
3409.84168810942
20
13775.0
0
VERTEX
8
0
10
3550.0
20
14025.0
0
VERTEX
8
0
10
3475.0
20
14025.0
0
SEQEND
0
POLYLINE
8
0
66
1
10
0.0
20
0.0
30
0.0
0
VERTEX
8
0
10
3325.0
20
14025.0
0
VERTEX
8
0
10
3395.0
20
13775.0
0
VERTEX
8
0
10
3390.15831189058
20
13775.0
0
VERTEX
8
0
10
3250.0
20
14025.0
0
VERTEX
8
0
10
3325.0
20
14025.0
0
SEQEND
0
POLYLINE
8
0
66
1
10
0.0
20
0.0
30
0.0
0
VERTEX
8
0
10
3250.0
20
12175.0
0
VERTEX
8
0
10
3250.0
20
12100.0
0
VERTEX
8
0
10
3550.0
20
12100.0
0
VERTEX
8
0
10
3550.0
20
12175.0
0
VERTEX
8
0
10
3250.0
20
12175.0
0
SEQEND
0
POLYLINE
8
0
66
1
10
0.0
20
0.0
30
0.0
0
VERTEX
8
0
10
3475.0
20
12100.0
0
VERTEX
8
0
10
3475.0
20
11775.0
0
VERTEX
8
0
10
3550.0
20
11775.0
0
VERTEX
8
0
10
3550.0
20
12100.0
0
VERTEX
8
0
10
3475.0
20
12100.0
0
SEQEND
0
POLYLINE
8
0
66
1
10
0.0
20
0.0
30
0.0
0
VERTEX
8
0
10
3325.0
20
12100.0
0
VERTEX
8
0
10
3325.0
20
11775.0
0
VERTEX
8
0
10
3250.0
20
11775.0
0
VERTEX
8
0
10
3250.0
20
12100.0
0
VERTEX
8
0
10
3325.0
20
12100.0
0
SEQEND
0
POLYLINE
8
0
66
1
10
0.0
20
0.0
30
0.0
0
VERTEX
8
0
10
3475.0
20
11775.0
0
VERTEX
8
0
10
3405.0
20
11525.0
0
VERTEX
8
0
10
3409.84168810942
20
11525.0
0
VERTEX
8
0
10
3550.0
20
11775.0
0
VERTEX
8
0
10
3475.0
20
11775.0
0
SEQEND
0
POLYLINE
8
0
66
1
10
0.0
20
0.0
30
0.0
0
VERTEX
8
0
10
3325.0
20
11775.0
0
VERTEX
8
0
10
3395.0
20
11525.0
0
VERTEX
8
0
10
3390.15831189058
20
11525.0
0
VERTEX
8
0
10
3250.0
20
11775.0
0
VERTEX
8
0
10
3325.0
20
11775.0
0
SEQEND
0
POLYLINE
8
0
66
1
10
0.0
20
0.0
30
0.0
0
VERTEX
8
0
10
2900.0
20
950.0
0
VERTEX
8
0
10
2825.0
20
950.0
0
VERTEX
8
0
10
2825.0
20
650.0
0
VERTEX
8
0
10
2900.0
20
650.0
0
VERTEX
8
0
10
2900.0
20
950.0
0
SEQEND
0
POLYLINE
8
0
66
1
10
0.0
20
0.0
30
0.0
0
VERTEX
8
0
10
2825.0
20
725.0
0
VERTEX
8
0
10
2500.0
20
725.0
0
VERTEX
8
0
10
2500.0
20
650.0
0
VERTEX
8
0
10
2825.0
20
650.0
0
VERTEX
8
0
10
2825.0
20
725.0
0
SEQEND
0
POLYLINE
8
0
66
1
10
0.0
20
0.0
30
0.0
0
VERTEX
8
0
10
2825.0
20
875.0
0
VERTEX
8
0
10
2500.0
20
875.0
0
VERTEX
8
0
10
2500.0
20
950.0
0
VERTEX
8
0
10
2825.0
20
950.0
0
VERTEX
8
0
10
2825.0
20
875.0
0
SEQEND
0
POLYLINE
8
0
66
1
10
0.0
20
0.0
30
0.0
0
VERTEX
8
0
10
2500.0
20
725.0
0
VERTEX
8
0
10
2250.0
20
795.0
0
VERTEX
8
0
10
2250.0
20
790.1583118905806
0
VERTEX
8
0
10
2500.0
20
650.0
0
VERTEX
8
0
10
2500.0
20
725.0
0
SEQEND
0
POLYLINE
8
0
66
1
10
0.0
20
0.0
30
0.0
0
VERTEX
8
0
10
2500.0
20
875.0
0
VERTEX
8
0
10
2250.0
20
805.0
0
VERTEX
8
0
10
2250.0
20
809.8416881094194
0
VERTEX
8
0
10
2500.0
20
950.0
0
VERTEX
8
0
10
2500.0
20
875.0
0
SEQEND
0
POLYLINE
8
0
66
1
10
0.0
20
0.0
30
0.0
0
VERTEX
8
0
10
-1300.0
20
650.0
0
VERTEX
8
0
10
-1225.0
20
650.0
0
VERTEX
8
0
10
-1225.0
20
950.0
0
VERTEX
8
0
10
-1300.0
20
950.0
0
VERTEX
8
0
10
-1300.0
20
650.0
0
SEQEND
0
POLYLINE
8
0
66
1
10
0.0
20
0.0
30
0.0
0
VERTEX
8
0
10
-1225.0
20
875.0
0
VERTEX
8
0
10
-900.0
20
875.0
0
VERTEX
8
0
10
-900.0
20
950.0
0
VERTEX
8
0
10
-1225.0
20
950.0
0
VERTEX
8
0
10
-1225.0
20
875.0
0
SEQEND
0
POLYLINE
8
0
66
1
10
0.0
20
0.0
30
0.0
0
VERTEX
8
0
10
-1225.0
20
725.0
0
VERTEX
8
0
10
-900.0
20
725.0
0
VERTEX
8
0
10
-900.0
20
650.0
0
VERTEX
8
0
10
-1225.0
20
650.0
0
VERTEX
8
0
10
-1225.0
20
725.0
0
SEQEND
0
POLYLINE
8
0
66
1
10
0.0
20
0.0
30
0.0
0
VERTEX
8
0
10
-900.0
20
875.0
0
VERTEX
8
0
10
-650.0
20
805.0
0
VERTEX
8
0
10
-650.0
20
809.8416881094194
0
VERTEX
8
0
10
-900.0
20
950.0
0
VERTEX
8
0
10
-900.0
20
875.0
0
SEQEND
0
POLYLINE
8
0
66
1
10
0.0
20
0.0
30
0.0
0
VERTEX
8
0
10
-900.0
20
725.0
0
VERTEX
8
0
10
-650.0
20
795.0
0
VERTEX
8
0
10
-650.0
20
790.1583118905806
0
VERTEX
8
0
10
-900.0
20
650.0
0
VERTEX
8
0
10
-900.0
20
725.0
0
SEQEND
0
POLYLINE
8
0
66
1
10
0.0
20
0.0
30
0.0
0
VERTEX
8
0
10
725.0
20
25630.0
0
VERTEX
8
0
10
724.9999999999992
20
21530.0
0
VERTEX
8
0
10
874.9999999999992
20
21530.0
0
VERTEX
8
0
10
875.0
20
25630.0
0
VERTEX
8
0
10
725.0
20
25630.0
0
SEQEND
0
POLYLINE
8
0
66
1
10
0.0
20
0.0
30
0.0
0
VERTEX
8
0
10
784.9999999999992
20
21530.0
0
VERTEX
8
0
10
784.9999999999991
20
21160.0
0
VERTEX
8
0
10
814.9999999999991
20
21160.0
0
VERTEX
8
0
10
814.9999999999992
20
21530.0
0
VERTEX
8
0
10
784.9999999999992
20
21530.0
0
SEQEND
0
POLYLINE
8
0
66
1
10
0.0
20
0.0
30
0.0
0
VERTEX
8
0
10
802.4999999999991
20
21160.0
0
VERTEX
8
0
10
802.4999999999991
20
21165.0
0
VERTEX
8
0
10
797.4999999999991
20
21165.0
0
VERTEX
8
0
10
797.4999999999991
20
21160.0
0
VERTEX
8
0
10
802.4999999999991
20
21160.0
0
SEQEND
0
POLYLINE
8
0
66
1
10
0.0
20
0.0
30
0.0
0
VERTEX
8
0
10
807.4999999999991
20
21165.0
0
VERTEX
8
0
10
807.4999999999991
20
21170.0
0
VERTEX
8
0
10
792.4999999999991
20
21170.0
0
VERTEX
8
0
10
792.4999999999991
20
21165.0
0
VERTEX
8
0
10
807.4999999999991
20
21165.0
0
SEQEND
0
POLYLINE
8
0
66
1
10
0.0
20
0.0
30
0.0
0
VERTEX
8
0
10
797.4999999999991
20
21130.0
0
VERTEX
8
0
10
797.4999999999991
20
21125.0
0
VERTEX
8
0
10
802.4999999999991
20
21125.0
0
VERTEX
8
0
10
802.4999999999991
20
21130.0
0
VERTEX
8
0
10
797.4999999999991
20
21130.0
0
SEQEND
0
POLYLINE
8
0
66
1
10
0.0
20
0.0
30
0.0
0
VERTEX
8
0
10
792.4999999999991
20
21125.0
0
VERTEX
8
0
10
792.4999999999991
20
21120.0
0
VERTEX
8
0
10
807.4999999999991
20
21120.0
0
VERTEX
8
0
10
807.4999999999991
20
21125.0
0
VERTEX
8
0
10
792.4999999999991
20
21125.0
0
SEQEND
0
POLYLINE
8
0
66
1
10
0.0
20
0.0
30
0.0
0
VERTEX
8
0
10
784.9999999999991
20
21130.0
0
VERTEX
8
0
10
784.999999999999
20
20780.0
0
VERTEX
8
0
10
814.999999999999
20
20780.0
0
VERTEX
8
0
10
814.9999999999991
20
21130.0
0
VERTEX
8
0
10
784.9999999999991
20
21130.0
0
SEQEND
0
POLYLINE
8
0
66
1
10
0.0
20
0.0
30
0.0
0
VERTEX
8
0
10
724.999999999999
20
20780.0
0
VERTEX
8
0
10
724.9999999999976
20
17680.0
0
VERTEX
8
0
10
874.9999999999976
20
17680.0
0
VERTEX
8
0
10
874.999999999999
20
20780.0
0
VERTEX
8
0
10
724.999999999999
20
20780.0
0
SEQEND
0
POLYLINE
8
0
66
1
10
0.0
20
0.0
30
0.0
0
VERTEX
8
0
10
835.0
20
25630.0
0
VERTEX
8
0
10
835.0
20
25590.0
0
VERTEX
8
0
10
875.0
20
25590.0
0
VERTEX
8
0
10
875.0
20
25630.0
0
VERTEX
8
0
10
835.0
20
25630.0
0
SEQEND
0
POLYLINE
8
0
66
1
10
0.0
20
0.0
30
0.0
0
VERTEX
8
0
10
875.0
20
25590.0
0
VERTEX
8
0
10
869.6410161513776
20
25610.0
0
VERTEX
8
0
10
855.0
20
25624.641016151378
0
VERTEX
8
0
10
835.0
20
25630.0
0
VERTEX
8
0
10
835.0
20
25610.0
0
VERTEX
8
0
10
845.0
20
25607.32050807569
0
VERTEX
8
0
10
852.3205080756887
20
25600.0
0
VERTEX
8
0
10
855.0
20
25590.0
0
VERTEX
8
0
10
875.0
20
25590.0
0
SEQEND
0
POLYLINE
8
0
66
1
10
0.0
20
0.0
30
0.0
0
VERTEX
8
0
10
855.0
20
25590.0
0
VERTEX
8
0
10
852.3205080756887
20
25600.0
0
VERTEX
8
0
10
845.0
20
25607.32050807569
0
VERTEX
8
0
10
835.0
20
25610.0
0
VERTEX
8
0
10
835.0
20
25590.0
0
VERTEX
8
0
10
835.0
20
25590.0
0
VERTEX
8
0
10
835.0
20
25590.0
0
VERTEX
8
0
10
835.0
20
25590.0
0
VERTEX
8
0
10
855.0
20
25590.0
0
SEQEND
0
POLYLINE
8
0
66
1
10
0.0
20
0.0
30
0.0
0
VERTEX
8
0
10
725.0
20
25630.0
0
VERTEX
8
0
10
725.0
20
25590.0
0
VERTEX
8
0
10
765.0
20
25590.0
0
VERTEX
8
0
10
765.0
20
25630.0
0
VERTEX
8
0
10
725.0
20
25630.0
0
SEQEND
0
POLYLINE
8
0
66
1
10
0.0
20
0.0
30
0.0
0
VERTEX
8
0
10
725.0
20
25590.0
0
VERTEX
8
0
10
730.3589838486224
20
25610.0
0
VERTEX
8
0
10
745.0
20
25624.641016151378
0
VERTEX
8
0
10
765.0
20
25630.0
0
VERTEX
8
0
10
765.0
20
25610.0
0
VERTEX
8
0
10
755.0
20
25607.32050807569
0
VERTEX
8
0
10
747.6794919243113
20
25600.0
0
VERTEX
8
0
10
745.0
20
25590.0
0
VERTEX
8
0
10
725.0
20
25590.0
0
SEQEND
0
POLYLINE
8
0
66
1
10
0.0
20
0.0
30
0.0
0
VERTEX
8
0
10
745.0
20
25590.0
0
VERTEX
8
0
10
747.6794919243113
20
25600.0
0
VERTEX
8
0
10
755.0
20
25607.32050807569
0
VERTEX
8
0
10
765.0
20
25610.0
0
VERTEX
8
0
10
765.0
20
25590.0
0
VERTEX
8
0
10
765.0
20
25590.0
0
VERTEX
8
0
10
765.0
20
25590.0
0
VERTEX
8
0
10
765.0
20
25590.0
0
VERTEX
8
0
10
745.0
20
25590.0
0
SEQEND
0
POLYLINE
8
0
66
1
10
0.0
20
0.0
30
0.0
0
VERTEX
8
0
10
765.0
20
21530.0
0
VERTEX
8
0
10
765.0
20
21570.0
0
VERTEX
8
0
10
725.0
20
21570.0
0
VERTEX
8
0
10
725.0
20
21530.0
0
VERTEX
8
0
10
765.0
20
21530.0
0
SEQEND
0
POLYLINE
8
0
66
1
10
0.0
20
0.0
30
0.0
0
VERTEX
8
0
10
725.0
20
21570.0
0
VERTEX
8
0
10
730.3589838486224
20
21550.0
0
VERTEX
8
0
10
745.0
20
21535.358983848622
0
VERTEX
8
0
10
765.0
20
21530.0
0
VERTEX
8
0
10
765.0
20
21550.0
0
VERTEX
8
0
10
755.0
20
21552.67949192431
0
VERTEX
8
0
10
747.6794919243113
20
21560.0
0
VERTEX
8
0
10
745.0
20
21570.0
0
VERTEX
8
0
10
725.0
20
21570.0
0
SEQEND
0
POLYLINE
8
0
66
1
10
0.0
20
0.0
30
0.0
0
VERTEX
8
0
10
745.0
20
21570.0
0
VERTEX
8
0
10
747.6794919243113
20
21560.0
0
VERTEX
8
0
10
755.0
20
21552.67949192431
0
VERTEX
8
0
10
765.0
20
21550.0
0
VERTEX
8
0
10
765.0
20
21570.0
0
VERTEX
8
0
10
765.0
20
21570.0
0
VERTEX
8
0
10
765.0
20
21570.0
0
VERTEX
8
0
10
765.0
20
21570.0
0
VERTEX
8
0
10
745.0
20
21570.0
0
SEQEND
0
POLYLINE
8
0
66
1
10
0.0
20
0.0
30
0.0
0
VERTEX
8
0
10
875.0
20
21530.0
0
VERTEX
8
0
10
875.0
20
21570.0
0
VERTEX
8
0
10
835.0
20
21570.0
0
VERTEX
8
0
10
835.0
20
21530.0
0
VERTEX
8
0
10
875.0
20
21530.0
0
SEQEND
0
POLYLINE
8
0
66
1
10
0.0
20
0.0
30
0.0
0
VERTEX
8
0
10
875.0
20
21570.0
0
VERTEX
8
0
10
869.6410161513776
20
21550.0
0
VERTEX
8
0
10
855.0
20
21535.358983848622
0
VERTEX
8
0
10
835.0
20
21530.0
0
VERTEX
8
0
10
835.0
20
21550.0
0
VERTEX
8
0
10
845.0
20
21552.67949192431
0
VERTEX
8
0
10
852.3205080756887
20
21560.0
0
VERTEX
8
0
10
855.0
20
21570.0
0
VERTEX
8
0
10
875.0
20
21570.0
0
SEQEND
0
POLYLINE
8
0
66
1
10
0.0
20
0.0
30
0.0
0
VERTEX
8
0
10
855.0
20
21570.0
0
VERTEX
8
0
10
852.3205080756887
20
21560.0
0
VERTEX
8
0
10
845.0
20
21552.67949192431
0
VERTEX
8
0
10
835.0
20
21550.0
0
VERTEX
8
0
10
835.0
20
21570.0
0
VERTEX
8
0
10
835.0
20
21570.0
0
VERTEX
8
0
10
835.0
20
21570.0
0
VERTEX
8
0
10
835.0
20
21570.0
0
VERTEX
8
0
10
855.0
20
21570.0
0
SEQEND
0
POLYLINE
8
0
66
1
10
0.0
20
0.0
30
0.0
0
VERTEX
8
0
10
775.0
20
21530.0
0
VERTEX
8
0
10
775.0
20
21520.0
0
VERTEX
8
0
10
785.0
20
21520.0
0
VERTEX
8
0
10
785.0
20
21530.0
0
VERTEX
8
0
10
775.0
20
21530.0
0
SEQEND
0
POLYLINE
8
0
66
1
10
0.0
20
0.0
30
0.0
0
VERTEX
8
0
10
785.0
20
21520.0
0
VERTEX
8
0
10
783.6602540378444
20
21525.0
0
VERTEX
8
0
10
780.0
20
21528.660254037844
0
VERTEX
8
0
10
775.0
20
21530.0
0
VERTEX
8
0
10
775.0
20
21525.0
0
VERTEX
8
0
10
777.5
20
21524.330127018922
0
VERTEX
8
0
10
779.3301270189222
20
21522.5
0
VERTEX
8
0
10
780.0
20
21520.0
0
VERTEX
8
0
10
785.0
20
21520.0
0
SEQEND
0
POLYLINE
8
0
66
1
10
0.0
20
0.0
30
0.0
0
VERTEX
8
0
10
780.0
20
21520.0
0
VERTEX
8
0
10
779.3301270189222
20
21522.5
0
VERTEX
8
0
10
777.5
20
21524.330127018922
0
VERTEX
8
0
10
775.0
20
21525.0
0
VERTEX
8
0
10
775.0
20
21520.0
0
VERTEX
8
0
10
775.0
20
21520.0
0
VERTEX
8
0
10
775.0
20
21520.0
0
VERTEX
8
0
10
775.0
20
21520.0
0
VERTEX
8
0
10
780.0
20
21520.0
0
SEQEND
0
POLYLINE
8
0
66
1
10
0.0
20
0.0
30
0.0
0
VERTEX
8
0
10
815.0
20
21530.0
0
VERTEX
8
0
10
815.0
20
21520.0
0
VERTEX
8
0
10
825.0
20
21520.0
0
VERTEX
8
0
10
825.0
20
21530.0
0
VERTEX
8
0
10
815.0
20
21530.0
0
SEQEND
0
POLYLINE
8
0
66
1
10
0.0
20
0.0
30
0.0
0
VERTEX
8
0
10
815.0
20
21520.0
0
VERTEX
8
0
10
816.3397459621556
20
21525.0
0
VERTEX
8
0
10
820.0
20
21528.660254037844
0
VERTEX
8
0
10
825.0
20
21530.0
0
VERTEX
8
0
10
825.0
20
21525.0
0
VERTEX
8
0
10
822.5
20
21524.330127018922
0
VERTEX
8
0
10
820.6698729810778
20
21522.5
0
VERTEX
8
0
10
820.0
20
21520.0
0
VERTEX
8
0
10
815.0
20
21520.0
0
SEQEND
0
POLYLINE
8
0
66
1
10
0.0
20
0.0
30
0.0
0
VERTEX
8
0
10
820.0
20
21520.0
0
VERTEX
8
0
10
820.6698729810778
20
21522.5
0
VERTEX
8
0
10
822.5
20
21524.330127018922
0
VERTEX
8
0
10
825.0
20
21525.0
0
VERTEX
8
0
10
825.0
20
21520.0
0
VERTEX
8
0
10
825.0
20
21520.0
0
VERTEX
8
0
10
825.0
20
21520.0
0
VERTEX
8
0
10
825.0
20
21520.0
0
VERTEX
8
0
10
820.0
20
21520.0
0
SEQEND
0
POLYLINE
8
0
66
1
10
0.0
20
0.0
30
0.0
0
VERTEX
8
0
10
874.9999999999976
20
17680.0
0
VERTEX
8
0
10
874.9999999999976
20
17720.0
0
VERTEX
8
0
10
834.9999999999976
20
17720.0
0
VERTEX
8
0
10
834.9999999999976
20
17680.0
0
VERTEX
8
0
10
874.9999999999976
20
17680.0
0
SEQEND
0
POLYLINE
8
0
66
1
10
0.0
20
0.0
30
0.0
0
VERTEX
8
0
10
874.9999999999976
20
17720.0
0
VERTEX
8
0
10
869.6410161513752
20
17700.0
0
VERTEX
8
0
10
854.9999999999976
20
17685.358983848622
0
VERTEX
8
0
10
834.9999999999976
20
17680.0
0
VERTEX
8
0
10
834.9999999999976
20
17700.0
0
VERTEX
8
0
10
844.9999999999976
20
17702.67949192431
0
VERTEX
8
0
10
852.3205080756863
20
17710.0
0
VERTEX
8
0
10
854.9999999999976
20
17720.0
0
VERTEX
8
0
10
874.9999999999976
20
17720.0
0
SEQEND
0
POLYLINE
8
0
66
1
10
0.0
20
0.0
30
0.0
0
VERTEX
8
0
10
854.9999999999976
20
17720.0
0
VERTEX
8
0
10
852.3205080756863
20
17710.0
0
VERTEX
8
0
10
844.9999999999976
20
17702.67949192431
0
VERTEX
8
0
10
834.9999999999976
20
17700.0
0
VERTEX
8
0
10
834.9999999999976
20
17720.0
0
VERTEX
8
0
10
834.9999999999976
20
17720.0
0
VERTEX
8
0
10
834.9999999999976
20
17720.0
0
VERTEX
8
0
10
834.9999999999976
20
17720.0
0
VERTEX
8
0
10
854.9999999999976
20
17720.0
0
SEQEND
0
POLYLINE
8
0
66
1
10
0.0
20
0.0
30
0.0
0
VERTEX
8
0
10
764.9999999999976
20
17680.0
0
VERTEX
8
0
10
764.9999999999976
20
17720.0
0
VERTEX
8
0
10
724.9999999999976
20
17720.0
0
VERTEX
8
0
10
724.9999999999976
20
17680.0
0
VERTEX
8
0
10
764.9999999999976
20
17680.0
0
SEQEND
0
POLYLINE
8
0
66
1
10
0.0
20
0.0
30
0.0
0
VERTEX
8
0
10
724.9999999999976
20
17720.0
0
VERTEX
8
0
10
730.35898384862
20
17700.0
0
VERTEX
8
0
10
744.9999999999976
20
17685.358983848622
0
VERTEX
8
0
10
764.9999999999976
20
17680.0
0
VERTEX
8
0
10
764.9999999999976
20
17700.0
0
VERTEX
8
0
10
754.9999999999976
20
17702.67949192431
0
VERTEX
8
0
10
747.6794919243089
20
17710.0
0
VERTEX
8
0
10
744.9999999999976
20
17720.0
0
VERTEX
8
0
10
724.9999999999976
20
17720.0
0
SEQEND
0
POLYLINE
8
0
66
1
10
0.0
20
0.0
30
0.0
0
VERTEX
8
0
10
744.9999999999976
20
17720.0
0
VERTEX
8
0
10
747.6794919243089
20
17710.0
0
VERTEX
8
0
10
754.9999999999976
20
17702.67949192431
0
VERTEX
8
0
10
764.9999999999976
20
17700.0
0
VERTEX
8
0
10
764.9999999999976
20
17720.0
0
VERTEX
8
0
10
764.9999999999976
20
17720.0
0
VERTEX
8
0
10
764.9999999999976
20
17720.0
0
VERTEX
8
0
10
764.9999999999976
20
17720.0
0
VERTEX
8
0
10
744.9999999999976
20
17720.0
0
SEQEND
0
POLYLINE
8
0
66
1
10
0.0
20
0.0
30
0.0
0
VERTEX
8
0
10
724.9999999999976
20
20780.0
0
VERTEX
8
0
10
724.9999999999976
20
20740.0
0
VERTEX
8
0
10
764.9999999999976
20
20740.0
0
VERTEX
8
0
10
764.9999999999976
20
20780.0
0
VERTEX
8
0
10
724.9999999999976
20
20780.0
0
SEQEND
0
POLYLINE
8
0
66
1
10
0.0
20
0.0
30
0.0
0
VERTEX
8
0
10
724.9999999999976
20
20740.0
0
VERTEX
8
0
10
730.35898384862
20
20760.0
0
VERTEX
8
0
10
744.9999999999976
20
20774.641016151378
0
VERTEX
8
0
10
764.9999999999976
20
20780.0
0
VERTEX
8
0
10
764.9999999999976
20
20760.0
0
VERTEX
8
0
10
754.9999999999976
20
20757.32050807569
0
VERTEX
8
0
10
747.6794919243089
20
20750.0
0
VERTEX
8
0
10
744.9999999999976
20
20740.0
0
VERTEX
8
0
10
724.9999999999976
20
20740.0
0
SEQEND
0
POLYLINE
8
0
66
1
10
0.0
20
0.0
30
0.0
0
VERTEX
8
0
10
744.9999999999976
20
20740.0
0
VERTEX
8
0
10
747.6794919243089
20
20750.0
0
VERTEX
8
0
10
754.9999999999976
20
20757.32050807569
0
VERTEX
8
0
10
764.9999999999976
20
20760.0
0
VERTEX
8
0
10
764.9999999999976
20
20740.0
0
VERTEX
8
0
10
764.9999999999976
20
20740.0
0
VERTEX
8
0
10
764.9999999999976
20
20740.0
0
VERTEX
8
0
10
764.9999999999976
20
20740.0
0
VERTEX
8
0
10
744.9999999999976
20
20740.0
0
SEQEND
0
POLYLINE
8
0
66
1
10
0.0
20
0.0
30
0.0
0
VERTEX
8
0
10
834.9999999999976
20
20780.0
0
VERTEX
8
0
10
834.9999999999976
20
20740.0
0
VERTEX
8
0
10
874.9999999999976
20
20740.0
0
VERTEX
8
0
10
874.9999999999976
20
20780.0
0
VERTEX
8
0
10
834.9999999999976
20
20780.0
0
SEQEND
0
POLYLINE
8
0
66
1
10
0.0
20
0.0
30
0.0
0
VERTEX
8
0
10
874.9999999999976
20
20740.0
0
VERTEX
8
0
10
869.6410161513752
20
20760.0
0
VERTEX
8
0
10
854.9999999999976
20
20774.641016151378
0
VERTEX
8
0
10
834.9999999999976
20
20780.0
0
VERTEX
8
0
10
834.9999999999976
20
20760.0
0
VERTEX
8
0
10
844.9999999999976
20
20757.32050807569
0
VERTEX
8
0
10
852.3205080756863
20
20750.0
0
VERTEX
8
0
10
854.9999999999976
20
20740.0
0
VERTEX
8
0
10
874.9999999999976
20
20740.0
0
SEQEND
0
POLYLINE
8
0
66
1
10
0.0
20
0.0
30
0.0
0
VERTEX
8
0
10
854.9999999999976
20
20740.0
0
VERTEX
8
0
10
852.3205080756863
20
20750.0
0
VERTEX
8
0
10
844.9999999999976
20
20757.32050807569
0
VERTEX
8
0
10
834.9999999999976
20
20760.0
0
VERTEX
8
0
10
834.9999999999976
20
20740.0
0
VERTEX
8
0
10
834.9999999999976
20
20740.0
0
VERTEX
8
0
10
834.9999999999976
20
20740.0
0
VERTEX
8
0
10
834.9999999999976
20
20740.0
0
VERTEX
8
0
10
854.9999999999976
20
20740.0
0
SEQEND
0
POLYLINE
8
0
66
1
10
0.0
20
0.0
30
0.0
0
VERTEX
8
0
10
784.9999999999976
20
20780.0
0
VERTEX
8
0
10
784.9999999999976
20
20790.0
0
VERTEX
8
0
10
774.9999999999976
20
20790.0
0
VERTEX
8
0
10
774.9999999999976
20
20780.0
0
VERTEX
8
0
10
784.9999999999976
20
20780.0
0
SEQEND
0
POLYLINE
8
0
66
1
10
0.0
20
0.0
30
0.0
0
VERTEX
8
0
10
784.9999999999976
20
20790.0
0
VERTEX
8
0
10
783.660254037842
20
20785.0
0
VERTEX
8
0
10
779.9999999999976
20
20781.339745962156
0
VERTEX
8
0
10
774.9999999999976
20
20780.0
0
VERTEX
8
0
10
774.9999999999976
20
20785.0
0
VERTEX
8
0
10
777.4999999999976
20
20785.669872981078
0
VERTEX
8
0
10
779.3301270189198
20
20787.5
0
VERTEX
8
0
10
779.9999999999976
20
20790.0
0
VERTEX
8
0
10
784.9999999999976
20
20790.0
0
SEQEND
0
POLYLINE
8
0
66
1
10
0.0
20
0.0
30
0.0
0
VERTEX
8
0
10
779.9999999999976
20
20790.0
0
VERTEX
8
0
10
779.3301270189198
20
20787.5
0
VERTEX
8
0
10
777.4999999999976
20
20785.669872981078
0
VERTEX
8
0
10
774.9999999999976
20
20785.0
0
VERTEX
8
0
10
774.9999999999976
20
20790.0
0
VERTEX
8
0
10
774.9999999999976
20
20790.0
0
VERTEX
8
0
10
774.9999999999976
20
20790.0
0
VERTEX
8
0
10
774.9999999999976
20
20790.0
0
VERTEX
8
0
10
779.9999999999976
20
20790.0
0
SEQEND
0
POLYLINE
8
0
66
1
10
0.0
20
0.0
30
0.0
0
VERTEX
8
0
10
824.9999999999976
20
20780.0
0
VERTEX
8
0
10
824.9999999999976
20
20790.0
0
VERTEX
8
0
10
814.9999999999976
20
20790.0
0
VERTEX
8
0
10
814.9999999999976
20
20780.0
0
VERTEX
8
0
10
824.9999999999976
20
20780.0
0
SEQEND
0
POLYLINE
8
0
66
1
10
0.0
20
0.0
30
0.0
0
VERTEX
8
0
10
814.9999999999976
20
20790.0
0
VERTEX
8
0
10
816.3397459621532
20
20785.0
0
VERTEX
8
0
10
819.9999999999976
20
20781.339745962156
0
VERTEX
8
0
10
824.9999999999976
20
20780.0
0
VERTEX
8
0
10
824.9999999999976
20
20785.0
0
VERTEX
8
0
10
822.4999999999976
20
20785.669872981078
0
VERTEX
8
0
10
820.6698729810754
20
20787.5
0
VERTEX
8
0
10
819.9999999999976
20
20790.0
0
VERTEX
8
0
10
814.9999999999976
20
20790.0
0
SEQEND
0
POLYLINE
8
0
66
1
10
0.0
20
0.0
30
0.0
0
VERTEX
8
0
10
819.9999999999976
20
20790.0
0
VERTEX
8
0
10
820.6698729810754
20
20787.5
0
VERTEX
8
0
10
822.4999999999976
20
20785.669872981078
0
VERTEX
8
0
10
824.9999999999976
20
20785.0
0
VERTEX
8
0
10
824.9999999999976
20
20790.0
0
VERTEX
8
0
10
824.9999999999976
20
20790.0
0
VERTEX
8
0
10
824.9999999999976
20
20790.0
0
VERTEX
8
0
10
824.9999999999976
20
20790.0
0
VERTEX
8
0
10
819.9999999999976
20
20790.0
0
SEQEND
0
POLYLINE
8
0
66
1
10
0.0
20
0.0
30
0.0
0
VERTEX
8
0
10
400.0
20
3200.0
0
VERTEX
8
0
10
399.9999999999999
20
2400.0
0
VERTEX
8
0
10
1200.0
20
2400.0
0
VERTEX
8
0
10
1200.0
20
3200.0
0
VERTEX
8
0
10
400.0
20
3200.0
0
SEQEND
0
POLYLINE
8
0
66
1
10
0.0
20
0.0
30
0.0
0
VERTEX
8
0
10
784.9999999999999
20
2400.0
0
VERTEX
8
0
10
784.9999999999999
20
2300.0
0
VERTEX
8
0
10
814.9999999999999
20
2300.0
0
VERTEX
8
0
10
814.9999999999999
20
2400.0
0
VERTEX
8
0
10
784.9999999999999
20
2400.0
0
SEQEND
0
POLYLINE
8
0
66
1
10
0.0
20
0.0
30
0.0
0
VERTEX
8
0
10
802.4999999999999
20
2300.0
0
VERTEX
8
0
10
802.4999999999999
20
2305.0
0
VERTEX
8
0
10
797.4999999999999
20
2305.0
0
VERTEX
8
0
10
797.4999999999999
20
2300.0
0
VERTEX
8
0
10
802.4999999999999
20
2300.0
0
SEQEND
0
POLYLINE
8
0
66
1
10
0.0
20
0.0
30
0.0
0
VERTEX
8
0
10
807.4999999999999
20
2305.0
0
VERTEX
8
0
10
807.4999999999999
20
2310.0
0
VERTEX
8
0
10
792.4999999999999
20
2310.0
0
VERTEX
8
0
10
792.4999999999999
20
2305.0
0
VERTEX
8
0
10
807.4999999999999
20
2305.0
0
SEQEND
0
POLYLINE
8
0
66
1
10
0.0
20
0.0
30
0.0
0
VERTEX
8
0
10
797.4999999999999
20
2270.0
0
VERTEX
8
0
10
797.4999999999999
20
2265.0
0
VERTEX
8
0
10
802.4999999999999
20
2265.0
0
VERTEX
8
0
10
802.4999999999999
20
2270.0
0
VERTEX
8
0
10
797.4999999999999
20
2270.0
0
SEQEND
0
POLYLINE
8
0
66
1
10
0.0
20
0.0
30
0.0
0
VERTEX
8
0
10
792.4999999999999
20
2265.0
0
VERTEX
8
0
10
792.4999999999999
20
2260.0
0
VERTEX
8
0
10
807.4999999999999
20
2260.0
0
VERTEX
8
0
10
807.4999999999999
20
2265.0
0
VERTEX
8
0
10
792.4999999999999
20
2265.0
0
SEQEND
0
POLYLINE
8
0
66
1
10
0.0
20
0.0
30
0.0
0
VERTEX
8
0
10
784.9999999999999
20
2270.0
0
VERTEX
8
0
10
784.9999999999999
20
2170.0
0
VERTEX
8
0
10
814.9999999999999
20
2170.0
0
VERTEX
8
0
10
814.9999999999999
20
2270.0
0
VERTEX
8
0
10
784.9999999999999
20
2270.0
0
SEQEND
0
POLYLINE
8
0
66
1
10
0.0
20
0.0
30
0.0
0
VERTEX
8
0
10
399.9999999999999
20
2170.0
0
VERTEX
8
0
10
399.99999999999955
20
1370.0000000000002
0
VERTEX
8
0
10
1199.9999999999995
20
1369.9999999999998
0
VERTEX
8
0
10
1200.0
20
2170.0
0
VERTEX
8
0
10
399.9999999999999
20
2170.0
0
SEQEND
0
POLYLINE
8
0
66
1
10
0.0
20
0.0
30
0.0
0
VERTEX
8
0
10
1160.0
20
3200.0
0
VERTEX
8
0
10
1160.0
20
3160.0
0
VERTEX
8
0
10
1200.0
20
3160.0
0
VERTEX
8
0
10
1200.0
20
3200.0
0
VERTEX
8
0
10
1160.0
20
3200.0
0
SEQEND
0
POLYLINE
8
0
66
1
10
0.0
20
0.0
30
0.0
0
VERTEX
8
0
10
1200.0
20
3160.0
0
VERTEX
8
0
10
1194.6410161513775
20
3180.0
0
VERTEX
8
0
10
1180.0
20
3194.6410161513777
0
VERTEX
8
0
10
1160.0
20
3200.0
0
VERTEX
8
0
10
1160.0
20
3180.0
0
VERTEX
8
0
10
1170.0
20
3177.320508075689
0
VERTEX
8
0
10
1177.3205080756888
20
3170.0
0
VERTEX
8
0
10
1180.0
20
3160.0
0
VERTEX
8
0
10
1200.0
20
3160.0
0
SEQEND
0
POLYLINE
8
0
66
1
10
0.0
20
0.0
30
0.0
0
VERTEX
8
0
10
1180.0
20
3160.0
0
VERTEX
8
0
10
1177.3205080756888
20
3170.0
0
VERTEX
8
0
10
1170.0
20
3177.320508075689
0
VERTEX
8
0
10
1160.0
20
3180.0
0
VERTEX
8
0
10
1160.0
20
3160.0
0
VERTEX
8
0
10
1160.0
20
3160.0
0
VERTEX
8
0
10
1160.0
20
3160.0
0
VERTEX
8
0
10
1160.0
20
3160.0
0
VERTEX
8
0
10
1180.0
20
3160.0
0
SEQEND
0
POLYLINE
8
0
66
1
10
0.0
20
0.0
30
0.0
0
VERTEX
8
0
10
400.0
20
3200.0
0
VERTEX
8
0
10
400.0
20
3160.0
0
VERTEX
8
0
10
440.0
20
3160.0
0
VERTEX
8
0
10
440.0
20
3200.0
0
VERTEX
8
0
10
400.0
20
3200.0
0
SEQEND
0
POLYLINE
8
0
66
1
10
0.0
20
0.0
30
0.0
0
VERTEX
8
0
10
400.0
20
3160.0
0
VERTEX
8
0
10
405.3589838486225
20
3180.0
0
VERTEX
8
0
10
420.0
20
3194.6410161513777
0
VERTEX
8
0
10
440.0
20
3200.0
0
VERTEX
8
0
10
440.0
20
3180.0
0
VERTEX
8
0
10
430.0
20
3177.320508075689
0
VERTEX
8
0
10
422.6794919243112
20
3170.0
0
VERTEX
8
0
10
420.0
20
3160.0
0
VERTEX
8
0
10
400.0
20
3160.0
0
SEQEND
0
POLYLINE
8
0
66
1
10
0.0
20
0.0
30
0.0
0
VERTEX
8
0
10
420.0
20
3160.0
0
VERTEX
8
0
10
422.6794919243112
20
3170.0
0
VERTEX
8
0
10
430.0
20
3177.320508075689
0
VERTEX
8
0
10
440.0
20
3180.0
0
VERTEX
8
0
10
440.0
20
3160.0
0
VERTEX
8
0
10
440.0
20
3160.0
0
VERTEX
8
0
10
440.0
20
3160.0
0
VERTEX
8
0
10
440.0
20
3160.0
0
VERTEX
8
0
10
420.0
20
3160.0
0
SEQEND
0
POLYLINE
8
0
66
1
10
0.0
20
0.0
30
0.0
0
VERTEX
8
0
10
440.0
20
2400.0
0
VERTEX
8
0
10
440.0
20
2440.0
0
VERTEX
8
0
10
400.0
20
2440.0
0
VERTEX
8
0
10
400.0
20
2400.0
0
VERTEX
8
0
10
440.0
20
2400.0
0
SEQEND
0
POLYLINE
8
0
66
1
10
0.0
20
0.0
30
0.0
0
VERTEX
8
0
10
400.0
20
2440.0
0
VERTEX
8
0
10
405.3589838486225
20
2420.0
0
VERTEX
8
0
10
420.0
20
2405.3589838486223
0
VERTEX
8
0
10
440.0
20
2400.0
0
VERTEX
8
0
10
440.0
20
2420.0
0
VERTEX
8
0
10
430.0
20
2422.679491924311
0
VERTEX
8
0
10
422.6794919243112
20
2430.0
0
VERTEX
8
0
10
420.0
20
2440.0
0
VERTEX
8
0
10
400.0
20
2440.0
0
SEQEND
0
POLYLINE
8
0
66
1
10
0.0
20
0.0
30
0.0
0
VERTEX
8
0
10
420.0
20
2440.0
0
VERTEX
8
0
10
422.6794919243112
20
2430.0
0
VERTEX
8
0
10
430.0
20
2422.679491924311
0
VERTEX
8
0
10
440.0
20
2420.0
0
VERTEX
8
0
10
440.0
20
2440.0
0
VERTEX
8
0
10
440.0
20
2440.0
0
VERTEX
8
0
10
440.0
20
2440.0
0
VERTEX
8
0
10
440.0
20
2440.0
0
VERTEX
8
0
10
420.0
20
2440.0
0
SEQEND
0
POLYLINE
8
0
66
1
10
0.0
20
0.0
30
0.0
0
VERTEX
8
0
10
1200.0
20
2400.0
0
VERTEX
8
0
10
1200.0
20
2440.0
0
VERTEX
8
0
10
1160.0
20
2440.0
0
VERTEX
8
0
10
1160.0
20
2400.0
0
VERTEX
8
0
10
1200.0
20
2400.0
0
SEQEND
0
POLYLINE
8
0
66
1
10
0.0
20
0.0
30
0.0
0
VERTEX
8
0
10
1200.0
20
2440.0
0
VERTEX
8
0
10
1194.6410161513775
20
2420.0
0
VERTEX
8
0
10
1180.0
20
2405.3589838486223
0
VERTEX
8
0
10
1160.0
20
2400.0
0
VERTEX
8
0
10
1160.0
20
2420.0
0
VERTEX
8
0
10
1170.0
20
2422.679491924311
0
VERTEX
8
0
10
1177.3205080756888
20
2430.0
0
VERTEX
8
0
10
1180.0
20
2440.0
0
VERTEX
8
0
10
1200.0
20
2440.0
0
SEQEND
0
POLYLINE
8
0
66
1
10
0.0
20
0.0
30
0.0
0
VERTEX
8
0
10
1180.0
20
2440.0
0
VERTEX
8
0
10
1177.3205080756888
20
2430.0
0
VERTEX
8
0
10
1170.0
20
2422.679491924311
0
VERTEX
8
0
10
1160.0
20
2420.0
0
VERTEX
8
0
10
1160.0
20
2440.0
0
VERTEX
8
0
10
1160.0
20
2440.0
0
VERTEX
8
0
10
1160.0
20
2440.0
0
VERTEX
8
0
10
1160.0
20
2440.0
0
VERTEX
8
0
10
1180.0
20
2440.0
0
SEQEND
0
POLYLINE
8
0
66
1
10
0.0
20
0.0
30
0.0
0
VERTEX
8
0
10
775.0
20
2400.0
0
VERTEX
8
0
10
775.0
20
2390.0
0
VERTEX
8
0
10
785.0
20
2390.0
0
VERTEX
8
0
10
785.0
20
2400.0
0
VERTEX
8
0
10
775.0
20
2400.0
0
SEQEND
0
POLYLINE
8
0
66
1
10
0.0
20
0.0
30
0.0
0
VERTEX
8
0
10
785.0
20
2390.0
0
VERTEX
8
0
10
783.6602540378444
20
2395.0
0
VERTEX
8
0
10
780.0
20
2398.6602540378444
0
VERTEX
8
0
10
775.0
20
2400.0
0
VERTEX
8
0
10
775.0
20
2395.0
0
VERTEX
8
0
10
777.5
20
2394.330127018922
0
VERTEX
8
0
10
779.3301270189222
20
2392.5
0
VERTEX
8
0
10
780.0
20
2390.0
0
VERTEX
8
0
10
785.0
20
2390.0
0
SEQEND
0
POLYLINE
8
0
66
1
10
0.0
20
0.0
30
0.0
0
VERTEX
8
0
10
780.0
20
2390.0
0
VERTEX
8
0
10
779.3301270189222
20
2392.5
0
VERTEX
8
0
10
777.5
20
2394.330127018922
0
VERTEX
8
0
10
775.0
20
2395.0
0
VERTEX
8
0
10
775.0
20
2390.0
0
VERTEX
8
0
10
775.0
20
2390.0
0
VERTEX
8
0
10
775.0
20
2390.0
0
VERTEX
8
0
10
775.0
20
2390.0
0
VERTEX
8
0
10
780.0
20
2390.0
0
SEQEND
0
POLYLINE
8
0
66
1
10
0.0
20
0.0
30
0.0
0
VERTEX
8
0
10
815.0
20
2400.0
0
VERTEX
8
0
10
815.0
20
2390.0
0
VERTEX
8
0
10
825.0
20
2390.0
0
VERTEX
8
0
10
825.0
20
2400.0
0
VERTEX
8
0
10
815.0
20
2400.0
0
SEQEND
0
POLYLINE
8
0
66
1
10
0.0
20
0.0
30
0.0
0
VERTEX
8
0
10
815.0
20
2390.0
0
VERTEX
8
0
10
816.3397459621556
20
2395.0
0
VERTEX
8
0
10
820.0
20
2398.6602540378444
0
VERTEX
8
0
10
825.0
20
2400.0
0
VERTEX
8
0
10
825.0
20
2395.0
0
VERTEX
8
0
10
822.5
20
2394.330127018922
0
VERTEX
8
0
10
820.6698729810778
20
2392.5
0
VERTEX
8
0
10
820.0
20
2390.0
0
VERTEX
8
0
10
815.0
20
2390.0
0
SEQEND
0
POLYLINE
8
0
66
1
10
0.0
20
0.0
30
0.0
0
VERTEX
8
0
10
820.0
20
2390.0
0
VERTEX
8
0
10
820.6698729810778
20
2392.5
0
VERTEX
8
0
10
822.5
20
2394.330127018922
0
VERTEX
8
0
10
825.0
20
2395.0
0
VERTEX
8
0
10
825.0
20
2390.0
0
VERTEX
8
0
10
825.0
20
2390.0
0
VERTEX
8
0
10
825.0
20
2390.0
0
VERTEX
8
0
10
825.0
20
2390.0
0
VERTEX
8
0
10
820.0
20
2390.0
0
SEQEND
0
POLYLINE
8
0
66
1
10
0.0
20
0.0
30
0.0
0
VERTEX
8
0
10
1199.9999999999995
20
1370.0
0
VERTEX
8
0
10
1199.9999999999995
20
1410.0
0
VERTEX
8
0
10
1159.9999999999995
20
1410.0
0
VERTEX
8
0
10
1159.9999999999995
20
1370.0
0
VERTEX
8
0
10
1199.9999999999995
20
1370.0
0
SEQEND
0
POLYLINE
8
0
66
1
10
0.0
20
0.0
30
0.0
0
VERTEX
8
0
10
1199.9999999999995
20
1410.0
0
VERTEX
8
0
10
1194.641016151377
20
1390.0
0
VERTEX
8
0
10
1179.9999999999995
20
1375.3589838486225
0
VERTEX
8
0
10
1159.9999999999995
20
1370.0
0
VERTEX
8
0
10
1159.9999999999995
20
1390.0
0
VERTEX
8
0
10
1169.9999999999995
20
1392.6794919243112
0
VERTEX
8
0
10
1177.3205080756884
20
1400.0
0
VERTEX
8
0
10
1179.9999999999995
20
1410.0
0
VERTEX
8
0
10
1199.9999999999995
20
1410.0
0
SEQEND
0
POLYLINE
8
0
66
1
10
0.0
20
0.0
30
0.0
0
VERTEX
8
0
10
1179.9999999999995
20
1410.0
0
VERTEX
8
0
10
1177.3205080756884
20
1400.0
0
VERTEX
8
0
10
1169.9999999999995
20
1392.6794919243112
0
VERTEX
8
0
10
1159.9999999999995
20
1390.0
0
VERTEX
8
0
10
1159.9999999999995
20
1410.0
0
VERTEX
8
0
10
1159.9999999999995
20
1410.0
0
VERTEX
8
0
10
1159.9999999999995
20
1410.0
0
VERTEX
8
0
10
1159.9999999999995
20
1410.0
0
VERTEX
8
0
10
1179.9999999999995
20
1410.0
0
SEQEND
0
POLYLINE
8
0
66
1
10
0.0
20
0.0
30
0.0
0
VERTEX
8
0
10
439.99999999999955
20
1370.0
0
VERTEX
8
0
10
439.99999999999955
20
1410.0
0
VERTEX
8
0
10
399.99999999999955
20
1410.0
0
VERTEX
8
0
10
399.99999999999955
20
1370.0
0
VERTEX
8
0
10
439.99999999999955
20
1370.0
0
SEQEND
0
POLYLINE
8
0
66
1
10
0.0
20
0.0
30
0.0
0
VERTEX
8
0
10
399.99999999999955
20
1410.0
0
VERTEX
8
0
10
405.358983848622
20
1390.0
0
VERTEX
8
0
10
419.99999999999955
20
1375.3589838486225
0
VERTEX
8
0
10
439.99999999999955
20
1370.0
0
VERTEX
8
0
10
439.99999999999955
20
1390.0
0
VERTEX
8
0
10
429.99999999999955
20
1392.6794919243112
0
VERTEX
8
0
10
422.67949192431075
20
1400.0
0
VERTEX
8
0
10
419.99999999999955
20
1410.0
0
VERTEX
8
0
10
399.99999999999955
20
1410.0
0
SEQEND
0
POLYLINE
8
0
66
1
10
0.0
20
0.0
30
0.0
0
VERTEX
8
0
10
419.99999999999955
20
1410.0
0
VERTEX
8
0
10
422.67949192431075
20
1400.0
0
VERTEX
8
0
10
429.99999999999955
20
1392.6794919243112
0
VERTEX
8
0
10
439.99999999999955
20
1390.0
0
VERTEX
8
0
10
439.99999999999955
20
1410.0
0
VERTEX
8
0
10
439.99999999999955
20
1410.0
0
VERTEX
8
0
10
439.99999999999955
20
1410.0
0
VERTEX
8
0
10
439.99999999999955
20
1410.0
0
VERTEX
8
0
10
419.99999999999955
20
1410.0
0
SEQEND
0
POLYLINE
8
0
66
1
10
0.0
20
0.0
30
0.0
0
VERTEX
8
0
10
399.99999999999955
20
2170.0
0
VERTEX
8
0
10
399.99999999999955
20
2130.0
0
VERTEX
8
0
10
439.99999999999955
20
2130.0
0
VERTEX
8
0
10
439.99999999999955
20
2170.0
0
VERTEX
8
0
10
399.99999999999955
20
2170.0
0
SEQEND
0
POLYLINE
8
0
66
1
10
0.0
20
0.0
30
0.0
0
VERTEX
8
0
10
399.99999999999955
20
2130.0
0
VERTEX
8
0
10
405.358983848622
20
2150.0
0
VERTEX
8
0
10
419.99999999999955
20
2164.6410161513777
0
VERTEX
8
0
10
439.99999999999955
20
2170.0
0
VERTEX
8
0
10
439.99999999999955
20
2150.0
0
VERTEX
8
0
10
429.99999999999955
20
2147.320508075689
0
VERTEX
8
0
10
422.67949192431075
20
2140.0
0
VERTEX
8
0
10
419.99999999999955
20
2130.0
0
VERTEX
8
0
10
399.99999999999955
20
2130.0
0
SEQEND
0
POLYLINE
8
0
66
1
10
0.0
20
0.0
30
0.0
0
VERTEX
8
0
10
419.99999999999955
20
2130.0
0
VERTEX
8
0
10
422.67949192431075
20
2140.0
0
VERTEX
8
0
10
429.99999999999955
20
2147.320508075689
0
VERTEX
8
0
10
439.99999999999955
20
2150.0
0
VERTEX
8
0
10
439.99999999999955
20
2130.0
0
VERTEX
8
0
10
439.99999999999955
20
2130.0
0
VERTEX
8
0
10
439.99999999999955
20
2130.0
0
VERTEX
8
0
10
439.99999999999955
20
2130.0
0
VERTEX
8
0
10
419.99999999999955
20
2130.0
0
SEQEND
0
POLYLINE
8
0
66
1
10
0.0
20
0.0
30
0.0
0
VERTEX
8
0
10
1159.9999999999995
20
2170.0
0
VERTEX
8
0
10
1159.9999999999995
20
2130.0
0
VERTEX
8
0
10
1199.9999999999995
20
2130.0
0
VERTEX
8
0
10
1199.9999999999995
20
2170.0
0
VERTEX
8
0
10
1159.9999999999995
20
2170.0
0
SEQEND
0
POLYLINE
8
0
66
1
10
0.0
20
0.0
30
0.0
0
VERTEX
8
0
10
1199.9999999999995
20
2130.0
0
VERTEX
8
0
10
1194.641016151377
20
2150.0
0
VERTEX
8
0
10
1179.9999999999995
20
2164.6410161513777
0
VERTEX
8
0
10
1159.9999999999995
20
2170.0
0
VERTEX
8
0
10
1159.9999999999995
20
2150.0
0
VERTEX
8
0
10
1169.9999999999995
20
2147.320508075689
0
VERTEX
8
0
10
1177.3205080756884
20
2140.0
0
VERTEX
8
0
10
1179.9999999999995
20
2130.0
0
VERTEX
8
0
10
1199.9999999999995
20
2130.0
0
SEQEND
0
POLYLINE
8
0
66
1
10
0.0
20
0.0
30
0.0
0
VERTEX
8
0
10
1179.9999999999995
20
2130.0
0
VERTEX
8
0
10
1177.3205080756884
20
2140.0
0
VERTEX
8
0
10
1169.9999999999995
20
2147.320508075689
0
VERTEX
8
0
10
1159.9999999999995
20
2150.0
0
VERTEX
8
0
10
1159.9999999999995
20
2130.0
0
VERTEX
8
0
10
1159.9999999999995
20
2130.0
0
VERTEX
8
0
10
1159.9999999999995
20
2130.0
0
VERTEX
8
0
10
1159.9999999999995
20
2130.0
0
VERTEX
8
0
10
1179.9999999999995
20
2130.0
0
SEQEND
0
POLYLINE
8
0
66
1
10
0.0
20
0.0
30
0.0
0
VERTEX
8
0
10
784.9999999999995
20
2170.0
0
VERTEX
8
0
10
784.9999999999995
20
2180.0
0
VERTEX
8
0
10
774.9999999999995
20
2180.0
0
VERTEX
8
0
10
774.9999999999995
20
2170.0
0
VERTEX
8
0
10
784.9999999999995
20
2170.0
0
SEQEND
0
POLYLINE
8
0
66
1
10
0.0
20
0.0
30
0.0
0
VERTEX
8
0
10
784.9999999999995
20
2180.0
0
VERTEX
8
0
10
783.660254037844
20
2175.0
0
VERTEX
8
0
10
779.9999999999995
20
2171.3397459621556
0
VERTEX
8
0
10
774.9999999999995
20
2170.0
0
VERTEX
8
0
10
774.9999999999995
20
2175.0
0
VERTEX
8
0
10
777.4999999999995
20
2175.669872981078
0
VERTEX
8
0
10
779.3301270189218
20
2177.5
0
VERTEX
8
0
10
779.9999999999995
20
2180.0
0
VERTEX
8
0
10
784.9999999999995
20
2180.0
0
SEQEND
0
POLYLINE
8
0
66
1
10
0.0
20
0.0
30
0.0
0
VERTEX
8
0
10
779.9999999999995
20
2180.0
0
VERTEX
8
0
10
779.3301270189218
20
2177.5
0
VERTEX
8
0
10
777.4999999999995
20
2175.669872981078
0
VERTEX
8
0
10
774.9999999999995
20
2175.0
0
VERTEX
8
0
10
774.9999999999995
20
2180.0
0
VERTEX
8
0
10
774.9999999999995
20
2180.0
0
VERTEX
8
0
10
774.9999999999995
20
2180.0
0
VERTEX
8
0
10
774.9999999999995
20
2180.0
0
VERTEX
8
0
10
779.9999999999995
20
2180.0
0
SEQEND
0
POLYLINE
8
0
66
1
10
0.0
20
0.0
30
0.0
0
VERTEX
8
0
10
824.9999999999995
20
2170.0
0
VERTEX
8
0
10
824.9999999999995
20
2180.0
0
VERTEX
8
0
10
814.9999999999995
20
2180.0
0
VERTEX
8
0
10
814.9999999999995
20
2170.0
0
VERTEX
8
0
10
824.9999999999995
20
2170.0
0
SEQEND
0
POLYLINE
8
0
66
1
10
0.0
20
0.0
30
0.0
0
VERTEX
8
0
10
814.9999999999995
20
2180.0
0
VERTEX
8
0
10
816.3397459621551
20
2175.0
0
VERTEX
8
0
10
819.9999999999995
20
2171.3397459621556
0
VERTEX
8
0
10
824.9999999999995
20
2170.0
0
VERTEX
8
0
10
824.9999999999995
20
2175.0
0
VERTEX
8
0
10
822.4999999999995
20
2175.669872981078
0
VERTEX
8
0
10
820.6698729810773
20
2177.5
0
VERTEX
8
0
10
819.9999999999995
20
2180.0
0
VERTEX
8
0
10
814.9999999999995
20
2180.0
0
SEQEND
0
POLYLINE
8
0
66
1
10
0.0
20
0.0
30
0.0
0
VERTEX
8
0
10
819.9999999999995
20
2180.0
0
VERTEX
8
0
10
820.6698729810773
20
2177.5
0
VERTEX
8
0
10
822.4999999999995
20
2175.669872981078
0
VERTEX
8
0
10
824.9999999999995
20
2175.0
0
VERTEX
8
0
10
824.9999999999995
20
2180.0
0
VERTEX
8
0
10
824.9999999999995
20
2180.0
0
VERTEX
8
0
10
824.9999999999995
20
2180.0
0
VERTEX
8
0
10
824.9999999999995
20
2180.0
0
VERTEX
8
0
10
819.9999999999995
20
2180.0
0
SEQEND
0
POLYLINE
8
0
66
1
10
0.0
20
0.0
30
0.0
0
VERTEX
8
0
10
400.0
20
5700.0
0
VERTEX
8
0
10
399.9999999999999
20
4900.0
0
VERTEX
8
0
10
1200.0
20
4900.0
0
VERTEX
8
0
10
1200.0
20
5700.0
0
VERTEX
8
0
10
400.0
20
5700.0
0
SEQEND
0
POLYLINE
8
0
66
1
10
0.0
20
0.0
30
0.0
0
VERTEX
8
0
10
784.9999999999999
20
4900.0
0
VERTEX
8
0
10
784.9999999999999
20
4800.0
0
VERTEX
8
0
10
814.9999999999999
20
4800.0
0
VERTEX
8
0
10
814.9999999999999
20
4900.0
0
VERTEX
8
0
10
784.9999999999999
20
4900.0
0
SEQEND
0
POLYLINE
8
0
66
1
10
0.0
20
0.0
30
0.0
0
VERTEX
8
0
10
802.4999999999999
20
4800.0
0
VERTEX
8
0
10
802.4999999999999
20
4805.0
0
VERTEX
8
0
10
797.4999999999999
20
4805.0
0
VERTEX
8
0
10
797.4999999999999
20
4800.0
0
VERTEX
8
0
10
802.4999999999999
20
4800.0
0
SEQEND
0
POLYLINE
8
0
66
1
10
0.0
20
0.0
30
0.0
0
VERTEX
8
0
10
807.4999999999999
20
4805.0
0
VERTEX
8
0
10
807.4999999999999
20
4810.0
0
VERTEX
8
0
10
792.4999999999999
20
4810.0
0
VERTEX
8
0
10
792.4999999999999
20
4805.0
0
VERTEX
8
0
10
807.4999999999999
20
4805.0
0
SEQEND
0
POLYLINE
8
0
66
1
10
0.0
20
0.0
30
0.0
0
VERTEX
8
0
10
797.4999999999999
20
4770.0
0
VERTEX
8
0
10
797.4999999999999
20
4765.0
0
VERTEX
8
0
10
802.4999999999999
20
4765.0
0
VERTEX
8
0
10
802.4999999999999
20
4770.0
0
VERTEX
8
0
10
797.4999999999999
20
4770.0
0
SEQEND
0
POLYLINE
8
0
66
1
10
0.0
20
0.0
30
0.0
0
VERTEX
8
0
10
792.4999999999999
20
4765.0
0
VERTEX
8
0
10
792.4999999999999
20
4760.0
0
VERTEX
8
0
10
807.4999999999999
20
4760.0
0
VERTEX
8
0
10
807.4999999999999
20
4765.0
0
VERTEX
8
0
10
792.4999999999999
20
4765.0
0
SEQEND
0
POLYLINE
8
0
66
1
10
0.0
20
0.0
30
0.0
0
VERTEX
8
0
10
784.9999999999999
20
4770.0
0
VERTEX
8
0
10
784.9999999999999
20
4670.0
0
VERTEX
8
0
10
814.9999999999999
20
4670.0
0
VERTEX
8
0
10
814.9999999999999
20
4770.0
0
VERTEX
8
0
10
784.9999999999999
20
4770.0
0
SEQEND
0
POLYLINE
8
0
66
1
10
0.0
20
0.0
30
0.0
0
VERTEX
8
0
10
399.9999999999999
20
4670.0
0
VERTEX
8
0
10
399.99999999999955
20
3870.0
0
VERTEX
8
0
10
1199.9999999999995
20
3870.0
0
VERTEX
8
0
10
1200.0
20
4670.0
0
VERTEX
8
0
10
399.9999999999999
20
4670.0
0
SEQEND
0
POLYLINE
8
0
66
1
10
0.0
20
0.0
30
0.0
0
VERTEX
8
0
10
1160.0
20
5700.0
0
VERTEX
8
0
10
1160.0
20
5660.0
0
VERTEX
8
0
10
1200.0
20
5660.0
0
VERTEX
8
0
10
1200.0
20
5700.0
0
VERTEX
8
0
10
1160.0
20
5700.0
0
SEQEND
0
POLYLINE
8
0
66
1
10
0.0
20
0.0
30
0.0
0
VERTEX
8
0
10
1200.0
20
5660.0
0
VERTEX
8
0
10
1194.6410161513775
20
5680.0
0
VERTEX
8
0
10
1180.0
20
5694.641016151378
0
VERTEX
8
0
10
1160.0
20
5700.0
0
VERTEX
8
0
10
1160.0
20
5680.0
0
VERTEX
8
0
10
1170.0
20
5677.320508075689
0
VERTEX
8
0
10
1177.3205080756888
20
5670.0
0
VERTEX
8
0
10
1180.0
20
5660.0
0
VERTEX
8
0
10
1200.0
20
5660.0
0
SEQEND
0
POLYLINE
8
0
66
1
10
0.0
20
0.0
30
0.0
0
VERTEX
8
0
10
1180.0
20
5660.0
0
VERTEX
8
0
10
1177.3205080756888
20
5670.0
0
VERTEX
8
0
10
1170.0
20
5677.320508075689
0
VERTEX
8
0
10
1160.0
20
5680.0
0
VERTEX
8
0
10
1160.0
20
5660.0
0
VERTEX
8
0
10
1160.0
20
5660.0
0
VERTEX
8
0
10
1160.0
20
5660.0
0
VERTEX
8
0
10
1160.0
20
5660.0
0
VERTEX
8
0
10
1180.0
20
5660.0
0
SEQEND
0
POLYLINE
8
0
66
1
10
0.0
20
0.0
30
0.0
0
VERTEX
8
0
10
400.0
20
5700.0
0
VERTEX
8
0
10
400.0
20
5660.0
0
VERTEX
8
0
10
440.0
20
5660.0
0
VERTEX
8
0
10
440.0
20
5700.0
0
VERTEX
8
0
10
400.0
20
5700.0
0
SEQEND
0
POLYLINE
8
0
66
1
10
0.0
20
0.0
30
0.0
0
VERTEX
8
0
10
400.0
20
5660.0
0
VERTEX
8
0
10
405.3589838486225
20
5680.0
0
VERTEX
8
0
10
420.0
20
5694.641016151378
0
VERTEX
8
0
10
440.0
20
5700.0
0
VERTEX
8
0
10
440.0
20
5680.0
0
VERTEX
8
0
10
430.0
20
5677.320508075689
0
VERTEX
8
0
10
422.6794919243112
20
5670.0
0
VERTEX
8
0
10
420.0
20
5660.0
0
VERTEX
8
0
10
400.0
20
5660.0
0
SEQEND
0
POLYLINE
8
0
66
1
10
0.0
20
0.0
30
0.0
0
VERTEX
8
0
10
420.0
20
5660.0
0
VERTEX
8
0
10
422.6794919243112
20
5670.0
0
VERTEX
8
0
10
430.0
20
5677.320508075689
0
VERTEX
8
0
10
440.0
20
5680.0
0
VERTEX
8
0
10
440.0
20
5660.0
0
VERTEX
8
0
10
440.0
20
5660.0
0
VERTEX
8
0
10
440.0
20
5660.0
0
VERTEX
8
0
10
440.0
20
5660.0
0
VERTEX
8
0
10
420.0
20
5660.0
0
SEQEND
0
POLYLINE
8
0
66
1
10
0.0
20
0.0
30
0.0
0
VERTEX
8
0
10
440.0
20
4900.0
0
VERTEX
8
0
10
440.0
20
4940.0
0
VERTEX
8
0
10
400.0
20
4940.0
0
VERTEX
8
0
10
400.0
20
4900.0
0
VERTEX
8
0
10
440.0
20
4900.0
0
SEQEND
0
POLYLINE
8
0
66
1
10
0.0
20
0.0
30
0.0
0
VERTEX
8
0
10
400.0
20
4940.0
0
VERTEX
8
0
10
405.3589838486225
20
4920.0
0
VERTEX
8
0
10
420.0
20
4905.358983848622
0
VERTEX
8
0
10
440.0
20
4900.0
0
VERTEX
8
0
10
440.0
20
4920.0
0
VERTEX
8
0
10
430.0
20
4922.679491924311
0
VERTEX
8
0
10
422.6794919243112
20
4930.0
0
VERTEX
8
0
10
420.0
20
4940.0
0
VERTEX
8
0
10
400.0
20
4940.0
0
SEQEND
0
POLYLINE
8
0
66
1
10
0.0
20
0.0
30
0.0
0
VERTEX
8
0
10
420.0
20
4940.0
0
VERTEX
8
0
10
422.6794919243112
20
4930.0
0
VERTEX
8
0
10
430.0
20
4922.679491924311
0
VERTEX
8
0
10
440.0
20
4920.0
0
VERTEX
8
0
10
440.0
20
4940.0
0
VERTEX
8
0
10
440.0
20
4940.0
0
VERTEX
8
0
10
440.0
20
4940.0
0
VERTEX
8
0
10
440.0
20
4940.0
0
VERTEX
8
0
10
420.0
20
4940.0
0
SEQEND
0
POLYLINE
8
0
66
1
10
0.0
20
0.0
30
0.0
0
VERTEX
8
0
10
1200.0
20
4900.0
0
VERTEX
8
0
10
1200.0
20
4940.0
0
VERTEX
8
0
10
1160.0
20
4940.0
0
VERTEX
8
0
10
1160.0
20
4900.0
0
VERTEX
8
0
10
1200.0
20
4900.0
0
SEQEND
0
POLYLINE
8
0
66
1
10
0.0
20
0.0
30
0.0
0
VERTEX
8
0
10
1200.0
20
4940.0
0
VERTEX
8
0
10
1194.6410161513775
20
4920.0
0
VERTEX
8
0
10
1180.0
20
4905.358983848622
0
VERTEX
8
0
10
1160.0
20
4900.0
0
VERTEX
8
0
10
1160.0
20
4920.0
0
VERTEX
8
0
10
1170.0
20
4922.679491924311
0
VERTEX
8
0
10
1177.3205080756888
20
4930.0
0
VERTEX
8
0
10
1180.0
20
4940.0
0
VERTEX
8
0
10
1200.0
20
4940.0
0
SEQEND
0
POLYLINE
8
0
66
1
10
0.0
20
0.0
30
0.0
0
VERTEX
8
0
10
1180.0
20
4940.0
0
VERTEX
8
0
10
1177.3205080756888
20
4930.0
0
VERTEX
8
0
10
1170.0
20
4922.679491924311
0
VERTEX
8
0
10
1160.0
20
4920.0
0
VERTEX
8
0
10
1160.0
20
4940.0
0
VERTEX
8
0
10
1160.0
20
4940.0
0
VERTEX
8
0
10
1160.0
20
4940.0
0
VERTEX
8
0
10
1160.0
20
4940.0
0
VERTEX
8
0
10
1180.0
20
4940.0
0
SEQEND
0
POLYLINE
8
0
66
1
10
0.0
20
0.0
30
0.0
0
VERTEX
8
0
10
775.0
20
4900.0
0
VERTEX
8
0
10
775.0
20
4890.0
0
VERTEX
8
0
10
785.0
20
4890.0
0
VERTEX
8
0
10
785.0
20
4900.0
0
VERTEX
8
0
10
775.0
20
4900.0
0
SEQEND
0
POLYLINE
8
0
66
1
10
0.0
20
0.0
30
0.0
0
VERTEX
8
0
10
785.0
20
4890.0
0
VERTEX
8
0
10
783.6602540378444
20
4895.0
0
VERTEX
8
0
10
780.0
20
4898.660254037844
0
VERTEX
8
0
10
775.0
20
4900.0
0
VERTEX
8
0
10
775.0
20
4895.0
0
VERTEX
8
0
10
777.5
20
4894.330127018922
0
VERTEX
8
0
10
779.3301270189222
20
4892.5
0
VERTEX
8
0
10
780.0
20
4890.0
0
VERTEX
8
0
10
785.0
20
4890.0
0
SEQEND
0
POLYLINE
8
0
66
1
10
0.0
20
0.0
30
0.0
0
VERTEX
8
0
10
780.0
20
4890.0
0
VERTEX
8
0
10
779.3301270189222
20
4892.5
0
VERTEX
8
0
10
777.5
20
4894.330127018922
0
VERTEX
8
0
10
775.0
20
4895.0
0
VERTEX
8
0
10
775.0
20
4890.0
0
VERTEX
8
0
10
775.0
20
4890.0
0
VERTEX
8
0
10
775.0
20
4890.0
0
VERTEX
8
0
10
775.0
20
4890.0
0
VERTEX
8
0
10
780.0
20
4890.0
0
SEQEND
0
POLYLINE
8
0
66
1
10
0.0
20
0.0
30
0.0
0
VERTEX
8
0
10
815.0
20
4900.0
0
VERTEX
8
0
10
815.0
20
4890.0
0
VERTEX
8
0
10
825.0
20
4890.0
0
VERTEX
8
0
10
825.0
20
4900.0
0
VERTEX
8
0
10
815.0
20
4900.0
0
SEQEND
0
POLYLINE
8
0
66
1
10
0.0
20
0.0
30
0.0
0
VERTEX
8
0
10
815.0
20
4890.0
0
VERTEX
8
0
10
816.3397459621556
20
4895.0
0
VERTEX
8
0
10
820.0
20
4898.660254037844
0
VERTEX
8
0
10
825.0
20
4900.0
0
VERTEX
8
0
10
825.0
20
4895.0
0
VERTEX
8
0
10
822.5
20
4894.330127018922
0
VERTEX
8
0
10
820.6698729810778
20
4892.5
0
VERTEX
8
0
10
820.0
20
4890.0
0
VERTEX
8
0
10
815.0
20
4890.0
0
SEQEND
0
POLYLINE
8
0
66
1
10
0.0
20
0.0
30
0.0
0
VERTEX
8
0
10
820.0
20
4890.0
0
VERTEX
8
0
10
820.6698729810778
20
4892.5
0
VERTEX
8
0
10
822.5
20
4894.330127018922
0
VERTEX
8
0
10
825.0
20
4895.0
0
VERTEX
8
0
10
825.0
20
4890.0
0
VERTEX
8
0
10
825.0
20
4890.0
0
VERTEX
8
0
10
825.0
20
4890.0
0
VERTEX
8
0
10
825.0
20
4890.0
0
VERTEX
8
0
10
820.0
20
4890.0
0
SEQEND
0
POLYLINE
8
0
66
1
10
0.0
20
0.0
30
0.0
0
VERTEX
8
0
10
1199.9999999999995
20
3870.0
0
VERTEX
8
0
10
1199.9999999999995
20
3910.0
0
VERTEX
8
0
10
1159.9999999999995
20
3910.0
0
VERTEX
8
0
10
1159.9999999999995
20
3870.0
0
VERTEX
8
0
10
1199.9999999999995
20
3870.0
0
SEQEND
0
POLYLINE
8
0
66
1
10
0.0
20
0.0
30
0.0
0
VERTEX
8
0
10
1199.9999999999995
20
3910.0
0
VERTEX
8
0
10
1194.641016151377
20
3890.0
0
VERTEX
8
0
10
1179.9999999999995
20
3875.3589838486223
0
VERTEX
8
0
10
1159.9999999999995
20
3870.0
0
VERTEX
8
0
10
1159.9999999999995
20
3890.0
0
VERTEX
8
0
10
1169.9999999999995
20
3892.679491924311
0
VERTEX
8
0
10
1177.3205080756884
20
3900.0
0
VERTEX
8
0
10
1179.9999999999995
20
3910.0
0
VERTEX
8
0
10
1199.9999999999995
20
3910.0
0
SEQEND
0
POLYLINE
8
0
66
1
10
0.0
20
0.0
30
0.0
0
VERTEX
8
0
10
1179.9999999999995
20
3910.0
0
VERTEX
8
0
10
1177.3205080756884
20
3900.0
0
VERTEX
8
0
10
1169.9999999999995
20
3892.679491924311
0
VERTEX
8
0
10
1159.9999999999995
20
3890.0
0
VERTEX
8
0
10
1159.9999999999995
20
3910.0
0
VERTEX
8
0
10
1159.9999999999995
20
3910.0
0
VERTEX
8
0
10
1159.9999999999995
20
3910.0
0
VERTEX
8
0
10
1159.9999999999995
20
3910.0
0
VERTEX
8
0
10
1179.9999999999995
20
3910.0
0
SEQEND
0
POLYLINE
8
0
66
1
10
0.0
20
0.0
30
0.0
0
VERTEX
8
0
10
439.99999999999955
20
3870.0
0
VERTEX
8
0
10
439.99999999999955
20
3910.0
0
VERTEX
8
0
10
399.99999999999955
20
3910.0
0
VERTEX
8
0
10
399.99999999999955
20
3870.0
0
VERTEX
8
0
10
439.99999999999955
20
3870.0
0
SEQEND
0
POLYLINE
8
0
66
1
10
0.0
20
0.0
30
0.0
0
VERTEX
8
0
10
399.99999999999955
20
3910.0
0
VERTEX
8
0
10
405.358983848622
20
3890.0
0
VERTEX
8
0
10
419.99999999999955
20
3875.3589838486223
0
VERTEX
8
0
10
439.99999999999955
20
3870.0
0
VERTEX
8
0
10
439.99999999999955
20
3890.0
0
VERTEX
8
0
10
429.99999999999955
20
3892.679491924311
0
VERTEX
8
0
10
422.67949192431075
20
3900.0
0
VERTEX
8
0
10
419.99999999999955
20
3910.0
0
VERTEX
8
0
10
399.99999999999955
20
3910.0
0
SEQEND
0
POLYLINE
8
0
66
1
10
0.0
20
0.0
30
0.0
0
VERTEX
8
0
10
419.99999999999955
20
3910.0
0
VERTEX
8
0
10
422.67949192431075
20
3900.0
0
VERTEX
8
0
10
429.99999999999955
20
3892.679491924311
0
VERTEX
8
0
10
439.99999999999955
20
3890.0
0
VERTEX
8
0
10
439.99999999999955
20
3910.0
0
VERTEX
8
0
10
439.99999999999955
20
3910.0
0
VERTEX
8
0
10
439.99999999999955
20
3910.0
0
VERTEX
8
0
10
439.99999999999955
20
3910.0
0
VERTEX
8
0
10
419.99999999999955
20
3910.0
0
SEQEND
0
POLYLINE
8
0
66
1
10
0.0
20
0.0
30
0.0
0
VERTEX
8
0
10
399.99999999999955
20
4670.0
0
VERTEX
8
0
10
399.99999999999955
20
4630.0
0
VERTEX
8
0
10
439.99999999999955
20
4630.0
0
VERTEX
8
0
10
439.99999999999955
20
4670.0
0
VERTEX
8
0
10
399.99999999999955
20
4670.0
0
SEQEND
0
POLYLINE
8
0
66
1
10
0.0
20
0.0
30
0.0
0
VERTEX
8
0
10
399.99999999999955
20
4630.0
0
VERTEX
8
0
10
405.358983848622
20
4650.0
0
VERTEX
8
0
10
419.99999999999955
20
4664.641016151378
0
VERTEX
8
0
10
439.99999999999955
20
4670.0
0
VERTEX
8
0
10
439.99999999999955
20
4650.0
0
VERTEX
8
0
10
429.99999999999955
20
4647.320508075689
0
VERTEX
8
0
10
422.67949192431075
20
4640.0
0
VERTEX
8
0
10
419.99999999999955
20
4630.0
0
VERTEX
8
0
10
399.99999999999955
20
4630.0
0
SEQEND
0
POLYLINE
8
0
66
1
10
0.0
20
0.0
30
0.0
0
VERTEX
8
0
10
419.99999999999955
20
4630.0
0
VERTEX
8
0
10
422.67949192431075
20
4640.0
0
VERTEX
8
0
10
429.99999999999955
20
4647.320508075689
0
VERTEX
8
0
10
439.99999999999955
20
4650.0
0
VERTEX
8
0
10
439.99999999999955
20
4630.0
0
VERTEX
8
0
10
439.99999999999955
20
4630.0
0
VERTEX
8
0
10
439.99999999999955
20
4630.0
0
VERTEX
8
0
10
439.99999999999955
20
4630.0
0
VERTEX
8
0
10
419.99999999999955
20
4630.0
0
SEQEND
0
POLYLINE
8
0
66
1
10
0.0
20
0.0
30
0.0
0
VERTEX
8
0
10
1159.9999999999995
20
4670.0
0
VERTEX
8
0
10
1159.9999999999995
20
4630.0
0
VERTEX
8
0
10
1199.9999999999995
20
4630.0
0
VERTEX
8
0
10
1199.9999999999995
20
4670.0
0
VERTEX
8
0
10
1159.9999999999995
20
4670.0
0
SEQEND
0
POLYLINE
8
0
66
1
10
0.0
20
0.0
30
0.0
0
VERTEX
8
0
10
1199.9999999999995
20
4630.0
0
VERTEX
8
0
10
1194.641016151377
20
4650.0
0
VERTEX
8
0
10
1179.9999999999995
20
4664.641016151378
0
VERTEX
8
0
10
1159.9999999999995
20
4670.0
0
VERTEX
8
0
10
1159.9999999999995
20
4650.0
0
VERTEX
8
0
10
1169.9999999999995
20
4647.320508075689
0
VERTEX
8
0
10
1177.3205080756884
20
4640.0
0
VERTEX
8
0
10
1179.9999999999995
20
4630.0
0
VERTEX
8
0
10
1199.9999999999995
20
4630.0
0
SEQEND
0
POLYLINE
8
0
66
1
10
0.0
20
0.0
30
0.0
0
VERTEX
8
0
10
1179.9999999999995
20
4630.0
0
VERTEX
8
0
10
1177.3205080756884
20
4640.0
0
VERTEX
8
0
10
1169.9999999999995
20
4647.320508075689
0
VERTEX
8
0
10
1159.9999999999995
20
4650.0
0
VERTEX
8
0
10
1159.9999999999995
20
4630.0
0
VERTEX
8
0
10
1159.9999999999995
20
4630.0
0
VERTEX
8
0
10
1159.9999999999995
20
4630.0
0
VERTEX
8
0
10
1159.9999999999995
20
4630.0
0
VERTEX
8
0
10
1179.9999999999995
20
4630.0
0
SEQEND
0
POLYLINE
8
0
66
1
10
0.0
20
0.0
30
0.0
0
VERTEX
8
0
10
784.9999999999995
20
4670.0
0
VERTEX
8
0
10
784.9999999999995
20
4680.0
0
VERTEX
8
0
10
774.9999999999995
20
4680.0
0
VERTEX
8
0
10
774.9999999999995
20
4670.0
0
VERTEX
8
0
10
784.9999999999995
20
4670.0
0
SEQEND
0
POLYLINE
8
0
66
1
10
0.0
20
0.0
30
0.0
0
VERTEX
8
0
10
784.9999999999995
20
4680.0
0
VERTEX
8
0
10
783.660254037844
20
4675.0
0
VERTEX
8
0
10
779.9999999999995
20
4671.339745962156
0
VERTEX
8
0
10
774.9999999999995
20
4670.0
0
VERTEX
8
0
10
774.9999999999995
20
4675.0
0
VERTEX
8
0
10
777.4999999999995
20
4675.669872981078
0
VERTEX
8
0
10
779.3301270189218
20
4677.5
0
VERTEX
8
0
10
779.9999999999995
20
4680.0
0
VERTEX
8
0
10
784.9999999999995
20
4680.0
0
SEQEND
0
POLYLINE
8
0
66
1
10
0.0
20
0.0
30
0.0
0
VERTEX
8
0
10
779.9999999999995
20
4680.0
0
VERTEX
8
0
10
779.3301270189218
20
4677.5
0
VERTEX
8
0
10
777.4999999999995
20
4675.669872981078
0
VERTEX
8
0
10
774.9999999999995
20
4675.0
0
VERTEX
8
0
10
774.9999999999995
20
4680.0
0
VERTEX
8
0
10
774.9999999999995
20
4680.0
0
VERTEX
8
0
10
774.9999999999995
20
4680.0
0
VERTEX
8
0
10
774.9999999999995
20
4680.0
0
VERTEX
8
0
10
779.9999999999995
20
4680.0
0
SEQEND
0
POLYLINE
8
0
66
1
10
0.0
20
0.0
30
0.0
0
VERTEX
8
0
10
824.9999999999995
20
4670.0
0
VERTEX
8
0
10
824.9999999999995
20
4680.0
0
VERTEX
8
0
10
814.9999999999995
20
4680.0
0
VERTEX
8
0
10
814.9999999999995
20
4670.0
0
VERTEX
8
0
10
824.9999999999995
20
4670.0
0
SEQEND
0
POLYLINE
8
0
66
1
10
0.0
20
0.0
30
0.0
0
VERTEX
8
0
10
814.9999999999995
20
4680.0
0
VERTEX
8
0
10
816.3397459621551
20
4675.0
0
VERTEX
8
0
10
819.9999999999995
20
4671.339745962156
0
VERTEX
8
0
10
824.9999999999995
20
4670.0
0
VERTEX
8
0
10
824.9999999999995
20
4675.0
0
VERTEX
8
0
10
822.4999999999995
20
4675.669872981078
0
VERTEX
8
0
10
820.6698729810773
20
4677.5
0
VERTEX
8
0
10
819.9999999999995
20
4680.0
0
VERTEX
8
0
10
814.9999999999995
20
4680.0
0
SEQEND
0
POLYLINE
8
0
66
1
10
0.0
20
0.0
30
0.0
0
VERTEX
8
0
10
819.9999999999995
20
4680.0
0
VERTEX
8
0
10
820.6698729810773
20
4677.5
0
VERTEX
8
0
10
822.4999999999995
20
4675.669872981078
0
VERTEX
8
0
10
824.9999999999995
20
4675.0
0
VERTEX
8
0
10
824.9999999999995
20
4680.0
0
VERTEX
8
0
10
824.9999999999995
20
4680.0
0
VERTEX
8
0
10
824.9999999999995
20
4680.0
0
VERTEX
8
0
10
824.9999999999995
20
4680.0
0
VERTEX
8
0
10
819.9999999999995
20
4680.0
0
SEQEND
0
POLYLINE
8
0
66
1
10
0.0
20
0.0
30
0.0
0
VERTEX
8
0
10
400.0
20
8200.0
0
VERTEX
8
0
10
399.9999999999999
20
7400.0
0
VERTEX
8
0
10
1200.0
20
7400.0
0
VERTEX
8
0
10
1200.0
20
8200.0
0
VERTEX
8
0
10
400.0
20
8200.0
0
SEQEND
0
POLYLINE
8
0
66
1
10
0.0
20
0.0
30
0.0
0
VERTEX
8
0
10
784.9999999999999
20
7400.0
0
VERTEX
8
0
10
784.9999999999999
20
7300.0
0
VERTEX
8
0
10
814.9999999999999
20
7300.0
0
VERTEX
8
0
10
814.9999999999999
20
7400.0
0
VERTEX
8
0
10
784.9999999999999
20
7400.0
0
SEQEND
0
POLYLINE
8
0
66
1
10
0.0
20
0.0
30
0.0
0
VERTEX
8
0
10
802.4999999999999
20
7300.0
0
VERTEX
8
0
10
802.4999999999999
20
7305.0
0
VERTEX
8
0
10
797.4999999999999
20
7305.0
0
VERTEX
8
0
10
797.4999999999999
20
7300.0
0
VERTEX
8
0
10
802.4999999999999
20
7300.0
0
SEQEND
0
POLYLINE
8
0
66
1
10
0.0
20
0.0
30
0.0
0
VERTEX
8
0
10
807.4999999999999
20
7305.0
0
VERTEX
8
0
10
807.4999999999999
20
7310.0
0
VERTEX
8
0
10
792.4999999999999
20
7310.0
0
VERTEX
8
0
10
792.4999999999999
20
7305.0
0
VERTEX
8
0
10
807.4999999999999
20
7305.0
0
SEQEND
0
POLYLINE
8
0
66
1
10
0.0
20
0.0
30
0.0
0
VERTEX
8
0
10
797.4999999999999
20
7270.0
0
VERTEX
8
0
10
797.4999999999999
20
7265.0
0
VERTEX
8
0
10
802.4999999999999
20
7265.0
0
VERTEX
8
0
10
802.4999999999999
20
7270.0
0
VERTEX
8
0
10
797.4999999999999
20
7270.0
0
SEQEND
0
POLYLINE
8
0
66
1
10
0.0
20
0.0
30
0.0
0
VERTEX
8
0
10
792.4999999999999
20
7265.0
0
VERTEX
8
0
10
792.4999999999999
20
7260.0
0
VERTEX
8
0
10
807.4999999999999
20
7260.0
0
VERTEX
8
0
10
807.4999999999999
20
7265.0
0
VERTEX
8
0
10
792.4999999999999
20
7265.0
0
SEQEND
0
POLYLINE
8
0
66
1
10
0.0
20
0.0
30
0.0
0
VERTEX
8
0
10
784.9999999999999
20
7270.0
0
VERTEX
8
0
10
784.9999999999999
20
7170.0
0
VERTEX
8
0
10
814.9999999999999
20
7170.0
0
VERTEX
8
0
10
814.9999999999999
20
7270.0
0
VERTEX
8
0
10
784.9999999999999
20
7270.0
0
SEQEND
0
POLYLINE
8
0
66
1
10
0.0
20
0.0
30
0.0
0
VERTEX
8
0
10
399.9999999999999
20
7170.0
0
VERTEX
8
0
10
399.99999999999955
20
6370.0
0
VERTEX
8
0
10
1199.9999999999995
20
6370.0
0
VERTEX
8
0
10
1200.0
20
7170.0
0
VERTEX
8
0
10
399.9999999999999
20
7170.0
0
SEQEND
0
POLYLINE
8
0
66
1
10
0.0
20
0.0
30
0.0
0
VERTEX
8
0
10
1160.0
20
8200.0
0
VERTEX
8
0
10
1160.0
20
8160.0
0
VERTEX
8
0
10
1200.0
20
8160.0
0
VERTEX
8
0
10
1200.0
20
8200.0
0
VERTEX
8
0
10
1160.0
20
8200.0
0
SEQEND
0
POLYLINE
8
0
66
1
10
0.0
20
0.0
30
0.0
0
VERTEX
8
0
10
1200.0
20
8160.0
0
VERTEX
8
0
10
1194.6410161513775
20
8180.0
0
VERTEX
8
0
10
1180.0
20
8194.641016151378
0
VERTEX
8
0
10
1160.0
20
8200.0
0
VERTEX
8
0
10
1160.0
20
8180.0
0
VERTEX
8
0
10
1170.0
20
8177.320508075689
0
VERTEX
8
0
10
1177.3205080756888
20
8170.0
0
VERTEX
8
0
10
1180.0
20
8160.0
0
VERTEX
8
0
10
1200.0
20
8160.0
0
SEQEND
0
POLYLINE
8
0
66
1
10
0.0
20
0.0
30
0.0
0
VERTEX
8
0
10
1180.0
20
8160.0
0
VERTEX
8
0
10
1177.3205080756888
20
8170.0
0
VERTEX
8
0
10
1170.0
20
8177.320508075689
0
VERTEX
8
0
10
1160.0
20
8180.0
0
VERTEX
8
0
10
1160.0
20
8160.0
0
VERTEX
8
0
10
1160.0
20
8160.0
0
VERTEX
8
0
10
1160.0
20
8160.0
0
VERTEX
8
0
10
1160.0
20
8160.0
0
VERTEX
8
0
10
1180.0
20
8160.0
0
SEQEND
0
POLYLINE
8
0
66
1
10
0.0
20
0.0
30
0.0
0
VERTEX
8
0
10
400.0
20
8200.0
0
VERTEX
8
0
10
400.0
20
8160.0
0
VERTEX
8
0
10
440.0
20
8160.0
0
VERTEX
8
0
10
440.0
20
8200.0
0
VERTEX
8
0
10
400.0
20
8200.0
0
SEQEND
0
POLYLINE
8
0
66
1
10
0.0
20
0.0
30
0.0
0
VERTEX
8
0
10
400.0
20
8160.0
0
VERTEX
8
0
10
405.3589838486225
20
8180.0
0
VERTEX
8
0
10
420.0
20
8194.641016151378
0
VERTEX
8
0
10
440.0
20
8200.0
0
VERTEX
8
0
10
440.0
20
8180.0
0
VERTEX
8
0
10
430.0
20
8177.320508075689
0
VERTEX
8
0
10
422.6794919243112
20
8170.0
0
VERTEX
8
0
10
420.0
20
8160.0
0
VERTEX
8
0
10
400.0
20
8160.0
0
SEQEND
0
POLYLINE
8
0
66
1
10
0.0
20
0.0
30
0.0
0
VERTEX
8
0
10
420.0
20
8160.0
0
VERTEX
8
0
10
422.6794919243112
20
8170.0
0
VERTEX
8
0
10
430.0
20
8177.320508075689
0
VERTEX
8
0
10
440.0
20
8180.0
0
VERTEX
8
0
10
440.0
20
8160.0
0
VERTEX
8
0
10
440.0
20
8160.0
0
VERTEX
8
0
10
440.0
20
8160.0
0
VERTEX
8
0
10
440.0
20
8160.0
0
VERTEX
8
0
10
420.0
20
8160.0
0
SEQEND
0
POLYLINE
8
0
66
1
10
0.0
20
0.0
30
0.0
0
VERTEX
8
0
10
440.0
20
7400.0
0
VERTEX
8
0
10
440.0
20
7440.0
0
VERTEX
8
0
10
400.0
20
7440.0
0
VERTEX
8
0
10
400.0
20
7400.0
0
VERTEX
8
0
10
440.0
20
7400.0
0
SEQEND
0
POLYLINE
8
0
66
1
10
0.0
20
0.0
30
0.0
0
VERTEX
8
0
10
400.0
20
7440.0
0
VERTEX
8
0
10
405.3589838486225
20
7420.0
0
VERTEX
8
0
10
420.0
20
7405.358983848622
0
VERTEX
8
0
10
440.0
20
7400.0
0
VERTEX
8
0
10
440.0
20
7420.0
0
VERTEX
8
0
10
430.0
20
7422.679491924311
0
VERTEX
8
0
10
422.6794919243112
20
7430.0
0
VERTEX
8
0
10
420.0
20
7440.0
0
VERTEX
8
0
10
400.0
20
7440.0
0
SEQEND
0
POLYLINE
8
0
66
1
10
0.0
20
0.0
30
0.0
0
VERTEX
8
0
10
420.0
20
7440.0
0
VERTEX
8
0
10
422.6794919243112
20
7430.0
0
VERTEX
8
0
10
430.0
20
7422.679491924311
0
VERTEX
8
0
10
440.0
20
7420.0
0
VERTEX
8
0
10
440.0
20
7440.0
0
VERTEX
8
0
10
440.0
20
7440.0
0
VERTEX
8
0
10
440.0
20
7440.0
0
VERTEX
8
0
10
440.0
20
7440.0
0
VERTEX
8
0
10
420.0
20
7440.0
0
SEQEND
0
POLYLINE
8
0
66
1
10
0.0
20
0.0
30
0.0
0
VERTEX
8
0
10
1200.0
20
7400.0
0
VERTEX
8
0
10
1200.0
20
7440.0
0
VERTEX
8
0
10
1160.0
20
7440.0
0
VERTEX
8
0
10
1160.0
20
7400.0
0
VERTEX
8
0
10
1200.0
20
7400.0
0
SEQEND
0
POLYLINE
8
0
66
1
10
0.0
20
0.0
30
0.0
0
VERTEX
8
0
10
1200.0
20
7440.0
0
VERTEX
8
0
10
1194.6410161513775
20
7420.0
0
VERTEX
8
0
10
1180.0
20
7405.358983848622
0
VERTEX
8
0
10
1160.0
20
7400.0
0
VERTEX
8
0
10
1160.0
20
7420.0
0
VERTEX
8
0
10
1170.0
20
7422.679491924311
0
VERTEX
8
0
10
1177.3205080756888
20
7430.0
0
VERTEX
8
0
10
1180.0
20
7440.0
0
VERTEX
8
0
10
1200.0
20
7440.0
0
SEQEND
0
POLYLINE
8
0
66
1
10
0.0
20
0.0
30
0.0
0
VERTEX
8
0
10
1180.0
20
7440.0
0
VERTEX
8
0
10
1177.3205080756888
20
7430.0
0
VERTEX
8
0
10
1170.0
20
7422.679491924311
0
VERTEX
8
0
10
1160.0
20
7420.0
0
VERTEX
8
0
10
1160.0
20
7440.0
0
VERTEX
8
0
10
1160.0
20
7440.0
0
VERTEX
8
0
10
1160.0
20
7440.0
0
VERTEX
8
0
10
1160.0
20
7440.0
0
VERTEX
8
0
10
1180.0
20
7440.0
0
SEQEND
0
POLYLINE
8
0
66
1
10
0.0
20
0.0
30
0.0
0
VERTEX
8
0
10
775.0
20
7400.0
0
VERTEX
8
0
10
775.0
20
7390.0
0
VERTEX
8
0
10
785.0
20
7390.0
0
VERTEX
8
0
10
785.0
20
7400.0
0
VERTEX
8
0
10
775.0
20
7400.0
0
SEQEND
0
POLYLINE
8
0
66
1
10
0.0
20
0.0
30
0.0
0
VERTEX
8
0
10
785.0
20
7390.0
0
VERTEX
8
0
10
783.6602540378444
20
7395.0
0
VERTEX
8
0
10
780.0
20
7398.660254037844
0
VERTEX
8
0
10
775.0
20
7400.0
0
VERTEX
8
0
10
775.0
20
7395.0
0
VERTEX
8
0
10
777.5
20
7394.330127018922
0
VERTEX
8
0
10
779.3301270189222
20
7392.5
0
VERTEX
8
0
10
780.0
20
7390.0
0
VERTEX
8
0
10
785.0
20
7390.0
0
SEQEND
0
POLYLINE
8
0
66
1
10
0.0
20
0.0
30
0.0
0
VERTEX
8
0
10
780.0
20
7390.0
0
VERTEX
8
0
10
779.3301270189222
20
7392.5
0
VERTEX
8
0
10
777.5
20
7394.330127018922
0
VERTEX
8
0
10
775.0
20
7395.0
0
VERTEX
8
0
10
775.0
20
7390.0
0
VERTEX
8
0
10
775.0
20
7390.0
0
VERTEX
8
0
10
775.0
20
7390.0
0
VERTEX
8
0
10
775.0
20
7390.0
0
VERTEX
8
0
10
780.0
20
7390.0
0
SEQEND
0
POLYLINE
8
0
66
1
10
0.0
20
0.0
30
0.0
0
VERTEX
8
0
10
815.0
20
7400.0
0
VERTEX
8
0
10
815.0
20
7390.0
0
VERTEX
8
0
10
825.0
20
7390.0
0
VERTEX
8
0
10
825.0
20
7400.0
0
VERTEX
8
0
10
815.0
20
7400.0
0
SEQEND
0
POLYLINE
8
0
66
1
10
0.0
20
0.0
30
0.0
0
VERTEX
8
0
10
815.0
20
7390.0
0
VERTEX
8
0
10
816.3397459621556
20
7395.0
0
VERTEX
8
0
10
820.0
20
7398.660254037844
0
VERTEX
8
0
10
825.0
20
7400.0
0
VERTEX
8
0
10
825.0
20
7395.0
0
VERTEX
8
0
10
822.5
20
7394.330127018922
0
VERTEX
8
0
10
820.6698729810778
20
7392.5
0
VERTEX
8
0
10
820.0
20
7390.0
0
VERTEX
8
0
10
815.0
20
7390.0
0
SEQEND
0
POLYLINE
8
0
66
1
10
0.0
20
0.0
30
0.0
0
VERTEX
8
0
10
820.0
20
7390.0
0
VERTEX
8
0
10
820.6698729810778
20
7392.5
0
VERTEX
8
0
10
822.5
20
7394.330127018922
0
VERTEX
8
0
10
825.0
20
7395.0
0
VERTEX
8
0
10
825.0
20
7390.0
0
VERTEX
8
0
10
825.0
20
7390.0
0
VERTEX
8
0
10
825.0
20
7390.0
0
VERTEX
8
0
10
825.0
20
7390.0
0
VERTEX
8
0
10
820.0
20
7390.0
0
SEQEND
0
POLYLINE
8
0
66
1
10
0.0
20
0.0
30
0.0
0
VERTEX
8
0
10
1199.9999999999995
20
6370.0
0
VERTEX
8
0
10
1199.9999999999995
20
6410.0
0
VERTEX
8
0
10
1159.9999999999995
20
6410.0
0
VERTEX
8
0
10
1159.9999999999995
20
6370.0
0
VERTEX
8
0
10
1199.9999999999995
20
6370.0
0
SEQEND
0
POLYLINE
8
0
66
1
10
0.0
20
0.0
30
0.0
0
VERTEX
8
0
10
1199.9999999999995
20
6410.0
0
VERTEX
8
0
10
1194.641016151377
20
6390.0
0
VERTEX
8
0
10
1179.9999999999995
20
6375.358983848622
0
VERTEX
8
0
10
1159.9999999999995
20
6370.0
0
VERTEX
8
0
10
1159.9999999999995
20
6390.0
0
VERTEX
8
0
10
1169.9999999999995
20
6392.679491924311
0
VERTEX
8
0
10
1177.3205080756884
20
6400.0
0
VERTEX
8
0
10
1179.9999999999995
20
6410.0
0
VERTEX
8
0
10
1199.9999999999995
20
6410.0
0
SEQEND
0
POLYLINE
8
0
66
1
10
0.0
20
0.0
30
0.0
0
VERTEX
8
0
10
1179.9999999999995
20
6410.0
0
VERTEX
8
0
10
1177.3205080756884
20
6400.0
0
VERTEX
8
0
10
1169.9999999999995
20
6392.679491924311
0
VERTEX
8
0
10
1159.9999999999995
20
6390.0
0
VERTEX
8
0
10
1159.9999999999995
20
6410.0
0
VERTEX
8
0
10
1159.9999999999995
20
6410.0
0
VERTEX
8
0
10
1159.9999999999995
20
6410.0
0
VERTEX
8
0
10
1159.9999999999995
20
6410.0
0
VERTEX
8
0
10
1179.9999999999995
20
6410.0
0
SEQEND
0
POLYLINE
8
0
66
1
10
0.0
20
0.0
30
0.0
0
VERTEX
8
0
10
439.99999999999955
20
6370.0
0
VERTEX
8
0
10
439.99999999999955
20
6410.0
0
VERTEX
8
0
10
399.99999999999955
20
6410.0
0
VERTEX
8
0
10
399.99999999999955
20
6370.0
0
VERTEX
8
0
10
439.99999999999955
20
6370.0
0
SEQEND
0
POLYLINE
8
0
66
1
10
0.0
20
0.0
30
0.0
0
VERTEX
8
0
10
399.99999999999955
20
6410.0
0
VERTEX
8
0
10
405.358983848622
20
6390.0
0
VERTEX
8
0
10
419.99999999999955
20
6375.358983848622
0
VERTEX
8
0
10
439.99999999999955
20
6370.0
0
VERTEX
8
0
10
439.99999999999955
20
6390.0
0
VERTEX
8
0
10
429.99999999999955
20
6392.679491924311
0
VERTEX
8
0
10
422.67949192431075
20
6400.0
0
VERTEX
8
0
10
419.99999999999955
20
6410.0
0
VERTEX
8
0
10
399.99999999999955
20
6410.0
0
SEQEND
0
POLYLINE
8
0
66
1
10
0.0
20
0.0
30
0.0
0
VERTEX
8
0
10
419.99999999999955
20
6410.0
0
VERTEX
8
0
10
422.67949192431075
20
6400.0
0
VERTEX
8
0
10
429.99999999999955
20
6392.679491924311
0
VERTEX
8
0
10
439.99999999999955
20
6390.0
0
VERTEX
8
0
10
439.99999999999955
20
6410.0
0
VERTEX
8
0
10
439.99999999999955
20
6410.0
0
VERTEX
8
0
10
439.99999999999955
20
6410.0
0
VERTEX
8
0
10
439.99999999999955
20
6410.0
0
VERTEX
8
0
10
419.99999999999955
20
6410.0
0
SEQEND
0
POLYLINE
8
0
66
1
10
0.0
20
0.0
30
0.0
0
VERTEX
8
0
10
399.99999999999955
20
7170.0
0
VERTEX
8
0
10
399.99999999999955
20
7130.0
0
VERTEX
8
0
10
439.99999999999955
20
7130.0
0
VERTEX
8
0
10
439.99999999999955
20
7170.0
0
VERTEX
8
0
10
399.99999999999955
20
7170.0
0
SEQEND
0
POLYLINE
8
0
66
1
10
0.0
20
0.0
30
0.0
0
VERTEX
8
0
10
399.99999999999955
20
7130.0
0
VERTEX
8
0
10
405.358983848622
20
7150.0
0
VERTEX
8
0
10
419.99999999999955
20
7164.641016151378
0
VERTEX
8
0
10
439.99999999999955
20
7170.0
0
VERTEX
8
0
10
439.99999999999955
20
7150.0
0
VERTEX
8
0
10
429.99999999999955
20
7147.320508075689
0
VERTEX
8
0
10
422.67949192431075
20
7140.0
0
VERTEX
8
0
10
419.99999999999955
20
7130.0
0
VERTEX
8
0
10
399.99999999999955
20
7130.0
0
SEQEND
0
POLYLINE
8
0
66
1
10
0.0
20
0.0
30
0.0
0
VERTEX
8
0
10
419.99999999999955
20
7130.0
0
VERTEX
8
0
10
422.67949192431075
20
7140.0
0
VERTEX
8
0
10
429.99999999999955
20
7147.320508075689
0
VERTEX
8
0
10
439.99999999999955
20
7150.0
0
VERTEX
8
0
10
439.99999999999955
20
7130.0
0
VERTEX
8
0
10
439.99999999999955
20
7130.0
0
VERTEX
8
0
10
439.99999999999955
20
7130.0
0
VERTEX
8
0
10
439.99999999999955
20
7130.0
0
VERTEX
8
0
10
419.99999999999955
20
7130.0
0
SEQEND
0
POLYLINE
8
0
66
1
10
0.0
20
0.0
30
0.0
0
VERTEX
8
0
10
1159.9999999999995
20
7170.0
0
VERTEX
8
0
10
1159.9999999999995
20
7130.0
0
VERTEX
8
0
10
1199.9999999999995
20
7130.0
0
VERTEX
8
0
10
1199.9999999999995
20
7170.0
0
VERTEX
8
0
10
1159.9999999999995
20
7170.0
0
SEQEND
0
POLYLINE
8
0
66
1
10
0.0
20
0.0
30
0.0
0
VERTEX
8
0
10
1199.9999999999995
20
7130.0
0
VERTEX
8
0
10
1194.641016151377
20
7150.0
0
VERTEX
8
0
10
1179.9999999999995
20
7164.641016151378
0
VERTEX
8
0
10
1159.9999999999995
20
7170.0
0
VERTEX
8
0
10
1159.9999999999995
20
7150.0
0
VERTEX
8
0
10
1169.9999999999995
20
7147.320508075689
0
VERTEX
8
0
10
1177.3205080756884
20
7140.0
0
VERTEX
8
0
10
1179.9999999999995
20
7130.0
0
VERTEX
8
0
10
1199.9999999999995
20
7130.0
0
SEQEND
0
POLYLINE
8
0
66
1
10
0.0
20
0.0
30
0.0
0
VERTEX
8
0
10
1179.9999999999995
20
7130.0
0
VERTEX
8
0
10
1177.3205080756884
20
7140.0
0
VERTEX
8
0
10
1169.9999999999995
20
7147.320508075689
0
VERTEX
8
0
10
1159.9999999999995
20
7150.0
0
VERTEX
8
0
10
1159.9999999999995
20
7130.0
0
VERTEX
8
0
10
1159.9999999999995
20
7130.0
0
VERTEX
8
0
10
1159.9999999999995
20
7130.0
0
VERTEX
8
0
10
1159.9999999999995
20
7130.0
0
VERTEX
8
0
10
1179.9999999999995
20
7130.0
0
SEQEND
0
POLYLINE
8
0
66
1
10
0.0
20
0.0
30
0.0
0
VERTEX
8
0
10
784.9999999999995
20
7170.0
0
VERTEX
8
0
10
784.9999999999995
20
7180.0
0
VERTEX
8
0
10
774.9999999999995
20
7180.0
0
VERTEX
8
0
10
774.9999999999995
20
7170.0
0
VERTEX
8
0
10
784.9999999999995
20
7170.0
0
SEQEND
0
POLYLINE
8
0
66
1
10
0.0
20
0.0
30
0.0
0
VERTEX
8
0
10
784.9999999999995
20
7180.0
0
VERTEX
8
0
10
783.660254037844
20
7175.0
0
VERTEX
8
0
10
779.9999999999995
20
7171.339745962156
0
VERTEX
8
0
10
774.9999999999995
20
7170.0
0
VERTEX
8
0
10
774.9999999999995
20
7175.0
0
VERTEX
8
0
10
777.4999999999995
20
7175.669872981078
0
VERTEX
8
0
10
779.3301270189218
20
7177.5
0
VERTEX
8
0
10
779.9999999999995
20
7180.0
0
VERTEX
8
0
10
784.9999999999995
20
7180.0
0
SEQEND
0
POLYLINE
8
0
66
1
10
0.0
20
0.0
30
0.0
0
VERTEX
8
0
10
779.9999999999995
20
7180.0
0
VERTEX
8
0
10
779.3301270189218
20
7177.5
0
VERTEX
8
0
10
777.4999999999995
20
7175.669872981078
0
VERTEX
8
0
10
774.9999999999995
20
7175.0
0
VERTEX
8
0
10
774.9999999999995
20
7180.0
0
VERTEX
8
0
10
774.9999999999995
20
7180.0
0
VERTEX
8
0
10
774.9999999999995
20
7180.0
0
VERTEX
8
0
10
774.9999999999995
20
7180.0
0
VERTEX
8
0
10
779.9999999999995
20
7180.0
0
SEQEND
0
POLYLINE
8
0
66
1
10
0.0
20
0.0
30
0.0
0
VERTEX
8
0
10
824.9999999999995
20
7170.0
0
VERTEX
8
0
10
824.9999999999995
20
7180.0
0
VERTEX
8
0
10
814.9999999999995
20
7180.0
0
VERTEX
8
0
10
814.9999999999995
20
7170.0
0
VERTEX
8
0
10
824.9999999999995
20
7170.0
0
SEQEND
0
POLYLINE
8
0
66
1
10
0.0
20
0.0
30
0.0
0
VERTEX
8
0
10
814.9999999999995
20
7180.0
0
VERTEX
8
0
10
816.3397459621551
20
7175.0
0
VERTEX
8
0
10
819.9999999999995
20
7171.339745962156
0
VERTEX
8
0
10
824.9999999999995
20
7170.0
0
VERTEX
8
0
10
824.9999999999995
20
7175.0
0
VERTEX
8
0
10
822.4999999999995
20
7175.669872981078
0
VERTEX
8
0
10
820.6698729810773
20
7177.5
0
VERTEX
8
0
10
819.9999999999995
20
7180.0
0
VERTEX
8
0
10
814.9999999999995
20
7180.0
0
SEQEND
0
POLYLINE
8
0
66
1
10
0.0
20
0.0
30
0.0
0
VERTEX
8
0
10
819.9999999999995
20
7180.0
0
VERTEX
8
0
10
820.6698729810773
20
7177.5
0
VERTEX
8
0
10
822.4999999999995
20
7175.669872981078
0
VERTEX
8
0
10
824.9999999999995
20
7175.0
0
VERTEX
8
0
10
824.9999999999995
20
7180.0
0
VERTEX
8
0
10
824.9999999999995
20
7180.0
0
VERTEX
8
0
10
824.9999999999995
20
7180.0
0
VERTEX
8
0
10
824.9999999999995
20
7180.0
0
VERTEX
8
0
10
819.9999999999995
20
7180.0
0
SEQEND
0
POLYLINE
8
0
66
1
10
0.0
20
0.0
30
0.0
0
VERTEX
8
0
10
-100.0
20
26050.0
0
VERTEX
8
0
10
0.0
20
26050.0
0
VERTEX
8
0
10
0.0
20
26030.0
0
VERTEX
8
0
10
-80.0
20
26030.0
0
VERTEX
8
0
10
-80.0
20
25950.0
0
VERTEX
8
0
10
-100.0
20
25950.0
0
VERTEX
8
0
10
-100.0
20
26050.0
0
SEQEND
0
POLYLINE
8
0
66
1
10
0.0
20
0.0
30
0.0
0
VERTEX
8
0
10
-100.0
20
-100.0
0
VERTEX
8
0
10
0.0
20
-100.0
0
VERTEX
8
0
10
0.0
20
-80.0
0
VERTEX
8
0
10
-80.0
20
-80.0
0
VERTEX
8
0
10
-80.0
20
0.0
0
VERTEX
8
0
10
-100.0
20
0.0
0
VERTEX
8
0
10
-100.0
20
-100.0
0
SEQEND
0
POLYLINE
8
0
66
1
10
0.0
20
0.0
30
0.0
0
VERTEX
8
0
10
1700.0
20
-100.0
0
VERTEX
8
0
10
1600.0
20
-100.0
0
VERTEX
8
0
10
1600.0
20
-80.0
0
VERTEX
8
0
10
1680.0
20
-80.0
0
VERTEX
8
0
10
1680.0
20
0.0
0
VERTEX
8
0
10
1700.0
20
0.0
0
VERTEX
8
0
10
1700.0
20
-100.0
0
SEQEND
0
POLYLINE
8
0
66
1
10
0.0
20
0.0
30
0.0
0
VERTEX
8
0
10
1700.0
20
26050.0
0
VERTEX
8
0
10
1600.0
20
26050.0
0
VERTEX
8
0
10
1600.0
20
26030.0
0
VERTEX
8
0
10
1680.0
20
26030.0
0
VERTEX
8
0
10
1680.0
20
25950.0
0
VERTEX
8
0
10
1700.0
20
25950.0
0
VERTEX
8
0
10
1700.0
20
26050.0
0
SEQEND
0
POLYLINE
8
0
66
1
10
0.0
20
0.0
30
0.0
0
VERTEX
8
0
10
117.14285714285711
20
26050.0
0
VERTEX
8
0
10
197.1428571428571
20
26050.0
0
VERTEX
8
0
10
197.1428571428571
20
26030.0
0
VERTEX
8
0
10
117.14285714285711
20
26030.0
0
VERTEX
8
0
10
117.14285714285711
20
26050.0
0
SEQEND
0
POLYLINE
8
0
66
1
10
0.0
20
0.0
30
0.0
0
VERTEX
8
0
10
117.14285714285711
20
-100.0
0
VERTEX
8
0
10
197.1428571428571
20
-100.0
0
VERTEX
8
0
10
197.1428571428571
20
-80.0
0
VERTEX
8
0
10
117.14285714285711
20
-80.0
0
VERTEX
8
0
10
117.14285714285711
20
-100.0
0
SEQEND
0
POLYLINE
8
0
66
1
10
0.0
20
0.0
30
0.0
0
VERTEX
8
0
10
-100.0
20
3595.7142857142853
0
VERTEX
8
0
10
-100.0
20
3675.7142857142853
0
VERTEX
8
0
10
-80.0
20
3675.7142857142853
0
VERTEX
8
0
10
-80.0
20
3595.7142857142853
0
VERTEX
8
0
10
-100.0
20
3595.7142857142853
0
SEQEND
0
POLYLINE
8
0
66
1
10
0.0
20
0.0
30
0.0
0
VERTEX
8
0
10
1700.0
20
3595.7142857142853
0
VERTEX
8
0
10
1700.0
20
3675.7142857142853
0
VERTEX
8
0
10
1680.0
20
3675.7142857142853
0
VERTEX
8
0
10
1680.0
20
3595.7142857142853
0
VERTEX
8
0
10
1700.0
20
3595.7142857142853
0
SEQEND
0
POLYLINE
8
0
66
1
10
0.0
20
0.0
30
0.0
0
VERTEX
8
0
10
374.2857142857142
20
26050.0
0
VERTEX
8
0
10
454.2857142857142
20
26050.0
0
VERTEX
8
0
10
454.2857142857142
20
26030.0
0
VERTEX
8
0
10
374.2857142857142
20
26030.0
0
VERTEX
8
0
10
374.2857142857142
20
26050.0
0
SEQEND
0
POLYLINE
8
0
66
1
10
0.0
20
0.0
30
0.0
0
VERTEX
8
0
10
374.2857142857142
20
-100.0
0
VERTEX
8
0
10
454.2857142857142
20
-100.0
0
VERTEX
8
0
10
454.2857142857142
20
-80.0
0
VERTEX
8
0
10
374.2857142857142
20
-80.0
0
VERTEX
8
0
10
374.2857142857142
20
-100.0
0
SEQEND
0
POLYLINE
8
0
66
1
10
0.0
20
0.0
30
0.0
0
VERTEX
8
0
10
-100.0
20
7331.428571428571
0
VERTEX
8
0
10
-100.0
20
7411.428571428571
0
VERTEX
8
0
10
-80.0
20
7411.428571428571
0
VERTEX
8
0
10
-80.0
20
7331.428571428571
0
VERTEX
8
0
10
-100.0
20
7331.428571428571
0
SEQEND
0
POLYLINE
8
0
66
1
10
0.0
20
0.0
30
0.0
0
VERTEX
8
0
10
1700.0
20
7331.428571428571
0
VERTEX
8
0
10
1700.0
20
7411.428571428571
0
VERTEX
8
0
10
1680.0
20
7411.428571428571
0
VERTEX
8
0
10
1680.0
20
7331.428571428571
0
VERTEX
8
0
10
1700.0
20
7331.428571428571
0
SEQEND
0
POLYLINE
8
0
66
1
10
0.0
20
0.0
30
0.0
0
VERTEX
8
0
10
631.4285714285713
20
26050.0
0
VERTEX
8
0
10
711.4285714285713
20
26050.0
0
VERTEX
8
0
10
711.4285714285713
20
26030.0
0
VERTEX
8
0
10
631.4285714285713
20
26030.0
0
VERTEX
8
0
10
631.4285714285713
20
26050.0
0
SEQEND
0
POLYLINE
8
0
66
1
10
0.0
20
0.0
30
0.0
0
VERTEX
8
0
10
631.4285714285713
20
-100.0
0
VERTEX
8
0
10
711.4285714285713
20
-100.0
0
VERTEX
8
0
10
711.4285714285713
20
-80.0
0
VERTEX
8
0
10
631.4285714285713
20
-80.0
0
VERTEX
8
0
10
631.4285714285713
20
-100.0
0
SEQEND
0
POLYLINE
8
0
66
1
10
0.0
20
0.0
30
0.0
0
VERTEX
8
0
10
-100.0
20
11067.142857142857
0
VERTEX
8
0
10
-100.0
20
11147.142857142857
0
VERTEX
8
0
10
-80.0
20
11147.142857142857
0
VERTEX
8
0
10
-80.0
20
11067.142857142857
0
VERTEX
8
0
10
-100.0
20
11067.142857142857
0
SEQEND
0
POLYLINE
8
0
66
1
10
0.0
20
0.0
30
0.0
0
VERTEX
8
0
10
1700.0
20
11067.142857142857
0
VERTEX
8
0
10
1700.0
20
11147.142857142857
0
VERTEX
8
0
10
1680.0
20
11147.142857142857
0
VERTEX
8
0
10
1680.0
20
11067.142857142857
0
VERTEX
8
0
10
1700.0
20
11067.142857142857
0
SEQEND
0
POLYLINE
8
0
66
1
10
0.0
20
0.0
30
0.0
0
VERTEX
8
0
10
888.5714285714284
20
26050.0
0
VERTEX
8
0
10
968.5714285714284
20
26050.0
0
VERTEX
8
0
10
968.5714285714284
20
26030.0
0
VERTEX
8
0
10
888.5714285714284
20
26030.0
0
VERTEX
8
0
10
888.5714285714284
20
26050.0
0
SEQEND
0
POLYLINE
8
0
66
1
10
0.0
20
0.0
30
0.0
0
VERTEX
8
0
10
888.5714285714284
20
-100.0
0
VERTEX
8
0
10
968.5714285714284
20
-100.0
0
VERTEX
8
0
10
968.5714285714284
20
-80.0
0
VERTEX
8
0
10
888.5714285714284
20
-80.0
0
VERTEX
8
0
10
888.5714285714284
20
-100.0
0
SEQEND
0
POLYLINE
8
0
66
1
10
0.0
20
0.0
30
0.0
0
VERTEX
8
0
10
-100.0
20
14802.857142857141
0
VERTEX
8
0
10
-100.0
20
14882.857142857141
0
VERTEX
8
0
10
-80.0
20
14882.857142857141
0
VERTEX
8
0
10
-80.0
20
14802.857142857141
0
VERTEX
8
0
10
-100.0
20
14802.857142857141
0
SEQEND
0
POLYLINE
8
0
66
1
10
0.0
20
0.0
30
0.0
0
VERTEX
8
0
10
1700.0
20
14802.857142857141
0
VERTEX
8
0
10
1700.0
20
14882.857142857141
0
VERTEX
8
0
10
1680.0
20
14882.857142857141
0
VERTEX
8
0
10
1680.0
20
14802.857142857141
0
VERTEX
8
0
10
1700.0
20
14802.857142857141
0
SEQEND
0
POLYLINE
8
0
66
1
10
0.0
20
0.0
30
0.0
0
VERTEX
8
0
10
1145.7142857142858
20
26050.0
0
VERTEX
8
0
10
1225.7142857142858
20
26050.0
0
VERTEX
8
0
10
1225.7142857142858
20
26030.0
0
VERTEX
8
0
10
1145.7142857142858
20
26030.0
0
VERTEX
8
0
10
1145.7142857142858
20
26050.0
0
SEQEND
0
POLYLINE
8
0
66
1
10
0.0
20
0.0
30
0.0
0
VERTEX
8
0
10
1145.7142857142858
20
-100.0
0
VERTEX
8
0
10
1225.7142857142858
20
-100.0
0
VERTEX
8
0
10
1225.7142857142858
20
-80.0
0
VERTEX
8
0
10
1145.7142857142858
20
-80.0
0
VERTEX
8
0
10
1145.7142857142858
20
-100.0
0
SEQEND
0
POLYLINE
8
0
66
1
10
0.0
20
0.0
30
0.0
0
VERTEX
8
0
10
-100.0
20
18538.571428571428
0
VERTEX
8
0
10
-100.0
20
18618.571428571428
0
VERTEX
8
0
10
-80.0
20
18618.571428571428
0
VERTEX
8
0
10
-80.0
20
18538.571428571428
0
VERTEX
8
0
10
-100.0
20
18538.571428571428
0
SEQEND
0
POLYLINE
8
0
66
1
10
0.0
20
0.0
30
0.0
0
VERTEX
8
0
10
1700.0
20
18538.571428571428
0
VERTEX
8
0
10
1700.0
20
18618.571428571428
0
VERTEX
8
0
10
1680.0
20
18618.571428571428
0
VERTEX
8
0
10
1680.0
20
18538.571428571428
0
VERTEX
8
0
10
1700.0
20
18538.571428571428
0
SEQEND
0
POLYLINE
8
0
66
1
10
0.0
20
0.0
30
0.0
0
VERTEX
8
0
10
1402.8571428571427
20
26050.0
0
VERTEX
8
0
10
1482.8571428571427
20
26050.0
0
VERTEX
8
0
10
1482.8571428571427
20
26030.0
0
VERTEX
8
0
10
1402.8571428571427
20
26030.0
0
VERTEX
8
0
10
1402.8571428571427
20
26050.0
0
SEQEND
0
POLYLINE
8
0
66
1
10
0.0
20
0.0
30
0.0
0
VERTEX
8
0
10
1402.8571428571427
20
-100.0
0
VERTEX
8
0
10
1482.8571428571427
20
-100.0
0
VERTEX
8
0
10
1482.8571428571427
20
-80.0
0
VERTEX
8
0
10
1402.8571428571427
20
-80.0
0
VERTEX
8
0
10
1402.8571428571427
20
-100.0
0
SEQEND
0
POLYLINE
8
0
66
1
10
0.0
20
0.0
30
0.0
0
VERTEX
8
0
10
-100.0
20
22274.285714285714
0
VERTEX
8
0
10
-100.0
20
22354.285714285714
0
VERTEX
8
0
10
-80.0
20
22354.285714285714
0
VERTEX
8
0
10
-80.0
20
22274.285714285714
0
VERTEX
8
0
10
-100.0
20
22274.285714285714
0
SEQEND
0
POLYLINE
8
0
66
1
10
0.0
20
0.0
30
0.0
0
VERTEX
8
0
10
1700.0
20
22274.285714285714
0
VERTEX
8
0
10
1700.0
20
22354.285714285714
0
VERTEX
8
0
10
1680.0
20
22354.285714285714
0
VERTEX
8
0
10
1680.0
20
22274.285714285714
0
VERTEX
8
0
10
1700.0
20
22274.285714285714
0
SEQEND
0
POLYLINE
8
0
66
1
10
0.0
20
0.0
30
0.0
0
VERTEX
8
0
10
200.0
20
100.0
0
VERTEX
8
0
10
217.5
20
100.0
0
VERTEX
8
0
10
217.5
20
170.0
0
VERTEX
8
0
10
200.0
20
170.0
0
VERTEX
8
0
10
200.0
20
100.0
0
SEQEND
0
POLYLINE
8
0
66
1
10
0.0
20
0.0
30
0.0
0
VERTEX
8
0
10
217.5
20
108.75
0
VERTEX
8
0
10
226.25
20
108.75
0
VERTEX
8
0
10
226.25
20
117.5
0
VERTEX
8
0
10
235.0
20
117.5
0
VERTEX
8
0
10
235.0
20
161.25
0
VERTEX
8
0
10
217.5
20
161.25
0
VERTEX
8
0
10
217.5
20
170.0
0
VERTEX
8
0
10
252.5
20
170.0
0
VERTEX
8
0
10
252.5
20
95.625
0
VERTEX
8
0
10
235.0
20
95.625
0
VERTEX
8
0
10
235.0
20
100.0
0
VERTEX
8
0
10
217.5
20
100.0
0
VERTEX
8
0
10
217.5
20
108.75
0
SEQEND
0
POLYLINE
8
0
66
1
10
0.0
20
0.0
30
0.0
0
VERTEX
8
0
10
270.0
20
100.0
0
VERTEX
8
0
10
322.5
20
100.0
0
VERTEX
8
0
10
322.5
20
108.75
0
VERTEX
8
0
10
305.0
20
108.75
0
VERTEX
8
0
10
305.0
20
170.0
0
VERTEX
8
0
10
287.5
20
170.0
0
VERTEX
8
0
10
270.0
20
161.25
0
VERTEX
8
0
10
270.0
20
152.5
0
VERTEX
8
0
10
287.5
20
152.5
0
VERTEX
8
0
10
287.5
20
108.75
0
VERTEX
8
0
10
270.0
20
108.75
0
VERTEX
8
0
10
270.0
20
100.0
0
VERTEX
8
0
10
270.0
20
100.0
0
SEQEND
0
POLYLINE
8
0
66
1
10
0.0
20
0.0
30
0.0
0
VERTEX
8
0
10
340.0
20
108.75
0
VERTEX
8
0
10
357.5
20
100.0
0
VERTEX
8
0
10
357.5
20
170.0
0
VERTEX
8
0
10
340.0
20
161.25
0
VERTEX
8
0
10
340.0
20
108.75
0
SEQEND
0
POLYLINE
8
0
66
1
10
0.0
20
0.0
30
0.0
0
VERTEX
8
0
10
357.5
20
100.0
0
VERTEX
8
0
10
375.0
20
100.0
0
VERTEX
8
0
10
392.5
20
108.75
0
VERTEX
8
0
10
392.5
20
161.25
0
VERTEX
8
0
10
375.0
20
170.0
0
VERTEX
8
0
10
357.5
20
170.0
0
VERTEX
8
0
10
357.5
20
161.25
0
VERTEX
8
0
10
375.0
20
161.25
0
VERTEX
8
0
10
375.0
20
108.75
0
VERTEX
8
0
10
357.5
20
108.75
0
VERTEX
8
0
10
357.5
20
100.0
0
SEQEND
0
POLYLINE
8
0
66
1
10
0.0
20
0.0
30
0.0
0
VERTEX
8
0
10
357.5
20
108.75
0
VERTEX
8
0
10
366.25
20
108.75
0
VERTEX
8
0
10
375.0
20
156.875
0
VERTEX
8
0
10
375.0
20
161.25
0
VERTEX
8
0
10
366.25
20
161.25
0
VERTEX
8
0
10
357.5
20
113.125
0
VERTEX
8
0
10
357.5
20
108.75
0
SEQEND
0
ENDBLK
0
ENDSEC
0
SECTION
2
ENTITIES
0
INSERT
2
Q10
8
0
10
0
20
0
0
ENDSEC
0
EOF
