0
SECTION
2
HEADER
9
$ACADVER
1
AC1006
9
$INSBASE
10
0.0
20
0.0
30
0.0
9
$EXTMIN
10
0.0
20
0.0
9
$EXTMAX
10
0.0
20
0.0
0
ENDSEC
0
SECTION
2
TABLES
0
TABLE
2
LTYPE
70
1
0
LTYPE
2
CONTINUOUS
70
64
3
Solid line
72
65
73
0
40
0.0
0
ENDTAB
0
TABLE
2
LAYER
70
3
0
LAYER
2
PYDXF
70
64
62
7
6
continuous
0
LAYER
2
GAP
70
64
62
1
6
continuous
0
LAYER
2
PIN
70
64
62
3
6
continuous
0
ENDTAB
0
TABLE
2
STYLE
70
1
0
STYLE
2
STANDARD
70
0
40
0
41
40
50
50
71
0
42
1
3
ARIAL.TTF
4

0
ENDTAB
0
TABLE
2
VIEW
70
0
0
ENDTAB
0
ENDSEC
0
SECTION
2
BLOCKS
0
BLOCK
8
GAP
2
Q16GAP
70
0
10
0
20
0
30
0
3
Q16GAP
0
POLYLINE
8
0
66
1
10
0.0
20
0.0
30
0.0
0
VERTEX
8
0
10
820.7000000000007
20
21113.3
0
VERTEX
8
0
10
820.7000000000007
20
21114.0
0
VERTEX
8
0
10
779.2999999999993
20
21114.0
0
VERTEX
8
0
10
779.2999999999993
20
21113.3
0
VERTEX
8
0
10
820.7000000000007
20
21113.3
0
SEQEND
0
POLYLINE
8
0
66
1
10
0.0
20
0.0
30
0.0
0
VERTEX
8
0
10
780.0
20
21114.0
0
VERTEX
8
0
10
780.0
20
21134.0
0
VERTEX
8
0
10
779.2999999999993
20
21134.0
0
VERTEX
8
0
10
779.2999999999993
20
21114.0
0
VERTEX
8
0
10
780.0
20
21114.0
0
SEQEND
0
POLYLINE
8
0
66
1
10
0.0
20
0.0
30
0.0
0
VERTEX
8
0
10
820.0
20
21114.0
0
VERTEX
8
0
10
820.0
20
21134.0
0
VERTEX
8
0
10
820.7000000000007
20
21134.0
0
VERTEX
8
0
10
820.7000000000007
20
21114.0
0
VERTEX
8
0
10
820.0
20
21114.0
0
SEQEND
0
POLYLINE
8
0
66
1
10
0.0
20
0.0
30
0.0
0
VERTEX
8
0
10
780.0
20
21134.0
0
VERTEX
8
0
10
799.6599999999999
20
21144.0
0
VERTEX
8
0
10
798.9599999999991
20
21144.0
0
VERTEX
8
0
10
779.2999999999993
20
21134.0
0
VERTEX
8
0
10
780.0
20
21134.0
0
SEQEND
0
POLYLINE
8
0
66
1
10
0.0
20
0.0
30
0.0
0
VERTEX
8
0
10
820.0
20
21134.0
0
VERTEX
8
0
10
800.3400000000001
20
21144.0
0
VERTEX
8
0
10
801.0400000000009
20
21144.0
0
VERTEX
8
0
10
820.7000000000007
20
21134.0
0
VERTEX
8
0
10
820.0
20
21134.0
0
SEQEND
0
POLYLINE
8
0
66
1
10
0.0
20
0.0
30
0.0
0
VERTEX
8
0
10
799.6599999999999
20
21144.0
0
VERTEX
8
0
10
799.6599999999999
20
21146.0
0
VERTEX
8
0
10
799.4599999999991
20
21146.0
0
VERTEX
8
0
10
799.4599999999991
20
21144.0
0
VERTEX
8
0
10
799.6599999999999
20
21144.0
0
SEQEND
0
POLYLINE
8
0
66
1
10
0.0
20
0.0
30
0.0
0
VERTEX
8
0
10
800.3400000000001
20
21144.0
0
VERTEX
8
0
10
800.3400000000001
20
21146.0
0
VERTEX
8
0
10
800.5400000000009
20
21146.0
0
VERTEX
8
0
10
800.5400000000009
20
21144.0
0
VERTEX
8
0
10
800.3400000000001
20
21144.0
0
SEQEND
0
POLYLINE
8
0
66
1
10
0.0
20
0.0
30
0.0
0
VERTEX
8
0
10
802.7000000000007
20
21146.0
0
VERTEX
8
0
10
802.7000000000007
20
21146.15
0
VERTEX
8
0
10
797.2999999999993
20
21146.15
0
VERTEX
8
0
10
797.2999999999993
20
21146.0
0
VERTEX
8
0
10
802.7000000000007
20
21146.0
0
SEQEND
0
POLYLINE
8
0
66
1
10
0.0
20
0.0
30
0.0
0
VERTEX
8
0
10
797.5
20
21146.15
0
VERTEX
8
0
10
780.0
20
21156.15
0
VERTEX
8
0
10
779.2999999999993
20
21156.15
0
VERTEX
8
0
10
796.7999999999993
20
21146.15
0
VERTEX
8
0
10
797.5
20
21146.15
0
SEQEND
0
POLYLINE
8
0
66
1
10
0.0
20
0.0
30
0.0
0
VERTEX
8
0
10
802.5
20
21146.15
0
VERTEX
8
0
10
820.0
20
21156.15
0
VERTEX
8
0
10
820.7000000000007
20
21156.15
0
VERTEX
8
0
10
803.2000000000007
20
21146.15
0
VERTEX
8
0
10
802.5
20
21146.15
0
SEQEND
0
POLYLINE
8
0
66
1
10
0.0
20
0.0
30
0.0
0
VERTEX
8
0
10
780.0
20
21156.15
0
VERTEX
8
0
10
780.0
20
21176.15
0
VERTEX
8
0
10
779.2999999999993
20
21176.15
0
VERTEX
8
0
10
779.2999999999993
20
21156.15
0
VERTEX
8
0
10
780.0
20
21156.15
0
SEQEND
0
POLYLINE
8
0
66
1
10
0.0
20
0.0
30
0.0
0
VERTEX
8
0
10
820.0
20
21156.15
0
VERTEX
8
0
10
820.0
20
21176.15
0
VERTEX
8
0
10
820.7000000000007
20
21176.15
0
VERTEX
8
0
10
820.7000000000007
20
21156.15
0
VERTEX
8
0
10
820.0
20
21156.15
0
SEQEND
0
POLYLINE
8
0
66
1
10
0.0
20
0.0
30
0.0
0
VERTEX
8
0
10
820.7000000000007
20
21176.15
0
VERTEX
8
0
10
820.7000000000007
20
21176.850000000002
0
VERTEX
8
0
10
779.2999999999993
20
21176.850000000002
0
VERTEX
8
0
10
779.2999999999993
20
21176.15
0
VERTEX
8
0
10
820.7000000000007
20
21176.15
0
SEQEND
0
POLYLINE
8
0
66
1
10
0.0
20
0.0
30
0.0
0
VERTEX
8
0
10
820.6999999999998
20
2253.3
0
VERTEX
8
0
10
820.6999999999998
20
2254.0
0
VERTEX
8
0
10
779.3000000000002
20
2254.0
0
VERTEX
8
0
10
779.3000000000002
20
2253.3
0
VERTEX
8
0
10
820.6999999999998
20
2253.3
0
SEQEND
0
POLYLINE
8
0
66
1
10
0.0
20
0.0
30
0.0
0
VERTEX
8
0
10
780.0
20
2254.0
0
VERTEX
8
0
10
780.0
20
2274.0
0
VERTEX
8
0
10
779.3000000000002
20
2274.0
0
VERTEX
8
0
10
779.3000000000002
20
2254.0
0
VERTEX
8
0
10
780.0
20
2254.0
0
SEQEND
0
POLYLINE
8
0
66
1
10
0.0
20
0.0
30
0.0
0
VERTEX
8
0
10
820.0
20
2254.0
0
VERTEX
8
0
10
820.0
20
2274.0
0
VERTEX
8
0
10
820.6999999999998
20
2274.0
0
VERTEX
8
0
10
820.6999999999998
20
2254.0
0
VERTEX
8
0
10
820.0
20
2254.0
0
SEQEND
0
POLYLINE
8
0
66
1
10
0.0
20
0.0
30
0.0
0
VERTEX
8
0
10
780.0
20
2274.0
0
VERTEX
8
0
10
799.6599999999999
20
2284.0
0
VERTEX
8
0
10
798.96
20
2284.0
0
VERTEX
8
0
10
779.3000000000002
20
2274.0
0
VERTEX
8
0
10
780.0
20
2274.0
0
SEQEND
0
POLYLINE
8
0
66
1
10
0.0
20
0.0
30
0.0
0
VERTEX
8
0
10
820.0
20
2274.0
0
VERTEX
8
0
10
800.3400000000001
20
2284.0
0
VERTEX
8
0
10
801.04
20
2284.0
0
VERTEX
8
0
10
820.6999999999998
20
2274.0
0
VERTEX
8
0
10
820.0
20
2274.0
0
SEQEND
0
POLYLINE
8
0
66
1
10
0.0
20
0.0
30
0.0
0
VERTEX
8
0
10
799.6599999999999
20
2284.0
0
VERTEX
8
0
10
799.6599999999999
20
2286.0
0
VERTEX
8
0
10
799.46
20
2286.0
0
VERTEX
8
0
10
799.46
20
2284.0
0
VERTEX
8
0
10
799.6599999999999
20
2284.0
0
SEQEND
0
POLYLINE
8
0
66
1
10
0.0
20
0.0
30
0.0
0
VERTEX
8
0
10
800.3400000000001
20
2284.0
0
VERTEX
8
0
10
800.3400000000001
20
2286.0
0
VERTEX
8
0
10
800.54
20
2286.0
0
VERTEX
8
0
10
800.54
20
2284.0
0
VERTEX
8
0
10
800.3400000000001
20
2284.0
0
SEQEND
0
POLYLINE
8
0
66
1
10
0.0
20
0.0
30
0.0
0
VERTEX
8
0
10
802.6999999999998
20
2286.0
0
VERTEX
8
0
10
802.6999999999998
20
2286.15
0
VERTEX
8
0
10
797.3000000000002
20
2286.15
0
VERTEX
8
0
10
797.3000000000002
20
2286.0
0
VERTEX
8
0
10
802.6999999999998
20
2286.0
0
SEQEND
0
POLYLINE
8
0
66
1
10
0.0
20
0.0
30
0.0
0
VERTEX
8
0
10
797.5
20
2286.15
0
VERTEX
8
0
10
780.0
20
2296.15
0
VERTEX
8
0
10
779.3000000000002
20
2296.15
0
VERTEX
8
0
10
796.8000000000002
20
2286.15
0
VERTEX
8
0
10
797.5
20
2286.15
0
SEQEND
0
POLYLINE
8
0
66
1
10
0.0
20
0.0
30
0.0
0
VERTEX
8
0
10
802.5
20
2286.15
0
VERTEX
8
0
10
820.0
20
2296.15
0
VERTEX
8
0
10
820.6999999999998
20
2296.15
0
VERTEX
8
0
10
803.1999999999998
20
2286.15
0
VERTEX
8
0
10
802.5
20
2286.15
0
SEQEND
0
POLYLINE
8
0
66
1
10
0.0
20
0.0
30
0.0
0
VERTEX
8
0
10
780.0
20
2296.15
0
VERTEX
8
0
10
780.0
20
2316.15
0
VERTEX
8
0
10
779.3000000000002
20
2316.15
0
VERTEX
8
0
10
779.3000000000002
20
2296.15
0
VERTEX
8
0
10
780.0
20
2296.15
0
SEQEND
0
POLYLINE
8
0
66
1
10
0.0
20
0.0
30
0.0
0
VERTEX
8
0
10
820.0
20
2296.15
0
VERTEX
8
0
10
820.0
20
2316.15
0
VERTEX
8
0
10
820.6999999999998
20
2316.15
0
VERTEX
8
0
10
820.6999999999998
20
2296.15
0
VERTEX
8
0
10
820.0
20
2296.15
0
SEQEND
0
POLYLINE
8
0
66
1
10
0.0
20
0.0
30
0.0
0
VERTEX
8
0
10
820.6999999999998
20
2316.15
0
VERTEX
8
0
10
820.6999999999998
20
2316.8500000000004
0
VERTEX
8
0
10
779.3000000000002
20
2316.8500000000004
0
VERTEX
8
0
10
779.3000000000002
20
2316.15
0
VERTEX
8
0
10
820.6999999999998
20
2316.15
0
SEQEND
0
POLYLINE
8
0
66
1
10
0.0
20
0.0
30
0.0
0
VERTEX
8
0
10
820.6999999999998
20
4753.3
0
VERTEX
8
0
10
820.6999999999998
20
4754.0
0
VERTEX
8
0
10
779.3000000000002
20
4754.0
0
VERTEX
8
0
10
779.3000000000002
20
4753.3
0
VERTEX
8
0
10
820.6999999999998
20
4753.3
0
SEQEND
0
POLYLINE
8
0
66
1
10
0.0
20
0.0
30
0.0
0
VERTEX
8
0
10
780.0
20
4754.0
0
VERTEX
8
0
10
780.0
20
4774.0
0
VERTEX
8
0
10
779.3000000000002
20
4774.0
0
VERTEX
8
0
10
779.3000000000002
20
4754.0
0
VERTEX
8
0
10
780.0
20
4754.0
0
SEQEND
0
POLYLINE
8
0
66
1
10
0.0
20
0.0
30
0.0
0
VERTEX
8
0
10
820.0
20
4754.0
0
VERTEX
8
0
10
820.0
20
4774.0
0
VERTEX
8
0
10
820.6999999999998
20
4774.0
0
VERTEX
8
0
10
820.6999999999998
20
4754.0
0
VERTEX
8
0
10
820.0
20
4754.0
0
SEQEND
0
POLYLINE
8
0
66
1
10
0.0
20
0.0
30
0.0
0
VERTEX
8
0
10
780.0
20
4774.0
0
VERTEX
8
0
10
799.6599999999999
20
4784.0
0
VERTEX
8
0
10
798.96
20
4784.0
0
VERTEX
8
0
10
779.3000000000002
20
4774.0
0
VERTEX
8
0
10
780.0
20
4774.0
0
SEQEND
0
POLYLINE
8
0
66
1
10
0.0
20
0.0
30
0.0
0
VERTEX
8
0
10
820.0
20
4774.0
0
VERTEX
8
0
10
800.3400000000001
20
4784.0
0
VERTEX
8
0
10
801.04
20
4784.0
0
VERTEX
8
0
10
820.6999999999998
20
4774.0
0
VERTEX
8
0
10
820.0
20
4774.0
0
SEQEND
0
POLYLINE
8
0
66
1
10
0.0
20
0.0
30
0.0
0
VERTEX
8
0
10
799.6599999999999
20
4784.0
0
VERTEX
8
0
10
799.6599999999999
20
4786.0
0
VERTEX
8
0
10
799.46
20
4786.0
0
VERTEX
8
0
10
799.46
20
4784.0
0
VERTEX
8
0
10
799.6599999999999
20
4784.0
0
SEQEND
0
POLYLINE
8
0
66
1
10
0.0
20
0.0
30
0.0
0
VERTEX
8
0
10
800.3400000000001
20
4784.0
0
VERTEX
8
0
10
800.3400000000001
20
4786.0
0
VERTEX
8
0
10
800.54
20
4786.0
0
VERTEX
8
0
10
800.54
20
4784.0
0
VERTEX
8
0
10
800.3400000000001
20
4784.0
0
SEQEND
0
POLYLINE
8
0
66
1
10
0.0
20
0.0
30
0.0
0
VERTEX
8
0
10
802.6999999999998
20
4786.0
0
VERTEX
8
0
10
802.6999999999998
20
4786.15
0
VERTEX
8
0
10
797.3000000000002
20
4786.15
0
VERTEX
8
0
10
797.3000000000002
20
4786.0
0
VERTEX
8
0
10
802.6999999999998
20
4786.0
0
SEQEND
0
POLYLINE
8
0
66
1
10
0.0
20
0.0
30
0.0
0
VERTEX
8
0
10
797.5
20
4786.15
0
VERTEX
8
0
10
780.0
20
4796.15
0
VERTEX
8
0
10
779.3000000000002
20
4796.15
0
VERTEX
8
0
10
796.8000000000002
20
4786.15
0
VERTEX
8
0
10
797.5
20
4786.15
0
SEQEND
0
POLYLINE
8
0
66
1
10
0.0
20
0.0
30
0.0
0
VERTEX
8
0
10
802.5
20
4786.15
0
VERTEX
8
0
10
820.0
20
4796.15
0
VERTEX
8
0
10
820.6999999999998
20
4796.15
0
VERTEX
8
0
10
803.1999999999998
20
4786.15
0
VERTEX
8
0
10
802.5
20
4786.15
0
SEQEND
0
POLYLINE
8
0
66
1
10
0.0
20
0.0
30
0.0
0
VERTEX
8
0
10
780.0
20
4796.15
0
VERTEX
8
0
10
780.0
20
4816.15
0
VERTEX
8
0
10
779.3000000000002
20
4816.15
0
VERTEX
8
0
10
779.3000000000002
20
4796.15
0
VERTEX
8
0
10
780.0
20
4796.15
0
SEQEND
0
POLYLINE
8
0
66
1
10
0.0
20
0.0
30
0.0
0
VERTEX
8
0
10
820.0
20
4796.15
0
VERTEX
8
0
10
820.0
20
4816.15
0
VERTEX
8
0
10
820.6999999999998
20
4816.15
0
VERTEX
8
0
10
820.6999999999998
20
4796.15
0
VERTEX
8
0
10
820.0
20
4796.15
0
SEQEND
0
POLYLINE
8
0
66
1
10
0.0
20
0.0
30
0.0
0
VERTEX
8
0
10
820.6999999999998
20
4816.15
0
VERTEX
8
0
10
820.6999999999998
20
4816.849999999999
0
VERTEX
8
0
10
779.3000000000002
20
4816.849999999999
0
VERTEX
8
0
10
779.3000000000002
20
4816.15
0
VERTEX
8
0
10
820.6999999999998
20
4816.15
0
SEQEND
0
POLYLINE
8
0
66
1
10
0.0
20
0.0
30
0.0
0
VERTEX
8
0
10
820.6999999999998
20
7253.3
0
VERTEX
8
0
10
820.6999999999998
20
7254.0
0
VERTEX
8
0
10
779.3000000000002
20
7254.0
0
VERTEX
8
0
10
779.3000000000002
20
7253.3
0
VERTEX
8
0
10
820.6999999999998
20
7253.3
0
SEQEND
0
POLYLINE
8
0
66
1
10
0.0
20
0.0
30
0.0
0
VERTEX
8
0
10
780.0
20
7254.0
0
VERTEX
8
0
10
780.0
20
7274.0
0
VERTEX
8
0
10
779.3000000000002
20
7274.0
0
VERTEX
8
0
10
779.3000000000002
20
7254.0
0
VERTEX
8
0
10
780.0
20
7254.0
0
SEQEND
0
POLYLINE
8
0
66
1
10
0.0
20
0.0
30
0.0
0
VERTEX
8
0
10
820.0
20
7254.0
0
VERTEX
8
0
10
820.0
20
7274.0
0
VERTEX
8
0
10
820.6999999999998
20
7274.0
0
VERTEX
8
0
10
820.6999999999998
20
7254.0
0
VERTEX
8
0
10
820.0
20
7254.0
0
SEQEND
0
POLYLINE
8
0
66
1
10
0.0
20
0.0
30
0.0
0
VERTEX
8
0
10
780.0
20
7274.0
0
VERTEX
8
0
10
799.6599999999999
20
7284.0
0
VERTEX
8
0
10
798.96
20
7284.0
0
VERTEX
8
0
10
779.3000000000002
20
7274.0
0
VERTEX
8
0
10
780.0
20
7274.0
0
SEQEND
0
POLYLINE
8
0
66
1
10
0.0
20
0.0
30
0.0
0
VERTEX
8
0
10
820.0
20
7274.0
0
VERTEX
8
0
10
800.3400000000001
20
7284.0
0
VERTEX
8
0
10
801.04
20
7284.0
0
VERTEX
8
0
10
820.6999999999998
20
7274.0
0
VERTEX
8
0
10
820.0
20
7274.0
0
SEQEND
0
POLYLINE
8
0
66
1
10
0.0
20
0.0
30
0.0
0
VERTEX
8
0
10
799.6599999999999
20
7284.0
0
VERTEX
8
0
10
799.6599999999999
20
7286.0
0
VERTEX
8
0
10
799.46
20
7286.0
0
VERTEX
8
0
10
799.46
20
7284.0
0
VERTEX
8
0
10
799.6599999999999
20
7284.0
0
SEQEND
0
POLYLINE
8
0
66
1
10
0.0
20
0.0
30
0.0
0
VERTEX
8
0
10
800.3400000000001
20
7284.0
0
VERTEX
8
0
10
800.3400000000001
20
7286.0
0
VERTEX
8
0
10
800.54
20
7286.0
0
VERTEX
8
0
10
800.54
20
7284.0
0
VERTEX
8
0
10
800.3400000000001
20
7284.0
0
SEQEND
0
POLYLINE
8
0
66
1
10
0.0
20
0.0
30
0.0
0
VERTEX
8
0
10
802.6999999999998
20
7286.0
0
VERTEX
8
0
10
802.6999999999998
20
7286.15
0
VERTEX
8
0
10
797.3000000000002
20
7286.15
0
VERTEX
8
0
10
797.3000000000002
20
7286.0
0
VERTEX
8
0
10
802.6999999999998
20
7286.0
0
SEQEND
0
POLYLINE
8
0
66
1
10
0.0
20
0.0
30
0.0
0
VERTEX
8
0
10
797.5
20
7286.15
0
VERTEX
8
0
10
780.0
20
7296.15
0
VERTEX
8
0
10
779.3000000000002
20
7296.15
0
VERTEX
8
0
10
796.8000000000002
20
7286.15
0
VERTEX
8
0
10
797.5
20
7286.15
0
SEQEND
0
POLYLINE
8
0
66
1
10
0.0
20
0.0
30
0.0
0
VERTEX
8
0
10
802.5
20
7286.15
0
VERTEX
8
0
10
820.0
20
7296.15
0
VERTEX
8
0
10
820.6999999999998
20
7296.15
0
VERTEX
8
0
10
803.1999999999998
20
7286.15
0
VERTEX
8
0
10
802.5
20
7286.15
0
SEQEND
0
POLYLINE
8
0
66
1
10
0.0
20
0.0
30
0.0
0
VERTEX
8
0
10
780.0
20
7296.15
0
VERTEX
8
0
10
780.0
20
7316.15
0
VERTEX
8
0
10
779.3000000000002
20
7316.15
0
VERTEX
8
0
10
779.3000000000002
20
7296.15
0
VERTEX
8
0
10
780.0
20
7296.15
0
SEQEND
0
POLYLINE
8
0
66
1
10
0.0
20
0.0
30
0.0
0
VERTEX
8
0
10
820.0
20
7296.15
0
VERTEX
8
0
10
820.0
20
7316.15
0
VERTEX
8
0
10
820.6999999999998
20
7316.15
0
VERTEX
8
0
10
820.6999999999998
20
7296.15
0
VERTEX
8
0
10
820.0
20
7296.15
0
SEQEND
0
POLYLINE
8
0
66
1
10
0.0
20
0.0
30
0.0
0
VERTEX
8
0
10
820.6999999999998
20
7316.15
0
VERTEX
8
0
10
820.6999999999998
20
7316.849999999999
0
VERTEX
8
0
10
779.3000000000002
20
7316.849999999999
0
VERTEX
8
0
10
779.3000000000002
20
7316.15
0
VERTEX
8
0
10
820.6999999999998
20
7316.15
0
SEQEND
0
ENDBLK
0
BLOCK
8
PIN
2
Q16PIN
70
0
10
0
20
0
30
0
3
Q16PIN
0
POLYLINE
8
0
66
1
10
0.0
20
0.0
30
0.0
0
VERTEX
8
0
10
820.0
20
21114.0
0
VERTEX
8
0
10
820.0
20
21134.0
0
VERTEX
8
0
10
780.0
20
21134.0
0
VERTEX
8
0
10
780.0
20
21114.0
0
VERTEX
8
0
10
820.0
20
21114.0
0
SEQEND
0
POLYLINE
8
0
66
1
10
0.0
20
0.0
30
0.0
0
VERTEX
8
0
10
800.0
20
21134.0
0
VERTEX
8
0
10
800.0
20
21144.0
0
VERTEX
8
0
10
799.6599999999999
20
21144.0
0
VERTEX
8
0
10
780.0
20
21134.0
0
VERTEX
8
0
10
800.0
20
21134.0
0
SEQEND
0
POLYLINE
8
0
66
1
10
0.0
20
0.0
30
0.0
0
VERTEX
8
0
10
800.0
20
21134.0
0
VERTEX
8
0
10
800.0
20
21144.0
0
VERTEX
8
0
10
800.3400000000001
20
21144.0
0
VERTEX
8
0
10
820.0
20
21134.0
0
VERTEX
8
0
10
800.0
20
21134.0
0
SEQEND
0
POLYLINE
8
0
66
1
10
0.0
20
0.0
30
0.0
0
VERTEX
8
0
10
800.3400000000001
20
21144.0
0
VERTEX
8
0
10
800.3400000000001
20
21146.0
0
VERTEX
8
0
10
799.6599999999999
20
21146.0
0
VERTEX
8
0
10
799.6599999999999
20
21144.0
0
VERTEX
8
0
10
800.3400000000001
20
21144.0
0
SEQEND
0
POLYLINE
8
0
66
1
10
0.0
20
0.0
30
0.0
0
VERTEX
8
0
10
800.0
20
21146.15
0
VERTEX
8
0
10
800.0
20
21156.15
0
VERTEX
8
0
10
780.0
20
21156.15
0
VERTEX
8
0
10
797.5
20
21146.15
0
VERTEX
8
0
10
800.0
20
21146.15
0
SEQEND
0
POLYLINE
8
0
66
1
10
0.0
20
0.0
30
0.0
0
VERTEX
8
0
10
800.0
20
21146.15
0
VERTEX
8
0
10
800.0
20
21156.15
0
VERTEX
8
0
10
820.0
20
21156.15
0
VERTEX
8
0
10
802.5
20
21146.15
0
VERTEX
8
0
10
800.0
20
21146.15
0
SEQEND
0
POLYLINE
8
0
66
1
10
0.0
20
0.0
30
0.0
0
VERTEX
8
0
10
820.0
20
21156.15
0
VERTEX
8
0
10
820.0
20
21176.15
0
VERTEX
8
0
10
780.0
20
21176.15
0
VERTEX
8
0
10
780.0
20
21156.15
0
VERTEX
8
0
10
820.0
20
21156.15
0
SEQEND
0
POLYLINE
8
0
66
1
10
0.0
20
0.0
30
0.0
0
VERTEX
8
0
10
820.0
20
2254.0
0
VERTEX
8
0
10
820.0
20
2274.0
0
VERTEX
8
0
10
780.0
20
2274.0
0
VERTEX
8
0
10
780.0
20
2254.0
0
VERTEX
8
0
10
820.0
20
2254.0
0
SEQEND
0
POLYLINE
8
0
66
1
10
0.0
20
0.0
30
0.0
0
VERTEX
8
0
10
800.0
20
2274.0
0
VERTEX
8
0
10
800.0
20
2284.0
0
VERTEX
8
0
10
799.6599999999999
20
2284.0
0
VERTEX
8
0
10
780.0
20
2274.0
0
VERTEX
8
0
10
800.0
20
2274.0
0
SEQEND
0
POLYLINE
8
0
66
1
10
0.0
20
0.0
30
0.0
0
VERTEX
8
0
10
800.0
20
2274.0
0
VERTEX
8
0
10
800.0
20
2284.0
0
VERTEX
8
0
10
800.3400000000001
20
2284.0
0
VERTEX
8
0
10
820.0
20
2274.0
0
VERTEX
8
0
10
800.0
20
2274.0
0
SEQEND
0
POLYLINE
8
0
66
1
10
0.0
20
0.0
30
0.0
0
VERTEX
8
0
10
800.3400000000001
20
2284.0
0
VERTEX
8
0
10
800.3400000000001
20
2286.0
0
VERTEX
8
0
10
799.6599999999999
20
2286.0
0
VERTEX
8
0
10
799.6599999999999
20
2284.0
0
VERTEX
8
0
10
800.3400000000001
20
2284.0
0
SEQEND
0
POLYLINE
8
0
66
1
10
0.0
20
0.0
30
0.0
0
VERTEX
8
0
10
800.0
20
2286.15
0
VERTEX
8
0
10
800.0
20
2296.15
0
VERTEX
8
0
10
780.0
20
2296.15
0
VERTEX
8
0
10
797.5
20
2286.15
0
VERTEX
8
0
10
800.0
20
2286.15
0
SEQEND
0
POLYLINE
8
0
66
1
10
0.0
20
0.0
30
0.0
0
VERTEX
8
0
10
800.0
20
2286.15
0
VERTEX
8
0
10
800.0
20
2296.15
0
VERTEX
8
0
10
820.0
20
2296.15
0
VERTEX
8
0
10
802.5
20
2286.15
0
VERTEX
8
0
10
800.0
20
2286.15
0
SEQEND
0
POLYLINE
8
0
66
1
10
0.0
20
0.0
30
0.0
0
VERTEX
8
0
10
820.0
20
2296.15
0
VERTEX
8
0
10
820.0
20
2316.15
0
VERTEX
8
0
10
780.0
20
2316.15
0
VERTEX
8
0
10
780.0
20
2296.15
0
VERTEX
8
0
10
820.0
20
2296.15
0
SEQEND
0
POLYLINE
8
0
66
1
10
0.0
20
0.0
30
0.0
0
VERTEX
8
0
10
820.0
20
4754.0
0
VERTEX
8
0
10
820.0
20
4774.0
0
VERTEX
8
0
10
780.0
20
4774.0
0
VERTEX
8
0
10
780.0
20
4754.0
0
VERTEX
8
0
10
820.0
20
4754.0
0
SEQEND
0
POLYLINE
8
0
66
1
10
0.0
20
0.0
30
0.0
0
VERTEX
8
0
10
800.0
20
4774.0
0
VERTEX
8
0
10
800.0
20
4784.0
0
VERTEX
8
0
10
799.6599999999999
20
4784.0
0
VERTEX
8
0
10
780.0
20
4774.0
0
VERTEX
8
0
10
800.0
20
4774.0
0
SEQEND
0
POLYLINE
8
0
66
1
10
0.0
20
0.0
30
0.0
0
VERTEX
8
0
10
800.0
20
4774.0
0
VERTEX
8
0
10
800.0
20
4784.0
0
VERTEX
8
0
10
800.3400000000001
20
4784.0
0
VERTEX
8
0
10
820.0
20
4774.0
0
VERTEX
8
0
10
800.0
20
4774.0
0
SEQEND
0
POLYLINE
8
0
66
1
10
0.0
20
0.0
30
0.0
0
VERTEX
8
0
10
800.3400000000001
20
4784.0
0
VERTEX
8
0
10
800.3400000000001
20
4786.0
0
VERTEX
8
0
10
799.6599999999999
20
4786.0
0
VERTEX
8
0
10
799.6599999999999
20
4784.0
0
VERTEX
8
0
10
800.3400000000001
20
4784.0
0
SEQEND
0
POLYLINE
8
0
66
1
10
0.0
20
0.0
30
0.0
0
VERTEX
8
0
10
800.0
20
4786.15
0
VERTEX
8
0
10
800.0
20
4796.15
0
VERTEX
8
0
10
780.0
20
4796.15
0
VERTEX
8
0
10
797.5
20
4786.15
0
VERTEX
8
0
10
800.0
20
4786.15
0
SEQEND
0
POLYLINE
8
0
66
1
10
0.0
20
0.0
30
0.0
0
VERTEX
8
0
10
800.0
20
4786.15
0
VERTEX
8
0
10
800.0
20
4796.15
0
VERTEX
8
0
10
820.0
20
4796.15
0
VERTEX
8
0
10
802.5
20
4786.15
0
VERTEX
8
0
10
800.0
20
4786.15
0
SEQEND
0
POLYLINE
8
0
66
1
10
0.0
20
0.0
30
0.0
0
VERTEX
8
0
10
820.0
20
4796.15
0
VERTEX
8
0
10
820.0
20
4816.15
0
VERTEX
8
0
10
780.0
20
4816.15
0
VERTEX
8
0
10
780.0
20
4796.15
0
VERTEX
8
0
10
820.0
20
4796.15
0
SEQEND
0
POLYLINE
8
0
66
1
10
0.0
20
0.0
30
0.0
0
VERTEX
8
0
10
820.0
20
7254.0
0
VERTEX
8
0
10
820.0
20
7274.0
0
VERTEX
8
0
10
780.0
20
7274.0
0
VERTEX
8
0
10
780.0
20
7254.0
0
VERTEX
8
0
10
820.0
20
7254.0
0
SEQEND
0
POLYLINE
8
0
66
1
10
0.0
20
0.0
30
0.0
0
VERTEX
8
0
10
800.0
20
7274.0
0
VERTEX
8
0
10
800.0
20
7284.0
0
VERTEX
8
0
10
799.6599999999999
20
7284.0
0
VERTEX
8
0
10
780.0
20
7274.0
0
VERTEX
8
0
10
800.0
20
7274.0
0
SEQEND
0
POLYLINE
8
0
66
1
10
0.0
20
0.0
30
0.0
0
VERTEX
8
0
10
800.0
20
7274.0
0
VERTEX
8
0
10
800.0
20
7284.0
0
VERTEX
8
0
10
800.3400000000001
20
7284.0
0
VERTEX
8
0
10
820.0
20
7274.0
0
VERTEX
8
0
10
800.0
20
7274.0
0
SEQEND
0
POLYLINE
8
0
66
1
10
0.0
20
0.0
30
0.0
0
VERTEX
8
0
10
800.3400000000001
20
7284.0
0
VERTEX
8
0
10
800.3400000000001
20
7286.0
0
VERTEX
8
0
10
799.6599999999999
20
7286.0
0
VERTEX
8
0
10
799.6599999999999
20
7284.0
0
VERTEX
8
0
10
800.3400000000001
20
7284.0
0
SEQEND
0
POLYLINE
8
0
66
1
10
0.0
20
0.0
30
0.0
0
VERTEX
8
0
10
800.0
20
7286.15
0
VERTEX
8
0
10
800.0
20
7296.15
0
VERTEX
8
0
10
780.0
20
7296.15
0
VERTEX
8
0
10
797.5
20
7286.15
0
VERTEX
8
0
10
800.0
20
7286.15
0
SEQEND
0
POLYLINE
8
0
66
1
10
0.0
20
0.0
30
0.0
0
VERTEX
8
0
10
800.0
20
7286.15
0
VERTEX
8
0
10
800.0
20
7296.15
0
VERTEX
8
0
10
820.0
20
7296.15
0
VERTEX
8
0
10
802.5
20
7286.15
0
VERTEX
8
0
10
800.0
20
7286.15
0
SEQEND
0
POLYLINE
8
0
66
1
10
0.0
20
0.0
30
0.0
0
VERTEX
8
0
10
820.0
20
7296.15
0
VERTEX
8
0
10
820.0
20
7316.15
0
VERTEX
8
0
10
780.0
20
7316.15
0
VERTEX
8
0
10
780.0
20
7296.15
0
VERTEX
8
0
10
820.0
20
7296.15
0
SEQEND
0
ENDBLK
0
BLOCK
8
0
2
Q16
70
0
10
0
20
0
30
0
3
Q16

0
ENDBLK
0
ENDSEC
0
SECTION
2
ENTITIES
0
INSERT
2
Q16GAP
8
GAP
10
0
20
0
0
INSERT
2
Q16PIN
8
PIN
10
0
20
0
0
INSERT
2
Q16
8
0
10
0
20
0
0
ENDSEC
0
EOF
