0
SECTION
2
HEADER
9
$ACADVER
1
AC1006
9
$INSBASE
10
0.0
20
0.0
30
0.0
9
$EXTMIN
10
0.0
20
0.0
9
$EXTMAX
10
0.0
20
0.0
0
ENDSEC
0
SECTION
2
TABLES
0
TABLE
2
LTYPE
70
1
0
LTYPE
2
CONTINUOUS
70
64
3
Solid line
72
65
73
0
40
0.0
0
ENDTAB
0
TABLE
2
LAYER
70
1
0
LAYER
2
PYDXF
70
64
62
7
6
continuous
0
ENDTAB
0
TABLE
2
STYLE
70
1
0
STYLE
2
STANDARD
70
0
40
0
41
40
50
50
71
0
42
1
3
ARIAL.TTF
4

0
ENDTAB
0
TABLE
2
VIEW
70
0
0
ENDTAB
0
ENDSEC
0
SECTION
2
BLOCKS
0
BLOCK
8
0
2
C1A
70
0
10
0
20
0
30
0
3
C1A
0
POLYLINE
8
0
66
1
10
0.0
20
0.0
30
0.0
0
VERTEX
8
0
10
-1950.0
20
12170.0
0
VERTEX
8
0
10
-1950.0
20
12095.0
0
VERTEX
8
0
10
-1650.0
20
12095.0
0
VERTEX
8
0
10
-1650.0
20
12170.0
0
VERTEX
8
0
10
-1950.0
20
12170.0
0
SEQEND
0
POLYLINE
8
0
66
1
10
0.0
20
0.0
30
0.0
0
VERTEX
8
0
10
-1725.0
20
12095.0
0
VERTEX
8
0
10
-1725.0
20
11770.0
0
VERTEX
8
0
10
-1650.0
20
11770.0
0
VERTEX
8
0
10
-1650.0
20
12095.0
0
VERTEX
8
0
10
-1725.0
20
12095.0
0
SEQEND
0
POLYLINE
8
0
66
1
10
0.0
20
0.0
30
0.0
0
VERTEX
8
0
10
-1875.0
20
12095.0
0
VERTEX
8
0
10
-1875.0
20
11770.0
0
VERTEX
8
0
10
-1950.0
20
11770.0
0
VERTEX
8
0
10
-1950.0
20
12095.0
0
VERTEX
8
0
10
-1875.0
20
12095.0
0
SEQEND
0
POLYLINE
8
0
66
1
10
0.0
20
0.0
30
0.0
0
VERTEX
8
0
10
-1725.0
20
11770.0
0
VERTEX
8
0
10
-1795.0
20
11520.0
0
VERTEX
8
0
10
-1790.15831189058
20
11520.0
0
VERTEX
8
0
10
-1650.0
20
11770.0
0
VERTEX
8
0
10
-1725.0
20
11770.0
0
SEQEND
0
POLYLINE
8
0
66
1
10
0.0
20
0.0
30
0.0
0
VERTEX
8
0
10
-1875.0
20
11770.0
0
VERTEX
8
0
10
-1805.0
20
11520.0
0
VERTEX
8
0
10
-1809.84168810942
20
11520.0
0
VERTEX
8
0
10
-1950.0
20
11770.0
0
VERTEX
8
0
10
-1875.0
20
11770.0
0
SEQEND
0
POLYLINE
8
0
66
1
10
0.0
20
0.0
30
0.0
0
VERTEX
8
0
10
-1950.0
20
14425.0
0
VERTEX
8
0
10
-1950.0
20
14350.0
0
VERTEX
8
0
10
-1650.0
20
14350.0
0
VERTEX
8
0
10
-1650.0
20
14425.0
0
VERTEX
8
0
10
-1950.0
20
14425.0
0
SEQEND
0
POLYLINE
8
0
66
1
10
0.0
20
0.0
30
0.0
0
VERTEX
8
0
10
-1725.0
20
14350.0
0
VERTEX
8
0
10
-1725.0
20
14025.0
0
VERTEX
8
0
10
-1650.0
20
14025.0
0
VERTEX
8
0
10
-1650.0
20
14350.0
0
VERTEX
8
0
10
-1725.0
20
14350.0
0
SEQEND
0
POLYLINE
8
0
66
1
10
0.0
20
0.0
30
0.0
0
VERTEX
8
0
10
-1875.0
20
14350.0
0
VERTEX
8
0
10
-1875.0
20
14025.0
0
VERTEX
8
0
10
-1950.0
20
14025.0
0
VERTEX
8
0
10
-1950.0
20
14350.0
0
VERTEX
8
0
10
-1875.0
20
14350.0
0
SEQEND
0
POLYLINE
8
0
66
1
10
0.0
20
0.0
30
0.0
0
VERTEX
8
0
10
-1725.0
20
14025.0
0
VERTEX
8
0
10
-1795.0
20
13775.0
0
VERTEX
8
0
10
-1790.15831189058
20
13775.0
0
VERTEX
8
0
10
-1650.0
20
14025.0
0
VERTEX
8
0
10
-1725.0
20
14025.0
0
SEQEND
0
POLYLINE
8
0
66
1
10
0.0
20
0.0
30
0.0
0
VERTEX
8
0
10
-1875.0
20
14025.0
0
VERTEX
8
0
10
-1805.0
20
13775.0
0
VERTEX
8
0
10
-1809.84168810942
20
13775.0
0
VERTEX
8
0
10
-1950.0
20
14025.0
0
VERTEX
8
0
10
-1875.0
20
14025.0
0
SEQEND
0
POLYLINE
8
0
66
1
10
0.0
20
0.0
30
0.0
0
VERTEX
8
0
10
2900.0
20
25500.0
0
VERTEX
8
0
10
2825.0
20
25500.0
0
VERTEX
8
0
10
2825.0
20
25200.0
0
VERTEX
8
0
10
2900.0
20
25200.0
0
VERTEX
8
0
10
2900.0
20
25500.0
0
SEQEND
0
POLYLINE
8
0
66
1
10
0.0
20
0.0
30
0.0
0
VERTEX
8
0
10
2825.0
20
25275.0
0
VERTEX
8
0
10
2500.0
20
25275.0
0
VERTEX
8
0
10
2500.0
20
25200.0
0
VERTEX
8
0
10
2825.0
20
25200.0
0
VERTEX
8
0
10
2825.0
20
25275.0
0
SEQEND
0
POLYLINE
8
0
66
1
10
0.0
20
0.0
30
0.0
0
VERTEX
8
0
10
2825.0
20
25425.0
0
VERTEX
8
0
10
2500.0
20
25425.0
0
VERTEX
8
0
10
2500.0
20
25500.0
0
VERTEX
8
0
10
2825.0
20
25500.0
0
VERTEX
8
0
10
2825.0
20
25425.0
0
SEQEND
0
POLYLINE
8
0
66
1
10
0.0
20
0.0
30
0.0
0
VERTEX
8
0
10
2500.0
20
25275.0
0
VERTEX
8
0
10
2250.0
20
25345.0
0
VERTEX
8
0
10
2250.0
20
25340.15831189058
0
VERTEX
8
0
10
2500.0
20
25200.0
0
VERTEX
8
0
10
2500.0
20
25275.0
0
SEQEND
0
POLYLINE
8
0
66
1
10
0.0
20
0.0
30
0.0
0
VERTEX
8
0
10
2500.0
20
25425.0
0
VERTEX
8
0
10
2250.0
20
25355.0
0
VERTEX
8
0
10
2250.0
20
25359.84168810942
0
VERTEX
8
0
10
2500.0
20
25500.0
0
VERTEX
8
0
10
2500.0
20
25425.0
0
SEQEND
0
POLYLINE
8
0
66
1
10
0.0
20
0.0
30
0.0
0
VERTEX
8
0
10
3250.0
20
14425.0
0
VERTEX
8
0
10
3250.0
20
14350.0
0
VERTEX
8
0
10
3550.0
20
14350.0
0
VERTEX
8
0
10
3550.0
20
14425.0
0
VERTEX
8
0
10
3250.0
20
14425.0
0
SEQEND
0
POLYLINE
8
0
66
1
10
0.0
20
0.0
30
0.0
0
VERTEX
8
0
10
3475.0
20
14350.0
0
VERTEX
8
0
10
3475.0
20
14025.0
0
VERTEX
8
0
10
3550.0
20
14025.0
0
VERTEX
8
0
10
3550.0
20
14350.0
0
VERTEX
8
0
10
3475.0
20
14350.0
0
SEQEND
0
POLYLINE
8
0
66
1
10
0.0
20
0.0
30
0.0
0
VERTEX
8
0
10
3325.0
20
14350.0
0
VERTEX
8
0
10
3325.0
20
14025.0
0
VERTEX
8
0
10
3250.0
20
14025.0
0
VERTEX
8
0
10
3250.0
20
14350.0
0
VERTEX
8
0
10
3325.0
20
14350.0
0
SEQEND
0
POLYLINE
8
0
66
1
10
0.0
20
0.0
30
0.0
0
VERTEX
8
0
10
3475.0
20
14025.0
0
VERTEX
8
0
10
3405.0
20
13775.0
0
VERTEX
8
0
10
3409.84168810942
20
13775.0
0
VERTEX
8
0
10
3550.0
20
14025.0
0
VERTEX
8
0
10
3475.0
20
14025.0
0
SEQEND
0
POLYLINE
8
0
66
1
10
0.0
20
0.0
30
0.0
0
VERTEX
8
0
10
3325.0
20
14025.0
0
VERTEX
8
0
10
3395.0
20
13775.0
0
VERTEX
8
0
10
3390.15831189058
20
13775.0
0
VERTEX
8
0
10
3250.0
20
14025.0
0
VERTEX
8
0
10
3325.0
20
14025.0
0
SEQEND
0
POLYLINE
8
0
66
1
10
0.0
20
0.0
30
0.0
0
VERTEX
8
0
10
3250.0
20
12175.0
0
VERTEX
8
0
10
3250.0
20
12100.0
0
VERTEX
8
0
10
3550.0
20
12100.0
0
VERTEX
8
0
10
3550.0
20
12175.0
0
VERTEX
8
0
10
3250.0
20
12175.0
0
SEQEND
0
POLYLINE
8
0
66
1
10
0.0
20
0.0
30
0.0
0
VERTEX
8
0
10
3475.0
20
12100.0
0
VERTEX
8
0
10
3475.0
20
11775.0
0
VERTEX
8
0
10
3550.0
20
11775.0
0
VERTEX
8
0
10
3550.0
20
12100.0
0
VERTEX
8
0
10
3475.0
20
12100.0
0
SEQEND
0
POLYLINE
8
0
66
1
10
0.0
20
0.0
30
0.0
0
VERTEX
8
0
10
3325.0
20
12100.0
0
VERTEX
8
0
10
3325.0
20
11775.0
0
VERTEX
8
0
10
3250.0
20
11775.0
0
VERTEX
8
0
10
3250.0
20
12100.0
0
VERTEX
8
0
10
3325.0
20
12100.0
0
SEQEND
0
POLYLINE
8
0
66
1
10
0.0
20
0.0
30
0.0
0
VERTEX
8
0
10
3475.0
20
11775.0
0
VERTEX
8
0
10
3405.0
20
11525.0
0
VERTEX
8
0
10
3409.84168810942
20
11525.0
0
VERTEX
8
0
10
3550.0
20
11775.0
0
VERTEX
8
0
10
3475.0
20
11775.0
0
SEQEND
0
POLYLINE
8
0
66
1
10
0.0
20
0.0
30
0.0
0
VERTEX
8
0
10
3325.0
20
11775.0
0
VERTEX
8
0
10
3395.0
20
11525.0
0
VERTEX
8
0
10
3390.15831189058
20
11525.0
0
VERTEX
8
0
10
3250.0
20
11775.0
0
VERTEX
8
0
10
3325.0
20
11775.0
0
SEQEND
0
POLYLINE
8
0
66
1
10
0.0
20
0.0
30
0.0
0
VERTEX
8
0
10
2900.0
20
950.0
0
VERTEX
8
0
10
2825.0
20
950.0
0
VERTEX
8
0
10
2825.0
20
650.0
0
VERTEX
8
0
10
2900.0
20
650.0
0
VERTEX
8
0
10
2900.0
20
950.0
0
SEQEND
0
POLYLINE
8
0
66
1
10
0.0
20
0.0
30
0.0
0
VERTEX
8
0
10
2825.0
20
725.0
0
VERTEX
8
0
10
2500.0
20
725.0
0
VERTEX
8
0
10
2500.0
20
650.0
0
VERTEX
8
0
10
2825.0
20
650.0
0
VERTEX
8
0
10
2825.0
20
725.0
0
SEQEND
0
POLYLINE
8
0
66
1
10
0.0
20
0.0
30
0.0
0
VERTEX
8
0
10
2825.0
20
875.0
0
VERTEX
8
0
10
2500.0
20
875.0
0
VERTEX
8
0
10
2500.0
20
950.0
0
VERTEX
8
0
10
2825.0
20
950.0
0
VERTEX
8
0
10
2825.0
20
875.0
0
SEQEND
0
POLYLINE
8
0
66
1
10
0.0
20
0.0
30
0.0
0
VERTEX
8
0
10
2500.0
20
725.0
0
VERTEX
8
0
10
2250.0
20
795.0
0
VERTEX
8
0
10
2250.0
20
790.1583118905806
0
VERTEX
8
0
10
2500.0
20
650.0
0
VERTEX
8
0
10
2500.0
20
725.0
0
SEQEND
0
POLYLINE
8
0
66
1
10
0.0
20
0.0
30
0.0
0
VERTEX
8
0
10
2500.0
20
875.0
0
VERTEX
8
0
10
2250.0
20
805.0
0
VERTEX
8
0
10
2250.0
20
809.8416881094194
0
VERTEX
8
0
10
2500.0
20
950.0
0
VERTEX
8
0
10
2500.0
20
875.0
0
SEQEND
0
POLYLINE
8
0
66
1
10
0.0
20
0.0
30
0.0
0
VERTEX
8
0
10
-1300.0
20
650.0
0
VERTEX
8
0
10
-1225.0
20
650.0
0
VERTEX
8
0
10
-1225.0
20
950.0
0
VERTEX
8
0
10
-1300.0
20
950.0
0
VERTEX
8
0
10
-1300.0
20
650.0
0
SEQEND
0
POLYLINE
8
0
66
1
10
0.0
20
0.0
30
0.0
0
VERTEX
8
0
10
-1225.0
20
875.0
0
VERTEX
8
0
10
-900.0
20
875.0
0
VERTEX
8
0
10
-900.0
20
950.0
0
VERTEX
8
0
10
-1225.0
20
950.0
0
VERTEX
8
0
10
-1225.0
20
875.0
0
SEQEND
0
POLYLINE
8
0
66
1
10
0.0
20
0.0
30
0.0
0
VERTEX
8
0
10
-1225.0
20
725.0
0
VERTEX
8
0
10
-900.0
20
725.0
0
VERTEX
8
0
10
-900.0
20
650.0
0
VERTEX
8
0
10
-1225.0
20
650.0
0
VERTEX
8
0
10
-1225.0
20
725.0
0
SEQEND
0
POLYLINE
8
0
66
1
10
0.0
20
0.0
30
0.0
0
VERTEX
8
0
10
-900.0
20
875.0
0
VERTEX
8
0
10
-650.0
20
805.0
0
VERTEX
8
0
10
-650.0
20
809.8416881094194
0
VERTEX
8
0
10
-900.0
20
950.0
0
VERTEX
8
0
10
-900.0
20
875.0
0
SEQEND
0
POLYLINE
8
0
66
1
10
0.0
20
0.0
30
0.0
0
VERTEX
8
0
10
-900.0
20
725.0
0
VERTEX
8
0
10
-650.0
20
795.0
0
VERTEX
8
0
10
-650.0
20
790.1583118905806
0
VERTEX
8
0
10
-900.0
20
650.0
0
VERTEX
8
0
10
-900.0
20
725.0
0
SEQEND
0
POLYLINE
8
0
66
1
10
0.0
20
0.0
30
0.0
0
VERTEX
8
0
10
-1950.0
20
12170.0
0
VERTEX
8
0
10
-1950.0
20
12095.0
0
VERTEX
8
0
10
-1650.0
20
12095.0
0
VERTEX
8
0
10
-1650.0
20
12170.0
0
VERTEX
8
0
10
-1950.0
20
12170.0
0
SEQEND
0
POLYLINE
8
0
66
1
10
0.0
20
0.0
30
0.0
0
VERTEX
8
0
10
-1725.0
20
12095.0
0
VERTEX
8
0
10
-1725.0
20
11770.0
0
VERTEX
8
0
10
-1650.0
20
11770.0
0
VERTEX
8
0
10
-1650.0
20
12095.0
0
VERTEX
8
0
10
-1725.0
20
12095.0
0
SEQEND
0
POLYLINE
8
0
66
1
10
0.0
20
0.0
30
0.0
0
VERTEX
8
0
10
-1875.0
20
12095.0
0
VERTEX
8
0
10
-1875.0
20
11770.0
0
VERTEX
8
0
10
-1950.0
20
11770.0
0
VERTEX
8
0
10
-1950.0
20
12095.0
0
VERTEX
8
0
10
-1875.0
20
12095.0
0
SEQEND
0
POLYLINE
8
0
66
1
10
0.0
20
0.0
30
0.0
0
VERTEX
8
0
10
-1725.0
20
11770.0
0
VERTEX
8
0
10
-1795.0
20
11520.0
0
VERTEX
8
0
10
-1790.15831189058
20
11520.0
0
VERTEX
8
0
10
-1650.0
20
11770.0
0
VERTEX
8
0
10
-1725.0
20
11770.0
0
SEQEND
0
POLYLINE
8
0
66
1
10
0.0
20
0.0
30
0.0
0
VERTEX
8
0
10
-1875.0
20
11770.0
0
VERTEX
8
0
10
-1805.0
20
11520.0
0
VERTEX
8
0
10
-1809.84168810942
20
11520.0
0
VERTEX
8
0
10
-1950.0
20
11770.0
0
VERTEX
8
0
10
-1875.0
20
11770.0
0
SEQEND
0
POLYLINE
8
0
66
1
10
0.0
20
0.0
30
0.0
0
VERTEX
8
0
10
-1950.0
20
14425.0
0
VERTEX
8
0
10
-1950.0
20
14350.0
0
VERTEX
8
0
10
-1650.0
20
14350.0
0
VERTEX
8
0
10
-1650.0
20
14425.0
0
VERTEX
8
0
10
-1950.0
20
14425.0
0
SEQEND
0
POLYLINE
8
0
66
1
10
0.0
20
0.0
30
0.0
0
VERTEX
8
0
10
-1725.0
20
14350.0
0
VERTEX
8
0
10
-1725.0
20
14025.0
0
VERTEX
8
0
10
-1650.0
20
14025.0
0
VERTEX
8
0
10
-1650.0
20
14350.0
0
VERTEX
8
0
10
-1725.0
20
14350.0
0
SEQEND
0
POLYLINE
8
0
66
1
10
0.0
20
0.0
30
0.0
0
VERTEX
8
0
10
-1875.0
20
14350.0
0
VERTEX
8
0
10
-1875.0
20
14025.0
0
VERTEX
8
0
10
-1950.0
20
14025.0
0
VERTEX
8
0
10
-1950.0
20
14350.0
0
VERTEX
8
0
10
-1875.0
20
14350.0
0
SEQEND
0
POLYLINE
8
0
66
1
10
0.0
20
0.0
30
0.0
0
VERTEX
8
0
10
-1725.0
20
14025.0
0
VERTEX
8
0
10
-1795.0
20
13775.0
0
VERTEX
8
0
10
-1790.15831189058
20
13775.0
0
VERTEX
8
0
10
-1650.0
20
14025.0
0
VERTEX
8
0
10
-1725.0
20
14025.0
0
SEQEND
0
POLYLINE
8
0
66
1
10
0.0
20
0.0
30
0.0
0
VERTEX
8
0
10
-1875.0
20
14025.0
0
VERTEX
8
0
10
-1805.0
20
13775.0
0
VERTEX
8
0
10
-1809.84168810942
20
13775.0
0
VERTEX
8
0
10
-1950.0
20
14025.0
0
VERTEX
8
0
10
-1875.0
20
14025.0
0
SEQEND
0
POLYLINE
8
0
66
1
10
0.0
20
0.0
30
0.0
0
VERTEX
8
0
10
2900.0
20
25500.0
0
VERTEX
8
0
10
2825.0
20
25500.0
0
VERTEX
8
0
10
2825.0
20
25200.0
0
VERTEX
8
0
10
2900.0
20
25200.0
0
VERTEX
8
0
10
2900.0
20
25500.0
0
SEQEND
0
POLYLINE
8
0
66
1
10
0.0
20
0.0
30
0.0
0
VERTEX
8
0
10
2825.0
20
25275.0
0
VERTEX
8
0
10
2500.0
20
25275.0
0
VERTEX
8
0
10
2500.0
20
25200.0
0
VERTEX
8
0
10
2825.0
20
25200.0
0
VERTEX
8
0
10
2825.0
20
25275.0
0
SEQEND
0
POLYLINE
8
0
66
1
10
0.0
20
0.0
30
0.0
0
VERTEX
8
0
10
2825.0
20
25425.0
0
VERTEX
8
0
10
2500.0
20
25425.0
0
VERTEX
8
0
10
2500.0
20
25500.0
0
VERTEX
8
0
10
2825.0
20
25500.0
0
VERTEX
8
0
10
2825.0
20
25425.0
0
SEQEND
0
POLYLINE
8
0
66
1
10
0.0
20
0.0
30
0.0
0
VERTEX
8
0
10
2500.0
20
25275.0
0
VERTEX
8
0
10
2250.0
20
25345.0
0
VERTEX
8
0
10
2250.0
20
25340.15831189058
0
VERTEX
8
0
10
2500.0
20
25200.0
0
VERTEX
8
0
10
2500.0
20
25275.0
0
SEQEND
0
POLYLINE
8
0
66
1
10
0.0
20
0.0
30
0.0
0
VERTEX
8
0
10
2500.0
20
25425.0
0
VERTEX
8
0
10
2250.0
20
25355.0
0
VERTEX
8
0
10
2250.0
20
25359.84168810942
0
VERTEX
8
0
10
2500.0
20
25500.0
0
VERTEX
8
0
10
2500.0
20
25425.0
0
SEQEND
0
POLYLINE
8
0
66
1
10
0.0
20
0.0
30
0.0
0
VERTEX
8
0
10
3250.0
20
14425.0
0
VERTEX
8
0
10
3250.0
20
14350.0
0
VERTEX
8
0
10
3550.0
20
14350.0
0
VERTEX
8
0
10
3550.0
20
14425.0
0
VERTEX
8
0
10
3250.0
20
14425.0
0
SEQEND
0
POLYLINE
8
0
66
1
10
0.0
20
0.0
30
0.0
0
VERTEX
8
0
10
3475.0
20
14350.0
0
VERTEX
8
0
10
3475.0
20
14025.0
0
VERTEX
8
0
10
3550.0
20
14025.0
0
VERTEX
8
0
10
3550.0
20
14350.0
0
VERTEX
8
0
10
3475.0
20
14350.0
0
SEQEND
0
POLYLINE
8
0
66
1
10
0.0
20
0.0
30
0.0
0
VERTEX
8
0
10
3325.0
20
14350.0
0
VERTEX
8
0
10
3325.0
20
14025.0
0
VERTEX
8
0
10
3250.0
20
14025.0
0
VERTEX
8
0
10
3250.0
20
14350.0
0
VERTEX
8
0
10
3325.0
20
14350.0
0
SEQEND
0
POLYLINE
8
0
66
1
10
0.0
20
0.0
30
0.0
0
VERTEX
8
0
10
3475.0
20
14025.0
0
VERTEX
8
0
10
3405.0
20
13775.0
0
VERTEX
8
0
10
3409.84168810942
20
13775.0
0
VERTEX
8
0
10
3550.0
20
14025.0
0
VERTEX
8
0
10
3475.0
20
14025.0
0
SEQEND
0
POLYLINE
8
0
66
1
10
0.0
20
0.0
30
0.0
0
VERTEX
8
0
10
3325.0
20
14025.0
0
VERTEX
8
0
10
3395.0
20
13775.0
0
VERTEX
8
0
10
3390.15831189058
20
13775.0
0
VERTEX
8
0
10
3250.0
20
14025.0
0
VERTEX
8
0
10
3325.0
20
14025.0
0
SEQEND
0
POLYLINE
8
0
66
1
10
0.0
20
0.0
30
0.0
0
VERTEX
8
0
10
3250.0
20
12175.0
0
VERTEX
8
0
10
3250.0
20
12100.0
0
VERTEX
8
0
10
3550.0
20
12100.0
0
VERTEX
8
0
10
3550.0
20
12175.0
0
VERTEX
8
0
10
3250.0
20
12175.0
0
SEQEND
0
POLYLINE
8
0
66
1
10
0.0
20
0.0
30
0.0
0
VERTEX
8
0
10
3475.0
20
12100.0
0
VERTEX
8
0
10
3475.0
20
11775.0
0
VERTEX
8
0
10
3550.0
20
11775.0
0
VERTEX
8
0
10
3550.0
20
12100.0
0
VERTEX
8
0
10
3475.0
20
12100.0
0
SEQEND
0
POLYLINE
8
0
66
1
10
0.0
20
0.0
30
0.0
0
VERTEX
8
0
10
3325.0
20
12100.0
0
VERTEX
8
0
10
3325.0
20
11775.0
0
VERTEX
8
0
10
3250.0
20
11775.0
0
VERTEX
8
0
10
3250.0
20
12100.0
0
VERTEX
8
0
10
3325.0
20
12100.0
0
SEQEND
0
POLYLINE
8
0
66
1
10
0.0
20
0.0
30
0.0
0
VERTEX
8
0
10
3475.0
20
11775.0
0
VERTEX
8
0
10
3405.0
20
11525.0
0
VERTEX
8
0
10
3409.84168810942
20
11525.0
0
VERTEX
8
0
10
3550.0
20
11775.0
0
VERTEX
8
0
10
3475.0
20
11775.0
0
SEQEND
0
POLYLINE
8
0
66
1
10
0.0
20
0.0
30
0.0
0
VERTEX
8
0
10
3325.0
20
11775.0
0
VERTEX
8
0
10
3395.0
20
11525.0
0
VERTEX
8
0
10
3390.15831189058
20
11525.0
0
VERTEX
8
0
10
3250.0
20
11775.0
0
VERTEX
8
0
10
3325.0
20
11775.0
0
SEQEND
0
POLYLINE
8
0
66
1
10
0.0
20
0.0
30
0.0
0
VERTEX
8
0
10
2900.0
20
950.0
0
VERTEX
8
0
10
2825.0
20
950.0
0
VERTEX
8
0
10
2825.0
20
650.0
0
VERTEX
8
0
10
2900.0
20
650.0
0
VERTEX
8
0
10
2900.0
20
950.0
0
SEQEND
0
POLYLINE
8
0
66
1
10
0.0
20
0.0
30
0.0
0
VERTEX
8
0
10
2825.0
20
725.0
0
VERTEX
8
0
10
2500.0
20
725.0
0
VERTEX
8
0
10
2500.0
20
650.0
0
VERTEX
8
0
10
2825.0
20
650.0
0
VERTEX
8
0
10
2825.0
20
725.0
0
SEQEND
0
POLYLINE
8
0
66
1
10
0.0
20
0.0
30
0.0
0
VERTEX
8
0
10
2825.0
20
875.0
0
VERTEX
8
0
10
2500.0
20
875.0
0
VERTEX
8
0
10
2500.0
20
950.0
0
VERTEX
8
0
10
2825.0
20
950.0
0
VERTEX
8
0
10
2825.0
20
875.0
0
SEQEND
0
POLYLINE
8
0
66
1
10
0.0
20
0.0
30
0.0
0
VERTEX
8
0
10
2500.0
20
725.0
0
VERTEX
8
0
10
2250.0
20
795.0
0
VERTEX
8
0
10
2250.0
20
790.1583118905806
0
VERTEX
8
0
10
2500.0
20
650.0
0
VERTEX
8
0
10
2500.0
20
725.0
0
SEQEND
0
POLYLINE
8
0
66
1
10
0.0
20
0.0
30
0.0
0
VERTEX
8
0
10
2500.0
20
875.0
0
VERTEX
8
0
10
2250.0
20
805.0
0
VERTEX
8
0
10
2250.0
20
809.8416881094194
0
VERTEX
8
0
10
2500.0
20
950.0
0
VERTEX
8
0
10
2500.0
20
875.0
0
SEQEND
0
POLYLINE
8
0
66
1
10
0.0
20
0.0
30
0.0
0
VERTEX
8
0
10
-1300.0
20
650.0
0
VERTEX
8
0
10
-1225.0
20
650.0
0
VERTEX
8
0
10
-1225.0
20
950.0
0
VERTEX
8
0
10
-1300.0
20
950.0
0
VERTEX
8
0
10
-1300.0
20
650.0
0
SEQEND
0
POLYLINE
8
0
66
1
10
0.0
20
0.0
30
0.0
0
VERTEX
8
0
10
-1225.0
20
875.0
0
VERTEX
8
0
10
-900.0
20
875.0
0
VERTEX
8
0
10
-900.0
20
950.0
0
VERTEX
8
0
10
-1225.0
20
950.0
0
VERTEX
8
0
10
-1225.0
20
875.0
0
SEQEND
0
POLYLINE
8
0
66
1
10
0.0
20
0.0
30
0.0
0
VERTEX
8
0
10
-1225.0
20
725.0
0
VERTEX
8
0
10
-900.0
20
725.0
0
VERTEX
8
0
10
-900.0
20
650.0
0
VERTEX
8
0
10
-1225.0
20
650.0
0
VERTEX
8
0
10
-1225.0
20
725.0
0
SEQEND
0
POLYLINE
8
0
66
1
10
0.0
20
0.0
30
0.0
0
VERTEX
8
0
10
-900.0
20
875.0
0
VERTEX
8
0
10
-650.0
20
805.0
0
VERTEX
8
0
10
-650.0
20
809.8416881094194
0
VERTEX
8
0
10
-900.0
20
950.0
0
VERTEX
8
0
10
-900.0
20
875.0
0
SEQEND
0
POLYLINE
8
0
66
1
10
0.0
20
0.0
30
0.0
0
VERTEX
8
0
10
-900.0
20
725.0
0
VERTEX
8
0
10
-650.0
20
795.0
0
VERTEX
8
0
10
-650.0
20
790.1583118905806
0
VERTEX
8
0
10
-900.0
20
650.0
0
VERTEX
8
0
10
-900.0
20
725.0
0
SEQEND
0
POLYLINE
8
0
66
1
10
0.0
20
0.0
30
0.0
0
VERTEX
8
0
10
110.0
20
28040.0
0
VERTEX
8
0
10
109.99999999999997
20
27960.0
0
VERTEX
8
0
10
189.99999999999997
20
27960.0
0
VERTEX
8
0
10
190.0
20
28040.0
0
VERTEX
8
0
10
110.0
20
28040.0
0
SEQEND
0
POLYLINE
8
0
66
1
10
0.0
20
0.0
30
0.0
0
VERTEX
8
0
10
1410.0
20
28040.0
0
VERTEX
8
0
10
1410.0
20
27960.0
0
VERTEX
8
0
10
1490.0
20
27960.0
0
VERTEX
8
0
10
1490.0
20
28040.0
0
VERTEX
8
0
10
1410.0
20
28040.0
0
SEQEND
0
POLYLINE
8
0
66
1
10
0.0
20
0.0
30
0.0
0
VERTEX
8
0
10
110.0
20
740.0
0
VERTEX
8
0
10
109.99999999999997
20
660.0
0
VERTEX
8
0
10
189.99999999999997
20
660.0
0
VERTEX
8
0
10
190.0
20
740.0
0
VERTEX
8
0
10
110.0
20
740.0
0
SEQEND
0
POLYLINE
8
0
66
1
10
0.0
20
0.0
30
0.0
0
VERTEX
8
0
10
1410.0
20
740.0
0
VERTEX
8
0
10
1410.0
20
660.0
0
VERTEX
8
0
10
1490.0
20
660.0
0
VERTEX
8
0
10
1490.0
20
740.0
0
VERTEX
8
0
10
1410.0
20
740.0
0
SEQEND
0
POLYLINE
8
0
66
1
10
0.0
20
0.0
30
0.0
0
VERTEX
8
0
10
-100.0
20
28250.0
0
VERTEX
8
0
10
-100.00000000000009
20
27750.0
0
VERTEX
8
0
10
399.9999999999999
20
27750.0
0
VERTEX
8
0
10
400.0
20
28250.0
0
VERTEX
8
0
10
-100.0
20
28250.0
0
SEQEND
0
POLYLINE
8
0
66
1
10
0.0
20
0.0
30
0.0
0
VERTEX
8
0
10
1200.0
20
28250.0
0
VERTEX
8
0
10
1200.0
20
27750.0
0
VERTEX
8
0
10
1700.0
20
27750.0
0
VERTEX
8
0
10
1700.0
20
28250.0
0
VERTEX
8
0
10
1200.0
20
28250.0
0
SEQEND
0
POLYLINE
8
0
66
1
10
0.0
20
0.0
30
0.0
0
VERTEX
8
0
10
-100.0
20
950.0
0
VERTEX
8
0
10
-100.00000000000009
20
450.00000000000006
0
VERTEX
8
0
10
399.9999999999999
20
449.99999999999994
0
VERTEX
8
0
10
400.0
20
950.0
0
VERTEX
8
0
10
-100.0
20
950.0
0
SEQEND
0
POLYLINE
8
0
66
1
10
0.0
20
0.0
30
0.0
0
VERTEX
8
0
10
1200.0
20
950.0
0
VERTEX
8
0
10
1200.0
20
450.00000000000006
0
VERTEX
8
0
10
1700.0
20
449.99999999999994
0
VERTEX
8
0
10
1700.0
20
950.0
0
VERTEX
8
0
10
1200.0
20
950.0
0
SEQEND
0
POLYLINE
8
0
66
1
10
0.0
20
0.0
30
0.0
0
VERTEX
8
0
10
250.0
20
9750.0
0
VERTEX
8
0
10
250.0
20
9650.0
0
VERTEX
8
0
10
1750.0
20
9650.0
0
VERTEX
8
0
10
1750.0
20
9750.0
0
VERTEX
8
0
10
250.0
20
9750.0
0
SEQEND
0
POLYLINE
8
0
66
1
10
0.0
20
0.0
30
0.0
0
VERTEX
8
0
10
725.0
20
25280.0
0
VERTEX
8
0
10
724.9999999999993
20
21580.0
0
VERTEX
8
0
10
874.9999999999993
20
21580.0
0
VERTEX
8
0
10
875.0
20
25280.0
0
VERTEX
8
0
10
725.0
20
25280.0
0
SEQEND
0
POLYLINE
8
0
66
1
10
0.0
20
0.0
30
0.0
0
VERTEX
8
0
10
784.9999999999993
20
21580.0
0
VERTEX
8
0
10
784.9999999999992
20
21210.0
0
VERTEX
8
0
10
814.9999999999992
20
21210.0
0
VERTEX
8
0
10
814.9999999999993
20
21580.0
0
VERTEX
8
0
10
784.9999999999993
20
21580.0
0
SEQEND
0
POLYLINE
8
0
66
1
10
0.0
20
0.0
30
0.0
0
VERTEX
8
0
10
802.4999999999992
20
21210.0
0
VERTEX
8
0
10
802.4999999999992
20
21215.0
0
VERTEX
8
0
10
797.4999999999992
20
21215.0
0
VERTEX
8
0
10
797.4999999999992
20
21210.0
0
VERTEX
8
0
10
802.4999999999992
20
21210.0
0
SEQEND
0
POLYLINE
8
0
66
1
10
0.0
20
0.0
30
0.0
0
VERTEX
8
0
10
807.4999999999992
20
21215.0
0
VERTEX
8
0
10
807.4999999999992
20
21220.0
0
VERTEX
8
0
10
792.4999999999992
20
21220.0
0
VERTEX
8
0
10
792.4999999999992
20
21215.0
0
VERTEX
8
0
10
807.4999999999992
20
21215.0
0
SEQEND
0
POLYLINE
8
0
66
1
10
0.0
20
0.0
30
0.0
0
VERTEX
8
0
10
797.4999999999992
20
21180.0
0
VERTEX
8
0
10
797.4999999999992
20
21175.0
0
VERTEX
8
0
10
802.4999999999992
20
21175.0
0
VERTEX
8
0
10
802.4999999999992
20
21180.0
0
VERTEX
8
0
10
797.4999999999992
20
21180.0
0
SEQEND
0
POLYLINE
8
0
66
1
10
0.0
20
0.0
30
0.0
0
VERTEX
8
0
10
792.4999999999992
20
21175.0
0
VERTEX
8
0
10
792.4999999999992
20
21170.0
0
VERTEX
8
0
10
807.4999999999992
20
21170.0
0
VERTEX
8
0
10
807.4999999999992
20
21175.0
0
VERTEX
8
0
10
792.4999999999992
20
21175.0
0
SEQEND
0
POLYLINE
8
0
66
1
10
0.0
20
0.0
30
0.0
0
VERTEX
8
0
10
784.9999999999992
20
21180.0
0
VERTEX
8
0
10
784.9999999999991
20
20830.0
0
VERTEX
8
0
10
814.9999999999991
20
20830.0
0
VERTEX
8
0
10
814.9999999999992
20
21180.0
0
VERTEX
8
0
10
784.9999999999992
20
21180.0
0
SEQEND
0
POLYLINE
8
0
66
1
10
0.0
20
0.0
30
0.0
0
VERTEX
8
0
10
724.9999999999991
20
20830.0
0
VERTEX
8
0
10
724.9999999999977
20
17730.0
0
VERTEX
8
0
10
874.9999999999977
20
17730.0
0
VERTEX
8
0
10
874.9999999999991
20
20830.0
0
VERTEX
8
0
10
724.9999999999991
20
20830.0
0
SEQEND
0
POLYLINE
8
0
66
1
10
0.0
20
0.0
30
0.0
0
VERTEX
8
0
10
835.0
20
25280.0
0
VERTEX
8
0
10
835.0
20
25240.0
0
VERTEX
8
0
10
875.0
20
25240.0
0
VERTEX
8
0
10
875.0
20
25280.0
0
VERTEX
8
0
10
835.0
20
25280.0
0
SEQEND
0
POLYLINE
8
0
66
1
10
0.0
20
0.0
30
0.0
0
VERTEX
8
0
10
875.0
20
25240.0
0
VERTEX
8
0
10
869.6410161513776
20
25260.0
0
VERTEX
8
0
10
855.0
20
25274.641016151378
0
VERTEX
8
0
10
835.0
20
25280.0
0
VERTEX
8
0
10
835.0
20
25260.0
0
VERTEX
8
0
10
845.0
20
25257.32050807569
0
VERTEX
8
0
10
852.3205080756887
20
25250.0
0
VERTEX
8
0
10
855.0
20
25240.0
0
VERTEX
8
0
10
875.0
20
25240.0
0
SEQEND
0
POLYLINE
8
0
66
1
10
0.0
20
0.0
30
0.0
0
VERTEX
8
0
10
855.0
20
25240.0
0
VERTEX
8
0
10
852.3205080756887
20
25250.0
0
VERTEX
8
0
10
845.0
20
25257.32050807569
0
VERTEX
8
0
10
835.0
20
25260.0
0
VERTEX
8
0
10
835.0
20
25240.0
0
VERTEX
8
0
10
835.0
20
25240.0
0
VERTEX
8
0
10
835.0
20
25240.0
0
VERTEX
8
0
10
835.0
20
25240.0
0
VERTEX
8
0
10
855.0
20
25240.0
0
SEQEND
0
POLYLINE
8
0
66
1
10
0.0
20
0.0
30
0.0
0
VERTEX
8
0
10
725.0
20
25280.0
0
VERTEX
8
0
10
725.0
20
25240.0
0
VERTEX
8
0
10
765.0
20
25240.0
0
VERTEX
8
0
10
765.0
20
25280.0
0
VERTEX
8
0
10
725.0
20
25280.0
0
SEQEND
0
POLYLINE
8
0
66
1
10
0.0
20
0.0
30
0.0
0
VERTEX
8
0
10
725.0
20
25240.0
0
VERTEX
8
0
10
730.3589838486224
20
25260.0
0
VERTEX
8
0
10
745.0
20
25274.641016151378
0
VERTEX
8
0
10
765.0
20
25280.0
0
VERTEX
8
0
10
765.0
20
25260.0
0
VERTEX
8
0
10
755.0
20
25257.32050807569
0
VERTEX
8
0
10
747.6794919243113
20
25250.0
0
VERTEX
8
0
10
745.0
20
25240.0
0
VERTEX
8
0
10
725.0
20
25240.0
0
SEQEND
0
POLYLINE
8
0
66
1
10
0.0
20
0.0
30
0.0
0
VERTEX
8
0
10
745.0
20
25240.0
0
VERTEX
8
0
10
747.6794919243113
20
25250.0
0
VERTEX
8
0
10
755.0
20
25257.32050807569
0
VERTEX
8
0
10
765.0
20
25260.0
0
VERTEX
8
0
10
765.0
20
25240.0
0
VERTEX
8
0
10
765.0
20
25240.0
0
VERTEX
8
0
10
765.0
20
25240.0
0
VERTEX
8
0
10
765.0
20
25240.0
0
VERTEX
8
0
10
745.0
20
25240.0
0
SEQEND
0
POLYLINE
8
0
66
1
10
0.0
20
0.0
30
0.0
0
VERTEX
8
0
10
765.0
20
21580.0
0
VERTEX
8
0
10
765.0
20
21620.0
0
VERTEX
8
0
10
725.0
20
21620.0
0
VERTEX
8
0
10
725.0
20
21580.0
0
VERTEX
8
0
10
765.0
20
21580.0
0
SEQEND
0
POLYLINE
8
0
66
1
10
0.0
20
0.0
30
0.0
0
VERTEX
8
0
10
725.0
20
21620.0
0
VERTEX
8
0
10
730.3589838486224
20
21600.0
0
VERTEX
8
0
10
745.0
20
21585.358983848622
0
VERTEX
8
0
10
765.0
20
21580.0
0
VERTEX
8
0
10
765.0
20
21600.0
0
VERTEX
8
0
10
755.0
20
21602.67949192431
0
VERTEX
8
0
10
747.6794919243113
20
21610.0
0
VERTEX
8
0
10
745.0
20
21620.0
0
VERTEX
8
0
10
725.0
20
21620.0
0
SEQEND
0
POLYLINE
8
0
66
1
10
0.0
20
0.0
30
0.0
0
VERTEX
8
0
10
745.0
20
21620.0
0
VERTEX
8
0
10
747.6794919243113
20
21610.0
0
VERTEX
8
0
10
755.0
20
21602.67949192431
0
VERTEX
8
0
10
765.0
20
21600.0
0
VERTEX
8
0
10
765.0
20
21620.0
0
VERTEX
8
0
10
765.0
20
21620.0
0
VERTEX
8
0
10
765.0
20
21620.0
0
VERTEX
8
0
10
765.0
20
21620.0
0
VERTEX
8
0
10
745.0
20
21620.0
0
SEQEND
0
POLYLINE
8
0
66
1
10
0.0
20
0.0
30
0.0
0
VERTEX
8
0
10
875.0
20
21580.0
0
VERTEX
8
0
10
875.0
20
21620.0
0
VERTEX
8
0
10
835.0
20
21620.0
0
VERTEX
8
0
10
835.0
20
21580.0
0
VERTEX
8
0
10
875.0
20
21580.0
0
SEQEND
0
POLYLINE
8
0
66
1
10
0.0
20
0.0
30
0.0
0
VERTEX
8
0
10
875.0
20
21620.0
0
VERTEX
8
0
10
869.6410161513776
20
21600.0
0
VERTEX
8
0
10
855.0
20
21585.358983848622
0
VERTEX
8
0
10
835.0
20
21580.0
0
VERTEX
8
0
10
835.0
20
21600.0
0
VERTEX
8
0
10
845.0
20
21602.67949192431
0
VERTEX
8
0
10
852.3205080756887
20
21610.0
0
VERTEX
8
0
10
855.0
20
21620.0
0
VERTEX
8
0
10
875.0
20
21620.0
0
SEQEND
0
POLYLINE
8
0
66
1
10
0.0
20
0.0
30
0.0
0
VERTEX
8
0
10
855.0
20
21620.0
0
VERTEX
8
0
10
852.3205080756887
20
21610.0
0
VERTEX
8
0
10
845.0
20
21602.67949192431
0
VERTEX
8
0
10
835.0
20
21600.0
0
VERTEX
8
0
10
835.0
20
21620.0
0
VERTEX
8
0
10
835.0
20
21620.0
0
VERTEX
8
0
10
835.0
20
21620.0
0
VERTEX
8
0
10
835.0
20
21620.0
0
VERTEX
8
0
10
855.0
20
21620.0
0
SEQEND
0
POLYLINE
8
0
66
1
10
0.0
20
0.0
30
0.0
0
VERTEX
8
0
10
775.0
20
21580.0
0
VERTEX
8
0
10
775.0
20
21570.0
0
VERTEX
8
0
10
785.0
20
21570.0
0
VERTEX
8
0
10
785.0
20
21580.0
0
VERTEX
8
0
10
775.0
20
21580.0
0
SEQEND
0
POLYLINE
8
0
66
1
10
0.0
20
0.0
30
0.0
0
VERTEX
8
0
10
785.0
20
21570.0
0
VERTEX
8
0
10
783.6602540378444
20
21575.0
0
VERTEX
8
0
10
780.0
20
21578.660254037844
0
VERTEX
8
0
10
775.0
20
21580.0
0
VERTEX
8
0
10
775.0
20
21575.0
0
VERTEX
8
0
10
777.5
20
21574.330127018922
0
VERTEX
8
0
10
779.3301270189222
20
21572.5
0
VERTEX
8
0
10
780.0
20
21570.0
0
VERTEX
8
0
10
785.0
20
21570.0
0
SEQEND
0
POLYLINE
8
0
66
1
10
0.0
20
0.0
30
0.0
0
VERTEX
8
0
10
780.0
20
21570.0
0
VERTEX
8
0
10
779.3301270189222
20
21572.5
0
VERTEX
8
0
10
777.5
20
21574.330127018922
0
VERTEX
8
0
10
775.0
20
21575.0
0
VERTEX
8
0
10
775.0
20
21570.0
0
VERTEX
8
0
10
775.0
20
21570.0
0
VERTEX
8
0
10
775.0
20
21570.0
0
VERTEX
8
0
10
775.0
20
21570.0
0
VERTEX
8
0
10
780.0
20
21570.0
0
SEQEND
0
POLYLINE
8
0
66
1
10
0.0
20
0.0
30
0.0
0
VERTEX
8
0
10
815.0
20
21580.0
0
VERTEX
8
0
10
815.0
20
21570.0
0
VERTEX
8
0
10
825.0
20
21570.0
0
VERTEX
8
0
10
825.0
20
21580.0
0
VERTEX
8
0
10
815.0
20
21580.0
0
SEQEND
0
POLYLINE
8
0
66
1
10
0.0
20
0.0
30
0.0
0
VERTEX
8
0
10
815.0
20
21570.0
0
VERTEX
8
0
10
816.3397459621556
20
21575.0
0
VERTEX
8
0
10
820.0
20
21578.660254037844
0
VERTEX
8
0
10
825.0
20
21580.0
0
VERTEX
8
0
10
825.0
20
21575.0
0
VERTEX
8
0
10
822.5
20
21574.330127018922
0
VERTEX
8
0
10
820.6698729810778
20
21572.5
0
VERTEX
8
0
10
820.0
20
21570.0
0
VERTEX
8
0
10
815.0
20
21570.0
0
SEQEND
0
POLYLINE
8
0
66
1
10
0.0
20
0.0
30
0.0
0
VERTEX
8
0
10
820.0
20
21570.0
0
VERTEX
8
0
10
820.6698729810778
20
21572.5
0
VERTEX
8
0
10
822.5
20
21574.330127018922
0
VERTEX
8
0
10
825.0
20
21575.0
0
VERTEX
8
0
10
825.0
20
21570.0
0
VERTEX
8
0
10
825.0
20
21570.0
0
VERTEX
8
0
10
825.0
20
21570.0
0
VERTEX
8
0
10
825.0
20
21570.0
0
VERTEX
8
0
10
820.0
20
21570.0
0
SEQEND
0
POLYLINE
8
0
66
1
10
0.0
20
0.0
30
0.0
0
VERTEX
8
0
10
874.9999999999977
20
17730.0
0
VERTEX
8
0
10
874.9999999999977
20
17770.0
0
VERTEX
8
0
10
834.9999999999977
20
17770.0
0
VERTEX
8
0
10
834.9999999999977
20
17730.0
0
VERTEX
8
0
10
874.9999999999977
20
17730.0
0
SEQEND
0
POLYLINE
8
0
66
1
10
0.0
20
0.0
30
0.0
0
VERTEX
8
0
10
874.9999999999977
20
17770.0
0
VERTEX
8
0
10
869.6410161513753
20
17750.0
0
VERTEX
8
0
10
854.9999999999977
20
17735.358983848622
0
VERTEX
8
0
10
834.9999999999977
20
17730.0
0
VERTEX
8
0
10
834.9999999999977
20
17750.0
0
VERTEX
8
0
10
844.9999999999977
20
17752.67949192431
0
VERTEX
8
0
10
852.3205080756865
20
17760.0
0
VERTEX
8
0
10
854.9999999999977
20
17770.0
0
VERTEX
8
0
10
874.9999999999977
20
17770.0
0
SEQEND
0
POLYLINE
8
0
66
1
10
0.0
20
0.0
30
0.0
0
VERTEX
8
0
10
854.9999999999977
20
17770.0
0
VERTEX
8
0
10
852.3205080756865
20
17760.0
0
VERTEX
8
0
10
844.9999999999977
20
17752.67949192431
0
VERTEX
8
0
10
834.9999999999977
20
17750.0
0
VERTEX
8
0
10
834.9999999999977
20
17770.0
0
VERTEX
8
0
10
834.9999999999977
20
17770.0
0
VERTEX
8
0
10
834.9999999999977
20
17770.0
0
VERTEX
8
0
10
834.9999999999977
20
17770.0
0
VERTEX
8
0
10
854.9999999999977
20
17770.0
0
SEQEND
0
POLYLINE
8
0
66
1
10
0.0
20
0.0
30
0.0
0
VERTEX
8
0
10
764.9999999999977
20
17730.0
0
VERTEX
8
0
10
764.9999999999977
20
17770.0
0
VERTEX
8
0
10
724.9999999999977
20
17770.0
0
VERTEX
8
0
10
724.9999999999977
20
17730.0
0
VERTEX
8
0
10
764.9999999999977
20
17730.0
0
SEQEND
0
POLYLINE
8
0
66
1
10
0.0
20
0.0
30
0.0
0
VERTEX
8
0
10
724.9999999999977
20
17770.0
0
VERTEX
8
0
10
730.3589838486201
20
17750.0
0
VERTEX
8
0
10
744.9999999999977
20
17735.358983848622
0
VERTEX
8
0
10
764.9999999999977
20
17730.0
0
VERTEX
8
0
10
764.9999999999977
20
17750.0
0
VERTEX
8
0
10
754.9999999999977
20
17752.67949192431
0
VERTEX
8
0
10
747.679491924309
20
17760.0
0
VERTEX
8
0
10
744.9999999999977
20
17770.0
0
VERTEX
8
0
10
724.9999999999977
20
17770.0
0
SEQEND
0
POLYLINE
8
0
66
1
10
0.0
20
0.0
30
0.0
0
VERTEX
8
0
10
744.9999999999977
20
17770.0
0
VERTEX
8
0
10
747.679491924309
20
17760.0
0
VERTEX
8
0
10
754.9999999999977
20
17752.67949192431
0
VERTEX
8
0
10
764.9999999999977
20
17750.0
0
VERTEX
8
0
10
764.9999999999977
20
17770.0
0
VERTEX
8
0
10
764.9999999999977
20
17770.0
0
VERTEX
8
0
10
764.9999999999977
20
17770.0
0
VERTEX
8
0
10
764.9999999999977
20
17770.0
0
VERTEX
8
0
10
744.9999999999977
20
17770.0
0
SEQEND
0
POLYLINE
8
0
66
1
10
0.0
20
0.0
30
0.0
0
VERTEX
8
0
10
724.9999999999977
20
20830.0
0
VERTEX
8
0
10
724.9999999999977
20
20790.0
0
VERTEX
8
0
10
764.9999999999977
20
20790.0
0
VERTEX
8
0
10
764.9999999999977
20
20830.0
0
VERTEX
8
0
10
724.9999999999977
20
20830.0
0
SEQEND
0
POLYLINE
8
0
66
1
10
0.0
20
0.0
30
0.0
0
VERTEX
8
0
10
724.9999999999977
20
20790.0
0
VERTEX
8
0
10
730.3589838486201
20
20810.0
0
VERTEX
8
0
10
744.9999999999977
20
20824.641016151378
0
VERTEX
8
0
10
764.9999999999977
20
20830.0
0
VERTEX
8
0
10
764.9999999999977
20
20810.0
0
VERTEX
8
0
10
754.9999999999977
20
20807.32050807569
0
VERTEX
8
0
10
747.679491924309
20
20800.0
0
VERTEX
8
0
10
744.9999999999977
20
20790.0
0
VERTEX
8
0
10
724.9999999999977
20
20790.0
0
SEQEND
0
POLYLINE
8
0
66
1
10
0.0
20
0.0
30
0.0
0
VERTEX
8
0
10
744.9999999999977
20
20790.0
0
VERTEX
8
0
10
747.679491924309
20
20800.0
0
VERTEX
8
0
10
754.9999999999977
20
20807.32050807569
0
VERTEX
8
0
10
764.9999999999977
20
20810.0
0
VERTEX
8
0
10
764.9999999999977
20
20790.0
0
VERTEX
8
0
10
764.9999999999977
20
20790.0
0
VERTEX
8
0
10
764.9999999999977
20
20790.0
0
VERTEX
8
0
10
764.9999999999977
20
20790.0
0
VERTEX
8
0
10
744.9999999999977
20
20790.0
0
SEQEND
0
POLYLINE
8
0
66
1
10
0.0
20
0.0
30
0.0
0
VERTEX
8
0
10
834.9999999999977
20
20830.0
0
VERTEX
8
0
10
834.9999999999977
20
20790.0
0
VERTEX
8
0
10
874.9999999999977
20
20790.0
0
VERTEX
8
0
10
874.9999999999977
20
20830.0
0
VERTEX
8
0
10
834.9999999999977
20
20830.0
0
SEQEND
0
POLYLINE
8
0
66
1
10
0.0
20
0.0
30
0.0
0
VERTEX
8
0
10
874.9999999999977
20
20790.0
0
VERTEX
8
0
10
869.6410161513753
20
20810.0
0
VERTEX
8
0
10
854.9999999999977
20
20824.641016151378
0
VERTEX
8
0
10
834.9999999999977
20
20830.0
0
VERTEX
8
0
10
834.9999999999977
20
20810.0
0
VERTEX
8
0
10
844.9999999999977
20
20807.32050807569
0
VERTEX
8
0
10
852.3205080756865
20
20800.0
0
VERTEX
8
0
10
854.9999999999977
20
20790.0
0
VERTEX
8
0
10
874.9999999999977
20
20790.0
0
SEQEND
0
POLYLINE
8
0
66
1
10
0.0
20
0.0
30
0.0
0
VERTEX
8
0
10
854.9999999999977
20
20790.0
0
VERTEX
8
0
10
852.3205080756865
20
20800.0
0
VERTEX
8
0
10
844.9999999999977
20
20807.32050807569
0
VERTEX
8
0
10
834.9999999999977
20
20810.0
0
VERTEX
8
0
10
834.9999999999977
20
20790.0
0
VERTEX
8
0
10
834.9999999999977
20
20790.0
0
VERTEX
8
0
10
834.9999999999977
20
20790.0
0
VERTEX
8
0
10
834.9999999999977
20
20790.0
0
VERTEX
8
0
10
854.9999999999977
20
20790.0
0
SEQEND
0
POLYLINE
8
0
66
1
10
0.0
20
0.0
30
0.0
0
VERTEX
8
0
10
784.9999999999977
20
20830.0
0
VERTEX
8
0
10
784.9999999999977
20
20840.0
0
VERTEX
8
0
10
774.9999999999977
20
20840.0
0
VERTEX
8
0
10
774.9999999999977
20
20830.0
0
VERTEX
8
0
10
784.9999999999977
20
20830.0
0
SEQEND
0
POLYLINE
8
0
66
1
10
0.0
20
0.0
30
0.0
0
VERTEX
8
0
10
784.9999999999977
20
20840.0
0
VERTEX
8
0
10
783.6602540378422
20
20835.0
0
VERTEX
8
0
10
779.9999999999977
20
20831.339745962156
0
VERTEX
8
0
10
774.9999999999977
20
20830.0
0
VERTEX
8
0
10
774.9999999999977
20
20835.0
0
VERTEX
8
0
10
777.4999999999977
20
20835.669872981078
0
VERTEX
8
0
10
779.3301270189199
20
20837.5
0
VERTEX
8
0
10
779.9999999999977
20
20840.0
0
VERTEX
8
0
10
784.9999999999977
20
20840.0
0
SEQEND
0
POLYLINE
8
0
66
1
10
0.0
20
0.0
30
0.0
0
VERTEX
8
0
10
779.9999999999977
20
20840.0
0
VERTEX
8
0
10
779.3301270189199
20
20837.5
0
VERTEX
8
0
10
777.4999999999977
20
20835.669872981078
0
VERTEX
8
0
10
774.9999999999977
20
20835.0
0
VERTEX
8
0
10
774.9999999999977
20
20840.0
0
VERTEX
8
0
10
774.9999999999977
20
20840.0
0
VERTEX
8
0
10
774.9999999999977
20
20840.0
0
VERTEX
8
0
10
774.9999999999977
20
20840.0
0
VERTEX
8
0
10
779.9999999999977
20
20840.0
0
SEQEND
0
POLYLINE
8
0
66
1
10
0.0
20
0.0
30
0.0
0
VERTEX
8
0
10
824.9999999999977
20
20830.0
0
VERTEX
8
0
10
824.9999999999977
20
20840.0
0
VERTEX
8
0
10
814.9999999999977
20
20840.0
0
VERTEX
8
0
10
814.9999999999977
20
20830.0
0
VERTEX
8
0
10
824.9999999999977
20
20830.0
0
SEQEND
0
POLYLINE
8
0
66
1
10
0.0
20
0.0
30
0.0
0
VERTEX
8
0
10
814.9999999999977
20
20840.0
0
VERTEX
8
0
10
816.3397459621533
20
20835.0
0
VERTEX
8
0
10
819.9999999999977
20
20831.339745962156
0
VERTEX
8
0
10
824.9999999999977
20
20830.0
0
VERTEX
8
0
10
824.9999999999977
20
20835.0
0
VERTEX
8
0
10
822.4999999999977
20
20835.669872981078
0
VERTEX
8
0
10
820.6698729810755
20
20837.5
0
VERTEX
8
0
10
819.9999999999977
20
20840.0
0
VERTEX
8
0
10
814.9999999999977
20
20840.0
0
SEQEND
0
POLYLINE
8
0
66
1
10
0.0
20
0.0
30
0.0
0
VERTEX
8
0
10
819.9999999999977
20
20840.0
0
VERTEX
8
0
10
820.6698729810755
20
20837.5
0
VERTEX
8
0
10
822.4999999999977
20
20835.669872981078
0
VERTEX
8
0
10
824.9999999999977
20
20835.0
0
VERTEX
8
0
10
824.9999999999977
20
20840.0
0
VERTEX
8
0
10
824.9999999999977
20
20840.0
0
VERTEX
8
0
10
824.9999999999977
20
20840.0
0
VERTEX
8
0
10
824.9999999999977
20
20840.0
0
VERTEX
8
0
10
819.9999999999977
20
20840.0
0
SEQEND
0
POLYLINE
8
0
66
1
10
0.0
20
0.0
30
0.0
0
VERTEX
8
0
10
400.0
20
3200.0
0
VERTEX
8
0
10
399.9999999999999
20
2400.0
0
VERTEX
8
0
10
1200.0
20
2400.0
0
VERTEX
8
0
10
1200.0
20
3200.0
0
VERTEX
8
0
10
400.0
20
3200.0
0
SEQEND
0
POLYLINE
8
0
66
1
10
0.0
20
0.0
30
0.0
0
VERTEX
8
0
10
784.9999999999999
20
2400.0
0
VERTEX
8
0
10
784.9999999999999
20
2300.0
0
VERTEX
8
0
10
814.9999999999999
20
2300.0
0
VERTEX
8
0
10
814.9999999999999
20
2400.0
0
VERTEX
8
0
10
784.9999999999999
20
2400.0
0
SEQEND
0
POLYLINE
8
0
66
1
10
0.0
20
0.0
30
0.0
0
VERTEX
8
0
10
802.4999999999999
20
2300.0
0
VERTEX
8
0
10
802.4999999999999
20
2305.0
0
VERTEX
8
0
10
797.4999999999999
20
2305.0
0
VERTEX
8
0
10
797.4999999999999
20
2300.0
0
VERTEX
8
0
10
802.4999999999999
20
2300.0
0
SEQEND
0
POLYLINE
8
0
66
1
10
0.0
20
0.0
30
0.0
0
VERTEX
8
0
10
807.4999999999999
20
2305.0
0
VERTEX
8
0
10
807.4999999999999
20
2310.0
0
VERTEX
8
0
10
792.4999999999999
20
2310.0
0
VERTEX
8
0
10
792.4999999999999
20
2305.0
0
VERTEX
8
0
10
807.4999999999999
20
2305.0
0
SEQEND
0
POLYLINE
8
0
66
1
10
0.0
20
0.0
30
0.0
0
VERTEX
8
0
10
797.4999999999999
20
2270.0
0
VERTEX
8
0
10
797.4999999999999
20
2265.0
0
VERTEX
8
0
10
802.4999999999999
20
2265.0
0
VERTEX
8
0
10
802.4999999999999
20
2270.0
0
VERTEX
8
0
10
797.4999999999999
20
2270.0
0
SEQEND
0
POLYLINE
8
0
66
1
10
0.0
20
0.0
30
0.0
0
VERTEX
8
0
10
792.4999999999999
20
2265.0
0
VERTEX
8
0
10
792.4999999999999
20
2260.0
0
VERTEX
8
0
10
807.4999999999999
20
2260.0
0
VERTEX
8
0
10
807.4999999999999
20
2265.0
0
VERTEX
8
0
10
792.4999999999999
20
2265.0
0
SEQEND
0
POLYLINE
8
0
66
1
10
0.0
20
0.0
30
0.0
0
VERTEX
8
0
10
784.9999999999999
20
2270.0
0
VERTEX
8
0
10
784.9999999999999
20
2170.0
0
VERTEX
8
0
10
814.9999999999999
20
2170.0
0
VERTEX
8
0
10
814.9999999999999
20
2270.0
0
VERTEX
8
0
10
784.9999999999999
20
2270.0
0
SEQEND
0
POLYLINE
8
0
66
1
10
0.0
20
0.0
30
0.0
0
VERTEX
8
0
10
399.9999999999999
20
2170.0
0
VERTEX
8
0
10
399.99999999999955
20
1370.0000000000002
0
VERTEX
8
0
10
1199.9999999999995
20
1369.9999999999998
0
VERTEX
8
0
10
1200.0
20
2170.0
0
VERTEX
8
0
10
399.9999999999999
20
2170.0
0
SEQEND
0
POLYLINE
8
0
66
1
10
0.0
20
0.0
30
0.0
0
VERTEX
8
0
10
1160.0
20
3200.0
0
VERTEX
8
0
10
1160.0
20
3160.0
0
VERTEX
8
0
10
1200.0
20
3160.0
0
VERTEX
8
0
10
1200.0
20
3200.0
0
VERTEX
8
0
10
1160.0
20
3200.0
0
SEQEND
0
POLYLINE
8
0
66
1
10
0.0
20
0.0
30
0.0
0
VERTEX
8
0
10
1200.0
20
3160.0
0
VERTEX
8
0
10
1194.6410161513775
20
3180.0
0
VERTEX
8
0
10
1180.0
20
3194.6410161513777
0
VERTEX
8
0
10
1160.0
20
3200.0
0
VERTEX
8
0
10
1160.0
20
3180.0
0
VERTEX
8
0
10
1170.0
20
3177.320508075689
0
VERTEX
8
0
10
1177.3205080756888
20
3170.0
0
VERTEX
8
0
10
1180.0
20
3160.0
0
VERTEX
8
0
10
1200.0
20
3160.0
0
SEQEND
0
POLYLINE
8
0
66
1
10
0.0
20
0.0
30
0.0
0
VERTEX
8
0
10
1180.0
20
3160.0
0
VERTEX
8
0
10
1177.3205080756888
20
3170.0
0
VERTEX
8
0
10
1170.0
20
3177.320508075689
0
VERTEX
8
0
10
1160.0
20
3180.0
0
VERTEX
8
0
10
1160.0
20
3160.0
0
VERTEX
8
0
10
1160.0
20
3160.0
0
VERTEX
8
0
10
1160.0
20
3160.0
0
VERTEX
8
0
10
1160.0
20
3160.0
0
VERTEX
8
0
10
1180.0
20
3160.0
0
SEQEND
0
POLYLINE
8
0
66
1
10
0.0
20
0.0
30
0.0
0
VERTEX
8
0
10
400.0
20
3200.0
0
VERTEX
8
0
10
400.0
20
3160.0
0
VERTEX
8
0
10
440.0
20
3160.0
0
VERTEX
8
0
10
440.0
20
3200.0
0
VERTEX
8
0
10
400.0
20
3200.0
0
SEQEND
0
POLYLINE
8
0
66
1
10
0.0
20
0.0
30
0.0
0
VERTEX
8
0
10
400.0
20
3160.0
0
VERTEX
8
0
10
405.3589838486225
20
3180.0
0
VERTEX
8
0
10
420.0
20
3194.6410161513777
0
VERTEX
8
0
10
440.0
20
3200.0
0
VERTEX
8
0
10
440.0
20
3180.0
0
VERTEX
8
0
10
430.0
20
3177.320508075689
0
VERTEX
8
0
10
422.6794919243112
20
3170.0
0
VERTEX
8
0
10
420.0
20
3160.0
0
VERTEX
8
0
10
400.0
20
3160.0
0
SEQEND
0
POLYLINE
8
0
66
1
10
0.0
20
0.0
30
0.0
0
VERTEX
8
0
10
420.0
20
3160.0
0
VERTEX
8
0
10
422.6794919243112
20
3170.0
0
VERTEX
8
0
10
430.0
20
3177.320508075689
0
VERTEX
8
0
10
440.0
20
3180.0
0
VERTEX
8
0
10
440.0
20
3160.0
0
VERTEX
8
0
10
440.0
20
3160.0
0
VERTEX
8
0
10
440.0
20
3160.0
0
VERTEX
8
0
10
440.0
20
3160.0
0
VERTEX
8
0
10
420.0
20
3160.0
0
SEQEND
0
POLYLINE
8
0
66
1
10
0.0
20
0.0
30
0.0
0
VERTEX
8
0
10
440.0
20
2400.0
0
VERTEX
8
0
10
440.0
20
2440.0
0
VERTEX
8
0
10
400.0
20
2440.0
0
VERTEX
8
0
10
400.0
20
2400.0
0
VERTEX
8
0
10
440.0
20
2400.0
0
SEQEND
0
POLYLINE
8
0
66
1
10
0.0
20
0.0
30
0.0
0
VERTEX
8
0
10
400.0
20
2440.0
0
VERTEX
8
0
10
405.3589838486225
20
2420.0
0
VERTEX
8
0
10
420.0
20
2405.3589838486223
0
VERTEX
8
0
10
440.0
20
2400.0
0
VERTEX
8
0
10
440.0
20
2420.0
0
VERTEX
8
0
10
430.0
20
2422.679491924311
0
VERTEX
8
0
10
422.6794919243112
20
2430.0
0
VERTEX
8
0
10
420.0
20
2440.0
0
VERTEX
8
0
10
400.0
20
2440.0
0
SEQEND
0
POLYLINE
8
0
66
1
10
0.0
20
0.0
30
0.0
0
VERTEX
8
0
10
420.0
20
2440.0
0
VERTEX
8
0
10
422.6794919243112
20
2430.0
0
VERTEX
8
0
10
430.0
20
2422.679491924311
0
VERTEX
8
0
10
440.0
20
2420.0
0
VERTEX
8
0
10
440.0
20
2440.0
0
VERTEX
8
0
10
440.0
20
2440.0
0
VERTEX
8
0
10
440.0
20
2440.0
0
VERTEX
8
0
10
440.0
20
2440.0
0
VERTEX
8
0
10
420.0
20
2440.0
0
SEQEND
0
POLYLINE
8
0
66
1
10
0.0
20
0.0
30
0.0
0
VERTEX
8
0
10
1200.0
20
2400.0
0
VERTEX
8
0
10
1200.0
20
2440.0
0
VERTEX
8
0
10
1160.0
20
2440.0
0
VERTEX
8
0
10
1160.0
20
2400.0
0
VERTEX
8
0
10
1200.0
20
2400.0
0
SEQEND
0
POLYLINE
8
0
66
1
10
0.0
20
0.0
30
0.0
0
VERTEX
8
0
10
1200.0
20
2440.0
0
VERTEX
8
0
10
1194.6410161513775
20
2420.0
0
VERTEX
8
0
10
1180.0
20
2405.3589838486223
0
VERTEX
8
0
10
1160.0
20
2400.0
0
VERTEX
8
0
10
1160.0
20
2420.0
0
VERTEX
8
0
10
1170.0
20
2422.679491924311
0
VERTEX
8
0
10
1177.3205080756888
20
2430.0
0
VERTEX
8
0
10
1180.0
20
2440.0
0
VERTEX
8
0
10
1200.0
20
2440.0
0
SEQEND
0
POLYLINE
8
0
66
1
10
0.0
20
0.0
30
0.0
0
VERTEX
8
0
10
1180.0
20
2440.0
0
VERTEX
8
0
10
1177.3205080756888
20
2430.0
0
VERTEX
8
0
10
1170.0
20
2422.679491924311
0
VERTEX
8
0
10
1160.0
20
2420.0
0
VERTEX
8
0
10
1160.0
20
2440.0
0
VERTEX
8
0
10
1160.0
20
2440.0
0
VERTEX
8
0
10
1160.0
20
2440.0
0
VERTEX
8
0
10
1160.0
20
2440.0
0
VERTEX
8
0
10
1180.0
20
2440.0
0
SEQEND
0
POLYLINE
8
0
66
1
10
0.0
20
0.0
30
0.0
0
VERTEX
8
0
10
775.0
20
2400.0
0
VERTEX
8
0
10
775.0
20
2390.0
0
VERTEX
8
0
10
785.0
20
2390.0
0
VERTEX
8
0
10
785.0
20
2400.0
0
VERTEX
8
0
10
775.0
20
2400.0
0
SEQEND
0
POLYLINE
8
0
66
1
10
0.0
20
0.0
30
0.0
0
VERTEX
8
0
10
785.0
20
2390.0
0
VERTEX
8
0
10
783.6602540378444
20
2395.0
0
VERTEX
8
0
10
780.0
20
2398.6602540378444
0
VERTEX
8
0
10
775.0
20
2400.0
0
VERTEX
8
0
10
775.0
20
2395.0
0
VERTEX
8
0
10
777.5
20
2394.330127018922
0
VERTEX
8
0
10
779.3301270189222
20
2392.5
0
VERTEX
8
0
10
780.0
20
2390.0
0
VERTEX
8
0
10
785.0
20
2390.0
0
SEQEND
0
POLYLINE
8
0
66
1
10
0.0
20
0.0
30
0.0
0
VERTEX
8
0
10
780.0
20
2390.0
0
VERTEX
8
0
10
779.3301270189222
20
2392.5
0
VERTEX
8
0
10
777.5
20
2394.330127018922
0
VERTEX
8
0
10
775.0
20
2395.0
0
VERTEX
8
0
10
775.0
20
2390.0
0
VERTEX
8
0
10
775.0
20
2390.0
0
VERTEX
8
0
10
775.0
20
2390.0
0
VERTEX
8
0
10
775.0
20
2390.0
0
VERTEX
8
0
10
780.0
20
2390.0
0
SEQEND
0
POLYLINE
8
0
66
1
10
0.0
20
0.0
30
0.0
0
VERTEX
8
0
10
815.0
20
2400.0
0
VERTEX
8
0
10
815.0
20
2390.0
0
VERTEX
8
0
10
825.0
20
2390.0
0
VERTEX
8
0
10
825.0
20
2400.0
0
VERTEX
8
0
10
815.0
20
2400.0
0
SEQEND
0
POLYLINE
8
0
66
1
10
0.0
20
0.0
30
0.0
0
VERTEX
8
0
10
815.0
20
2390.0
0
VERTEX
8
0
10
816.3397459621556
20
2395.0
0
VERTEX
8
0
10
820.0
20
2398.6602540378444
0
VERTEX
8
0
10
825.0
20
2400.0
0
VERTEX
8
0
10
825.0
20
2395.0
0
VERTEX
8
0
10
822.5
20
2394.330127018922
0
VERTEX
8
0
10
820.6698729810778
20
2392.5
0
VERTEX
8
0
10
820.0
20
2390.0
0
VERTEX
8
0
10
815.0
20
2390.0
0
SEQEND
0
POLYLINE
8
0
66
1
10
0.0
20
0.0
30
0.0
0
VERTEX
8
0
10
820.0
20
2390.0
0
VERTEX
8
0
10
820.6698729810778
20
2392.5
0
VERTEX
8
0
10
822.5
20
2394.330127018922
0
VERTEX
8
0
10
825.0
20
2395.0
0
VERTEX
8
0
10
825.0
20
2390.0
0
VERTEX
8
0
10
825.0
20
2390.0
0
VERTEX
8
0
10
825.0
20
2390.0
0
VERTEX
8
0
10
825.0
20
2390.0
0
VERTEX
8
0
10
820.0
20
2390.0
0
SEQEND
0
POLYLINE
8
0
66
1
10
0.0
20
0.0
30
0.0
0
VERTEX
8
0
10
1199.9999999999995
20
1370.0
0
VERTEX
8
0
10
1199.9999999999995
20
1410.0
0
VERTEX
8
0
10
1159.9999999999995
20
1410.0
0
VERTEX
8
0
10
1159.9999999999995
20
1370.0
0
VERTEX
8
0
10
1199.9999999999995
20
1370.0
0
SEQEND
0
POLYLINE
8
0
66
1
10
0.0
20
0.0
30
0.0
0
VERTEX
8
0
10
1199.9999999999995
20
1410.0
0
VERTEX
8
0
10
1194.641016151377
20
1390.0
0
VERTEX
8
0
10
1179.9999999999995
20
1375.3589838486225
0
VERTEX
8
0
10
1159.9999999999995
20
1370.0
0
VERTEX
8
0
10
1159.9999999999995
20
1390.0
0
VERTEX
8
0
10
1169.9999999999995
20
1392.6794919243112
0
VERTEX
8
0
10
1177.3205080756884
20
1400.0
0
VERTEX
8
0
10
1179.9999999999995
20
1410.0
0
VERTEX
8
0
10
1199.9999999999995
20
1410.0
0
SEQEND
0
POLYLINE
8
0
66
1
10
0.0
20
0.0
30
0.0
0
VERTEX
8
0
10
1179.9999999999995
20
1410.0
0
VERTEX
8
0
10
1177.3205080756884
20
1400.0
0
VERTEX
8
0
10
1169.9999999999995
20
1392.6794919243112
0
VERTEX
8
0
10
1159.9999999999995
20
1390.0
0
VERTEX
8
0
10
1159.9999999999995
20
1410.0
0
VERTEX
8
0
10
1159.9999999999995
20
1410.0
0
VERTEX
8
0
10
1159.9999999999995
20
1410.0
0
VERTEX
8
0
10
1159.9999999999995
20
1410.0
0
VERTEX
8
0
10
1179.9999999999995
20
1410.0
0
SEQEND
0
POLYLINE
8
0
66
1
10
0.0
20
0.0
30
0.0
0
VERTEX
8
0
10
439.99999999999955
20
1370.0
0
VERTEX
8
0
10
439.99999999999955
20
1410.0
0
VERTEX
8
0
10
399.99999999999955
20
1410.0
0
VERTEX
8
0
10
399.99999999999955
20
1370.0
0
VERTEX
8
0
10
439.99999999999955
20
1370.0
0
SEQEND
0
POLYLINE
8
0
66
1
10
0.0
20
0.0
30
0.0
0
VERTEX
8
0
10
399.99999999999955
20
1410.0
0
VERTEX
8
0
10
405.358983848622
20
1390.0
0
VERTEX
8
0
10
419.99999999999955
20
1375.3589838486225
0
VERTEX
8
0
10
439.99999999999955
20
1370.0
0
VERTEX
8
0
10
439.99999999999955
20
1390.0
0
VERTEX
8
0
10
429.99999999999955
20
1392.6794919243112
0
VERTEX
8
0
10
422.67949192431075
20
1400.0
0
VERTEX
8
0
10
419.99999999999955
20
1410.0
0
VERTEX
8
0
10
399.99999999999955
20
1410.0
0
SEQEND
0
POLYLINE
8
0
66
1
10
0.0
20
0.0
30
0.0
0
VERTEX
8
0
10
419.99999999999955
20
1410.0
0
VERTEX
8
0
10
422.67949192431075
20
1400.0
0
VERTEX
8
0
10
429.99999999999955
20
1392.6794919243112
0
VERTEX
8
0
10
439.99999999999955
20
1390.0
0
VERTEX
8
0
10
439.99999999999955
20
1410.0
0
VERTEX
8
0
10
439.99999999999955
20
1410.0
0
VERTEX
8
0
10
439.99999999999955
20
1410.0
0
VERTEX
8
0
10
439.99999999999955
20
1410.0
0
VERTEX
8
0
10
419.99999999999955
20
1410.0
0
SEQEND
0
POLYLINE
8
0
66
1
10
0.0
20
0.0
30
0.0
0
VERTEX
8
0
10
399.99999999999955
20
2170.0
0
VERTEX
8
0
10
399.99999999999955
20
2130.0
0
VERTEX
8
0
10
439.99999999999955
20
2130.0
0
VERTEX
8
0
10
439.99999999999955
20
2170.0
0
VERTEX
8
0
10
399.99999999999955
20
2170.0
0
SEQEND
0
POLYLINE
8
0
66
1
10
0.0
20
0.0
30
0.0
0
VERTEX
8
0
10
399.99999999999955
20
2130.0
0
VERTEX
8
0
10
405.358983848622
20
2150.0
0
VERTEX
8
0
10
419.99999999999955
20
2164.6410161513777
0
VERTEX
8
0
10
439.99999999999955
20
2170.0
0
VERTEX
8
0
10
439.99999999999955
20
2150.0
0
VERTEX
8
0
10
429.99999999999955
20
2147.320508075689
0
VERTEX
8
0
10
422.67949192431075
20
2140.0
0
VERTEX
8
0
10
419.99999999999955
20
2130.0
0
VERTEX
8
0
10
399.99999999999955
20
2130.0
0
SEQEND
0
POLYLINE
8
0
66
1
10
0.0
20
0.0
30
0.0
0
VERTEX
8
0
10
419.99999999999955
20
2130.0
0
VERTEX
8
0
10
422.67949192431075
20
2140.0
0
VERTEX
8
0
10
429.99999999999955
20
2147.320508075689
0
VERTEX
8
0
10
439.99999999999955
20
2150.0
0
VERTEX
8
0
10
439.99999999999955
20
2130.0
0
VERTEX
8
0
10
439.99999999999955
20
2130.0
0
VERTEX
8
0
10
439.99999999999955
20
2130.0
0
VERTEX
8
0
10
439.99999999999955
20
2130.0
0
VERTEX
8
0
10
419.99999999999955
20
2130.0
0
SEQEND
0
POLYLINE
8
0
66
1
10
0.0
20
0.0
30
0.0
0
VERTEX
8
0
10
1159.9999999999995
20
2170.0
0
VERTEX
8
0
10
1159.9999999999995
20
2130.0
0
VERTEX
8
0
10
1199.9999999999995
20
2130.0
0
VERTEX
8
0
10
1199.9999999999995
20
2170.0
0
VERTEX
8
0
10
1159.9999999999995
20
2170.0
0
SEQEND
0
POLYLINE
8
0
66
1
10
0.0
20
0.0
30
0.0
0
VERTEX
8
0
10
1199.9999999999995
20
2130.0
0
VERTEX
8
0
10
1194.641016151377
20
2150.0
0
VERTEX
8
0
10
1179.9999999999995
20
2164.6410161513777
0
VERTEX
8
0
10
1159.9999999999995
20
2170.0
0
VERTEX
8
0
10
1159.9999999999995
20
2150.0
0
VERTEX
8
0
10
1169.9999999999995
20
2147.320508075689
0
VERTEX
8
0
10
1177.3205080756884
20
2140.0
0
VERTEX
8
0
10
1179.9999999999995
20
2130.0
0
VERTEX
8
0
10
1199.9999999999995
20
2130.0
0
SEQEND
0
POLYLINE
8
0
66
1
10
0.0
20
0.0
30
0.0
0
VERTEX
8
0
10
1179.9999999999995
20
2130.0
0
VERTEX
8
0
10
1177.3205080756884
20
2140.0
0
VERTEX
8
0
10
1169.9999999999995
20
2147.320508075689
0
VERTEX
8
0
10
1159.9999999999995
20
2150.0
0
VERTEX
8
0
10
1159.9999999999995
20
2130.0
0
VERTEX
8
0
10
1159.9999999999995
20
2130.0
0
VERTEX
8
0
10
1159.9999999999995
20
2130.0
0
VERTEX
8
0
10
1159.9999999999995
20
2130.0
0
VERTEX
8
0
10
1179.9999999999995
20
2130.0
0
SEQEND
0
POLYLINE
8
0
66
1
10
0.0
20
0.0
30
0.0
0
VERTEX
8
0
10
784.9999999999995
20
2170.0
0
VERTEX
8
0
10
784.9999999999995
20
2180.0
0
VERTEX
8
0
10
774.9999999999995
20
2180.0
0
VERTEX
8
0
10
774.9999999999995
20
2170.0
0
VERTEX
8
0
10
784.9999999999995
20
2170.0
0
SEQEND
0
POLYLINE
8
0
66
1
10
0.0
20
0.0
30
0.0
0
VERTEX
8
0
10
784.9999999999995
20
2180.0
0
VERTEX
8
0
10
783.660254037844
20
2175.0
0
VERTEX
8
0
10
779.9999999999995
20
2171.3397459621556
0
VERTEX
8
0
10
774.9999999999995
20
2170.0
0
VERTEX
8
0
10
774.9999999999995
20
2175.0
0
VERTEX
8
0
10
777.4999999999995
20
2175.669872981078
0
VERTEX
8
0
10
779.3301270189218
20
2177.5
0
VERTEX
8
0
10
779.9999999999995
20
2180.0
0
VERTEX
8
0
10
784.9999999999995
20
2180.0
0
SEQEND
0
POLYLINE
8
0
66
1
10
0.0
20
0.0
30
0.0
0
VERTEX
8
0
10
779.9999999999995
20
2180.0
0
VERTEX
8
0
10
779.3301270189218
20
2177.5
0
VERTEX
8
0
10
777.4999999999995
20
2175.669872981078
0
VERTEX
8
0
10
774.9999999999995
20
2175.0
0
VERTEX
8
0
10
774.9999999999995
20
2180.0
0
VERTEX
8
0
10
774.9999999999995
20
2180.0
0
VERTEX
8
0
10
774.9999999999995
20
2180.0
0
VERTEX
8
0
10
774.9999999999995
20
2180.0
0
VERTEX
8
0
10
779.9999999999995
20
2180.0
0
SEQEND
0
POLYLINE
8
0
66
1
10
0.0
20
0.0
30
0.0
0
VERTEX
8
0
10
824.9999999999995
20
2170.0
0
VERTEX
8
0
10
824.9999999999995
20
2180.0
0
VERTEX
8
0
10
814.9999999999995
20
2180.0
0
VERTEX
8
0
10
814.9999999999995
20
2170.0
0
VERTEX
8
0
10
824.9999999999995
20
2170.0
0
SEQEND
0
POLYLINE
8
0
66
1
10
0.0
20
0.0
30
0.0
0
VERTEX
8
0
10
814.9999999999995
20
2180.0
0
VERTEX
8
0
10
816.3397459621551
20
2175.0
0
VERTEX
8
0
10
819.9999999999995
20
2171.3397459621556
0
VERTEX
8
0
10
824.9999999999995
20
2170.0
0
VERTEX
8
0
10
824.9999999999995
20
2175.0
0
VERTEX
8
0
10
822.4999999999995
20
2175.669872981078
0
VERTEX
8
0
10
820.6698729810773
20
2177.5
0
VERTEX
8
0
10
819.9999999999995
20
2180.0
0
VERTEX
8
0
10
814.9999999999995
20
2180.0
0
SEQEND
0
POLYLINE
8
0
66
1
10
0.0
20
0.0
30
0.0
0
VERTEX
8
0
10
819.9999999999995
20
2180.0
0
VERTEX
8
0
10
820.6698729810773
20
2177.5
0
VERTEX
8
0
10
822.4999999999995
20
2175.669872981078
0
VERTEX
8
0
10
824.9999999999995
20
2175.0
0
VERTEX
8
0
10
824.9999999999995
20
2180.0
0
VERTEX
8
0
10
824.9999999999995
20
2180.0
0
VERTEX
8
0
10
824.9999999999995
20
2180.0
0
VERTEX
8
0
10
824.9999999999995
20
2180.0
0
VERTEX
8
0
10
819.9999999999995
20
2180.0
0
SEQEND
0
POLYLINE
8
0
66
1
10
0.0
20
0.0
30
0.0
0
VERTEX
8
0
10
400.0
20
5700.0
0
VERTEX
8
0
10
399.9999999999999
20
4900.0
0
VERTEX
8
0
10
1200.0
20
4900.0
0
VERTEX
8
0
10
1200.0
20
5700.0
0
VERTEX
8
0
10
400.0
20
5700.0
0
SEQEND
0
POLYLINE
8
0
66
1
10
0.0
20
0.0
30
0.0
0
VERTEX
8
0
10
784.9999999999999
20
4900.0
0
VERTEX
8
0
10
784.9999999999999
20
4800.0
0
VERTEX
8
0
10
814.9999999999999
20
4800.0
0
VERTEX
8
0
10
814.9999999999999
20
4900.0
0
VERTEX
8
0
10
784.9999999999999
20
4900.0
0
SEQEND
0
POLYLINE
8
0
66
1
10
0.0
20
0.0
30
0.0
0
VERTEX
8
0
10
802.4999999999999
20
4800.0
0
VERTEX
8
0
10
802.4999999999999
20
4805.0
0
VERTEX
8
0
10
797.4999999999999
20
4805.0
0
VERTEX
8
0
10
797.4999999999999
20
4800.0
0
VERTEX
8
0
10
802.4999999999999
20
4800.0
0
SEQEND
0
POLYLINE
8
0
66
1
10
0.0
20
0.0
30
0.0
0
VERTEX
8
0
10
807.4999999999999
20
4805.0
0
VERTEX
8
0
10
807.4999999999999
20
4810.0
0
VERTEX
8
0
10
792.4999999999999
20
4810.0
0
VERTEX
8
0
10
792.4999999999999
20
4805.0
0
VERTEX
8
0
10
807.4999999999999
20
4805.0
0
SEQEND
0
POLYLINE
8
0
66
1
10
0.0
20
0.0
30
0.0
0
VERTEX
8
0
10
797.4999999999999
20
4770.0
0
VERTEX
8
0
10
797.4999999999999
20
4765.0
0
VERTEX
8
0
10
802.4999999999999
20
4765.0
0
VERTEX
8
0
10
802.4999999999999
20
4770.0
0
VERTEX
8
0
10
797.4999999999999
20
4770.0
0
SEQEND
0
POLYLINE
8
0
66
1
10
0.0
20
0.0
30
0.0
0
VERTEX
8
0
10
792.4999999999999
20
4765.0
0
VERTEX
8
0
10
792.4999999999999
20
4760.0
0
VERTEX
8
0
10
807.4999999999999
20
4760.0
0
VERTEX
8
0
10
807.4999999999999
20
4765.0
0
VERTEX
8
0
10
792.4999999999999
20
4765.0
0
SEQEND
0
POLYLINE
8
0
66
1
10
0.0
20
0.0
30
0.0
0
VERTEX
8
0
10
784.9999999999999
20
4770.0
0
VERTEX
8
0
10
784.9999999999999
20
4670.0
0
VERTEX
8
0
10
814.9999999999999
20
4670.0
0
VERTEX
8
0
10
814.9999999999999
20
4770.0
0
VERTEX
8
0
10
784.9999999999999
20
4770.0
0
SEQEND
0
POLYLINE
8
0
66
1
10
0.0
20
0.0
30
0.0
0
VERTEX
8
0
10
399.9999999999999
20
4670.0
0
VERTEX
8
0
10
399.99999999999955
20
3870.0
0
VERTEX
8
0
10
1199.9999999999995
20
3870.0
0
VERTEX
8
0
10
1200.0
20
4670.0
0
VERTEX
8
0
10
399.9999999999999
20
4670.0
0
SEQEND
0
POLYLINE
8
0
66
1
10
0.0
20
0.0
30
0.0
0
VERTEX
8
0
10
1160.0
20
5700.0
0
VERTEX
8
0
10
1160.0
20
5660.0
0
VERTEX
8
0
10
1200.0
20
5660.0
0
VERTEX
8
0
10
1200.0
20
5700.0
0
VERTEX
8
0
10
1160.0
20
5700.0
0
SEQEND
0
POLYLINE
8
0
66
1
10
0.0
20
0.0
30
0.0
0
VERTEX
8
0
10
1200.0
20
5660.0
0
VERTEX
8
0
10
1194.6410161513775
20
5680.0
0
VERTEX
8
0
10
1180.0
20
5694.641016151378
0
VERTEX
8
0
10
1160.0
20
5700.0
0
VERTEX
8
0
10
1160.0
20
5680.0
0
VERTEX
8
0
10
1170.0
20
5677.320508075689
0
VERTEX
8
0
10
1177.3205080756888
20
5670.0
0
VERTEX
8
0
10
1180.0
20
5660.0
0
VERTEX
8
0
10
1200.0
20
5660.0
0
SEQEND
0
POLYLINE
8
0
66
1
10
0.0
20
0.0
30
0.0
0
VERTEX
8
0
10
1180.0
20
5660.0
0
VERTEX
8
0
10
1177.3205080756888
20
5670.0
0
VERTEX
8
0
10
1170.0
20
5677.320508075689
0
VERTEX
8
0
10
1160.0
20
5680.0
0
VERTEX
8
0
10
1160.0
20
5660.0
0
VERTEX
8
0
10
1160.0
20
5660.0
0
VERTEX
8
0
10
1160.0
20
5660.0
0
VERTEX
8
0
10
1160.0
20
5660.0
0
VERTEX
8
0
10
1180.0
20
5660.0
0
SEQEND
0
POLYLINE
8
0
66
1
10
0.0
20
0.0
30
0.0
0
VERTEX
8
0
10
400.0
20
5700.0
0
VERTEX
8
0
10
400.0
20
5660.0
0
VERTEX
8
0
10
440.0
20
5660.0
0
VERTEX
8
0
10
440.0
20
5700.0
0
VERTEX
8
0
10
400.0
20
5700.0
0
SEQEND
0
POLYLINE
8
0
66
1
10
0.0
20
0.0
30
0.0
0
VERTEX
8
0
10
400.0
20
5660.0
0
VERTEX
8
0
10
405.3589838486225
20
5680.0
0
VERTEX
8
0
10
420.0
20
5694.641016151378
0
VERTEX
8
0
10
440.0
20
5700.0
0
VERTEX
8
0
10
440.0
20
5680.0
0
VERTEX
8
0
10
430.0
20
5677.320508075689
0
VERTEX
8
0
10
422.6794919243112
20
5670.0
0
VERTEX
8
0
10
420.0
20
5660.0
0
VERTEX
8
0
10
400.0
20
5660.0
0
SEQEND
0
POLYLINE
8
0
66
1
10
0.0
20
0.0
30
0.0
0
VERTEX
8
0
10
420.0
20
5660.0
0
VERTEX
8
0
10
422.6794919243112
20
5670.0
0
VERTEX
8
0
10
430.0
20
5677.320508075689
0
VERTEX
8
0
10
440.0
20
5680.0
0
VERTEX
8
0
10
440.0
20
5660.0
0
VERTEX
8
0
10
440.0
20
5660.0
0
VERTEX
8
0
10
440.0
20
5660.0
0
VERTEX
8
0
10
440.0
20
5660.0
0
VERTEX
8
0
10
420.0
20
5660.0
0
SEQEND
0
POLYLINE
8
0
66
1
10
0.0
20
0.0
30
0.0
0
VERTEX
8
0
10
440.0
20
4900.0
0
VERTEX
8
0
10
440.0
20
4940.0
0
VERTEX
8
0
10
400.0
20
4940.0
0
VERTEX
8
0
10
400.0
20
4900.0
0
VERTEX
8
0
10
440.0
20
4900.0
0
SEQEND
0
POLYLINE
8
0
66
1
10
0.0
20
0.0
30
0.0
0
VERTEX
8
0
10
400.0
20
4940.0
0
VERTEX
8
0
10
405.3589838486225
20
4920.0
0
VERTEX
8
0
10
420.0
20
4905.358983848622
0
VERTEX
8
0
10
440.0
20
4900.0
0
VERTEX
8
0
10
440.0
20
4920.0
0
VERTEX
8
0
10
430.0
20
4922.679491924311
0
VERTEX
8
0
10
422.6794919243112
20
4930.0
0
VERTEX
8
0
10
420.0
20
4940.0
0
VERTEX
8
0
10
400.0
20
4940.0
0
SEQEND
0
POLYLINE
8
0
66
1
10
0.0
20
0.0
30
0.0
0
VERTEX
8
0
10
420.0
20
4940.0
0
VERTEX
8
0
10
422.6794919243112
20
4930.0
0
VERTEX
8
0
10
430.0
20
4922.679491924311
0
VERTEX
8
0
10
440.0
20
4920.0
0
VERTEX
8
0
10
440.0
20
4940.0
0
VERTEX
8
0
10
440.0
20
4940.0
0
VERTEX
8
0
10
440.0
20
4940.0
0
VERTEX
8
0
10
440.0
20
4940.0
0
VERTEX
8
0
10
420.0
20
4940.0
0
SEQEND
0
POLYLINE
8
0
66
1
10
0.0
20
0.0
30
0.0
0
VERTEX
8
0
10
1200.0
20
4900.0
0
VERTEX
8
0
10
1200.0
20
4940.0
0
VERTEX
8
0
10
1160.0
20
4940.0
0
VERTEX
8
0
10
1160.0
20
4900.0
0
VERTEX
8
0
10
1200.0
20
4900.0
0
SEQEND
0
POLYLINE
8
0
66
1
10
0.0
20
0.0
30
0.0
0
VERTEX
8
0
10
1200.0
20
4940.0
0
VERTEX
8
0
10
1194.6410161513775
20
4920.0
0
VERTEX
8
0
10
1180.0
20
4905.358983848622
0
VERTEX
8
0
10
1160.0
20
4900.0
0
VERTEX
8
0
10
1160.0
20
4920.0
0
VERTEX
8
0
10
1170.0
20
4922.679491924311
0
VERTEX
8
0
10
1177.3205080756888
20
4930.0
0
VERTEX
8
0
10
1180.0
20
4940.0
0
VERTEX
8
0
10
1200.0
20
4940.0
0
SEQEND
0
POLYLINE
8
0
66
1
10
0.0
20
0.0
30
0.0
0
VERTEX
8
0
10
1180.0
20
4940.0
0
VERTEX
8
0
10
1177.3205080756888
20
4930.0
0
VERTEX
8
0
10
1170.0
20
4922.679491924311
0
VERTEX
8
0
10
1160.0
20
4920.0
0
VERTEX
8
0
10
1160.0
20
4940.0
0
VERTEX
8
0
10
1160.0
20
4940.0
0
VERTEX
8
0
10
1160.0
20
4940.0
0
VERTEX
8
0
10
1160.0
20
4940.0
0
VERTEX
8
0
10
1180.0
20
4940.0
0
SEQEND
0
POLYLINE
8
0
66
1
10
0.0
20
0.0
30
0.0
0
VERTEX
8
0
10
775.0
20
4900.0
0
VERTEX
8
0
10
775.0
20
4890.0
0
VERTEX
8
0
10
785.0
20
4890.0
0
VERTEX
8
0
10
785.0
20
4900.0
0
VERTEX
8
0
10
775.0
20
4900.0
0
SEQEND
0
POLYLINE
8
0
66
1
10
0.0
20
0.0
30
0.0
0
VERTEX
8
0
10
785.0
20
4890.0
0
VERTEX
8
0
10
783.6602540378444
20
4895.0
0
VERTEX
8
0
10
780.0
20
4898.660254037844
0
VERTEX
8
0
10
775.0
20
4900.0
0
VERTEX
8
0
10
775.0
20
4895.0
0
VERTEX
8
0
10
777.5
20
4894.330127018922
0
VERTEX
8
0
10
779.3301270189222
20
4892.5
0
VERTEX
8
0
10
780.0
20
4890.0
0
VERTEX
8
0
10
785.0
20
4890.0
0
SEQEND
0
POLYLINE
8
0
66
1
10
0.0
20
0.0
30
0.0
0
VERTEX
8
0
10
780.0
20
4890.0
0
VERTEX
8
0
10
779.3301270189222
20
4892.5
0
VERTEX
8
0
10
777.5
20
4894.330127018922
0
VERTEX
8
0
10
775.0
20
4895.0
0
VERTEX
8
0
10
775.0
20
4890.0
0
VERTEX
8
0
10
775.0
20
4890.0
0
VERTEX
8
0
10
775.0
20
4890.0
0
VERTEX
8
0
10
775.0
20
4890.0
0
VERTEX
8
0
10
780.0
20
4890.0
0
SEQEND
0
POLYLINE
8
0
66
1
10
0.0
20
0.0
30
0.0
0
VERTEX
8
0
10
815.0
20
4900.0
0
VERTEX
8
0
10
815.0
20
4890.0
0
VERTEX
8
0
10
825.0
20
4890.0
0
VERTEX
8
0
10
825.0
20
4900.0
0
VERTEX
8
0
10
815.0
20
4900.0
0
SEQEND
0
POLYLINE
8
0
66
1
10
0.0
20
0.0
30
0.0
0
VERTEX
8
0
10
815.0
20
4890.0
0
VERTEX
8
0
10
816.3397459621556
20
4895.0
0
VERTEX
8
0
10
820.0
20
4898.660254037844
0
VERTEX
8
0
10
825.0
20
4900.0
0
VERTEX
8
0
10
825.0
20
4895.0
0
VERTEX
8
0
10
822.5
20
4894.330127018922
0
VERTEX
8
0
10
820.6698729810778
20
4892.5
0
VERTEX
8
0
10
820.0
20
4890.0
0
VERTEX
8
0
10
815.0
20
4890.0
0
SEQEND
0
POLYLINE
8
0
66
1
10
0.0
20
0.0
30
0.0
0
VERTEX
8
0
10
820.0
20
4890.0
0
VERTEX
8
0
10
820.6698729810778
20
4892.5
0
VERTEX
8
0
10
822.5
20
4894.330127018922
0
VERTEX
8
0
10
825.0
20
4895.0
0
VERTEX
8
0
10
825.0
20
4890.0
0
VERTEX
8
0
10
825.0
20
4890.0
0
VERTEX
8
0
10
825.0
20
4890.0
0
VERTEX
8
0
10
825.0
20
4890.0
0
VERTEX
8
0
10
820.0
20
4890.0
0
SEQEND
0
POLYLINE
8
0
66
1
10
0.0
20
0.0
30
0.0
0
VERTEX
8
0
10
1199.9999999999995
20
3870.0
0
VERTEX
8
0
10
1199.9999999999995
20
3910.0
0
VERTEX
8
0
10
1159.9999999999995
20
3910.0
0
VERTEX
8
0
10
1159.9999999999995
20
3870.0
0
VERTEX
8
0
10
1199.9999999999995
20
3870.0
0
SEQEND
0
POLYLINE
8
0
66
1
10
0.0
20
0.0
30
0.0
0
VERTEX
8
0
10
1199.9999999999995
20
3910.0
0
VERTEX
8
0
10
1194.641016151377
20
3890.0
0
VERTEX
8
0
10
1179.9999999999995
20
3875.3589838486223
0
VERTEX
8
0
10
1159.9999999999995
20
3870.0
0
VERTEX
8
0
10
1159.9999999999995
20
3890.0
0
VERTEX
8
0
10
1169.9999999999995
20
3892.679491924311
0
VERTEX
8
0
10
1177.3205080756884
20
3900.0
0
VERTEX
8
0
10
1179.9999999999995
20
3910.0
0
VERTEX
8
0
10
1199.9999999999995
20
3910.0
0
SEQEND
0
POLYLINE
8
0
66
1
10
0.0
20
0.0
30
0.0
0
VERTEX
8
0
10
1179.9999999999995
20
3910.0
0
VERTEX
8
0
10
1177.3205080756884
20
3900.0
0
VERTEX
8
0
10
1169.9999999999995
20
3892.679491924311
0
VERTEX
8
0
10
1159.9999999999995
20
3890.0
0
VERTEX
8
0
10
1159.9999999999995
20
3910.0
0
VERTEX
8
0
10
1159.9999999999995
20
3910.0
0
VERTEX
8
0
10
1159.9999999999995
20
3910.0
0
VERTEX
8
0
10
1159.9999999999995
20
3910.0
0
VERTEX
8
0
10
1179.9999999999995
20
3910.0
0
SEQEND
0
POLYLINE
8
0
66
1
10
0.0
20
0.0
30
0.0
0
VERTEX
8
0
10
439.99999999999955
20
3870.0
0
VERTEX
8
0
10
439.99999999999955
20
3910.0
0
VERTEX
8
0
10
399.99999999999955
20
3910.0
0
VERTEX
8
0
10
399.99999999999955
20
3870.0
0
VERTEX
8
0
10
439.99999999999955
20
3870.0
0
SEQEND
0
POLYLINE
8
0
66
1
10
0.0
20
0.0
30
0.0
0
VERTEX
8
0
10
399.99999999999955
20
3910.0
0
VERTEX
8
0
10
405.358983848622
20
3890.0
0
VERTEX
8
0
10
419.99999999999955
20
3875.3589838486223
0
VERTEX
8
0
10
439.99999999999955
20
3870.0
0
VERTEX
8
0
10
439.99999999999955
20
3890.0
0
VERTEX
8
0
10
429.99999999999955
20
3892.679491924311
0
VERTEX
8
0
10
422.67949192431075
20
3900.0
0
VERTEX
8
0
10
419.99999999999955
20
3910.0
0
VERTEX
8
0
10
399.99999999999955
20
3910.0
0
SEQEND
0
POLYLINE
8
0
66
1
10
0.0
20
0.0
30
0.0
0
VERTEX
8
0
10
419.99999999999955
20
3910.0
0
VERTEX
8
0
10
422.67949192431075
20
3900.0
0
VERTEX
8
0
10
429.99999999999955
20
3892.679491924311
0
VERTEX
8
0
10
439.99999999999955
20
3890.0
0
VERTEX
8
0
10
439.99999999999955
20
3910.0
0
VERTEX
8
0
10
439.99999999999955
20
3910.0
0
VERTEX
8
0
10
439.99999999999955
20
3910.0
0
VERTEX
8
0
10
439.99999999999955
20
3910.0
0
VERTEX
8
0
10
419.99999999999955
20
3910.0
0
SEQEND
0
POLYLINE
8
0
66
1
10
0.0
20
0.0
30
0.0
0
VERTEX
8
0
10
399.99999999999955
20
4670.0
0
VERTEX
8
0
10
399.99999999999955
20
4630.0
0
VERTEX
8
0
10
439.99999999999955
20
4630.0
0
VERTEX
8
0
10
439.99999999999955
20
4670.0
0
VERTEX
8
0
10
399.99999999999955
20
4670.0
0
SEQEND
0
POLYLINE
8
0
66
1
10
0.0
20
0.0
30
0.0
0
VERTEX
8
0
10
399.99999999999955
20
4630.0
0
VERTEX
8
0
10
405.358983848622
20
4650.0
0
VERTEX
8
0
10
419.99999999999955
20
4664.641016151378
0
VERTEX
8
0
10
439.99999999999955
20
4670.0
0
VERTEX
8
0
10
439.99999999999955
20
4650.0
0
VERTEX
8
0
10
429.99999999999955
20
4647.320508075689
0
VERTEX
8
0
10
422.67949192431075
20
4640.0
0
VERTEX
8
0
10
419.99999999999955
20
4630.0
0
VERTEX
8
0
10
399.99999999999955
20
4630.0
0
SEQEND
0
POLYLINE
8
0
66
1
10
0.0
20
0.0
30
0.0
0
VERTEX
8
0
10
419.99999999999955
20
4630.0
0
VERTEX
8
0
10
422.67949192431075
20
4640.0
0
VERTEX
8
0
10
429.99999999999955
20
4647.320508075689
0
VERTEX
8
0
10
439.99999999999955
20
4650.0
0
VERTEX
8
0
10
439.99999999999955
20
4630.0
0
VERTEX
8
0
10
439.99999999999955
20
4630.0
0
VERTEX
8
0
10
439.99999999999955
20
4630.0
0
VERTEX
8
0
10
439.99999999999955
20
4630.0
0
VERTEX
8
0
10
419.99999999999955
20
4630.0
0
SEQEND
0
POLYLINE
8
0
66
1
10
0.0
20
0.0
30
0.0
0
VERTEX
8
0
10
1159.9999999999995
20
4670.0
0
VERTEX
8
0
10
1159.9999999999995
20
4630.0
0
VERTEX
8
0
10
1199.9999999999995
20
4630.0
0
VERTEX
8
0
10
1199.9999999999995
20
4670.0
0
VERTEX
8
0
10
1159.9999999999995
20
4670.0
0
SEQEND
0
POLYLINE
8
0
66
1
10
0.0
20
0.0
30
0.0
0
VERTEX
8
0
10
1199.9999999999995
20
4630.0
0
VERTEX
8
0
10
1194.641016151377
20
4650.0
0
VERTEX
8
0
10
1179.9999999999995
20
4664.641016151378
0
VERTEX
8
0
10
1159.9999999999995
20
4670.0
0
VERTEX
8
0
10
1159.9999999999995
20
4650.0
0
VERTEX
8
0
10
1169.9999999999995
20
4647.320508075689
0
VERTEX
8
0
10
1177.3205080756884
20
4640.0
0
VERTEX
8
0
10
1179.9999999999995
20
4630.0
0
VERTEX
8
0
10
1199.9999999999995
20
4630.0
0
SEQEND
0
POLYLINE
8
0
66
1
10
0.0
20
0.0
30
0.0
0
VERTEX
8
0
10
1179.9999999999995
20
4630.0
0
VERTEX
8
0
10
1177.3205080756884
20
4640.0
0
VERTEX
8
0
10
1169.9999999999995
20
4647.320508075689
0
VERTEX
8
0
10
1159.9999999999995
20
4650.0
0
VERTEX
8
0
10
1159.9999999999995
20
4630.0
0
VERTEX
8
0
10
1159.9999999999995
20
4630.0
0
VERTEX
8
0
10
1159.9999999999995
20
4630.0
0
VERTEX
8
0
10
1159.9999999999995
20
4630.0
0
VERTEX
8
0
10
1179.9999999999995
20
4630.0
0
SEQEND
0
POLYLINE
8
0
66
1
10
0.0
20
0.0
30
0.0
0
VERTEX
8
0
10
784.9999999999995
20
4670.0
0
VERTEX
8
0
10
784.9999999999995
20
4680.0
0
VERTEX
8
0
10
774.9999999999995
20
4680.0
0
VERTEX
8
0
10
774.9999999999995
20
4670.0
0
VERTEX
8
0
10
784.9999999999995
20
4670.0
0
SEQEND
0
POLYLINE
8
0
66
1
10
0.0
20
0.0
30
0.0
0
VERTEX
8
0
10
784.9999999999995
20
4680.0
0
VERTEX
8
0
10
783.660254037844
20
4675.0
0
VERTEX
8
0
10
779.9999999999995
20
4671.339745962156
0
VERTEX
8
0
10
774.9999999999995
20
4670.0
0
VERTEX
8
0
10
774.9999999999995
20
4675.0
0
VERTEX
8
0
10
777.4999999999995
20
4675.669872981078
0
VERTEX
8
0
10
779.3301270189218
20
4677.5
0
VERTEX
8
0
10
779.9999999999995
20
4680.0
0
VERTEX
8
0
10
784.9999999999995
20
4680.0
0
SEQEND
0
POLYLINE
8
0
66
1
10
0.0
20
0.0
30
0.0
0
VERTEX
8
0
10
779.9999999999995
20
4680.0
0
VERTEX
8
0
10
779.3301270189218
20
4677.5
0
VERTEX
8
0
10
777.4999999999995
20
4675.669872981078
0
VERTEX
8
0
10
774.9999999999995
20
4675.0
0
VERTEX
8
0
10
774.9999999999995
20
4680.0
0
VERTEX
8
0
10
774.9999999999995
20
4680.0
0
VERTEX
8
0
10
774.9999999999995
20
4680.0
0
VERTEX
8
0
10
774.9999999999995
20
4680.0
0
VERTEX
8
0
10
779.9999999999995
20
4680.0
0
SEQEND
0
POLYLINE
8
0
66
1
10
0.0
20
0.0
30
0.0
0
VERTEX
8
0
10
824.9999999999995
20
4670.0
0
VERTEX
8
0
10
824.9999999999995
20
4680.0
0
VERTEX
8
0
10
814.9999999999995
20
4680.0
0
VERTEX
8
0
10
814.9999999999995
20
4670.0
0
VERTEX
8
0
10
824.9999999999995
20
4670.0
0
SEQEND
0
POLYLINE
8
0
66
1
10
0.0
20
0.0
30
0.0
0
VERTEX
8
0
10
814.9999999999995
20
4680.0
0
VERTEX
8
0
10
816.3397459621551
20
4675.0
0
VERTEX
8
0
10
819.9999999999995
20
4671.339745962156
0
VERTEX
8
0
10
824.9999999999995
20
4670.0
0
VERTEX
8
0
10
824.9999999999995
20
4675.0
0
VERTEX
8
0
10
822.4999999999995
20
4675.669872981078
0
VERTEX
8
0
10
820.6698729810773
20
4677.5
0
VERTEX
8
0
10
819.9999999999995
20
4680.0
0
VERTEX
8
0
10
814.9999999999995
20
4680.0
0
SEQEND
0
POLYLINE
8
0
66
1
10
0.0
20
0.0
30
0.0
0
VERTEX
8
0
10
819.9999999999995
20
4680.0
0
VERTEX
8
0
10
820.6698729810773
20
4677.5
0
VERTEX
8
0
10
822.4999999999995
20
4675.669872981078
0
VERTEX
8
0
10
824.9999999999995
20
4675.0
0
VERTEX
8
0
10
824.9999999999995
20
4680.0
0
VERTEX
8
0
10
824.9999999999995
20
4680.0
0
VERTEX
8
0
10
824.9999999999995
20
4680.0
0
VERTEX
8
0
10
824.9999999999995
20
4680.0
0
VERTEX
8
0
10
819.9999999999995
20
4680.0
0
SEQEND
0
POLYLINE
8
0
66
1
10
0.0
20
0.0
30
0.0
0
VERTEX
8
0
10
400.0
20
8200.0
0
VERTEX
8
0
10
399.9999999999999
20
7400.0
0
VERTEX
8
0
10
1200.0
20
7400.0
0
VERTEX
8
0
10
1200.0
20
8200.0
0
VERTEX
8
0
10
400.0
20
8200.0
0
SEQEND
0
POLYLINE
8
0
66
1
10
0.0
20
0.0
30
0.0
0
VERTEX
8
0
10
784.9999999999999
20
7400.0
0
VERTEX
8
0
10
784.9999999999999
20
7300.0
0
VERTEX
8
0
10
814.9999999999999
20
7300.0
0
VERTEX
8
0
10
814.9999999999999
20
7400.0
0
VERTEX
8
0
10
784.9999999999999
20
7400.0
0
SEQEND
0
POLYLINE
8
0
66
1
10
0.0
20
0.0
30
0.0
0
VERTEX
8
0
10
802.4999999999999
20
7300.0
0
VERTEX
8
0
10
802.4999999999999
20
7305.0
0
VERTEX
8
0
10
797.4999999999999
20
7305.0
0
VERTEX
8
0
10
797.4999999999999
20
7300.0
0
VERTEX
8
0
10
802.4999999999999
20
7300.0
0
SEQEND
0
POLYLINE
8
0
66
1
10
0.0
20
0.0
30
0.0
0
VERTEX
8
0
10
807.4999999999999
20
7305.0
0
VERTEX
8
0
10
807.4999999999999
20
7310.0
0
VERTEX
8
0
10
792.4999999999999
20
7310.0
0
VERTEX
8
0
10
792.4999999999999
20
7305.0
0
VERTEX
8
0
10
807.4999999999999
20
7305.0
0
SEQEND
0
POLYLINE
8
0
66
1
10
0.0
20
0.0
30
0.0
0
VERTEX
8
0
10
797.4999999999999
20
7270.0
0
VERTEX
8
0
10
797.4999999999999
20
7265.0
0
VERTEX
8
0
10
802.4999999999999
20
7265.0
0
VERTEX
8
0
10
802.4999999999999
20
7270.0
0
VERTEX
8
0
10
797.4999999999999
20
7270.0
0
SEQEND
0
POLYLINE
8
0
66
1
10
0.0
20
0.0
30
0.0
0
VERTEX
8
0
10
792.4999999999999
20
7265.0
0
VERTEX
8
0
10
792.4999999999999
20
7260.0
0
VERTEX
8
0
10
807.4999999999999
20
7260.0
0
VERTEX
8
0
10
807.4999999999999
20
7265.0
0
VERTEX
8
0
10
792.4999999999999
20
7265.0
0
SEQEND
0
POLYLINE
8
0
66
1
10
0.0
20
0.0
30
0.0
0
VERTEX
8
0
10
784.9999999999999
20
7270.0
0
VERTEX
8
0
10
784.9999999999999
20
7170.0
0
VERTEX
8
0
10
814.9999999999999
20
7170.0
0
VERTEX
8
0
10
814.9999999999999
20
7270.0
0
VERTEX
8
0
10
784.9999999999999
20
7270.0
0
SEQEND
0
POLYLINE
8
0
66
1
10
0.0
20
0.0
30
0.0
0
VERTEX
8
0
10
399.9999999999999
20
7170.0
0
VERTEX
8
0
10
399.99999999999955
20
6370.0
0
VERTEX
8
0
10
1199.9999999999995
20
6370.0
0
VERTEX
8
0
10
1200.0
20
7170.0
0
VERTEX
8
0
10
399.9999999999999
20
7170.0
0
SEQEND
0
POLYLINE
8
0
66
1
10
0.0
20
0.0
30
0.0
0
VERTEX
8
0
10
1160.0
20
8200.0
0
VERTEX
8
0
10
1160.0
20
8160.0
0
VERTEX
8
0
10
1200.0
20
8160.0
0
VERTEX
8
0
10
1200.0
20
8200.0
0
VERTEX
8
0
10
1160.0
20
8200.0
0
SEQEND
0
POLYLINE
8
0
66
1
10
0.0
20
0.0
30
0.0
0
VERTEX
8
0
10
1200.0
20
8160.0
0
VERTEX
8
0
10
1194.6410161513775
20
8180.0
0
VERTEX
8
0
10
1180.0
20
8194.641016151378
0
VERTEX
8
0
10
1160.0
20
8200.0
0
VERTEX
8
0
10
1160.0
20
8180.0
0
VERTEX
8
0
10
1170.0
20
8177.320508075689
0
VERTEX
8
0
10
1177.3205080756888
20
8170.0
0
VERTEX
8
0
10
1180.0
20
8160.0
0
VERTEX
8
0
10
1200.0
20
8160.0
0
SEQEND
0
POLYLINE
8
0
66
1
10
0.0
20
0.0
30
0.0
0
VERTEX
8
0
10
1180.0
20
8160.0
0
VERTEX
8
0
10
1177.3205080756888
20
8170.0
0
VERTEX
8
0
10
1170.0
20
8177.320508075689
0
VERTEX
8
0
10
1160.0
20
8180.0
0
VERTEX
8
0
10
1160.0
20
8160.0
0
VERTEX
8
0
10
1160.0
20
8160.0
0
VERTEX
8
0
10
1160.0
20
8160.0
0
VERTEX
8
0
10
1160.0
20
8160.0
0
VERTEX
8
0
10
1180.0
20
8160.0
0
SEQEND
0
POLYLINE
8
0
66
1
10
0.0
20
0.0
30
0.0
0
VERTEX
8
0
10
400.0
20
8200.0
0
VERTEX
8
0
10
400.0
20
8160.0
0
VERTEX
8
0
10
440.0
20
8160.0
0
VERTEX
8
0
10
440.0
20
8200.0
0
VERTEX
8
0
10
400.0
20
8200.0
0
SEQEND
0
POLYLINE
8
0
66
1
10
0.0
20
0.0
30
0.0
0
VERTEX
8
0
10
400.0
20
8160.0
0
VERTEX
8
0
10
405.3589838486225
20
8180.0
0
VERTEX
8
0
10
420.0
20
8194.641016151378
0
VERTEX
8
0
10
440.0
20
8200.0
0
VERTEX
8
0
10
440.0
20
8180.0
0
VERTEX
8
0
10
430.0
20
8177.320508075689
0
VERTEX
8
0
10
422.6794919243112
20
8170.0
0
VERTEX
8
0
10
420.0
20
8160.0
0
VERTEX
8
0
10
400.0
20
8160.0
0
SEQEND
0
POLYLINE
8
0
66
1
10
0.0
20
0.0
30
0.0
0
VERTEX
8
0
10
420.0
20
8160.0
0
VERTEX
8
0
10
422.6794919243112
20
8170.0
0
VERTEX
8
0
10
430.0
20
8177.320508075689
0
VERTEX
8
0
10
440.0
20
8180.0
0
VERTEX
8
0
10
440.0
20
8160.0
0
VERTEX
8
0
10
440.0
20
8160.0
0
VERTEX
8
0
10
440.0
20
8160.0
0
VERTEX
8
0
10
440.0
20
8160.0
0
VERTEX
8
0
10
420.0
20
8160.0
0
SEQEND
0
POLYLINE
8
0
66
1
10
0.0
20
0.0
30
0.0
0
VERTEX
8
0
10
440.0
20
7400.0
0
VERTEX
8
0
10
440.0
20
7440.0
0
VERTEX
8
0
10
400.0
20
7440.0
0
VERTEX
8
0
10
400.0
20
7400.0
0
VERTEX
8
0
10
440.0
20
7400.0
0
SEQEND
0
POLYLINE
8
0
66
1
10
0.0
20
0.0
30
0.0
0
VERTEX
8
0
10
400.0
20
7440.0
0
VERTEX
8
0
10
405.3589838486225
20
7420.0
0
VERTEX
8
0
10
420.0
20
7405.358983848622
0
VERTEX
8
0
10
440.0
20
7400.0
0
VERTEX
8
0
10
440.0
20
7420.0
0
VERTEX
8
0
10
430.0
20
7422.679491924311
0
VERTEX
8
0
10
422.6794919243112
20
7430.0
0
VERTEX
8
0
10
420.0
20
7440.0
0
VERTEX
8
0
10
400.0
20
7440.0
0
SEQEND
0
POLYLINE
8
0
66
1
10
0.0
20
0.0
30
0.0
0
VERTEX
8
0
10
420.0
20
7440.0
0
VERTEX
8
0
10
422.6794919243112
20
7430.0
0
VERTEX
8
0
10
430.0
20
7422.679491924311
0
VERTEX
8
0
10
440.0
20
7420.0
0
VERTEX
8
0
10
440.0
20
7440.0
0
VERTEX
8
0
10
440.0
20
7440.0
0
VERTEX
8
0
10
440.0
20
7440.0
0
VERTEX
8
0
10
440.0
20
7440.0
0
VERTEX
8
0
10
420.0
20
7440.0
0
SEQEND
0
POLYLINE
8
0
66
1
10
0.0
20
0.0
30
0.0
0
VERTEX
8
0
10
1200.0
20
7400.0
0
VERTEX
8
0
10
1200.0
20
7440.0
0
VERTEX
8
0
10
1160.0
20
7440.0
0
VERTEX
8
0
10
1160.0
20
7400.0
0
VERTEX
8
0
10
1200.0
20
7400.0
0
SEQEND
0
POLYLINE
8
0
66
1
10
0.0
20
0.0
30
0.0
0
VERTEX
8
0
10
1200.0
20
7440.0
0
VERTEX
8
0
10
1194.6410161513775
20
7420.0
0
VERTEX
8
0
10
1180.0
20
7405.358983848622
0
VERTEX
8
0
10
1160.0
20
7400.0
0
VERTEX
8
0
10
1160.0
20
7420.0
0
VERTEX
8
0
10
1170.0
20
7422.679491924311
0
VERTEX
8
0
10
1177.3205080756888
20
7430.0
0
VERTEX
8
0
10
1180.0
20
7440.0
0
VERTEX
8
0
10
1200.0
20
7440.0
0
SEQEND
0
POLYLINE
8
0
66
1
10
0.0
20
0.0
30
0.0
0
VERTEX
8
0
10
1180.0
20
7440.0
0
VERTEX
8
0
10
1177.3205080756888
20
7430.0
0
VERTEX
8
0
10
1170.0
20
7422.679491924311
0
VERTEX
8
0
10
1160.0
20
7420.0
0
VERTEX
8
0
10
1160.0
20
7440.0
0
VERTEX
8
0
10
1160.0
20
7440.0
0
VERTEX
8
0
10
1160.0
20
7440.0
0
VERTEX
8
0
10
1160.0
20
7440.0
0
VERTEX
8
0
10
1180.0
20
7440.0
0
SEQEND
0
POLYLINE
8
0
66
1
10
0.0
20
0.0
30
0.0
0
VERTEX
8
0
10
775.0
20
7400.0
0
VERTEX
8
0
10
775.0
20
7390.0
0
VERTEX
8
0
10
785.0
20
7390.0
0
VERTEX
8
0
10
785.0
20
7400.0
0
VERTEX
8
0
10
775.0
20
7400.0
0
SEQEND
0
POLYLINE
8
0
66
1
10
0.0
20
0.0
30
0.0
0
VERTEX
8
0
10
785.0
20
7390.0
0
VERTEX
8
0
10
783.6602540378444
20
7395.0
0
VERTEX
8
0
10
780.0
20
7398.660254037844
0
VERTEX
8
0
10
775.0
20
7400.0
0
VERTEX
8
0
10
775.0
20
7395.0
0
VERTEX
8
0
10
777.5
20
7394.330127018922
0
VERTEX
8
0
10
779.3301270189222
20
7392.5
0
VERTEX
8
0
10
780.0
20
7390.0
0
VERTEX
8
0
10
785.0
20
7390.0
0
SEQEND
0
POLYLINE
8
0
66
1
10
0.0
20
0.0
30
0.0
0
VERTEX
8
0
10
780.0
20
7390.0
0
VERTEX
8
0
10
779.3301270189222
20
7392.5
0
VERTEX
8
0
10
777.5
20
7394.330127018922
0
VERTEX
8
0
10
775.0
20
7395.0
0
VERTEX
8
0
10
775.0
20
7390.0
0
VERTEX
8
0
10
775.0
20
7390.0
0
VERTEX
8
0
10
775.0
20
7390.0
0
VERTEX
8
0
10
775.0
20
7390.0
0
VERTEX
8
0
10
780.0
20
7390.0
0
SEQEND
0
POLYLINE
8
0
66
1
10
0.0
20
0.0
30
0.0
0
VERTEX
8
0
10
815.0
20
7400.0
0
VERTEX
8
0
10
815.0
20
7390.0
0
VERTEX
8
0
10
825.0
20
7390.0
0
VERTEX
8
0
10
825.0
20
7400.0
0
VERTEX
8
0
10
815.0
20
7400.0
0
SEQEND
0
POLYLINE
8
0
66
1
10
0.0
20
0.0
30
0.0
0
VERTEX
8
0
10
815.0
20
7390.0
0
VERTEX
8
0
10
816.3397459621556
20
7395.0
0
VERTEX
8
0
10
820.0
20
7398.660254037844
0
VERTEX
8
0
10
825.0
20
7400.0
0
VERTEX
8
0
10
825.0
20
7395.0
0
VERTEX
8
0
10
822.5
20
7394.330127018922
0
VERTEX
8
0
10
820.6698729810778
20
7392.5
0
VERTEX
8
0
10
820.0
20
7390.0
0
VERTEX
8
0
10
815.0
20
7390.0
0
SEQEND
0
POLYLINE
8
0
66
1
10
0.0
20
0.0
30
0.0
0
VERTEX
8
0
10
820.0
20
7390.0
0
VERTEX
8
0
10
820.6698729810778
20
7392.5
0
VERTEX
8
0
10
822.5
20
7394.330127018922
0
VERTEX
8
0
10
825.0
20
7395.0
0
VERTEX
8
0
10
825.0
20
7390.0
0
VERTEX
8
0
10
825.0
20
7390.0
0
VERTEX
8
0
10
825.0
20
7390.0
0
VERTEX
8
0
10
825.0
20
7390.0
0
VERTEX
8
0
10
820.0
20
7390.0
0
SEQEND
0
POLYLINE
8
0
66
1
10
0.0
20
0.0
30
0.0
0
VERTEX
8
0
10
1199.9999999999995
20
6370.0
0
VERTEX
8
0
10
1199.9999999999995
20
6410.0
0
VERTEX
8
0
10
1159.9999999999995
20
6410.0
0
VERTEX
8
0
10
1159.9999999999995
20
6370.0
0
VERTEX
8
0
10
1199.9999999999995
20
6370.0
0
SEQEND
0
POLYLINE
8
0
66
1
10
0.0
20
0.0
30
0.0
0
VERTEX
8
0
10
1199.9999999999995
20
6410.0
0
VERTEX
8
0
10
1194.641016151377
20
6390.0
0
VERTEX
8
0
10
1179.9999999999995
20
6375.358983848622
0
VERTEX
8
0
10
1159.9999999999995
20
6370.0
0
VERTEX
8
0
10
1159.9999999999995
20
6390.0
0
VERTEX
8
0
10
1169.9999999999995
20
6392.679491924311
0
VERTEX
8
0
10
1177.3205080756884
20
6400.0
0
VERTEX
8
0
10
1179.9999999999995
20
6410.0
0
VERTEX
8
0
10
1199.9999999999995
20
6410.0
0
SEQEND
0
POLYLINE
8
0
66
1
10
0.0
20
0.0
30
0.0
0
VERTEX
8
0
10
1179.9999999999995
20
6410.0
0
VERTEX
8
0
10
1177.3205080756884
20
6400.0
0
VERTEX
8
0
10
1169.9999999999995
20
6392.679491924311
0
VERTEX
8
0
10
1159.9999999999995
20
6390.0
0
VERTEX
8
0
10
1159.9999999999995
20
6410.0
0
VERTEX
8
0
10
1159.9999999999995
20
6410.0
0
VERTEX
8
0
10
1159.9999999999995
20
6410.0
0
VERTEX
8
0
10
1159.9999999999995
20
6410.0
0
VERTEX
8
0
10
1179.9999999999995
20
6410.0
0
SEQEND
0
POLYLINE
8
0
66
1
10
0.0
20
0.0
30
0.0
0
VERTEX
8
0
10
439.99999999999955
20
6370.0
0
VERTEX
8
0
10
439.99999999999955
20
6410.0
0
VERTEX
8
0
10
399.99999999999955
20
6410.0
0
VERTEX
8
0
10
399.99999999999955
20
6370.0
0
VERTEX
8
0
10
439.99999999999955
20
6370.0
0
SEQEND
0
POLYLINE
8
0
66
1
10
0.0
20
0.0
30
0.0
0
VERTEX
8
0
10
399.99999999999955
20
6410.0
0
VERTEX
8
0
10
405.358983848622
20
6390.0
0
VERTEX
8
0
10
419.99999999999955
20
6375.358983848622
0
VERTEX
8
0
10
439.99999999999955
20
6370.0
0
VERTEX
8
0
10
439.99999999999955
20
6390.0
0
VERTEX
8
0
10
429.99999999999955
20
6392.679491924311
0
VERTEX
8
0
10
422.67949192431075
20
6400.0
0
VERTEX
8
0
10
419.99999999999955
20
6410.0
0
VERTEX
8
0
10
399.99999999999955
20
6410.0
0
SEQEND
0
POLYLINE
8
0
66
1
10
0.0
20
0.0
30
0.0
0
VERTEX
8
0
10
419.99999999999955
20
6410.0
0
VERTEX
8
0
10
422.67949192431075
20
6400.0
0
VERTEX
8
0
10
429.99999999999955
20
6392.679491924311
0
VERTEX
8
0
10
439.99999999999955
20
6390.0
0
VERTEX
8
0
10
439.99999999999955
20
6410.0
0
VERTEX
8
0
10
439.99999999999955
20
6410.0
0
VERTEX
8
0
10
439.99999999999955
20
6410.0
0
VERTEX
8
0
10
439.99999999999955
20
6410.0
0
VERTEX
8
0
10
419.99999999999955
20
6410.0
0
SEQEND
0
POLYLINE
8
0
66
1
10
0.0
20
0.0
30
0.0
0
VERTEX
8
0
10
399.99999999999955
20
7170.0
0
VERTEX
8
0
10
399.99999999999955
20
7130.0
0
VERTEX
8
0
10
439.99999999999955
20
7130.0
0
VERTEX
8
0
10
439.99999999999955
20
7170.0
0
VERTEX
8
0
10
399.99999999999955
20
7170.0
0
SEQEND
0
POLYLINE
8
0
66
1
10
0.0
20
0.0
30
0.0
0
VERTEX
8
0
10
399.99999999999955
20
7130.0
0
VERTEX
8
0
10
405.358983848622
20
7150.0
0
VERTEX
8
0
10
419.99999999999955
20
7164.641016151378
0
VERTEX
8
0
10
439.99999999999955
20
7170.0
0
VERTEX
8
0
10
439.99999999999955
20
7150.0
0
VERTEX
8
0
10
429.99999999999955
20
7147.320508075689
0
VERTEX
8
0
10
422.67949192431075
20
7140.0
0
VERTEX
8
0
10
419.99999999999955
20
7130.0
0
VERTEX
8
0
10
399.99999999999955
20
7130.0
0
SEQEND
0
POLYLINE
8
0
66
1
10
0.0
20
0.0
30
0.0
0
VERTEX
8
0
10
419.99999999999955
20
7130.0
0
VERTEX
8
0
10
422.67949192431075
20
7140.0
0
VERTEX
8
0
10
429.99999999999955
20
7147.320508075689
0
VERTEX
8
0
10
439.99999999999955
20
7150.0
0
VERTEX
8
0
10
439.99999999999955
20
7130.0
0
VERTEX
8
0
10
439.99999999999955
20
7130.0
0
VERTEX
8
0
10
439.99999999999955
20
7130.0
0
VERTEX
8
0
10
439.99999999999955
20
7130.0
0
VERTEX
8
0
10
419.99999999999955
20
7130.0
0
SEQEND
0
POLYLINE
8
0
66
1
10
0.0
20
0.0
30
0.0
0
VERTEX
8
0
10
1159.9999999999995
20
7170.0
0
VERTEX
8
0
10
1159.9999999999995
20
7130.0
0
VERTEX
8
0
10
1199.9999999999995
20
7130.0
0
VERTEX
8
0
10
1199.9999999999995
20
7170.0
0
VERTEX
8
0
10
1159.9999999999995
20
7170.0
0
SEQEND
0
POLYLINE
8
0
66
1
10
0.0
20
0.0
30
0.0
0
VERTEX
8
0
10
1199.9999999999995
20
7130.0
0
VERTEX
8
0
10
1194.641016151377
20
7150.0
0
VERTEX
8
0
10
1179.9999999999995
20
7164.641016151378
0
VERTEX
8
0
10
1159.9999999999995
20
7170.0
0
VERTEX
8
0
10
1159.9999999999995
20
7150.0
0
VERTEX
8
0
10
1169.9999999999995
20
7147.320508075689
0
VERTEX
8
0
10
1177.3205080756884
20
7140.0
0
VERTEX
8
0
10
1179.9999999999995
20
7130.0
0
VERTEX
8
0
10
1199.9999999999995
20
7130.0
0
SEQEND
0
POLYLINE
8
0
66
1
10
0.0
20
0.0
30
0.0
0
VERTEX
8
0
10
1179.9999999999995
20
7130.0
0
VERTEX
8
0
10
1177.3205080756884
20
7140.0
0
VERTEX
8
0
10
1169.9999999999995
20
7147.320508075689
0
VERTEX
8
0
10
1159.9999999999995
20
7150.0
0
VERTEX
8
0
10
1159.9999999999995
20
7130.0
0
VERTEX
8
0
10
1159.9999999999995
20
7130.0
0
VERTEX
8
0
10
1159.9999999999995
20
7130.0
0
VERTEX
8
0
10
1159.9999999999995
20
7130.0
0
VERTEX
8
0
10
1179.9999999999995
20
7130.0
0
SEQEND
0
POLYLINE
8
0
66
1
10
0.0
20
0.0
30
0.0
0
VERTEX
8
0
10
784.9999999999995
20
7170.0
0
VERTEX
8
0
10
784.9999999999995
20
7180.0
0
VERTEX
8
0
10
774.9999999999995
20
7180.0
0
VERTEX
8
0
10
774.9999999999995
20
7170.0
0
VERTEX
8
0
10
784.9999999999995
20
7170.0
0
SEQEND
0
POLYLINE
8
0
66
1
10
0.0
20
0.0
30
0.0
0
VERTEX
8
0
10
784.9999999999995
20
7180.0
0
VERTEX
8
0
10
783.660254037844
20
7175.0
0
VERTEX
8
0
10
779.9999999999995
20
7171.339745962156
0
VERTEX
8
0
10
774.9999999999995
20
7170.0
0
VERTEX
8
0
10
774.9999999999995
20
7175.0
0
VERTEX
8
0
10
777.4999999999995
20
7175.669872981078
0
VERTEX
8
0
10
779.3301270189218
20
7177.5
0
VERTEX
8
0
10
779.9999999999995
20
7180.0
0
VERTEX
8
0
10
784.9999999999995
20
7180.0
0
SEQEND
0
POLYLINE
8
0
66
1
10
0.0
20
0.0
30
0.0
0
VERTEX
8
0
10
779.9999999999995
20
7180.0
0
VERTEX
8
0
10
779.3301270189218
20
7177.5
0
VERTEX
8
0
10
777.4999999999995
20
7175.669872981078
0
VERTEX
8
0
10
774.9999999999995
20
7175.0
0
VERTEX
8
0
10
774.9999999999995
20
7180.0
0
VERTEX
8
0
10
774.9999999999995
20
7180.0
0
VERTEX
8
0
10
774.9999999999995
20
7180.0
0
VERTEX
8
0
10
774.9999999999995
20
7180.0
0
VERTEX
8
0
10
779.9999999999995
20
7180.0
0
SEQEND
0
POLYLINE
8
0
66
1
10
0.0
20
0.0
30
0.0
0
VERTEX
8
0
10
824.9999999999995
20
7170.0
0
VERTEX
8
0
10
824.9999999999995
20
7180.0
0
VERTEX
8
0
10
814.9999999999995
20
7180.0
0
VERTEX
8
0
10
814.9999999999995
20
7170.0
0
VERTEX
8
0
10
824.9999999999995
20
7170.0
0
SEQEND
0
POLYLINE
8
0
66
1
10
0.0
20
0.0
30
0.0
0
VERTEX
8
0
10
814.9999999999995
20
7180.0
0
VERTEX
8
0
10
816.3397459621551
20
7175.0
0
VERTEX
8
0
10
819.9999999999995
20
7171.339745962156
0
VERTEX
8
0
10
824.9999999999995
20
7170.0
0
VERTEX
8
0
10
824.9999999999995
20
7175.0
0
VERTEX
8
0
10
822.4999999999995
20
7175.669872981078
0
VERTEX
8
0
10
820.6698729810773
20
7177.5
0
VERTEX
8
0
10
819.9999999999995
20
7180.0
0
VERTEX
8
0
10
814.9999999999995
20
7180.0
0
SEQEND
0
POLYLINE
8
0
66
1
10
0.0
20
0.0
30
0.0
0
VERTEX
8
0
10
819.9999999999995
20
7180.0
0
VERTEX
8
0
10
820.6698729810773
20
7177.5
0
VERTEX
8
0
10
822.4999999999995
20
7175.669872981078
0
VERTEX
8
0
10
824.9999999999995
20
7175.0
0
VERTEX
8
0
10
824.9999999999995
20
7180.0
0
VERTEX
8
0
10
824.9999999999995
20
7180.0
0
VERTEX
8
0
10
824.9999999999995
20
7180.0
0
VERTEX
8
0
10
824.9999999999995
20
7180.0
0
VERTEX
8
0
10
819.9999999999995
20
7180.0
0
SEQEND
0
POLYLINE
8
0
66
1
10
0.0
20
0.0
30
0.0
0
VERTEX
8
0
10
-200.0
20
26150.0
0
VERTEX
8
0
10
-100.0
20
26150.0
0
VERTEX
8
0
10
-100.0
20
26130.0
0
VERTEX
8
0
10
-180.0
20
26130.0
0
VERTEX
8
0
10
-180.0
20
26050.0
0
VERTEX
8
0
10
-200.0
20
26050.0
0
VERTEX
8
0
10
-200.0
20
26150.0
0
SEQEND
0
POLYLINE
8
0
66
1
10
0.0
20
0.0
30
0.0
0
VERTEX
8
0
10
-200.0
20
-200.0
0
VERTEX
8
0
10
-100.0
20
-200.0
0
VERTEX
8
0
10
-100.0
20
-180.0
0
VERTEX
8
0
10
-180.0
20
-180.0
0
VERTEX
8
0
10
-180.0
20
-100.0
0
VERTEX
8
0
10
-200.0
20
-100.0
0
VERTEX
8
0
10
-200.0
20
-200.0
0
SEQEND
0
POLYLINE
8
0
66
1
10
0.0
20
0.0
30
0.0
0
VERTEX
8
0
10
1800.0
20
-200.0
0
VERTEX
8
0
10
1700.0
20
-200.0
0
VERTEX
8
0
10
1700.0
20
-180.0
0
VERTEX
8
0
10
1780.0
20
-180.0
0
VERTEX
8
0
10
1780.0
20
-100.0
0
VERTEX
8
0
10
1800.0
20
-100.0
0
VERTEX
8
0
10
1800.0
20
-200.0
0
SEQEND
0
POLYLINE
8
0
66
1
10
0.0
20
0.0
30
0.0
0
VERTEX
8
0
10
1800.0
20
26150.0
0
VERTEX
8
0
10
1700.0
20
26150.0
0
VERTEX
8
0
10
1700.0
20
26130.0
0
VERTEX
8
0
10
1780.0
20
26130.0
0
VERTEX
8
0
10
1780.0
20
26050.0
0
VERTEX
8
0
10
1800.0
20
26050.0
0
VERTEX
8
0
10
1800.0
20
26150.0
0
SEQEND
0
POLYLINE
8
0
66
1
10
0.0
20
0.0
30
0.0
0
VERTEX
8
0
10
260.0
20
26150.0
0
VERTEX
8
0
10
340.0
20
26150.0
0
VERTEX
8
0
10
340.0
20
26130.0
0
VERTEX
8
0
10
260.0
20
26130.0
0
VERTEX
8
0
10
260.0
20
26150.0
0
SEQEND
0
POLYLINE
8
0
66
1
10
0.0
20
0.0
30
0.0
0
VERTEX
8
0
10
260.0
20
-200.0
0
VERTEX
8
0
10
340.0
20
-200.0
0
VERTEX
8
0
10
340.0
20
-180.0
0
VERTEX
8
0
10
260.0
20
-180.0
0
VERTEX
8
0
10
260.0
20
-200.0
0
SEQEND
0
POLYLINE
8
0
66
1
10
0.0
20
0.0
30
0.0
0
VERTEX
8
0
10
-200.0
20
6347.5
0
VERTEX
8
0
10
-200.0
20
6427.5
0
VERTEX
8
0
10
-180.0
20
6427.5
0
VERTEX
8
0
10
-180.0
20
6347.5
0
VERTEX
8
0
10
-200.0
20
6347.5
0
SEQEND
0
POLYLINE
8
0
66
1
10
0.0
20
0.0
30
0.0
0
VERTEX
8
0
10
1800.0
20
6347.5
0
VERTEX
8
0
10
1800.0
20
6427.5
0
VERTEX
8
0
10
1780.0
20
6427.5
0
VERTEX
8
0
10
1780.0
20
6347.5
0
VERTEX
8
0
10
1800.0
20
6347.5
0
SEQEND
0
POLYLINE
8
0
66
1
10
0.0
20
0.0
30
0.0
0
VERTEX
8
0
10
760.0
20
26150.0
0
VERTEX
8
0
10
840.0
20
26150.0
0
VERTEX
8
0
10
840.0
20
26130.0
0
VERTEX
8
0
10
760.0
20
26130.0
0
VERTEX
8
0
10
760.0
20
26150.0
0
SEQEND
0
POLYLINE
8
0
66
1
10
0.0
20
0.0
30
0.0
0
VERTEX
8
0
10
760.0
20
-200.0
0
VERTEX
8
0
10
840.0
20
-200.0
0
VERTEX
8
0
10
840.0
20
-180.0
0
VERTEX
8
0
10
760.0
20
-180.0
0
VERTEX
8
0
10
760.0
20
-200.0
0
SEQEND
0
POLYLINE
8
0
66
1
10
0.0
20
0.0
30
0.0
0
VERTEX
8
0
10
-200.0
20
12935.0
0
VERTEX
8
0
10
-200.0
20
13015.0
0
VERTEX
8
0
10
-180.0
20
13015.0
0
VERTEX
8
0
10
-180.0
20
12935.0
0
VERTEX
8
0
10
-200.0
20
12935.0
0
SEQEND
0
POLYLINE
8
0
66
1
10
0.0
20
0.0
30
0.0
0
VERTEX
8
0
10
1800.0
20
12935.0
0
VERTEX
8
0
10
1800.0
20
13015.0
0
VERTEX
8
0
10
1780.0
20
13015.0
0
VERTEX
8
0
10
1780.0
20
12935.0
0
VERTEX
8
0
10
1800.0
20
12935.0
0
SEQEND
0
POLYLINE
8
0
66
1
10
0.0
20
0.0
30
0.0
0
VERTEX
8
0
10
1260.0
20
26150.0
0
VERTEX
8
0
10
1340.0
20
26150.0
0
VERTEX
8
0
10
1340.0
20
26130.0
0
VERTEX
8
0
10
1260.0
20
26130.0
0
VERTEX
8
0
10
1260.0
20
26150.0
0
SEQEND
0
POLYLINE
8
0
66
1
10
0.0
20
0.0
30
0.0
0
VERTEX
8
0
10
1260.0
20
-200.0
0
VERTEX
8
0
10
1340.0
20
-200.0
0
VERTEX
8
0
10
1340.0
20
-180.0
0
VERTEX
8
0
10
1260.0
20
-180.0
0
VERTEX
8
0
10
1260.0
20
-200.0
0
SEQEND
0
POLYLINE
8
0
66
1
10
0.0
20
0.0
30
0.0
0
VERTEX
8
0
10
-200.0
20
19522.5
0
VERTEX
8
0
10
-200.0
20
19602.5
0
VERTEX
8
0
10
-180.0
20
19602.5
0
VERTEX
8
0
10
-180.0
20
19522.5
0
VERTEX
8
0
10
-200.0
20
19522.5
0
SEQEND
0
POLYLINE
8
0
66
1
10
0.0
20
0.0
30
0.0
0
VERTEX
8
0
10
1800.0
20
19522.5
0
VERTEX
8
0
10
1800.0
20
19602.5
0
VERTEX
8
0
10
1780.0
20
19602.5
0
VERTEX
8
0
10
1780.0
20
19522.5
0
VERTEX
8
0
10
1800.0
20
19522.5
0
SEQEND
0
POLYLINE
8
0
66
1
10
0.0
20
0.0
30
0.0
0
VERTEX
8
0
10
200.0
20
100.0
0
VERTEX
8
0
10
200.0
20
170.0
0
VERTEX
8
0
10
252.5
20
170.0
0
VERTEX
8
0
10
252.5
20
161.25
0
VERTEX
8
0
10
217.5
20
161.25
0
VERTEX
8
0
10
217.5
20
108.75
0
VERTEX
8
0
10
252.5
20
108.75
0
VERTEX
8
0
10
252.5
20
100.0
0
VERTEX
8
0
10
200.0
20
100.0
0
VERTEX
8
0
10
200.0
20
100.0
0
SEQEND
0
POLYLINE
8
0
66
1
10
0.0
20
0.0
30
0.0
0
VERTEX
8
0
10
270.0
20
100.0
0
VERTEX
8
0
10
322.5
20
100.0
0
VERTEX
8
0
10
322.5
20
108.75
0
VERTEX
8
0
10
305.0
20
108.75
0
VERTEX
8
0
10
305.0
20
170.0
0
VERTEX
8
0
10
287.5
20
170.0
0
VERTEX
8
0
10
270.0
20
161.25
0
VERTEX
8
0
10
270.0
20
152.5
0
VERTEX
8
0
10
287.5
20
152.5
0
VERTEX
8
0
10
287.5
20
108.75
0
VERTEX
8
0
10
270.0
20
108.75
0
VERTEX
8
0
10
270.0
20
100.0
0
VERTEX
8
0
10
270.0
20
100.0
0
SEQEND
0
POLYLINE
8
0
66
1
10
0.0
20
0.0
30
0.0
0
VERTEX
8
0
10
340.0
20
100.0
0
VERTEX
8
0
10
340.0
20
170.0
0
VERTEX
8
0
10
392.5
20
170.0
0
VERTEX
8
0
10
392.5
20
100.0
0
VERTEX
8
0
10
375.0
20
100.0
0
VERTEX
8
0
10
375.0
20
161.25
0
VERTEX
8
0
10
357.5
20
161.25
0
VERTEX
8
0
10
357.5
20
100.0
0
VERTEX
8
0
10
340.0
20
100.0
0
SEQEND
0
POLYLINE
8
0
66
1
10
0.0
20
0.0
30
0.0
0
VERTEX
8
0
10
357.5
20
135.0
0
VERTEX
8
0
10
357.5
20
143.75
0
VERTEX
8
0
10
375.0
20
143.75
0
VERTEX
8
0
10
375.0
20
135.0
0
VERTEX
8
0
10
357.5
20
135.0
0
SEQEND
0
ENDBLK
0
ENDSEC
0
SECTION
2
ENTITIES
0
INSERT
2
C1A
8
0
10
0
20
0
0
ENDSEC
0
EOF
